<?xml version="1.0" encoding="UTF-8" standalone="no"?>
<!-- Creator: fig2dev Version 3.2.8b -->
<!-- CreationDate: 2024-12-24 11:18:50 -->
<!-- Magnification: 1.05 -->
<svg	xmlns="http://www.w3.org/2000/svg"
	xmlns:xlink="http://www.w3.org/1999/xlink"
	width="243pt" height="243pt"
	viewBox="-1928 -1928 3856 3856">
<g fill="none">
<!-- Line -->
<polyline points=" 1800,1800 1705,1752 1606,1704 1491,1653 1388,1612 1294,1576 1220,1551 1140,1525
 1062,1502 969,1475 866,1450 771,1429 685,1412 608,1399 538,1388 443,1377 339,1365
 237,1357 125,1352 16,1350 -83,1351 -186,1355 -325,1364 -453,1377 -593,1395 -723,1417
 -854,1444 -962,1473 -1084,1508 -1199,1543 -1298,1577 -1391,1611 -1504,1658 -1617,1707
 -1719,1757 -1800,1800 0,-1800 1800,1800" fill="#ffd600"
	stroke="#000000" stroke-width="165px"/>
</g>
</svg>
