<?xml version="1.0" encoding="UTF-8" standalone="no"?>
<!-- Creator: fig2dev Version 3.2.8b -->
<!-- CreationDate: 2025-06-29 12:10:47 -->
<!-- Magnification: 1.05 -->
<svg	xmlns="http://www.w3.org/2000/svg"
	xmlns:xlink="http://www.w3.org/1999/xlink"
	width="684pt" height="238pt"
	viewBox="-9026 -1946 10852 3772">
<g fill="none">
<!-- Line -->
<polyline points=" -7050,-1860 -5700,-1860 -4800,-60 -5700,1740 -7050,1740 -7050,1290 -6060,1290
 -5385,-60 -6060,-1410 -7050,-1410 -7050,-1860" fill="#5f94bc"
	stroke="#4f84ac" stroke-width="105px"/>
<!-- Line -->
<polyline points=" -8940,-1860 -7590,-1860 -6690,-60 -7590,1740 -8940,1740 -8940,1290 -7950,1290
 -7275,-60 -7950,-1410 -8940,-1410 -8940,-1860" fill="#5f94bc"
	stroke="#4f84ac" stroke-width="105px"/>
<!-- Line -->
<polyline points=" -150,1740 -1500,1740 -2400,-60 -1500,-1860 -150,-1860 -150,-1410 -1140,-1410
 -1815,-60 -1140,1290 -150,1290 -150,1740" fill="#5f94bc"
	stroke="#4f84ac" stroke-width="105px"/>
<!-- Line -->
<polyline points=" 1740,1740 390,1740 -510,-60 390,-1860 1740,-1860 1740,-1410 750,-1410 75,-60
 750,1290 1740,1290 1740,1740" fill="#5f94bc"
	stroke="#4f84ac" stroke-width="105px"/>
</g>
</svg>
