<?xml version="1.0" encoding="UTF-8" standalone="no"?>
<svg
  version="1.1"
  viewBox="55 1625 400 400"
  xmlns="http://www.w3.org/2000/svg">
<g fill="none">
<path
   style="fill:#A81C1C;"
   d="M224.168,1973.382c0,0,0.057,0.106,0.163,0.306c0.106,0.2,0.263,0.494,0.468,0.848       c0.418,0.719,1.015,1.748,1.732,2.981c0.732,1.237,1.607,2.684,2.579,4.241c0.494,0.779,1.005,1.584,1.523,2.401       c0.541,0.79,1.09,1.592,1.639,2.394c1.116,1.607,2.268,3.218,3.38,4.732c1.111,1.518,2.18,2.938,3.122,4.082       c1.881,2.332,3.206,3.891,3.206,3.891s1.736,2.093,3.565,4.187c1.824,2.008,3.743,4.014,3.743,4.014       c2.639,2.623,5.357,4.048,8.059,3.949c1.351-0.024,2.694-0.373,4.014-1.042c1.32-0.673,2.618-1.636,3.869-3.022       c0,0,3.79-4.13,7.211-8.252c3.441-4.297,6.514-8.567,6.514-8.567s0.38-0.536,0.95-1.339c0.564-0.818,1.299-1.943,2.018-3.05       c1.442-2.221,2.793-4.428,2.793-4.428s0.342-0.546,0.855-1.365c0.509-0.815,1.178-1.898,1.814-3.044       c1.286-2.258,2.48-4.495,2.48-4.495s1.183-2.235,2.277-4.445c1.082-2.294,2.074-4.566,2.074-4.566       c1.311-3.11,1.522-5.828,0.788-8.288c-0.74-2.456-2.024-3.426-3.867-2.912c-0.925,0.258-1.76,0.826-2.532,1.706       c-0.786,0.827-1.507,1.97-2.186,3.438c0,0-0.999,2.203-2.682,5.56c-0.852,1.633-1.89,3.511-3.059,5.555       c-0.598,1.023-1.217,2.08-1.845,3.154c-0.325,0.539-0.653,1.082-0.982,1.628c-0.34,0.526-0.681,1.054-1.023,1.582       c-2.757,4.198-5.793,8.561-8.232,11.561c-2.427,3.075-4.171,5.132-4.171,5.132c-1.141,1.39-2.328,2.349-3.537,3.016       c-1.209,0.663-2.441,1.005-3.681,1.028c-2.479,0.097-4.973-1.306-7.381-3.941c0,0-1.751-2-3.408-3.998       c-1.662-2.085-3.229-4.164-3.229-4.164s-1.579-2.056-3.065-4.102c-0.748-1.007-1.47-2.076-2.004-2.877       c-0.529-0.797-0.882-1.328-0.882-1.328s-1.424-2.126-2.754-4.238c-0.667-1.065-1.321-2.088-1.793-2.917       c-0.469-0.819-0.782-1.365-0.782-1.365s-1.219-2.203-2.346-4.385c-0.551-1.088-1.103-2.176-1.517-2.991       c-0.405-0.802-0.658-1.38-0.658-1.38c-1.386-2.969-2.932-4.642-4.859-5.086c-1.827-0.512-3.099,0.431-3.806,2.902       c-0.699,2.464-0.447,5.225,0.884,8.34c0,0,1.053,2.216,2.197,4.458C222.941,1971.119,224.168,1973.382,224.168,1973.382z"
/>
<path
   style="fill:#A81C1C;"
   d="M368.49,1926.615c0,0,2.514,0.028,5.091-0.013c2.57-0.034,5.201-0.14,5.201-0.14       s2.566-0.119,5.19-0.31c2.618-0.184,5.293-0.443,5.293-0.443s0.167-0.018,0.459-0.05c0.293-0.031,0.712-0.077,1.198-0.147       c0.987-0.143,2.302-0.335,3.618-0.526c2.645-0.403,5.341-0.884,5.341-0.884s0.677-0.114,1.691-0.284       c1.013-0.177,2.326-0.453,3.668-0.732c2.672-0.558,5.39-1.198,5.39-1.198c3.629-0.85,6.04-2.594,7.397-4.91       c0.682-1.215,1.125-2.542,1.176-4.056c0.059-1.509-0.176-3.148-0.703-4.906c0,0-0.822-2.653-1.691-5.225       c-0.934-2.614-1.921-5.149-1.921-5.149s-0.948-2.554-1.936-5.023c-0.475-1.229-1.044-2.479-1.445-3.395       c-0.41-0.916-0.684-1.526-0.684-1.526s-1.129-2.422-2.294-4.757c-0.579-1.169-1.162-2.32-1.651-3.193       c-0.475-0.863-0.792-1.438-0.792-1.438s-1.247-2.286-2.525-4.483c-0.642-1.087-1.284-2.174-1.766-2.989       c-0.516-0.81-0.861-1.349-0.861-1.349s-1.374-2.171-2.772-4.251c-0.702-1.028-1.404-2.056-1.93-2.827       c-0.265-0.378-0.486-0.694-0.64-0.914c-0.164-0.222-0.258-0.348-0.258-0.348c-2.085-2.697-4.358-4.24-6.855-4.831       c-2.498-0.584-3.957,0.049-4.387,1.913c-0.512,1.849,0.168,4.006,2.07,6.718c0,0,0.363,0.501,0.906,1.253       c0.51,0.758,1.189,1.769,1.868,2.779c1.353,2.045,2.68,4.181,2.68,4.181s0.325,0.534,0.813,1.335       c0.502,0.811,1.102,1.879,1.7,2.966c1.202,2.169,2.372,4.426,2.372,4.426s0.29,0.571,0.724,1.428       c0.426,0.858,1.027,2.028,1.536,3.18c1.056,2.313,2.075,4.712,2.075,4.712s1.056,2.382,2.064,4.845       c0.942,2.421,1.841,4.924,1.841,4.924c0.588,1.663,0.875,3.204,0.867,4.612c0.001,1.413-0.391,2.639-1.016,3.753       c-1.247,2.122-3.526,3.685-7.054,4.335c0,0-2.629,0.498-5.21,0.917c-1.297,0.208-2.562,0.416-3.54,0.541       c-0.979,0.119-1.632,0.198-1.632,0.198s-2.6,0.342-5.146,0.608c-1.266,0.123-2.531,0.247-3.48,0.339       c-0.467,0.045-0.87,0.069-1.152,0.086c-0.281,0.017-0.441,0.027-0.441,0.027s-5.148,0.288-10.058,0.29       c-5.06-0.075-9.863-0.419-9.863-0.419c-3.222-0.261-5.494,0.205-6.807,1.61c-0.65,0.709-0.946,1.429-0.853,2.212       c0.098,0.787,0.591,1.642,1.486,2.562c0.895,0.919,1.969,1.67,3.243,2.242c1.28,0.578,2.754,0.971,4.406,1.129       c0,0,2.444,0.216,4.954,0.368c1.263,0.068,2.527,0.135,3.474,0.185c0.481,0.024,0.874,0.035,1.144,0.037       C368.334,1926.612,368.49,1926.615,368.49,1926.615z"
/>
<path
   style="fill:#FFA227;"
   d="M194.422,1959.474l-4.796,10.473c3.166-1.358,5.178-3.261,6.195-5.617      C196.834,1961.971,196.37,1960.359,194.422,1959.474z"
/>
<path
   style="fill:#FFA227;"
   d="M334.201,1972.68c1.695,0.605,3.208,0.809,4.603,0.756c1.392-0.059,2.647-0.411,3.756-1.046      c0.534-0.306,1.029-0.682,1.482-1.126c0.446-0.454,0.836-1,1.189-1.6c0.702-1.206,1.226-2.679,1.549-4.409      c0,0,0.115-0.65,0.287-1.626c0.164-0.98,0.397-2.245,0.562-3.576c0.356-2.635,0.635-5.217,0.635-5.217      c0.464-3.453-0.164-6.146-1.704-8.208c-1.536-2.046-3.185-2.448-4.982-1.172c-0.869,0.616-1.555,1.494-2.074,2.647      c-0.508,1.169-0.92,2.505-1.14,4.188c-0.229,1.668-0.658,3.081-1.264,4.228c-0.305,0.57-0.647,1.087-1.046,1.512      c-0.405,0.415-0.851,0.762-1.337,1.04c-1.009,0.577-2.165,0.871-3.458,0.875c-1.296-0.002-2.71-0.26-4.305-0.918      c-3.168-1.277-5.604-1.443-7.525-0.492c-1.953,0.871-2.402,2.469-1.355,4.812c1.052,2.341,3.101,4.236,6.306,5.589      c0,0,0.151,0.065,0.415,0.179c0.262,0.105,0.636,0.256,1.084,0.436c0.91,0.355,2.124,0.828,3.338,1.301      C331.668,1971.79,334.201,1972.68,334.201,1972.68z"
/>
<path
   style="fill:#FFA227;"
   d="M411.397,1823.764c0.095,2.257-1.307,4.508-3.931,6.62c-1.317,1.056-2.309,2.095-2.979,3.147      c-0.725,1.048-1.135,2.108-1.225,3.209c-0.173,2.116,1.008,3.321,3.561,3.584c2.553,0.257,5.197-0.592,7.923-2.68      c0,0,2.082-1.589,4.167-3.273c1.998-1.68,3.999-3.454,3.999-3.454c2.633-2.336,4.036-4.81,3.94-7.289      c-0.023-1.24-0.365-2.477-1.029-3.7c-0.666-1.223-1.628-2.432-3.021-3.609c0,0-2.067-1.712-4.129-3.332      c-2.063-1.629-4.119-3.166-4.119-3.166l-11.467,1.094c0.145,2.144,1.563,4.166,4.281,6.213c1.387,1.064,2.344,2.16,3.007,3.271      C411.035,1821.509,411.375,1822.635,411.397,1823.764z"
/>
<path
   style="fill:#A81C1C;"
   d="M143.193,1723.333c0,0-1.877-0.04-4.764-0.02c-1.444,0.01-3.142,0.038-4.984,0.093       c-1.823,0.071-3.741,0.21-5.707,0.359c-1.96,0.153-3.942,0.335-5.818,0.53c-1.856,0.21-3.563,0.465-5.058,0.682       c-2.979,0.444-5.004,0.799-5.004,0.799s-0.676,0.114-1.691,0.284c-1.017,0.174-2.326,0.452-3.669,0.73       c-2.672,0.558-5.39,1.197-5.39,1.197c-3.672,0.917-6.081,2.663-7.449,4.996c-0.662,1.179-1.091,2.485-1.136,3.984       c-0.052,1.495,0.185,3.131,0.712,4.889c0,0,0.411,1.316,1.026,3.29c0.593,1.943,1.56,4.569,2.519,7.107       c0.974,2.55,1.94,5.015,2.747,6.862c0.828,1.836,1.38,3.061,1.38,3.061s1.129,2.422,2.293,4.758       c0.581,1.17,1.16,2.32,1.649,3.193c0.475,0.863,0.792,1.439,0.792,1.439s1.24,2.307,2.511,4.523       c0.639,1.097,1.278,2.194,1.758,3.017c0.514,0.817,0.857,1.362,0.857,1.362s1.38,2.151,2.784,4.211       c0.705,1.019,1.409,2.037,1.938,2.801c0.266,0.375,0.487,0.687,0.643,0.906c0.163,0.219,0.257,0.345,0.257,0.345       c2.085,2.698,4.357,4.242,6.855,4.833c2.497,0.585,3.957-0.048,4.387-1.912c0.516-1.847-0.171-3.992-2.088-6.647       c0,0-0.358-0.503-0.984-1.382c-0.591-0.875-1.433-2.137-2.431-3.693c-0.999-1.556-2.154-3.407-3.372-5.45       c-1.149-2.017-2.347-4.221-3.527-6.489c-0.589-1.133-1.173-2.282-1.742-3.427c-0.536-1.131-1.048-2.254-1.544-3.356       c-0.988-2.202-1.887-4.31-2.643-6.146c-0.768-1.841-1.286-3.356-1.694-4.448c-0.39-1.09-0.613-1.713-0.613-1.713       c-0.588-1.664-0.876-3.201-0.875-4.597c-0.006-1.4,0.373-2.606,0.98-3.688c1.257-2.138,3.534-3.703,7.102-4.415       c0,0,2.629-0.497,5.209-0.916c1.297-0.208,2.56-0.416,3.542-0.539c0.979-0.119,1.632-0.198,1.632-0.198       s2.587-0.323,5.121-0.572c1.259-0.115,2.519-0.23,3.464-0.316c0.465-0.042,0.864-0.066,1.145-0.08       c0.279-0.015,0.439-0.024,0.439-0.024s2.568-0.157,5.077-0.241c2.515-0.091,4.97-0.112,4.97-0.112s2.53,0.055,4.996,0.178       c2.473,0.117,4.88,0.3,4.88,0.3c3.23,0.247,5.504-0.216,6.856-1.664c0.645-0.704,0.943-1.422,0.851-2.207       c-0.097-0.788-0.587-1.646-1.481-2.566c-0.895-0.92-1.971-1.668-3.246-2.239c-1.279-0.575-2.757-0.972-4.402-1.135       c0,0-2.457-0.202-4.981-0.339c-1.271-0.06-2.541-0.12-3.494-0.165c-0.484-0.022-0.876-0.027-1.15-0.029       C143.351,1723.334,143.193,1723.333,143.193,1723.333z"
/>
<path
   style="fill:#A81C1C;"
   d="M111.499,1871.687c0,0-1.3,2.166-2.572,4.422c-0.628,1.122-1.286,2.275-1.719,3.127       c-0.438,0.859-0.729,1.431-0.729,1.431s-1.195,2.286-2.356,4.66c-0.576,1.198-1.151,2.397-1.583,3.295       c-0.437,0.913-0.684,1.512-0.684,1.512s-1.02,2.422-2,4.929c-0.984,2.499-1.925,5.082-1.925,5.082s-0.06,0.16-0.166,0.441       c-0.097,0.278-0.236,0.676-0.403,1.153c-0.327,0.967-0.762,2.257-1.198,3.547c-0.859,2.601-1.67,5.284-1.67,5.284       c-0.543,1.79-0.691,3.401-0.592,4.885c0.106,1.481,0.498,2.816,1.167,3.981c0.347,0.605,0.762,1.164,1.244,1.676       c0.491,0.506,1.073,0.951,1.707,1.356c1.273,0.807,2.807,1.425,4.589,1.848c0,0,0.673,0.15,1.683,0.375       c1.014,0.217,2.327,0.519,3.706,0.753c2.729,0.495,5.408,0.911,5.408,0.911s2.676,0.458,5.307,0.834       c2.699,0.336,5.343,0.595,5.343,0.595s2.655,0.234,5.252,0.395c1.285,0.095,2.639,0.109,3.614,0.142       c0.982,0.021,1.637,0.035,1.637,0.035s2.595,0.065,5.13,0.061c1.263,0.005,2.526-0.014,3.496-0.061       c0.956-0.04,1.594-0.067,1.594-0.067s2.559-0.099,5.053-0.263c1.253-0.085,2.473-0.163,3.414-0.259       c0.939-0.101,1.565-0.168,1.565-0.168c3.368-0.444,5.836-1.634,7.596-3.502c1.754-1.872,1.939-3.46,0.548-4.78       c-0.714-0.646-1.593-1.123-2.72-1.388c-1.13-0.262-2.505-0.314-4.148-0.176c0,0-0.614,0.061-1.534,0.154       c-0.935,0.099-2.151,0.188-3.367,0.253c-2.441,0.144-4.947,0.222-4.947,0.222s-0.623,0.014-1.558,0.034       c-0.928,0.009-2.219,0.051-3.442,0.013c-2.473-0.046-5.005-0.163-5.005-0.163s-2.539-0.126-5.137-0.326       c-2.529-0.239-5.106-0.559-5.106-0.559s-2.582-0.279-5.216-0.635c-1.331-0.165-2.598-0.397-3.577-0.561       c-0.975-0.172-1.626-0.287-1.626-0.287c-1.73-0.323-3.203-0.846-4.415-1.558c-0.603-0.358-1.154-0.755-1.614-1.213       c-0.45-0.464-0.835-0.974-1.153-1.529c-0.613-1.069-0.952-2.303-1.006-3.685c-0.047-1.385,0.156-2.897,0.761-4.592       c0,0,0.891-2.533,1.825-4.984c0.473-1.214,0.946-2.428,1.301-3.339c0.181-0.449,0.331-0.823,0.436-1.084       c0.114-0.264,0.178-0.415,0.178-0.415s1.015-2.429,2.069-4.771c1.05-2.351,2.137-4.615,2.137-4.615s0.139-0.283,0.381-0.777       c0.261-0.496,0.633-1.204,1.08-2.053c0.898-1.687,2.113-3.894,3.351-6.029c1.198-2.125,2.613-4.248,3.606-5.779       c1.019-1.521,1.699-2.536,1.699-2.536c1.771-2.631,2.542-4.837,2.017-6.684c-0.516-1.843-2.014-2.448-4.502-1.828       c-2.49,0.627-4.71,2.196-6.697,4.909c0,0-1.432,2.01-2.842,4.111c-0.721,1.052-1.379,2.104-1.867,2.901       C111.826,1871.152,111.499,1871.687,111.499,1871.687z"
/>
<path
   style="fill:#FFA227;"
   d="M170.1,1704.482l-6.689-9.378c-0.408,3.412,0.234,6.098,1.772,8.157      C166.721,1705.311,168.355,1705.72,170.1,1704.482z"
/>
<path
   style="fill:#FFA227;"
   d="M88.801,1818.953c-2.632,2.336-4.039,4.828-3.94,7.382c0.023,1.23,0.365,2.463,1.028,3.674      c0.666,1.211,1.627,2.402,3.017,3.543c0,0,2.067,1.712,4.13,3.333c2.063,1.629,4.119,3.167,4.119,3.167      c2.817,2.125,5.503,2.927,8.05,2.628c2.549-0.305,3.681-1.528,3.416-3.719c-0.144-2.128-1.562-4.15-4.281-6.214      c-1.384-1.031-2.341-2.111-3.003-3.211c-0.66-1.1-1-2.222-1.022-3.342c-0.097-2.326,1.308-4.593,3.931-6.705      c1.317-1.055,2.309-2.09,2.979-3.13c0.727-1.036,1.133-2.076,1.221-3.145c0.175-2.132-1.008-3.32-3.561-3.583      c-2.553-0.256-5.196,0.576-7.923,2.682c0,0-2.08,1.568-4.163,3.23C90.801,1817.202,88.801,1818.953,88.801,1818.953z"
/>
<path
   style="fill:#FFA227;"
   d="M179.128,1960.267c-1.944-1.146-3.3-3.301-3.762-6.711c-0.244-1.683-0.637-3.076-1.202-4.198      c-0.567-1.118-1.308-1.961-2.196-2.622c-1.73-1.234-3.357-0.828-4.864,1.249c-1.502,2.08-2.1,4.805-1.676,8.233      c0,0,0.084,0.656,0.209,1.64c0.129,0.987,0.347,2.255,0.564,3.558c0.437,2.592,0.955,5.234,0.955,5.234      c0.651,3.529,2.198,5.797,4.336,7.053c1.082,0.607,2.293,0.989,3.704,0.99c1.408,0.008,2.966-0.271,4.661-0.842      c0,0,2.504-0.899,4.924-1.841c2.464-1.01,4.845-2.065,4.845-2.065l4.796-10.473c-0.976-0.445-2.087-0.595-3.346-0.468      c-1.237,0.08-2.624,0.445-4.18,1.088c-1.593,0.624-3.049,0.955-4.358,1.001C181.226,1961.146,180.112,1960.819,179.128,1960.267      z"
/>
<path
   style="fill:#A81C1C;"
   d="M400.199,1778.189c0,0,0.987-1.608,2.436-4.122c1.499-2.53,3.233-5.917,4.954-9.48       c0.426-0.897,0.852-1.794,1.271-2.677c0.425-0.895,0.817-1.774,1.169-2.622c0.723-1.703,1.384-3.323,1.943-4.728       c1.117-2.81,1.829-4.748,1.829-4.748s0.061-0.161,0.167-0.442c0.097-0.278,0.237-0.676,0.404-1.153       c0.327-0.967,0.763-2.257,1.198-3.546c0.86-2.601,1.671-5.283,1.671-5.283c0.525-1.825,0.664-3.454,0.558-4.95       c-0.113-1.492-0.507-2.831-1.181-4.005c-0.337-0.587-0.744-1.131-1.218-1.632c-0.484-0.495-1.061-0.931-1.69-1.33       c-1.265-0.795-2.796-1.409-4.579-1.833c0,0-1.342-0.303-3.354-0.758c-2.013-0.432-4.762-0.909-7.43-1.351       c-2.688-0.432-5.292-0.834-7.33-1.029c-1.999-0.202-3.331-0.336-3.331-0.336s-2.655-0.235-5.253-0.395       c-1.285-0.095-2.636-0.112-3.613-0.144c-0.982-0.021-1.637-0.035-1.637-0.035s-2.61-0.082-5.158-0.094       c-1.269-0.014-2.541-0.001-3.516,0.04c-0.962,0.035-1.603,0.058-1.603,0.058s-2.545,0.114-5.024,0.293       c-1.246,0.092-2.461,0.178-3.394,0.278c-0.934,0.106-1.556,0.176-1.556,0.176c-3.369,0.443-5.838,1.633-7.598,3.501       c-1.755,1.871-1.94,3.459-0.548,4.779c0.714,0.646,1.588,1.122,2.708,1.379c1.122,0.254,2.485,0.293,4.107,0.134       c0,0,0.613-0.058,1.687-0.158c1.094-0.111,2.591-0.195,4.434-0.279c1.842-0.083,4.017-0.154,6.388-0.184       c1.199-0.026,2.395,0,3.627,0.034c1.233,0.033,2.496,0.078,3.769,0.135c5.145,0.179,10.213,0.788,14.155,1.312       c0.979,0.133,1.891,0.256,2.685,0.381c0.786,0.137,1.471,0.256,2.036,0.354c1.136,0.208,1.785,0.326,1.785,0.326       c1.73,0.324,3.201,0.844,4.405,1.544c0.599,0.352,1.145,0.741,1.599,1.189c0.444,0.453,0.821,0.95,1.13,1.489       c0.617,1.077,0.96,2.316,1.019,3.708c0.053,1.395-0.141,2.924-0.73,4.651c0,0-0.891,2.533-1.826,4.982       c-0.473,1.214-0.946,2.428-1.301,3.338c-0.181,0.449-0.332,0.823-0.437,1.084c-0.114,0.264-0.18,0.416-0.18,0.416       s-1.024,2.408-2.087,4.732c-1.059,2.332-2.154,4.578-2.154,4.578s-0.068,0.142-0.187,0.389       c-0.115,0.245-0.295,0.603-0.517,1.031c-0.444,0.844-1.037,1.969-1.629,3.094c-1.193,2.227-2.417,4.365-2.417,4.365       s-0.314,0.53-0.785,1.325c-0.469,0.789-1.167,1.856-1.839,2.893c-1.357,2.085-2.739,4.079-2.739,4.079       c-1.766,2.646-2.535,4.851-1.996,6.754c0.511,1.829,2.016,2.448,4.5,1.829c2.494-0.627,4.707-2.209,6.7-4.907       c0,0,1.427-2.029,2.832-4.149c0.719-1.062,1.372-2.124,1.858-2.928C399.873,1778.729,400.199,1778.189,400.199,1778.189z"
/>
<path
   style="fill:#A81C1C;"
   d="M287.584,1676.544c0,0-0.076-0.141-0.211-0.389c-0.133-0.252-0.328-0.597-0.566-1.003       c-0.485-0.82-1.132-1.915-1.779-3.009c-1.318-2.194-2.728-4.405-2.728-4.405s-0.348-0.558-0.871-1.395       c-0.526-0.844-1.251-1.892-1.99-2.98c-1.474-2.157-3.041-4.325-3.041-4.325s-0.4-0.537-1.001-1.342       c-0.605-0.809-1.422-1.89-2.265-2.906c-1.677-2.066-3.448-4.137-3.448-4.137s-1.736-2.094-3.567-4.185       c-1.825-2.007-3.744-4.013-3.744-4.013c-2.56-2.619-5.277-4.047-7.958-3.949c-1.392,0.025-2.761,0.375-4.096,1.044       c-1.335,0.671-2.637,1.639-3.888,3.024c0,0-1.877,2.075-3.662,4.15c-1.794,2.075-3.495,4.147-3.495,4.147       s-1.729,2.137-3.365,4.269c-1.646,2.133-3.199,4.256-3.199,4.256s-0.38,0.536-0.95,1.339c-0.563,0.822-1.298,1.945-2.017,3.052       c-1.442,2.221-2.792,4.427-2.792,4.427s-0.337,0.545-0.841,1.363c-0.501,0.813-1.159,1.896-1.785,3.039       c-1.265,2.253-2.44,4.486-2.44,4.486s-1.204,2.239-2.318,4.454c-1.101,2.3-2.111,4.577-2.111,4.577       c-1.31,3.11-1.52,5.828-0.785,8.287c0.74,2.456,2.025,3.426,3.868,2.912c0.925-0.258,1.764-0.826,2.546-1.712       c0.797-0.829,1.535-1.977,2.243-3.451c0,0,1.006-2.219,2.102-4.462c0.542-1.138,1.116-2.216,1.554-3.027       c0.442-0.815,0.737-1.359,0.737-1.359s1.192-2.152,2.473-4.324c0.639-1.082,1.293-2.18,1.796-2.984       c0.51-0.786,0.85-1.31,0.85-1.31s1.388-2.1,2.868-4.213c1.47-2.112,3.033-4.233,3.033-4.233s1.537-2.056,3.167-4.119       c1.62-2.063,3.332-4.13,3.332-4.13c1.141-1.39,2.331-2.353,3.554-3.019c1.223-0.663,2.479-1.006,3.756-1.03       c2.461-0.097,4.953,1.309,7.289,3.941c0,0,1.751,2,3.409,3.998c1.663,2.082,3.231,4.162,3.231,4.162s1.601,2.057,3.109,4.106       c0.758,1.007,1.491,2.079,2.032,2.88c0.537,0.798,0.895,1.329,0.895,1.329s0.69,1.066,1.726,2.665       c1.014,1.615,2.337,3.666,3.554,5.897c1.228,2.192,2.381,4.368,3.213,5.991c0.41,0.81,0.751,1.485,0.99,1.958       c0.23,0.489,0.361,0.769,0.361,0.769c1.371,2.965,2.918,4.638,4.787,5.069c1.842,0.512,3.1-0.432,3.806-2.904       c0.697-2.464,0.461-5.224-0.887-8.338c0,0-1.035-2.212-2.159-4.449C288.789,1678.802,287.584,1676.544,287.584,1676.544z"
/>
<path
   style="fill:#FFA227;"
   d="M403.087,1810.914l11.467-1.094c-2.813-2.055-5.494-2.842-8.043-2.544      C403.962,1807.581,402.825,1808.787,403.087,1810.914z"
/>
<path
   style="fill:#FFA227;"
   d="M344.593,1683.29c-0.651-3.528-2.212-5.808-4.416-7.102c-1.074-0.602-2.28-0.982-3.682-0.976      c-1.398-0.002-2.939,0.284-4.602,0.872c0,0-2.504,0.899-4.925,1.841c-2.462,1.006-4.845,2.063-4.845,2.063      c-3.23,1.329-5.256,3.226-6.272,5.582c-1.011,2.359-0.532,3.978,1.474,4.89c0.969,0.442,2.077,0.589,3.334,0.465      c1.237-0.081,2.628-0.444,4.191-1.082c1.564-0.639,3.005-0.977,4.305-1.028c1.304-0.059,2.413,0.267,3.39,0.814      c2.004,1.179,3.372,3.345,3.834,6.754c0.244,1.682,0.633,3.074,1.188,4.188c0.557,1.112,1.281,1.944,2.142,2.586      c1.743,1.244,3.356,0.828,4.863-1.25c1.501-2.081,2.114-4.796,1.674-8.234c0,0-0.079-0.653-0.198-1.632      c-0.124-0.98-0.332-2.244-0.54-3.541C345.091,1685.919,344.593,1683.29,344.593,1683.29z"
/>
<path
   style="fill:#FFA227;"
   d="M177.031,1690.822c0.98-0.56,2.117-0.844,3.399-0.841c1.286,0.01,2.694,0.267,4.29,0.924      c3.169,1.277,5.618,1.434,7.599,0.457c1.938-0.865,2.402-2.469,1.356-4.813c-1.051-2.341-3.115-4.229-6.304-5.589      c0,0-0.152-0.065-0.419-0.178c-0.264-0.104-0.641-0.254-1.094-0.433c-0.918-0.351-2.141-0.819-3.365-1.287      c-2.47-0.925-5.024-1.805-5.024-1.805c-1.695-0.605-3.202-0.807-4.586-0.763c-1.38,0.052-2.615,0.392-3.691,1.009      c-0.538,0.309-1.036,0.686-1.493,1.132c-0.451,0.454-0.844,1.004-1.202,1.606c-0.712,1.212-1.251,2.695-1.605,4.445      c0,0-0.115,0.65-0.287,1.625c-0.165,0.978-0.395,2.246-0.56,3.578c-0.356,2.634-0.634,5.216-0.634,5.216l6.689,9.378      c0.875-0.62,1.565-1.501,2.083-2.654c0.506-1.172,0.916-2.504,1.128-4.182c0.257-1.686,0.699-3.108,1.315-4.26      c0.31-0.573,0.654-1.093,1.057-1.518C176.092,1691.451,176.541,1691.103,177.031,1690.822z"
/>
<path
   style="fill:#E0486C;"
   d="M289.128,1927.676c0,0,0.073,0.045,0.209,0.13c0.137,0.086,0.338,0.211,0.59,0.356       c0.514,0.294,1.247,0.715,2.127,1.22c0.891,0.502,1.945,1.082,3.098,1.695c0.581,0.304,1.182,0.618,1.793,0.938       c0.614,0.294,1.238,0.593,1.861,0.892c1.259,0.593,2.542,1.176,3.766,1.713c1.224,0.54,2.388,1.035,3.376,1.405       c1.988,0.768,3.359,1.257,3.359,1.257s1.814,0.672,3.686,1.311c1.838,0.588,3.734,1.142,3.734,1.142       c2.559,0.677,4.741,0.589,6.37-0.433c0.824-0.495,1.527-1.188,2.102-2.07c0.574-0.884,1.031-1.939,1.309-3.238       c0,0,0.866-3.893,1.508-7.649c0.591-3.871,0.966-7.596,0.966-7.596s0.044-0.465,0.109-1.163       c0.056-0.704,0.109-1.659,0.158-2.597c0.099-1.882,0.146-3.722,0.146-3.722s0.016-0.458,0.041-1.145       c0.024-0.684,0.05-1.589,0.035-2.521c-0.011-1.849-0.071-3.651-0.071-3.651s-0.066-1.798-0.178-3.549       c-0.149-1.798-0.347-3.551-0.347-3.551c-0.299-2.383-1.136-4.132-2.463-5.387c-1.329-1.25-2.466-1.391-3.418-0.418       c-0.478,0.488-0.79,1.135-0.953,1.952c-0.19,0.789-0.227,1.75-0.124,2.895c0,0,0.168,1.713,0.325,4.379       c0.056,1.309,0.084,2.836,0.092,4.511c-0.005,0.843-0.01,1.714-0.015,2.599c-0.009,0.448-0.017,0.899-0.026,1.352       c-0.022,0.445-0.045,0.892-0.068,1.338c-0.205,3.568-0.524,7.335-0.96,10.051c-0.401,2.758-0.744,4.646-0.744,4.646       c-0.209,1.263-0.599,2.276-1.106,3.116c-0.509,0.839-1.147,1.488-1.902,1.943c-1.493,0.942-3.528,0.965-5.95,0.197       c0,0-1.79-0.609-3.522-1.251c-1.765-0.693-3.471-1.417-3.471-1.417s-1.704-0.705-3.348-1.437       c-0.819-0.354-1.644-0.756-2.258-1.06c-0.609-0.302-1.016-0.504-1.016-0.504s-1.633-0.804-3.204-1.631       c-0.79-0.419-1.557-0.817-2.142-1.159c-0.58-0.338-0.967-0.563-0.967-0.563s-1.535-0.924-3.005-1.867       c-0.727-0.474-1.454-0.948-1.999-1.303c-0.535-0.35-0.896-0.616-0.896-0.616c-1.91-1.336-3.458-1.817-4.802-1.405       c-1.308,0.335-1.756,1.368-1.313,3.142c0.446,1.767,1.583,3.378,3.511,4.824c0,0,1.437,0.99,2.939,1.965       C287.568,1926.718,289.128,1927.676,289.128,1927.676z"
/>
<path
   style="fill:#E0486C;"
   d="M361.411,1847.525c0,0,1.559-0.877,3.132-1.819c1.571-0.936,3.155-1.936,3.155-1.936       s1.539-0.986,3.087-2.037c1.548-1.045,3.103-2.156,3.103-2.156s0.096-0.071,0.265-0.194c0.169-0.124,0.411-0.301,0.686-0.517       c0.557-0.439,1.299-1.025,2.042-1.611c1.486-1.189,2.976-2.444,2.976-2.444s0.376-0.311,0.941-0.777       c0.561-0.47,1.272-1.107,2-1.756c1.448-1.294,2.895-2.655,2.895-2.655c1.934-1.815,2.798-3.747,2.811-5.656       c-0.012-0.991-0.211-1.967-0.718-2.917c-0.5-0.95-1.228-1.877-2.178-2.773c0,0-1.45-1.342-2.901-2.617       c-1.505-1.278-3.015-2.489-3.015-2.489s-1.492-1.236-2.98-2.406c-0.73-0.588-1.525-1.156-2.098-1.578       c-0.578-0.418-0.964-0.697-0.964-0.697s-1.557-1.091-3.105-2.115c-0.773-0.514-1.541-1.016-2.153-1.38       c-0.6-0.363-1-0.605-1-0.605s-1.582-0.964-3.15-1.864c-0.782-0.441-1.565-0.883-2.151-1.214       c-0.606-0.315-1.01-0.525-1.01-0.525s-1.619-0.849-3.22-1.633c-0.798-0.384-1.596-0.767-2.195-1.055       c-0.298-0.139-0.546-0.255-0.72-0.336c-0.18-0.078-0.283-0.123-0.283-0.123c-2.244-0.92-4.193-1.062-5.942-0.538       c-1.747,0.529-2.421,1.438-2.023,2.739c0.342,1.322,1.528,2.409,3.665,3.403c0,0,0.402,0.18,1.004,0.45       c0.584,0.286,1.362,0.667,2.14,1.048c1.561,0.779,3.138,1.623,3.138,1.623s0.39,0.213,0.976,0.533       c0.598,0.321,1.347,0.765,2.102,1.222c1.512,0.909,3.036,1.884,3.036,1.884s0.382,0.249,0.954,0.622       c0.567,0.377,1.354,0.884,2.078,1.412c1.473,1.049,2.954,2.165,2.954,2.165s1.498,1.092,2.995,2.251       c1.441,1.156,2.886,2.379,2.886,2.379c0.954,0.816,1.678,1.663,2.175,2.533c0.503,0.87,0.698,1.765,0.709,2.674       c-0.013,1.751-0.862,3.525-2.804,5.18c0,0-1.443,1.242-2.884,2.418c-0.725,0.59-1.431,1.167-1.989,1.593       c-0.561,0.422-0.935,0.703-0.935,0.703s-1.48,1.135-2.954,2.205c-0.736,0.526-1.472,1.052-2.023,1.447       c-0.272,0.194-0.512,0.352-0.679,0.463c-0.167,0.11-0.262,0.173-0.262,0.173s-3.069,2.009-6.094,3.756       c-3.144,1.754-6.226,3.25-6.226,3.25c-2.078,0.985-3.312,2.08-3.621,3.413c-0.148,0.668-0.074,1.217,0.261,1.666       c0.34,0.45,0.948,0.802,1.827,1.05c0.879,0.248,1.807,0.329,2.796,0.228c0.994-0.099,2.043-0.381,3.116-0.872       c0,0,1.583-0.736,3.183-1.536c0.802-0.408,1.605-0.816,2.206-1.122c0.305-0.156,0.551-0.289,0.718-0.384       C361.314,1847.579,361.411,1847.525,361.411,1847.525z"
/>
<path
   style="fill:#FFA227;"
   d="M265.854,1929.688l0.771,8.158c1.468-1.963,2.03-3.851,1.819-5.664      C268.229,1930.368,267.37,1929.54,265.854,1929.688z"
/>
<path
   style="fill:#FFA227;"
   d="M356.671,1888.103c1.259-0.23,2.264-0.643,3.105-1.172c0.836-0.531,1.485-1.194,1.942-1.981      c0.22-0.379,0.392-0.786,0.512-1.221c0.113-0.439,0.16-0.914,0.164-1.409c0.004-0.993-0.198-2.087-0.614-3.267      c0,0-0.16-0.441-0.401-1.104c-0.248-0.662-0.554-1.524-0.926-2.403c-0.718-1.75-1.464-3.44-1.464-3.44      c-0.942-2.293-2.287-3.728-3.97-4.451c-1.674-0.714-2.833-0.375-3.486,1.05c-0.316,0.688-0.427,1.474-0.336,2.368      c0.103,0.901,0.324,1.871,0.788,2.986c0.452,1.109,0.691,2.132,0.725,3.055c0.015,0.46-0.012,0.9-0.106,1.304      c-0.102,0.399-0.254,0.772-0.454,1.116c-0.417,0.715-1.024,1.307-1.819,1.769c-0.799,0.459-1.762,0.803-2.979,0.966      c-2.406,0.34-3.966,1.104-4.811,2.374c-0.893,1.232-0.602,2.375,0.877,3.447c1.481,1.068,3.417,1.507,5.873,1.2      c0,0,0.116-0.014,0.32-0.037c0.199-0.028,0.483-0.068,0.823-0.117c0.687-0.105,1.603-0.245,2.52-0.386      C354.794,1888.456,356.671,1888.103,356.671,1888.103z"
/>
<path
   style="fill:#FFA227;"
   d="M351.261,1768.895c0.861,1.357,0.798,3.242-0.067,5.477c-0.436,1.119-0.677,2.112-0.716,2.998      c-0.074,0.904,0.051,1.703,0.387,2.413c0.646,1.365,1.802,1.688,3.469,0.941c1.665-0.75,2.991-2.213,3.928-4.469      c0,0,0.717-1.719,1.403-3.499c0.634-1.746,1.235-3.551,1.235-3.551c0.791-2.376,0.776-4.399-0.166-5.892      c-0.455-0.756-1.106-1.396-1.95-1.914c-0.845-0.517-1.868-0.92-3.145-1.149c0,0-1.882-0.32-3.729-0.584      c-1.85-0.27-3.664-0.485-3.664-0.485l-6.676,4.753c0.852,1.269,2.445,2.011,4.848,2.305c1.233,0.162,2.213,0.497,3.016,0.946      C350.236,1767.635,350.846,1768.208,351.261,1768.895z"
/>
<path
   style="fill:#E0486C;"
   d="M150.294,1802.421c0,0-1.171,0.643-2.942,1.682c-0.886,0.52-1.923,1.141-3.038,1.831       c-1.098,0.692-2.23,1.46-3.389,2.251c-1.153,0.791-2.31,1.608-3.396,2.396c-1.069,0.789-2.029,1.554-2.873,2.219       c-1.678,1.333-2.799,2.272-2.799,2.272s-0.376,0.311-0.941,0.777c-0.564,0.469-1.272,1.106-2.001,1.755       c-1.448,1.294-2.895,2.655-2.895,2.655c-1.937,1.871-2.799,3.804-2.812,5.728c0.011,0.962,0.212,1.919,0.717,2.859       c0.5,0.94,1.227,1.863,2.178,2.759c0,0,0.721,0.665,1.803,1.662c1.057,0.986,2.587,2.26,4.08,3.483       c1.507,1.225,2.979,2.4,4.133,3.25c1.163,0.837,1.939,1.395,1.939,1.395s1.557,1.091,3.105,2.116       c0.774,0.514,1.54,1.017,2.152,1.381c0.6,0.363,1,0.605,1,0.605s1.585,0.98,3.156,1.894c0.784,0.449,1.568,0.897,2.156,1.233       c0.607,0.32,1.012,0.534,1.012,0.534s1.615,0.834,3.213,1.604c0.796,0.377,1.593,0.754,2.19,1.036       c0.297,0.137,0.545,0.25,0.718,0.33c0.179,0.077,0.281,0.121,0.281,0.121c2.244,0.921,4.194,1.064,5.943,0.539       c1.747-0.528,2.421-1.437,2.023-2.739c-0.339-1.322-1.525-2.399-3.651-3.352c0,0-0.399-0.182-1.098-0.501       c-0.676-0.329-1.643-0.807-2.812-1.411c-1.169-0.603-2.539-1.333-4.016-2.158c-1.426-0.834-2.948-1.765-4.481-2.743       c-0.766-0.489-1.534-0.989-2.292-1.492c-0.733-0.506-1.448-1.016-2.145-1.519c-1.392-1.005-2.696-1.984-3.815-2.847       c-1.128-0.861-1.986-1.61-2.626-2.138c-0.628-0.533-0.987-0.837-0.987-0.837c-0.954-0.816-1.678-1.66-2.174-2.521       c-0.501-0.86-0.697-1.739-0.708-2.621c0.014-1.765,0.86-3.539,2.806-5.246c0,0,1.443-1.242,2.884-2.417       c0.725-0.589,1.429-1.167,1.99-1.592c0.561-0.422,0.935-0.703,0.935-0.703s1.479-1.12,2.951-2.174       c0.735-0.519,1.47-1.037,2.022-1.427c0.272-0.191,0.509-0.348,0.677-0.457c0.167-0.109,0.262-0.171,0.262-0.171       s1.526-1.01,3.042-1.955c1.517-0.951,3.022-1.837,3.022-1.837s1.578-0.866,3.142-1.667c1.565-0.808,3.113-1.551,3.113-1.551       c2.078-0.996,3.314-2.091,3.632-3.464c0.147-0.663,0.075-1.211-0.261-1.662c-0.34-0.451-0.947-0.806-1.825-1.054       c-0.879-0.248-1.807-0.327-2.797-0.225c-0.993,0.101-2.044,0.382-3.116,0.866c0,0-1.586,0.75-3.19,1.563       c-0.804,0.415-1.608,0.83-2.211,1.141c-0.306,0.159-0.549,0.295-0.719,0.391       C150.391,1802.366,150.294,1802.421,150.294,1802.421z"
/>
<path
   style="fill:#E0486C;"
   d="M183.538,1905.098c0,0-0.031,1.797-0.012,3.64c0.012,0.915,0.017,1.859,0.053,2.538       c0.036,0.685,0.06,1.141,0.06,1.141s0.077,1.834,0.206,3.709c0.072,0.943,0.143,1.886,0.197,2.593       c0.055,0.718,0.117,1.175,0.117,1.175s0.233,1.855,0.521,3.749c0.283,1.89,0.622,3.816,0.622,3.816s0.02,0.12,0.055,0.331       c0.039,0.206,0.095,0.501,0.162,0.854c0.143,0.712,0.333,1.662,0.524,2.611c0.396,1.908,0.85,3.85,0.85,3.85       c0.302,1.296,0.784,2.341,1.373,3.22c0.592,0.875,1.308,1.558,2.135,2.037c0.429,0.249,0.884,0.446,1.363,0.59       c0.483,0.137,1,0.204,1.534,0.229c1.072,0.044,2.236-0.12,3.485-0.494c0,0,0.468-0.147,1.171-0.368       c0.702-0.227,1.618-0.508,2.551-0.854c1.857-0.666,3.656-1.363,3.656-1.363s1.812-0.669,3.566-1.374       c1.782-0.753,3.504-1.534,3.504-1.534s1.719-0.8,3.376-1.625c0.825-0.398,1.665-0.872,2.277-1.198       c0.613-0.336,1.021-0.561,1.021-0.561s1.622-0.883,3.182-1.787c0.78-0.446,1.551-0.907,2.133-1.281       c0.575-0.365,0.958-0.608,0.958-0.608s1.542-0.971,3.02-1.959c0.742-0.498,1.466-0.98,2.011-1.374       c0.543-0.396,0.904-0.66,0.904-0.66c1.917-1.472,3.015-3.083,3.434-4.86c0.415-1.777-0.036-2.822-1.363-3.14       c-0.67-0.144-1.381-0.125-2.169,0.112c-0.789,0.24-1.655,0.697-2.618,1.367c0,0-0.356,0.256-0.891,0.641       c-0.541,0.393-1.258,0.881-1.985,1.354c-1.453,0.957-2.969,1.896-2.969,1.896s-0.379,0.23-0.948,0.575       c-0.568,0.335-1.349,0.821-2.116,1.232c-1.54,0.851-3.142,1.68-3.142,1.68s-1.609,0.826-3.281,1.627       c-1.643,0.752-3.345,1.472-3.345,1.472s-1.69,0.747-3.44,1.464c-0.879,0.372-1.742,0.68-2.403,0.927       c-0.662,0.241-1.104,0.401-1.104,0.401c-1.181,0.416-2.274,0.618-3.274,0.61c-0.499-0.006-0.979-0.055-1.426-0.173       c-0.443-0.126-0.861-0.303-1.254-0.532c-0.758-0.441-1.406-1.08-1.931-1.913c-0.522-0.837-0.935-1.84-1.165-3.1       c0,0-0.352-1.878-0.648-3.72c-0.141-0.916-0.281-1.833-0.386-2.52c-0.048-0.341-0.089-0.625-0.117-0.823       c-0.024-0.203-0.038-0.319-0.038-0.319s-0.239-1.857-0.423-3.676c-0.189-1.822-0.325-3.604-0.325-3.604       s-0.015-0.223-0.041-0.614c-0.016-0.398-0.038-0.967-0.065-1.649c-0.047-1.359-0.083-3.15-0.08-4.906       c-0.018-1.735,0.099-3.547,0.166-4.844c0.087-1.3,0.145-2.167,0.145-2.167c0.155-2.251-0.154-3.885-1.135-4.835       c-0.973-0.952-2.112-0.792-3.424,0.475c-1.311,1.272-2.121,3.028-2.38,5.407c0,0-0.167,1.748-0.289,3.544       c-0.07,0.905-0.101,1.787-0.118,2.451C183.549,1904.652,183.538,1905.098,183.538,1905.098z"
/>
<path
   style="fill:#FFA227;"
   d="M160.166,1781.236l-7.457-3.398c0.962,2.247,2.313,3.674,3.993,4.395      C158.379,1782.949,159.531,1782.62,160.166,1781.236z"
/>
<path
   style="fill:#FFA227;"
   d="M150.795,1880.682c-0.791,2.375-0.771,4.411,0.198,5.95c0.452,0.75,1.101,1.388,1.94,1.898      c0.841,0.509,1.857,0.901,3.119,1.11c0,0,1.882,0.32,3.73,0.584c1.851,0.27,3.664,0.486,3.664,0.486      c2.491,0.307,4.432-0.154,5.895-1.244c1.462-1.095,1.725-2.251,0.782-3.507c-0.846-1.26-2.439-2.001-4.848-2.305      c-1.22-0.143-2.193-0.468-2.993-0.91c-0.798-0.443-1.406-1.013-1.818-1.695c-0.887-1.398-0.828-3.295,0.037-5.529      c0.436-1.119,0.679-2.109,0.722-2.988c0.079-0.897-0.04-1.682-0.367-2.372c-0.651-1.376-1.802-1.687-3.468-0.941      c-1.664,0.75-2.996,2.203-3.927,4.471c0,0-0.724,1.706-1.416,3.471C151.405,1878.892,150.795,1880.682,150.795,1880.682z"
/>
<path
   style="fill:#FFA227;"
   d="M256.714,1935.617c-1.605-0.015-3.207-0.86-4.705-2.796c-0.749-0.95-1.487-1.669-2.234-2.159      c-0.747-0.487-1.504-0.743-2.286-0.835c-1.505-0.145-2.363,0.684-2.552,2.5c-0.186,1.816,0.415,3.708,1.896,5.669      c0,0,0.285,0.374,0.712,0.936c0.431,0.562,1.016,1.266,1.613,1.992c1.191,1.441,2.45,2.885,2.45,2.885      c1.656,1.942,3.416,2.789,5.181,2.803c0.882-0.011,1.764-0.207,2.634-0.708c0.87-0.496,1.731-1.222,2.572-2.177      c0,0,1.223-1.444,2.379-2.886c1.159-1.498,2.25-2.996,2.25-2.996l-0.771-8.158c-0.76,0.073-1.498,0.375-2.228,0.901      c-0.733,0.489-1.458,1.208-2.188,2.157c-0.759,0.951-1.539,1.673-2.329,2.167      C258.319,1935.412,257.516,1935.607,256.714,1935.617z"
/>
<path
   style="fill:#E0486C;"
   d="M328.151,1744.799c0,0,0.036-1.342,0.034-3.406c0.023-2.092-0.113-4.796-0.32-7.603       c-0.057-0.704-0.114-1.408-0.17-2.102c-0.057-0.703-0.128-1.384-0.213-2.031c-0.16-1.307-0.329-2.54-0.485-3.604       c-0.311-2.129-0.562-3.576-0.562-3.576s-0.02-0.121-0.054-0.332c-0.039-0.206-0.095-0.501-0.161-0.854       c-0.143-0.712-0.333-1.662-0.523-2.611c-0.396-1.908-0.85-3.849-0.85-3.849c-0.326-1.311-0.82-2.364-1.417-3.248       c-0.6-0.879-1.319-1.564-2.152-2.048c-0.417-0.242-0.861-0.432-1.331-0.572c-0.474-0.133-0.985-0.196-1.515-0.218       c-1.062-0.039-2.224,0.127-3.473,0.5c0,0-0.935,0.291-2.336,0.726c-1.394,0.45-3.257,1.134-5.059,1.811       c-1.81,0.69-3.557,1.368-4.882,1.973c-1.303,0.587-2.172,0.978-2.172,0.978s-1.719,0.8-3.377,1.625       c-0.826,0.398-1.664,0.869-2.277,1.196c-0.613,0.336-1.021,0.561-1.021,0.561s-1.637,0.878-3.211,1.777       c-0.787,0.443-1.566,0.903-2.152,1.275c-0.58,0.363-0.967,0.606-0.967,0.606s-1.527,0.975-2.991,1.967       c-0.735,0.5-1.453,0.985-1.993,1.379c-0.538,0.397-0.896,0.662-0.896,0.662c-1.918,1.472-3.016,3.082-3.436,4.859       c-0.415,1.777,0.036,2.821,1.362,3.14c0.669,0.144,1.378,0.127,2.159-0.114c0.782-0.242,1.635-0.703,2.578-1.379       c0,0,0.357-0.254,0.983-0.698c0.634-0.457,1.527-1.042,2.633-1.749c1.105-0.707,2.42-1.524,3.87-2.386       c0.729-0.442,1.476-0.852,2.247-1.269c0.771-0.418,1.565-0.84,2.37-1.257c3.234-1.72,6.573-3.147,9.188-4.227       c0.651-0.266,1.256-0.515,1.79-0.72c0.533-0.195,0.997-0.366,1.38-0.506c0.774-0.276,1.216-0.434,1.216-0.434       c1.181-0.416,2.272-0.619,3.263-0.616c0.494,0.004,0.969,0.049,1.408,0.164c0.435,0.121,0.844,0.294,1.225,0.515       c0.763,0.444,1.415,1.085,1.947,1.922c0.529,0.841,0.953,1.851,1.205,3.125c0,0,0.352,1.877,0.647,3.719       c0.14,0.916,0.281,1.832,0.386,2.519c0.048,0.341,0.088,0.625,0.117,0.823c0.023,0.204,0.037,0.32,0.037,0.32       s0.226,1.848,0.397,3.658c0.177,1.813,0.301,3.586,0.301,3.586s0.009,0.111,0.023,0.306c0.017,0.192,0.033,0.476,0.048,0.819       c0.026,0.678,0.062,1.582,0.097,2.486c0.057,1.797,0.063,3.549,0.063,3.549s-0.005,0.438-0.012,1.095       c-0.008,0.653-0.059,1.559-0.104,2.436c-0.094,1.767-0.236,3.487-0.236,3.487c-0.147,2.258,0.163,3.891,1.173,4.871       c0.965,0.945,2.113,0.791,3.423-0.474c1.314-1.274,2.114-3.036,2.382-5.406c0,0,0.158-1.758,0.269-3.563       c0.065-0.91,0.09-1.796,0.103-2.465C328.142,1745.248,328.151,1744.799,328.151,1744.799z"
/>
<path
   style="fill:#E0486C;"
   d="M222.611,1722.233c0,0-0.097-0.06-0.268-0.165c-0.172-0.108-0.414-0.251-0.705-0.417       c-0.591-0.333-1.379-0.777-2.166-1.221c-1.592-0.883-3.248-1.743-3.248-1.743s-0.413-0.22-1.033-0.549       c-0.624-0.333-1.444-0.721-2.286-1.128c-1.675-0.805-3.412-1.583-3.412-1.583s-0.438-0.188-1.094-0.471       c-0.66-0.283-1.549-0.659-2.43-0.984c-1.768-0.676-3.596-1.322-3.596-1.322s-1.815-0.673-3.686-1.31       c-1.838-0.587-3.734-1.141-3.734-1.141c-2.509-0.703-4.691-0.617-6.307,0.398c-0.849,0.51-1.568,1.213-2.152,2.1       c-0.584,0.888-1.041,1.948-1.319,3.246c0,0-0.418,1.946-0.78,3.86c-0.367,1.917-0.679,3.798-0.679,3.798       s-0.305,1.932-0.555,3.827c-0.255,1.899-0.457,3.76-0.457,3.76s-0.044,0.465-0.109,1.163c-0.054,0.707-0.108,1.66-0.157,2.598       c-0.098,1.881-0.145,3.721-0.145,3.721s-0.014,0.456-0.034,1.139c-0.02,0.679-0.04,1.58-0.019,2.507       c0.022,1.838,0.092,3.632,0.092,3.632s0.055,1.808,0.156,3.569c0.139,1.808,0.327,3.571,0.327,3.571       c0.299,2.382,1.137,4.131,2.464,5.385c1.33,1.25,2.466,1.391,3.419,0.418c0.478-0.488,0.793-1.137,0.96-1.96       c0.196-0.794,0.242-1.764,0.154-2.924c0,0-0.169-1.725-0.292-3.497c-0.071-0.894-0.101-1.762-0.119-2.418       c-0.018-0.66-0.029-1.099-0.029-1.099s-0.031-1.75-0.014-3.544c0.009-0.894,0.021-1.803,0.045-2.478       c0.035-0.666,0.057-1.109,0.057-1.109s0.108-1.788,0.268-3.616c0.155-1.824,0.363-3.687,0.363-3.687s0.216-1.814,0.486-3.664       c0.265-1.847,0.584-3.73,0.584-3.73c0.208-1.262,0.599-2.279,1.116-3.124c0.517-0.844,1.169-1.502,1.948-1.97       c1.482-0.935,3.517-0.956,5.893-0.165c0,0,1.79,0.61,3.522,1.25c1.765,0.691,3.471,1.415,3.471,1.415s1.718,0.698,3.376,1.424       c0.826,0.351,1.658,0.751,2.277,1.052c0.615,0.3,1.024,0.501,1.024,0.501s0.804,0.411,2.011,1.028       c1.199,0.634,2.744,1.427,4.287,2.369c1.536,0.914,3.021,1.844,4.111,2.548c0.541,0.353,0.991,0.648,1.307,0.854       c0.316,0.22,0.496,0.345,0.496,0.345c1.899,1.339,3.447,1.82,4.753,1.42c1.317-0.34,1.756-1.369,1.312-3.143       c-0.447-1.766-1.574-3.382-3.512-4.822c0,0-1.424-0.994-2.913-1.973C224.157,1723.195,222.611,1722.233,222.611,1722.233z"
/>
<path
   style="fill:#FFA227;"
   d="M341.57,1763.934l6.676-4.753c-2.464-0.266-4.396,0.203-5.86,1.293      C340.924,1761.569,340.653,1762.717,341.57,1763.934z"
/>
<path
   style="fill:#FFA227;"
   d="M260.134,1706.11c-1.656-1.942-3.429-2.792-5.247-2.805c-0.876,0.011-1.754,0.206-2.616,0.708      c-0.862,0.496-1.709,1.221-2.525,2.174c0,0-1.223,1.444-2.379,2.886c-1.159,1.495-2.251,2.994-2.251,2.994      c-1.517,1.967-2.091,3.857-1.879,5.67c0.216,1.813,1.087,2.64,2.647,2.488c0.754-0.072,1.489-0.376,2.22-0.9      c0.733-0.49,1.461-1.208,2.197-2.158c0.736-0.95,1.504-1.671,2.286-2.165c0.782-0.5,1.582-0.694,2.378-0.704      c1.654,0.014,3.267,0.862,4.765,2.798c0.749,0.95,1.483,1.669,2.222,2.158c0.738,0.487,1.481,0.742,2.24,0.831      c1.516,0.146,2.362-0.684,2.552-2.5c0.185-1.816-0.404-3.707-1.898-5.669c0,0-0.281-0.374-0.703-0.935      c-0.425-0.56-1.003-1.265-1.592-1.99C261.376,1707.553,260.134,1706.11,260.134,1706.11z"
/>
<path
   style="fill:#FFA227;"
   d="M159.577,1770.355c0.404-0.693,1.004-1.273,1.795-1.727c0.796-0.451,1.755-0.794,2.972-0.957      c2.407-0.34,3.972-1.115,4.844-2.422c0.887-1.222,0.602-2.376-0.876-3.448c-1.48-1.068-3.424-1.497-5.872-1.201      c0,0-0.117,0.014-0.322,0.039c-0.2,0.03-0.485,0.072-0.828,0.122c-0.69,0.11-1.611,0.257-2.531,0.404      c-1.851,0.309-3.737,0.675-3.737,0.675c-1.26,0.23-2.26,0.642-3.097,1.161c-0.831,0.523-1.471,1.172-1.915,1.935      c-0.222,0.382-0.395,0.792-0.517,1.228c-0.117,0.44-0.163,0.918-0.169,1.417c-0.008,1,0.188,2.106,0.592,3.309      c0,0,0.161,0.441,0.401,1.104c0.247,0.661,0.556,1.525,0.928,2.403c0.718,1.75,1.464,3.439,1.464,3.439l7.457,3.398      c0.319-0.693,0.43-1.481,0.34-2.376c-0.105-0.902-0.326-1.868-0.793-2.978c-0.442-1.13-0.675-2.164-0.705-3.093      c-0.013-0.463,0.014-0.906,0.111-1.311C159.222,1771.076,159.375,1770.702,159.577,1770.355z"
/>
<path
   style="fill:#75CBEA;"
   d="M298.428,1824.964c0.345,0.949,0.826,1.71,1.431,2.265c0.579,0.551,1.284,0.897,2.131,1.001     c1.691,0.207,3.496-0.257,5.348-1.61c0,0,1.392-1.028,2.676-2.188c0.653-0.576,1.319-1.176,1.801-1.637     c0.468-0.468,0.78-0.78,0.78-0.78s0.313-0.317,0.781-0.792c0.458-0.48,1.12-1.138,1.694-1.816     c1.183-1.351,2.358-2.822,2.358-2.822l-18.641,1.778c-0.152,0.319-0.309,0.63-0.432,0.959     C297.696,1821.302,297.633,1823.057,298.428,1824.964z"
/>
<path
   style="fill:#E0486C;"
   d="M299.587,1858.74c0,0,1.743-0.158,3.565-0.41c1.781-0.267,3.608-0.653,3.608-0.653     s0.116-0.023,0.318-0.063c0.204-0.04,0.493-0.1,0.829-0.182c0.679-0.161,1.592-0.388,2.518-0.637     c0.936-0.241,1.844-0.528,2.53-0.753c0.691-0.229,1.152-0.382,1.152-0.382s0.464-0.167,1.159-0.416     c0.698-0.255,1.591-0.634,2.514-1.024c1.858-0.766,3.656-1.701,3.656-1.701s0.458-0.227,1.144-0.568     c0.698-0.343,1.601-0.828,2.494-1.345c0.899-0.513,1.805-1.049,2.488-1.463c0.663-0.427,1.105-0.712,1.105-0.712     c2.337-1.554,4.462-3.99,6.081-7.245c1.681-3.238,2.253-6.942,1.774-10.54c-0.509-3.611-1.756-5.407-3.444-5.458     c-1.775-0.06-3.44,1.017-5.341,3.039c0,0-0.35,0.362-0.874,0.906c-0.516,0.538-1.225,1.239-1.969,1.911     c-0.731,0.675-1.461,1.325-2.008,1.801c-0.544,0.477-0.937,0.78-0.937,0.78s-1.527,1.232-3.064,2.334     c-1.585,1.105-3.143,2.087-3.143,2.087s-0.393,0.253-0.997,0.611c-0.601,0.36-1.399,0.825-2.188,1.266     c-0.78,0.446-1.625,0.845-2.221,1.144c-0.604,0.29-1.007,0.484-1.007,0.484s-0.791,0.388-2.039,0.878     c-0.617,0.248-1.331,0.525-2.087,0.804c-0.756,0.279-1.605,0.538-2.415,0.789c-1.61,0.512-3.289,0.88-4.489,1.135     c-0.597,0.131-1.114,0.216-1.474,0.273c-0.357,0.056-0.561,0.089-0.561,0.089c-1.082,0.16-2.068,0.425-3.068,0.747     c-0.491,0.167-0.964,0.359-1.421,0.581c-0.477,0.209-0.946,0.44-1.395,0.705c-0.857,0.533-1.642,1.08-2.187,1.821     c-0.624,0.675-1.012,1.551-1.374,2.493c-0.167,0.483-0.277,0.952-0.331,1.403c-0.061,0.444-0.082,0.855-0.034,1.258     c0.092,0.8,0.417,1.528,0.998,2.151c1.155,1.238,2.827,2.044,5.14,2.206c0,0,0.427,0.014,1.067,0.034     c0.64,0.012,1.526,0.038,2.395,0.013C297.776,1858.879,299.587,1858.74,299.587,1858.74z"
/>
<path
   style="fill:#EA8FA0;"
   d="M265.949,1878.514c0,0,0.371,0.26,0.926,0.649c0.559,0.373,1.314,0.849,2.096,1.328     c1.562,0.985,3.215,1.819,3.215,1.819s0.415,0.219,1.036,0.548c0.63,0.337,1.478,0.757,2.34,1.138     c0.864,0.392,1.751,0.777,2.428,1.06c0.676,0.285,1.127,0.442,1.127,0.442s1.823,0.674,3.745,1.26     c1.895,0.552,3.9,1.045,3.9,1.045s1.955,0.463,4.017,0.858c1.03,0.205,2.048,0.335,2.836,0.453     c0.788,0.106,1.313,0.177,1.313,0.177c2.801,0.325,5.961-0.225,9.317-1.635c3.313-1.46,6.129-3.779,8.099-6.939     c0.984-1.516,1.464-2.859,1.601-3.896c0.131-1.045-0.146-1.849-0.777-2.417c-1.292-1.166-3.323-1.497-5.989-1.177     c0,0-0.618,0.09-1.73,0.17c-1.115,0.076-2.644,0.216-4.502,0.228c-3.676,0.093-8.495-0.26-12.946-1.185     c-2.224-0.44-4.4-1.067-6.328-1.691c-1.968-0.696-3.676-1.355-5.129-2.055c-0.72-0.336-1.363-0.649-1.922-0.931     c-0.559-0.307-1.046-0.575-1.447-0.796c-0.774-0.449-1.217-0.705-1.217-0.705c-0.922-0.537-1.889-1.054-2.844-1.395     c-0.959-0.349-1.957-0.68-2.95-0.824c-2.023-0.419-3.736-0.029-5.508,0.991c-0.901,0.566-1.577,1.127-2.018,1.805     c-0.44,0.677-0.647,1.445-0.603,2.295c0.09,1.702,0.852,3.352,2.526,5c0,0,1.237,1.129,2.595,2.252     c0.678,0.576,1.366,1.068,1.899,1.471C265.591,1878.252,265.949,1878.514,265.949,1878.514z"
/>
<path
   style="fill:#75CBEA;"
   d="M227.525,1872.053c0,0,0.118,0.436,0.294,1.09c0.183,0.655,0.461,1.496,0.751,2.368     c0.566,1.756,1.295,3.458,1.295,3.458s0.177,0.435,0.442,1.087c0.266,0.665,0.649,1.522,1.063,2.373     c0.409,0.857,0.842,1.724,1.177,2.377c0.349,0.634,0.581,1.057,0.581,1.057s0.473,0.841,1.243,2.119     c0.768,1.28,1.882,2.908,3.085,4.581c1.219,1.592,2.521,3.273,3.57,4.415c1.041,1.172,1.778,1.956,1.778,1.956     c0.968,1.043,2.152,1.908,3.52,2.733c1.369,0.813,2.939,1.434,4.676,1.998c3.477,1.004,7.125,1.044,10.565-0.114     c1.77-0.526,3.02-1.234,3.799-1.959c0.78-0.73,1.085-1.512,0.969-2.349c-0.242-1.739-1.58-3.287-3.823-4.739     c0,0-1.286-0.867-3.075-2.188c-0.893-0.64-1.914-1.494-2.959-2.365c-1.046-0.861-2.119-1.853-3.143-2.852     c-0.512-0.499-1.012-0.986-1.493-1.487c-0.468-0.512-0.929-1.017-1.375-1.505c-0.872-0.966-1.641-1.88-2.271-2.707     c-0.632-0.81-1.133-1.482-1.477-1.95c-0.343-0.475-0.529-0.761-0.529-0.761s-1.029-1.477-1.929-2.954     c-0.903-1.526-1.686-3.015-1.686-3.015s-0.185-0.388-0.463-0.97c-0.271-0.583-0.618-1.355-0.942-2.117     c-0.328-0.753-0.611-1.567-0.823-2.141c-0.203-0.58-0.339-0.968-0.339-0.968c-0.711-2.048-1.707-3.872-3.02-5.423     c-1.284-1.617-2.844-2.424-4.891-2.794c-2.012-0.324-3.569,0.136-4.595,1.488c-1.035,1.374-1.505,3.113-1.277,5.437     c0,0,0.012,0.107,0.034,0.294c0.02,0.19,0.054,0.455,0.104,0.766c0.096,0.628,0.235,1.474,0.394,2.335     c0.151,0.871,0.349,1.713,0.505,2.353C227.418,1871.623,227.525,1872.053,227.525,1872.053z"
/>
<path
   style="fill:#E0486C;"
   d="M196.684,1872.815c0.088,1.392,0.357,2.857,0.907,4.321c0.267,0.739,0.588,1.493,0.964,2.263     c0.395,0.75,0.849,1.511,1.358,2.288c0.485,0.771,1.03,1.488,1.635,2.142c0.598,0.662,1.235,1.285,1.911,1.861     c1.401,1.092,2.899,2.07,4.604,2.722c0.841,0.341,1.606,0.592,2.293,0.754c0.694,0.151,1.319,0.201,1.858,0.176     c1.08-0.055,1.837-0.447,2.285-1.163c0.938-1.496,0.883-3.511,0.117-6.096c0,0-0.586-1.963-1.044-3.89     c-0.444-1.967-0.786-3.862-0.786-3.862s-0.286-1.953-0.477-3.829c-0.174-1.911-0.231-3.768-0.231-3.768s-0.031-0.452-0.034-1.152     c-0.005-0.698-0.001-1.618,0.02-2.521c0.01-0.895,0.07-1.801,0.125-2.475c0.055-0.667,0.092-1.111,0.092-1.111     s0.04-0.441,0.1-1.101c0.061-0.654,0.195-1.55,0.324-2.409c0.241-1.716,0.643-3.397,0.643-3.397s0.102-0.413,0.256-1.033     c0.147-0.609,0.378-1.426,0.641-2.233c0.254-0.803,0.519-1.584,0.723-2.16c0.224-0.58,0.373-0.967,0.373-0.967     c0.789-2.038,1.145-4.049,1.185-6.099c-0.018-2.027-0.596-3.724-1.967-5.251c-0.646-0.776-1.389-1.318-2.118-1.643     c-0.729-0.324-1.517-0.408-2.347-0.219c-1.643,0.375-3.22,1.437-4.47,3.388c0,0-0.289,0.454-0.796,1.25     c-0.521,0.813-1.148,1.965-1.933,3.451c-1.494,2.927-3.281,7.175-4.417,11.802c-1.179,4.609-1.753,9.588-1.887,13.454     c-0.049,1.909-0.026,3.546-0.003,4.707C196.649,1872.16,196.684,1872.815,196.684,1872.815z"
/>
<path
   style="fill:#EA8FA0;"
   d="M201.901,1803.441c0,0-0.302,0.143-0.831,0.392c-0.524,0.256-1.306,0.621-2.203,1.105     c-0.889,0.487-1.935,1.081-3.067,1.762c-1.1,0.69-2.262,1.473-3.445,2.303c-1.15,0.836-2.277,1.728-3.355,2.601     c-1.054,0.877-1.997,1.745-2.83,2.51c-0.841,0.764-1.482,1.434-1.945,1.907c-0.461,0.479-0.724,0.752-0.724,0.752     s-1.442,1.459-2.756,3.047c-0.669,0.79-1.345,1.605-1.836,2.227c-0.474,0.628-0.79,1.046-0.79,1.046     c-1.666,2.329-2.815,5.262-3.235,8.852c-0.476,3.684,0.26,7.26,1.904,10.482c0.875,1.601,1.74,2.731,2.583,3.39     c0.872,0.651,1.714,0.835,2.517,0.575c1.672-0.541,2.909-2.132,4.013-4.601c0,0,0.772-1.871,1.707-3.653     c0.454-0.892,0.908-1.758,1.263-2.399c0.374-0.639,0.623-1.064,0.623-1.064s0.256-0.413,0.64-1.033     c0.396-0.616,0.879-1.415,1.446-2.202c1.109-1.577,2.233-3.032,2.233-3.032s1.173-1.489,2.354-2.856     c0.574-0.687,1.236-1.352,1.694-1.838c0.469-0.481,0.781-0.801,0.781-0.801s0.312-0.308,0.781-0.77     c0.484-0.456,1.148-1.048,1.802-1.616c1.284-1.145,2.674-2.16,2.674-2.16s0.344-0.251,0.86-0.627     c0.508-0.371,1.199-0.85,1.924-1.299c0.712-0.452,1.419-0.879,1.946-1.189c0.26-0.156,0.488-0.281,0.65-0.367     c0.16-0.086,0.251-0.135,0.251-0.135c1.924-1.092,3.484-2.361,4.828-3.908c1.298-1.61,1.945-3.238,1.868-5.294     c0.005-1.01-0.214-1.903-0.565-2.621c-0.351-0.717-0.901-1.288-1.659-1.677c-1.501-0.768-3.388-0.965-5.579-0.325     c0,0-0.41,0.131-1.024,0.327c-0.628,0.197-1.439,0.487-2.243,0.807c-0.811,0.316-1.632,0.654-2.252,0.918     C202.302,1803.256,201.901,1803.441,201.901,1803.441z"
/>
<path
   style="fill:#75CBEA;"
   d="M226.701,1773.368c0,0-0.432-0.128-1.082-0.292c-0.644-0.155-1.516-0.354-2.408-0.541     c-0.897-0.196-1.801-0.356-2.475-0.451c-0.685-0.101-1.141-0.167-1.141-0.167s-1.86-0.295-3.749-0.421     c-0.946-0.072-1.925-0.145-2.645-0.164c-0.724-0.015-1.206-0.024-1.206-0.024s-0.49,0.002-1.224,0.006     c-0.741,0.005-1.739,0.024-2.721,0.096c-0.99,0.062-1.997,0.141-2.76,0.21c-0.764,0.067-1.258,0.141-1.258,0.141     s-0.504,0.061-1.261,0.151c-0.756,0.1-1.794,0.225-2.811,0.403c-2.024,0.355-4.118,0.813-4.118,0.813     c-1.349,0.342-2.732,0.897-4.122,1.669c-1.338,0.81-2.751,1.791-4.05,3.048c-2.684,2.456-4.472,5.737-5.276,9.268     c-0.358,1.788-0.424,3.207-0.196,4.255c0.253,1.06,0.776,1.74,1.559,2.057c1.633,0.662,3.596,0.232,6.062-1.018     c0,0,1.79-0.915,3.639-1.665c0.918-0.382,1.809-0.751,2.501-1.001c0.692-0.244,1.153-0.407,1.153-0.407s0.461-0.153,1.152-0.383     c0.687-0.225,1.592-0.514,2.529-0.755c0.926-0.249,1.84-0.476,2.519-0.637c0.337-0.083,0.623-0.144,0.828-0.184     c0.202-0.04,0.318-0.064,0.318-0.064s1.837-0.401,3.628-0.681c1.832-0.265,3.585-0.435,3.585-0.435s0.909-0.067,2.229-0.122     c1.303-0.073,3.077-0.053,4.772,0.027c1.709,0.087,3.393,0.288,4.61,0.459c1.246,0.2,2.042,0.357,2.042,0.357     c2.119,0.405,4.171,0.471,6.213,0.087c2.032-0.315,3.511-1.255,4.802-2.816c0.623-0.827,1.062-1.576,1.243-2.37     c0.183-0.789,0.124-1.586-0.207-2.371c-0.665-1.57-1.938-2.858-4.066-3.835c0,0-0.391-0.163-0.988-0.394     c-0.597-0.231-1.407-0.534-2.241-0.827c-0.835-0.299-1.66-0.527-2.304-0.72C227.131,1773.49,226.701,1773.368,226.701,1773.368z"
/>
<path
   style="fill:#E0486C;"
   d="M265.083,1766.276c0,0-0.251-0.384-0.651-0.917c-0.399-0.534-0.946-1.25-1.518-1.969     c-0.569-0.731-1.167-1.427-1.628-1.937c-0.466-0.518-0.777-0.863-0.777-0.863s-1.236-1.423-2.602-2.73     c-0.679-0.665-1.383-1.34-1.922-1.829c-0.545-0.474-0.908-0.791-0.908-0.791s-0.377-0.312-0.941-0.779     c-0.57-0.456-1.348-1.114-2.145-1.682c-1.589-1.169-3.299-2.32-3.299-2.32s-1.674-1.104-3.468-2.182     c-0.895-0.551-1.805-1.018-2.502-1.399c-0.702-0.37-1.17-0.616-1.17-0.616c-2.514-1.27-5.67-1.847-9.306-1.664     c-3.622,0.218-7.069,1.443-10.011,3.744c-1.45,1.091-2.372,2.168-2.848,3.118c-0.476,0.951-0.497,1.79-0.1,2.537     c0.824,1.553,2.614,2.539,5.227,3.141c0,0,0.616,0.162,1.693,0.445c1.067,0.293,2.558,0.696,4.311,1.326     c3.483,1.163,7.888,3.151,11.751,5.558c1.935,1.169,3.767,2.52,5.365,3.759c1.615,1.336,2.998,2.525,4.131,3.685     c1.131,1.121,2,2.059,2.591,2.769c0.578,0.69,0.909,1.084,0.909,1.084c1.377,1.678,2.943,3.04,4.704,4.06     c1.759,1.055,3.489,1.297,5.483,0.926c1.029-0.221,1.852-0.53,2.493-1.012c0.641-0.486,1.097-1.136,1.347-1.951     c0.498-1.627,0.355-3.445-0.65-5.555c0,0-0.77-1.486-1.658-3.009C266.095,1767.75,265.083,1766.276,265.083,1766.276z"
/>
<path
   style="fill:#EA8FA0;"
   d="M298.977,1785.509c0,0,0.034-0.447,0.086-1.118c0.051-0.678,0.106-1.591,0.111-2.492     c0.015-0.908,0.013-1.834,0.004-2.537c-0.009-0.703-0.043-1.158-0.043-1.158s-0.021-0.466-0.052-1.165     c-0.04-0.698-0.084-1.661-0.181-2.604c-0.191-1.875-0.479-3.828-0.479-3.828s-0.161-0.945-0.455-2.4     c-0.277-1.474-0.763-3.385-1.328-5.356c-0.571-1.951-1.265-3.9-1.824-5.38c-0.578-1.449-1.002-2.432-1.002-2.432     c-1.109-2.595-3.161-5.054-6.061-7.255c-2.916-2.152-6.338-3.435-9.986-3.537c-1.851-0.116-3.277,0.129-4.26,0.537     c-0.986,0.417-1.541,1.046-1.717,1.873c-0.366,1.717,0.369,3.633,1.985,5.771c0,0,0.229,0.304,0.612,0.853     c0.383,0.547,0.923,1.326,1.538,2.254c1.227,1.883,2.719,4.408,3.945,6.996c0.631,1.261,1.179,2.589,1.665,3.795     c0.493,1.194,0.884,2.351,1.202,3.325c0.645,1.927,0.952,3.24,0.952,3.24s0.11,0.432,0.276,1.079     c0.161,0.643,0.366,1.488,0.523,2.363c0.165,0.865,0.311,1.715,0.411,2.345c0.053,0.312,0.087,0.582,0.109,0.771     c0.023,0.188,0.036,0.295,0.036,0.295s0.195,1.714,0.276,3.376c0.066,1.702,0.043,3.316,0.043,3.316     c-0.031,1.105,0.043,2.163,0.226,3.168c0.137,1.054,0.433,2.005,0.758,2.99c0.716,1.909,1.813,3.281,3.669,4.274     c0.875,0.506,1.727,0.77,2.541,0.797c0.787,0.044,1.547-0.158,2.261-0.623c1.426-0.928,2.518-2.438,3.059-4.674     c0,0,0.409-1.669,0.66-3.374c0.133-0.853,0.271-1.742,0.337-2.393C298.934,1785.946,298.977,1785.509,298.977,1785.509z"
/>
<path
   style="fill:#75CBEA;"
   d="M328.224,1785.883c-0.795-3.562-2.7-6.679-5.37-9.133c-2.71-2.435-4.819-3.014-6.145-1.969     c-1.399,1.094-1.995,2.978-2.186,5.696c0,0-0.032,0.506-0.08,1.265c-0.043,0.749-0.136,1.753-0.266,2.751     c-0.12,0.994-0.256,1.968-0.363,2.689c-0.13,0.728-0.216,1.213-0.216,1.213s-0.099,0.477-0.247,1.192     c-0.16,0.714-0.343,1.634-0.602,2.566c-0.251,0.929-0.514,1.836-0.716,2.506c-0.202,0.67-0.345,1.11-0.345,1.11     s-0.598,1.784-1.245,3.455c-0.68,1.698-1.439,3.294-1.439,3.294s-0.173,0.401-0.475,1c-0.305,0.601-0.715,1.387-1.132,2.15     c-0.21,0.377-0.42,0.753-0.616,1.106c-0.214,0.349-0.413,0.674-0.584,0.953c-0.345,0.545-0.574,0.908-0.574,0.908     s-0.914,1.426-1.966,2.76c-0.513,0.667-1.024,1.309-1.416,1.78c-0.412,0.47-0.687,0.784-0.687,0.784     c-0.607,0.686-1.109,1.392-1.567,2.126c-0.48,0.738-0.88,1.497-1.199,2.276l18.643-1.778c0,0,0.84-1.086,2.082-2.855     c0.642-0.888,1.279-1.937,2.004-3.113c0.734-1.178,1.432-2.463,2.115-3.795c0.34-0.666,0.693-1.347,1.006-2.021     c0.303-0.683,0.601-1.355,0.89-2.006c0.281-0.67,0.553-1.318,0.811-1.932c0.24-0.619,0.452-1.209,0.651-1.761     c0.395-1.103,0.713-2.047,0.933-2.714c0.199-0.664,0.312-1.043,0.312-1.043C329.025,1792.665,329.115,1789.496,328.224,1785.883z     "
/>
<path
   style="fill:#FFA227;"
   d="M258.803,1821.226c21.926-21.926,21.926,28.11,0,6.184c21.926,21.926-28.11,21.926-6.184,0    c-21.926,21.926-21.926-28.11,0-6.184C230.693,1799.3,280.73,1799.3,258.803,1821.226z"
/>
<path
   style="fill:#FFFFFF;"
   d="M260.006,1820.024c2.372,2.372,2.372,6.217,0,8.589c-2.372,2.372-6.217,2.372-8.589,0    c-2.372-2.372-2.372-6.217,0-8.589C253.789,1817.652,257.634,1817.652,260.006,1820.024z"
/>
</g>
</svg>
