<?xml version="1.0" encoding="UTF-8" standalone="no"?>
<!-- Creator: fig2dev Version 3.2.8b -->
<!-- CreationDate: 2024-10-11 22:22:40 -->
<!-- Magnification: 1.05 -->
<svg	xmlns="http://www.w3.org/2000/svg"
	xmlns:xlink="http://www.w3.org/1999/xlink"
	width="572pt" height="572pt"
	viewBox="-4538 -4537 9076 9074">
<g fill="none">
<!-- Circle -->
<circle cx="0" cy="0" r="4500"
	stroke="#000000" stroke-width="8px"/>
<!-- Line -->
<polyline points=" -4500,0 0,0 0,-4500 -4500,0" fill="#ff00ff"
	stroke="#ff00ff" stroke-width="15px"/>
<!-- Line -->
<polyline points=" 0,4500 0,0 4500,0 0,4500" fill="#8f008f"
	stroke="#8f008f" stroke-width="15px"/>
<!-- Arc -->
<path d="M 0,4500 A 4500 4500 0 0 0 4500 0" fill="#8f008f"
	stroke="#8f008f" stroke-width="15px"/>
<!-- Arc -->
<path d="M -4500,0 A 4500 4500 0 0 1 0 -4500" fill="#ff00ff"
	stroke="#ff00ff" stroke-width="15px"/>
<!-- Arc -->
<path d="M 0,-4500 A 4500 4500 0 0 1 4500 0" fill="#ff00ff"
	stroke="#ff00ff" stroke-width="15px"/>
<!-- Arc -->
<path d="M -4500,0 A 4500 4500 0 0 0 0 4500" fill="#8f008f"
	stroke="#8f008f" stroke-width="15px"/>
<!-- Line -->
<polyline points=" -4500,0 0,0 0,4500" fill="#ff00ff"
	stroke="#ff00ff" stroke-width="15px"/>
<!-- Line -->
<polyline points=" 0,-4500 0,0 4500,0" fill="#8f008f"
	stroke="#8f008f" stroke-width="15px"/>
<!-- Circle -->
<circle cx="0" cy="0" r="4500"
	stroke="#000000" stroke-width="60px"/>
<!-- Line -->
<polyline points=" -4500,0 0,4500 0,-4500 4500,0"
	stroke="#000000" stroke-width="30px"/>
</g>
</svg>
