<?xml version="1.0" encoding="UTF-8" standalone="no"?>
<svg
  version="1.1"
  viewBox="30 1150 400 400"
  xmlns="http://www.w3.org/2000/svg">
<g fill="none">
<path
   style="fill:#FFA227;"
   d="M166.669,1472.362c2.098-4.022,3.524-7.776,4.3-11.189c0.201-0.874,0.358-1.72,0.477-2.545      c0.125-0.836,0.211-1.648,0.258-2.438c0.095-1.579,0.04-3.068-0.155-4.477l-20.479,35.396c1.583-0.397,3.098-1.008,4.537-1.825      c0.719-0.408,1.42-0.868,2.102-1.378c0.688-0.522,1.357-1.096,2.006-1.716C162.297,1479.703,164.58,1476.369,166.669,1472.362z"
/>
<path
   style="fill:#A81C1C;"
   d="M213.523,1475.077c0.444,3.476,0.469,7.502-0.115,12.001c-0.581,4.481-1.657,8.384-3.226,11.604      c-0.782,1.602-1.719,3.086-2.791,4.344c-1.072,1.257-2.287,2.345-3.636,3.257c0,0-2.015,1.365-4.109,2.709      c-1.048,0.688-2.1,1.314-2.896,1.782c-0.801,0.47-1.335,0.783-1.335,0.783c-1.442,0.868-2.845,1.437-4.199,1.715      c-0.677,0.139-1.342,0.205-1.994,0.199c-0.651-0.008-1.28-0.128-1.899-0.296c-2.38-0.68-4.494-2.435-6.124-5.39      c0,0-1.227-2.199-2.375-4.38c-1.155-2.182-2.23-4.343-2.23-4.343c-1.484-2.983-2.003-6.291-1.764-9.838      c0.223-3.561,1.251-7.463,2.984-11.636c1.74-4.19,3.762-7.682,5.903-10.486c2.164-2.894,4.408-4.994,6.857-6.469      c0,0,1.831-1.2,3.58-2.422c1.758-1.22,3.434-2.459,3.434-2.459c2.253-1.678,4.09-2.367,5.608-1.917      c0.396,0.109,0.765,0.307,1.127,0.535c0.362,0.225,0.706,0.52,1.034,0.884c0.657,0.729,1.251,1.736,1.809,3.031      c0,0,0.21,0.49,0.525,1.226c0.318,0.74,0.753,1.729,1.215,2.666c0.913,1.903,1.907,3.827,1.907,3.827      c0.665,1.262,1.232,2.647,1.686,4.168C212.955,1471.691,213.307,1473.288,213.523,1475.077z M198.301,1484.275      c0.268-1.102,0.219-1.984-0.142-2.647c-0.181-0.331-0.44-0.608-0.779-0.831c-0.335-0.238-0.747-0.431-1.242-0.571      c-1.9-0.54-3.181,0.267-3.82,2.443c-0.639,2.176,0.061,3.545,2.066,4.114c0.519,0.146,0.989,0.209,1.412,0.178      c0.427-0.046,0.803-0.176,1.13-0.39C197.579,1486.143,198.033,1485.377,198.301,1484.275z"
/>
<path
   style="fill:#FFA227;"
   d="M258.327,1473.639c1.611,3.108,2.989,6.886,3.969,11.316c0.976,4.412,1.309,8.448,0.912,12.02      c-0.375,3.577-1.482,6.645-3.466,9.317c0,0-1.429,1.98-2.94,3.963c-1.513,1.909-3.109,3.823-3.109,3.823      c-2.118,2.618-4.489,4.113-6.953,4.26c-1.277,0.099-2.561-0.09-3.841-0.574c-1.281-0.486-2.558-1.247-3.824-2.402      c0,0-1.897-1.644-3.714-3.297c-1.825-1.652-3.569-3.311-3.569-3.311c-2.338-2.318-4.025-5.23-5.013-8.649      c-0.992-3.421-1.38-7.439-1.184-11.953c0.197-4.532,0.913-8.506,1.951-11.875c1.044-3.454,2.49-6.215,4.24-8.416      c0,0,1.315-1.757,2.548-3.508c1.242-1.752,2.402-3.494,2.402-3.494c0.78-1.129,1.541-2.061,2.316-2.687      c0.775-0.628,1.561-0.97,2.385-1.03c1.592-0.072,3.269,0.791,5.198,2.843c0,0,1.442,1.55,2.967,3.094      c1.505,1.472,3.091,2.933,3.091,2.933C254.85,1467.896,256.712,1470.454,258.327,1473.639z M247.135,1487.459      c-0.123-1.128-0.468-1.939-1.024-2.438c-0.557-0.505-1.329-0.743-2.316-0.664c-2.045,0.155-2.975,1.355-2.835,3.619      c0.14,2.263,1.265,3.307,3.421,3.143c1.036-0.083,1.792-0.41,2.251-1.03C247.092,1489.462,247.257,1488.586,247.135,1487.459z"
/>
<path
   style="fill:#A81C1C;"
   d="M296.116,1502.761c0,0-2.352-0.891-4.629-1.818c-1.129-0.468-2.258-0.937-3.105-1.288      c-0.418-0.178-0.766-0.327-1.009-0.431c-0.245-0.112-0.385-0.176-0.385-0.176c-2.996-1.373-5.562-3.532-7.674-6.4      c-2.1-2.873-3.76-6.541-5.118-10.851c-1.363-4.327-2.116-8.285-2.293-11.808c-0.188-3.61,0.209-6.699,1.094-9.366      c0,0,0.04-0.127,0.111-0.349c0.067-0.229,0.163-0.556,0.277-0.948c0.218-0.779,0.508-1.819,0.798-2.858      c0.56-2.07,1.046-4.102,1.046-4.102c0.364-1.334,0.763-2.486,1.276-3.332c0.51-0.853,1.119-1.436,1.847-1.763      c0.364-0.163,0.758-0.262,1.184-0.297c0.421-0.045,0.863-0.048,1.346,0.024c0.963,0.138,2.063,0.527,3.322,1.158      c0,0,0.479,0.238,1.198,0.595c0.72,0.35,1.705,0.842,2.668,1.257c1.937,0.862,3.95,1.688,3.95,1.688      c1.316,0.542,2.625,1.246,3.937,2.127c1.31,0.876,2.596,1.886,3.911,3.117c2.586,2.372,5.181,5.449,7.623,9.272      c2.433,3.808,4.13,7.48,4.982,10.964c0.43,1.731,0.677,3.456,0.683,5.103c0.004,1.642-0.208,3.247-0.647,4.808      c0,0-0.684,2.352-1.443,4.739c-0.369,1.207-0.792,2.351-1.104,3.234c-0.319,0.879-0.531,1.465-0.531,1.465      c-0.546,1.594-1.249,2.931-2.094,4.009c-0.424,0.536-0.877,1.02-1.374,1.417c-0.502,0.388-1.038,0.71-1.605,0.968      c-1.135,0.516-2.392,0.771-3.764,0.755C299.217,1503.654,297.742,1503.397,296.116,1502.761z M288.567,1476.357      c0.91,2.077,2.311,2.679,4.225,1.813c1.924-0.841,2.325-2.378,1.322-4.396c-1.016-2.045-2.37-2.548-4.195-1.754      C288.104,1472.84,287.656,1474.279,288.567,1476.357z"
/>
<path
   style="fill:#FFA227;"
   d="M324.081,1424.779c1.45,0.075,2.901,0.257,4.42,0.607c1.521,0.353,3.108,0.872,4.768,1.575      c3.243,1.366,6.699,3.427,10.296,6.191c3.584,2.753,6.464,5.573,8.453,8.535c0.989,1.487,1.775,3.019,2.349,4.592      c0.576,1.575,0.941,3.192,1.032,4.796c0,0,0.144,2.43,0.231,4.919c0.035,1.252,0.071,2.504,0.097,3.443      c0.013,0.476,0.01,0.862,0.008,1.133c-0.002,0.272-0.003,0.427-0.003,0.427c0.059,3.336-0.85,5.945-2.575,7.738      c-1.792,1.725-4.402,2.634-7.738,2.576c0,0-0.155,0.001-0.427,0.003c-0.272,0.002-0.657,0.006-1.133-0.007      c-0.939-0.027-2.191-0.062-3.443-0.097c-2.489-0.086-4.92-0.23-4.92-0.23c-1.604-0.091-3.22-0.454-4.796-1.031      c-1.573-0.573-3.105-1.359-4.592-2.348c-2.962-1.988-5.783-4.868-8.537-8.452c-2.764-3.597-4.824-7.054-6.191-10.296      c-0.704-1.659-1.223-3.247-1.576-4.768c-0.35-1.518-0.534-2.971-0.608-4.42c0,0-0.103-2.189-0.264-4.32      c-0.088-1.057-0.177-2.115-0.243-2.908c-0.033-0.389-0.075-0.727-0.103-0.961c-0.028-0.234-0.044-0.367-0.044-0.367      c-0.353-2.808,0.011-4.709,1.177-5.807c1.098-1.167,2.999-1.531,5.807-1.178c0,0,0.133,0.016,0.367,0.044      c0.235,0.029,0.57,0.069,0.96,0.103c0.793,0.066,1.85,0.154,2.908,0.243C321.891,1424.677,324.081,1424.779,324.081,1424.779z       M333.549,1444.805c-1.642-1.565-3.139-1.627-4.512-0.185c-1.441,1.373-1.379,2.869,0.186,4.511      c1.564,1.641,3.096,1.737,4.613,0.288C335.287,1447.9,335.19,1446.369,333.549,1444.805z"
/>
<path
   style="fill:#A81C1C;"
   d="M361.592,1428.05c-3.484-0.852-7.157-2.548-10.965-4.98c-3.823-2.442-6.901-5.036-9.273-7.622      c-1.232-1.314-2.241-2.6-3.119-3.91c-0.88-1.312-1.585-2.621-2.127-3.937c0,0-0.826-2.013-1.688-3.949      c-0.415-0.963-0.909-1.948-1.258-2.668c-0.357-0.719-0.595-1.198-0.595-1.198c-0.632-1.258-1.021-2.358-1.159-3.321      c-0.072-0.483-0.068-0.925-0.025-1.347c0.035-0.426,0.134-0.819,0.297-1.184c0.326-0.729,0.91-1.337,1.763-1.847      c0.847-0.512,1.997-0.912,3.331-1.277c0,0,2.033-0.486,4.103-1.047c1.039-0.29,2.079-0.581,2.858-0.798      c0.392-0.115,0.719-0.21,0.948-0.277c0.222-0.071,0.348-0.111,0.348-0.111c2.667-0.885,5.757-1.282,9.367-1.095      c3.524,0.176,7.482,0.928,11.809,2.291c4.31,1.357,7.978,3.017,10.852,5.117c2.868,2.112,5.027,4.678,6.401,7.673      c0,0,0.064,0.14,0.176,0.385c0.104,0.244,0.253,0.592,0.431,1.009c0.351,0.847,0.82,1.976,1.288,3.105      c0.928,2.278,1.818,4.629,1.818,4.629c0.635,1.625,0.894,3.102,0.916,4.476c0.016,1.372-0.239,2.629-0.755,3.764      c-0.258,0.567-0.581,1.103-0.969,1.606c-0.396,0.498-0.881,0.951-1.417,1.375c-1.078,0.845-2.415,1.548-4.009,2.094      c0,0-0.586,0.213-1.466,0.531c-0.884,0.312-2.026,0.736-3.234,1.105c-2.387,0.759-4.739,1.443-4.739,1.443      c-1.561,0.439-3.166,0.652-4.808,0.648C365.049,1428.728,363.322,1428.479,361.592,1428.05z M358.187,1409.692      c2.018,1.003,3.554,0.602,4.395-1.323c0.866-1.913,0.263-3.314-1.814-4.224c-2.078-0.91-3.516-0.462-4.336,1.351      C355.638,1407.322,356.143,1408.677,358.187,1409.692z"
/>
<path
   style="fill:#FFA227;"
   d="M345.262,1352.317c0,0,1.743-1.16,3.494-2.402c1.751-1.233,3.508-2.548,3.508-2.548h40.894      c0,0,1.659,1.744,3.311,3.568c1.653,1.816,3.297,3.713,3.297,3.713c1.155,1.267,1.918,2.544,2.404,3.824      c0.485,1.281,0.674,2.564,0.574,3.841c-0.147,2.464-1.64,4.834-4.259,6.954c0,0-1.914,1.595-3.823,3.109      c-1.981,1.512-3.962,2.941-3.962,2.941c-2.671,1.984-5.741,3.091-9.316,3.468c-3.572,0.397-7.608,0.066-12.02-0.91      c-4.43-0.979-8.207-2.356-11.316-3.967c-3.187-1.615-5.743-3.477-7.63-5.632c0,0-1.46-1.586-2.934-3.09      c-1.545-1.525-3.094-2.966-3.094-2.966c-2.051-1.93-2.915-3.606-2.844-5.198c0.06-0.823,0.402-1.61,1.03-2.385      C343.203,1353.859,344.133,1353.098,345.262,1352.317z M372.382,1356.537c-2.264-0.14-3.464,0.79-3.619,2.835      c-0.079,0.987,0.158,1.758,0.665,2.315c0.499,0.555,1.31,0.901,2.438,1.023c1.127,0.122,2.003-0.043,2.63-0.502      c0.619-0.459,0.947-1.215,1.029-2.251C375.69,1357.801,374.646,1356.677,372.382,1356.537z"
/>
<path
   style="fill:#00BF33;"
   d="M196.138,1480.226c-1.9-0.54-3.181,0.267-3.82,2.443c-0.639,2.176,0.061,3.545,2.066,4.114      c0.519,0.146,0.989,0.209,1.412,0.178c0.427-0.046,0.803-0.176,1.13-0.39c0.654-0.428,1.107-1.194,1.375-2.296      c0.268-1.102,0.219-1.984-0.142-2.647c-0.181-0.331-0.44-0.608-0.779-0.831C197.045,1480.56,196.633,1480.366,196.138,1480.226z      "
/>
<path
   style="fill:#FFFFFF;"
   d="M243.796,1484.358c-2.045,0.155-2.975,1.355-2.835,3.619c0.14,2.263,1.265,3.307,3.421,3.143       c1.036-0.083,1.792-0.41,2.251-1.03c0.459-0.627,0.624-1.503,0.502-2.63c-0.123-1.128-0.468-1.939-1.024-2.438       C245.554,1484.516,244.782,1484.278,243.796,1484.358z"
/>
<path
   style="fill:#00BF33;"
   d="M292.791,1478.17c1.924-0.841,2.325-2.378,1.322-4.396c-1.016-2.045-2.37-2.548-4.195-1.754      c-1.814,0.819-2.262,2.258-1.351,4.336C289.477,1478.433,290.878,1479.036,292.791,1478.17z"
/>
<path
   style="fill:#FFFFFF;"
   d="M329.037,1444.62c-1.441,1.373-1.379,2.869,0.186,4.511c1.564,1.641,3.096,1.737,4.613,0.288       c1.45-1.519,1.354-3.05-0.288-4.614C331.907,1443.24,330.41,1443.178,329.037,1444.62z"
/>
<path
   style="fill:#00BF33;"
   d="M362.583,1408.369c0.866-1.913,0.263-3.314-1.814-4.224c-2.078-0.91-3.516-0.462-4.336,1.351      c-0.795,1.826-0.29,3.18,1.754,4.196C360.205,1410.695,361.741,1410.294,362.583,1408.369z"
/>
<path
   style="fill:#FFFFFF;"
   d="M368.763,1359.373c-0.079,0.987,0.158,1.758,0.665,2.315c0.499,0.555,1.31,0.901,2.438,1.023       c1.127,0.122,2.003-0.043,2.63-0.502c0.619-0.459,0.947-1.215,1.029-2.251c0.164-2.156-0.88-3.28-3.143-3.42       C370.118,1356.397,368.918,1357.327,368.763,1359.373z"
/>
<path
   style="fill:#FFA227;"
   d="M156.082,1228.499c2.441,3.824,4.985,6.933,7.561,9.312c1.32,1.228,2.619,2.23,3.94,3.099      c1.324,0.873,2.645,1.571,3.966,2.11l-20.479-35.396c-0.447,1.566-0.675,3.179-0.686,4.83c-0.008,1.656,0.225,3.39,0.649,5.125      C151.9,1221.052,153.651,1224.69,156.082,1228.499z"
/>
<path
   style="fill:#A81C1C;"
   d="M130.293,1267.743c-3.241-1.368-6.743-3.371-10.342-6.133c-3.585-2.751-6.416-5.635-8.403-8.598      c-0.994-1.481-1.78-3.013-2.352-4.588c-0.576-1.578-0.935-3.196-1.026-4.801c0,0-0.158-2.414-0.259-4.886      c-0.043-1.243-0.086-2.486-0.118-3.419c-0.016-0.472-0.018-0.858-0.016-1.127c0-0.27,0-0.424,0-0.424      c-0.046-3.348,0.862-5.96,2.64-7.804c1.78-1.712,4.389-2.62,7.738-2.574c0,0,0.154,0,0.424,0      c0.269-0.001,0.653-0.001,1.126,0.015c0.933,0.032,2.176,0.075,3.419,0.117c2.472,0.101,4.886,0.259,4.886,0.259      c1.631,0.068,3.249,0.428,4.821,1.009c1.568,0.577,3.087,1.374,4.568,2.367c2.977,1.977,5.848,4.818,8.6,8.402      c2.762,3.598,4.777,7.091,6.134,10.341c0.71,1.655,1.24,3.233,1.597,4.751c0.354,1.514,0.535,2.97,0.59,4.437      c0,0,0.115,2.178,0.289,4.298c0.094,1.052,0.189,2.104,0.259,2.894c0.036,0.388,0.077,0.721,0.107,0.955      c0.029,0.232,0.046,0.365,0.046,0.365c0.344,2.817-0.02,4.718-1.178,5.807c-1.133,1.2-3.033,1.565-5.85,1.222      c0,0-0.133-0.017-0.365-0.046c-0.234-0.031-0.566-0.071-0.954-0.107c-0.789-0.071-1.842-0.165-2.894-0.259      c-2.12-0.174-4.299-0.289-4.299-0.289c-1.449-0.075-2.906-0.257-4.424-0.605      C133.535,1268.971,131.948,1268.452,130.293,1267.743z M129.964,1249.955c1.643,1.565,3.149,1.614,4.565,0.131      c1.431-1.363,1.38-2.869-0.185-4.512c-1.564-1.642-3.106-1.727-4.613-0.289C128.236,1246.848,128.323,1248.391,129.964,1249.955      z"
/>
<path
   style="fill:#FFA227;"
   d="M109.153,1307.217c-3.528-0.164-7.505-0.861-11.833-2.221c-4.311-1.355-7.959-3.076-10.826-5.193      c-2.873-2.097-5.049-4.612-6.399-7.675c0,0-0.064-0.14-0.175-0.385c-0.104-0.244-0.253-0.592-0.431-1.009      c-0.351-0.847-0.819-1.976-1.287-3.105c-0.927-2.278-1.818-4.63-1.818-4.63c-0.649-1.591-0.915-3.05-0.942-4.414      c-0.021-1.362,0.232-2.614,0.744-3.74c0.266-0.584,0.595-1.134,0.987-1.647c0.402-0.509,0.89-0.97,1.43-1.4      c1.085-0.857,2.424-1.564,4.017-2.109c0,0,0.584-0.207,1.459-0.518c0.88-0.304,2.018-0.717,3.22-1.077      c2.376-0.74,4.717-1.405,4.717-1.405c1.566-0.447,3.181-0.678,4.833-0.692c1.656-0.011,3.391,0.223,5.121,0.653      c3.475,0.866,7.155,2.55,10.963,4.984c3.822,2.443,6.892,5.049,9.272,7.624c1.231,1.315,2.233,2.613,3.102,3.936      c0.873,1.325,1.569,2.649,2.108,3.97c0,0,0.834,1.998,1.704,3.921c0.419,0.956,0.916,1.934,1.268,2.649      c0.36,0.714,0.599,1.19,0.599,1.19c0.632,1.258,1.019,2.361,1.153,3.332c0.07,0.487,0.063,0.934,0.016,1.363      c-0.038,0.433-0.141,0.836-0.309,1.211c-0.324,0.723-0.906,1.329-1.756,1.832c-0.843,0.506-1.989,0.895-3.314,1.236      c0,0-2.032,0.485-4.102,1.046c-1.039,0.29-2.079,0.58-2.858,0.798c-0.392,0.115-0.719,0.21-0.948,0.277      c-0.223,0.071-0.35,0.111-0.35,0.111C115.834,1307.06,112.757,1307.42,109.153,1307.217z M102.755,1290.623      c2.078,0.909,3.523,0.447,4.336-1.353c0.819-1.88,0.323-3.248-1.721-4.264c-2.017-1.003-3.562-0.589-4.429,1.393      C100.082,1288.298,100.678,1289.714,102.755,1290.623z"
/>
<path
   style="fill:#A81C1C;"
   d="M65.061,1325.421c0,0,1.914-1.595,3.823-3.108c1.985-1.511,3.964-2.939,3.964-2.939      c2.659-1.915,5.736-3.075,9.318-3.465c3.568-0.379,7.59,0.015,12.002,0.988c4.43,0.978,8.221,2.297,11.333,3.896      c3.18,1.629,5.733,3.53,7.628,5.634c0,0,1.461,1.587,2.932,3.091c1.545,1.525,3.094,2.967,3.094,2.967      c2.044,1.979,2.91,3.655,2.837,5.259c-0.058,0.799-0.399,1.571-1.027,2.336c-0.625,0.766-1.559,1.523-2.687,2.304      c0,0-1.743,1.176-3.495,2.433c-1.75,1.25-3.507,2.582-3.507,2.582c-2.199,1.739-4.963,3.131-8.417,4.173      c-3.369,1.052-7.343,1.753-11.875,1.95c-4.515,0.196-8.532-0.177-11.953-1.186c-3.42-0.989-6.328-2.607-8.648-4.926      c0,0-1.659-1.765-3.312-3.612c-1.652-1.839-3.295-3.758-3.295-3.758c-1.155-1.267-1.915-2.54-2.403-3.807      c-0.486-1.267-0.676-2.527-0.58-3.766C60.941,1329.984,62.432,1327.612,65.061,1325.421z M91.67,1332.059      c-1.127-0.122-2.003,0.04-2.63,0.497c-0.616,0.458-0.945,1.214-1.028,2.258c-0.16,2.093,0.885,3.201,3.149,3.342      c2.264,0.141,3.463-0.775,3.614-2.759c0.079-0.994-0.156-1.766-0.666-2.321C93.609,1332.523,92.798,1332.181,91.67,1332.059z"
/>
<path
   style="fill:#FFA227;"
   d="M118.518,1388.608c-1.489,2.399-3.579,4.681-6.465,6.859c-2.809,2.129-6.323,4.097-10.513,5.835      c-4.174,1.732-8.052,2.82-11.606,3.061c-3.553,0.226-6.877-0.343-9.84-1.759c0,0-2.167-1.095-4.357-2.272      c-2.187-1.168-4.394-2.418-4.394-2.418c-2.948-1.613-4.704-3.727-5.389-6.125c-0.164-0.601-0.278-1.216-0.285-1.857      c-0.003-0.641,0.064-1.299,0.204-1.97c0.28-1.343,0.85-2.741,1.72-4.175c0,0,0.312-0.54,0.779-1.349      c0.467-0.805,1.088-1.868,1.774-2.927c1.34-2.117,2.701-4.153,2.701-4.153c0.912-1.349,2.001-2.56,3.258-3.63      c1.26-1.07,2.743-2.006,4.344-2.797c3.221-1.567,7.134-2.564,11.615-3.148c4.498-0.586,8.515-0.634,11.992-0.189      c1.789,0.223,3.388,0.575,4.905,1.028c1.52,0.453,2.905,1.016,4.167,1.682c0,0,1.927,1.01,3.833,1.939      c0.938,0.47,1.933,0.911,2.672,1.235c0.737,0.321,1.228,0.534,1.228,0.534c1.293,0.55,2.3,1.142,3.027,1.791      c0.363,0.324,0.657,0.663,0.88,1.019c0.228,0.354,0.422,0.715,0.528,1.1c0.453,1.53-0.235,3.367-1.918,5.608      c0,0-1.234,1.691-2.449,3.464C119.713,1386.761,118.518,1388.608,118.518,1388.608z M96.461,1386.801      c2.177-0.639,2.987-1.906,2.443-3.821c-0.136-0.48-0.325-0.881-0.562-1.206c-0.22-0.329-0.495-0.581-0.826-0.756      c-0.66-0.35-1.542-0.395-2.644-0.126c-1.101,0.269-1.868,0.718-2.299,1.361c-0.216,0.321-0.347,0.69-0.396,1.106      c-0.032,0.412,0.026,0.87,0.169,1.374C92.921,1386.754,94.286,1387.439,96.461,1386.801z"
/>
<path
   style="fill:#A81C1C;"
   d="M96.974,1419.477c2.48-2.599,5.784-4.938,9.791-7.027c4.023-2.097,7.803-3.471,11.222-4.236      c3.465-0.803,6.631-1.027,9.428-0.642c0,0,2.147,0.293,4.253,0.512c2.171,0.191,4.291,0.314,4.291,0.314      c1.401,0.083,2.544,0.298,3.444,0.662c0.893,0.368,1.623,0.832,2.077,1.49c0.946,1.291,0.884,3.29,0.176,5.979      c0,0-0.599,2.013-1.153,4.095c-0.273,1.035-0.557,2.1-0.733,2.878c-0.173,0.781-0.289,1.302-0.289,1.302      c-0.575,2.766-1.782,5.65-3.753,8.689c-1.928,2.978-4.528,6.002-7.874,9.07c-3.327,3.051-6.63,5.426-9.869,6.853      c-3.257,1.424-6.548,2.006-9.814,1.693c0,0-0.612-0.061-1.531-0.152c-0.921-0.094-2.111-0.264-3.331-0.431      c-2.427-0.337-4.899-0.743-4.899-0.743c-3.438-0.526-5.763-1.94-7.218-3.959c-0.71-1.022-1.225-2.177-1.409-3.539      c-0.19-1.358-0.128-2.87,0.199-4.526c0,0,0.431-2.473,0.911-4.879c0.535-2.449,1.123-4.835,1.123-4.835      C92.834,1424.886,94.462,1422.07,96.974,1419.477z M114.585,1425.678c-0.939,0.628-1.517,1.322-1.689,2.066      c-0.168,0.739,0.055,1.538,0.662,2.392c1.216,1.711,2.726,1.891,4.551,0.545c1.825-1.347,2.16-2.821,1.006-4.442      c-0.578-0.813-1.243-1.261-2.001-1.352C116.362,1424.792,115.531,1425.045,114.585,1425.678z"
/>
<path
   style="fill:#FFA227;"
   d="M170.778,1443.203c0,0,0.11,2.112,0.288,4.274c0.207,2.096,0.484,4.236,0.484,4.236      l-20.479,35.396c0,0-2.366,0.599-4.797,1.146c-2.387,0.493-4.84,0.936-4.84,0.936c-1.656,0.327-3.171,0.387-4.541,0.19      c-1.376-0.188-2.547-0.719-3.6-1.45c-2.003-1.445-3.417-3.77-3.886-7.163c0,0-0.406-2.473-0.743-4.9      c-0.168-1.219-0.335-2.412-0.434-3.329c-0.091-0.919-0.152-1.531-0.152-1.531c-0.367-3.313,0.255-6.569,1.69-9.816      c1.412-3.251,3.739-6.596,6.792-9.923c3.069-3.345,6.137-5.906,9.124-7.827c3.027-1.982,5.88-3.215,8.686-3.755      c0,0,0.521-0.116,1.302-0.289c0.781-0.18,1.843-0.461,2.879-0.736c2.081-0.554,4.093-1.154,4.093-1.154      c2.65-0.739,4.65-0.8,5.931,0.139c0.678,0.468,1.153,1.208,1.53,2.104C170.476,1440.656,170.694,1441.801,170.778,1443.203z       M153.507,1464.582c0.632-0.945,0.883-1.781,0.777-2.535c-0.1-0.765-0.563-1.44-1.401-2.036c-1.61-1.145-3.096-0.82-4.443,1.006      c-1.346,1.824-1.154,3.343,0.544,4.551c0.88,0.625,1.694,0.859,2.443,0.698C152.183,1466.096,152.878,1465.522,153.507,1464.582      z"
/>
<path
   style="fill:#00BF33;"
   d="M134.53,1250.086c1.431-1.363,1.38-2.869-0.185-4.512c-1.564-1.642-3.106-1.727-4.613-0.289      c-1.495,1.562-1.408,3.106,0.233,4.669C131.607,1251.52,133.114,1251.569,134.53,1250.086z"
/>
<path
   style="fill:#FFFFFF;"
   d="M107.092,1289.27c0.819-1.88,0.323-3.248-1.721-4.264c-2.017-1.003-3.562-0.589-4.429,1.393       c-0.859,1.899-0.263,3.314,1.814,4.223C104.834,1291.532,106.279,1291.07,107.092,1289.27z"
/>
<path
   style="fill:#00BF33;"
   d="M88.012,1334.814c-0.16,2.093,0.885,3.201,3.149,3.342c2.264,0.141,3.463-0.775,3.614-2.759      c0.079-0.994-0.156-1.766-0.666-2.321c-0.499-0.553-1.311-0.895-2.438-1.017c-1.127-0.122-2.003,0.04-2.63,0.497      C88.425,1333.014,88.095,1333.77,88.012,1334.814z"
/>
<path
   style="fill:#FFFFFF;"
   d="M98.905,1382.98c-0.136-0.48-0.325-0.881-0.562-1.206c-0.22-0.329-0.495-0.581-0.826-0.756       c-0.66-0.35-1.542-0.395-2.644-0.126c-1.101,0.269-1.868,0.718-2.299,1.361c-0.216,0.321-0.347,0.69-0.396,1.106       c-0.032,0.412,0.026,0.87,0.169,1.374c0.573,2.021,1.938,2.706,4.114,2.068C98.638,1386.162,99.449,1384.894,98.905,1382.98z"
/>
<path
   style="fill:#00BF33;"
   d="M113.557,1430.136c1.216,1.711,2.726,1.891,4.551,0.545c1.825-1.347,2.16-2.821,1.006-4.442      c-0.578-0.813-1.243-1.261-2.001-1.352c-0.752-0.094-1.583,0.158-2.529,0.791c-0.939,0.628-1.517,1.322-1.689,2.066      C112.728,1428.483,112.951,1429.282,113.557,1430.136z"
/>
<path
   style="fill:#FFFFFF;"
   d="M152.883,1460.011c-1.61-1.145-3.096-0.82-4.443,1.006c-1.346,1.824-1.154,3.343,0.544,4.551       c0.88,0.625,1.694,0.859,2.443,0.698c0.756-0.17,1.451-0.743,2.079-1.683c0.632-0.945,0.883-1.781,0.777-2.535       C154.184,1461.282,153.72,1460.607,152.883,1460.011z"
/>
<path
   style="fill:#FFA227;"
   d="M372.557,1341.248c-4.532,0.195-8.508,0.838-11.877,1.876c-3.454,1.057-6.217,2.49-8.415,4.241      h40.894c-2.32-2.338-5.23-4.008-8.65-5.012C381.088,1341.364,377.072,1341.054,372.557,1341.248z"
/>
<path
   style="fill:#A81C1C;"
   d="M351.5,1299.297c2.81-2.127,6.297-4.164,10.486-5.904c4.173-1.734,8.081-2.746,11.635-2.986      c3.547-0.241,6.879,0.344,9.839,1.762c0,0,2.16,1.075,4.343,2.23c2.18,1.147,4.379,2.374,4.379,2.374      c2.957,1.629,4.711,3.744,5.416,6.214c0.354,1.187,0.362,2.47,0.076,3.814c-0.28,1.343-0.849,2.745-1.717,4.187      c0,0-0.313,0.534-0.783,1.335c-0.469,0.797-1.093,1.849-1.781,2.896c-1.344,2.094-2.709,4.109-2.709,4.109      c-0.905,1.384-1.994,2.599-3.252,3.662c-1.26,1.063-2.746,1.983-4.348,2.766c-3.218,1.586-7.123,2.646-11.604,3.228      c-4.499,0.585-8.523,0.574-12.001,0.116c-1.788-0.216-3.385-0.554-4.902-1.002c-1.519-0.448-2.904-1.014-4.171-1.705      c0,0-1.924-0.994-3.827-1.907c-0.937-0.462-1.928-0.896-2.667-1.214c-0.735-0.315-1.226-0.525-1.226-0.525      c-1.294-0.557-2.302-1.152-3.029-1.801c-0.721-0.651-1.166-1.354-1.405-2.11c-0.467-1.576,0.224-3.414,1.9-5.667      c0,0,1.239-1.677,2.459-3.435c1.222-1.75,2.422-3.581,2.422-3.581C346.525,1303.756,348.607,1301.462,351.5,1299.297z       M367.068,1307.895c-2.176,0.64-2.983,1.922-2.422,3.893c0.134,0.477,0.325,0.875,0.558,1.2c0.22,0.329,0.495,0.581,0.826,0.757      c0.661,0.352,1.543,0.4,2.645,0.132c1.102-0.268,1.867-0.722,2.298-1.366c0.215-0.322,0.347-0.691,0.396-1.107      c0.035-0.412-0.025-0.868-0.165-1.368C370.613,1307.956,369.244,1307.255,367.068,1307.895z"
/>
<path
   style="fill:#FFA227;"
   d="M327.835,1261.266c1.92-2.988,4.48-6.055,7.825-9.125c3.327-3.053,6.672-5.381,9.923-6.793      c3.246-1.436,6.503-2.059,9.815-1.691c0,0,0.612,0.061,1.531,0.152c0.918,0.097,2.111,0.265,3.329,0.433      c2.427,0.338,4.9,0.743,4.9,0.743c3.392,0.468,5.719,1.881,7.163,3.884c0.731,1.053,1.261,2.225,1.451,3.6      c0.197,1.37,0.137,2.885-0.19,4.541c0,0-0.443,2.453-0.935,4.841c-0.546,2.43-1.145,4.797-1.145,4.797      c-0.397,1.583-1.006,3.101-1.822,4.542c-0.408,0.721-0.867,1.422-1.378,2.103c-0.521,0.687-1.097,1.355-1.718,2      c-2.487,2.583-5.785,4.936-9.793,7.023c-4.023,2.095-7.81,3.457-11.223,4.233c-0.873,0.204-1.717,0.363-2.543,0.483      c-0.836,0.126-1.648,0.211-2.438,0.258c-1.58,0.094-3.071,0.036-4.479-0.158c0,0-2.139-0.278-4.237-0.484      c-2.162-0.177-4.274-0.288-4.274-0.288c-1.401-0.083-2.547-0.301-3.451-0.673c-0.897-0.377-1.636-0.852-2.104-1.53      c-0.938-1.281-0.879-3.28-0.14-5.931c0,0,0.599-2.012,1.153-4.094c0.274-1.035,0.556-2.098,0.735-2.879      c0.174-0.781,0.289-1.302,0.289-1.302C324.621,1267.146,325.853,1264.293,327.835,1261.266z M345.409,1264.02      c-1.825,1.347-2.15,2.834-1.005,4.444c0.596,0.837,1.271,1.3,2.035,1.401c0.756,0.105,1.591-0.145,2.536-0.777      c0.94-0.628,1.514-1.325,1.682-2.079c0.161-0.749-0.073-1.564-0.698-2.443C348.753,1262.866,347.233,1262.673,345.409,1264.02z"
/>
<path
   style="fill:#A81C1C;"
   d="M334.169,1213.991c0,0,0.405,2.472,0.743,4.899c0.167,1.219,0.336,2.411,0.432,3.33      c0.091,0.918,0.152,1.531,0.152,1.531c0.314,3.267-0.268,6.558-1.692,9.815c-1.427,3.24-3.8,6.541-6.851,9.87      c-3.068,3.346-6.092,5.948-9.07,7.876c-3.038,1.972-5.921,3.179-8.688,3.754c0,0-0.521,0.116-1.302,0.289      c-0.779,0.178-1.843,0.46-2.878,0.734c-2.081,0.554-4.094,1.153-4.094,1.153c-2.689,0.708-4.689,0.771-5.98-0.176      c-0.658-0.454-1.121-1.184-1.49-2.076c-0.364-0.899-0.579-2.043-0.663-3.444c0,0-0.123-2.12-0.314-4.291      c-0.221-2.104-0.513-4.253-0.513-4.253c-0.385-2.796-0.16-5.964,0.641-9.428c0.764-3.419,2.138-7.2,4.234-11.223      c2.088-4.007,4.427-7.312,7.026-9.792c2.595-2.514,5.409-4.141,8.569-4.96c0,0,2.385-0.588,4.835-1.125      c2.406-0.48,4.879-0.911,4.879-0.911c1.656-0.327,3.168-0.389,4.526-0.199c1.363,0.182,2.516,0.698,3.538,1.407      C332.227,1208.229,333.643,1210.553,334.169,1213.991z M315.069,1233.693c1.346-1.825,1.165-3.335-0.546-4.551      c-0.853-0.607-1.652-0.829-2.391-0.661c-0.745,0.175-1.438,0.751-2.066,1.691c-0.633,0.946-0.886,1.778-0.791,2.528      c0.091,0.758,0.539,1.422,1.351,2C312.249,1235.853,313.722,1235.519,315.069,1233.693z"
/>
<path
   style="fill:#FFA227;"
   d="M252.693,1228.722c-0.666-1.262-1.229-2.647-1.682-4.167c-0.454-1.515-0.806-3.116-1.029-4.904      c-0.446-3.476-0.398-7.493,0.188-11.992c0.584-4.481,1.579-8.394,3.146-11.615c0.79-1.602,1.726-3.083,2.796-4.345      c1.069-1.257,2.28-2.347,3.629-3.258c0,0,2.036-1.361,4.152-2.702c1.059-0.686,2.122-1.308,2.927-1.775      c0.809-0.468,1.349-0.779,1.349-0.779c1.433-0.87,2.831-1.44,4.174-1.72c0.671-0.14,1.329-0.208,1.97-0.204      c0.641,0.005,1.256,0.121,1.857,0.284c2.397,0.684,4.512,2.442,6.126,5.388c0,0,1.25,2.207,2.418,4.394      c1.176,2.189,2.272,4.357,2.272,4.357c1.417,2.961,1.986,6.286,1.761,9.839c-0.241,3.554-1.328,7.433-3.059,11.607      c-1.738,4.191-3.706,7.704-5.834,10.513c-2.178,2.887-4.46,4.976-6.859,6.467c0,0-1.847,1.195-3.611,2.411      c-1.773,1.215-3.463,2.449-3.463,2.449c-2.242,1.685-4.078,2.372-5.608,1.919c-0.385-0.106-0.746-0.301-1.1-0.527      c-0.355-0.224-0.694-0.517-1.019-0.881c-0.649-0.727-1.241-1.734-1.792-3.027c0,0-0.214-0.491-0.534-1.228      c-0.324-0.74-0.766-1.733-1.236-2.671C253.704,1230.649,252.693,1228.722,252.693,1228.722z M265.276,1210.465      c-0.268,1.102-0.224,1.983,0.126,2.644c0.175,0.33,0.427,0.605,0.757,0.826c0.326,0.235,0.726,0.425,1.207,0.561      c1.914,0.544,3.181-0.267,3.819-2.443c0.638-2.176-0.047-3.541-2.067-4.114c-0.504-0.142-0.962-0.202-1.375-0.168      c-0.417,0.048-0.785,0.18-1.106,0.396C265.995,1208.597,265.545,1209.364,265.276,1210.465z"
/>
<path
   style="fill:#A81C1C;"
   d="M236.719,1194.626c1.009,3.421,1.383,7.439,1.187,11.953c-0.196,4.532-0.897,8.506-1.948,11.875      c-1.042,3.454-2.433,6.218-4.172,8.417c0,0-1.332,1.757-2.581,3.508c-1.258,1.752-2.433,3.495-2.433,3.495      c-0.78,1.129-1.537,2.064-2.303,2.688c-0.765,0.627-1.537,0.968-2.337,1.027c-1.604,0.073-3.279-0.792-5.259-2.837      c0,0-1.443-1.55-2.968-3.094c-1.505-1.469-3.092-2.931-3.092-2.931c-2.104-1.895-4.005-4.449-5.635-7.627      c-1.599-3.111-2.919-6.902-3.897-11.332c-0.974-4.412-1.369-8.434-0.99-12.002c0.39-3.583,1.55-6.659,3.464-9.318      c0,0,1.429-1.979,2.939-3.964c1.513-1.91,3.108-3.824,3.108-3.824c2.192-2.628,4.562-4.121,7.045-4.269      c1.24-0.097,2.501,0.094,3.768,0.58c1.267,0.489,2.54,1.246,3.806,2.402c0,0,1.92,1.643,3.759,3.295      c1.847,1.652,3.613,3.311,3.613,3.311C234.112,1188.298,235.73,1191.207,236.719,1194.626z M222.541,1206.758      c-0.141-2.263-1.25-3.308-3.344-3.149c-1.044,0.083-1.8,0.412-2.257,1.029c-0.457,0.627-0.619,1.503-0.497,2.63      c0.122,1.128,0.464,1.94,1.017,2.438c0.555,0.508,1.326,0.744,2.321,0.665C221.767,1210.221,222.682,1209.022,222.541,1206.758z      "
/>
<path
   style="fill:#FFA227;"
   d="M179.309,1246.59c0,0-0.476-0.24-1.19-0.599c-0.715-0.353-1.692-0.848-2.648-1.267      c-1.923-0.87-3.921-1.704-3.921-1.704l-20.479-35.396c0,0,0.665-2.341,1.404-4.717c0.359-1.201,0.771-2.341,1.076-3.22      c0.311-0.875,0.518-1.459,0.518-1.459c0.546-1.594,1.253-2.933,2.11-4.017c0.43-0.54,0.892-1.027,1.4-1.43      c0.513-0.393,1.063-0.722,1.648-0.988c1.126-0.512,2.378-0.765,3.74-0.744c1.365,0.028,2.823,0.292,4.415,0.941      c0,0,2.352,0.89,4.63,1.818c1.129,0.468,2.259,0.936,3.105,1.287c0.418,0.178,0.766,0.327,1.009,0.431      c0.245,0.111,0.385,0.174,0.385,0.174c3.062,1.35,5.578,3.526,7.676,6.399c2.117,2.867,3.838,6.515,5.194,10.826      c1.361,4.327,2.058,8.304,2.223,11.832c0.202,3.605-0.157,6.681-1.092,9.365c0,0-0.04,0.127-0.11,0.351      c-0.067,0.229-0.162,0.556-0.277,0.948c-0.217,0.779-0.507,1.819-0.797,2.858c-0.56,2.07-1.045,4.102-1.045,4.102      c-0.341,1.325-0.729,2.473-1.235,3.315c-0.503,0.85-1.109,1.432-1.832,1.756c-0.375,0.168-0.778,0.271-1.211,0.309      c-0.428,0.049-0.876,0.054-1.363-0.015C181.671,1247.609,180.568,1247.221,179.309,1246.59z M169.392,1220.975      c1.017,2.045,2.383,2.539,4.264,1.721c1.8-0.813,2.261-2.258,1.352-4.336c-0.909-2.077-2.325-2.673-4.223-1.814      C168.802,1217.412,168.389,1218.959,169.392,1220.975z"
/>
<path
   style="fill:#00BF33;"
   d="M364.646,1311.788c0.134,0.477,0.325,0.875,0.558,1.2c0.22,0.329,0.495,0.581,0.826,0.757      c0.661,0.352,1.543,0.4,2.645,0.132c1.102-0.268,1.867-0.722,2.298-1.366c0.215-0.322,0.347-0.691,0.396-1.107      c0.035-0.412-0.025-0.868-0.165-1.368c-0.59-2.081-1.96-2.781-4.135-2.142C364.892,1308.534,364.085,1309.817,364.646,1311.788z      "
/>
<path
   style="fill:#FFFFFF;"
   d="M344.404,1268.463c0.596,0.837,1.271,1.3,2.035,1.401c0.756,0.105,1.591-0.145,2.536-0.777       c0.94-0.628,1.514-1.325,1.682-2.079c0.161-0.749-0.073-1.564-0.698-2.443c-1.207-1.698-2.727-1.891-4.551-0.544       C343.584,1265.367,343.259,1266.854,344.404,1268.463z"
/>
<path
   style="fill:#00BF33;"
   d="M314.523,1229.141c-0.853-0.607-1.652-0.829-2.391-0.661c-0.745,0.175-1.438,0.751-2.066,1.691      c-0.633,0.946-0.886,1.778-0.791,2.528c0.091,0.758,0.539,1.422,1.351,2c1.622,1.154,3.096,0.82,4.442-1.006      C316.415,1231.868,316.234,1230.358,314.523,1229.141z"
/>
<path
   style="fill:#FFFFFF;"
   d="M267.366,1214.495c1.914,0.544,3.181-0.267,3.819-2.443c0.638-2.176-0.047-3.541-2.067-4.114       c-0.504-0.142-0.962-0.202-1.375-0.168c-0.417,0.048-0.785,0.18-1.106,0.396c-0.643,0.431-1.092,1.198-1.361,2.299       c-0.268,1.102-0.224,1.983,0.126,2.644c0.175,0.33,0.427,0.605,0.757,0.826C266.485,1214.17,266.886,1214.36,267.366,1214.495z       "
/>
<path
   style="fill:#00BF33;"
   d="M219.198,1203.609c-1.044,0.083-1.8,0.412-2.257,1.029c-0.457,0.627-0.619,1.503-0.497,2.63      c0.122,1.128,0.464,1.94,1.017,2.438c0.555,0.508,1.326,0.744,2.321,0.665c1.986-0.151,2.901-1.35,2.759-3.614      C222.4,1204.495,221.291,1203.45,219.198,1203.609z"
/>
<path
   style="fill:#FFFFFF;"
   d="M173.656,1222.696c1.8-0.813,2.261-2.258,1.352-4.336c-0.909-2.077-2.325-2.673-4.223-1.814       c-1.983,0.867-2.395,2.414-1.393,4.429C170.41,1223.02,171.776,1223.514,173.656,1222.696z"
/>
<path
   style="fill:#00BF33;"
   d="M285.573,1354.353c1.488,0.252,3.137-0.277,4.841-1.846c0,0,1.325-1.124,2.544-2.368     c0.622-0.618,1.244-1.257,1.71-1.747c0.443-0.495,0.739-0.826,0.739-0.826s0.507-0.591,1.015-1.182     c0.506-0.609,1.012-1.218,1.012-1.218h-22.15c0,0,0.396,0.348,0.989,0.87c0.581,0.532,1.42,1.272,2.156,2.049     c0.75,0.775,1.514,1.597,2.063,2.231c0.531,0.643,0.885,1.071,0.885,1.071C282.754,1353.064,284.08,1354.1,285.573,1354.353z"
/>
<path
   style="fill:#75CBEA;"
   d="M267.086,1386.774c0.97,1.143,2.573,1.797,4.897,1.704c0,0,0.43-0.014,1.075-0.035     c0.643-0.03,1.534-0.056,2.399-0.138c0.868-0.078,1.75-0.173,2.417-0.252c0.668-0.078,1.115-0.142,1.115-0.142     s1.744-0.277,3.55-0.644c1.768-0.384,3.577-0.875,3.577-0.875s0.465-0.115,1.131-0.329c0.672-0.209,1.574-0.5,2.486-0.81     c0.922-0.302,1.809-0.655,2.487-0.923c0.679-0.274,1.132-0.456,1.132-0.456s0.456-0.184,1.14-0.459     c0.678-0.286,1.567-0.693,2.472-1.115c1.826-0.828,3.59-1.818,3.59-1.818c2.394-1.292,4.821-2.141,7.395-2.332     c1.294-0.091,2.48-0.766,3.587-2.014c1.127-1.238,2.059-3.093,2.834-5.486c0,0,0.262-0.91,0.654-2.275     c0.409-1.361,0.834-3.205,1.249-5.052c0.405-1.848,0.703-3.716,0.944-5.113c0.184-1.404,0.307-2.339,0.307-2.339     c0.341-2.479,0.11-4.23-0.375-5.2c-0.505-0.974-1.35-1.169-2.521-0.638c-1.171,0.538-2.266,1.21-3.281,2     c-1.002,0.791-1.962,1.699-2.861,2.718c0,0-0.336,0.38-0.923,1.044c-0.574,0.658-1.453,1.577-2.512,2.628     c-2.075,2.117-5.062,4.683-8.086,6.863c-3.086,2.182-6.203,3.981-8.614,5.12c-1.2,0.576-2.17,1.024-2.89,1.307     c-0.704,0.282-1.106,0.443-1.106,0.443c-2.108,0.845-3.852,0.756-5.153,0.014c-1.325-0.755-2.202-2.164-2.946-4.178     c0,0-0.128-0.37-0.32-0.926c-0.185-0.546-0.471-1.278-0.774-1.994c-0.298-0.715-0.604-1.409-0.837-1.919     c-0.254-0.514-0.424-0.857-0.424-0.857s-0.173-0.332-0.433-0.831c-0.27-0.497-0.593-1.131-0.991-1.77     c-0.385-0.635-0.774-1.248-1.068-1.698c-0.291-0.449-0.498-0.743-0.498-0.743s-0.859-1.198-1.732-2.284     c-0.912-1.108-1.859-2.111-1.859-2.111s-0.219-0.253-0.587-0.625c-0.368-0.373-0.858-0.857-1.348-1.319     c-0.48-0.461-0.988-0.905-1.384-1.23c-0.388-0.319-0.646-0.531-0.646-0.531c-1.358-1.099-2.888-1.623-4.426-1.745     c-0.748-0.06-1.411,0.039-1.984,0.264c-0.576,0.226-1.12,0.569-1.538,1.032c-0.93,0.908-1.084,1.828-0.656,3.017     c0.451,1.221,1.178,2.417,2.281,3.708c0,0,0.066,0.077,0.189,0.222c0.121,0.144,0.311,0.363,0.519,0.635     c0.421,0.545,1.05,1.36,1.734,2.394c1.367,2.053,2.954,5.056,4.09,8.426c1.17,3.358,1.805,7.009,2.046,9.862     c0.06,0.709,0.104,1.371,0.137,1.966c0.029,0.591,0.029,1.095,0.036,1.523c0,0.86-0.001,1.351-0.001,1.351     C265.75,1383.966,266.099,1385.613,267.086,1386.774z"
/>
<path
   style="fill:#FFA227;"
   d="M232.092,1399.745c0.009,1.512,0.814,2.995,2.653,4.458c0,0,1.33,1.052,2.77,2.09     c0.718,0.533,1.451,0.989,2.013,1.359c0.567,0.361,0.945,0.601,0.945,0.601s0.385,0.235,0.962,0.588     c0.581,0.341,1.366,0.769,2.173,1.201c1.612,0.886,3.308,1.634,3.308,1.634s0.432,0.19,1.08,0.476     c0.655,0.291,1.536,0.655,2.431,0.979c0.896,0.335,1.812,0.661,2.508,0.901c0.695,0.237,1.16,0.369,1.16,0.369     s1.852,0.603,3.789,1.117c1.915,0.487,3.926,0.912,3.926,0.912c2.639,0.483,5.088,1.481,7.161,2.938     c2.061,1.482,5.493,1.11,9.717-1.625c0,0,0.198-0.128,0.545-0.352c0.345-0.227,0.847-0.538,1.421-0.951     c1.151-0.821,2.713-1.883,4.18-3.067c0.739-0.584,1.487-1.16,2.164-1.727c0.669-0.577,1.293-1.115,1.828-1.576     c1.074-0.919,1.749-1.577,1.749-1.577c0.906-0.856,1.617-1.64,2.132-2.34c0.498-0.717,0.803-1.349,0.92-1.886     c0.234-1.076-0.288-1.771-1.522-2.114c-1.24-0.338-2.505-0.524-3.785-0.566c-1.296-0.058-2.616,0.017-3.943,0.233     c0,0-0.494,0.091-1.375,0.206c-0.883,0.111-2.136,0.259-3.607,0.396c-1.487,0.118-3.21,0.204-5.011,0.232     c-1.833-0.011-3.707-0.028-5.594-0.201c-3.73-0.259-7.321-0.962-9.875-1.587c-1.287-0.321-2.34-0.648-3.06-0.863     c-0.723-0.222-1.126-0.354-1.126-0.354c-2.183-0.762-3.437-1.883-3.963-3.3c-0.526-1.417-0.321-3.126,0.423-5.09     c0,0,0.565-1.499,1.032-2.947c0.236-0.726,0.431-1.486,0.579-2.031c0.14-0.548,0.234-0.913,0.234-0.913s0.093-0.354,0.206-0.907     c0.112-0.556,0.249-1.289,0.37-2.009c0.126-0.712,0.219-1.438,0.275-1.987c0.055-0.539,0.091-0.899,0.091-0.899     s0.14-1.431,0.145-2.866c0.038-1.407-0.057-2.81-0.057-2.81s-0.019-0.344-0.048-0.861c-0.028-0.508-0.084-1.186-0.174-1.872     c-0.083-0.679-0.18-1.341-0.259-1.828c-0.083-0.493-0.155-0.827-0.155-0.827c-0.359-1.75-1.143-3.079-2.261-4.183     c-1.063-1.042-2.282-1.423-3.544-1.28c-1.278,0.137-2.048,0.688-2.462,1.928c-0.472,1.2-0.666,2.622-0.658,4.311     c0,0-0.005,0.401-0.013,1.102c-0.01,0.353-0.021,0.793-0.053,1.291c-0.036,0.486-0.085,1.042-0.154,1.659     c-0.127,1.259-0.381,2.649-0.737,4.237c-0.19,0.761-0.408,1.561-0.657,2.388c-0.247,0.831-0.545,1.621-0.859,2.46     c-1.26,3.28-3.098,6.567-4.756,8.867c-0.815,1.203-1.573,2.102-2.112,2.782c-0.542,0.664-0.869,1.045-0.869,1.045     C232.874,1396.699,232.083,1398.234,232.092,1399.745z"
/>
<path
   style="fill:#00BF33;"
   d="M196.941,1387.196c-0.974,1.174-1.301,2.816-0.826,5.113c0,0,0.073,0.432,0.219,1.055     c0.141,0.628,0.341,1.474,0.559,2.33c0.21,0.866,0.471,1.697,0.668,2.338c0.203,0.64,0.338,1.067,0.338,1.067     s0.144,0.427,0.36,1.068c0.226,0.634,0.552,1.467,0.892,2.317c0.341,0.847,0.697,1.711,0.993,2.328     c0.295,0.629,0.492,1.048,0.492,1.048s0.208,0.424,0.521,1.06c0.313,0.647,0.761,1.478,1.233,2.309     c0.47,0.834,0.961,1.675,1.339,2.307c0.393,0.613,0.654,1.022,0.654,1.022s0.264,0.412,0.659,1.03     c0.404,0.611,0.941,1.467,1.526,2.258c0.579,0.804,1.18,1.612,1.642,2.219c0.46,0.61,0.78,1.005,0.78,1.005     c1.712,2.074,2.949,4.404,3.602,6.855c0.627,2.463,3.502,4.381,8.497,4.998c0,0,0.234,0.029,0.644,0.08     c0.41,0.044,0.995,0.136,1.699,0.188c1.406,0.1,3.288,0.3,5.163,0.334c0.938,0.022,1.876,0.044,2.756,0.065     c0.88,0.015,1.701-0.022,2.404-0.033c1.407-0.041,2.345-0.069,2.345-0.069c5-0.307,6.721-1.801,5.25-3.877     c-1.464-2.073-3.396-3.867-5.701-5.218c0,0-0.43-0.272-1.182-0.747c-0.745-0.482-1.796-1.151-3.007-2.007     c-1.212-0.888-2.582-1.886-3.977-3.048c-1.396-1.177-2.819-2.4-4.155-3.743c-2.692-2.594-4.995-5.437-6.55-7.563     c-0.783-1.06-1.377-2.001-1.791-2.627c-0.404-0.633-0.635-0.995-0.635-0.995c-1.185-1.978-1.421-3.656-0.915-5.077     c0.508-1.427,1.76-2.591,3.595-3.626c0,0,1.396-0.783,2.683-1.59c1.309-0.849,2.514-1.736,2.514-1.736s0.075-0.055,0.205-0.152     c0.129-0.094,0.314-0.234,0.536-0.414c0.442-0.354,1.018-0.826,1.572-1.301c0.554-0.464,1.091-0.961,1.486-1.346     c0.389-0.379,0.648-0.631,0.648-0.631s1.025-1,1.954-2.104c0.466-0.54,0.91-1.077,1.233-1.481     c0.32-0.424,0.533-0.707,0.533-0.707s0.208-0.278,0.52-0.695c0.307-0.424,0.703-0.952,1.077-1.536     c0.755-1.161,1.402-2.296,1.402-2.296c0.851-1.591,1.106-3.118,0.962-4.669c-0.07-0.747-0.281-1.39-0.603-1.928     c-0.322-0.536-0.753-0.953-1.296-1.336c-1.081-0.699-2.044-0.796-3.16-0.097c-0.562,0.279-1.118,0.723-1.656,1.184     c-0.535,0.454-1.079,1.062-1.613,1.696c0,0-0.26,0.303-0.716,0.834c-0.234,0.265-0.523,0.588-0.868,0.958     c-0.341,0.354-0.733,0.742-1.182,1.17c-0.904,0.88-1.993,1.789-3.286,2.775c-1.268,0.923-2.737,1.904-4.278,2.738     c-3.078,1.708-6.597,3.037-9.347,3.74c-1.396,0.396-2.554,0.599-3.406,0.777c-0.849,0.17-1.331,0.235-1.331,0.235     C199.5,1385.364,197.897,1386.043,196.941,1387.196z"
/>
<path
   style="fill:#75CBEA;"
   d="M178.081,1354.988c-1.471,0.267-2.869,1.332-3.924,3.387c0,0-0.206,0.38-0.515,0.951     c-0.317,0.578-0.708,1.354-1.07,2.146c-0.371,0.793-0.734,1.607-1.003,2.227c-0.264,0.618-0.418,1.033-0.418,1.033     s-0.157,0.418-0.393,1.046c-0.229,0.63-0.553,1.492-0.825,2.359c-0.542,1.725-1.032,3.547-1.032,3.547s-0.435,1.807-0.81,3.708     c-0.188,0.947-0.319,1.891-0.431,2.617c-0.103,0.727-0.171,1.212-0.171,1.212s-0.081,0.489-0.164,1.216     c-0.082,0.726-0.182,1.705-0.267,2.701c-0.095,1.001-0.147,2-0.17,2.751c-0.024,0.759-0.04,1.264-0.04,1.264     c-0.013,0.677-0.063,1.348-0.138,2.005c-0.066,0.65-0.166,1.292-0.3,1.922c-0.269,1.262-0.678,2.482-1.235,3.642     c-1.09,2.277-0.125,5.575,3.282,9.266c0,0,0.65,0.682,1.625,1.704c0.977,1.021,2.355,2.308,3.732,3.592     c1.422,1.236,2.826,2.494,3.952,3.351c1.113,0.872,1.855,1.453,1.855,1.453c4.029,2.992,6.309,2.947,6.515,0.412     c0.108-1.267,0.075-2.552-0.092-3.84c-0.166-1.289-0.493-2.546-0.925-3.831c0,0-0.157-0.484-0.432-1.331     c-0.261-0.852-0.656-2.021-1.016-3.481c-0.369-1.45-0.781-3.097-1.092-4.897c-0.16-0.896-0.326-1.796-0.452-2.728     c-0.122-0.936-0.232-1.875-0.328-2.802c-0.105-0.919-0.153-1.863-0.201-2.769c-0.041-0.911-0.087-1.78-0.086-2.638     c0.014-1.726,0.027-3.251,0.147-4.594c0.105-1.332,0.203-2.397,0.305-3.154c0.109-0.752,0.171-1.182,0.171-1.182     c0.329-2.256,1.248-3.708,2.552-4.475c1.302-0.766,2.985-0.841,5.091-0.476c0,0,1.533,0.323,3.079,0.506     c1.515,0.217,3.038,0.292,3.038,0.292s0.373,0.017,0.933,0.044c0.549,0.028,1.291,0.04,2.037,0.021     c0.739-0.012,1.463-0.039,1.998-0.065c0.542-0.032,0.907-0.07,0.907-0.07s0.361-0.037,0.903-0.092     c0.543-0.064,1.231-0.133,1.944-0.257c0.709-0.119,1.401-0.251,1.911-0.356c0.509-0.104,0.846-0.183,0.846-0.183     s1.376-0.318,2.656-0.692c1.319-0.405,2.547-0.873,2.547-0.873c1.66-0.658,2.848-1.683,3.73-2.959     c0.426-0.617,0.677-1.245,0.776-1.861c0.049-0.308,0.059-0.613,0.031-0.912c-0.016-0.316-0.068-0.63-0.157-0.937     c-0.192-0.598-0.418-1.112-0.82-1.427c-0.188-0.173-0.395-0.323-0.651-0.428c-0.257-0.103-0.547-0.178-0.854-0.244     c-0.317-0.065-0.65-0.106-0.999-0.124c-0.336-0.03-0.678-0.047-1.043-0.036c-0.741,0.029-1.499,0.1-2.333,0.251     c0,0-0.401,0.068-1.104,0.187c-0.693,0.098-1.687,0.214-2.948,0.303c-2.445,0.146-5.86,0.041-9.343-0.649     c-3.484-0.657-6.952-1.919-9.56-3.127c-1.267-0.608-2.387-1.166-3.107-1.59c-0.737-0.431-1.158-0.677-1.158-0.677     C181.156,1355.242,179.584,1354.713,178.081,1354.988z"
/>
<path
   style="fill:#FFA227;"
   d="M184.321,1318.19c-1.303-0.742-3.049-0.819-5.182,0.074c0,0-0.403,0.159-1.007,0.397     c-0.616,0.238-1.402,0.588-2.196,0.958c-0.795,0.369-1.6,0.757-2.203,1.059c-0.587,0.315-0.979,0.525-0.979,0.525     s-0.39,0.219-0.976,0.547c-0.579,0.336-1.393,0.784-2.144,1.278c-0.764,0.488-1.534,0.997-2.112,1.389     c-0.582,0.391-0.958,0.665-0.958,0.665s-1.498,1.104-3.01,2.32c-1.465,1.216-2.92,2.549-2.92,2.549s-0.092,0.082-0.253,0.225     c-0.164,0.143-0.39,0.35-0.651,0.603c-0.529,0.504-1.236,1.191-1.942,1.899c-0.717,0.706-1.398,1.439-1.898,2     c-0.506,0.566-0.842,0.943-0.842,0.943c-0.445,0.51-0.91,0.993-1.395,1.448c-0.473,0.455-0.956,0.882-1.465,1.279     c-1.015,0.793-2.11,1.465-3.28,1.995c-1.186,0.529-2.056,1.561-2.672,3.101c-0.636,1.537-0.868,3.58-0.787,6.073     c0,0,0.066,0.939,0.165,2.348c0.058,0.704,0.11,1.526,0.206,2.404c0.11,0.878,0.227,1.815,0.344,2.751     c0.112,0.937,0.264,1.869,0.424,2.742c0.158,0.872,0.305,1.686,0.431,2.384c0.126,0.698,0.275,1.271,0.361,1.676     c0.092,0.404,0.145,0.634,0.145,0.634c0.537,2.449,1.332,4.036,2.134,4.782c0.811,0.747,1.673,0.642,2.589-0.259     c1.837-1.822,3.157-4.018,4.155-6.55c0,0,0.184-0.472,0.507-1.297c0.311-0.816,0.849-1.984,1.469-3.329     c1.239-2.7,3.164-6.119,5.261-9.193c2.159-3.092,4.469-5.841,6.337-7.738c0.936-0.952,1.682-1.707,2.259-2.22     c0.566-0.507,0.889-0.797,0.889-0.797c1.699-1.518,3.338-2.04,4.829-1.79c1.49,0.25,2.827,1.273,4.209,2.906     c0,0,0.96,1.232,2.034,2.366c0.526,0.569,1.044,1.116,1.446,1.517c0.415,0.397,0.693,0.661,0.693,0.661s0.277,0.254,0.692,0.635     c0.424,0.376,0.947,0.863,1.536,1.33c1.161,0.939,2.306,1.771,2.306,1.771s1.22,0.837,2.417,1.565     c0.585,0.37,1.239,0.707,1.695,0.955c0.463,0.241,0.772,0.402,0.772,0.402s0.303,0.156,0.758,0.391     c0.467,0.227,1.102,0.513,1.722,0.78c1.221,0.544,2.506,0.96,2.506,0.96c1.662,0.564,3.251,0.532,4.751,0.119     c0.723-0.199,1.312-0.515,1.773-0.918c0.488-0.411,0.86-0.91,1.096-1.483c0.586-1.172,0.393-2.088-0.407-3.085     c-0.837-1.016-1.94-1.924-3.413-2.773c0,0-0.361-0.199-0.963-0.571c-0.586-0.371-1.439-0.925-2.454-1.666     c-1.969-1.46-4.518-3.73-6.75-6.495c-2.232-2.735-4.093-5.936-5.316-8.539c-0.58-1.28-1.065-2.422-1.358-3.216     c-0.286-0.803-0.45-1.263-0.45-1.263C186.519,1320.364,185.645,1318.943,184.321,1318.19z"
/>
<path
   style="fill:#00BF33;"
   d="M212.746,1293.991c-0.527-1.416-1.793-2.535-4.025-3.273c0,0-1.613-0.531-3.325-1.011     c-1.687-0.455-3.454-0.82-3.454-0.82s-0.444-0.102-1.103-0.214c-0.659-0.112-1.548-0.254-2.456-0.384     c-0.912-0.139-1.823-0.235-2.509-0.293c-0.693-0.06-1.156-0.099-1.156-0.099s-1.881-0.155-3.791-0.158     c-1.928-0.046-3.873,0.066-3.873,0.066s-0.489,0.021-1.223,0.051c-0.371,0.02-0.803,0.043-1.267,0.068     c-0.46,0.041-0.951,0.085-1.442,0.129c-0.987,0.095-1.988,0.207-2.744,0.3c-0.75,0.1-1.246,0.183-1.246,0.183     c-1.326,0.218-2.652,0.295-3.947,0.24c-1.281-0.04-2.547-0.225-3.781-0.569c-1.233-0.345-2.611-0.152-4.053,0.656     c-0.723,0.401-1.483,0.936-2.242,1.629c-0.746,0.704-1.508,1.552-2.275,2.541c0,0-0.143,0.188-0.393,0.515     c-0.241,0.335-0.584,0.814-0.997,1.388c-0.407,0.579-0.881,1.254-1.389,1.977c-0.479,0.744-0.991,1.537-1.502,2.33     c-1.031,1.581-1.926,3.249-2.637,4.473c-0.673,1.247-1.095,2.094-1.095,2.094c-1.165,2.216-1.564,3.948-1.437,5.03     c0.14,1.092,0.867,1.565,2.149,1.464c2.586-0.21,4.999-1.049,7.393-2.344c0,0,0.445-0.242,1.223-0.666     c0.762-0.424,1.919-0.977,3.262-1.607c2.686-1.27,6.348-2.662,9.943-3.663c1.826-0.485,3.592-0.92,5.288-1.21     c0.841-0.151,1.633-0.294,2.398-0.399c0.769-0.101,1.489-0.185,2.146-0.256c1.304-0.151,2.405-0.205,3.164-0.24     c0.753-0.03,1.184-0.047,1.184-0.047c2.283-0.061,3.881,0.6,4.852,1.74c0.99,1.16,1.348,2.796,1.349,4.929     c0,0-0.004,0.394-0.009,0.986c0.004,0.594-0.008,1.348,0.04,2.132c0.041,0.779,0.096,1.54,0.144,2.104     c0.044,0.561,0.091,0.938,0.091,0.938s0.193,1.513,0.449,2.936c0.289,1.464,0.642,2.842,0.642,2.842s0.083,0.344,0.245,0.871     c0.157,0.523,0.373,1.209,0.599,1.876c0.215,0.66,0.488,1.333,0.683,1.818c0.2,0.483,0.334,0.805,0.334,0.805     s0.132,0.315,0.33,0.787c0.212,0.474,0.514,1.102,0.817,1.704c0.303,0.604,0.61,1.185,0.875,1.628     c0.257,0.432,0.428,0.72,0.428,0.72c0.905,1.5,2.156,2.503,3.563,3.148c0.682,0.312,1.338,0.449,1.951,0.436     c0.626-0.008,1.244-0.147,1.794-0.437c1.199-0.526,1.643-1.357,1.665-2.63c0-0.165-0.006-0.332-0.019-0.502     c-0.002-0.162-0.01-0.327-0.025-0.495c-0.029-0.336-0.084-0.685-0.163-1.047c-0.136-0.707-0.343-1.446-0.651-2.256     c0,0-0.035-0.095-0.1-0.273c-0.059-0.177-0.147-0.437-0.258-0.767c-0.209-0.66-0.541-1.666-0.806-2.851     c-0.603-2.427-1.048-5.773-0.975-9.328c0.051-3.535,0.659-7.232,1.415-9.969c0.354-1.403,0.743-2.526,1.021-3.339     c0.29-0.814,0.455-1.279,0.455-1.279C213.056,1297.119,213.273,1295.408,212.746,1293.991z"
/>
<path
   style="fill:#75CBEA;"
   d="M250.077,1293.734c0.505-1.419,0.26-3.107-0.98-5.094c0,0-0.894-1.447-1.896-2.919     c-1.004-1.42-2.121-2.846-2.121-2.846s-0.07-0.089-0.192-0.243c-0.122-0.158-0.299-0.374-0.517-0.626     c-0.433-0.51-1.024-1.191-1.636-1.873c-0.61-0.693-1.247-1.351-1.735-1.836c-0.493-0.49-0.822-0.818-0.822-0.818     s-1.342-1.335-2.802-2.556c-0.726-0.621-1.474-1.25-2.045-1.704c-0.576-0.441-0.96-0.735-0.96-0.735s-0.387-0.297-0.967-0.741     c-0.585-0.435-1.379-1.055-2.195-1.6c-1.625-1.114-3.357-2.203-3.357-2.203c-2.306-1.35-4.256-3.14-5.704-5.214     c-0.722-1.048-1.902-1.772-3.533-2.116c-0.813-0.152-1.738-0.21-2.769-0.169c-1.033,0.028-2.164,0.196-3.388,0.485     c0,0-0.921,0.217-2.303,0.543c-1.365,0.388-3.201,0.862-4.997,1.462c-1.799,0.592-3.587,1.215-4.9,1.755     c-1.318,0.527-2.197,0.879-2.197,0.879c-2.288,1.019-3.751,1.993-4.324,2.95c-0.586,0.94-0.331,1.772,0.712,2.509     c2.092,1.446,4.525,2.446,7.165,2.926c0,0,0.5,0.106,1.374,0.291c0.87,0.196,2.093,0.458,3.532,0.848     c2.893,0.795,6.58,2,9.997,3.592c1.704,0.749,3.354,1.637,4.832,2.456c1.481,0.832,2.808,1.703,3.902,2.417     c2.196,1.523,3.513,2.578,3.513,2.578c1.788,1.465,2.584,2.948,2.596,4.459c0.012,1.511-0.765,3.046-2.139,4.635     c0,0-1.045,1.217-1.982,2.419c-0.473,0.591-0.916,1.249-1.241,1.709c-0.32,0.468-0.533,0.78-0.533,0.78s-0.202,0.31-0.506,0.775     c-0.295,0.483-0.675,1.129-1.034,1.767c-0.36,0.64-0.701,1.261-0.938,1.766c-0.235,0.491-0.392,0.818-0.392,0.818     s-0.148,0.328-0.371,0.819c-0.22,0.48-0.494,1.145-0.741,1.82c-0.251,0.668-0.481,1.327-0.644,1.816     c-0.162,0.496-0.256,0.839-0.256,0.839s-0.098,0.332-0.244,0.831c-0.139,0.502-0.324,1.136-0.472,1.807     c-0.301,1.346-0.507,2.63-0.507,2.63c-0.243,1.785,0.046,3.298,0.716,4.705c0.323,0.677,0.742,1.21,1.226,1.607     c0.486,0.399,1.027,0.637,1.652,0.819c1.228,0.301,2.126,0.064,2.926-0.958c0.842-0.964,1.508-2.236,2.083-3.82     c0,0,0.142-0.376,0.392-1.034c0.258-0.679,0.658-1.593,1.216-2.701c0.554-1.144,1.284-2.354,2.172-3.733     c0.886-1.294,1.942-2.732,3.105-4.038c2.314-2.677,5.15-5.119,7.488-6.732c1.171-0.844,2.195-1.467,2.927-1.902     c0.744-0.436,1.17-0.685,1.17-0.685C248.309,1296.318,249.569,1295.163,250.077,1293.734z"
/>
<path
   style="fill:#FFA227;"
   d="M278.84,1317.529c1.305-0.768,2.215-2.229,2.515-4.53c0,0,0.065-0.429,0.161-1.073     c0.095-0.649,0.175-1.498,0.258-2.377c0.182-1.761,0.212-3.545,0.212-3.545s0.007-0.448,0.017-1.121     c0.014-0.682,0.003-1.585-0.042-2.488c-0.037-0.908-0.09-1.831-0.137-2.529c-0.065-0.69-0.108-1.149-0.108-1.149     s-0.054-0.467-0.134-1.167c-0.091-0.697-0.194-1.664-0.363-2.595c-0.16-0.938-0.339-1.89-0.482-2.609     c-0.139-0.723-0.251-1.196-0.251-1.196s-0.414-1.887-0.925-3.83c-0.534-1.898-1.173-3.842-1.173-3.842     c-0.434-1.283-0.764-2.544-0.932-3.834c-0.168-1.291-0.204-2.573-0.089-3.836c0.12-1.267-0.32-2.579-1.349-3.89     c-1.056-1.264-2.664-2.593-4.915-3.711c0,0-0.836-0.441-2.113-1.058c-1.295-0.579-2.996-1.41-4.764-2.09     c-0.881-0.345-1.763-0.69-2.589-1.014c-0.834-0.302-1.621-0.563-2.293-0.793c-0.674-0.225-1.235-0.412-1.628-0.543     c-0.392-0.133-0.622-0.191-0.622-0.191c-2.407-0.703-4.158-0.884-5.213-0.522c-1.054,0.342-1.393,1.143-1.067,2.379     c0.674,2.456,1.9,4.773,3.613,6.85c0,0,0.327,0.387,0.868,1.099c0.542,0.707,1.304,1.711,2.163,2.918     c0.842,1.252,1.797,2.665,2.716,4.234c0.915,1.58,1.833,3.229,2.63,4.944c1.642,3.363,2.826,6.822,3.563,9.342     c0.354,1.29,0.608,2.349,0.781,3.082c0.175,0.728,0.251,1.158,0.251,1.158c0.436,2.265,0.098,3.906-0.868,5.075     c-0.96,1.161-2.546,1.845-4.626,2.188c0,0-0.384,0.049-0.971,0.161c-0.583,0.107-1.35,0.256-2.098,0.417     c-0.741,0.149-1.5,0.363-2.047,0.51c-0.546,0.154-0.91,0.256-0.91,0.256s-0.354,0.108-0.886,0.269     c-0.537,0.18-1.242,0.431-1.927,0.688c-0.685,0.255-1.35,0.521-1.856,0.752c-0.495,0.224-0.825,0.373-0.825,0.373     s-0.324,0.155-0.811,0.387c-0.477,0.224-1.12,0.571-1.74,0.921c-0.621,0.35-1.219,0.702-1.66,0.974     c-0.442,0.29-0.737,0.483-0.737,0.483s-0.288,0.191-0.72,0.477c-0.429,0.294-0.977,0.656-1.525,1.086     c-0.545,0.417-1.067,0.836-1.448,1.152c-0.38,0.31-0.63,0.538-0.63,0.538c-1.33,1.207-2.08,2.549-2.47,4.058     c-0.188,0.726-0.21,1.405-0.095,2.022c0.112,0.629,0.377,1.141,0.737,1.688c0.747,1.013,1.586,1.424,2.863,1.146     c1.265-0.189,2.599-0.741,4.057-1.583c0,0,0.351-0.197,0.965-0.542c0.635-0.355,1.522-0.792,2.665-1.291     c2.255-0.981,5.528-2.065,9.022-2.579c3.49-0.555,7.213-0.577,10.075-0.333c1.409,0.13,2.611,0.299,3.469,0.425     c0.837,0.153,1.316,0.241,1.316,0.241C275.847,1318.362,277.539,1318.295,278.84,1317.529z"
/>
<path
   style="fill:#00BF33;"
   d="M303.807,1335.1c0,0,0.232-0.434,0.579-1.086c0.324-0.654,0.75-1.54,1.169-2.446     c0.418-0.905,0.838-1.833,1.108-2.531c0.28-0.705,0.466-1.175,0.466-1.175c0.998-2.533,2.309-4.747,4.152-6.552     c0.93-0.903,1.408-2.186,1.446-3.853c0.063-1.673-0.418-3.692-1.365-6.022c0,0-0.387-0.863-0.967-2.158     c-0.566-1.303-1.423-2.987-2.296-4.664c-0.884-1.67-1.848-3.296-2.571-4.513c-0.761-1.194-1.268-1.99-1.268-1.99     c-0.666-1.057-1.332-1.882-1.952-2.499c-0.615-0.619-1.179-1.034-1.684-1.245c-1.01-0.424-1.803-0.013-2.338,1.134     c-0.551,1.168-0.958,2.39-1.227,3.651c-0.265,1.259-0.397,2.559-0.435,3.922c0,0-0.013,0.507-0.036,1.394     c-0.018,0.875-0.09,2.138-0.229,3.626c-0.224,2.955-0.86,6.84-1.765,10.453c-0.959,3.658-2.177,7.041-3.291,9.467     c-0.543,1.214-1,2.182-1.368,2.862c-0.356,0.669-0.56,1.052-0.56,1.052c-1.067,2.005-2.459,3.06-3.932,3.33     c-1.5,0.276-3.077-0.237-4.944-1.297c0,0-0.336-0.201-0.841-0.502c-0.493-0.298-1.18-0.675-1.876-1.026     c-0.689-0.354-1.371-0.687-1.878-0.927c-0.524-0.23-0.873-0.383-0.873-0.383s-0.347-0.142-0.868-0.356     c-0.526-0.206-1.188-0.481-1.896-0.715c-1.411-0.478-2.771-0.859-2.771-0.859s-1.43-0.363-2.8-0.631     c-1.408-0.263-2.781-0.42-2.781-0.42s-0.33-0.052-0.853-0.101c-0.521-0.05-1.208-0.105-1.879-0.143     c-0.663-0.045-1.346-0.052-1.853-0.049c-0.501,0.005-0.834,0.009-0.834,0.009c-0.872,0.016-1.689,0.173-2.444,0.438     c-0.75,0.262-1.432,0.627-2.066,1.08c-1.219,0.877-1.771,1.988-1.863,3.26c-0.121,1.293,0.353,2.103,1.449,2.739     c1.132,0.647,2.459,1.092,4.135,1.368c0,0,0.288,0.05,0.791,0.137c0.487,0.099,1.19,0.249,2.053,0.467     c1.715,0.432,3.972,1.198,6.229,2.257c1.105,0.529,2.209,1.123,3.248,1.732c0.998,0.614,1.955,1.239,2.759,1.807     c1.554,1.143,2.608,2.025,2.608,2.025h21.926c0,0,0.647-0.854,1.295-1.707c0.643-0.887,1.285-1.774,1.285-1.774     s1.026-1.545,2.028-3.198c0.511-0.824,0.948-1.665,1.303-2.308C303.577,1335.532,303.807,1335.1,303.807,1335.1z"
/>
</g>
</svg>
