<?xml version="1.0" encoding="UTF-8" standalone="no"?>
<svg
  version="1.1"
  viewBox="440 1150 400 400"
  xmlns="http://www.w3.org/2000/svg">
<g fill="none">
<path
   style="fill:#FFA227;"
   d="M579.972,1454.449c0,0,0.876,0.506,2.518,1.454c0.824,0.469,1.882,0.969,3.1,1.604      c1.226,0.621,2.611,1.385,4.241,2.074c6.403,2.977,15.884,6.673,27.785,9.064c1.493,0.267,3.017,0.539,4.57,0.816      c0.772,0.163,1.569,0.227,2.366,0.335c0.798,0.101,1.602,0.203,2.414,0.306c0.813,0.096,1.627,0.231,2.457,0.301      c0.831,0.061,1.668,0.123,2.511,0.185c1.688,0.113,3.395,0.313,5.143,0.307c1.744,0.024,3.511,0.124,5.3,0.107      c1.789-0.045,3.6-0.09,5.431-0.136c1.826-0.107,3.666-0.279,5.528-0.406c0.933-0.045,1.861-0.177,2.793-0.3      c0.933-0.119,1.87-0.238,2.811-0.357c7.512-1.048,15.168-2.825,22.697-5.391c7.529-2.561,14.927-5.909,21.929-9.962      c7.004-4.049,13.609-8.799,19.606-14.055c6.001-5.252,11.391-11.006,16.063-16.99c9.352-11.98,15.826-24.794,19.621-36.292      c3.975-11.472,5.374-21.571,6.039-28.609c0.136-1.768,0.258-3.346,0.364-4.719c0.033-1.379,0.06-2.552,0.083-3.503      c0.053-1.902,0.081-2.917,0.081-2.917h11.205c0.836,1.412,2.205,2.449,4.115,3.046c2.338,0.718,5.11,1.127,8.246,1.217      c3.194,0.091,5.924-0.165,8.357-0.859c1.941-0.577,3.364-1.731,4.278-3.403h11.146c-0.072,3.287-0.515,6.201-1.366,8.612      c-0.961,2.412-2.65,3.926-5.115,4.523c-2.41,0.617-5.2,0.78-8.337,0.509l-9.446-0.815c-3.125-0.269-5.925-0.138-8.321,0.317      c-1.201,0.222-2.106,0.545-2.752,0.97c-0.656,0.424-1.028,0.952-1.111,1.597c-0.171,1.337,0.906,2.443,3.156,3.428      c2.249,0.993,4.955,1.761,8.059,2.213l9.383,1.363c3.116,0.452,5.812,1.203,8.039,2.344c2.253,1.154,3.502,3.057,3.85,5.623      c0.159,1.279,0.229,2.661,0.118,4.117c-0.136,1.452-0.394,2.989-0.768,4.602c0,0-0.283,1.214-0.707,3.034      c-0.48,1.806-1.174,4.201-1.855,6.599c-0.172,0.599-0.344,1.198-0.513,1.788c-0.195,0.582-0.386,1.154-0.572,1.708      c-0.374,1.107-0.723,2.141-1.022,3.026c-0.603,1.77-1.004,2.95-1.004,2.95c-1.175,3.082-2.61,5.67-4.238,7.651      c-1.737,1.938-3.837,2.785-6.358,2.499c-2.474-0.247-5.15-1.052-8.003-2.385l-8.59-4.012c-2.842-1.327-5.499-2.204-7.9-2.608      c-2.385-0.383-3.951-0.046-4.541,1.122c-0.597,1.164,0.021,2.609,1.796,4.31c1.777,1.698,4.051,3.36,6.81,4.852l8.341,4.507      c2.771,1.497,5.051,3.133,6.715,4.952c1.718,1.859,2.278,4.027,1.701,6.615c-0.509,2.554-1.827,5.169-3.602,7.96      c0,0-0.168,0.261-0.462,0.717c-0.29,0.459-0.711,1.11-1.259,1.863c-1.079,1.516-2.518,3.538-3.957,5.56      c-1.508,1.969-3.054,3.911-4.203,5.374c-0.578,0.729-1.049,1.345-1.413,1.748c-0.354,0.411-0.557,0.646-0.557,0.646      c-1.096,1.27-2.183,2.385-3.275,3.353c-0.546,0.483-1.092,0.932-1.644,1.341c-0.57,0.392-1.143,0.75-1.72,1.073      c-2.274,1.242-4.523,1.331-6.788,0.206c-2.226-1.081-4.47-2.74-6.697-4.967l-6.704-6.704c-2.218-2.218-4.424-3.957-6.561-5.175      c-2.146-1.208-3.703-1.394-4.65-0.491c-0.953,0.897-0.83,2.492,0.23,4.679c1.074,2.184,2.675,4.477,4.762,6.819l6.307,7.079      c2.095,2.35,3.625,4.69,4.58,6.98c0.997,2.332,0.788,4.582-0.569,6.797c-1.464,2.179-3.491,4.24-6.145,6.292      c0,0-1.01,0.721-2.524,1.802c-0.759,0.539-1.644,1.167-2.592,1.841c-0.476,0.335-0.967,0.681-1.466,1.032      c-0.513,0.331-1.035,0.667-1.557,1.003c-2.092,1.335-4.167,2.699-5.762,3.659c-1.613,0.931-2.688,1.552-2.688,1.552      c-1.434,0.824-2.828,1.52-4.177,2.068c-1.377,0.498-2.706,0.858-3.979,1.071c-2.614,0.432-4.72-0.2-6.502-2.075      c-1.735-1.799-3.231-4.161-4.564-7.014l-4.014-8.589c-1.329-2.841-2.854-5.204-4.443-7.071      c-1.591-1.865-2.995-2.557-4.185-2.016c-1.181,0.566-1.659,1.987-1.398,4.434c0.266,2.427,0.987,5.132,2.146,8.047l3.505,8.81      c1.165,2.926,1.814,5.647,1.918,8.137c0.069,1.27-0.135,2.419-0.612,3.457c-0.239,0.519-0.545,1.009-0.919,1.472      c-0.376,0.457-0.829,0.86-1.343,1.249c-1.034,0.765-2.216,1.469-3.532,2.113c-1.316,0.644-2.758,1.245-4.353,1.672      c0,0-1.199,0.341-2.997,0.853c-0.9,0.254-1.95,0.55-3.074,0.867c-1.131,0.292-2.349,0.557-3.562,0.844      c-2.432,0.542-4.848,1.169-6.696,1.455c-1.839,0.33-3.066,0.55-3.066,0.55c-1.631,0.272-3.171,0.509-4.637,0.491      c-1.463-0.001-2.833-0.115-4.1-0.349c-2.538-0.472-4.363-1.824-5.389-4.192c-1.01-2.284-1.603-5.016-1.874-8.153l-0.818-9.446      c-0.271-3.125-0.882-5.868-1.742-8.165c-0.854-2.297-1.896-3.429-3.24-3.325c-0.324,0.025-0.624,0.125-0.899,0.296      c-0.277,0.156-0.53,0.387-0.761,0.69c-0.462,0.607-0.836,1.507-1.128,2.692c-0.593,2.371-0.884,5.161-0.794,8.296l0.272,9.477      c0.091,3.147-0.231,5.926-0.984,8.301c-0.369,1.217-0.953,2.226-1.754,3.036c-0.801,0.806-1.818,1.444-3.047,1.792      c-1.229,0.363-2.577,0.617-4.028,0.769c-0.726,0.076-1.478,0.126-2.253,0.151c-0.776,0.033-1.575,0.025-2.396-0.048      c0,0-1.24-0.093-3.101-0.232c-1.859-0.157-4.345-0.281-6.812-0.639c-2.469-0.321-4.944-0.603-6.788-0.896      c-1.84-0.325-3.067-0.542-3.067-0.542c-1.623-0.289-3.138-0.655-4.527-1.101c-1.38-0.49-2.63-1.083-3.742-1.737      c-2.222-1.332-3.435-3.202-3.593-5.744c-0.185-2.499,0.142-5.284,0.956-8.326l2.447-9.16c0.809-3.031,1.169-5.82,1.144-8.276      c-0.018-2.454-0.61-3.878-1.858-4.231c-0.647-0.188-1.296-0.04-1.943,0.372c-0.646,0.41-1.303,1.127-1.981,2.141      c-1.364,2.024-2.591,4.546-3.577,7.523l-2.98,9c-0.989,2.989-2.197,5.505-3.705,7.481c-1.529,2.013-3.655,3.003-6.234,2.874      c-1.282-0.082-2.636-0.306-4.054-0.662c-0.709-0.178-1.434-0.39-2.174-0.634c-0.37-0.123-0.744-0.25-1.12-0.391      c-0.368-0.159-0.742-0.321-1.122-0.485c0,0-1.136-0.512-2.84-1.28c-0.851-0.386-1.844-0.837-2.907-1.32      c-1.069-0.472-2.159-1.078-3.275-1.632c-1.108-0.568-2.217-1.137-3.256-1.67c-0.519-0.268-1.021-0.526-1.496-0.771      c-0.465-0.265-0.904-0.516-1.31-0.747c-1.62-0.93-2.7-1.549-2.7-1.549l5.583-9.649c0.224,0.356,0.473,0.705,0.771,1.042      c0.82,0.906,1.755,1.84,2.876,2.647c1.121,0.806,2.38,1.572,3.767,2.281c2.759,1.476,5.497,2.138,7.916,2.401      c2.474,0.294,4.512-0.631,6.101-2.533c1.603-1.963,2.92-4.37,4.1-7.34c1.159-2.915,1.879-5.621,2.145-8.048      c0.254-2.434-0.366-4.332-1.851-5.898c-1.44-1.552-3.364-2.763-5.629-3.991c-1.141-0.585-2.265-1.044-3.37-1.379      c-1.105-0.336-2.144-0.638-3.189-0.766c-0.38-0.053-0.753-0.061-1.123-0.048L579.972,1454.449z M778.688,1401.744      c2.969,1.181,5.638,1.835,8.167,2.004c1.235,0.079,2.36-0.097,3.376-0.534c0.508-0.218,0.988-0.501,1.44-0.848      c0.442-0.351,0.836-0.774,1.209-1.257c0.742-0.969,1.435-2.075,2.068-3.309c0.634-1.234,1.22-2.592,1.621-4.098      c0.429-1.504,0.728-2.948,0.903-4.318c0.084-0.686,0.152-1.35,0.162-2c-0.001-0.654-0.032-1.287-0.091-1.899      c-0.221-2.507-1.416-4.336-3.551-5.563c-2.194-1.231-4.786-2.105-7.916-2.748c-3.073-0.631-5.872-0.869-8.326-0.71      c-2.457,0.172-4.289,1.099-5.494,2.853c-0.301,0.427-0.583,0.877-0.846,1.353c-0.274,0.473-0.558,0.962-0.808,1.48      c-0.506,1.035-0.936,2.168-1.285,3.406c-0.322,1.242-0.628,2.412-0.801,3.547c-0.171,1.135-0.223,2.232-0.159,3.285      c0.027,0.525,0.122,1.034,0.259,1.518c0.126,0.48,0.313,0.942,0.56,1.385c0.494,0.887,1.228,1.702,2.203,2.44      C773.324,1399.212,775.773,1400.585,778.688,1401.744z M751.809,1445.286c2.386,2.126,4.667,3.651,6.979,4.67      c2.258,0.991,4.458,0.858,6.577-0.402c2.051-1.312,4.097-3.224,6.003-5.685c1.832-2.59,3.089-5.019,3.761-7.43      c0.608-2.389,0.111-4.532-1.483-6.412c-1.641-1.914-3.747-3.673-6.467-5.352c-2.669-1.648-5.242-2.788-7.596-3.48      c-2.356-0.689-4.392-0.433-6.087,0.769c-1.767,1.216-3.432,2.76-4.93,4.902c-1.579,2.022-2.654,4.064-3.254,6.093      c-0.673,1.964-0.34,3.986,0.992,6.046C747.632,1441.069,749.467,1443.199,751.809,1445.286z M711.693,1477.064      c1.519,2.814,3.162,5.035,4.97,6.771c1.781,1.694,3.886,2.302,6.295,1.816c2.485-0.468,4.954-1.63,7.634-3.329      c1.324-0.82,2.457-1.767,3.454-2.73c0.999-0.96,1.858-1.942,2.571-2.93c0.724-0.975,1.128-2.043,1.25-3.144      c0.126-1.097-0.029-2.225-0.459-3.385c-0.888-2.373-2.281-4.741-4.266-7.246c-1.948-2.458-3.967-4.41-5.948-5.848      c-0.987-0.722-1.979-1.191-2.972-1.41c-0.99-0.214-1.981-0.178-3.016,0.056c-1.028,0.243-2.064,0.608-3.103,1.1      c-1.037,0.494-2.073,1.121-3.169,1.79c-2.212,1.391-3.82,3.011-5.174,4.64c-1.287,1.64-1.654,3.669-1.1,6.068      C709.223,1471.688,710.204,1474.306,711.693,1477.064z M663.162,1493.127c0.46,3.162,1.183,5.815,2.289,8.106      c1.101,2.198,2.854,3.486,5.34,3.835c1.211,0.171,2.523,0.272,3.902,0.188c1.375-0.105,2.832-0.331,4.356-0.683      c3.05-0.648,5.592-1.875,7.608-3.251c1.008-0.693,1.766-1.522,2.269-2.482c0.493-0.994,0.733-2.112,0.725-3.353      c-0.023-2.54-0.52-5.246-1.526-8.28c-0.987-2.977-2.214-5.499-3.579-7.523c-0.678-1.013-1.447-1.789-2.302-2.328      c-0.865-0.572-1.819-0.915-2.863-1.026c-2.094-0.241-4.363,0.041-6.875,0.562c-1.254,0.289-2.409,0.663-3.469,1.118      c-1.065,0.434-2.049,0.885-2.932,1.454c-1.818,1.118-2.849,2.905-3.163,5.352      C662.637,1487.229,662.711,1490.023,663.162,1493.127z M611.999,1491.681c-0.644,3.137-0.862,5.86-0.595,8.361      c0.287,2.445,1.554,4.272,3.714,5.45c2.148,1.232,4.832,1.931,7.932,2.34c0.775,0.097,1.53,0.167,2.263,0.203      c0.736,0.005,1.45-0.017,2.14-0.066c1.381-0.098,2.667-0.303,3.849-0.606c2.365-0.571,4.018-2.149,4.856-4.476      c0.832-2.394,1.244-5.107,1.335-8.301c0.089-3.136-0.162-5.924-0.745-8.295c-0.596-2.378-1.884-3.938-3.768-4.902      c-0.944-0.47-1.971-0.851-3.083-1.138c-0.556-0.143-1.133-0.263-1.732-0.358c-0.595-0.125-1.211-0.234-1.85-0.315      c-2.551-0.346-4.863-0.14-6.898,0.243c-2.039,0.427-3.662,1.74-4.789,3.931C613.513,1485.944,612.629,1488.614,611.999,1491.681      z"
/>
<path
   style="fill:#75CBEA;"
   d="M780.742,1350.41c2.338,0.718,5.11,1.127,8.246,1.217c3.194,0.091,5.924-0.165,8.357-0.859      c1.941-0.577,3.364-1.731,4.278-3.403h-24.996C777.463,1348.777,778.832,1349.813,780.742,1350.41z"
/>
<path
   style="fill:#FFFFFF;"
   d="M792.88,1401.109c0.742-0.969,1.435-2.075,2.068-3.309c0.634-1.234,1.22-2.592,1.621-4.098      c0.429-1.504,0.728-2.948,0.903-4.318c0.084-0.686,0.152-1.35,0.162-2c-0.001-0.654-0.032-1.287-0.091-1.899      c-0.221-2.507-1.416-4.336-3.551-5.563c-2.194-1.231-4.786-2.105-7.916-2.748c-3.073-0.631-5.872-0.869-8.326-0.71      c-2.457,0.172-4.289,1.099-5.494,2.853c-0.301,0.427-0.583,0.877-0.846,1.353c-0.274,0.473-0.558,0.962-0.808,1.48      c-0.506,1.035-0.936,2.168-1.285,3.406c-0.322,1.242-0.628,2.412-0.801,3.547c-0.171,1.135-0.223,2.232-0.159,3.285      c0.027,0.525,0.122,1.034,0.259,1.518c0.126,0.48,0.313,0.942,0.56,1.385c0.494,0.887,1.228,1.702,2.203,2.44      c1.947,1.483,4.396,2.856,7.311,4.015c2.969,1.181,5.638,1.835,8.167,2.004c1.235,0.079,2.36-0.097,3.376-0.534      c0.508-0.218,0.988-0.501,1.44-0.848C792.112,1402.015,792.506,1401.593,792.88,1401.109z"
/>
<path
   style="fill:#75CBEA;"
   d="M765.365,1449.554c2.051-1.312,4.097-3.224,6.003-5.685c1.832-2.59,3.089-5.019,3.761-7.43      c0.608-2.389,0.111-4.532-1.483-6.412c-1.641-1.914-3.747-3.673-6.467-5.352c-2.669-1.648-5.242-2.788-7.596-3.48      c-2.356-0.689-4.392-0.433-6.087,0.769c-1.767,1.216-3.432,2.76-4.93,4.902c-1.579,2.022-2.654,4.064-3.254,6.093      c-0.673,1.964-0.34,3.986,0.992,6.046c1.328,2.065,3.162,4.196,5.504,6.282c2.386,2.126,4.667,3.651,6.979,4.67      C761.046,1450.947,763.246,1450.813,765.365,1449.554z"
/>
<path
   style="fill:#FFFFFF;"
   d="M722.959,1485.651c2.485-0.468,4.954-1.63,7.634-3.329c1.324-0.82,2.457-1.767,3.454-2.73      c0.999-0.96,1.858-1.942,2.571-2.93c0.724-0.975,1.128-2.043,1.25-3.144c0.126-1.097-0.029-2.225-0.459-3.385      c-0.888-2.373-2.281-4.741-4.266-7.246c-1.948-2.458-3.967-4.41-5.948-5.848c-0.987-0.722-1.979-1.191-2.972-1.41      c-0.99-0.214-1.981-0.178-3.016,0.056c-1.028,0.243-2.064,0.608-3.103,1.1c-1.037,0.494-2.073,1.121-3.169,1.79      c-2.212,1.391-3.82,3.011-5.174,4.64c-1.287,1.64-1.654,3.669-1.1,6.068c0.561,2.404,1.542,5.022,3.032,7.78      c1.519,2.814,3.162,5.035,4.97,6.771C718.444,1485.529,720.549,1486.137,722.959,1485.651z"
/>
<path
   style="fill:#75CBEA;"
   d="M670.791,1505.068c1.211,0.171,2.523,0.272,3.902,0.188c1.375-0.105,2.832-0.331,4.356-0.683      c3.05-0.648,5.592-1.875,7.608-3.251c1.008-0.693,1.766-1.522,2.269-2.482c0.493-0.994,0.733-2.112,0.725-3.353      c-0.023-2.54-0.52-5.246-1.526-8.28c-0.987-2.977-2.214-5.499-3.579-7.523c-0.678-1.013-1.447-1.789-2.302-2.328      c-0.865-0.572-1.819-0.915-2.863-1.026c-2.094-0.241-4.363,0.041-6.875,0.562c-1.254,0.289-2.409,0.663-3.469,1.118      c-1.065,0.434-2.049,0.885-2.932,1.454c-1.818,1.118-2.849,2.905-3.163,5.352c-0.306,2.412-0.233,5.206,0.218,8.31      c0.46,3.162,1.183,5.815,2.289,8.106C666.551,1503.431,668.305,1504.719,670.791,1505.068z"
/>
<path
   style="fill:#FFFFFF;"
   d="M615.118,1505.491c2.148,1.232,4.832,1.931,7.932,2.34c0.775,0.097,1.53,0.167,2.263,0.203      c0.736,0.005,1.45-0.017,2.14-0.066c1.381-0.098,2.667-0.303,3.849-0.606c2.365-0.571,4.018-2.149,4.856-4.476      c0.832-2.394,1.244-5.107,1.335-8.301c0.089-3.136-0.162-5.924-0.745-8.295c-0.596-2.378-1.884-3.938-3.768-4.902      c-0.944-0.47-1.971-0.851-3.083-1.138c-0.556-0.143-1.133-0.263-1.732-0.358c-0.595-0.125-1.211-0.234-1.85-0.315      c-2.551-0.346-4.863-0.14-6.898,0.243c-2.039,0.427-3.662,1.74-4.789,3.931c-1.114,2.194-1.998,4.863-2.628,7.93      c-0.644,3.137-0.862,5.86-0.595,8.361C611.691,1502.486,612.958,1504.314,615.118,1505.491z"
/>
<path
   style="fill:#75CBEA;"
   d="M569.259,1491.751c2.759,1.476,5.497,2.138,7.916,2.401c2.474,0.294,4.512-0.631,6.101-2.533      c1.603-1.963,2.92-4.37,4.1-7.34c1.159-2.915,1.879-5.621,2.145-8.048c0.254-2.434-0.366-4.332-1.851-5.898      c-1.44-1.552-3.364-2.763-5.629-3.991c-1.141-0.585-2.265-1.044-3.37-1.379c-1.105-0.336-2.144-0.638-3.189-0.766      c-0.38-0.053-0.753-0.061-1.123-0.048l-12.515,21.632c0.224,0.356,0.473,0.705,0.771,1.042c0.82,0.906,1.755,1.84,2.876,2.647      C566.613,1490.276,567.872,1491.042,569.259,1491.751z"
/>
<path
   style="fill:#FFA227;"
   d="M579.972,1240.281c0,0-0.876,0.506-2.517,1.455c-0.798,0.513-1.782,1.146-2.939,1.89      c-0.58,0.37-1.203,0.767-1.869,1.19c-0.642,0.459-1.323,0.946-2.044,1.462c-0.723,0.512-1.484,1.052-2.282,1.618      c-0.81,0.551-1.582,1.229-2.431,1.876c-0.841,0.658-1.716,1.344-2.624,2.054c-0.872,0.754-1.776,1.536-2.709,2.343      c-1.911,1.567-3.756,3.441-5.777,5.334c-1,0.958-1.942,2.024-2.957,3.065c-0.503,0.525-1.012,1.056-1.527,1.593      c-0.486,0.562-0.978,1.131-1.475,1.705c-0.498,0.574-1,1.154-1.508,1.739c-0.508,0.585-1.035,1.165-1.506,1.8      c-0.977,1.242-1.972,2.507-2.984,3.794c-0.951,1.332-1.918,2.687-2.9,4.063c-0.245,0.344-0.491,0.69-0.738,1.036      c-0.229,0.359-0.458,0.72-0.688,1.081c-0.462,0.722-0.928,1.449-1.397,2.182c-3.701,5.886-7.113,12.404-9.96,19.426      c-2.851,7.019-5.134,14.54-6.673,22.349c-1.544,7.808-2.342,15.9-2.352,24.027c0.011,8.127,0.808,16.219,2.352,24.027      c1.539,7.809,3.822,15.33,6.673,22.349c2.847,7.022,6.258,13.54,9.96,19.426c0.469,0.732,0.935,1.46,1.397,2.182      c0.23,0.362,0.459,0.722,0.688,1.081c0.247,0.347,0.493,0.692,0.738,1.036c0.982,1.376,1.949,2.731,2.9,4.063      c1.012,1.287,2.008,2.552,2.984,3.794c0.472,0.635,0.998,1.215,1.506,1.8c0.508,0.586,1.011,1.165,1.508,1.739      c0.497,0.574,0.989,1.143,1.475,1.705c0.515,0.537,1.023,1.068,1.527,1.592c1.015,1.04,1.957,2.106,2.957,3.064      c2.021,1.893,3.866,3.768,5.777,5.334c0.934,0.807,1.837,1.589,2.709,2.343c0.908,0.711,1.783,1.396,2.624,2.054      c0.849,0.648,1.621,1.326,2.431,1.876c0.798,0.566,1.56,1.106,2.282,1.618c0.72,0.515,1.402,1.003,2.044,1.462      c0.665,0.424,1.289,0.821,1.869,1.19c1.157,0.744,2.141,1.377,2.939,1.89c1.642,0.949,2.517,1.455,2.517,1.455l-5.611,9.698      c-1.66,0.054-3.26,0.75-4.739,2.113c-1.785,1.652-3.525,3.84-5.174,6.508c-1.68,2.718-2.83,5.215-3.455,7.68      c-0.468,1.959-0.162,3.74,0.851,5.334l-5.582,9.647c-1.419-0.838-2.75-1.645-3.861-2.603c-1.123-0.94-2.102-1.909-2.924-2.9      c-0.819-0.997-1.352-2.041-1.591-3.137c-0.226-1.116-0.151-2.291,0.21-3.511c0.682-2.404,1.944-4.905,3.752-7.482l5.444-7.762      c1.8-2.569,3.095-5.061,3.91-7.372c0.821-2.306,0.749-3.839-0.312-4.59c-1.072-0.817-2.551-0.465-4.528,0.983      c-1.981,1.439-3.999,3.391-5.947,5.849l-5.885,7.433c-1.954,2.469-3.953,4.421-6.051,5.767      c-1.072,0.693-2.182,1.083-3.332,1.183c-1.148,0.099-2.293-0.142-3.484-0.638c-2.356-1.022-4.85-2.607-7.208-4.927      c0,0-0.9-0.859-2.25-2.147c-1.379-1.259-3.06-3.096-4.786-4.888c-0.852-0.906-1.727-1.792-2.503-2.662      c-0.765-0.88-1.479-1.702-2.091-2.406c-1.221-1.412-2.035-2.353-2.035-2.353c-1.098-1.228-1.953-2.537-2.71-3.785      c-0.748-1.256-1.35-2.49-1.795-3.693c-0.458-1.194-0.544-2.402-0.385-3.521c0.169-1.127,0.627-2.198,1.381-3.221      c1.452-2.023,3.486-3.942,6.064-5.75l7.762-5.445c2.568-1.802,4.654-3.668,6.205-5.551c0.772-0.946,1.264-1.79,1.468-2.531      c0.209-0.744,0.162-1.404-0.194-1.954c-0.705-1.103-2.261-1.291-4.617-0.602c-2.355,0.692-4.927,1.833-7.596,3.482l-8.065,4.984      c-2.678,1.656-5.226,2.812-7.665,3.368c-2.47,0.564-4.619-0.037-6.566-1.832c-0.94-0.879-1.895-1.885-2.728-3.081      c-0.831-1.198-1.623-2.54-2.376-4.013c0,0-0.561-1.108-1.402-2.77c-0.768-1.697-1.793-3.961-2.817-6.224      c-0.53-1.124-0.968-2.287-1.4-3.369c-0.427-1.083-0.826-2.095-1.168-2.962c-0.34-0.868-0.623-1.59-0.822-2.097      c-0.203-0.504-0.3-0.8-0.3-0.8c-1.076-3.184-1.682-6.01-1.682-8.648c0.079-2.6,1.138-4.598,3.25-5.999      c2.055-1.389,4.618-2.503,7.66-3.315l9.16-2.448c3.03-0.81,5.628-1.846,7.725-3.079c2.097-1.246,3.071-2.508,2.77-3.78      c-0.293-1.275-1.696-1.974-4.153-2.145c-2.454-0.159-5.253,0.08-8.326,0.712l-9.287,1.91c-3.09,0.636-5.88,0.786-8.33,0.463      c-2.509-0.309-4.335-1.622-5.547-3.915c-1.265-2.345-1.926-5.147-2.361-8.477c0,0-0.039-0.308-0.106-0.847      c-0.057-0.54-0.189-1.306-0.245-2.235c-0.141-1.855-0.33-4.328-0.518-6.8c-0.116-1.236-0.113-2.475-0.153-3.635      c-0.03-1.161-0.057-2.244-0.081-3.173c-0.043-1.857-0.071-3.095-0.071-3.095c0.069-3.299,0.515-6.2,1.364-8.613      c0.962-2.474,2.653-3.975,5.118-4.584c2.409-0.604,5.195-0.721,8.332-0.45l9.446,0.814c3.125,0.268,5.925,0.127,8.321-0.319      c1.201-0.223,2.107-0.556,2.754-0.992c0.657-0.435,1.031-0.975,1.114-1.625c0.166-1.298-0.907-2.433-3.155-3.429      c-2.25-0.983-4.961-1.71-8.065-2.161l-9.383-1.361c-3.116-0.451-5.806-1.248-8.031-2.402c-2.253-1.143-3.512-2.997-3.859-5.563      c-0.16-1.279-0.227-2.664-0.118-4.122c0.136-1.453,0.395-2.99,0.767-4.597c0,0,0.283-1.214,0.707-3.034      c0.477-1.807,1.174-4.202,1.853-6.6c0.172-0.599,0.344-1.198,0.513-1.788c0.194-0.582,0.386-1.154,0.571-1.709      c0.374-1.107,0.723-2.141,1.022-3.026c0.603-1.77,1.004-2.95,1.004-2.95c1.177-3.094,2.611-5.67,4.235-7.652      c1.738-1.938,3.857-2.83,6.383-2.555c2.469,0.259,5.125,1.106,7.978,2.439l8.591,4.011c2.843,1.326,5.516,2.165,7.921,2.56      c2.381,0.392,3.934,0.082,4.542-1.121c0.593-1.155-0.043-2.565-1.819-4.265c-1.773-1.707-4.051-3.359-6.81-4.851l-8.342-4.506      c-2.772-1.496-5.03-3.173-6.687-5.003c-1.723-1.849-2.277-4.028-1.732-6.562c0.509-2.554,1.832-5.181,3.601-7.961      c0,0,0.169-0.262,0.463-0.72c0.292-0.46,0.712-1.115,1.262-1.869c1.082-1.521,2.526-3.549,3.969-5.578      c1.513-1.975,3.064-3.923,4.216-5.391c0.579-0.731,1.053-1.349,1.418-1.753c0.355-0.412,0.558-0.648,0.558-0.648      c1.075-1.247,2.163-2.362,3.254-3.329c0.546-0.483,1.092-0.931,1.641-1.338c0.568-0.39,1.135-0.741,1.701-1.053      c2.275-1.242,4.523-1.331,6.789-0.207c2.234,1.072,4.471,2.739,6.698,4.966l6.705,6.703c2.218,2.216,4.455,3.927,6.598,5.138      c2.138,1.216,3.674,1.422,4.614,0.525c0.981-0.925,0.838-2.498-0.232-4.679c-1.067-2.19-2.636-4.51-4.722-6.853l-6.306-7.08      c-2.095-2.351-3.668-4.652-4.624-6.942c-0.988-2.339-0.742-4.622,0.615-6.837c1.417-2.139,3.482-4.23,6.097-6.254      c0,0,1.013-0.723,2.532-1.808c0.761-0.541,1.649-1.171,2.6-1.847c0.477-0.336,0.97-0.683,1.471-1.035      c0.515-0.332,1.038-0.669,1.561-1.006c2.099-1.339,4.18-2.708,5.78-3.67c1.618-0.934,2.696-1.556,2.696-1.556l5.583,9.649      c-0.421,0.016-0.849,0.056-1.29,0.145c-2.435,0.439-4.954,1.631-7.584,3.299c-1.329,0.823-2.463,1.769-3.459,2.731      c-0.998,0.959-1.855,1.94-2.568,2.928c-0.748,0.991-1.16,2.067-1.288,3.171c-0.13,1.1,0.024,2.229,0.451,3.391      c0.898,2.365,2.325,4.706,4.309,7.211c1.948,2.459,3.934,4.436,5.907,5.881c0.991,0.719,1.984,1.188,2.98,1.403      c0.994,0.211,1.993,0.169,3.047-0.079c1.028-0.243,2.062-0.607,3.1-1.098c1.036-0.495,2.073-1.12,3.172-1.791      c2.171-1.366,3.82-3.01,5.133-4.615c0.236-0.301,0.43-0.618,0.604-0.945L579.972,1240.281z M526.237,1438.729      c-2.506,1.983-4.407,3.971-5.819,6.08c-0.687,1.031-1.099,2.097-1.232,3.197c-0.129,1.096,0.065,2.19,0.522,3.325      c0.933,2.252,2.376,4.673,4.564,6.891c1.077,1.131,2.169,2.119,3.258,2.962c1.114,0.82,2.254,1.466,3.36,1.988      c2.27,1.072,4.42,0.986,6.576-0.274c2.182-1.302,4.246-3.117,6.371-5.503c2.086-2.343,3.686-4.636,4.761-6.82      c1.058-2.186,1.203-4.271,0.295-6.202c-0.426-0.962-0.991-1.889-1.651-2.83c-0.636-0.964-1.396-1.913-2.285-2.845      c-1.813-1.821-3.553-3.308-5.441-4.255c-0.93-0.485-1.932-0.709-2.949-0.724c-1.012-0.019-2.083,0.208-3.207,0.683      C531.107,1435.347,528.697,1436.782,526.237,1438.729z M501.922,1393.709c-3.034,1.004-5.497,2.219-7.54,3.714      c-1.975,1.457-3.022,3.453-2.93,5.899c0.058,1.217,0.242,2.509,0.555,3.859c0.157,0.675,0.346,1.365,0.568,2.067      c0.112,0.351,0.228,0.706,0.36,1.061c0.143,0.35,0.294,0.703,0.454,1.058c0.652,1.447,1.355,2.744,2.105,3.905      c0.375,0.581,0.763,1.128,1.161,1.644c0.406,0.512,0.854,0.978,1.296,1.423c1.758,1.724,3.857,2.366,6.277,1.923      c2.474-0.467,5.047-1.415,7.858-2.935c2.759-1.493,5.032-3.155,6.809-4.853c1.775-1.701,2.576-3.596,2.389-5.669      c-0.046-0.533-0.137-1.059-0.226-1.604c-0.082-0.548-0.192-1.101-0.333-1.66c-0.282-1.118-0.685-2.261-1.225-3.45      c-0.275-0.579-0.542-1.142-0.801-1.689c-0.268-0.543-0.553-1.059-0.854-1.548c-0.603-0.978-1.272-1.85-2.001-2.614      c-1.423-1.54-3.277-2.283-5.738-2.154C507.66,1392.2,504.9,1392.723,501.922,1393.709z M494.55,1343.075      c-3.194-0.092-5.926,0.219-8.358,0.914c-1.187,0.348-2.184,0.899-2.988,1.655c-0.8,0.756-1.436,1.718-1.779,2.879      c-0.362,1.19-0.633,2.464-0.802,3.838c-0.084,0.687-0.143,1.398-0.176,2.136c-0.016,0.369-0.026,0.744-0.028,1.126      c0.011,0.382,0.036,0.77,0.064,1.165c0.115,1.552,0.333,3.009,0.641,4.356c0.318,1.346,0.678,2.587,1.237,3.693      c1.066,2.221,2.823,3.544,5.251,3.961c2.488,0.423,5.23,0.407,8.392-0.054c3.104-0.452,5.81-1.221,8.059-2.214      c2.249-0.987,3.647-2.49,4.175-4.501c0.243-1.004,0.505-2.09,0.612-3.237c0.117-1.148,0.128-2.362,0.028-3.641      c-0.059-0.652-0.116-1.279-0.172-1.886c-0.065-0.606-0.156-1.19-0.271-1.754c-0.231-1.128-0.56-2.179-0.983-3.173      c-0.437-0.97-0.98-1.787-1.752-2.453c-0.768-0.666-1.738-1.181-2.907-1.541C500.456,1343.627,497.686,1343.166,494.55,1343.075z       M504.84,1293.01c-2.97-1.18-5.622-1.875-8.147-2.055c-1.237-0.074-2.362,0.102-3.38,0.544c-0.509,0.221-0.99,0.507-1.445,0.861      c-0.445,0.358-0.842,0.79-1.22,1.288c-0.741,0.968-1.434,2.072-2.066,3.305c-0.635,1.232-1.218,2.59-1.621,4.103      c-0.427,1.498-0.727,2.943-0.902,4.314c-0.084,0.687-0.154,1.351-0.162,2.003c0.001,0.655,0.032,1.289,0.09,1.9      c0.234,2.45,1.427,4.291,3.564,5.508c2.191,1.243,4.773,2.16,7.904,2.802c3.073,0.63,5.881,0.827,8.338,0.659      c2.455-0.162,4.289-1.098,5.482-2.804c0.301-0.427,0.584-0.878,0.847-1.354c0.272-0.474,0.558-0.964,0.807-1.483      c0.506-1.036,0.936-2.17,1.284-3.403c0.324-1.246,0.628-2.417,0.801-3.55c0.171-1.134,0.222-2.228,0.158-3.281      c-0.023-0.536-0.116-1.054-0.25-1.543c-0.124-0.486-0.309-0.951-0.555-1.397c-0.492-0.892-1.226-1.707-2.199-2.449      C510.219,1295.502,507.755,1294.168,504.84,1293.01z M531.711,1249.464c-2.387-2.125-4.639-3.683-6.943-4.711      c-2.266-0.983-4.495-0.815-6.615,0.445c-2.048,1.314-4.09,3.214-6.001,5.687c-1.805,2.551-3.088,5.02-3.728,7.382      c-0.608,2.389-0.136,4.572,1.452,6.46c1.642,1.913,3.778,3.626,6.496,5.306c2.669,1.649,5.213,2.833,7.568,3.524      c2.362,0.68,4.419,0.391,6.113-0.811c1.741-1.175,3.427-2.751,4.903-4.861c1.583-2.032,2.655-4.064,3.252-6.094      c0.673-1.964,0.365-4.015-0.959-6.083C535.915,1253.649,534.054,1251.55,531.711,1249.464z"
/>
<path
   style="fill:#75CBEA;"
   d="M569.622,1466.26c-1.785,1.652-3.525,3.84-5.174,6.508c-1.68,2.718-2.83,5.215-3.455,7.68      c-0.468,1.959-0.162,3.74,0.851,5.334l12.518-21.636C572.7,1464.201,571.101,1464.897,569.622,1466.26z"
/>
<path
   style="fill:#FFFFFF;"
   d="M519.708,1451.331c0.933,2.252,2.376,4.673,4.564,6.891c1.077,1.131,2.169,2.119,3.258,2.962      c1.114,0.82,2.254,1.466,3.36,1.988c2.27,1.072,4.42,0.986,6.576-0.274c2.182-1.302,4.246-3.117,6.371-5.503      c2.086-2.343,3.686-4.636,4.761-6.82c1.058-2.186,1.203-4.271,0.295-6.202c-0.426-0.962-0.991-1.889-1.651-2.83      c-0.636-0.964-1.396-1.913-2.285-2.845c-1.813-1.821-3.553-3.308-5.441-4.255c-0.93-0.485-1.932-0.709-2.949-0.724      c-1.012-0.019-2.083,0.208-3.207,0.683c-2.254,0.944-4.664,2.379-7.123,4.325c-2.506,1.983-4.407,3.971-5.819,6.08      c-0.687,1.031-1.099,2.097-1.232,3.197C519.057,1449.102,519.251,1450.196,519.708,1451.331z"
/>
<path
   style="fill:#75CBEA;"
   d="M491.453,1403.321c0.058,1.217,0.242,2.509,0.555,3.859c0.157,0.675,0.346,1.365,0.568,2.067      c0.112,0.351,0.228,0.706,0.36,1.061c0.143,0.35,0.294,0.703,0.454,1.058c0.652,1.447,1.355,2.744,2.105,3.905      c0.375,0.581,0.763,1.128,1.161,1.644c0.406,0.512,0.854,0.978,1.296,1.423c1.758,1.724,3.857,2.366,6.277,1.923      c2.474-0.467,5.047-1.415,7.858-2.935c2.759-1.493,5.032-3.155,6.809-4.853c1.775-1.701,2.576-3.596,2.389-5.669      c-0.046-0.533-0.137-1.059-0.226-1.604c-0.082-0.548-0.192-1.101-0.333-1.66c-0.282-1.118-0.685-2.261-1.225-3.45      c-0.275-0.579-0.542-1.142-0.801-1.689c-0.268-0.543-0.553-1.059-0.854-1.548c-0.603-0.978-1.272-1.85-2.001-2.614      c-1.423-1.54-3.277-2.283-5.738-2.154c-2.447,0.117-5.207,0.64-8.185,1.625c-3.034,1.004-5.497,2.219-7.54,3.714      C492.407,1398.88,491.36,1400.876,491.453,1403.321z"
/>
<path
   style="fill:#FFFFFF;"
   d="M481.425,1348.523c-0.362,1.19-0.633,2.464-0.802,3.838c-0.084,0.687-0.143,1.398-0.176,2.136      c-0.016,0.369-0.026,0.744-0.028,1.126c0.011,0.382,0.036,0.77,0.064,1.165c0.115,1.552,0.333,3.009,0.641,4.356      c0.318,1.346,0.678,2.587,1.237,3.693c1.066,2.221,2.823,3.544,5.251,3.961c2.488,0.423,5.23,0.407,8.392-0.054      c3.104-0.452,5.81-1.221,8.059-2.214c2.249-0.987,3.647-2.49,4.175-4.501c0.243-1.004,0.505-2.09,0.612-3.237      c0.117-1.148,0.128-2.362,0.028-3.641c-0.059-0.652-0.116-1.279-0.172-1.886c-0.065-0.606-0.156-1.19-0.271-1.754      c-0.231-1.128-0.56-2.179-0.983-3.173c-0.437-0.97-0.98-1.787-1.752-2.453c-0.768-0.666-1.738-1.181-2.907-1.541      c-2.338-0.717-5.109-1.178-8.244-1.269c-3.194-0.092-5.926,0.219-8.358,0.914c-1.187,0.348-2.184,0.899-2.988,1.655      C482.403,1346.4,481.768,1347.362,481.425,1348.523z"
/>
<path
   style="fill:#75CBEA;"
   d="M490.648,1293.648c-0.741,0.968-1.434,2.072-2.066,3.305c-0.635,1.232-1.218,2.59-1.621,4.103      c-0.427,1.498-0.727,2.943-0.902,4.314c-0.084,0.687-0.154,1.351-0.162,2.003c0.001,0.655,0.032,1.289,0.09,1.9      c0.234,2.45,1.427,4.291,3.564,5.508c2.191,1.243,4.773,2.16,7.904,2.802c3.073,0.63,5.881,0.827,8.338,0.659      c2.455-0.162,4.289-1.098,5.482-2.804c0.301-0.427,0.584-0.878,0.847-1.354c0.272-0.474,0.558-0.964,0.807-1.483      c0.506-1.036,0.936-2.17,1.284-3.403c0.324-1.246,0.628-2.417,0.801-3.55c0.171-1.134,0.222-2.228,0.158-3.281      c-0.023-0.536-0.116-1.054-0.25-1.543c-0.124-0.486-0.309-0.951-0.555-1.397c-0.492-0.892-1.226-1.707-2.199-2.449      c-1.951-1.474-4.415-2.808-7.33-3.967c-2.97-1.18-5.622-1.875-8.147-2.055c-1.237-0.074-2.362,0.102-3.38,0.544      c-0.509,0.221-0.99,0.507-1.445,0.861C491.423,1292.718,491.026,1293.151,490.648,1293.648z"
/>
<path
   style="fill:#FFFFFF;"
   d="M518.153,1245.198c-2.048,1.314-4.09,3.214-6.001,5.687c-1.805,2.551-3.088,5.02-3.728,7.382      c-0.608,2.389-0.136,4.572,1.452,6.46c1.642,1.913,3.778,3.626,6.496,5.306c2.669,1.649,5.213,2.833,7.568,3.524      c2.362,0.68,4.419,0.391,6.113-0.811c1.741-1.175,3.427-2.751,4.903-4.861c1.583-2.032,2.655-4.064,3.252-6.094      c0.673-1.964,0.365-4.015-0.959-6.083c-1.334-2.058-3.195-4.157-5.538-6.243c-2.387-2.125-4.639-3.683-6.943-4.711      C522.502,1243.77,520.273,1243.938,518.153,1245.198z"
/>
<path
   style="fill:#75CBEA;"
   d="M552.97,1212.392c-1.329,0.823-2.463,1.769-3.459,2.731c-0.998,0.959-1.855,1.94-2.568,2.928      c-0.748,0.991-1.16,2.067-1.288,3.171c-0.13,1.1,0.024,2.229,0.451,3.391c0.898,2.365,2.325,4.706,4.309,7.211      c1.948,2.459,3.934,4.436,5.907,5.881c0.991,0.719,1.984,1.188,2.98,1.403c0.994,0.211,1.993,0.169,3.047-0.079      c1.028-0.243,2.062-0.607,3.1-1.098c1.036-0.495,2.073-1.12,3.172-1.791c2.171-1.366,3.82-3.01,5.133-4.615      c0.236-0.301,0.43-0.618,0.604-0.945l-12.515-21.632c-0.421,0.016-0.849,0.056-1.29,0.145      C558.118,1209.532,555.6,1210.724,552.97,1212.392z"
/>
<path
   style="fill:#FFA227;"
   d="M765.422,1347.365c0,0-0.028-1.014-0.081-2.917c-0.023-0.951-0.05-2.124-0.083-3.503      c-0.106-1.373-0.228-2.951-0.364-4.719c-0.664-7.038-2.064-17.138-6.039-28.609c-3.795-11.498-10.269-24.312-19.621-36.292      c-4.672-5.984-10.062-11.737-16.063-16.99c-5.997-5.255-12.602-10.005-19.606-14.054c-7.002-4.053-14.4-7.401-21.929-9.962      c-7.529-2.566-15.185-4.342-22.697-5.391c-0.941-0.12-1.878-0.239-2.811-0.357c-0.932-0.124-1.859-0.255-2.793-0.3      c-1.862-0.126-3.702-0.298-5.528-0.406c-1.831-0.046-3.642-0.091-5.431-0.136c-1.789-0.018-3.556,0.083-5.3,0.106      c-1.747-0.006-3.455,0.193-5.143,0.307c-0.844,0.062-1.681,0.124-2.511,0.185c-0.829,0.07-1.644,0.205-2.457,0.301      c-0.812,0.103-1.616,0.205-2.414,0.306c-0.797,0.108-1.593,0.172-2.366,0.335c-1.553,0.277-3.077,0.55-4.57,0.816      c-11.901,2.391-21.383,6.086-27.785,9.064c-1.63,0.689-3.016,1.453-4.241,2.074c-1.218,0.636-2.277,1.135-3.1,1.604      c-1.642,0.948-2.518,1.454-2.518,1.454l-5.611-9.698c0.784-1.46,0.983-3.185,0.537-5.149c-0.56-2.404-1.587-4.997-3.077-7.755      c-1.52-2.813-3.114-5.06-4.922-6.798c-1.464-1.38-3.166-2.011-5.055-1.934l-5.582-9.647c1.429-0.821,2.822-1.518,4.174-2.065      c1.379-0.499,2.71-0.86,3.982-1.073c2.559-0.404,4.677,0.222,6.447,2.102c1.746,1.793,3.286,4.136,4.618,6.989l4.013,8.59      c1.328,2.842,2.844,5.209,4.442,7.072c1.59,1.866,2.957,2.573,4.139,2.037c1.216-0.582,1.667-1.992,1.397-4.435      c-0.257-2.43-0.939-5.151-2.098-8.066l-3.503-8.81c-1.164-2.926-1.856-5.63-1.973-8.116c-0.064-1.272,0.155-2.427,0.644-3.469      c0.245-0.521,0.557-1.014,0.935-1.479c0.381-0.457,0.836-0.862,1.351-1.25c1.034-0.765,2.214-1.468,3.528-2.111      c1.314-0.644,2.758-1.243,4.358-1.672c0,0,1.199-0.341,2.997-0.853c0.9-0.254,1.95-0.55,3.074-0.867      c1.132-0.29,2.349-0.556,3.562-0.842c2.432-0.543,4.848-1.168,6.696-1.453c1.839-0.33,3.066-0.55,3.066-0.55      c1.626-0.271,3.165-0.509,4.632-0.489c1.465,0.001,2.838,0.115,4.104,0.348c2.538,0.472,4.314,1.83,5.328,4.198      c1.022,2.283,1.662,5.011,1.932,8.149l0.816,9.446c0.271,3.125,0.839,5.871,1.691,8.169c0.864,2.297,1.935,3.426,3.241,3.325      c0.327-0.025,0.63-0.125,0.911-0.297c0.282-0.157,0.541-0.387,0.778-0.691c0.473-0.608,0.857-1.508,1.149-2.693      c0.583-2.37,0.885-5.161,0.796-8.296l-0.271-9.477c-0.09-3.147,0.186-5.925,0.926-8.3c0.375-1.217,0.959-2.226,1.766-3.037      c0.807-0.806,1.837-1.444,3.096-1.791c1.229-0.363,2.573-0.617,4.023-0.769c0.725-0.076,1.476-0.126,2.253-0.151      c0.388-0.013,0.782-0.019,1.183-0.019c0.4,0.011,0.806,0.039,1.218,0.068c0,0,1.237,0.092,3.091,0.231      c1.854,0.157,4.331,0.28,6.79,0.638c2.461,0.32,4.928,0.602,6.767,0.893c1.834,0.324,3.057,0.54,3.057,0.54      c1.654,0.294,3.168,0.661,4.557,1.106c1.38,0.49,2.63,1.083,3.773,1.744c2.222,1.333,3.435,3.201,3.592,5.745      c0.173,2.495-0.143,5.284-0.957,8.326l-2.449,9.159c-0.81,3.031-1.211,5.808-1.194,8.262c0.029,2.457,0.649,3.889,1.907,4.244      c0.628,0.183,1.275,0.034,1.926-0.377c0.649-0.409,1.316-1.123,1.999-2.134c1.355-2.027,2.542-4.562,3.528-7.54l2.979-9.001      c0.988-2.99,2.252-5.486,3.761-7.463c1.519-2.017,3.597-3.021,6.177-2.895c1.311,0.094,2.668,0.318,4.087,0.675      c0.71,0.179,1.435,0.39,2.178,0.635c0.371,0.124,0.748,0.251,1.127,0.395c0.372,0.161,0.75,0.324,1.135,0.49      c0,0,1.133,0.51,2.831,1.276c0.848,0.385,1.838,0.834,2.898,1.316c1.065,0.471,2.152,1.074,3.264,1.627      c1.105,0.567,2.21,1.133,3.246,1.664c0.517,0.267,1.018,0.525,1.492,0.769c0.464,0.264,0.902,0.514,1.306,0.744      c1.615,0.927,2.692,1.545,2.692,1.545c1.424,0.84,2.754,1.649,3.865,2.605c1.121,0.94,2.099,1.906,2.92,2.898      c0.845,1.013,1.388,2.064,1.632,3.163c0.23,1.121,0.156,2.295-0.201,3.519c-0.692,2.397-1.992,4.871-3.8,7.449l-5.443,7.763      c-1.8,2.569-3.086,5.068-3.909,7.372c-0.82,2.307-0.715,3.863,0.353,4.619c1.04,0.795,2.543,0.46,4.528-0.981      c1.973-1.445,3.959-3.422,5.906-5.882l5.884-7.434c1.953-2.47,3.989-4.393,6.097-5.731c1.067-0.696,2.166-1.096,3.305-1.205      c1.137-0.108,2.273,0.125,3.464,0.62c2.355,1.023,4.86,2.614,7.208,4.925c0,0,0.9,0.859,2.25,2.147      c1.379,1.259,3.062,3.094,4.787,4.887c0.853,0.906,1.726,1.792,2.504,2.661c0.765,0.88,1.479,1.702,2.091,2.406      c1.221,1.412,2.035,2.353,2.035,2.353c1.102,1.232,1.958,2.541,2.714,3.788c0.747,1.255,1.348,2.487,1.793,3.69      c0.458,1.194,0.553,2.411,0.401,3.542c-0.16,1.138-0.61,2.221-1.36,3.249c-1.459,2.013-3.521,3.893-6.098,5.702l-7.761,5.446      c-2.567,1.802-4.629,3.703-6.174,5.593c-0.775,0.941-1.272,1.778-1.479,2.515c-0.211,0.741-0.163,1.403,0.204,1.97      c0.7,1.094,2.234,1.25,4.59,0.56c2.36-0.684,4.926-1.834,7.595-3.483l8.064-4.986c2.678-1.656,5.25-2.774,7.696-3.319      c2.463-0.573,4.619,0.038,6.534,1.78c0.941,0.879,1.896,1.888,2.731,3.085c0.831,1.199,1.624,2.541,2.374,4.009      c0,0,0.563,1.111,1.408,2.778c0.771,1.703,1.798,3.973,2.826,6.244c0.531,1.128,0.971,2.295,1.404,3.38      c0.429,1.087,0.829,2.101,1.172,2.971c0.341,0.87,0.625,1.595,0.824,2.103c0.204,0.506,0.299,0.803,0.299,0.803      c1.057,3.125,1.68,6.011,1.663,8.588c-0.078,2.601-1.138,4.598-3.25,6c-2.052,1.401-4.618,2.504-7.66,3.317l-9.159,2.45      c-3.03,0.811-5.616,1.887-7.71,3.129c-2.102,1.236-3.081,2.469-2.783,3.732c0.302,1.313,1.698,1.984,4.152,2.145      c2.457,0.168,5.265-0.03,8.338-0.661l9.287-1.908c3.09-0.635,5.867-0.843,8.318-0.52c2.511,0.32,4.346,1.682,5.557,3.975      c1.255,2.285,1.923,5.135,2.352,8.416c0,0,0.039,0.309,0.106,0.849c0.056,0.541,0.191,1.31,0.247,2.242      c0.142,1.86,0.331,4.341,0.52,6.821c0.116,1.24,0.113,2.482,0.154,3.646c0.03,1.164,0.057,2.251,0.081,3.182      c0.043,1.863,0.072,3.105,0.072,3.105h-11.148c0.188-0.372,0.358-0.762,0.491-1.187c0.363-1.161,0.634-2.436,0.803-3.809      c0.085-0.687,0.143-1.398,0.176-2.132c0.016-0.367,0.026-0.74,0.029-1.118c-0.009-0.378-0.035-0.76-0.063-1.148      c-0.116-1.557-0.333-3.015-0.641-4.36c-0.319-1.345-0.676-2.583-1.236-3.689c-1.073-2.279-2.828-3.59-5.258-4.018      c-2.487-0.411-5.223-0.351-8.386,0.109c-3.104,0.451-5.815,1.179-8.065,2.162c-2.248,0.997-3.647,2.491-4.169,4.55      c-0.243,1.004-0.508,2.088-0.614,3.233c-0.117,1.146-0.128,2.36-0.028,3.645c0.058,0.64,0.115,1.261,0.17,1.865      c0.065,0.603,0.156,1.187,0.271,1.751c0.231,1.128,0.56,2.179,0.983,3.149c0.153,0.356,0.341,0.683,0.546,0.998H765.422z       M620.402,1201.599c-0.459-3.162-1.226-5.81-2.343-8.099c-1.089-2.199-2.856-3.485-5.284-3.845      c-1.211-0.171-2.525-0.27-3.907-0.188c-1.377,0.106-2.834,0.331-4.352,0.682c-3.061,0.651-5.592,1.873-7.609,3.25      c-1.036,0.701-1.805,1.532-2.313,2.496c-0.498,0.996-0.739,2.114-0.736,3.356c0.035,2.536,0.574,5.228,1.579,8.262      c0.986,2.978,2.174,5.512,3.529,7.54c0.683,1.012,1.453,1.788,2.312,2.325c0.87,0.57,1.833,0.911,2.9,1.014      c2.094,0.24,4.354-0.037,6.875-0.561c1.249-0.288,2.404-0.662,3.466-1.117c1.066-0.432,2.052-0.885,2.936-1.454      c1.77-1.109,2.81-2.897,3.114-5.344C620.884,1207.502,620.852,1204.704,620.402,1201.599z M671.564,1203.055      c0.645-3.137,0.82-5.869,0.541-8.372c-0.276-2.443-1.498-4.262-3.657-5.439c-2.148-1.232-4.843-1.935-7.931-2.342      c-0.787-0.099-1.548-0.169-2.284-0.206c-0.739-0.005-1.453,0.017-2.145,0.066c-1.382,0.098-2.672,0.303-3.882,0.604      c-2.365,0.572-3.971,2.152-4.798,4.479c-0.833,2.394-1.3,5.105-1.39,8.3c-0.088,3.135,0.215,5.926,0.798,8.296      c0.585,2.378,1.834,3.936,3.719,4.9c0.969,0.472,1.998,0.853,3.111,1.14c0.556,0.143,1.134,0.263,1.735,0.358      c0.598,0.126,1.219,0.235,1.867,0.317c2.542,0.344,4.862,0.141,6.898-0.242c2.039-0.428,3.624-1.747,4.74-3.94      C670.008,1208.782,670.933,1206.121,671.564,1203.055z M719.112,1221.975c1.681-2.718,2.785-5.244,3.409-7.71      c0.58-2.388,0.054-4.507-1.574-6.344c-0.845-0.92-1.78-1.855-2.901-2.662c-1.121-0.806-2.38-1.572-3.793-2.295      c-2.748-1.471-5.498-2.136-7.916-2.399c-2.422-0.27-4.47,0.648-6.048,2.556c-1.615,1.958-2.972,4.349-4.152,7.32      c-1.158,2.915-1.84,5.636-2.096,8.067c-0.263,2.429,0.365,4.333,1.805,5.879c1.439,1.552,3.374,2.766,5.629,3.99      c1.162,0.596,2.286,1.055,3.392,1.391c1.105,0.336,2.144,0.637,3.21,0.778c2.068,0.29,4.016-0.413,5.819-2.089      C715.679,1226.803,717.462,1224.643,719.112,1221.975z M757.283,1255.98c2.505-1.984,4.433-3.937,5.853-6.037      c0.684-1.036,1.096-2.101,1.225-3.205c0.127-1.102-0.076-2.204-0.552-3.361c-0.932-2.252-2.37-4.664-4.565-6.89      c-1.073-1.127-2.165-2.115-3.255-2.959c-1.116-0.819-2.258-1.469-3.364-1.99c-2.227-1.032-4.387-0.953-6.533,0.312      c-2.192,1.294-4.288,3.079-6.413,5.467c-2.085,2.343-3.654,4.664-4.721,6.854c-1.067,2.181-1.204,4.27-0.332,6.169      c0.426,0.961,0.992,1.892,1.654,2.832c0.637,0.965,1.397,1.914,2.283,2.843c1.819,1.828,3.554,3.307,5.442,4.254      c0.945,0.504,1.955,0.734,2.974,0.755c1.015,0.022,2.086-0.204,3.213-0.675C752.44,1259.395,754.824,1257.927,757.283,1255.98z       M781.606,1300.995c3.034-1.005,5.511-2.178,7.558-3.662c1.971-1.467,3.005-3.508,2.91-5.953      c-0.058-1.217-0.241-2.506-0.554-3.855c-0.331-1.341-0.713-2.776-1.385-4.189c-0.642-1.426-1.345-2.722-2.095-3.882      c-0.375-0.58-0.762-1.126-1.159-1.638c-0.404-0.508-0.849-0.967-1.284-1.399c-1.757-1.724-3.878-2.407-6.304-1.974      c-2.473,0.468-5.021,1.465-7.833,2.984c-2.759,1.492-5.056,3.108-6.833,4.807c-1.77,1.71-2.553,3.641-2.366,5.714      c0.04,0.522,0.128,1.042,0.215,1.583c0.08,0.545,0.19,1.097,0.331,1.655c0.281,1.117,0.685,2.26,1.217,3.431      c0.562,1.159,1.038,2.27,1.658,3.24c0.602,0.977,1.271,1.846,2,2.611c1.426,1.539,3.29,2.32,5.755,2.201      C775.883,1302.544,778.629,1301.982,781.606,1300.995z"
/>
<path
   style="fill:#75CBEA;"
   d="M574.898,1225.433c-0.56-2.404-1.587-4.997-3.077-7.755c-1.52-2.813-3.114-5.06-4.922-6.798      c-1.464-1.38-3.166-2.011-5.055-1.934l12.518,21.636C575.145,1229.122,575.344,1227.397,574.898,1225.433z"
/>
<path
   style="fill:#FFFFFF;"
   d="M612.775,1189.656c-1.211-0.171-2.525-0.27-3.907-0.188c-1.377,0.106-2.834,0.331-4.352,0.682      c-3.061,0.651-5.592,1.873-7.609,3.25c-1.036,0.701-1.805,1.532-2.313,2.496c-0.498,0.996-0.739,2.114-0.736,3.356      c0.035,2.536,0.574,5.228,1.579,8.262c0.986,2.978,2.174,5.512,3.529,7.54c0.683,1.012,1.453,1.788,2.312,2.325      c0.87,0.57,1.833,0.911,2.9,1.014c2.094,0.24,4.354-0.037,6.875-0.561c1.249-0.288,2.404-0.662,3.466-1.117      c1.066-0.432,2.052-0.885,2.936-1.454c1.77-1.109,2.81-2.897,3.114-5.344c0.315-2.414,0.283-5.213-0.167-8.317      c-0.459-3.162-1.226-5.81-2.343-8.099C616.969,1191.302,615.203,1190.015,612.775,1189.656z"
/>
<path
   style="fill:#75CBEA;"
   d="M668.448,1189.243c-2.148-1.232-4.843-1.935-7.931-2.342c-0.787-0.099-1.548-0.169-2.284-0.206      c-0.739-0.005-1.453,0.017-2.145,0.066c-1.382,0.098-2.672,0.303-3.882,0.604c-2.365,0.572-3.971,2.152-4.798,4.479      c-0.833,2.394-1.3,5.105-1.39,8.3c-0.088,3.135,0.215,5.926,0.798,8.296c0.585,2.378,1.834,3.936,3.719,4.9      c0.969,0.472,1.998,0.853,3.111,1.14c0.556,0.143,1.134,0.263,1.735,0.358c0.598,0.126,1.219,0.235,1.867,0.317      c2.542,0.344,4.862,0.141,6.898-0.242c2.039-0.428,3.624-1.747,4.74-3.94c1.123-2.193,2.048-4.854,2.679-7.92      c0.645-3.137,0.82-5.869,0.541-8.372C671.829,1192.24,670.607,1190.42,668.448,1189.243z"
/>
<path
   style="fill:#FFFFFF;"
   d="M720.947,1207.921c-0.845-0.92-1.78-1.855-2.901-2.662c-1.121-0.806-2.38-1.572-3.793-2.295      c-2.748-1.471-5.498-2.136-7.916-2.399c-2.422-0.27-4.47,0.648-6.048,2.556c-1.615,1.958-2.972,4.349-4.152,7.32      c-1.158,2.915-1.84,5.636-2.096,8.067c-0.263,2.429,0.365,4.333,1.805,5.879c1.439,1.552,3.374,2.766,5.629,3.99      c1.162,0.596,2.286,1.055,3.392,1.391c1.105,0.336,2.144,0.637,3.21,0.778c2.068,0.29,4.016-0.413,5.819-2.089      c1.784-1.652,3.568-3.812,5.218-6.48c1.681-2.718,2.785-5.244,3.409-7.71C723.102,1211.877,722.575,1209.758,720.947,1207.921z"
/>
<path
   style="fill:#75CBEA;"
   d="M763.81,1243.376c-0.932-2.252-2.37-4.664-4.565-6.89c-1.073-1.127-2.165-2.115-3.255-2.959      c-1.116-0.819-2.258-1.469-3.364-1.99c-2.227-1.032-4.387-0.953-6.533,0.312c-2.192,1.294-4.288,3.079-6.413,5.467      c-2.085,2.343-3.654,4.664-4.721,6.854c-1.067,2.181-1.204,4.27-0.332,6.169c0.426,0.961,0.992,1.892,1.654,2.832      c0.637,0.965,1.397,1.914,2.283,2.843c1.819,1.828,3.554,3.307,5.442,4.254c0.945,0.504,1.955,0.734,2.974,0.755      c1.015,0.022,2.086-0.204,3.213-0.675c2.248-0.951,4.632-2.419,7.091-4.366c2.505-1.984,4.433-3.937,5.853-6.037      c0.684-1.036,1.096-2.101,1.225-3.205C764.488,1245.636,764.286,1244.534,763.81,1243.376z"
/>
<path
   style="fill:#FFFFFF;"
   d="M792.074,1291.381c-0.058-1.217-0.241-2.506-0.554-3.855c-0.331-1.341-0.713-2.776-1.385-4.189      c-0.642-1.426-1.345-2.722-2.095-3.882c-0.375-0.58-0.762-1.126-1.159-1.638c-0.404-0.508-0.849-0.967-1.284-1.399      c-1.757-1.724-3.878-2.407-6.304-1.974c-2.473,0.468-5.021,1.465-7.833,2.984c-2.759,1.492-5.056,3.108-6.833,4.807      c-1.77,1.71-2.553,3.641-2.366,5.714c0.04,0.522,0.128,1.042,0.215,1.583c0.08,0.545,0.19,1.097,0.331,1.655      c0.281,1.117,0.685,2.26,1.217,3.431c0.562,1.159,1.038,2.27,1.658,3.24c0.602,0.977,1.271,1.846,2,2.611      c1.426,1.539,3.29,2.32,5.755,2.201c2.444-0.125,5.19-0.688,8.168-1.674c3.034-1.005,5.511-2.178,7.558-3.662      C791.135,1295.867,792.169,1293.826,792.074,1291.381z"
/>
<path
   style="fill:#75CBEA;"
   d="M803.056,1337.971c-0.116-1.557-0.333-3.015-0.641-4.36c-0.319-1.345-0.676-2.583-1.236-3.689      c-1.073-2.279-2.828-3.59-5.258-4.018c-2.487-0.411-5.223-0.351-8.386,0.109c-3.104,0.451-5.815,1.179-8.065,2.162      c-2.248,0.997-3.647,2.491-4.169,4.55c-0.243,1.004-0.508,2.088-0.614,3.233c-0.117,1.146-0.128,2.36-0.028,3.645      c0.058,0.64,0.115,1.261,0.17,1.865c0.065,0.603,0.156,1.187,0.271,1.751c0.231,1.128,0.56,2.179,0.983,3.149      c0.153,0.356,0.341,0.683,0.546,0.998h24.992c0.188-0.372,0.358-0.762,0.491-1.187c0.363-1.161,0.634-2.436,0.803-3.809      c0.085-0.687,0.143-1.398,0.176-2.132c0.016-0.367,0.026-0.74,0.029-1.118C803.109,1338.742,803.084,1338.359,803.056,1337.971z      "
/>
<path
   style="fill:#75CBEA;"
   d="M693.63,1352.737c0.308,1.19,0.803,2.167,1.472,2.909c0.638,0.735,1.452,1.235,2.466,1.459     c2.025,0.447,4.266,0.093,6.665-1.332c0,0,1.806-1.085,3.495-2.342c0.857-0.622,1.734-1.272,2.371-1.776     c0.621-0.513,1.036-0.855,1.036-0.855s0.415-0.348,1.038-0.869c0.61-0.529,1.488-1.249,2.263-2.005     c1.589-1.5,3.183-3.147,3.183-3.147h-22.79c-0.221,0.369-0.447,0.728-0.635,1.111     C693.166,1348.215,692.887,1350.334,693.63,1352.737z"
/>
<path
   style="fill:#E0486C;"
   d="M691.13,1393.792c0,0,2.131,0.01,4.367-0.085c2.189-0.118,4.447-0.375,4.447-0.375     s0.143-0.015,0.392-0.04c0.252-0.025,0.608-0.064,1.026-0.125c0.841-0.117,1.974-0.286,3.125-0.48     c1.162-0.183,2.295-0.426,3.152-0.62c0.864-0.198,1.439-0.33,1.439-0.33s0.581-0.148,1.452-0.371     c0.875-0.229,2-0.584,3.164-0.949c2.34-0.713,4.625-1.638,4.625-1.638s0.581-0.223,1.452-0.557     c0.886-0.334,2.036-0.818,3.177-1.341c1.149-0.517,2.309-1.063,3.183-1.485c0.853-0.441,1.421-0.735,1.421-0.735     c3.01-1.613,5.867-4.319,8.205-8.075c2.411-3.728,3.532-8.151,3.367-12.565c-0.199-4.433-1.503-6.754-3.542-7.011     c-2.144-0.278-4.285,0.835-6.822,3.065c0,0-0.465,0.399-1.164,0.996c-0.687,0.593-1.628,1.359-2.606,2.088     c-0.964,0.733-1.924,1.436-2.641,1.95c-0.714,0.515-1.225,0.836-1.225,0.836s-1.993,1.316-3.981,2.474     c-2.048,1.155-4.049,2.165-4.049,2.165s-0.506,0.26-1.279,0.625c-0.77,0.366-1.79,0.838-2.798,1.281     c-0.996,0.45-2.066,0.836-2.824,1.129c-0.766,0.282-1.276,0.47-1.276,0.47s-1.003,0.378-2.572,0.828     c-0.776,0.229-1.673,0.483-2.621,0.733c-0.948,0.251-2.006,0.467-3.018,0.677c-2.01,0.434-4.087,0.687-5.57,0.857     c-0.738,0.089-1.374,0.133-1.817,0.16c-0.439,0.027-0.69,0.042-0.69,0.042c-1.329,0.069-2.555,0.276-3.803,0.551     c-0.614,0.145-1.21,0.324-1.789,0.54c-0.601,0.198-1.197,0.423-1.772,0.693c-1.099,0.547-2.114,1.119-2.86,1.953     c-0.834,0.746-1.406,1.762-1.953,2.861c-0.258,0.566-0.445,1.121-0.563,1.661c-0.126,0.53-0.198,1.026-0.186,1.519     c0.019,0.98,0.329,1.9,0.96,2.722c1.256,1.634,3.189,2.803,5.972,3.266c0,0,0.516,0.066,1.289,0.164     c0.774,0.089,1.845,0.222,2.9,0.293C688.921,1393.751,691.13,1393.792,691.13,1393.792z"
/>
<path
   style="fill:#EA8FA0;"
   d="M648.091,1413.863c0,0,0.419,0.358,1.047,0.894c0.634,0.517,1.494,1.18,2.385,1.851     c1.779,1.374,3.685,2.575,3.685,2.575s0.477,0.314,1.192,0.784c0.725,0.481,1.703,1.088,2.703,1.649     c1.001,0.575,2.032,1.143,2.819,1.565c0.786,0.423,1.314,0.666,1.314,0.666s2.131,1.027,4.392,1.96     c2.232,0.888,4.604,1.716,4.604,1.716s2.316,0.787,4.767,1.504c1.225,0.367,2.443,0.643,3.383,0.876     c0.942,0.22,1.571,0.366,1.571,0.366c3.356,0.717,7.248,0.416,11.477-0.904c4.183-1.386,7.862-3.87,10.614-7.471     c1.368-1.723,2.104-3.295,2.39-4.535c0.279-1.251,0.036-2.256-0.662-3.018c-1.431-1.561-3.854-2.197-7.12-2.118     c0,0-0.759,0.038-2.116,0.006c-1.359-0.037-3.228-0.043-5.48-0.244c-4.464-0.313-10.262-1.297-15.548-2.931     c-2.644-0.791-5.207-1.801-7.471-2.78c-2.304-1.071-4.297-2.067-5.977-3.083c-0.834-0.49-1.576-0.944-2.221-1.349     c-0.641-0.437-1.2-0.818-1.661-1.131c-0.886-0.633-1.393-0.995-1.393-0.995c-1.055-0.758-2.167-1.495-3.285-2.019     c-1.121-0.534-2.293-1.05-3.479-1.339c-2.402-0.741-4.523-0.467-6.788,0.565c-1.157,0.582-2.042,1.183-2.654,1.954     c-0.612,0.769-0.951,1.675-0.995,2.711c-0.087,2.072,0.645,4.159,2.483,6.349c0,0,1.368,1.51,2.883,3.028     c0.754,0.777,1.531,1.451,2.13,2.002C647.688,1413.504,648.091,1413.863,648.091,1413.863z"
/>
<path
   style="fill:#75CBEA;"
   d="M602.284,1401.594c0,0,0.092,0.542,0.23,1.355c0.145,0.815,0.385,1.866,0.636,2.955     c0.483,2.193,1.17,4.34,1.17,4.34s0.164,0.547,0.409,1.368c0.245,0.836,0.611,1.919,1.013,2.998     c0.397,1.086,0.821,2.185,1.152,3.015c0.349,0.808,0.582,1.347,0.582,1.347s0.475,1.073,1.261,2.711     c0.783,1.639,1.944,3.741,3.208,5.907c1.293,2.069,2.676,4.257,3.815,5.762c1.126,1.54,1.928,2.575,1.928,2.575     c1.052,1.376,2.387,2.561,3.949,3.718c1.565,1.143,3.395,2.077,5.435,2.961c4.096,1.619,8.512,2.088,12.813,1.083     c2.205-0.432,3.801-1.146,4.829-1.935c1.029-0.795,1.49-1.706,1.445-2.734c-0.092-2.134-1.534-4.166-4.084-6.184     c0,0-1.458-1.198-3.473-3.006c-1.008-0.879-2.146-2.031-3.312-3.207c-1.168-1.164-2.354-2.49-3.478-3.819     c-0.562-0.664-1.113-1.312-1.636-1.974c-0.508-0.675-1.009-1.339-1.492-1.982c-0.945-1.27-1.771-2.468-2.439-3.542     c-0.672-1.055-1.201-1.926-1.564-2.533c-0.36-0.615-0.553-0.984-0.553-0.984s-1.076-1.909-1.996-3.802     c-0.917-1.954-1.694-3.848-1.694-3.848s-0.179-0.492-0.448-1.229c-0.261-0.738-0.592-1.713-0.897-2.674     c-0.31-0.951-0.56-1.97-0.75-2.69c-0.18-0.727-0.299-1.211-0.299-1.211c-0.625-2.564-1.62-4.889-3.032-6.919     c-1.369-2.108-3.166-3.265-5.603-3.951c-2.4-0.625-4.34-0.247-5.739,1.271c-1.413,1.545-2.183,3.597-2.175,6.44     c0,0,0.003,0.131,0.007,0.36c0.003,0.232,0.013,0.558,0.038,0.941c0.044,0.772,0.114,1.813,0.208,2.875     c0.083,1.073,0.224,2.116,0.34,2.909C602.205,1401.061,602.284,1401.594,602.284,1401.594z"
/>
<path
   style="fill:#E0486C;"
   d="M564.83,1398.954c-0.054,1.697,0.103,3.503,0.6,5.34c0.238,0.927,0.54,1.877,0.906,2.853     c0.391,0.955,0.854,1.929,1.381,2.929c0.499,0.99,1.076,1.922,1.734,2.784c0.648,0.871,1.348,1.7,2.101,2.476     c1.571,1.484,3.273,2.843,5.263,3.83c0.98,0.51,1.877,0.903,2.691,1.178c0.824,0.263,1.575,0.396,2.23,0.428     c1.315,0.058,2.277-0.329,2.903-1.146c1.31-1.705,1.476-4.151,0.846-7.372c0,0-0.483-2.446-0.815-4.834     c-0.31-2.434-0.506-4.771-0.506-4.771s-0.121-2.4-0.136-4.694c0.01-2.336,0.156-4.592,0.156-4.592s0.014-0.551,0.092-1.399     c0.075-0.846,0.186-1.961,0.315-3.052c0.116-1.083,0.293-2.174,0.437-2.984c0.144-0.801,0.24-1.335,0.24-1.335     s0.099-0.529,0.248-1.323c0.15-0.786,0.416-1.855,0.671-2.881c0.49-2.052,1.172-4.042,1.172-4.042s0.172-0.489,0.429-1.222     c0.249-0.721,0.623-1.683,1.034-2.631c0.401-0.944,0.812-1.86,1.125-2.533c0.338-0.677,0.564-1.129,0.564-1.129     c1.192-2.379,1.855-4.773,2.14-7.252c0.213-2.458-0.292-4.581-1.776-6.589c-0.693-1.015-1.53-1.758-2.376-2.236     c-0.846-0.477-1.791-0.67-2.819-0.537c-2.034,0.265-4.067,1.369-5.807,3.589c0,0-0.403,0.517-1.109,1.422     c-0.725,0.926-1.617,2.248-2.741,3.958c-2.148,3.374-4.805,8.314-6.716,13.788c-1.961,5.448-3.232,11.413-3.841,16.082     c-0.28,2.307-0.441,4.293-0.547,5.703C564.864,1398.156,564.83,1398.954,564.83,1398.954z"
/>
<path
   style="fill:#EA8FA0;"
   d="M579.168,1315.505c0,0-0.383,0.138-1.052,0.379c-0.665,0.249-1.654,0.601-2.796,1.084     c-1.133,0.487-2.469,1.086-3.92,1.781c-1.412,0.708-2.911,1.523-4.44,2.392c-1.49,0.88-2.958,1.83-4.365,2.763     c-1.378,0.94-2.622,1.883-3.719,2.714c-1.107,0.828-1.961,1.566-2.577,2.086c-0.614,0.527-0.964,0.828-0.964,0.828     s-1.915,1.601-3.691,3.373c-0.902,0.88-1.815,1.789-2.482,2.486c-0.647,0.706-1.078,1.176-1.078,1.176     c-2.288,2.629-4.019,6.05-4.943,10.351c-1.002,4.409-0.524,8.826,1.095,12.92c0.875,2.041,1.793,3.509,2.738,4.405     c0.982,0.89,1.98,1.21,2.983,0.987c2.089-0.463,3.77-2.247,5.394-5.11c0,0,1.151-2.178,2.49-4.229     c0.653-1.028,1.303-2.025,1.807-2.761c0.527-0.73,0.878-1.217,0.878-1.217s0.358-0.471,0.895-1.178     c0.55-0.7,1.228-1.613,2.007-2.501c1.525-1.782,3.056-3.416,3.056-3.416s1.593-1.669,3.182-3.188     c0.775-0.766,1.654-1.495,2.265-2.031c0.623-0.528,1.039-0.88,1.039-0.88s0.414-0.337,1.035-0.843     c0.64-0.496,1.513-1.137,2.37-1.75c1.688-1.239,3.489-2.308,3.489-2.308s0.446-0.264,1.115-0.661     c0.658-0.391,1.551-0.891,2.48-1.351c0.915-0.465,1.821-0.901,2.495-1.215c0.332-0.159,0.623-0.283,0.83-0.369     c0.204-0.086,0.32-0.135,0.32-0.135c2.458-1.101,4.494-2.458,6.301-4.177c1.759-1.801,2.731-3.698,2.875-6.198     c0.122-1.223-0.039-2.331-0.381-3.24c-0.343-0.909-0.943-1.665-1.817-2.223c-1.729-1.104-3.994-1.561-6.722-1.039     c0,0-0.512,0.111-1.279,0.278c-0.783,0.166-1.8,0.424-2.81,0.719c-1.019,0.289-2.053,0.604-2.835,0.852     C579.675,1315.328,579.168,1315.505,579.168,1315.505z"
/>
<path
   style="fill:#75CBEA;"
   d="M612.69,1281.936c0,0-0.509-0.206-1.277-0.479c-0.762-0.262-1.795-0.604-2.855-0.933     c-1.064-0.341-2.14-0.64-2.946-0.833c-0.818-0.201-1.363-0.335-1.363-0.335s-2.219-0.572-4.493-0.943     c-1.138-0.196-2.316-0.398-3.185-0.504c-0.875-0.101-1.458-0.169-1.458-0.169s-0.594-0.054-1.484-0.135     c-0.898-0.079-2.109-0.172-3.308-0.198c-1.207-0.04-2.436-0.059-3.368-0.065c-0.933-0.007-1.54,0.026-1.54,0.026     s-0.618,0.015-1.545,0.038c-0.927,0.033-2.2,0.066-3.452,0.163c-2.493,0.196-5.083,0.509-5.083,0.509     c-1.674,0.259-3.414,0.771-5.187,1.546c-1.715,0.826-3.54,1.851-5.258,3.224c-3.536,2.666-6.081,6.434-7.464,10.619     c-0.64,2.125-0.885,3.836-0.73,5.132c0.184,1.314,0.739,2.198,1.652,2.672c1.902,0.99,4.33,0.697,7.462-0.533     c0,0,2.274-0.902,4.601-1.596c1.157-0.356,2.278-0.701,3.146-0.924c0.866-0.216,1.444-0.36,1.444-0.36s0.576-0.132,1.44-0.331     c0.859-0.193,1.989-0.439,3.151-0.622c1.151-0.194,2.284-0.364,3.125-0.481c0.418-0.061,0.771-0.103,1.024-0.127     c0.25-0.026,0.392-0.04,0.392-0.04s2.272-0.273,4.474-0.406c2.25-0.109,4.393-0.113,4.393-0.113s1.109,0.024,2.715,0.11     c1.587,0.063,3.734,0.291,5.779,0.584c2.061,0.303,4.077,0.741,5.532,1.089c1.487,0.386,2.432,0.669,2.432,0.669     c2.521,0.736,4.999,1.053,7.517,0.824c2.498-0.147,4.398-1.115,6.144-2.856c0.85-0.93,1.469-1.786,1.78-2.728     c0.313-0.934,0.334-1.908,0.023-2.896c-0.625-1.979-2.018-3.687-4.484-5.117c0,0-0.455-0.243-1.151-0.591     c-0.697-0.349-1.643-0.81-2.619-1.261c-0.977-0.459-1.951-0.83-2.708-1.138C613.197,1282.133,612.69,1281.936,612.69,1281.936z"
/>
<path
   style="fill:#E0486C;"
   d="M660.012,1277.779c0,0-0.26-0.495-0.682-1.186c-0.422-0.693-1.002-1.623-1.611-2.56     c-0.605-0.951-1.249-1.864-1.749-2.535c-0.505-0.681-0.842-1.135-0.842-1.135s-1.333-1.866-2.838-3.609     c-0.746-0.884-1.52-1.783-2.117-2.438c-0.605-0.638-1.009-1.063-1.009-1.063s-0.42-0.421-1.05-1.053     c-0.638-0.618-1.505-1.505-2.405-2.285c-1.79-1.6-3.729-3.192-3.729-3.192s-1.901-1.531-3.95-3.044     c-1.02-0.771-2.069-1.442-2.87-1.984c-0.808-0.529-1.346-0.881-1.346-0.881c-2.899-1.829-6.656-2.893-11.082-3.091     c-4.414-0.155-8.732,0.932-12.562,3.379c-1.883,1.154-3.125,2.353-3.811,3.449c-0.687,1.097-0.809,2.112-0.414,3.062     c0.819,1.976,2.873,3.378,5.97,4.409c0,0,0.727,0.267,1.999,0.735c1.259,0.478,3.018,1.139,5.069,2.105     c4.086,1.812,9.193,4.73,13.595,8.092c2.209,1.64,4.273,3.488,6.066,5.175c1.802,1.805,3.34,3.406,4.579,4.942     c1.24,1.489,2.185,2.725,2.819,3.655c0.621,0.902,0.976,1.418,0.976,1.418c1.474,2.192,3.214,4.023,5.23,5.463     c2.009,1.481,4.078,1.975,6.536,1.756c1.272-0.149,2.306-0.428,3.138-0.938c0.833-0.514,1.46-1.25,1.857-2.208     c0.792-1.914,0.828-4.133-0.146-6.806c0,0-0.761-1.889-1.662-3.837C661.069,1279.682,660.012,1277.779,660.012,1277.779z"
/>
<path
   style="fill:#EA8FA0;"
   d="M698.854,1304.998c0,0,0.094-0.538,0.234-1.345c0.14-0.815,0.312-1.915,0.422-3.006     c0.123-1.099,0.228-2.221,0.298-3.074c0.071-0.852,0.082-1.408,0.082-1.408s0.029-0.567,0.071-1.417     c0.032-0.85,0.09-2.023,0.082-3.175c-0.015-2.294-0.138-4.694-0.138-4.694s-0.086-1.164-0.274-2.96     c-0.166-1.818-0.533-4.19-0.99-6.643c-0.466-2.43-1.082-4.871-1.589-6.729c-0.533-1.822-0.933-3.062-0.933-3.062     c-1.043-3.272-3.246-6.49-6.505-9.49c-3.284-2.944-7.282-4.894-11.69-5.439c-2.229-0.355-3.986-0.223-5.224,0.158     c-1.243,0.392-1.988,1.089-2.297,2.071c-0.641,2.038,0.027,4.445,1.738,7.221c0,0,0.242,0.395,0.643,1.105     c0.401,0.706,0.965,1.713,1.603,2.908c1.269,2.423,2.784,5.655,3.971,8.932c0.618,1.601,1.129,3.273,1.578,4.791     c0.459,1.503,0.8,2.95,1.072,4.168c0.559,2.409,0.778,4.036,0.778,4.036s0.084,0.536,0.21,1.339     c0.121,0.797,0.271,1.845,0.361,2.924c0.1,1.067,0.178,2.114,0.227,2.889c0.028,0.384,0.038,0.715,0.043,0.947     c0.006,0.23,0.009,0.362,0.009,0.362s0.039,2.1-0.056,4.122c-0.117,2.07-0.331,4.023-0.331,4.023     c-0.166,1.335-0.197,2.625-0.092,3.864c0.044,1.293,0.293,2.479,0.573,3.711c0.646,2.396,1.818,4.185,3.951,5.602     c1.002,0.715,2.003,1.133,2.986,1.259c0.948,0.144,1.892-0.013,2.812-0.493c1.835-0.96,3.332-2.663,4.246-5.31     c0,0,0.689-1.975,1.189-4.012c0.26-1.019,0.53-2.079,0.685-2.86C698.752,1305.523,698.854,1304.998,698.854,1304.998z"
/>
<path
   style="fill:#75CBEA;"
   d="M734.246,1308.831c-0.551-4.407-2.499-8.404-5.45-11.685c-3.002-3.263-5.49-4.208-7.218-3.095     c-1.822,1.164-2.762,3.377-3.307,6.649c0,0-0.097,0.609-0.243,1.524c-0.139,0.902-0.367,2.108-0.64,3.303     c-0.261,1.191-0.537,2.355-0.751,3.217c-0.241,0.866-0.402,1.444-0.402,1.444s-0.175,0.566-0.437,1.416     c-0.276,0.847-0.605,1.94-1.026,3.039c-0.411,1.097-0.835,2.165-1.157,2.954c-0.322,0.789-0.547,1.304-0.547,1.304     s-0.93,2.093-1.907,4.042c-1.02,1.979-2.124,3.825-2.124,3.825s-0.256,0.466-0.691,1.157c-0.438,0.693-1.027,1.598-1.62,2.474     c-0.298,0.432-0.596,0.864-0.875,1.269c-0.299,0.398-0.579,0.769-0.818,1.088c-0.481,0.62-0.801,1.034-0.801,1.034     s-1.272,1.622-2.701,3.116c-0.699,0.749-1.392,1.467-1.922,1.994c-0.554,0.522-0.923,0.87-0.923,0.87     c-0.815,0.761-1.505,1.558-2.145,2.394c-0.667,0.839-1.24,1.712-1.715,2.619h22.793c0,0,1.143-1.219,2.853-3.219     c0.88-1.002,1.774-2.199,2.788-3.54c1.025-1.342,2.02-2.818,3.001-4.354c0.489-0.767,0.996-1.552,1.453-2.332     c0.446-0.793,0.885-1.573,1.31-2.328c0.418-0.779,0.822-1.533,1.205-2.248c0.362-0.722,0.687-1.412,0.992-2.058     c0.606-1.291,1.101-2.398,1.444-3.18c0.317-0.782,0.499-1.228,0.499-1.228C734.432,1317.14,734.907,1313.311,734.246,1308.831z"
/>
<polygon
   style="fill:#EA8FA0;"
   points="629.453,1343.834 629.444,1343.837 629.45,1343.835    "
/>
<path
   style="fill:#FFFFFF;"
   d="M629.453,1343.834l0.006-0.002L629.453,1343.834z"
/>
<path
   style="fill:#E0486C;"
   d="M658.278,1345.334c-0.09-1.286-0.319-2.338-0.508-3.063c-0.101-0.361-0.175-0.647-0.246-0.835     c-0.064-0.191-0.097-0.292-0.097-0.292s-0.028-0.085-0.07-0.214c-0.049-0.126-0.114-0.293-0.18-0.461     c-0.122-0.339-0.278-0.664-0.278-0.664s-0.075-0.169-0.15-0.337c-0.035-0.085-0.079-0.167-0.111-0.229     c-0.032-0.062-0.053-0.103-0.053-0.103l-0.16-0.313c0,0-0.042-0.083-0.083-0.165c-0.042-0.083-0.091-0.161-0.091-0.161     l-0.177-0.305l-0.182-0.318l-0.393-0.607c0,0-0.025-0.039-0.062-0.098c-0.041-0.056-0.095-0.131-0.149-0.206     c-0.108-0.15-0.216-0.3-0.216-0.3s-0.051-0.072-0.102-0.143c-0.049-0.073-0.107-0.139-0.107-0.139l-0.231-0.288l-0.218-0.275     c0,0-0.181-0.203-0.362-0.406c-0.175-0.209-0.37-0.398-0.37-0.398s-0.075-0.077-0.216-0.22c-0.135-0.15-0.356-0.345-0.631-0.601     c-0.559-0.5-1.39-1.184-2.493-1.851c-1.096-0.676-2.476-1.309-4.026-1.762c-1.552-0.44-3.276-0.691-4.995-0.639     c-0.859,0.018-1.716,0.101-2.546,0.259c-0.829,0.155-1.639,0.352-2.397,0.624c-1.525,0.513-2.861,1.246-3.939,1.962     c-1.077,0.72-1.874,1.446-2.402,1.978c-0.276,0.255-0.461,0.486-0.602,0.629c-0.069,0.073-0.121,0.13-0.157,0.168     c-0.034,0.04-0.051,0.06-0.051,0.06s-0.23,0.276-0.461,0.551c-0.217,0.286-0.434,0.573-0.434,0.573s-0.027,0.036-0.068,0.089     c-0.038,0.056-0.088,0.13-0.138,0.205c-0.101,0.148-0.203,0.297-0.203,0.297s-0.052,0.076-0.104,0.152     c-0.048,0.079-0.096,0.157-0.096,0.157l-0.192,0.315c0,0-0.046,0.075-0.092,0.149c-0.048,0.073-0.088,0.151-0.088,0.151     s-0.13,0.239-0.261,0.478c-0.069,0.118-0.128,0.24-0.171,0.333c-0.044,0.092-0.074,0.153-0.074,0.153s-0.079,0.162-0.158,0.323     c-0.077,0.163-0.144,0.33-0.144,0.33l-0.146,0.339c0,0-0.037,0.08-0.068,0.162c-0.03,0.083-0.06,0.165-0.06,0.165l-0.129,0.346     c0,0-0.024,0.064-0.06,0.159c-0.035,0.096-0.073,0.227-0.115,0.357c-0.042,0.13-0.083,0.26-0.115,0.357     c-0.034,0.097-0.048,0.163-0.048,0.163s-0.027,0.104-0.079,0.299c-0.026,0.097-0.059,0.217-0.097,0.359     c-0.031,0.143-0.067,0.307-0.107,0.491c-0.157,0.735-0.333,1.802-0.36,3.092c-0.026,0.645,0.016,1.342,0.08,2.076     c0.081,0.733,0.212,1.5,0.399,2.281c0.203,0.778,0.458,1.569,0.778,2.351c0.333,0.777,0.724,1.545,1.167,2.287     c0.458,0.733,0.962,1.432,1.502,2.082c0.549,0.642,1.137,1.23,1.736,1.766c0.609,0.524,1.232,0.99,1.847,1.397     c0.624,0.392,1.226,0.748,1.811,1.019c1.16,0.565,2.189,0.895,2.915,1.091c0.182,0.047,0.344,0.095,0.486,0.129     c0.143,0.031,0.265,0.057,0.363,0.078c0.197,0.043,0.302,0.066,0.302,0.066s0.089,0.021,0.224,0.041     c0.135,0.023,0.315,0.053,0.495,0.083c0.179,0.036,0.362,0.046,0.498,0.065c0.136,0.016,0.227,0.027,0.227,0.027     s0.045,0.005,0.112,0.014c0.067,0.01,0.157,0.017,0.247,0.022c0.18,0.012,0.36,0.025,0.36,0.025s0.092,0.007,0.184,0.014     c0.092,0.009,0.184,0.009,0.184,0.009l0.351,0.007l0.369,0.009c0,0,0.272-0.008,0.544-0.016c0.273,0,0.543-0.029,0.543-0.029     s0.179-0.013,0.359-0.026c0.09-0.006,0.18-0.012,0.246-0.023c0.067-0.009,0.111-0.014,0.111-0.014l0.348-0.043     c0,0,0.091-0.011,0.183-0.022c0.092-0.009,0.182-0.029,0.182-0.029l0.363-0.064c0,0,0.066-0.011,0.165-0.028     c0.099-0.014,0.23-0.042,0.36-0.074c0.261-0.058,0.521-0.117,0.521-0.117s0.026-0.006,0.077-0.018     c0.05-0.014,0.124-0.035,0.221-0.063c0.192-0.06,0.482-0.12,0.835-0.248c0.714-0.227,1.724-0.605,2.856-1.234     c1.13-0.632,2.392-1.485,3.544-2.608c0.588-0.55,1.133-1.18,1.649-1.847c0.519-0.666,0.985-1.391,1.393-2.147     c0.831-1.506,1.394-3.154,1.712-4.736C658.313,1348.134,658.38,1346.617,658.278,1345.334z M655.184,1349.165     c-0.263,1.307-0.728,2.67-1.415,3.914c-0.337,0.625-0.722,1.224-1.151,1.774c-0.427,0.551-0.878,1.072-1.363,1.527     c-0.953,0.928-1.996,1.633-2.93,2.156c-0.936,0.52-1.771,0.832-2.361,1.02c-0.292,0.106-0.531,0.156-0.69,0.205     c-0.08,0.023-0.141,0.04-0.182,0.052c-0.042,0.01-0.063,0.015-0.063,0.015s-0.215,0.048-0.431,0.097     c-0.107,0.026-0.215,0.05-0.297,0.061c-0.082,0.014-0.136,0.023-0.136,0.023l-0.3,0.053c0,0-0.074,0.017-0.15,0.024     c-0.076,0.009-0.151,0.018-0.151,0.018l-0.288,0.036c0,0-0.037,0.005-0.092,0.012c-0.055,0.009-0.129,0.014-0.203,0.019     c-0.148,0.011-0.296,0.022-0.296,0.022s-0.224,0.024-0.449,0.024c-0.225,0.006-0.45,0.013-0.45,0.013l-0.305-0.008l-0.29-0.006     c0,0-0.076,0-0.152-0.008c-0.076-0.006-0.152-0.011-0.152-0.011s-0.149-0.01-0.297-0.02c-0.074-0.004-0.149-0.01-0.204-0.018     c-0.055-0.007-0.092-0.011-0.092-0.011s-0.075-0.009-0.187-0.022c-0.112-0.016-0.263-0.024-0.411-0.054     c-0.149-0.025-0.298-0.05-0.409-0.068c-0.112-0.016-0.185-0.034-0.185-0.034s-0.087-0.019-0.25-0.055     c-0.081-0.017-0.182-0.039-0.3-0.064c-0.117-0.028-0.251-0.067-0.401-0.106c-0.6-0.162-1.451-0.435-2.409-0.902     c-0.484-0.224-0.981-0.518-1.497-0.842c-0.508-0.336-1.023-0.721-1.526-1.155c-0.495-0.443-0.981-0.928-1.435-1.459     c-0.446-0.538-0.863-1.115-1.242-1.721c-0.366-0.614-0.69-1.248-0.964-1.89c-0.264-0.647-0.475-1.301-0.643-1.943     c-0.155-0.646-0.264-1.279-0.33-1.885c-0.053-0.607-0.087-1.183-0.066-1.716c0.022-1.066,0.168-1.948,0.297-2.555     c0.033-0.152,0.063-0.288,0.088-0.406c0.032-0.117,0.058-0.216,0.08-0.296c0.043-0.161,0.065-0.247,0.065-0.247     s0.012-0.055,0.04-0.135c0.026-0.08,0.06-0.188,0.095-0.295c0.035-0.107,0.066-0.216,0.095-0.295     c0.03-0.079,0.05-0.132,0.05-0.132l0.107-0.286c0,0,0.025-0.068,0.05-0.136c0.025-0.068,0.056-0.134,0.056-0.134l0.121-0.281     c0,0,0.055-0.138,0.119-0.273c0.065-0.134,0.131-0.267,0.131-0.267s0.024-0.051,0.061-0.127c0.036-0.077,0.085-0.178,0.141-0.275     c0.108-0.197,0.216-0.395,0.216-0.395s0.033-0.065,0.073-0.125c0.038-0.062,0.076-0.123,0.076-0.123l0.159-0.26     c0,0,0.04-0.065,0.08-0.13c0.043-0.063,0.086-0.125,0.086-0.125s0.084-0.123,0.167-0.245c0.042-0.062,0.083-0.123,0.114-0.169     c0.034-0.044,0.056-0.074,0.056-0.074s0.179-0.237,0.359-0.474c0.19-0.228,0.381-0.455,0.381-0.455s0.014-0.017,0.042-0.05     c0.029-0.031,0.073-0.078,0.129-0.139c0.117-0.118,0.27-0.309,0.497-0.52c0.437-0.44,1.096-1.039,1.985-1.635     c0.891-0.592,1.995-1.198,3.255-1.622c0.626-0.225,1.295-0.387,1.981-0.516c0.686-0.131,1.394-0.199,2.104-0.214     c1.421-0.043,2.846,0.165,4.129,0.528c1.281,0.374,2.422,0.897,3.328,1.456c0.912,0.551,1.599,1.117,2.061,1.53     c0.227,0.211,0.409,0.373,0.521,0.496c0.116,0.119,0.178,0.182,0.178,0.182s0.161,0.157,0.306,0.329     c0.149,0.168,0.299,0.336,0.299,0.336l0.18,0.227l0.191,0.238c0,0,0.048,0.054,0.089,0.115c0.042,0.059,0.084,0.118,0.084,0.118     s0.089,0.124,0.179,0.248c0.045,0.062,0.089,0.124,0.123,0.171c0.031,0.048,0.052,0.081,0.052,0.081l0.325,0.502l0.15,0.263     l0.146,0.252c0,0,0.041,0.065,0.075,0.133c0.034,0.068,0.069,0.137,0.069,0.137l0.132,0.259c0,0,0.017,0.034,0.044,0.085     c0.026,0.051,0.063,0.118,0.092,0.189c0.062,0.139,0.124,0.279,0.124,0.279s0.129,0.268,0.23,0.548     c0.054,0.138,0.108,0.277,0.148,0.381c0.035,0.106,0.058,0.177,0.058,0.177s0.028,0.084,0.081,0.242     c0.059,0.156,0.12,0.392,0.204,0.69c0.157,0.599,0.346,1.469,0.42,2.532C655.492,1346.6,655.437,1347.854,655.184,1349.165z"
/>
<path
   style="fill:#A81C1C;"
   d="M633.378,1355.313c0,0-0.03,0.126-0.06,0.252c-0.029,0.128-0.057,0.256-0.057,0.256l0.063-0.251     L633.378,1355.313z"
/>
<path
   style="fill:#A81C1C;"
   d="M645.35,1358.342l0.198,0.171c0,0-0.096-0.087-0.192-0.173c-0.095-0.091-0.19-0.183-0.19-0.183     L645.35,1358.342z"
/>
<path
   style="fill:#E0486C;"
   d="M656.074,1338.192l0.177,0.305c0,0,0.049,0.079,0.091,0.161c0.042,0.083,0.083,0.165,0.083,0.165     l0.16,0.313c0,0,0.344-0.064,0.688-0.128c0.348-0.062,0.688-0.112,0.688-0.112c0.453-0.071,0.894-0.086,1.321-0.043     c0.213,0.021,0.424,0.057,0.628,0.108c0.2,0.053,0.395,0.12,0.586,0.202c0,0,0.108,0.047,0.297,0.13     c0.189,0.084,0.466,0.205,0.779,0.369c0.315,0.163,0.696,0.359,1.092,0.59c0.388,0.233,0.813,0.494,1.229,0.776     c0.405,0.284,0.819,0.584,1.2,0.88c0.37,0.299,0.718,0.593,1.016,0.853c0.295,0.261,0.527,0.489,0.696,0.651     c0.167,0.163,0.263,0.257,0.263,0.257s0.128,0.126,0.319,0.316c0.184,0.193,0.429,0.455,0.674,0.726     c0.247,0.27,0.488,0.549,0.659,0.763c0.174,0.216,0.29,0.36,0.29,0.36s0.469,0.587,0.889,1.217     c0.213,0.314,0.432,0.636,0.583,0.881c0.15,0.247,0.25,0.412,0.25,0.412s0.075,0.125,0.206,0.343     c0.128,0.219,0.324,0.537,0.526,0.927c0.205,0.389,0.45,0.854,0.692,1.365c0.233,0.509,0.484,1.069,0.713,1.641     c0.219,0.57,0.439,1.158,0.623,1.719c0.178,0.559,0.336,1.094,0.467,1.56c0.242,0.926,0.379,1.571,0.379,1.571     s0.054,0.214,0.115,0.534c0.062,0.32,0.142,0.752,0.217,1.19c0.079,0.439,0.137,0.88,0.177,1.214     c0.039,0.336,0.066,0.559,0.066,0.559c0.061,0.616,0.029,1.196-0.075,1.745c-0.051,0.275-0.121,0.541-0.208,0.799     c-0.093,0.255-0.205,0.5-0.334,0.736c-0.258,0.473-0.581,0.907-0.99,1.284c-0.408,0.377-0.863,0.719-1.408,0.989     c0,0-0.408,0.208-1.014,0.498c-0.604,0.292-1.435,0.637-2.242,0.955c-0.832,0.302-1.631,0.586-2.254,0.757     c-0.616,0.178-1.02,0.283-1.02,0.283s-0.2,0.056-0.507,0.125c-0.307,0.068-0.715,0.155-1.117,0.234     c-0.2,0.038-0.401,0.076-0.589,0.111c-0.19,0.029-0.367,0.056-0.518,0.079c-0.301,0.042-0.501,0.07-0.501,0.07     s-0.796,0.127-1.593,0.184c-0.396,0.033-0.785,0.061-1.077,0.076c-0.294,0.008-0.489,0.013-0.489,0.013s-0.145,0.002-0.398,0.005     c-0.253,0-0.608,0.007-1.035-0.01c-0.429-0.019-0.922-0.048-1.438-0.089c-0.52-0.047-1.072-0.121-1.606-0.198     c-1.08-0.17-2.111-0.406-2.865-0.628c-0.375-0.105-0.681-0.198-0.897-0.274c-0.213-0.073-0.335-0.115-0.335-0.115     s-0.16-0.058-0.399-0.145c-0.237-0.086-0.549-0.208-0.859-0.345c-0.308-0.134-0.608-0.27-0.83-0.374     c-0.11-0.051-0.203-0.097-0.267-0.131c-0.064-0.033-0.101-0.052-0.101-0.052s-0.591-0.292-1.143-0.605     c-0.56-0.328-1.077-0.665-1.077-0.665c-0.694-0.48-1.222-1.137-1.6-1.992c0,0-0.135-0.321-0.27-0.642     c-0.128-0.322-0.256-0.643-0.256-0.643s-0.045,0.006-0.111,0.014c-0.067,0.011-0.156,0.017-0.246,0.023     c-0.179,0.013-0.359,0.026-0.359,0.026s-0.271,0.029-0.543,0.029c-0.272,0.008-0.544,0.016-0.544,0.016l-0.369-0.009     l-0.351-0.007c0,0-0.092,0-0.184-0.009c-0.092-0.007-0.184-0.013-0.184-0.013s-0.117,0.328-0.234,0.655     c-0.125,0.327-0.249,0.655-0.249,0.655c-0.167,0.436-0.371,0.821-0.617,1.166c-0.245,0.341-0.535,0.657-0.866,0.9     c0,0-0.502,0.369-1.044,0.719c-0.535,0.337-1.112,0.665-1.112,0.665s-0.563,0.314-1.168,0.616     c-0.597,0.291-1.23,0.554-1.23,0.554s-0.16,0.07-0.4,0.157c-0.24,0.088-0.565,0.204-0.898,0.316     c-0.334,0.116-0.67,0.213-0.925,0.284c-0.257,0.071-0.429,0.118-0.429,0.118s-0.173,0.047-0.433,0.119     c-0.261,0.07-0.608,0.145-0.965,0.223c-0.714,0.162-1.446,0.263-1.446,0.263s-0.184,0.025-0.46,0.063     c-0.28,0.04-0.651,0.081-1.025,0.108c-0.375,0.031-0.757,0.056-1.046,0.072c-0.287,0.013-0.478,0.014-0.478,0.014     s-0.195,0.002-0.487,0.004c-0.292-0.002-0.693,0.004-1.086-0.016c-0.394-0.018-0.794-0.043-1.097-0.065     c-0.303-0.021-0.506-0.041-0.506-0.041s-0.796-0.074-1.619-0.184c-0.81-0.118-1.638-0.282-1.638-0.282s-0.21-0.039-0.518-0.113     c-0.308-0.074-0.721-0.177-1.138-0.288c-0.42-0.108-0.835-0.233-1.143-0.333c-0.312-0.101-0.52-0.168-0.52-0.168     s-0.839-0.256-1.661-0.58c-0.414-0.158-0.833-0.324-1.144-0.454c-0.307-0.136-0.512-0.226-0.512-0.226     c-0.541-0.251-1.041-0.551-1.455-0.912c-0.414-0.36-0.766-0.769-1.049-1.218c-0.281-0.473-0.488-0.982-0.623-1.519     c-0.135-0.536-0.173-1.119-0.149-1.715c0,0,0.013-0.224,0.033-0.559c0.026-0.337,0.071-0.785,0.119-1.225     c0.087-0.879,0.242-1.742,0.242-1.742s0.035-0.216,0.088-0.539c0.052-0.321,0.13-0.746,0.225-1.17     c0.091-0.422,0.188-0.837,0.263-1.144c0.075-0.307,0.136-0.512,0.136-0.512s0.232-0.811,0.497-1.586     c0.278-0.782,0.576-1.525,0.576-1.525s0.075-0.187,0.195-0.463c0.12-0.276,0.281-0.64,0.445-0.995     c0.16-0.355,0.35-0.705,0.482-0.963c0.136-0.256,0.227-0.427,0.227-0.427s0.092-0.17,0.229-0.424     c0.146-0.253,0.342-0.585,0.541-0.909c0.195-0.324,0.4-0.64,0.563-0.873c0.16-0.231,0.266-0.385,0.266-0.385     s0.424-0.605,0.895-1.167c0.232-0.282,0.458-0.556,0.639-0.757c0.182-0.199,0.303-0.331,0.303-0.331s0.12-0.131,0.301-0.328     c0.18-0.195,0.419-0.449,0.675-0.693c0.252-0.245,0.503-0.481,0.691-0.655c0.187-0.174,0.323-0.284,0.323-0.284     s0.524-0.443,1.055-0.841c0.545-0.4,1.082-0.757,1.082-0.757s0.554-0.358,1.097-0.675c0.273-0.159,0.56-0.306,0.766-0.414     c0.208-0.106,0.347-0.176,0.347-0.176c0.368-0.194,0.785-0.313,1.201-0.378c0.421-0.064,0.855-0.07,1.32-0.019     c0,0,0.348,0.039,0.696,0.078c0.345,0.045,0.69,0.091,0.69,0.091s0.067-0.167,0.144-0.33c0.079-0.162,0.158-0.323,0.158-0.323     s0.03-0.061,0.074-0.153c0.043-0.093,0.102-0.215,0.171-0.333c0.13-0.239,0.261-0.478,0.261-0.478s0.04-0.078,0.088-0.151     c0.046-0.075,0.092-0.149,0.092-0.149l0.192-0.315c0,0,0.048-0.078,0.096-0.157c0.052-0.076,0.104-0.152,0.104-0.152     s-0.228-0.26-0.455-0.521c-0.224-0.267-0.448-0.533-0.448-0.533c-0.589-0.727-0.931-1.497-1.042-2.333     c0,0-0.04-0.342-0.087-0.969c-0.027-0.318-0.039-0.695-0.043-1.139c0-0.225,0.001-0.465,0.001-0.718     c0.009-0.25,0.023-0.515,0.04-0.795c0.063-1.129,0.257-2.449,0.607-3.912c0.365-1.44,0.896-3.009,1.62-4.552     c0.727-1.533,1.625-3.084,2.643-4.457c0.25-0.353,0.509-0.687,0.772-1.011c0.263-0.325,0.526-0.648,0.791-0.956     c0.537-0.596,1.067-1.183,1.587-1.683c1.035-1.024,1.997-1.815,2.689-2.368c0.695-0.534,1.115-0.835,1.115-0.835     c0.485-0.361,0.997-0.61,1.52-0.801c0.523-0.192,1.059-0.282,1.597-0.295c0.269-0.007,0.538,0.006,0.807,0.039     c0.268,0.04,0.536,0.1,0.801,0.18c0.531,0.158,1.052,0.393,1.553,0.727c0,0,0.433,0.276,1.151,0.779     c0.357,0.26,0.784,0.577,1.258,0.944c0.473,0.369,0.989,0.812,1.53,1.285c1.077,0.975,2.242,2.144,3.313,3.486     c0.541,0.655,1.051,1.376,1.538,2.086c0.477,0.737,0.93,1.467,1.327,2.23c0.407,0.744,0.755,1.522,1.07,2.261     c0.303,0.762,0.573,1.488,0.783,2.212c0.222,0.707,0.381,1.411,0.518,2.053c0.129,0.652,0.22,1.264,0.286,1.818     c0.056,0.566,0.098,1.064,0.114,1.51c0.013,0.449,0.014,0.831,0.011,1.141c-0.003,0.31-0.022,0.561-0.03,0.725     c-0.011,0.165-0.016,0.253-0.016,0.253c-0.014,0.207-0.044,0.412-0.088,0.613c-0.047,0.204-0.113,0.408-0.191,0.607     c-0.157,0.399-0.372,0.784-0.641,1.156c0,0-0.203,0.276-0.419,0.553c-0.216,0.273-0.433,0.546-0.433,0.546s0.108,0.15,0.216,0.3     c0.054,0.075,0.108,0.15,0.149,0.206c0.037,0.059,0.062,0.098,0.062,0.098l0.393,0.608l3.8-2.32     c-0.166-0.256-0.268-0.552-0.313-0.895c-0.045-0.344-0.057-0.72-0.009-1.162c0,0,0.02-0.164,0.05-0.411     c0.023-0.244,0.047-0.571,0.067-0.905c0.049-0.673,0.035-1.35,0.035-1.35s-0.002-0.128-0.006-0.353     c-0.006-0.226-0.012-0.554-0.045-0.939c-0.031-0.387-0.068-0.852-0.132-1.347c-0.07-0.49-0.151-1.027-0.256-1.564     c-0.112-0.529-0.235-1.072-0.368-1.58c-0.14-0.5-0.284-0.975-0.415-1.385c-0.133-0.407-0.26-0.739-0.348-0.978     c-0.09-0.238-0.142-0.373-0.142-0.373s-0.073-0.182-0.183-0.455c-0.116-0.267-0.275-0.625-0.442-0.987     c-0.165-0.364-0.343-0.723-0.484-0.987c-0.142-0.267-0.236-0.445-0.236-0.445s-0.368-0.722-0.796-1.419     c-0.212-0.35-0.429-0.71-0.601-0.968c-0.174-0.259-0.29-0.431-0.29-0.431s-0.09-0.129-0.247-0.355     c-0.16-0.224-0.387-0.557-0.682-0.93c-0.293-0.376-0.643-0.824-1.039-1.29c-0.398-0.457-0.837-0.954-1.297-1.435     c-0.463-0.471-0.942-0.95-1.409-1.383c-0.469-0.426-0.922-0.822-1.319-1.159c-0.799-0.654-1.367-1.079-1.367-1.079     s-0.047-0.036-0.13-0.098c-0.083-0.063-0.202-0.151-0.347-0.252c-0.289-0.204-0.68-0.475-1.08-0.743     c-0.399-0.273-0.809-0.525-1.121-0.714c-0.314-0.189-0.523-0.314-0.523-0.314c-0.55-0.348-1.123-0.591-1.705-0.753     c-0.291-0.082-0.584-0.143-0.878-0.183c-0.294-0.033-0.59-0.046-0.885-0.038c-0.59,0.014-1.178,0.107-1.752,0.305     c-0.574,0.196-1.136,0.456-1.672,0.834c0,0-0.203,0.136-0.509,0.341c-0.303,0.208-0.703,0.473-1.09,0.766     c-0.388,0.289-0.768,0.58-1.048,0.8c-0.281,0.219-0.463,0.369-0.463,0.369s-0.549,0.457-1.32,1.151     c-0.768,0.709-1.741,1.67-2.614,2.682c-0.443,0.493-0.853,1.021-1.228,1.502c-0.377,0.477-0.702,0.945-0.974,1.341     c-0.547,0.786-0.863,1.33-0.863,1.33s-0.106,0.18-0.265,0.45c-0.155,0.273-0.366,0.62-0.551,0.99     c-0.38,0.732-0.719,1.451-0.719,1.451s-0.34,0.74-0.64,1.466c-0.154,0.359-0.284,0.74-0.385,1.012     c-0.097,0.275-0.162,0.458-0.162,0.458s-0.046,0.136-0.126,0.375c-0.078,0.238-0.178,0.59-0.293,1     c-0.114,0.411-0.24,0.884-0.345,1.402c-0.107,0.516-0.219,1.047-0.291,1.595c-0.166,1.078-0.232,2.144-0.252,2.922     c-0.009,0.789,0.008,1.291,0.008,1.291s0.008,0.172,0.026,0.427c0.018,0.255,0.044,0.592,0.077,0.922     c0.029,0.328,0.085,0.664,0.119,0.906c0.038,0.242,0.064,0.404,0.064,0.404c0.054,0.429,0.09,0.824,0.051,1.163     c-0.041,0.338-0.118,0.644-0.264,0.911c-0.073,0.134-0.163,0.258-0.269,0.376c-0.1,0.12-0.216,0.233-0.35,0.338     c-0.268,0.211-0.606,0.395-0.995,0.573c0,0-0.298,0.129-0.752,0.342c-0.441,0.218-1.042,0.527-1.628,0.877     c-0.581,0.35-1.173,0.732-1.594,1.042c-0.428,0.307-0.716,0.527-0.716,0.527s-0.555,0.432-1.115,0.908     c-0.546,0.474-1.081,0.993-1.081,0.993s-0.139,0.13-0.329,0.332c-0.192,0.202-0.448,0.478-0.704,0.761     c-0.26,0.283-0.503,0.576-0.684,0.8c-0.182,0.226-0.304,0.377-0.304,0.377s-0.375,0.446-0.884,1.167     c-0.259,0.361-0.562,0.791-0.857,1.269c-0.3,0.477-0.625,1.002-0.913,1.542c-0.602,1.079-1.126,2.232-1.492,3.127     c-0.178,0.446-0.323,0.827-0.423,1.095c-0.101,0.269-0.154,0.424-0.154,0.424s-0.283,0.819-0.542,1.677     c-0.246,0.85-0.456,1.736-0.456,1.736s-0.056,0.224-0.122,0.56c-0.066,0.336-0.151,0.788-0.229,1.247     c-0.083,0.461-0.148,0.923-0.189,1.272c-0.042,0.351-0.07,0.585-0.07,0.585s-0.121,0.934-0.172,1.881     c-0.03,0.474-0.056,0.957-0.067,1.318c-0.005,0.36-0.009,0.6-0.009,0.6c-0.011,0.646,0.046,1.277,0.203,1.86     c0.157,0.583,0.39,1.137,0.698,1.655c0.309,0.491,0.689,0.943,1.133,1.344c0.444,0.401,0.979,0.74,1.559,1.026     c0,0,0.215,0.107,0.538,0.266c0.328,0.155,0.768,0.352,1.204,0.542c0.866,0.388,1.752,0.706,1.752,0.706s0.221,0.082,0.552,0.205     c0.328,0.123,0.77,0.276,1.217,0.413c0.444,0.14,0.885,0.271,1.214,0.365c0.329,0.094,0.554,0.147,0.554,0.147     s0.884,0.219,1.753,0.387c0.882,0.161,1.739,0.284,1.739,0.284s0.218,0.031,0.544,0.071c0.326,0.04,0.758,0.089,1.184,0.13     c0.425,0.044,0.858,0.06,1.175,0.079c0.317,0.014,0.528,0.023,0.528,0.023s0.208,0.008,0.521,0.009     c0.315-0.002,0.731-0.009,1.141-0.022c0.409-0.01,0.815-0.034,1.121-0.061c0.302-0.026,0.504-0.043,0.504-0.043     s0.797-0.059,1.578-0.183c0.39-0.058,0.771-0.115,1.057-0.171c0.285-0.057,0.476-0.096,0.476-0.096s0.19-0.039,0.474-0.098     c0.282-0.059,0.654-0.141,1.024-0.244c0.369-0.098,0.731-0.2,0.999-0.279c0.268-0.078,0.446-0.141,0.446-0.141     s0.706-0.239,1.377-0.509c0.678-0.281,1.316-0.577,1.316-0.577s0.653-0.31,1.265-0.632c0.618-0.335,1.197-0.693,1.197-0.693     s0.036-0.022,0.099-0.062c0.062-0.038,0.151-0.096,0.258-0.169c0.212-0.144,0.49-0.337,0.76-0.531     c0.27-0.19,0.532-0.398,0.725-0.553c0.191-0.155,0.318-0.259,0.318-0.259c0.336-0.265,0.655-0.482,0.966-0.624     c0.155-0.071,0.309-0.123,0.461-0.157c0.152-0.04,0.304-0.064,0.455-0.068c0.314-0.008,0.626,0.062,0.946,0.18     c0.32,0.121,0.65,0.331,0.998,0.577c0,0,0.132,0.097,0.33,0.241c0.2,0.141,0.474,0.344,0.752,0.52     c0.279,0.179,0.566,0.357,0.785,0.489c0.219,0.133,0.368,0.218,0.368,0.218s0.595,0.321,1.231,0.63     c0.628,0.294,1.295,0.563,1.295,0.563s0.041,0.018,0.114,0.048c0.073,0.031,0.177,0.074,0.301,0.12     c0.249,0.095,0.586,0.22,0.932,0.341c0.346,0.125,0.696,0.234,0.959,0.309c0.267,0.077,0.445,0.128,0.445,0.128     s0.716,0.206,1.453,0.352c0.369,0.077,0.746,0.152,1.029,0.201c0.283,0.043,0.471,0.072,0.471,0.072s0.193,0.026,0.482,0.065     c0.289,0.035,0.687,0.092,1.076,0.119c0.782,0.065,1.596,0.1,1.596,0.1s0.795,0.027,1.62,0.023     c0.414,0.003,0.82-0.025,1.133-0.039c0.313-0.018,0.521-0.03,0.521-0.03s0.211-0.017,0.528-0.043     c0.315-0.032,0.735-0.085,1.162-0.142c0.857-0.106,1.713-0.285,1.713-0.285s0.215-0.041,0.538-0.103     c0.162-0.033,0.352-0.071,0.555-0.112c0.201-0.048,0.416-0.099,0.63-0.151c0.431-0.106,0.866-0.22,1.194-0.309     c0.328-0.089,0.541-0.16,0.541-0.16s0.862-0.265,1.731-0.58c0.857-0.321,1.728-0.687,1.728-0.687s0.216-0.094,0.539-0.244     c0.323-0.149,0.756-0.354,1.19-0.567c0.437-0.212,0.855-0.446,1.179-0.62c0.321-0.178,0.536-0.297,0.536-0.297     c0.583-0.307,1.07-0.689,1.507-1.109c0.439-0.42,0.788-0.899,1.07-1.417c0.141-0.259,0.265-0.527,0.37-0.805     c0.099-0.281,0.179-0.571,0.24-0.869c0.125-0.597,0.174-1.227,0.123-1.896c0,0-0.011-0.151-0.031-0.435     c-0.025-0.284-0.047-0.694-0.112-1.217c-0.063-0.523-0.14-1.149-0.253-1.855c-0.128-0.711-0.264-1.494-0.468-2.334     c-0.388-1.677-0.985-3.562-1.777-5.425c-0.792-1.866-1.816-3.713-2.969-5.365c-1.155-1.656-2.433-3.119-3.729-4.311     c-1.295-1.194-2.551-2.13-3.678-2.815c-1.113-0.691-2.065-1.148-2.734-1.439c-0.658-0.295-1.049-0.427-1.049-0.427     c-0.409-0.148-0.733-0.325-1.018-0.518c-0.283-0.194-0.499-0.419-0.651-0.682l-3.8,2.32L656.074,1338.192z"
/>
<path
   style="fill:#E0486C;"
   d="M628.333,1336.743c0,0-0.027,0.036-0.068,0.089c-0.038,0.056-0.088,0.13-0.138,0.205     c-0.101,0.148-0.203,0.297-0.203,0.297s-0.228-0.26-0.455-0.521c-0.224-0.267-0.448-0.533-0.448-0.533     c-0.589-0.727-0.931-1.497-1.042-2.333c0,0-0.04-0.342-0.087-0.969c-0.027-0.318-0.039-0.695-0.043-1.139     c0-0.225,0.001-0.465,0.001-0.718c0.009-0.25,0.023-0.515,0.04-0.795c0.063-1.129,0.257-2.449,0.607-3.912     c0.365-1.44,0.896-3.009,1.62-4.552c0.727-1.533,1.625-3.084,2.643-4.457c0.25-0.353,0.509-0.687,0.772-1.011     c0.263-0.325,0.526-0.648,0.791-0.956c0.537-0.596,1.067-1.183,1.587-1.683c1.035-1.024,1.997-1.815,2.689-2.368     c0.695-0.534,1.115-0.835,1.115-0.835c0.485-0.361,0.997-0.61,1.52-0.801c0.523-0.192,1.059-0.282,1.597-0.295     c0.269-0.007,0.538,0.006,0.807,0.039c0.268,0.04,0.536,0.1,0.801,0.18c0.531,0.158,1.052,0.393,1.552,0.727     c0,0,0.433,0.276,1.151,0.779c0.357,0.26,0.784,0.577,1.258,0.944c0.473,0.369,0.989,0.812,1.53,1.285     c1.077,0.975,2.242,2.144,3.313,3.486c0.541,0.655,1.051,1.376,1.538,2.086c0.477,0.737,0.93,1.467,1.327,2.23     c0.407,0.744,0.755,1.522,1.07,2.261c0.303,0.762,0.573,1.488,0.783,2.212c0.222,0.707,0.381,1.411,0.518,2.053     c0.129,0.652,0.22,1.264,0.286,1.818c0.056,0.566,0.098,1.064,0.114,1.51c0.013,0.449,0.014,0.831,0.011,1.141     c-0.003,0.31-0.022,0.561-0.03,0.725c-0.011,0.165-0.016,0.253-0.016,0.253c-0.014,0.207-0.044,0.412-0.088,0.613     c-0.047,0.204-0.113,0.408-0.191,0.607c-0.157,0.399-0.372,0.784-0.641,1.156c0,0-0.203,0.276-0.419,0.553     c-0.216,0.273-0.433,0.546-0.433,0.546s-0.051-0.072-0.102-0.143c-0.049-0.073-0.107-0.139-0.107-0.139l-0.231-0.288     l-0.218-0.275c0,0-0.181-0.203-0.362-0.406c-0.175-0.209-0.37-0.398-0.37-0.398s-0.075-0.077-0.216-0.22     c-0.135-0.149-0.356-0.345-0.631-0.601c-0.559-0.5-1.39-1.184-2.493-1.851c-1.096-0.676-2.476-1.31-4.026-1.762     c-1.552-0.44-3.276-0.691-4.995-0.639c-0.859,0.018-1.716,0.101-2.546,0.259c-0.829,0.155-1.639,0.352-2.397,0.624     c-1.525,0.513-2.861,1.246-3.939,1.962c-1.077,0.72-1.874,1.446-2.402,1.978c-0.276,0.255-0.461,0.486-0.602,0.629     c-0.069,0.073-0.121,0.13-0.157,0.168c-0.034,0.04-0.051,0.06-0.051,0.06s-0.23,0.276-0.461,0.551     C628.55,1336.457,628.333,1336.743,628.333,1336.743z M632.845,1326.482c0.12,0.268,0.334,0.453,0.632,0.559     c0.298,0.106,0.689,0.159,1.156,0.132c0.946-0.02,1.967-0.183,3.109-0.413c0,0,0.108-0.022,0.298-0.054     c0.19-0.031,0.46-0.084,0.786-0.134c0.654-0.085,1.53-0.19,2.411-0.199c0.44-0.022,0.88,0.001,1.293,0.007     c0.412,0.019,0.796,0.051,1.126,0.075c0.328,0.039,0.601,0.071,0.793,0.094c0.096,0.01,0.171,0.021,0.221,0.031     c0.051,0.008,0.078,0.013,0.078,0.013c1.153,0.167,2.183,0.279,3.128,0.257c0.235-0.002,0.449-0.02,0.641-0.055     c0.191-0.031,0.359-0.072,0.506-0.135c0.293-0.125,0.499-0.321,0.604-0.595c0.218-0.565,0.134-1.243-0.323-2.025     c0,0-0.352-0.583-0.749-1.163c-0.397-0.566-0.836-1.14-0.836-1.14s-0.432-0.555-0.908-1.115     c-0.474-0.546-0.993-1.081-0.993-1.081s-0.033-0.033-0.091-0.092c-0.058-0.059-0.141-0.143-0.242-0.237     c-0.202-0.192-0.478-0.448-0.762-0.704c-0.283-0.26-0.576-0.502-0.8-0.684c-0.226-0.182-0.377-0.304-0.377-0.304     c-0.398-0.33-0.817-0.56-1.244-0.716c-0.214-0.078-0.43-0.137-0.646-0.177c-0.217-0.033-0.434-0.046-0.652-0.041     c-0.435,0.011-0.867,0.095-1.287,0.28c-0.42,0.182-0.828,0.423-1.21,0.775c0,0-0.145,0.129-0.362,0.323     c-0.215,0.197-0.498,0.446-0.769,0.72c-0.272,0.271-0.535,0.542-0.728,0.745c-0.193,0.202-0.318,0.34-0.318,0.34     s-0.493,0.568-0.941,1.132c-0.449,0.58-0.852,1.163-0.852,1.163s-0.106,0.14-0.254,0.364c-0.148,0.224-0.341,0.521-0.526,0.816     c-0.186,0.291-0.36,0.593-0.484,0.823c-0.123,0.226-0.206,0.377-0.206,0.377C632.641,1325.235,632.599,1325.932,632.845,1326.482     z"
/>
<path
   style="fill:#E0486C;"
   d="M639.988,1363.006c0,0,0.045,0.005,0.112,0.014c0.067,0.01,0.157,0.017,0.247,0.022     c0.18,0.012,0.36,0.025,0.36,0.025s-0.117,0.328-0.234,0.655c-0.125,0.327-0.249,0.655-0.249,0.655     c-0.167,0.436-0.371,0.821-0.617,1.166c-0.245,0.341-0.535,0.657-0.866,0.9c0,0-0.502,0.369-1.044,0.719     c-0.535,0.337-1.112,0.665-1.112,0.665s-0.563,0.314-1.168,0.616c-0.597,0.291-1.23,0.554-1.23,0.554s-0.16,0.07-0.4,0.157     c-0.24,0.088-0.565,0.204-0.898,0.316c-0.334,0.116-0.67,0.213-0.925,0.284c-0.257,0.071-0.429,0.118-0.429,0.118     s-0.173,0.047-0.433,0.119c-0.261,0.07-0.608,0.145-0.965,0.223c-0.714,0.162-1.446,0.263-1.446,0.263s-0.184,0.025-0.46,0.063     c-0.28,0.04-0.651,0.081-1.025,0.108c-0.375,0.031-0.757,0.056-1.046,0.072c-0.287,0.013-0.478,0.014-0.478,0.014     s-0.195,0.002-0.487,0.004c-0.292-0.001-0.693,0.004-1.086-0.016c-0.394-0.018-0.794-0.043-1.097-0.065     c-0.303-0.021-0.506-0.041-0.506-0.041s-0.796-0.074-1.619-0.184c-0.811-0.118-1.638-0.282-1.638-0.282s-0.21-0.039-0.518-0.113     c-0.308-0.074-0.721-0.177-1.138-0.288c-0.42-0.108-0.835-0.233-1.143-0.333c-0.312-0.101-0.52-0.168-0.52-0.168     s-0.839-0.256-1.661-0.58c-0.414-0.158-0.833-0.324-1.144-0.454c-0.307-0.136-0.512-0.226-0.512-0.226     c-0.541-0.251-1.041-0.551-1.455-0.912c-0.414-0.36-0.766-0.769-1.049-1.218c-0.281-0.473-0.488-0.982-0.623-1.519     c-0.135-0.536-0.173-1.119-0.149-1.715c0,0,0.013-0.224,0.033-0.559c0.026-0.337,0.071-0.785,0.119-1.225     c0.087-0.879,0.242-1.742,0.242-1.742s0.035-0.216,0.088-0.539c0.052-0.321,0.13-0.746,0.225-1.17     c0.091-0.422,0.188-0.837,0.263-1.144c0.074-0.307,0.136-0.512,0.136-0.512s0.232-0.811,0.497-1.586     c0.278-0.782,0.576-1.525,0.576-1.525s0.075-0.187,0.195-0.463c0.12-0.276,0.281-0.64,0.445-0.995     c0.16-0.355,0.35-0.705,0.482-0.963c0.136-0.256,0.227-0.427,0.227-0.427s0.092-0.17,0.229-0.424     c0.146-0.253,0.342-0.585,0.541-0.909c0.195-0.324,0.4-0.64,0.563-0.873c0.16-0.231,0.266-0.385,0.266-0.385     s0.424-0.605,0.895-1.167c0.232-0.282,0.458-0.556,0.639-0.757c0.182-0.199,0.303-0.331,0.303-0.331s0.12-0.131,0.301-0.328     c0.18-0.195,0.419-0.449,0.675-0.693c0.252-0.245,0.503-0.481,0.691-0.655c0.187-0.174,0.323-0.284,0.323-0.284     s0.524-0.443,1.055-0.841c0.545-0.4,1.082-0.757,1.082-0.757s0.554-0.358,1.097-0.675c0.273-0.159,0.56-0.306,0.766-0.414     c0.208-0.106,0.347-0.176,0.347-0.176c0.368-0.194,0.785-0.313,1.201-0.378c0.421-0.064,0.855-0.07,1.32-0.019     c0,0,0.348,0.039,0.696,0.078c0.345,0.045,0.69,0.091,0.69,0.091l-0.146,0.339c0,0-0.037,0.08-0.068,0.162     c-0.03,0.083-0.06,0.165-0.06,0.165l-0.129,0.346c0,0-0.024,0.064-0.06,0.159c-0.035,0.096-0.073,0.227-0.115,0.357     c-0.042,0.13-0.083,0.26-0.115,0.357c-0.034,0.097-0.048,0.163-0.048,0.163s-0.027,0.104-0.079,0.299     c-0.026,0.097-0.059,0.217-0.097,0.359c-0.031,0.143-0.067,0.307-0.107,0.491c-0.157,0.735-0.333,1.802-0.36,3.092     c-0.026,0.644,0.016,1.342,0.08,2.076c0.081,0.733,0.212,1.5,0.399,2.281c0.203,0.778,0.458,1.569,0.778,2.351     c0.333,0.777,0.724,1.545,1.167,2.287c0.458,0.733,0.962,1.432,1.502,2.082c0.549,0.642,1.137,1.23,1.736,1.766     c0.609,0.524,1.232,0.99,1.847,1.397c0.624,0.392,1.226,0.748,1.811,1.019c1.16,0.565,2.189,0.895,2.915,1.091     c0.182,0.047,0.344,0.095,0.486,0.129c0.143,0.031,0.265,0.057,0.363,0.078c0.197,0.043,0.302,0.066,0.302,0.066     s0.089,0.021,0.224,0.041c0.135,0.023,0.315,0.053,0.495,0.083c0.179,0.036,0.362,0.046,0.498,0.065     C639.898,1362.995,639.988,1363.006,639.988,1363.006z M628.817,1364.231c0.173-0.237,0.232-0.514,0.183-0.826     c-0.049-0.312-0.209-0.654-0.453-1.059c-0.518-0.812-1.14-1.614-1.923-2.505c0,0-0.298-0.322-0.702-0.843     c-0.415-0.511-0.913-1.236-1.382-1.979c-0.447-0.757-0.864-1.531-1.129-2.133c-0.279-0.597-0.429-1.009-0.429-1.009     c-0.431-1.086-0.864-2.024-1.346-2.833c-0.252-0.413-0.485-0.717-0.74-0.906c-0.255-0.189-0.528-0.263-0.819-0.217     c-0.601,0.094-1.136,0.498-1.593,1.293c0,0-0.244,0.439-0.597,1.145c-0.338,0.701-0.765,1.681-1.11,2.715     c-0.186,0.521-0.329,1.044-0.469,1.552c-0.143,0.509-0.246,0.987-0.333,1.405c-0.085,0.417-0.158,0.776-0.196,1.023     c-0.038,0.249-0.059,0.391-0.059,0.391c-0.072,0.505-0.082,0.996,0.004,1.443c0.085,0.447,0.241,0.866,0.468,1.249     c0.23,0.362,0.526,0.686,0.883,0.962c0.356,0.277,0.797,0.492,1.279,0.659c0,0,0.136,0.046,0.375,0.126     c0.238,0.078,0.59,0.178,1,0.293c0.411,0.114,0.884,0.241,1.402,0.346c0.516,0.107,1.047,0.219,1.594,0.291     c1.078,0.166,2.144,0.233,2.922,0.252c0.789,0.009,1.291-0.008,1.291-0.008C627.855,1365.015,628.458,1364.724,628.817,1364.231z     "
/>
<path
   style="fill:#E0486C;"
   d="M656.899,1339.805c0,0-0.075-0.169-0.15-0.337c-0.035-0.085-0.079-0.167-0.111-0.229     c-0.032-0.062-0.053-0.103-0.053-0.103s0.344-0.064,0.688-0.128c0.348-0.062,0.688-0.112,0.688-0.112     c0.453-0.071,0.894-0.086,1.321-0.043c0.213,0.021,0.424,0.057,0.628,0.108c0.2,0.053,0.395,0.12,0.586,0.202     c0,0,0.108,0.047,0.297,0.129c0.189,0.084,0.466,0.205,0.779,0.369c0.315,0.163,0.696,0.359,1.092,0.59     c0.388,0.233,0.813,0.494,1.229,0.776c0.405,0.284,0.819,0.584,1.2,0.88c0.37,0.299,0.718,0.593,1.016,0.853     c0.295,0.261,0.527,0.489,0.696,0.651c0.167,0.163,0.263,0.257,0.263,0.257s0.128,0.126,0.319,0.316     c0.184,0.193,0.429,0.455,0.674,0.726c0.247,0.27,0.488,0.549,0.659,0.763c0.174,0.216,0.29,0.36,0.29,0.36     s0.469,0.587,0.889,1.217c0.213,0.314,0.432,0.636,0.583,0.881c0.15,0.247,0.25,0.412,0.25,0.412s0.075,0.125,0.206,0.343     c0.128,0.219,0.324,0.537,0.526,0.927c0.205,0.389,0.45,0.854,0.692,1.365c0.233,0.509,0.484,1.069,0.713,1.641     c0.219,0.57,0.439,1.158,0.623,1.719c0.178,0.559,0.336,1.094,0.467,1.56c0.242,0.926,0.379,1.571,0.379,1.571     s0.054,0.214,0.115,0.534c0.062,0.32,0.142,0.752,0.217,1.19c0.079,0.439,0.137,0.88,0.177,1.214     c0.039,0.336,0.066,0.559,0.066,0.559c0.061,0.616,0.029,1.196-0.075,1.745c-0.051,0.275-0.121,0.541-0.208,0.799     c-0.093,0.255-0.205,0.5-0.334,0.736c-0.258,0.473-0.581,0.907-0.99,1.283c-0.408,0.377-0.863,0.719-1.408,0.989     c0,0-0.408,0.208-1.014,0.498c-0.604,0.292-1.435,0.637-2.242,0.955c-0.832,0.302-1.631,0.586-2.254,0.757     c-0.616,0.178-1.02,0.283-1.02,0.283s-0.2,0.056-0.507,0.124c-0.307,0.068-0.715,0.155-1.117,0.234     c-0.2,0.038-0.401,0.076-0.589,0.111c-0.19,0.029-0.367,0.056-0.518,0.079c-0.301,0.042-0.501,0.07-0.501,0.07     s-0.796,0.127-1.593,0.183c-0.396,0.033-0.785,0.061-1.077,0.076c-0.294,0.008-0.489,0.013-0.489,0.013s-0.145,0.002-0.398,0.005     c-0.253,0-0.608,0.007-1.035-0.01c-0.429-0.019-0.922-0.048-1.438-0.089c-0.52-0.047-1.072-0.121-1.606-0.198     c-1.08-0.17-2.111-0.406-2.865-0.627c-0.375-0.105-0.681-0.198-0.897-0.274c-0.213-0.073-0.335-0.115-0.335-0.115     s-0.16-0.058-0.399-0.146c-0.237-0.086-0.549-0.208-0.859-0.345c-0.308-0.134-0.608-0.27-0.83-0.374     c-0.11-0.051-0.203-0.097-0.267-0.131c-0.064-0.033-0.101-0.052-0.101-0.052s-0.591-0.292-1.143-0.605     c-0.56-0.328-1.077-0.665-1.077-0.665c-0.694-0.48-1.222-1.137-1.6-1.992c0,0-0.135-0.321-0.27-0.642     c-0.128-0.322-0.256-0.643-0.256-0.643l0.348-0.043c0,0,0.091-0.011,0.183-0.022c0.092-0.009,0.182-0.029,0.182-0.029     l0.363-0.064c0,0,0.066-0.011,0.165-0.028c0.099-0.014,0.23-0.042,0.36-0.074c0.261-0.058,0.521-0.117,0.521-0.117     s0.026-0.006,0.077-0.018c0.05-0.014,0.124-0.035,0.221-0.063c0.192-0.06,0.482-0.12,0.835-0.248     c0.714-0.227,1.724-0.605,2.856-1.234c1.13-0.632,2.392-1.485,3.544-2.608c0.588-0.55,1.133-1.18,1.649-1.847     c0.519-0.666,0.985-1.39,1.393-2.147c0.831-1.506,1.394-3.154,1.712-4.736c0.305-1.586,0.372-3.103,0.271-4.386     c-0.09-1.286-0.319-2.338-0.508-3.063c-0.101-0.361-0.175-0.647-0.246-0.835c-0.064-0.191-0.097-0.292-0.097-0.292     s-0.028-0.085-0.07-0.214c-0.049-0.126-0.114-0.293-0.18-0.461C657.055,1340.13,656.899,1339.805,656.899,1339.805z      M663.533,1348.837c-0.292-0.031-0.561,0.062-0.806,0.266c-0.123,0.102-0.237,0.232-0.351,0.388     c-0.119,0.155-0.233,0.337-0.342,0.546c-0.45,0.83-0.821,1.793-1.199,2.9c0,0-0.008,0.026-0.024,0.075     c-0.015,0.049-0.038,0.121-0.073,0.211c-0.067,0.181-0.163,0.438-0.279,0.748c-0.128,0.304-0.276,0.66-0.447,1.036     c-0.183,0.37-0.364,0.772-0.584,1.153c-0.41,0.78-0.904,1.511-1.278,2.054c-0.193,0.268-0.363,0.484-0.478,0.638     c-0.116,0.154-0.184,0.24-0.184,0.24c-0.726,0.91-1.337,1.745-1.787,2.577c-0.237,0.402-0.369,0.775-0.41,1.088     c-0.041,0.314,0.025,0.589,0.209,0.818c0.378,0.47,1.016,0.75,1.932,0.718c0,0,0.171-0.003,0.427-0.008     c0.13-0.004,0.281-0.009,0.443-0.014c0.161-0.011,0.332-0.024,0.503-0.036c0.345-0.027,0.695-0.06,0.96-0.089     c0.265-0.028,0.437-0.057,0.437-0.057s0.704-0.092,1.424-0.227c0.707-0.142,1.437-0.321,1.437-0.321s0.179-0.048,0.448-0.127     c0.269-0.079,0.63-0.189,0.995-0.307c0.367-0.116,0.718-0.254,0.992-0.355c0.272-0.105,0.453-0.175,0.453-0.175     c0.49-0.182,0.889-0.436,1.243-0.725c0.356-0.288,0.627-0.633,0.835-1.015c0.104-0.191,0.192-0.39,0.262-0.599     c0.064-0.211,0.11-0.432,0.139-0.659c0.059-0.455,0.047-0.94-0.059-1.46c0,0-0.04-0.188-0.1-0.469     c-0.06-0.279-0.145-0.648-0.248-1.015c-0.099-0.366-0.203-0.724-0.282-0.989c-0.078-0.265-0.143-0.442-0.143-0.442     s-0.239-0.707-0.508-1.377c-0.281-0.678-0.577-1.317-0.577-1.317s-0.31-0.653-0.632-1.265c-0.335-0.618-0.693-1.198-0.693-1.198     C664.7,1349.28,664.136,1348.901,663.533,1348.837z"
/>
<path
   style="fill:#FFFFFF;"
   d="M634.632,1327.173c0.946-0.02,1.967-0.183,3.109-0.413c0,0,0.108-0.022,0.298-0.054     c0.19-0.031,0.46-0.084,0.786-0.134c0.654-0.085,1.53-0.19,2.411-0.199c0.44-0.022,0.88,0.001,1.293,0.007     c0.412,0.019,0.796,0.051,1.126,0.075c0.328,0.039,0.601,0.071,0.793,0.094c0.096,0.01,0.171,0.021,0.221,0.031     c0.051,0.008,0.078,0.013,0.078,0.013c1.153,0.167,2.183,0.279,3.128,0.257c0.235-0.002,0.449-0.02,0.641-0.055     c0.191-0.031,0.359-0.072,0.506-0.135c0.293-0.125,0.499-0.321,0.604-0.595c0.218-0.565,0.134-1.243-0.323-2.025     c0,0-0.352-0.583-0.749-1.163c-0.397-0.566-0.836-1.14-0.836-1.14s-0.432-0.555-0.908-1.115     c-0.474-0.546-0.993-1.081-0.993-1.081s-0.033-0.033-0.091-0.092c-0.058-0.059-0.141-0.143-0.242-0.237     c-0.202-0.192-0.478-0.448-0.762-0.704c-0.283-0.26-0.576-0.502-0.8-0.684c-0.226-0.182-0.377-0.304-0.377-0.304     c-0.398-0.33-0.817-0.56-1.244-0.716c-0.214-0.078-0.43-0.137-0.646-0.177c-0.217-0.033-0.434-0.046-0.652-0.041     c-0.435,0.011-0.867,0.095-1.287,0.28c-0.42,0.182-0.828,0.423-1.21,0.775c0,0-0.145,0.129-0.362,0.323     c-0.215,0.197-0.498,0.446-0.769,0.72c-0.272,0.271-0.535,0.542-0.728,0.745c-0.193,0.202-0.318,0.34-0.318,0.34     s-0.493,0.568-0.941,1.132c-0.449,0.58-0.852,1.163-0.852,1.163s-0.106,0.14-0.254,0.364c-0.148,0.224-0.341,0.521-0.526,0.816     c-0.186,0.291-0.36,0.593-0.484,0.823c-0.123,0.226-0.206,0.377-0.206,0.377c-0.423,0.791-0.465,1.487-0.219,2.037     c0.12,0.268,0.334,0.453,0.632,0.559C633.775,1327.147,634.166,1327.2,634.632,1327.173z"
/>
<path
   style="fill:#FFFFFF;"
   d="M628.546,1362.346c-0.518-0.812-1.14-1.614-1.923-2.505c0,0-0.298-0.322-0.702-0.843     c-0.415-0.511-0.913-1.236-1.382-1.979c-0.447-0.757-0.864-1.531-1.129-2.133c-0.279-0.597-0.429-1.009-0.429-1.009     c-0.431-1.086-0.864-2.024-1.346-2.833c-0.252-0.413-0.485-0.717-0.74-0.906c-0.255-0.189-0.528-0.263-0.819-0.217     c-0.601,0.094-1.136,0.498-1.593,1.293c0,0-0.244,0.439-0.597,1.145c-0.338,0.701-0.765,1.681-1.11,2.715     c-0.186,0.521-0.329,1.044-0.469,1.552c-0.143,0.509-0.246,0.987-0.333,1.405c-0.085,0.417-0.158,0.776-0.196,1.023     c-0.038,0.249-0.059,0.391-0.059,0.391c-0.072,0.505-0.082,0.996,0.004,1.443c0.085,0.447,0.241,0.866,0.468,1.249     c0.23,0.362,0.526,0.686,0.883,0.962c0.356,0.277,0.797,0.492,1.279,0.659c0,0,0.136,0.046,0.375,0.126     c0.238,0.078,0.59,0.178,1,0.293c0.411,0.114,0.884,0.241,1.402,0.346c0.516,0.107,1.047,0.219,1.594,0.291     c1.078,0.166,2.144,0.233,2.922,0.252c0.789,0.009,1.291-0.008,1.291-0.008c0.916-0.044,1.519-0.335,1.877-0.827     c0.173-0.237,0.232-0.514,0.183-0.826C628.951,1363.094,628.79,1362.752,628.546,1362.346z"
/>
<path
   style="fill:#FFFFFF;"
   d="M662.034,1350.036c-0.45,0.83-0.821,1.793-1.199,2.9c0,0-0.008,0.026-0.024,0.075     c-0.015,0.049-0.038,0.121-0.073,0.211c-0.067,0.181-0.163,0.438-0.279,0.748c-0.128,0.304-0.276,0.66-0.447,1.036     c-0.183,0.37-0.364,0.772-0.584,1.153c-0.41,0.78-0.904,1.511-1.278,2.054c-0.193,0.268-0.363,0.484-0.478,0.638     c-0.116,0.154-0.184,0.24-0.184,0.24c-0.726,0.91-1.337,1.745-1.787,2.577c-0.237,0.402-0.369,0.775-0.41,1.088     c-0.041,0.314,0.025,0.589,0.209,0.818c0.378,0.47,1.016,0.75,1.932,0.718c0,0,0.171-0.003,0.427-0.008     c0.13-0.004,0.281-0.009,0.443-0.014c0.161-0.011,0.332-0.024,0.503-0.036c0.345-0.027,0.695-0.06,0.96-0.089     c0.265-0.028,0.437-0.057,0.437-0.057s0.704-0.092,1.424-0.227c0.707-0.142,1.437-0.321,1.437-0.321s0.179-0.048,0.448-0.127     c0.269-0.079,0.63-0.189,0.995-0.307c0.367-0.116,0.718-0.254,0.992-0.355c0.272-0.105,0.453-0.175,0.453-0.175     c0.49-0.182,0.889-0.436,1.243-0.725c0.356-0.288,0.627-0.633,0.835-1.015c0.104-0.191,0.192-0.39,0.262-0.599     c0.064-0.211,0.11-0.432,0.139-0.659c0.059-0.455,0.047-0.94-0.059-1.46c0,0-0.04-0.188-0.1-0.469     c-0.06-0.279-0.145-0.648-0.248-1.015c-0.099-0.366-0.203-0.724-0.282-0.989c-0.078-0.265-0.143-0.442-0.143-0.442     s-0.239-0.707-0.508-1.377c-0.281-0.678-0.577-1.317-0.577-1.317s-0.31-0.653-0.632-1.265c-0.335-0.618-0.693-1.198-0.693-1.198     c-0.486-0.769-1.051-1.148-1.654-1.212c-0.292-0.031-0.561,0.062-0.806,0.266c-0.123,0.102-0.237,0.232-0.351,0.388     C662.257,1349.646,662.143,1349.828,662.034,1350.036z"
/>
</g>
</svg>
