<?xml version="1.0" encoding="UTF-8" standalone="no"?>
<svg
  version="1.1"
  viewBox="1285 1625 400 400"
  xmlns="http://www.w3.org/2000/svg">
<g fill="none">
<path
   style="fill:#E0486C;"
   d="M1430.77,1920.42c0,0,0.781,0.451,2.244,1.297c0.734,0.419,1.679,0.862,2.764,1.429      c1.093,0.553,2.326,1.237,3.78,1.849c5.707,2.654,14.155,5.946,24.761,8.078c1.331,0.238,2.689,0.48,4.073,0.728      c0.688,0.147,1.399,0.202,2.109,0.298c0.711,0.09,1.429,0.181,2.152,0.272c0.724,0.085,1.45,0.207,2.19,0.269      c0.741,0.054,1.487,0.109,2.24,0.164c1.505,0.1,3.027,0.282,4.587,0.274c1.556,0.02,3.132,0.112,4.729,0.096      c1.596-0.04,3.212-0.08,4.845-0.121c1.628-0.096,3.269-0.251,4.929-0.362c0.833-0.039,1.659-0.157,2.49-0.268      c0.832-0.106,1.667-0.212,2.506-0.318c6.696-0.935,13.518-2.518,20.227-4.804c6.709-2.282,13.302-5.266,19.544-8.879      c6.243-3.609,12.132-7.845,17.48-12.53c5.351-4.684,10.158-9.814,14.323-15.15c8.337-10.682,14.111-22.102,17.49-32.349      c3.545-10.222,4.788-19.223,5.382-25.499c0.122-1.576,0.231-2.984,0.326-4.208c0.029-1.23,0.053-2.277,0.073-3.125      c0.048-1.697,0.074-2.602,0.074-2.602h8.775c0,0-0.035,1.3-0.088,3.249c-0.036,0.974-0.026,2.114-0.102,3.329      c-0.093,1.214-0.193,2.508-0.292,3.803c-0.052,0.647-0.089,1.296-0.149,1.932c-0.082,0.633-0.163,1.256-0.241,1.859      c-0.152,1.207-0.294,2.333-0.416,3.298c-0.051,0.484-0.121,0.924-0.199,1.312c-0.07,0.389-0.132,0.728-0.182,1.007      c-0.1,0.558-0.158,0.877-0.158,0.877c-0.203,1.132-0.293,2.214-0.281,3.248c-0.028,1.025,0.022,1.998,0.185,2.926      c0.309,1.895,1.209,3.011,2.63,3.37c1.422,0.359,2.697-0.224,3.84-1.893c0.557-0.813,1.057-1.731,1.458-2.752      c0.361-1.03,0.649-2.159,0.866-3.376c0.108-0.606,0.238-1.191,0.388-1.755c0.162-0.56,0.319-1.104,0.472-1.634      c0.323-1.052,0.728-2.019,1.213-2.899c0.956-1.761,2.162-2.617,3.655-2.468c1.458,0.147,2.828,0.933,4.121,2.403      c1.285,1.518,2.997,2.743,5.084,3.719c2.086,0.986,4.602,1.733,7.492,2.154c2.902,0.422,5.504,0.411,7.776-0.052      c2.324-0.442,3.531-1.449,3.731-3.041c0.096-0.766-0.087-1.464-0.562-2.089c-0.484-0.626-1.284-1.181-2.37-1.662      c-2.124-0.974-3.043-2.937-2.824-5.895c0.028-0.377,0.077-0.73,0.145-1.057c0.055-0.328,0.131-0.631,0.23-0.91      c0.198-0.558,0.484-1.018,0.859-1.383c0.75-0.729,1.856-1.078,3.322-1.037c2.931,0.083,5.5,0.563,7.67,1.45      c2.164,0.873,3.672,2.573,4.196,5.085c0.272,1.255,0.437,2.622,0.499,4.089c0.031,0.733,0.036,1.491,0.016,2.272      c-0.047,0.779-0.127,1.58-0.229,2.402c-0.435,3.348-1.079,6.167-2.288,8.538c-1.161,2.315-2.61,4.105-4.358,5.45      c-1.792,1.276-3.329,2.956-4.589,5.158c-0.312,0.536-0.609,1.101-0.892,1.694c-0.294,0.59-0.599,1.202-0.876,1.846      c-0.56,1.286-1.06,2.686-1.495,4.205c-0.409,1.521-0.799,2.953-1.064,4.328c-0.263,1.376-0.412,2.691-0.454,3.939      c-0.024,0.623-0.004,1.239,0.018,1.833c0.017,0.592,0.064,1.172,0.14,1.739c0.152,1.134,0.422,2.218,0.806,3.243      c0.761,2.048,1.06,4.423,0.687,6.965c-0.371,2.54-1.197,5.412-2.753,8.341c-0.756,1.482-1.548,2.835-2.373,4.046      s-1.764,2.234-2.684,3.133c-1.907,1.836-4.019,2.471-6.304,2.028c-2.303-0.465-4.691-1.518-7.186-3.06      c-1.247-0.771-1.977-1.666-2.199-2.677c-0.247-1.027-0.003-2.179,0.742-3.472c0.744-1.294,1.582-2.218,2.525-2.776      c0.943-0.557,1.94-0.777,3.091-0.595c2.332,0.383,3.83-0.192,4.539-1.58c0.702-1.391,0.304-2.907-1.428-4.581      c-1.667-1.632-3.865-3.033-6.522-4.274c-2.647-1.236-5.133-2.026-7.396-2.347c-2.248-0.301-4.406-0.211-6.312,0.309      c-1.912,0.518-3.502,0.405-4.793-0.268c-1.338-0.699-1.875-2.023-1.677-4.004c0.048-0.509,0.141-1.012,0.228-1.534      c0.083-0.525,0.192-1.053,0.33-1.589c0.276-1.071,0.666-2.168,1.184-3.31c0.127-0.28,0.248-0.559,0.361-0.835      c0.101-0.282,0.193-0.563,0.279-0.84c0.172-0.556,0.317-1.103,0.433-1.639c0.233-1.073,0.353-2.103,0.349-3.083      c-0.042-1.973-0.846-3.231-2.217-3.705c-1.4-0.484-2.705,0.022-4.003,1.39c-0.662,0.68-1.271,1.455-1.818,2.326      c-0.274,0.436-0.532,0.895-0.773,1.379c-0.233,0.489-0.473,0.991-0.719,1.508c0,0-0.357,0.788-0.982,2.167      c-0.316,0.688-0.679,1.533-1.13,2.486c-0.482,0.938-1.026,1.997-1.619,3.151c-2.397,4.601-5.926,10.585-10.092,16.132      c-4.14,5.565-8.854,10.674-12.581,14.295c-0.94,0.898-1.802,1.721-2.566,2.45c-0.769,0.724-1.489,1.3-2.055,1.804      c-1.146,0.994-1.8,1.562-1.8,1.562c-0.848,0.775-1.666,1.483-2.338,2.266c-0.679,0.774-1.248,1.58-1.711,2.41      c-0.452,0.844-0.738,1.569-0.767,2.282c-0.035,0.706,0.158,1.363,0.588,1.956c0.43,0.594,0.995,0.984,1.697,1.165      c0.696,0.173,1.556,0.176,2.489-0.113c0.94-0.278,1.894-0.688,2.856-1.219c0.955-0.54,1.953-1.157,2.866-1.986      c0.934-0.811,1.875-1.498,2.823-2.068c0.473-0.286,0.95-0.539,1.425-0.769c0.46-0.246,0.921-0.462,1.384-0.649      c1.879-0.787,3.302-0.651,4.356,0.431c1.014,1.044,1.577,2.534,1.626,4.512c0.044,1.972,0.574,4.063,1.518,6.14      c0.956,2.075,2.426,4.229,4.369,6.411c1.95,2.19,3.923,3.893,5.964,5.024c2.089,1.17,3.657,1.121,4.79,0.054      c1.127-1.073,1.241-2.662,0.215-4.793c-0.969-2.067-0.439-4.189,1.617-6.344c2.066-2.125,4.103-2.309,6.3-0.365      c2.19,1.95,3.881,3.937,4.984,6.009c1.104,2.085,1.036,4.314-0.13,6.62c-0.593,1.142-1.324,2.314-2.224,3.47      c-0.923,1.133-1.992,2.275-3.195,3.419c-2.373,2.327-4.855,3.948-7.188,5.017c-1.182,0.518-2.317,0.93-3.48,1.132      c-1.157,0.21-2.285,0.278-3.376,0.204c-1.092-0.074-2.206-0.023-3.335,0.156c-1.127,0.181-2.267,0.491-3.46,0.875      c-1.181,0.398-2.396,0.918-3.636,1.564c-1.238,0.649-2.498,1.43-3.832,2.26c-2.701,1.718-4.749,3.578-6.517,5.381      c-1.693,1.809-2.842,3.787-3.612,5.876c-0.732,2.029-2.02,3.945-3.954,5.758c-0.473,0.44-0.974,0.887-1.527,1.294      c-0.555,0.402-1.147,0.794-1.773,1.175c-1.253,0.763-2.645,1.486-4.164,2.166c-0.754,0.346-1.502,0.646-2.249,0.885      c-0.742,0.249-1.47,0.468-2.181,0.654c-1.423,0.373-2.781,0.618-4.061,0.727c-2.575,0.186-4.647-0.764-6.103-2.57      c-1.475-1.817-2.673-4.135-3.595-6.919c-0.914-2.787,0.045-4.644,2.854-5.602c2.828-1.079,4.922-0.778,6.458,0.98      c1.553,1.787,3.092,2.386,4.505,1.724c1.422-0.639,2.08-2.11,1.831-4.466c-0.224-2.307-0.955-4.808-2.198-7.464      c-1.238-2.646-2.689-4.833-4.224-6.546c-1.537-1.713-3.238-2.977-5.023-3.779c-1.779-0.784-2.948-1.947-3.501-3.281      c-0.289-0.698-0.31-1.385-0.079-2.067c0.229-0.687,0.691-1.408,1.396-2.122c1.392-1.466,3.243-2.625,5.419-3.802      c1.1-0.564,2.096-1.169,2.976-1.817c0.878-0.65,1.6-1.418,2.22-2.182c1.226-1.558,1.457-2.972,0.702-4.23      c-0.754-1.257-2.12-1.772-3.984-1.539c-0.939,0.107-1.871,0.365-2.861,0.659c-0.992,0.291-2,0.694-3.023,1.22      c0,0-0.192,0.099-0.553,0.284c-0.364,0.178-0.881,0.474-1.569,0.789c-0.69,0.311-1.527,0.688-2.488,1.12      c-0.48,0.218-0.99,0.449-1.528,0.693c-0.536,0.249-1.102,0.506-1.711,0.73c-4.78,2.012-11.346,4.231-18.075,5.821      c-3.354,0.843-6.771,1.405-9.969,1.932c-1.609,0.205-3.165,0.402-4.641,0.59c-0.735,0.115-1.461,0.138-2.158,0.197      c-0.698,0.053-1.373,0.104-2.021,0.152c-2.586,0.255-4.759,0.237-6.275,0.288c-1.517,0.042-2.384,0.066-2.384,0.066      c-2.341-0.064-4.339,0.282-6.162,0.97c-1.77,0.597-2.711,1.649-2.818,3.112c-0.106,1.461,0.69,2.643,2.485,3.517      c1.846,0.77,3.984,1.168,6.497,1.232c2.465-0.067,4.655,0.265,6.56,0.958c1.897,0.588,2.944,1.589,3.055,3.096      c0.104,1.452-0.432,2.963-1.706,4.53c-0.306,0.391-0.592,0.805-0.859,1.239c-0.267,0.421-0.515,0.865-0.744,1.331      c-0.457,0.932-0.836,1.954-1.137,3.059c-0.612,2.21-0.916,4.81-0.832,7.73c0.083,2.931,0.542,5.5,1.388,7.672      c0.418,1.114,0.925,1.93,1.521,2.462c0.298,0.266,0.619,0.461,0.961,0.586c0.342,0.112,0.706,0.152,1.09,0.124      c1.599-0.117,2.672-1.271,3.247-3.571c0.296-1.123,0.893-1.987,1.781-2.599c0.444-0.309,0.962-0.543,1.553-0.737      c0.589-0.209,1.252-0.359,1.989-0.451c2.953-0.372,4.686,0.869,5.118,3.77c0.423,2.902,0.379,5.509-0.115,7.784      c-0.49,2.275-1.922,3.983-4.299,5.021c-1.217,0.542-2.54,0.879-3.976,1.177c-1.436,0.289-2.988,0.491-4.669,0.613      c-0.412,0.029-0.819,0.057-1.22,0.068c-0.401,0.001-0.797-0.003-1.186-0.013c-0.779-0.021-1.534-0.066-2.263-0.135      c-1.458-0.138-2.811-0.374-4.046-0.711c-1.235-0.322-2.366-0.833-3.385-1.406c-1.019-0.577-1.925-1.245-2.712-1.998      c-1.574-1.519-3.538-2.645-5.856-3.585c-1.16-0.451-2.422-0.828-3.785-1.125c-0.682-0.149-1.389-0.277-2.122-0.384      c-0.731-0.135-1.487-0.257-2.27-0.354c-3.127-0.409-5.938-0.304-8.394-0.052c-2.461,0.302-4.659,1.053-6.548,2.189      c-1.876,1.078-4.144,1.704-6.731,1.859c-0.646,0.036-1.315,0.041-2.006,0.016c-0.689-0.032-1.391-0.128-2.118-0.236      c-1.451-0.224-2.982-0.57-4.577-1.027c-1.633-0.442-3.089-1.032-4.417-1.667c-1.329-0.633-2.526-1.322-3.605-2.075      c-0.523-0.377-0.983-0.772-1.369-1.213c-0.383-0.449-0.699-0.923-0.948-1.42c-0.5-0.994-0.733-2.081-0.707-3.25      c0.05-2.338,0.613-4.889,1.697-7.614c1.095-2.728,3.056-3.494,5.839-2.435c2.813,0.959,4.258,2.573,4.317,4.908      c0.013,1.191,0.213,2.133,0.6,2.841c0.388,0.705,0.977,1.136,1.747,1.362c1.488,0.426,2.892-0.288,4.216-2.251      c1.323-1.906,2.359-4.294,3.115-7.127c0.753-2.823,1.057-5.429,0.974-7.733c-0.075-2.302-0.526-4.355-1.367-6.118      c-0.445-0.888-0.712-1.726-0.814-2.515c-0.097-0.804-0.03-1.553,0.189-2.247c0.451-1.425,1.706-2.174,3.705-2.374      c2.003-0.208,4.182,0.069,6.593,0.572c1.223,0.282,2.374,0.46,3.464,0.533c1.095,0.048,2.141-0.062,3.13-0.248      c1.94-0.405,2.979-1.348,3.21-2.796c0.23-1.447-0.441-2.713-2.019-3.733c-0.81-0.521-1.689-0.938-2.641-1.33      c-0.947-0.417-1.977-0.758-3.114-1.02c0,0-0.527-0.121-1.448-0.332c-0.931-0.177-2.215-0.603-3.778-1.031      c-0.78-0.22-1.625-0.458-2.519-0.71c-0.885-0.28-1.807-0.611-2.768-0.931c-0.96-0.323-1.952-0.657-2.96-0.997      c-0.989-0.392-1.994-0.79-2.998-1.188c-0.999-0.411-2.026-0.755-2.989-1.21c-0.969-0.439-1.923-0.871-2.846-1.29      c-1.868-0.79-3.524-1.712-4.974-2.438c-0.723-0.368-1.385-0.705-1.972-1.005c-0.571-0.33-1.068-0.618-1.478-0.855      c-0.82-0.472-1.289-0.742-1.289-0.742L1430.77,1920.42z M1616.789,1864.155c-0.336,1.275-0.655,2.475-0.85,3.635      c-0.193,1.16-0.274,2.277-0.246,3.345c0.009,0.532,0.084,1.046,0.198,1.533c0.104,0.483,0.266,0.946,0.485,1.388      c0.438,0.884,1.105,1.686,2.002,2.401c1.791,1.44,3.824,2.265,6.185,2.405c1.153,0.065,2.207-0.113,3.159-0.536      c0.476-0.212,0.927-0.485,1.352-0.819c0.416-0.338,0.787-0.744,1.139-1.207c0.7-0.928,1.356-1.988,1.955-3.169      c0.601-1.18,1.157-2.479,1.541-3.917c0.41-1.436,0.698-2.815,0.87-4.123c0.082-0.655,0.15-1.288,0.163-1.909      c0.002-0.624-0.022-1.228-0.074-1.811c-0.192-2.391-1.298-4.131-3.282-5.292c-2.04-1.165-4.192-1.59-6.491-1.382      c-2.302,0.22-4.033,1.204-5.199,3.022c-0.292,0.442-0.566,0.909-0.823,1.4c-0.268,0.489-0.546,0.995-0.792,1.53      C1617.582,1861.716,1617.15,1862.884,1616.789,1864.155z M1560.975,1939.114c-2.268,1.433-3.945,3.052-5.369,4.666      c-1.357,1.62-1.807,3.569-1.344,5.832c0.465,2.262,1.494,4.2,3.198,5.815c1.675,1.568,3.668,2.117,5.96,1.636      c2.364-0.465,4.718-1.58,7.276-3.205c1.264-0.784,2.348-1.686,3.304-2.601c0.957-0.913,1.782-1.845,2.468-2.782      c0.697-0.924,1.091-1.934,1.22-2.97c0.132-1.033-0.001-2.092-0.395-3.177c-0.813-2.221-2.188-3.931-4.082-5.233      c-0.943-0.654-1.904-1.063-2.876-1.229c-0.971-0.163-1.954-0.083-2.992,0.189c-1.031,0.28-2.077,0.679-3.133,1.198      C1563.157,1937.775,1562.097,1938.423,1560.975,1939.114z M1470.007,1960.682c-2.619-0.35-4.985-0.19-7.063,0.137      c-2.081,0.368-3.717,1.565-4.827,3.594c-1.097,2.032-1.554,4.178-1.288,6.51c0.286,2.28,1.504,3.99,3.57,5.096      c2.056,1.156,4.62,1.818,7.581,2.207c0.74,0.092,1.461,0.16,2.162,0.194c0.703,0.007,1.384-0.013,2.043-0.057      c1.318-0.089,2.546-0.278,3.674-0.558c2.257-0.529,3.834-1.996,4.633-4.164c0.792-2.229,0.839-4.422,0.236-6.632      c-0.616-2.217-1.939-3.674-3.876-4.584c-0.971-0.444-2.026-0.807-3.167-1.083c-0.571-0.138-1.163-0.255-1.778-0.349      C1471.296,1960.872,1470.663,1960.765,1470.007,1960.682z"
/>
<path
   style="fill:#FFA227;"
   d="M1587.171,1827.907l-0.046,2.232l-0.176,2.219c0,0-0.051,0.691-0.141,1.901      c-0.021,0.302-0.044,0.637-0.069,1.002c-0.035,0.363-0.098,0.753-0.15,1.171c-0.106,0.836-0.226,1.779-0.357,2.808      c-0.611,4.096-1.572,9.55-3.232,14.815c-1.6,5.278-3.631,10.418-5.418,14.155c-0.105,0.237-0.208,0.468-0.308,0.695      c-0.115,0.22-0.227,0.434-0.336,0.644c-0.217,0.419-0.422,0.817-0.615,1.191c-0.382,0.75-0.715,1.404-0.989,1.942      c-0.26,0.546-0.508,0.952-0.672,1.231c-0.163,0.28-0.25,0.429-0.25,0.429s-0.549,0.953-1.097,1.907      c-0.273,0.478-0.545,0.956-0.75,1.314c-0.225,0.346-0.375,0.577-0.375,0.577l-0.409,0.632l-0.407,0.632      c0,0-0.495,0.778-1.238,1.945c-0.778,1.144-1.877,2.627-2.927,4.145c-1.14,1.453-2.279,2.905-3.134,3.995      c-0.911,1.043-1.519,1.739-1.519,1.739l-0.96,1.113c0,0-0.363,0.421-0.726,0.842c-0.386,0.4-0.772,0.8-0.772,0.8l-1.51,1.582      c0,0-0.119,0.126-0.342,0.362c-0.231,0.228-0.531,0.601-0.982,1.007c-0.894,0.819-2.116,2.048-3.653,3.446      c-3.091,2.779-7.435,6.235-12.048,9.291c-1.173,0.732-2.317,1.512-3.482,2.216c-1.18,0.678-2.34,1.345-3.464,1.99      c-1.127,0.639-2.266,1.162-3.313,1.719c-0.527,0.273-1.04,0.538-1.536,0.795c-0.51,0.227-1.002,0.446-1.475,0.657      c-0.942,0.428-1.806,0.821-2.571,1.169c-0.763,0.355-1.462,0.581-2.019,0.813c-1.122,0.444-1.764,0.697-1.764,0.697      s-0.257,0.103-0.642,0.257c-0.381,0.167-0.904,0.347-1.432,0.515c-1.049,0.353-2.098,0.706-2.098,0.706l-0.71,0.243      l-0.674,0.233c0,0-0.054,0.019-0.156,0.054c-0.101,0.037-0.251,0.088-0.446,0.137c-0.387,0.108-0.941,0.262-1.605,0.447      c-1.328,0.369-3.083,0.924-4.889,1.285c-0.896,0.209-1.791,0.419-2.63,0.615c-0.842,0.188-1.642,0.293-2.32,0.423      c-1.359,0.246-2.265,0.41-2.265,0.41s-0.36,0.067-0.721,0.134c-0.364,0.044-0.729,0.088-0.729,0.088l-2.203,0.274l-2.202,0.288      c0,0-0.692,0.049-1.901,0.134c-1.212,0.063-2.93,0.3-5.02,0.29c-1.042,0.029-2.172,0.061-3.366,0.095      c-1.194-0.032-2.454-0.065-3.757-0.1c-0.65-0.027-1.317,0.002-1.982-0.065c-0.667-0.053-1.341-0.107-2.021-0.161      c-1.359-0.113-2.749-0.161-4.115-0.381c-1.369-0.192-2.748-0.322-4.091-0.535c-1.338-0.24-2.655-0.475-3.929-0.703      c-0.642-0.091-1.256-0.26-1.863-0.399c-0.606-0.141-1.199-0.278-1.777-0.412c-0.578-0.13-1.141-0.257-1.685-0.38      c-0.543-0.128-1.054-0.3-1.553-0.436c-1.985-0.579-3.66-0.995-4.787-1.431c-1.143-0.387-1.796-0.609-1.796-0.609      s-0.262-0.088-0.656-0.219c-0.392-0.135-0.925-0.289-1.433-0.511c-1.029-0.409-2.058-0.818-2.058-0.818l-0.664-0.26      l-0.699-0.272c0,0-0.193-0.075-0.531-0.205c-0.337-0.134-0.801-0.364-1.368-0.618c-0.566-0.256-1.227-0.555-1.934-0.875      c-0.71-0.314-1.471-0.643-2.198-1.044c-0.738-0.379-1.475-0.757-2.167-1.112c-0.691-0.356-1.35-0.661-1.878-0.993      c-1.077-0.623-1.796-1.039-1.796-1.039l-4.422,7.643c0,0,0.781,0.451,2.244,1.297c0.734,0.419,1.679,0.862,2.764,1.429      c1.093,0.553,2.326,1.237,3.78,1.849c5.707,2.654,14.155,5.946,24.761,8.078c1.331,0.238,2.689,0.48,4.073,0.728      c0.688,0.147,1.399,0.202,2.109,0.298c0.711,0.09,1.429,0.181,2.152,0.272c0.724,0.085,1.45,0.207,2.19,0.269      c0.741,0.054,1.487,0.109,2.24,0.164c1.505,0.1,3.027,0.282,4.587,0.274c1.556,0.02,3.132,0.112,4.729,0.096      c1.596-0.04,3.212-0.08,4.845-0.121c1.628-0.096,3.269-0.251,4.929-0.362c0.833-0.039,1.659-0.157,2.49-0.268      c0.832-0.106,1.667-0.212,2.506-0.318c6.696-0.935,13.518-2.518,20.227-4.804c6.709-2.282,13.302-5.266,19.544-8.879      c6.243-3.609,12.132-7.845,17.48-12.53c5.351-4.684,10.158-9.814,14.323-15.15c8.337-10.682,14.111-22.102,17.49-32.349      c3.545-10.222,4.788-19.223,5.382-25.499c0.122-1.576,0.231-2.984,0.326-4.208c0.029-1.23,0.053-2.277,0.073-3.125      c0.048-1.697,0.074-2.602,0.074-2.602h-8.83l-0.047,1.475L1587.171,1827.907z"
/>
<path
   style="fill:#E0486C;"
   d="M1430.77,1729.494c0,0-0.781,0.451-2.245,1.296c-0.711,0.458-1.588,1.022-2.619,1.686      c-0.517,0.329-1.073,0.683-1.667,1.06c-0.572,0.409-1.179,0.845-1.822,1.304c-0.644,0.456-1.323,0.937-2.035,1.442      c-0.723,0.49-1.41,1.097-2.167,1.674c-0.75,0.587-1.531,1.197-2.34,1.831c-0.777,0.673-1.583,1.37-2.415,2.09      c-1.705,1.395-3.348,3.07-5.152,4.756c-0.892,0.854-1.73,1.806-2.636,2.733c-0.449,0.468-0.903,0.941-1.362,1.419      c-0.433,0.502-0.872,1.009-1.314,1.521c-0.444,0.512-0.892,1.029-1.345,1.551c-0.453,0.522-0.924,1.038-1.344,1.605      c-0.871,1.107-1.759,2.235-2.661,3.383c-0.848,1.188-1.71,2.396-2.585,3.623c-0.219,0.307-0.438,0.615-0.659,0.924      c-0.203,0.32-0.407,0.642-0.612,0.965c-0.412,0.644-0.827,1.292-1.245,1.945c-3.299,5.248-6.34,11.056-8.877,17.314      c-2.541,6.255-4.575,12.957-5.947,19.916c-1.376,6.959-2.088,14.172-2.098,21.425c0.01,7.253,0.722,14.466,2.098,21.425      c1.372,6.96,3.406,13.661,5.947,19.916c2.537,6.258,5.578,12.067,8.877,17.315c0.418,0.653,0.833,1.301,1.245,1.945      c0.205,0.323,0.409,0.644,0.612,0.965c0.22,0.309,0.44,0.617,0.659,0.923c0.875,1.227,1.737,2.435,2.585,3.623      c0.903,1.147,1.79,2.275,2.661,3.383c0.42,0.567,0.89,1.083,1.344,1.605c0.453,0.522,0.901,1.039,1.345,1.551      c0.443,0.513,0.881,1.02,1.314,1.521c0.459,0.478,0.913,0.952,1.362,1.419c0.906,0.927,1.744,1.879,2.636,2.733      c1.804,1.686,3.446,3.361,5.152,4.756c0.832,0.72,1.638,1.417,2.415,2.09c0.81,0.633,1.59,1.244,2.34,1.831      c0.757,0.577,1.444,1.184,2.167,1.674c0.712,0.504,1.391,0.985,2.035,1.442c0.642,0.46,1.25,0.895,1.822,1.304      c0.593,0.377,1.149,0.731,1.667,1.06c1.031,0.664,1.908,1.228,2.619,1.686c1.464,0.845,2.245,1.296,2.245,1.296l-4.395,7.596      c0,0-0.281-0.161-0.773-0.444c-0.484-0.297-1.215-0.652-2.022-1.198c-0.819-0.526-1.774-1.139-2.797-1.796      c-0.51-0.33-1.047-0.658-1.577-1.015c-0.52-0.371-1.048-0.748-1.576-1.126c-1.057-0.753-2.113-1.506-3.104-2.212      c-0.956-0.753-1.848-1.456-2.612-2.058c-0.764-0.603-1.41-1.095-1.849-1.455c-0.428-0.373-0.673-0.586-0.673-0.586      c-0.869-0.756-1.751-1.389-2.644-1.908c-0.446-0.26-0.896-0.491-1.346-0.695c-0.434-0.223-0.87-0.418-1.308-0.585      c-1.783-0.699-3.194-0.486-4.216,0.564c-1.023,1.051-1.162,2.455-0.303,4.297c0.208,0.45,0.448,0.898,0.72,1.344      c0.288,0.427,0.609,0.85,0.96,1.27c0.702,0.84,1.525,1.667,2.459,2.477c0.913,0.83,1.796,1.584,2.526,2.414      c0.738,0.82,1.362,1.668,1.872,2.54c1.037,1.719,1.229,3.115,0.336,4.353c-0.853,1.179-2.238,1.995-4.183,2.409      c-1.959,0.352-3.859,1.195-5.748,2.507c-1.893,1.303-3.799,3.1-5.613,5.39c-1.821,2.299-3.12,4.559-3.865,6.764      c-0.786,2.236-0.539,3.808,0.738,4.777c1.256,0.9,2.824,0.703,4.743-0.691c0.95-0.671,1.964-0.951,3.04-0.851      c0.539,0.05,1.093,0.195,1.664,0.434c0.573,0.237,1.187,0.533,1.809,0.939c2.541,1.634,3.036,3.673,1.502,6.173      c-1.541,2.495-3.24,4.471-5.091,5.892c-1.838,1.429-4.034,1.819-6.523,1.089c-2.458-0.768-5.035-2.224-7.732-4.145      c-2.673-2.057-4.724-4.11-6.233-6.257c-1.403-2.178-2.205-4.348-2.487-6.537c-0.259-2.126-0.903-4.335-2.166-6.534      c-0.604-1.086-1.349-2.164-2.195-3.275c-0.824-1.133-1.776-2.271-2.862-3.413c-2.202-2.24-4.272-4.116-6.388-5.433      c-1.044-0.67-2.144-1.182-3.189-1.625c-1.053-0.436-2.122-0.745-3.197-0.926c-1.075-0.181-2.153-0.51-3.227-0.983      c-1.076-0.471-2.149-1.086-3.151-1.883c-1.012-0.789-2.015-1.735-3.002-2.822c-0.99-1.085-1.969-2.31-2.846-3.715      c-1.787-2.805-3.13-5.423-3.697-7.96c-0.633-2.573-0.121-4.726,1.4-6.485c1.52-1.748,3.628-3.296,6.209-4.691      c2.564-1.375,4.589-0.786,6.069,1.796c0.75,1.29,1.111,2.491,1.146,3.573c0.044,1.076-0.291,2.067-1.016,2.97      c-1.498,1.832-1.752,3.42-0.908,4.73c0.425,0.652,1.008,1.087,1.794,1.26c0.791,0.17,1.757,0.099,2.904-0.228      c2.242-0.63,4.551-1.835,6.951-3.519c2.391-1.678,4.318-3.439,5.728-5.243c0.702-0.906,1.287-1.828,1.755-2.759      c0.472-0.934,0.856-1.896,1.108-2.854c0.51-1.92,1.404-3.244,2.63-4.027c1.274-0.811,2.684-0.614,4.294,0.552      c1.679,1.179,3.265,2.67,4.706,4.724c1.517,1.942,3.137,3.457,4.842,4.427c1.774,0.915,3.221,0.886,4.329-0.075      c1.107-0.96,1.364-2.383,0.783-4.158c-0.524-1.825-1.461-3.67-2.876-5.475c0,0-0.501-0.707-1.377-1.944      c-0.44-0.617-0.974-1.366-1.587-2.226c-0.609-0.862-1.218-1.887-1.929-2.974c-1.455-2.155-2.916-4.813-4.516-7.635      c-0.74-1.444-1.504-2.937-2.281-4.453c-0.725-1.541-1.415-3.128-2.139-4.7c-2.757-6.353-4.816-12.974-6.115-17.996      c-0.291-1.264-0.557-2.424-0.794-3.451c-0.243-1.026-0.456-1.92-0.567-2.67c-0.265-1.491-0.416-2.343-0.416-2.343      c-0.185-1.131-0.53-2.169-0.826-3.149c-0.313-0.978-0.71-1.875-1.181-2.693c-0.941-1.634-2.184-2.42-3.634-2.275      c-1.467,0.146-2.45,1.174-2.953,3.087c-0.245,0.954-0.384,1.987-0.423,3.088c-0.057,1.103,0.119,2.253,0.319,3.468      c0.218,1.217,0.326,2.378,0.33,3.485c0.047,1.099,0.01,2.14-0.143,3.131c-0.28,2.024-1.121,3.19-2.585,3.56      c-1.411,0.355-2.976,0.095-4.7-0.856c-1.724-0.95-3.763-1.548-6.064-1.766c-2.299-0.208-4.911-0.013-7.773,0.575      c-2.872,0.59-5.324,1.442-7.301,2.637c-2.029,1.216-2.807,2.608-2.455,4.128c0.358,1.517,1.647,2.422,4.027,2.596      c2.33,0.183,3.871,1.715,4.69,4.584c0.389,1.437,0.406,2.6-0.046,3.536c-0.456,0.936-1.375,1.642-2.766,2.104      c-2.784,0.922-5.348,1.392-7.69,1.308c-1.173-0.047-2.253-0.357-3.227-0.925c-0.942-0.578-1.769-1.417-2.463-2.504      c-1.37-2.18-2.552-4.907-3.254-8.164c-0.376-1.622-0.642-3.168-0.791-4.626c-0.128-1.462-0.081-2.847,0.051-4.129      c0.145-1.285,0.403-2.483,0.772-3.587c0.184-0.552,0.397-1.079,0.636-1.582c0.251-0.504,0.541-0.985,0.849-1.439      c1.242-1.819,2.1-3.965,2.531-6.401c0.191-1.216,0.405-2.531,0.478-3.928c0.083-1.398,0.07-2.88-0.044-4.446      c-0.065-0.796-0.128-1.562-0.189-2.304c-0.069-0.74-0.161-1.453-0.274-2.141c-0.226-1.377-0.538-2.659-0.929-3.871      c-0.411-1.182-0.825-2.267-1.362-3.271c-0.532-1.003-1.157-1.925-1.869-2.778c-1.412-1.645-2.525-3.712-3.037-6.284      c-0.272-1.255-0.437-2.62-0.499-4.084c-0.031-0.732-0.036-1.49-0.016-2.271c0.049-0.779,0.128-1.582,0.23-2.407      c0.427-3.286,1.08-6.167,2.279-8.477c1.159-2.317,2.938-3.652,5.233-4.01c2.298-0.374,4.896-0.256,7.775,0.335      c2.863,0.597,4.025,2.36,3.502,5.28c-0.26,1.493-0.754,2.645-1.424,3.491c-0.656,0.847-1.547,1.38-2.682,1.606      c-2.325,0.453-3.537,1.495-3.731,3.041c-0.097,0.772,0.084,1.484,0.558,2.122c0.483,0.639,1.282,1.205,2.369,1.686      c2.125,0.959,4.665,1.575,7.587,1.826c2.911,0.25,5.522,0.085,7.758-0.39c1.122-0.238,2.15-0.569,3.12-0.982      c0.98-0.412,1.879-0.907,2.69-1.478c1.623-1.143,3.157-1.583,4.6-1.395c1.497,0.197,2.447,1.302,2.933,3.229      c0.224,0.963,0.469,2.002,0.565,3.101c0.106,1.1,0.114,2.265,0.019,3.498c-0.06,0.616-0.06,1.217-0.023,1.8      c0.029,0.583,0.081,1.147,0.156,1.691c0.149,1.088,0.391,2.097,0.73,3.018c0.328,0.921,0.829,1.61,1.393,2.065      c0.566,0.455,1.217,0.676,1.95,0.665c0.733-0.011,1.374-0.249,1.918-0.7c0.546-0.451,0.971-1.115,1.376-1.983      c0.388-0.869,0.694-1.806,0.909-2.814c0.107-0.504,0.192-1.026,0.253-1.566c0.05-0.541,0.102-1.097,0.155-1.672      c0,0,0.067-0.864,0.184-2.375c0.056-0.756,0.124-1.673,0.202-2.726c0.132-1.046,0.281-2.227,0.443-3.514      c0.258-2.586,0.869-5.553,1.437-8.744c0.365-1.579,0.742-3.211,1.125-4.869c0.403-1.653,0.927-3.302,1.381-4.969      c1.968-6.631,4.635-13.027,6.863-17.71c0.592-1.154,1.136-2.211,1.617-3.149c0.484-0.936,0.877-1.768,1.276-2.412      c0.756-1.311,1.188-2.061,1.188-2.061c0.596-1.004,1.001-2.021,1.404-2.963c0.387-0.951,0.659-1.895,0.834-2.844      c0.321-1.862-0.14-3.219-1.338-4.035c-1.225-0.834-2.624-0.723-4.23,0.424c-0.812,0.594-1.581,1.297-2.317,2.116      c-0.752,0.809-1.358,1.802-1.997,2.882c-0.612,1.069-1.281,2.025-1.983,2.881c-0.66,0.879-1.37,1.649-2.124,2.311      c-1.498,1.327-2.915,1.721-4.274,1.064c-1.31-0.635-2.336-1.848-3.024-3.719c-0.712-1.826-1.902-3.566-3.528-5.202      c-1.622-1.644-3.729-3.212-6.299-4.601c-2.58-1.394-5.026-2.278-7.316-2.623c-2.332-0.382-3.809,0.151-4.513,1.528      c-0.724,1.434-0.31,2.918,1.427,4.581c1.661,1.647,1.851,3.809,0.633,6.518c-0.636,1.352-1.336,2.284-2.309,2.714      c-0.957,0.435-2.121,0.395-3.484-0.146c-2.726-1.082-4.969-2.425-6.707-3.995c-1.737-1.566-2.555-3.684-2.188-6.23      c0.397-2.596,1.196-5.412,2.78-8.398c0.754-1.477,1.545-2.829,2.371-4.041c0.827-1.211,1.767-2.238,2.688-3.136      c0.937-0.89,1.905-1.642,2.897-2.249c0.496-0.304,0.997-0.571,1.504-0.802c0.52-0.223,1.047-0.407,1.576-0.557      c2.118-0.596,4.154-1.691,6.047-3.281c1.926-1.57,3.885-3.577,5.711-6.146c1.924-2.496,3.327-4.914,4.251-7.232      c0.987-2.264,1.456-4.523,1.424-6.719c-0.057-2.218,0.572-4.454,1.739-6.757c0.593-1.142,1.326-2.315,2.226-3.474      c0.924-1.134,1.993-2.276,3.192-3.416c2.409-2.361,4.854-3.949,7.234-5.059c1.178-0.521,2.305-0.774,3.414-0.709      c1.112,0.068,2.171,0.412,3.171,1.02c2.002,1.215,3.933,2.978,5.752,5.278c0.91,1.15,1.282,2.252,1.141,3.293      c-0.137,1.047-0.815,2-1.929,2.992c-2.246,1.939-4.372,2.373-6.426,1.253c-2.08-1.176-3.623-1.152-4.79-0.052      c-1.119,1.065-1.207,2.63-0.173,4.754c0.986,2.094,2.532,4.183,4.607,6.257c2.065,2.064,4.172,3.635,6.212,4.719      c2.034,1.091,4.043,1.735,5.999,1.896c1.992,0.126,3.449,0.763,4.433,1.835c1.019,1.114,1.046,2.583,0.199,4.396      c-0.416,0.914-0.966,1.801-1.604,2.701c-0.616,0.922-1.348,1.83-2.198,2.722c-1.771,1.783-2.869,3.681-3.558,5.565      c-0.319,0.934-0.412,1.74-0.274,2.434c0.151,0.705,0.516,1.285,1.085,1.748c0.568,0.463,1.204,0.701,1.9,0.712      c0.709,0.022,1.496-0.169,2.342-0.591c1.734-0.866,3.276-2.15,4.928-3.807c0,0,0.374-0.392,1.027-1.078      c0.326-0.344,0.722-0.761,1.177-1.239c0.459-0.474,1.014-0.971,1.598-1.536c1.192-1.103,2.504-2.475,4.073-3.766      c0.767-0.665,1.559-1.352,2.364-2.05l0.605-0.527l0.636-0.497c0.424-0.333,0.85-0.666,1.277-1c0.85-0.67,1.7-1.34,2.537-2      c0.869-0.617,1.723-1.224,2.551-1.812c0.83-0.583,1.617-1.17,2.389-1.688c0.784-0.5,1.524-0.974,2.208-1.411      c1.369-0.871,2.49-1.631,3.327-2.074c0.821-0.471,1.29-0.74,1.29-0.74L1430.77,1729.494z M1386.473,1918.72      c-1.854-1.872-3.619-3.419-5.496-4.439c-0.925-0.521-1.907-0.788-2.892-0.85c-0.981-0.064-2.007,0.111-3.073,0.531      c-2.138,0.83-3.868,2.18-5.172,4.158c-0.634,0.968-1.009,1.971-1.121,3.01c-0.108,1.035,0.087,2.072,0.53,3.15      c0.904,2.139,2.292,4.443,4.38,6.563c1.029,1.08,2.069,2.025,3.107,2.834c1.06,0.786,2.144,1.409,3.193,1.915      c2.155,1.037,4.185,0.982,6.207-0.179c2.046-1.201,3.493-2.85,4.449-4.925c0.94-2.077,0.985-4.099,0.004-6.027      c-0.462-0.959-1.059-1.893-1.749-2.844C1388.172,1920.642,1387.385,1919.677,1386.473,1918.72z M1349.436,1832.938      c-0.058-0.668-0.114-1.311-0.169-1.934c-0.064-0.621-0.15-1.22-0.259-1.798c-0.218-1.157-0.527-2.233-0.922-3.252      c-0.408-0.994-0.913-1.83-1.631-2.51c-0.715-0.68-1.617-1.205-2.705-1.57c-2.176-0.729-4.369-0.807-6.635-0.142      c-1.106,0.333-2.034,0.86-2.783,1.582c-0.746,0.722-1.338,1.641-1.657,2.75c-0.337,1.136-0.589,2.353-0.745,3.664      c-0.078,0.656-0.133,1.334-0.162,2.039c-0.015,0.352-0.023,0.71-0.025,1.075c0.01,0.365,0.034,0.735,0.061,1.113      c0.109,1.482,0.314,2.874,0.604,4.16c0.299,1.286,0.638,2.471,1.161,3.529c0.999,2.124,2.64,3.393,4.904,3.8      c2.32,0.412,4.489,0.08,6.574-0.906c2.087-0.979,3.371-2.501,3.844-4.556c0.217-1.026,0.451-2.136,0.542-3.311      C1349.534,1835.496,1349.536,1834.251,1349.436,1832.938z M1376.215,1743.358c1.62-2.088,2.752-4.149,3.424-6.18      c0.743-1.969,0.54-3.974-0.654-5.947c-1.202-1.963-2.83-3.434-4.988-4.378c-2.122-0.901-4.224-0.716-6.233,0.5      c-1.943,1.266-3.885,3.087-5.709,5.449c-1.726,2.435-2.958,4.788-3.585,7.034c-0.597,2.27-0.178,4.336,1.291,6.111      c1.52,1.797,3.395,2.937,5.621,3.529c2.233,0.581,4.216,0.205,5.895-1.067      C1373.001,1747.164,1374.694,1745.519,1376.215,1743.358z"
/>
<path
   style="fill:#FFA227;"
   d="M1432.665,1911.287l-1.867-1.202c0,0-0.469-0.298-0.937-0.596      c-0.235-0.148-0.469-0.297-0.645-0.408c-0.17-0.121-0.283-0.201-0.283-0.201s-0.562-0.403-1.546-1.109      c-0.495-0.349-1.095-0.774-1.784-1.26c-0.696-0.478-1.414-1.107-2.239-1.738c-0.409-0.32-0.835-0.653-1.276-0.998      c-0.221-0.172-0.446-0.346-0.675-0.523c-0.218-0.19-0.44-0.383-0.664-0.578c-0.9-0.779-1.85-1.6-2.833-2.449      c-1.884-1.788-3.929-3.661-5.797-5.711c-0.476-0.504-0.967-0.993-1.433-1.502c-0.45-0.523-0.897-1.045-1.342-1.562      c-0.886-1.036-1.804-2.018-2.573-3.066c-0.801-1.021-1.576-2.009-2.31-2.945c-0.687-0.971-1.337-1.888-1.937-2.735      c-0.298-0.424-0.602-0.819-0.862-1.214c-0.253-0.399-0.493-0.778-0.719-1.134c-0.455-0.709-0.852-1.328-1.179-1.837      c-0.676-1.005-0.999-1.617-0.999-1.617s-0.546-0.955-1.093-1.91c-0.276-0.476-0.552-0.952-0.76-1.308      c-0.104-0.178-0.19-0.327-0.251-0.431c-0.054-0.107-0.085-0.169-0.085-0.169l-0.338-0.671l-0.34-0.67      c0,0-0.421-0.819-1.052-2.047c-0.336-0.604-0.661-1.341-1.008-2.131c-0.356-0.785-0.736-1.623-1.116-2.461      c-0.411-0.825-0.691-1.704-1.021-2.5c-0.318-0.801-0.615-1.549-0.869-2.19c-0.274-0.634-0.429-1.189-0.561-1.568      c-0.127-0.381-0.2-0.599-0.2-0.599l-0.469-1.386c0,0-0.18-0.524-0.359-1.047c-0.09-0.262-0.18-0.524-0.247-0.72      c-0.055-0.2-0.092-0.333-0.092-0.333l-0.587-2.096c0,0-0.191-0.663-0.524-1.822c-0.329-1.161-0.656-2.856-1.15-4.865      c-0.787-4.061-1.738-9.515-2-15.067c-0.078-0.689-0.066-1.386-0.085-2.078c-0.017-0.692-0.034-1.382-0.051-2.066      c-0.012-0.684-0.056-1.363-0.048-2.033c0.02-0.67,0.04-1.333,0.059-1.984c0.015-0.651,0.03-1.292,0.045-1.919      c0.01-0.627,0.015-1.242,0.08-1.834c0.091-1.188,0.177-2.311,0.257-3.347c0.046-1.041,0.198-1.98,0.304-2.816      c0.105-0.836,0.197-1.565,0.273-2.165c0.125-1.205,0.271-1.88,0.271-1.88l0.778-4.364l0.174-0.73l0.164-0.695      c0,0,0.206-0.896,0.516-2.24c0.075-0.337,0.157-0.701,0.243-1.087c0.109-0.38,0.224-0.78,0.342-1.195      c0.235-0.829,0.486-1.713,0.737-2.597c0.13-0.441,0.23-0.891,0.381-1.318c0.147-0.428,0.292-0.849,0.433-1.256      c0.275-0.817,0.532-1.579,0.753-2.232c0.21-0.657,0.399-1.2,0.561-1.568c0.15-0.374,0.235-0.587,0.235-0.587l0.539-1.361      l0.803-2.064l0.922-2.015c0,0,0.283-0.63,0.777-1.731c0.229-0.559,0.57-1.21,0.961-1.955c0.383-0.749,0.815-1.595,1.286-2.517      c1.985-3.635,4.815-8.399,8.134-12.838c3.319-4.438,7.067-8.535,9.99-11.488c1.525-1.411,2.734-2.655,3.655-3.444      c0.919-0.791,1.443-1.243,1.443-1.243s0.838-0.731,1.675-1.463c0.874-0.686,1.749-1.373,1.749-1.373l0.563-0.443l0.591-0.467      c0,0,0.163-0.129,0.448-0.355c0.282-0.229,0.688-0.555,1.205-0.903c1.027-0.706,2.359-1.702,3.734-2.633      c1.398-0.896,2.797-1.791,3.846-2.463c1.082-0.615,1.803-1.026,1.803-1.026l-4.422-7.643c0,0-0.781,0.451-2.245,1.296      c-0.711,0.458-1.588,1.022-2.619,1.686c-0.517,0.329-1.073,0.683-1.667,1.06c-0.572,0.409-1.179,0.845-1.822,1.304      c-0.644,0.456-1.323,0.937-2.035,1.442c-0.723,0.49-1.41,1.097-2.167,1.674c-0.75,0.587-1.531,1.197-2.34,1.831      c-0.777,0.673-1.583,1.37-2.415,2.09c-1.705,1.395-3.348,3.07-5.152,4.756c-0.892,0.854-1.73,1.806-2.636,2.733      c-0.449,0.468-0.903,0.941-1.362,1.419c-0.433,0.502-0.872,1.009-1.314,1.521c-0.444,0.512-0.892,1.029-1.345,1.551      c-0.453,0.522-0.924,1.038-1.344,1.605c-0.871,1.107-1.759,2.235-2.661,3.383c-0.848,1.188-1.71,2.396-2.585,3.623      c-0.219,0.307-0.438,0.615-0.659,0.924c-0.203,0.32-0.407,0.642-0.612,0.965c-0.412,0.644-0.827,1.292-1.245,1.945      c-3.299,5.248-6.34,11.056-8.877,17.314c-2.541,6.255-4.575,12.957-5.947,19.916c-1.376,6.959-2.088,14.172-2.098,21.425      c0.01,7.253,0.722,14.466,2.098,21.425c1.372,6.96,3.406,13.661,5.947,19.916c2.537,6.258,5.578,12.067,8.877,17.315      c0.418,0.653,0.833,1.301,1.245,1.945c0.205,0.323,0.409,0.644,0.612,0.965c0.22,0.309,0.44,0.617,0.659,0.923      c0.875,1.227,1.737,2.435,2.585,3.623c0.903,1.147,1.79,2.275,2.661,3.383c0.42,0.567,0.89,1.083,1.344,1.605      c0.453,0.522,0.901,1.039,1.345,1.551c0.443,0.513,0.881,1.02,1.314,1.521c0.459,0.478,0.913,0.952,1.362,1.419      c0.906,0.927,1.744,1.879,2.636,2.733c1.804,1.686,3.446,3.361,5.152,4.756c0.832,0.72,1.638,1.417,2.415,2.09      c0.81,0.633,1.59,1.244,2.34,1.831c0.757,0.577,1.444,1.184,2.167,1.674c0.712,0.504,1.391,0.985,2.035,1.442      c0.642,0.46,1.25,0.895,1.822,1.304c0.593,0.377,1.149,0.731,1.667,1.06c1.031,0.664,1.908,1.228,2.619,1.686      c1.464,0.845,2.245,1.296,2.245,1.296l4.422-7.643l-1.274-0.727c0,0-0.319-0.181-0.638-0.362      C1432.973,1911.487,1432.665,1911.287,1432.665,1911.287z"
/>
<path
   style="fill:#E0486C;"
   d="M1596.087,1824.957c0,0-0.026-0.905-0.074-2.602c-0.02-0.849-0.044-1.895-0.073-3.125      c-0.095-1.225-0.204-2.632-0.326-4.208c-0.594-6.276-1.838-15.277-5.382-25.499c-3.379-10.247-9.153-21.666-17.49-32.349      c-4.165-5.335-8.972-10.466-14.323-15.15c-5.348-4.686-11.236-8.921-17.48-12.531c-6.242-3.613-12.835-6.597-19.544-8.879      c-6.709-2.286-13.531-3.869-20.227-4.804c-0.839-0.107-1.674-0.213-2.506-0.318c-0.831-0.111-1.657-0.229-2.49-0.268      c-1.66-0.111-3.301-0.266-4.929-0.362c-1.634-0.041-3.249-0.081-4.845-0.121c-1.596-0.016-3.173,0.076-4.729,0.096      c-1.559-0.008-3.081,0.173-4.587,0.274c-0.752,0.055-1.499,0.109-2.24,0.164c-0.74,0.062-1.466,0.184-2.19,0.269      c-0.724,0.092-1.441,0.182-2.152,0.272c-0.71,0.096-1.421,0.151-2.109,0.298c-1.384,0.247-2.742,0.49-4.073,0.728      c-10.606,2.132-19.054,5.424-24.761,8.078c-1.454,0.612-2.688,1.295-3.78,1.849c-1.086,0.567-2.03,1.01-2.764,1.429      c-1.464,0.846-2.244,1.297-2.244,1.297l-4.395-7.596c0,0,1.124-0.647,2.809-1.618c0.866-0.442,1.877-0.958,2.959-1.51      c1.082-0.553,2.224-1.171,3.419-1.675c1.181-0.535,2.361-1.069,3.468-1.57c1.108-0.498,2.181-0.871,3.08-1.24      c0.904-0.358,1.657-0.656,2.184-0.864c0.263-0.105,0.47-0.187,0.611-0.243c0.144-0.049,0.22-0.076,0.22-0.076      c2.183-0.719,3.955-1.777,5.399-2.991c1.499-1.177,2.022-2.496,1.624-3.907c-0.398-1.411-1.545-2.242-3.573-2.438      c-1.963-0.149-4.127,0.26-6.473,1.038c-2.296,0.887-4.459,1.338-6.484,1.339c-1.981,0.1-3.31-0.485-3.931-1.862      c-0.597-1.327-0.611-2.931,0.003-4.817c0.649-1.93,0.885-3.954,0.688-6.252c-0.182-2.287-0.787-4.833-1.866-7.548      c-1.083-2.725-2.394-4.981-3.936-6.731c-1.543-1.791-3.049-2.403-4.504-1.723c-1.412,0.634-2.027,2.086-1.778,4.442      c0.216,2.328-1.074,4.007-3.701,5.395c-2.691,1.376-4.709,0.782-6.112-1.794c-1.395-2.58-2.26-5.036-2.567-7.346      c-0.32-2.303,0.441-4.395,2.321-6.181c0.473-0.44,0.975-0.886,1.527-1.296c0.556-0.402,1.149-0.794,1.776-1.176      c1.254-0.764,2.646-1.487,4.16-2.165c1.53-0.719,3.043-1.162,4.458-1.552c1.423-0.373,2.781-0.618,4.09-0.738      c2.574-0.183,4.881,0.265,6.92,1.108c0.994,0.439,2.043,0.77,3.158,0.983c1.12,0.228,2.32,0.384,3.593,0.393      c2.495,0.053,5.251-0.369,8.34-1.032c1.533-0.355,2.957-0.783,4.273-1.277c1.32-0.472,2.542-0.952,3.646-1.528      c1.105-0.568,2.109-1.216,3.012-1.938c0.451-0.361,0.877-0.741,1.276-1.138c0.401-0.384,0.777-0.778,1.126-1.194      c1.395-1.66,3.31-3.029,5.686-4.067c1.186-0.538,2.509-0.875,3.945-1.173c1.436-0.289,2.988-0.491,4.637-0.61      c0.414-0.029,0.822-0.056,1.224-0.069c0.402-0.001,0.798,0.003,1.188,0.013c0.78,0.021,1.534,0.065,2.262,0.134      c1.456,0.138,2.807,0.373,4.041,0.711c1.266,0.323,2.301,0.929,3.113,1.688c0.812,0.763,1.401,1.703,1.782,2.81      c0.75,2.213,1.035,4.801,0.951,7.732c-0.092,2.932-1.612,4.345-4.582,4.279c-2.974,0.067-4.878-0.952-5.717-3.124      c-0.417-1.114-0.936-1.929-1.545-2.461c-0.305-0.266-0.632-0.461-0.98-0.585c-0.348-0.111-0.717-0.151-1.104-0.122      c-1.552,0.114-2.661,1.27-3.246,3.571c-0.58,2.245-0.697,4.841-0.444,7.763c0.252,2.911,0.81,5.466,1.663,7.601      c0.865,2.134,2.018,3.904,3.419,5.268c1.401,1.343,2.102,2.849,2.164,4.286c0.064,1.51-0.818,2.584-2.629,3.477      c-0.931,0.442-1.919,0.799-2.988,1.069c-0.534,0.135-1.089,0.248-1.666,0.339c-0.574,0.122-1.17,0.223-1.793,0.302      c-2.442,0.327-4.578,0.874-6.255,1.966c-1.684,1.053-2.386,2.308-2.11,3.748c0.276,1.439,1.38,2.387,3.208,2.798      c1.823,0.359,3.902,0.568,6.173,0.26c0,0,0.215-0.028,0.617-0.08c0.403-0.046,0.99-0.149,1.749-0.188      c0.756-0.057,1.675-0.125,2.728-0.204c0.527-0.041,1.087-0.084,1.678-0.13c0.295-0.023,0.598-0.047,0.908-0.072      c0.311-0.008,0.63-0.016,0.955-0.024c5.201-0.243,12.165-0.09,19.048,0.692c0.859,0.109,1.718,0.218,2.574,0.327      c0.854,0.115,1.713,0.188,2.547,0.363c1.677,0.299,3.328,0.593,4.925,0.877c3.159,0.737,6.126,1.352,8.604,2.128      c1.244,0.367,2.401,0.649,3.399,0.987c0.998,0.339,1.868,0.635,2.584,0.878c1.435,0.482,2.254,0.758,2.254,0.758      c2.136,0.826,4.16,1.213,6.064,1.171c1.863,0.05,3.15-0.604,3.752-1.94c0.603-1.337,0.218-2.732-1.166-4.172      c-1.424-1.336-3.331-2.472-5.629-3.357c-2.345-0.778-4.265-1.874-5.829-3.134c-1.625-1.215-2.221-2.509-1.811-3.962      c0.396-1.4,1.406-2.638,3.097-3.682c0.844-0.517,1.656-1.166,2.414-1.883c0.757-0.716,1.471-1.542,2.137-2.475      c1.321-1.869,2.453-4.221,3.372-6.995c0.921-2.784,1.41-5.342,1.366-7.671c-0.019-1.193-0.228-2.138-0.62-2.847      c-0.392-0.707-0.979-1.137-1.726-1.356c-1.499-0.429-2.937,0.275-4.272,2.235c-0.656,0.955-1.508,1.561-2.553,1.83      c-1.043,0.261-2.301,0.278-3.754-0.069c-2.891-0.668-4.055-2.423-3.474-5.298c0.59-2.873,1.46-5.32,2.697-7.288      c1.245-1.966,3.222-3.066,5.811-3.22c0.646-0.036,1.314-0.042,2.004-0.017c0.688,0.034,1.389,0.128,2.115,0.236      c1.45,0.224,2.98,0.569,4.581,1.029c1.609,0.435,3.065,1.026,4.391,1.661c1.327,0.633,2.521,1.32,3.571,2.063      c0.523,0.378,1.018,0.756,1.47,1.172c0.45,0.423,0.866,0.858,1.248,1.305c0.764,0.893,1.39,1.833,1.874,2.812      c0.966,1.965,2.429,3.711,4.29,5.387c1.866,1.665,4.273,3.089,7.049,4.567c1.427,0.729,2.792,1.318,4.115,1.788      c1.323,0.47,2.561,0.9,3.803,1.179c1.211,0.275,2.386,0.418,3.536,0.442c0.575,0.012,1.143-0.006,1.706-0.053      c0.555-0.033,1.103-0.092,1.648-0.18c2.126-0.383,4.433-0.231,6.973,0.532c2.458,0.771,5.025,2.218,7.732,4.147      c2.623,2.02,4.723,4.112,6.185,6.218c1.405,2.18,1.655,4.398,0.809,6.568c-0.834,2.181-2.243,4.375-4.194,6.564      c-1.957,2.184-4.049,2.291-6.292,0.354c-1.13-1.008-1.942-1.935-2.332-2.945c-0.397-1.002-0.405-2.046-0.028-3.144      c0.778-2.243,0.502-3.836-0.737-4.778c-1.266-0.907-2.871-0.737-4.79,0.657c-1.89,1.348-3.694,3.232-5.376,5.633      c-1.676,2.392-2.847,4.739-3.564,6.921c-0.716,2.183-0.96,4.283-0.76,6.223c0.175,1.977-0.228,3.543-1.112,4.694      c-0.46,0.599-1.047,0.961-1.755,1.104c-0.354,0.071-0.738,0.088-1.152,0.05c-0.42-0.03-0.88-0.099-1.367-0.223      c-0.98-0.243-1.967-0.599-2.96-1.075c-0.497-0.238-0.995-0.505-1.495-0.803c-0.498-0.3-1.03-0.583-1.547-0.923      c-2.092-1.319-4.073-2.267-6.059-2.51c-1.967-0.277-3.311,0.233-4.025,1.513c-0.714,1.28-0.477,2.716,0.66,4.207      c1.166,1.45,2.618,2.939,4.566,4.164c0,0,0.182,0.116,0.524,0.334c0.171,0.109,0.382,0.243,0.63,0.401      c0.239,0.171,0.514,0.368,0.823,0.588c0.617,0.439,1.366,0.973,2.225,1.584c0.431,0.305,0.889,0.629,1.371,0.971      c0.485,0.34,0.958,0.746,1.472,1.142c1.022,0.802,2.129,1.67,3.299,2.589c1.124,0.975,2.31,2.003,3.536,3.067      c0.627,0.517,1.221,1.09,1.822,1.671c0.604,0.577,1.217,1.16,1.833,1.749c1.265,1.145,2.422,2.437,3.624,3.683      c4.766,5.031,9.014,10.522,11.941,14.811c1.425,2.169,2.58,3.999,3.396,5.274c0.752,1.314,1.182,2.064,1.182,2.064      c0.581,1.013,1.21,1.899,1.882,2.687c0.625,0.812,1.302,1.52,2.032,2.147c1.439,1.213,2.848,1.488,4.167,0.85      c1.32-0.639,1.919-1.906,1.74-3.876c-0.105-1.002-0.326-2.022-0.663-3.071c-0.383-1.024-0.891-2.072-1.516-3.161      c-0.307-0.534-0.584-1.065-0.832-1.593c-0.237-0.533-0.466-1.05-0.69-1.554c-0.427-1.014-0.737-2.017-0.93-3.004      c-0.389-1.97-0.031-3.39,1.204-4.233c0.601-0.409,1.301-0.69,2.096-0.827c0.785-0.13,1.665-0.116,2.645,0.054      c1.932,0.297,4.029,0.135,6.255-0.457c2.231-0.585,4.638-1.629,7.123-3.164c2.495-1.542,4.482-3.223,5.926-5.038      c1.497-1.833,1.776-3.381,0.939-4.681c-0.437-0.672-1.022-1.109-1.806-1.279c-0.789-0.167-1.748-0.085-2.891,0.245      c-2.252,0.617-4.212-0.301-5.938-2.715c-1.817-2.354-1.639-4.457,0.657-6.288c2.298-1.822,4.58-3.094,6.803-3.815      c1.111-0.361,2.218-0.45,3.312-0.259c1.097,0.189,2.182,0.659,3.186,1.455c1.031,0.814,2.033,1.76,3.019,2.848      c0.99,1.085,1.969,2.309,2.864,3.742c1.781,2.793,3.129,5.423,3.696,7.96c0.595,2.52,0.671,4.858,0.157,6.977      c-0.545,2.138-0.618,4.453-0.192,6.894c0.103,0.612,0.251,1.229,0.399,1.873c0.142,0.647,0.313,1.306,0.513,1.977      c0.401,1.343,0.921,2.735,1.568,4.175c0.674,1.429,1.257,2.793,1.96,4.006c0.687,1.22,1.42,2.319,2.194,3.3      c1.527,1.969,3.187,3.532,5.114,4.603c0.955,0.538,1.863,1.216,2.717,2.029c0.841,0.816,1.581,1.782,2.281,2.868      c1.37,2.18,2.556,4.918,3.256,8.163c0.382,1.647,0.647,3.192,0.797,4.651c0.128,1.463,0.082,2.852-0.044,4.164      c-0.29,2.571-1.5,4.429-3.532,5.545c-2.064,1.124-4.563,1.911-7.466,2.331c-1.451,0.21-2.587-0.021-3.407-0.667      c-0.854-0.642-1.409-1.696-1.671-3.165c-0.517-2.925,0.196-4.989,2.139-6.195c2.031-1.206,2.818-2.564,2.455-4.128      c-0.355-1.506-1.637-2.376-4.013-2.54c-2.332-0.19-4.929,0.106-7.761,0.864c-2.822,0.755-5.222,1.789-7.157,3.006      c-1.943,1.209-3.535,2.634-4.661,4.247c-1.12,1.664-2.408,2.607-3.829,2.921c-1.475,0.324-2.75-0.391-3.875-2.035      c-0.284-0.411-0.551-0.845-0.799-1.303c-0.26-0.455-0.528-0.927-0.765-1.427c-0.48-0.997-0.89-2.086-1.225-3.271      c-0.317-1.215-0.789-2.285-1.305-3.254c-0.515-0.97-1.09-1.835-1.732-2.604c-0.322-0.372-0.639-0.681-0.973-0.921      c-0.342-0.236-0.684-0.409-1.026-0.52c-0.684-0.222-1.367-0.195-2.052,0.066c-0.685,0.261-1.21,0.693-1.571,1.291      c-0.18,0.299-0.319,0.64-0.415,1.021c-0.105,0.385-0.185,0.817-0.216,1.289c-0.059,0.966-0.024,1.949,0.121,2.967      c0.146,1.017,0.417,2.063,0.708,3.194c0,0,0.147,0.52,0.404,1.43c0.13,0.455,0.287,1.007,0.467,1.64      c0.179,0.634,0.402,1.343,0.565,2.138c0.348,1.583,0.813,3.418,1.223,5.402c0.177,0.998,0.36,2.029,0.546,3.077      c0.171,1.05,0.422,2.105,0.526,3.183c0.136,1.073,0.271,2.147,0.405,3.203c0.14,1.056,0.283,2.094,0.333,3.11      c0.077,1.013,0.151,1.991,0.221,2.919c0.061,0.929,0.171,1.803,0.165,2.618c0.084,3.252,0.139,5.42,0.139,5.42H1596.087z       M1454.336,1691.983c1.283-0.296,2.472-0.669,3.567-1.116c1.099-0.425,2.116-0.865,3.03-1.412c1.83-1.066,2.92-2.75,3.263-5.038      c0.355-2.258,0.055-4.431-1.003-6.56c-1.033-2.045-2.715-3.238-5.031-3.562c-1.156-0.155-2.409-0.241-3.728-0.158      c-1.315,0.105-2.706,0.322-4.156,0.658c-2.924,0.624-5.345,1.779-7.277,3.077c-0.992,0.661-1.731,1.442-2.223,2.345      c-0.482,0.933-0.719,1.979-0.726,3.139c0.015,2.368,0.72,4.446,2.041,6.315c0.666,0.933,1.426,1.641,2.286,2.123      c0.869,0.512,1.841,0.807,2.926,0.876C1449.433,1692.842,1451.748,1692.527,1454.336,1691.983z M1547.155,1702.815      c1.194,0.612,2.344,1.092,3.468,1.456c1.124,0.364,2.179,0.693,3.254,0.87c2.086,0.361,4.004-0.229,5.736-1.759      c1.715-1.507,2.881-3.365,3.448-5.671c0.525-2.234,0.002-4.227-1.562-5.965c-0.812-0.871-1.709-1.756-2.782-2.523      c-1.073-0.766-2.277-1.496-3.627-2.186c-2.626-1.403-5.247-2.05-7.551-2.318c-2.307-0.274-4.249,0.567-5.736,2.337      c-1.521,1.817-2.316,3.862-2.497,6.149c-0.189,2.286,0.511,4.105,2.021,5.619      C1542.836,1700.343,1544.836,1701.566,1547.155,1702.815z M1611.352,1770.805c0.572,1.193,1.06,2.334,1.678,3.338      c0.601,1.01,1.26,1.914,1.971,2.712c1.392,1.607,3.169,2.454,5.485,2.403c2.296-0.058,4.384-0.733,6.285-2.133      c1.83-1.384,2.78-3.321,2.672-5.651c-0.064-1.16-0.245-2.389-0.549-3.676c-0.32-1.28-0.69-2.648-1.33-3.998      c-0.613-1.362-1.282-2.602-1.994-3.712c-0.356-0.555-0.723-1.078-1.1-1.568c-0.383-0.487-0.803-0.927-1.215-1.342      c-1.661-1.655-3.655-2.326-5.923-1.939c-2.312,0.42-4.235,1.477-5.861,3.114c-1.62,1.648-2.289,3.558-2.034,5.653      c0.058,0.527,0.161,1.055,0.263,1.605c0.096,0.553,0.221,1.114,0.375,1.683      C1610.384,1768.43,1610.807,1769.601,1611.352,1770.805z"
/>
<path
   style="fill:#FFA227;"
   d="M1437.736,1735.677l1.977-1.003l1.969-1.018c0,0,0.148-0.091,0.447-0.216      c0.296-0.132,0.729-0.325,1.28-0.571c0.55-0.249,1.218-0.552,1.984-0.899c0.385-0.169,0.783-0.376,1.223-0.546      c0.439-0.171,0.901-0.35,1.384-0.537c0.962-0.38,2.004-0.792,3.107-1.228c1.123-0.378,2.307-0.776,3.533-1.189      c0.306-0.105,0.614-0.212,0.924-0.319c0.311-0.104,0.634-0.179,0.953-0.272c0.64-0.18,1.288-0.363,1.942-0.547      c0.652-0.189,1.309-0.379,1.969-0.57c0.67-0.152,1.342-0.305,2.015-0.458c0.672-0.156,1.344-0.313,2.013-0.468l1.001-0.234      c0.337-0.058,0.674-0.116,1.009-0.173c1.338-0.241,2.654-0.478,3.928-0.708c2.579-0.278,4.964-0.702,7.047-0.783      c1.036-0.082,1.986-0.156,2.828-0.223c0.843-0.059,1.585-0.041,2.192-0.065c1.216-0.031,1.911-0.049,1.911-0.049      s0.276-0.008,0.691-0.021c0.415-0.02,0.968-0.033,1.521-0.002c1.106,0.031,2.213,0.062,2.213,0.062l0.756,0.017l0.756,0.016      c0,0,0.232,0.004,0.637,0.012c0.405,0.013,0.979,0.077,1.671,0.127c0.691,0.052,1.497,0.113,2.361,0.179      c0.432,0.031,0.879,0.063,1.332,0.095c0.45,0.06,0.907,0.121,1.364,0.182c1.825,0.258,3.668,0.406,5.018,0.707      c1.359,0.243,2.265,0.405,2.265,0.405s0.361,0.063,0.722,0.125c0.18,0.031,0.361,0.062,0.497,0.085      c0.136,0.021,0.225,0.043,0.225,0.043l2.156,0.508l2.123,0.483c0,0,0.168,0.037,0.484,0.108      c0.311,0.089,0.766,0.221,1.346,0.387c0.58,0.165,1.285,0.365,2.093,0.595c0.405,0.112,0.836,0.232,1.29,0.358      c0.45,0.138,0.915,0.313,1.405,0.476c0.98,0.33,2.042,0.687,3.165,1.064c1.111,0.411,2.263,0.899,3.471,1.361      c1.219,0.436,2.424,1.017,3.662,1.577c0.62,0.278,1.245,0.557,1.872,0.838c0.63,0.276,1.228,0.626,1.846,0.933      c0.615,0.314,1.23,0.628,1.842,0.941l0.919,0.464c0.302,0.162,0.592,0.342,0.887,0.511c1.18,0.677,2.342,1.342,3.466,1.987      c2.165,1.428,4.249,2.663,5.903,3.923c0.843,0.606,1.63,1.141,2.309,1.641c0.661,0.524,1.238,0.981,1.713,1.357      c0.955,0.746,1.5,1.172,1.5,1.172s0.219,0.172,0.546,0.429c0.314,0.275,0.732,0.641,1.15,1.007      c0.841,0.727,1.682,1.454,1.682,1.454l0.573,0.49c0,0,0.139,0.113,0.27,0.236c0.129,0.125,0.258,0.249,0.258,0.249      s0.667,0.639,1.667,1.598c0.497,0.482,1.099,1.023,1.711,1.635c0.596,0.629,1.231,1.299,1.867,1.969      c1.314,1.302,2.479,2.737,3.395,3.777c0.456,0.521,0.836,0.956,1.102,1.26c0.249,0.318,0.392,0.499,0.392,0.499l0.904,1.159      l1.378,1.745c0,0,0.087,0.109,0.217,0.272c0.135,0.159,0.293,0.388,0.452,0.616c0.32,0.454,0.64,0.908,0.64,0.908      s0.401,0.564,1.103,1.55c0.744,0.959,1.628,2.447,2.761,4.184c2.161,3.533,4.939,8.334,7.059,13.436      c2.174,5.074,3.887,10.325,4.95,14.323c0.508,2.005,0.854,3.695,1.148,4.866c0.155,0.584,0.207,1.058,0.27,1.375      c0.055,0.319,0.085,0.489,0.085,0.489s0.195,1.091,0.389,2.182c0.1,0.545,0.199,1.09,0.274,1.499      c0.049,0.413,0.082,0.689,0.082,0.689l0.087,0.71l0.093,0.747c0,0,0.107,0.823,0.267,2.058c0.101,0.615,0.15,1.342,0.2,2.12      c0.059,0.778,0.122,1.608,0.185,2.438c0.034,0.415,0.068,0.829,0.101,1.238c0.031,0.409,0.021,0.815,0.034,1.205      c0.018,0.782,0.036,1.512,0.05,2.138c0.038,1.252,0.064,2.086,0.064,2.086h8.83c0,0-0.026-0.905-0.074-2.602      c-0.02-0.849-0.044-1.895-0.073-3.125c-0.095-1.225-0.204-2.632-0.326-4.208c-0.594-6.276-1.838-15.277-5.382-25.499      c-3.379-10.247-9.153-21.666-17.49-32.349c-4.165-5.335-8.972-10.466-14.323-15.15c-5.348-4.686-11.236-8.921-17.48-12.531      c-6.242-3.613-12.835-6.597-19.544-8.879c-6.709-2.286-13.531-3.869-20.227-4.804c-0.839-0.107-1.674-0.213-2.506-0.318      c-0.831-0.111-1.657-0.229-2.49-0.268c-1.66-0.111-3.301-0.266-4.929-0.362c-1.634-0.041-3.249-0.081-4.845-0.121      c-1.596-0.016-3.173,0.076-4.729,0.096c-1.559-0.008-3.081,0.173-4.587,0.274c-0.752,0.055-1.499,0.109-2.24,0.164      c-0.74,0.062-1.466,0.184-2.19,0.269c-0.724,0.092-1.441,0.182-2.152,0.272c-0.71,0.096-1.421,0.151-2.109,0.298      c-1.384,0.247-2.742,0.49-4.073,0.728c-10.606,2.132-19.054,5.424-24.761,8.078c-1.454,0.612-2.688,1.295-3.78,1.849      c-1.086,0.567-2.03,1.01-2.764,1.429c-1.464,0.846-2.244,1.297-2.244,1.297l4.422,7.643l1.271-0.733      c0,0,0.317-0.185,0.634-0.369c0.158-0.093,0.317-0.185,0.435-0.255C1437.654,1735.719,1437.736,1735.677,1437.736,1735.677z"
/>
<path
   style="fill:#00BF33;"
   d="M1553.872,1842.656c-1.821-1.613-4.182-2.754-7.015-3.508l-8.532-2.278    c-2.825-0.757-5.201-1.811-7.192-2.993c-1.986-1.178-2.85-2.291-2.657-3.517c0.057-0.318,0.18-0.601,0.369-0.855    c0.177-0.256,0.412-0.483,0.718-0.684c0.61-0.401,1.485-0.701,2.619-0.916c0,0,0.429-0.084,1.072-0.209    c0.633-0.13,1.478-0.314,2.325-0.513c1.693-0.394,3.394-0.866,3.394-0.866c2.274-0.628,3.396-1.849,3.445-3.493    c-0.05-1.693-1.172-2.877-3.445-3.494c0,0-1.7-0.473-3.394-0.866c-0.847-0.199-1.692-0.383-2.325-0.513    c-0.643-0.125-1.072-0.209-1.072-0.209c-1.134-0.22-2.011-0.529-2.621-0.934c-0.307-0.202-0.54-0.43-0.719-0.683    c-0.188-0.251-0.31-0.529-0.366-0.838c-0.194-1.235,0.659-2.385,2.645-3.566c1.993-1.175,4.361-2.239,7.187-3l8.529-2.288    c2.832-0.758,5.208-1.844,7.034-3.442c1.898-1.629,2.385-3.527,1.68-5.57c-0.778-2.016-2.367-3.158-4.869-3.181    c-2.427-0.047-4.945,0.651-7.601,1.893l-8.001,3.737c-2.656,1.238-5.147,1.943-7.43,2.326c-2.282,0.375-3.675,0.042-4.321-1.03    c-0.156-0.272-0.242-0.564-0.259-0.877c-0.03-0.306,0.006-0.633,0.111-0.985c0.208-0.703,0.681-1.504,1.409-2.403    c0,0,0.272-0.338,0.68-0.845c0.402-0.508,0.932-1.192,1.454-1.891c1.046-1.392,2.045-2.849,2.045-2.849    c0.669-0.968,1.022-1.849,1.086-2.668c0.056-0.811-0.149-1.582-0.71-2.215c-0.533-0.616-1.212-0.97-2.015-1.048    c-0.821-0.063-1.769,0.15-2.824,0.631c0,0-1.61,0.715-3.164,1.49c-1.579,0.788-3.098,1.632-3.098,1.632    c-1.002,0.562-1.855,0.887-2.575,0.975c-0.733,0.102-1.327-0.039-1.797-0.449c-0.484-0.431-0.762-0.965-0.793-1.709    c-0.036-0.736,0.15-1.653,0.52-2.724c0.744-2.161,1.901-4.518,3.575-6.912l5.067-7.232c1.681-2.397,2.818-4.774,3.19-7.166    c0.191-1.216,0.086-2.272-0.3-3.168c-0.193-0.447-0.453-0.859-0.785-1.221c-0.337-0.353-0.741-0.665-1.208-0.934    c-1.857-1.101-3.866-0.877-5.762,0.672c-1.879,1.494-3.448,3.655-4.679,6.304l-3.73,8.004c-1.235,2.647-2.66,4.847-4.153,6.579    c-1.501,1.703-2.808,2.432-3.967,1.97c-1.184-0.395-1.72-1.784-1.775-4.055c0,0-0.02-1.73-0.117-3.483    c-0.046-0.878-0.108-1.755-0.165-2.401c-0.06-0.652-0.1-1.087-0.1-1.087c-0.223-2.299-1.225-3.717-2.852-3.98    c-0.404-0.072-0.796-0.07-1.171,0.005c-0.377,0.089-0.738,0.256-1.078,0.492c-0.681,0.473-1.279,1.234-1.782,2.276    c0,0-0.185,0.395-0.462,0.989c-0.274,0.603-0.631,1.408-0.972,2.214c-0.686,1.612-1.293,3.229-1.293,3.229    c-0.813,2.112-1.77,3.257-3.062,3.21c-1.245,0.049-2.202-1.096-3.016-3.208c-0.819-2.137-1.447-4.688-1.701-7.599l-0.763-8.797    c-0.251-2.912-0.966-5.475-2.234-7.529c-0.628-1.056-1.372-1.799-2.228-2.242c-0.428-0.219-0.884-0.37-1.364-0.435    c-0.479-0.055-0.983-0.035-1.509,0.058c-2.195,0.363-3.529,1.809-3.988,4.219c-0.495,2.358-0.296,5.006,0.464,7.833l2.285,8.53    c0.755,2.822,1.078,5.424,1.047,7.713c-0.054,2.271-0.589,3.663-1.773,4.056c-1.159,0.464-2.475-0.26-3.967-1.967    c0,0-1.126-1.311-2.327-2.59c-1.198-1.292-2.447-2.507-2.447-2.507c-1.656-1.608-3.327-2.061-4.741-1.216    c-0.356,0.205-0.655,0.458-0.893,0.757c-0.232,0.31-0.401,0.67-0.511,1.069c-0.218,0.799-0.188,1.766,0.095,2.887    c0,0,0.114,0.424,0.284,1.059c0.177,0.638,0.42,1.483,0.676,2.319c0.509,1.675,1.082,3.302,1.082,3.302    c0.369,1.07,0.55,1.995,0.51,2.733c-0.034,0.747-0.313,1.279-0.78,1.7c-0.474,0.413-1.075,0.56-1.816,0.464    c-0.724-0.077-1.587-0.397-2.594-0.954c-2.004-1.121-4.099-2.704-6.165-4.768l-6.245-6.243c-2.072-2.075-4.238-3.545-6.54-4.312    c-1.163-0.408-2.22-0.508-3.167-0.291c-0.932,0.23-1.759,0.773-2.48,1.614c-0.697,0.807-1.045,1.726-1.104,2.676    c-0.052,0.957,0.209,1.965,0.825,3.05c1.164,2.142,2.993,4.025,5.396,5.706l7.231,5.068c2.396,1.682,4.268,3.489,5.717,5.274    c0.731,0.893,1.21,1.684,1.424,2.379c0.108,0.348,0.144,0.669,0.12,0.974c-0.015,0.31-0.099,0.598-0.254,0.869    c-0.665,1.104-2.036,1.407-4.321,1.032c0,0-1.725-0.292-3.443-0.492c-1.724-0.212-3.483-0.351-3.483-0.351    c-2.347-0.19-3.832,0.571-4.432,2.105c-0.531,1.56,0.124,3.111,2.045,4.461c0,0,1.435,1.023,2.89,1.968    c0.725,0.474,1.458,0.934,2.023,1.275c0.561,0.336,0.935,0.56,0.935,0.56c1.983,1.189,2.841,2.33,2.647,3.565    c-0.055,0.309-0.177,0.587-0.366,0.838c-0.176,0.253-0.411,0.481-0.718,0.684c-0.61,0.405-1.487,0.714-2.621,0.935    c-2.262,0.43-4.848,0.57-7.766,0.319l-8.798-0.761c-2.921-0.255-5.532,0.028-7.796,0.905c-2.344,0.866-3.431,2.487-3.479,4.634    c0.049,2.147,1.139,3.751,3.484,4.63c2.264,0.874,4.87,1.083,7.791,0.829l8.798-0.761c2.919-0.25,5.504-0.067,7.772,0.37    c1.134,0.215,2.009,0.513,2.619,0.915c0.307,0.2,0.539,0.428,0.72,0.683c0.189,0.254,0.312,0.537,0.369,0.855    c0.193,1.226-0.669,2.339-2.655,3.518c0,0-0.374,0.227-0.934,0.568c-0.565,0.346-1.294,0.812-2.018,1.294    c-1.452,0.959-2.882,1.998-2.882,1.998c-1.92,1.354-2.585,2.857-2.061,4.406c0.617,1.58,2.091,2.304,4.432,2.104    c0,0,1.758-0.139,3.483-0.351c1.718-0.2,3.443-0.492,3.443-0.492c2.289-0.365,3.675-0.04,4.321,1.032    c0.156,0.272,0.242,0.564,0.26,0.879c0.028,0.308-0.006,0.635-0.111,0.987c-0.208,0.704-0.681,1.505-1.412,2.398    c-1.45,1.776-3.318,3.596-5.71,5.28l-7.225,5.076c-2.4,1.685-4.262,3.521-5.435,5.65c-0.613,1.092-0.863,2.112-0.801,3.081    c0.07,0.962,0.425,1.897,1.132,2.706c0.7,0.815,1.525,1.355,2.46,1.589c0.954,0.219,2.019,0.132,3.188-0.272    c2.289-0.781,4.413-2.294,6.486-4.368l6.245-6.243c2.067-2.063,4.201-3.61,6.202-4.733c1.003-0.562,1.864-0.879,2.591-0.96    c0.742-0.095,1.344,0.053,1.818,0.467c0.471,0.417,0.745,0.951,0.78,1.697c0.039,0.739-0.139,1.66-0.504,2.734    c0,0-0.571,1.628-1.079,3.304c-0.256,0.836-0.498,1.682-0.674,2.32c-0.169,0.634-0.281,1.057-0.281,1.057    c-0.287,1.119-0.327,2.079-0.112,2.876c0.108,0.397,0.276,0.759,0.512,1.068c0.242,0.301,0.547,0.557,0.913,0.768    c1.404,0.839,3.043,0.365,4.688-1.247c0,0,1.263-1.208,2.472-2.495c1.212-1.274,2.348-2.58,2.348-2.58    c1.49-1.708,2.772-2.45,3.921-1.988c1.22,0.406,1.729,1.787,1.774,4.056c0.04,2.292-0.239,4.906-0.99,7.729l-2.276,8.532    c-0.756,2.829-1.009,5.459-0.53,7.815c0.473,2.415,1.857,3.868,3.988,4.219c0.53,0.094,1.041,0.115,1.528,0.062    c0.488-0.065,0.954-0.214,1.39-0.432c0.874-0.44,1.633-1.182,2.259-2.238c1.251-2.062,1.978-4.619,2.226-7.533l0.754-8.798    c0.25-2.911,0.832-5.465,1.642-7.603c0.825-2.11,1.809-3.256,3.063-3.207c1.254-0.049,2.239,1.095,3.065,3.205    c0,0,0.609,1.617,1.297,3.229c0.342,0.806,0.699,1.612,0.974,2.214c0.278,0.592,0.463,0.986,0.463,0.986    c0.498,1.042,1.097,1.803,1.78,2.276c0.684,0.485,1.446,0.645,2.254,0.493c1.627-0.262,2.615-1.683,2.848-3.982    c0,0,0.176-1.728,0.261-3.491c0.095-1.752,0.113-3.482,0.113-3.482c0.043-2.268,0.551-3.652,1.771-4.056    c1.149-0.464,2.431,0.277,3.922,1.984c1.502,1.728,2.969,3.909,4.208,6.554l3.739,8c1.236,2.649,2.791,4.812,4.685,6.298    c1.9,1.548,3.851,1.798,5.694,0.706c0.48-0.277,0.892-0.593,1.233-0.949c0.334-0.366,0.594-0.777,0.785-1.223    c0.38-0.893,0.472-1.941,0.274-3.152c-0.359-2.401-1.45-4.811-3.134-7.206l-5.074-7.227c-1.678-2.392-2.872-4.722-3.624-6.878    c-0.365-1.074-0.545-1.997-0.505-2.735c0.034-0.746,0.31-1.279,0.779-1.698c0.474-0.413,1.076-0.562,1.818-0.467    c0.726,0.078,1.588,0.397,2.591,0.958c0,0,1.512,0.852,3.081,1.648c1.544,0.783,3.144,1.51,3.144,1.51    c1.06,0.476,2.017,0.682,2.845,0.607c0.812-0.088,1.499-0.451,2.036-1.072c0.542-0.617,0.747-1.384,0.693-2.198    c-0.06-0.821-0.41-1.714-1.076-2.685c0,0-1.001-1.456-2.047-2.846c-0.522-0.697-1.053-1.381-1.455-1.888    c-0.41-0.508-0.683-0.846-0.683-0.846c-0.731-0.893-1.205-1.694-1.412-2.397c-0.197-0.698-0.157-1.318,0.148-1.866    c0.647-1.071,2.03-1.398,4.321-1.034c2.283,0.38,4.75,1.132,7.407,2.372l8.001,3.737c2.656,1.243,5.199,1.887,7.633,1.822    c2.494-0.013,4.066-1.109,4.863-3.187C1556.279,1846.121,1555.774,1844.27,1553.872,1842.656z M1518.1,1823.411    c-0.024,0.386,0.009,0.966-0.074,1.707c-0.091,1.489-0.332,3.666-1.078,6.322c-0.737,2.649-1.957,5.813-4.095,9.041    c-2.116,3.221-5.127,6.529-9.088,9.182c-1.982,1.315-4.183,2.464-6.565,3.372c-2.381,0.915-4.962,1.51-7.666,1.837    c-2.703,0.334-5.585,0.248-8.403-0.131c-1.407-0.232-2.827-0.488-4.214-0.917c-0.706-0.171-1.383-0.448-2.083-0.663l-1.024-0.405    l-0.516-0.198l-0.503-0.234c-5.409-2.377-10.378-6.46-13.828-11.676c-3.473-5.207-5.374-11.414-5.374-17.826    c0-6.412,1.901-12.619,5.374-17.826c3.45-5.215,8.419-9.299,13.828-11.676l0.503-0.234l0.516-0.198l1.024-0.405    c0.7-0.216,1.377-0.493,2.083-0.663c1.388-0.428,2.807-0.685,4.214-0.917c2.819-0.38,5.701-0.465,8.403-0.131    c2.703,0.327,5.285,0.922,7.666,1.837c2.382,0.908,4.583,2.057,6.565,3.372c3.96,2.653,6.972,5.96,9.088,9.182    c2.138,3.228,3.358,6.392,4.095,9.041c0.746,2.656,0.987,4.833,1.078,6.322c0.083,0.741,0.05,1.321,0.074,1.707    c0.014,0.387,0.021,0.587,0.021,0.587S1518.114,1823.024,1518.1,1823.411z"
/>
<path
   style="fill:#EA8FA0;"
   d="M1513.074,1838.821c-16.142-9.303-27.756-2.609-27.756,15.997c0-18.606-11.614-25.3-27.756-15.997    c16.142-9.303,16.142-22.691,0-31.994c16.142,9.303,27.756,2.609,27.756-15.997c0,18.606,11.614,25.3,27.756,15.997    C1496.932,1816.13,1496.932,1829.517,1513.074,1838.821z"
/>
<path
   style="fill:#E0486C;"
   d="M1499.161,1798.342c-8.05,14.059-2.258,24.174,13.842,24.174c-16.1,0-21.892,10.115-13.842,24.174    c-8.05-14.059-19.635-14.059-27.685,0c8.05-14.059,2.258-24.174-13.842-24.174c16.1,0,21.892-10.115,13.842-24.174    C1479.526,1812.401,1491.111,1812.401,1499.161,1798.342z"
/>
<path
   style="fill:#00BF33;"
   d="M1464.725,1810.581c11.976,6.949,20.593,1.949,20.593-11.95c0,13.899,8.617,18.899,20.593,11.95    c-11.976,6.949-11.976,16.95,0,23.899c-11.976-6.949-20.593-1.949-20.593,11.95c0-13.899-8.617-18.899-20.593-11.95    C1476.702,1827.531,1476.702,1817.531,1464.725,1810.581z"
/>
<path
   style="fill:#FFFFFF;"
   d="M1475.097,1840.423c5.945-10.414,1.667-17.907-10.222-17.907c11.889,0,16.166-7.493,10.222-17.907    c5.945,10.414,14.499,10.414,20.444,0c-5.945,10.414-1.667,17.907,10.222,17.907c-11.889,0-16.167,7.493-10.222,17.907    C1489.596,1830.01,1481.041,1830.01,1475.097,1840.423z"
/>
<path
   style="fill:#E0486C;"
   d="M1489.128,1822.517c0,1.929-1.564,3.492-3.492,3.492c-1.929,0-3.493-1.564-3.493-3.492    c0-1.929,1.564-3.493,3.493-3.493C1487.565,1819.024,1489.128,1820.588,1489.128,1822.517z"
/>
</g>
</svg>
