<?xml version="1.0" encoding="UTF-8" standalone="no"?>
<svg
  version="1.1"
  viewBox="1670 1150 400 400"
  xmlns="http://www.w3.org/2000/svg">
<g fill="none">
<circle
   style="fill:#A81C1C;"
   cx="1870.955"
   cy="1347.589"
   r="10.884"
/>
<path
   style="fill:none;"
   d="M1870.721,1346.901c0.729,0.918,1.431,1.794,2.269,2.612c0,0,0.163,0.153,0.407,0.382     c0.247,0.226,0.588,0.524,0.948,0.817c0.362,0.296,0.709,0.549,0.992,0.752c0.283,0.197,0.472,0.328,0.472,0.328     s0.196,0.129,0.489,0.323c0.287,0.182,0.681,0.42,1.092,0.65c0.415,0.235,0.834,0.449,1.144,0.595     c0.319,0.148,0.532,0.247,0.532,0.247s0.864,0.396,1.744,0.691c0.442,0.153,0.911,0.305,1.25,0.398     c0.342,0.091,0.57,0.151,0.57,0.151c1.255,0.313,2.021,0.182,2.262-0.236c0.105-0.218,0.104-0.495-0.061-0.841     c-0.174-0.35-0.481-0.751-0.929-1.189c0,0-0.71-0.681-1.425-1.269c-0.742-0.608-1.506-1.13-1.506-1.13s-0.048-0.033-0.132-0.09     c-0.087-0.057-0.21-0.137-0.359-0.234c-0.304-0.193-0.708-0.438-1.11-0.665c-0.394-0.225-0.821-0.441-1.138-0.594     c-0.315-0.148-0.525-0.246-0.525-0.246s-0.206-0.091-0.516-0.228c-0.31-0.133-0.753-0.305-1.177-0.455     c-0.839-0.305-1.735-0.529-1.735-0.529c-1.039-0.272-2.126-0.413-3.229-0.542c-0.179,0.158-0.286,0.259-0.286,0.259     S1870.747,1346.876,1870.721,1346.901z"
/>
<path
   style="fill:#A81C1C;"
   d="M1876.014,1347.672c0.424,0.15,0.867,0.322,1.177,0.455c0.309,0.137,0.516,0.228,0.516,0.228     s0.21,0.098,0.525,0.246c0.317,0.152,0.744,0.368,1.138,0.594c0.403,0.227,0.807,0.472,1.11,0.665     c0.149,0.097,0.272,0.177,0.359,0.234c0.084,0.057,0.132,0.09,0.132,0.09s0.764,0.523,1.506,1.13     c0.714,0.588,1.425,1.269,1.425,1.269c0.448,0.438,0.755,0.839,0.929,1.189c0.165,0.345,0.167,0.622,0.061,0.841     c-0.241,0.419-1.007,0.549-2.262,0.236c0,0-0.228-0.061-0.57-0.151c-0.339-0.094-0.808-0.245-1.25-0.398     c-0.88-0.295-1.744-0.691-1.744-0.691s-0.213-0.099-0.532-0.247c-0.31-0.146-0.729-0.359-1.144-0.595     c-0.411-0.23-0.805-0.468-1.092-0.65c-0.293-0.194-0.489-0.323-0.489-0.323s-0.189-0.131-0.472-0.328     c-0.283-0.203-0.631-0.457-0.992-0.752c-0.359-0.292-0.7-0.59-0.948-0.817c-0.244-0.229-0.407-0.382-0.407-0.382     c-0.839-0.818-1.54-1.694-2.269-2.612c-0.064,0.061-0.199,0.193-0.371,0.371c0.423,0.997,1.469,2.901,1.469,2.901l0.034,0.066     l0.055,0.104c0.292,0.554,0.597,1.074,0.877,1.519c0.543,0.863,0.964,1.416,0.964,1.416s0.142,0.189,0.355,0.472     c0.211,0.272,0.497,0.626,0.804,0.982c0.619,0.727,1.285,1.368,1.285,1.368s0.17,0.161,0.426,0.403     c0.264,0.246,0.617,0.559,0.975,0.847c0.362,0.296,0.742,0.587,1.035,0.803c0.293,0.215,0.484,0.341,0.484,0.341     s0.573,0.409,1.528,0.98c0.463,0.267,1.024,0.571,1.656,0.883c0.626,0.306,1.296,0.586,2.012,0.867     c0.708,0.272,1.416,0.492,2.121,0.7c0.7,0.203,1.344,0.34,1.928,0.465c0.586,0.127,1.065,0.198,1.405,0.247     c0.344,0.047,0.54,0.075,0.54,0.075s1.071,0.159,2.147,0.208c0.54,0.03,1.105,0.057,1.515,0.056     c0.412-0.004,0.686-0.007,0.686-0.007c1.489-0.051,2.481-0.534,2.926-1.319c0.207-0.401,0.3-0.864,0.228-1.396     c-0.082-0.537-0.3-1.126-0.658-1.753c0,0-0.292-0.488-0.741-1.175c-0.432-0.682-1.089-1.576-1.75-2.398     c-0.672-0.829-1.396-1.602-1.936-2.146c-0.566-0.553-0.944-0.89-0.944-0.89s-0.19-0.168-0.476-0.42     c-0.287-0.248-0.701-0.575-1.099-0.88c-0.786-0.615-1.644-1.151-1.644-1.151s-0.207-0.132-0.516-0.33     c-0.302-0.193-0.726-0.442-1.162-0.674c-0.43-0.232-0.857-0.447-1.174-0.599c-0.333-0.149-0.554-0.248-0.554-0.248     s-0.662-0.299-1.66-0.646c-0.515-0.173-1.108-0.355-1.731-0.517c-0.647-0.162-1.341-0.303-2.01-0.411     c-0.693-0.107-1.392-0.177-2.019-0.216c-0.645-0.039-1.261-0.042-1.763-0.032c-0.496,0.01-0.941,0.04-1.239,0.064     c-0.298,0.027-0.468,0.043-0.468,0.043s-0.893,0.088-1.81,0.264c-0.448,0.098-0.894,0.153-1.206,0.295     c-0.071,0.061-0.136,0.117-0.193,0.167c1.103,0.129,2.19,0.27,3.229,0.542     C1874.279,1347.143,1875.175,1347.367,1876.014,1347.672z"
/>
<path
   style="fill:none;"
   d="M1870.586,1346.901c-0.729,0.918-1.431,1.794-2.269,2.612c0,0-0.163,0.153-0.407,0.382     c-0.247,0.226-0.588,0.524-0.947,0.817c-0.362,0.296-0.709,0.549-0.992,0.752c-0.283,0.197-0.472,0.328-0.472,0.328     s-0.196,0.129-0.489,0.323c-0.287,0.182-0.681,0.42-1.092,0.65c-0.415,0.235-0.834,0.449-1.144,0.595     c-0.319,0.148-0.532,0.247-0.532,0.247s-0.864,0.396-1.744,0.691c-0.442,0.153-0.911,0.305-1.25,0.398     c-0.342,0.091-0.57,0.151-0.57,0.151c-1.255,0.313-2.021,0.182-2.262-0.236c-0.106-0.218-0.104-0.495,0.061-0.841     c0.174-0.35,0.481-0.751,0.929-1.189c0,0,0.71-0.681,1.425-1.269c0.742-0.608,1.506-1.13,1.506-1.13s0.048-0.033,0.132-0.09     c0.087-0.057,0.21-0.137,0.359-0.234c0.304-0.193,0.708-0.438,1.111-0.665c0.394-0.225,0.821-0.441,1.138-0.594     c0.315-0.148,0.525-0.246,0.525-0.246s0.206-0.091,0.516-0.228c0.31-0.133,0.753-0.305,1.177-0.455     c0.839-0.305,1.735-0.529,1.735-0.529c1.039-0.272,2.126-0.413,3.229-0.542c0.179,0.158,0.286,0.259,0.286,0.259     S1870.56,1346.876,1870.586,1346.901z"
/>
<path
   style="fill:#A81C1C;"
   d="M1865.293,1347.672c-0.424,0.15-0.867,0.322-1.177,0.455c-0.309,0.137-0.516,0.228-0.516,0.228     s-0.21,0.098-0.525,0.246c-0.317,0.152-0.744,0.368-1.138,0.594c-0.403,0.227-0.807,0.472-1.111,0.665     c-0.148,0.097-0.272,0.177-0.359,0.234c-0.084,0.057-0.132,0.09-0.132,0.09s-0.764,0.523-1.506,1.13     c-0.714,0.588-1.425,1.269-1.425,1.269c-0.448,0.438-0.755,0.839-0.929,1.189c-0.165,0.345-0.167,0.622-0.061,0.841     c0.241,0.419,1.007,0.549,2.262,0.236c0,0,0.228-0.061,0.57-0.151c0.339-0.094,0.808-0.245,1.25-0.398     c0.88-0.295,1.744-0.691,1.744-0.691s0.213-0.099,0.532-0.247c0.31-0.146,0.729-0.359,1.144-0.595     c0.411-0.23,0.805-0.468,1.092-0.65c0.293-0.194,0.489-0.323,0.489-0.323s0.189-0.131,0.472-0.328     c0.283-0.203,0.631-0.457,0.992-0.752c0.359-0.292,0.7-0.59,0.947-0.817c0.244-0.229,0.407-0.382,0.407-0.382     c0.839-0.818,1.54-1.694,2.269-2.612c0.064,0.061,0.199,0.193,0.371,0.371c-0.423,0.997-1.469,2.901-1.469,2.901l-0.034,0.066     l-0.055,0.104c-0.292,0.554-0.597,1.074-0.877,1.519c-0.543,0.863-0.964,1.416-0.964,1.416s-0.142,0.189-0.355,0.472     c-0.211,0.272-0.497,0.626-0.804,0.982c-0.619,0.727-1.285,1.368-1.285,1.368s-0.17,0.161-0.426,0.403     c-0.264,0.246-0.617,0.559-0.975,0.847c-0.362,0.296-0.742,0.587-1.035,0.803c-0.293,0.215-0.484,0.341-0.484,0.341     s-0.573,0.409-1.528,0.98c-0.464,0.267-1.024,0.571-1.656,0.883c-0.626,0.306-1.296,0.586-2.012,0.867     c-0.708,0.272-1.415,0.492-2.121,0.7c-0.7,0.203-1.344,0.34-1.928,0.465c-0.586,0.127-1.065,0.198-1.405,0.247     c-0.344,0.047-0.54,0.075-0.54,0.075s-1.071,0.159-2.147,0.208c-0.54,0.03-1.105,0.057-1.515,0.056     c-0.412-0.004-0.686-0.007-0.686-0.007c-1.489-0.051-2.481-0.534-2.926-1.319c-0.207-0.401-0.301-0.864-0.228-1.396     c0.082-0.537,0.3-1.126,0.658-1.753c0,0,0.292-0.488,0.741-1.175c0.432-0.682,1.089-1.576,1.75-2.398     c0.672-0.829,1.396-1.602,1.936-2.146c0.566-0.553,0.944-0.89,0.944-0.89s0.19-0.168,0.476-0.42     c0.287-0.248,0.701-0.575,1.099-0.88c0.786-0.615,1.644-1.151,1.644-1.151s0.207-0.132,0.516-0.33     c0.302-0.193,0.726-0.442,1.162-0.674c0.43-0.232,0.857-0.447,1.174-0.599c0.333-0.149,0.554-0.248,0.554-0.248     s0.662-0.299,1.66-0.646c0.515-0.173,1.108-0.355,1.731-0.517c0.647-0.162,1.341-0.303,2.01-0.411     c0.693-0.107,1.392-0.177,2.019-0.216c0.645-0.039,1.261-0.042,1.763-0.032c0.496,0.01,0.941,0.04,1.239,0.064     c0.298,0.027,0.468,0.043,0.468,0.043s0.893,0.088,1.81,0.264c0.448,0.098,0.894,0.153,1.206,0.295     c0.072,0.061,0.136,0.117,0.193,0.167c-1.103,0.129-2.19,0.27-3.229,0.542     C1867.028,1347.143,1866.132,1347.367,1865.293,1347.672z"
/>
<path
   style="fill:none;"
   d="M1870.885,1346.374c0.411-1.098,0.8-2.151,1.069-3.291c0,0,0.047-0.218,0.117-0.545     c0.066-0.328,0.146-0.774,0.211-1.233c0.067-0.462,0.105-0.891,0.133-1.238c0.022-0.344,0.037-0.574,0.037-0.574     s0.01-0.234,0.025-0.585c0.008-0.34,0.009-0.801-0.006-1.271c-0.013-0.477-0.045-0.946-0.08-1.287     c-0.037-0.35-0.062-0.583-0.062-0.583s-0.106-0.944-0.307-1.85c-0.097-0.457-0.209-0.938-0.303-1.276     c-0.098-0.34-0.164-0.566-0.164-0.566c-0.378-1.236-0.885-1.826-1.368-1.817c-0.241,0.022-0.478,0.167-0.689,0.486     c-0.21,0.33-0.396,0.799-0.54,1.409c0,0-0.217,0.959-0.353,1.875c-0.139,0.949-0.193,1.873-0.193,1.873s-0.003,0.058-0.009,0.159     c-0.004,0.103-0.009,0.251-0.016,0.428c-0.009,0.359-0.01,0.833,0.003,1.294c0.01,0.454,0.045,0.931,0.078,1.281     c0.036,0.346,0.06,0.577,0.06,0.577s0.028,0.224,0.07,0.559c0.046,0.334,0.127,0.802,0.217,1.243     c0.171,0.876,0.441,1.759,0.441,1.759c0.302,1.031,0.742,2.035,1.2,3.047c0.228,0.073,0.37,0.112,0.37,0.112     S1870.85,1346.364,1870.885,1346.374z"
/>
<path
   style="fill:#A81C1C;"
   d="M1868.817,1341.441c-0.09-0.441-0.171-0.909-0.217-1.243c-0.042-0.336-0.07-0.559-0.07-0.559     s-0.024-0.231-0.06-0.577c-0.033-0.35-0.068-0.827-0.078-1.281c-0.013-0.462-0.011-0.935-0.003-1.294     c0.006-0.177,0.012-0.325,0.016-0.428c0.006-0.101,0.009-0.159,0.009-0.159s0.054-0.924,0.193-1.873     c0.135-0.915,0.353-1.875,0.353-1.875c0.144-0.609,0.33-1.079,0.54-1.409c0.211-0.319,0.447-0.464,0.689-0.486     c0.483-0.009,0.99,0.58,1.368,1.817c0,0,0.066,0.226,0.164,0.566c0.094,0.339,0.206,0.819,0.303,1.276     c0.201,0.906,0.307,1.85,0.307,1.85s0.025,0.233,0.062,0.583c0.035,0.34,0.068,0.81,0.08,1.287     c0.015,0.471,0.014,0.931,0.006,1.271c-0.015,0.351-0.025,0.585-0.025,0.585s-0.015,0.229-0.037,0.574     c-0.028,0.347-0.066,0.776-0.133,1.238c-0.065,0.459-0.145,0.905-0.211,1.233c-0.07,0.327-0.117,0.545-0.117,0.545     c-0.269,1.14-0.658,2.193-1.069,3.291c0.085,0.023,0.268,0.071,0.509,0.127c0.637-0.877,1.729-2.754,1.729-2.754l0.039-0.063     l0.061-0.101c0.325-0.536,0.613-1.065,0.85-1.535c0.459-0.91,0.717-1.556,0.717-1.556s0.089-0.219,0.222-0.547     c0.125-0.321,0.28-0.748,0.427-1.195c0.304-0.905,0.51-1.806,0.51-1.806s0.05-0.229,0.126-0.573     c0.075-0.353,0.161-0.817,0.224-1.272c0.067-0.462,0.121-0.938,0.155-1.301c0.034-0.362,0.043-0.59,0.043-0.59     s0.055-0.702,0.052-1.815c-0.01-0.535-0.038-1.172-0.096-1.874c-0.061-0.695-0.165-1.412-0.294-2.172     c-0.132-0.747-0.308-1.466-0.493-2.179c-0.187-0.704-0.401-1.327-0.595-1.892c-0.193-0.568-0.379-1.015-0.513-1.332     c-0.136-0.319-0.215-0.502-0.215-0.502s-0.416-1-0.928-1.947c-0.253-0.478-0.521-0.977-0.733-1.327     c-0.216-0.351-0.359-0.585-0.359-0.585c-0.811-1.25-1.736-1.851-2.638-1.828c-0.45,0.029-0.895,0.188-1.314,0.524     c-0.418,0.347-0.811,0.837-1.163,1.468c0,0-0.267,0.502-0.625,1.24c-0.362,0.722-0.79,1.746-1.153,2.735     c-0.364,1.003-0.653,2.022-0.841,2.765c-0.182,0.77-0.276,1.268-0.276,1.268s-0.046,0.25-0.115,0.624     c-0.065,0.374-0.131,0.897-0.188,1.396c-0.122,0.99-0.139,2.002-0.139,2.002s-0.007,0.245-0.017,0.613     c-0.01,0.358-0.004,0.85,0.022,1.344c0.023,0.488,0.059,0.964,0.092,1.315c0.044,0.362,0.073,0.603,0.073,0.603     s0.085,0.722,0.302,1.756c0.117,0.53,0.267,1.132,0.449,1.75c0.195,0.638,0.432,1.306,0.684,1.934     c0.266,0.649,0.566,1.284,0.855,1.842c0.299,0.573,0.614,1.103,0.881,1.527c0.264,0.42,0.519,0.786,0.693,1.029     c0.177,0.241,0.278,0.379,0.278,0.379s0.535,0.72,1.159,1.415c0.315,0.334,0.592,0.687,0.875,0.882     c0.089,0.03,0.17,0.056,0.243,0.079c-0.458-1.011-0.898-2.016-1.2-3.047C1869.258,1343.2,1868.988,1342.316,1868.817,1341.441z"
/>
<path
   style="fill:#FFA227;"
   d="M1806.67,1472.362c2.098-4.022,3.524-7.776,4.299-11.189c0.201-0.874,0.358-1.72,0.477-2.545      c0.125-0.836,0.211-1.648,0.258-2.438c0.095-1.579,0.04-3.068-0.155-4.477l-20.479,35.396c1.583-0.397,3.098-1.008,4.537-1.825      c0.72-0.408,1.42-0.868,2.102-1.378c0.688-0.522,1.358-1.096,2.006-1.716C1802.297,1479.703,1804.58,1476.369,1806.67,1472.362z      "
/>
<path
   style="fill:#A81C1C;"
   d="M1853.523,1475.077c0.444,3.476,0.469,7.502-0.115,12.001c-0.581,4.481-1.657,8.384-3.226,11.604      c-0.782,1.602-1.719,3.086-2.791,4.344c-1.072,1.257-2.287,2.345-3.636,3.257c0,0-2.015,1.365-4.109,2.709      c-1.047,0.688-2.1,1.314-2.896,1.782c-0.801,0.469-1.335,0.783-1.335,0.783c-1.442,0.868-2.845,1.437-4.199,1.715      c-0.677,0.139-1.342,0.205-1.994,0.199c-0.651-0.008-1.28-0.128-1.899-0.296c-2.38-0.68-4.494-2.435-6.124-5.39      c0,0-1.228-2.199-2.375-4.38c-1.155-2.182-2.23-4.343-2.23-4.343c-1.484-2.983-2.003-6.291-1.763-9.838      c0.224-3.561,1.251-7.463,2.984-11.636c1.74-4.19,3.762-7.682,5.903-10.486c2.164-2.894,4.408-4.995,6.857-6.469      c0,0,1.83-1.2,3.58-2.422c1.758-1.22,3.434-2.459,3.434-2.459c2.253-1.678,4.09-2.367,5.608-1.917      c0.396,0.109,0.766,0.307,1.127,0.535c0.362,0.225,0.706,0.52,1.034,0.884c0.657,0.729,1.252,1.736,1.809,3.031      c0,0,0.21,0.49,0.525,1.226c0.318,0.74,0.753,1.729,1.215,2.666c0.913,1.903,1.907,3.827,1.907,3.827      c0.666,1.262,1.232,2.647,1.686,4.168C1852.955,1471.691,1853.307,1473.288,1853.523,1475.077z M1838.301,1484.275      c0.268-1.102,0.219-1.984-0.142-2.647c-0.181-0.331-0.44-0.608-0.779-0.831c-0.335-0.238-0.747-0.431-1.242-0.571      c-1.9-0.54-3.181,0.267-3.82,2.443c-0.639,2.176,0.061,3.545,2.066,4.114c0.519,0.146,0.989,0.209,1.412,0.178      c0.427-0.046,0.803-0.176,1.13-0.39C1837.58,1486.143,1838.033,1485.377,1838.301,1484.275z"
/>
<path
   style="fill:#FFA227;"
   d="M1898.327,1473.639c1.611,3.108,2.989,6.886,3.969,11.316c0.976,4.412,1.309,8.448,0.912,12.02      c-0.375,3.576-1.482,6.645-3.466,9.317c0,0-1.429,1.98-2.94,3.963c-1.513,1.909-3.109,3.823-3.109,3.823      c-2.118,2.618-4.489,4.113-6.953,4.26c-1.277,0.1-2.561-0.09-3.841-0.574c-1.281-0.486-2.558-1.247-3.824-2.402      c0,0-1.897-1.644-3.714-3.297c-1.825-1.652-3.569-3.311-3.569-3.311c-2.338-2.318-4.025-5.23-5.013-8.649      c-0.992-3.421-1.38-7.439-1.184-11.953c0.197-4.532,0.913-8.506,1.951-11.875c1.044-3.454,2.49-6.215,4.24-8.416      c0,0,1.315-1.757,2.548-3.508c1.242-1.752,2.402-3.494,2.402-3.494c0.781-1.129,1.541-2.061,2.316-2.687      c0.775-0.628,1.561-0.97,2.384-1.03c1.592-0.072,3.269,0.791,5.198,2.843c0,0,1.442,1.55,2.967,3.094      c1.505,1.472,3.091,2.933,3.091,2.933C1894.85,1467.896,1896.712,1470.454,1898.327,1473.639z M1887.135,1487.459      c-0.123-1.128-0.468-1.939-1.024-2.438c-0.557-0.505-1.329-0.743-2.315-0.664c-2.045,0.155-2.975,1.355-2.835,3.619      c0.14,2.263,1.265,3.307,3.421,3.143c1.036-0.083,1.792-0.41,2.251-1.03C1887.092,1489.462,1887.257,1488.586,1887.135,1487.459      z"
/>
<path
   style="fill:#A81C1C;"
   d="M1936.116,1502.761c0,0-2.352-0.891-4.629-1.818c-1.129-0.468-2.258-0.937-3.105-1.288      c-0.418-0.178-0.766-0.327-1.009-0.431c-0.245-0.112-0.385-0.176-0.385-0.176c-2.996-1.373-5.562-3.532-7.674-6.4      c-2.1-2.873-3.76-6.541-5.118-10.851c-1.363-4.327-2.116-8.285-2.293-11.808c-0.188-3.61,0.208-6.698,1.094-9.366      c0,0,0.04-0.127,0.111-0.349c0.067-0.229,0.162-0.556,0.277-0.948c0.218-0.78,0.508-1.819,0.798-2.858      c0.561-2.07,1.046-4.102,1.046-4.102c0.364-1.334,0.764-2.486,1.276-3.332c0.51-0.853,1.119-1.436,1.847-1.762      c0.364-0.163,0.758-0.262,1.184-0.297c0.421-0.045,0.864-0.048,1.346,0.024c0.963,0.138,2.063,0.527,3.322,1.159      c0,0,0.479,0.238,1.198,0.595c0.72,0.35,1.705,0.842,2.668,1.257c1.937,0.862,3.95,1.688,3.95,1.688      c1.316,0.542,2.625,1.246,3.937,2.127c1.31,0.876,2.596,1.886,3.911,3.117c2.587,2.372,5.181,5.449,7.623,9.272      c2.433,3.808,4.13,7.48,4.982,10.964c0.43,1.731,0.677,3.456,0.683,5.103c0.004,1.642-0.208,3.247-0.648,4.808      c0,0-0.684,2.352-1.443,4.739c-0.369,1.207-0.792,2.351-1.104,3.234c-0.319,0.879-0.531,1.465-0.531,1.465      c-0.546,1.594-1.249,2.931-2.094,4.009c-0.424,0.536-0.877,1.02-1.374,1.417c-0.502,0.388-1.038,0.71-1.605,0.968      c-1.135,0.516-2.391,0.771-3.764,0.755C1939.217,1503.654,1937.742,1503.397,1936.116,1502.761z M1928.567,1476.357      c0.91,2.077,2.312,2.679,4.225,1.814c1.924-0.841,2.324-2.379,1.322-4.396c-1.016-2.045-2.37-2.548-4.195-1.754      C1928.104,1472.84,1927.656,1474.279,1928.567,1476.357z"
/>
<path
   style="fill:#FFA227;"
   d="M1964.081,1424.779c1.45,0.075,2.901,0.257,4.42,0.607c1.521,0.353,3.109,0.872,4.768,1.575      c3.243,1.366,6.699,3.427,10.297,6.191c3.584,2.753,6.464,5.573,8.453,8.535c0.989,1.487,1.775,3.019,2.349,4.592      c0.577,1.575,0.941,3.192,1.032,4.796c0,0,0.144,2.43,0.231,4.919c0.035,1.252,0.071,2.504,0.097,3.443      c0.013,0.476,0.01,0.862,0.008,1.133c-0.002,0.272-0.003,0.427-0.003,0.427c0.058,3.336-0.851,5.945-2.575,7.738      c-1.792,1.725-4.402,2.634-7.738,2.575c0,0-0.155,0.001-0.427,0.003c-0.272,0.002-0.657,0.006-1.133-0.007      c-0.939-0.027-2.191-0.062-3.443-0.097c-2.489-0.086-4.92-0.23-4.92-0.23c-1.604-0.091-3.22-0.454-4.796-1.031      c-1.573-0.573-3.105-1.359-4.592-2.348c-2.962-1.988-5.783-4.868-8.536-8.452c-2.764-3.597-4.825-7.054-6.192-10.296      c-0.704-1.659-1.223-3.247-1.576-4.768c-0.35-1.518-0.534-2.971-0.608-4.42c0,0-0.103-2.189-0.264-4.32      c-0.088-1.057-0.177-2.115-0.243-2.908c-0.033-0.389-0.075-0.727-0.103-0.961c-0.028-0.234-0.044-0.367-0.044-0.367      c-0.353-2.808,0.011-4.709,1.177-5.807c1.098-1.167,2.999-1.531,5.807-1.178c0,0,0.133,0.016,0.367,0.044      c0.235,0.029,0.571,0.069,0.96,0.103c0.793,0.066,1.851,0.154,2.908,0.243      C1961.891,1424.677,1964.081,1424.779,1964.081,1424.779z M1973.549,1444.805c-1.642-1.565-3.139-1.627-4.512-0.185      c-1.441,1.373-1.379,2.869,0.186,4.511c1.564,1.641,3.096,1.737,4.614,0.288      C1975.287,1447.9,1975.191,1446.369,1973.549,1444.805z"
/>
<path
   style="fill:#A81C1C;"
   d="M2001.592,1428.05c-3.484-0.852-7.157-2.548-10.965-4.98c-3.823-2.442-6.901-5.036-9.273-7.622      c-1.232-1.314-2.241-2.6-3.119-3.91c-0.88-1.312-1.585-2.621-2.127-3.937c0,0-0.826-2.013-1.688-3.949      c-0.415-0.963-0.909-1.948-1.258-2.668c-0.357-0.719-0.595-1.198-0.595-1.198c-0.632-1.258-1.021-2.358-1.159-3.321      c-0.072-0.483-0.068-0.925-0.025-1.347c0.035-0.426,0.134-0.819,0.297-1.184c0.327-0.729,0.91-1.337,1.763-1.847      c0.847-0.512,1.997-0.912,3.331-1.277c0,0,2.033-0.486,4.103-1.047c1.039-0.29,2.079-0.581,2.858-0.798      c0.392-0.115,0.719-0.21,0.948-0.277c0.222-0.071,0.348-0.112,0.348-0.112c2.668-0.885,5.756-1.282,9.367-1.095      c3.524,0.176,7.482,0.928,11.809,2.291c4.31,1.357,7.978,3.017,10.852,5.117c2.868,2.112,5.027,4.678,6.401,7.673      c0,0,0.064,0.14,0.176,0.385c0.104,0.244,0.253,0.592,0.431,1.009c0.351,0.847,0.819,1.976,1.288,3.105      c0.928,2.278,1.818,4.629,1.818,4.629c0.636,1.625,0.895,3.102,0.916,4.476c0.016,1.372-0.239,2.629-0.755,3.764      c-0.258,0.568-0.581,1.104-0.969,1.606c-0.396,0.498-0.881,0.951-1.417,1.375c-1.078,0.845-2.415,1.548-4.009,2.094      c0,0-0.586,0.213-1.465,0.531c-0.884,0.312-2.026,0.736-3.234,1.105c-2.387,0.759-4.739,1.443-4.739,1.443      c-1.561,0.439-3.166,0.652-4.808,0.648C2005.049,1428.728,2003.322,1428.479,2001.592,1428.05z M1998.187,1409.692      c2.018,1.003,3.554,0.602,4.395-1.323c0.866-1.913,0.263-3.314-1.814-4.224c-2.078-0.91-3.516-0.462-4.336,1.351      C1995.639,1407.322,1996.143,1408.677,1998.187,1409.692z"
/>
<path
   style="fill:#FFA227;"
   d="M1985.262,1352.317c0,0,1.743-1.16,3.494-2.402c1.751-1.233,3.508-2.549,3.508-2.549h40.894      c0,0,1.659,1.744,3.311,3.568c1.653,1.816,3.297,3.713,3.297,3.713c1.155,1.267,1.918,2.544,2.403,3.824      c0.484,1.28,0.674,2.564,0.574,3.841c-0.147,2.464-1.64,4.834-4.259,6.954c0,0-1.914,1.595-3.823,3.109      c-1.981,1.512-3.962,2.941-3.962,2.941c-2.671,1.984-5.741,3.091-9.316,3.468c-3.572,0.397-7.608,0.066-12.02-0.91      c-4.43-0.979-8.207-2.356-11.316-3.967c-3.187-1.615-5.744-3.477-7.63-5.632c0,0-1.459-1.586-2.934-3.09      c-1.545-1.525-3.094-2.966-3.094-2.966c-2.051-1.93-2.915-3.606-2.844-5.198c0.06-0.823,0.402-1.61,1.03-2.385      C1983.203,1353.859,1984.133,1353.098,1985.262,1352.317z M2012.382,1356.537c-2.264-0.14-3.464,0.79-3.62,2.835      c-0.079,0.987,0.158,1.758,0.665,2.315c0.499,0.555,1.31,0.901,2.438,1.023c1.127,0.122,2.003-0.043,2.63-0.502      c0.619-0.459,0.947-1.215,1.029-2.251C2015.689,1357.801,2014.646,1356.677,2012.382,1356.537z"
/>
<path
   style="fill:#00BF33;"
   d="M1836.138,1480.226c-1.9-0.54-3.181,0.267-3.82,2.443c-0.639,2.176,0.061,3.545,2.066,4.114      c0.519,0.146,0.989,0.209,1.412,0.178c0.427-0.046,0.803-0.176,1.13-0.39c0.654-0.428,1.107-1.194,1.375-2.296      c0.268-1.102,0.219-1.984-0.142-2.647c-0.181-0.331-0.44-0.608-0.779-0.831      C1837.045,1480.56,1836.633,1480.366,1836.138,1480.226z"
/>
<path
   style="fill:#FFFFFF;"
   d="M1883.796,1484.358c-2.045,0.155-2.975,1.355-2.835,3.619c0.14,2.263,1.265,3.307,3.421,3.143       c1.036-0.083,1.792-0.41,2.251-1.03c0.459-0.627,0.625-1.503,0.502-2.63c-0.123-1.128-0.468-1.939-1.024-2.438       C1885.554,1484.516,1884.782,1484.278,1883.796,1484.358z"
/>
<path
   style="fill:#00BF33;"
   d="M1932.791,1478.17c1.924-0.841,2.324-2.379,1.322-4.396c-1.016-2.045-2.37-2.548-4.195-1.754      c-1.813,0.819-2.262,2.258-1.351,4.336C1929.477,1478.433,1930.878,1479.036,1932.791,1478.17z"
/>
<path
   style="fill:#FFFFFF;"
   d="M1969.037,1444.62c-1.441,1.373-1.379,2.869,0.186,4.511c1.564,1.641,3.096,1.737,4.614,0.288       c1.45-1.519,1.354-3.05-0.288-4.614C1971.907,1443.24,1970.41,1443.178,1969.037,1444.62z"
/>
<path
   style="fill:#00BF33;"
   d="M2002.583,1408.369c0.866-1.913,0.263-3.314-1.814-4.224c-2.078-0.91-3.516-0.462-4.336,1.351      c-0.795,1.826-0.29,3.18,1.754,4.196C2000.205,1410.695,2001.741,1410.294,2002.583,1408.369z"
/>
<path
   style="fill:#FFFFFF;"
   d="M2008.763,1359.373c-0.079,0.987,0.158,1.758,0.665,2.315c0.499,0.555,1.31,0.901,2.438,1.023       c1.127,0.122,2.003-0.043,2.63-0.502c0.619-0.459,0.947-1.215,1.029-2.251c0.164-2.156-0.88-3.28-3.143-3.42       C2010.118,1356.397,2008.918,1357.327,2008.763,1359.373z"
/>
<path
   style="fill:#FFA227;"
   d="M1796.082,1228.499c2.441,3.824,4.985,6.933,7.561,9.312c1.32,1.228,2.619,2.23,3.94,3.099      c1.324,0.873,2.645,1.571,3.966,2.11l-20.479-35.396c-0.447,1.566-0.675,3.179-0.686,4.83c-0.008,1.656,0.225,3.39,0.649,5.125      C1791.9,1221.052,1793.651,1224.69,1796.082,1228.499z"
/>
<path
   style="fill:#A81C1C;"
   d="M1770.293,1267.743c-3.241-1.368-6.743-3.371-10.342-6.133c-3.585-2.751-6.416-5.635-8.403-8.598      c-0.994-1.481-1.78-3.013-2.352-4.588c-0.576-1.578-0.935-3.196-1.026-4.801c0,0-0.158-2.414-0.259-4.886      c-0.043-1.243-0.086-2.486-0.118-3.419c-0.016-0.472-0.018-0.858-0.016-1.127c0-0.27,0-0.424,0-0.424      c-0.046-3.348,0.862-5.96,2.64-7.804c1.78-1.712,4.389-2.62,7.738-2.574c0,0,0.154,0,0.424,0      c0.269-0.001,0.653-0.001,1.126,0.015c0.932,0.032,2.176,0.075,3.419,0.117c2.472,0.101,4.887,0.259,4.887,0.259      c1.631,0.068,3.249,0.428,4.82,1.009c1.568,0.577,3.087,1.374,4.568,2.367c2.977,1.977,5.848,4.818,8.6,8.402      c2.762,3.598,4.777,7.091,6.134,10.341c0.71,1.655,1.24,3.233,1.597,4.751c0.354,1.514,0.535,2.97,0.59,4.437      c0,0,0.115,2.178,0.289,4.298c0.094,1.052,0.188,2.104,0.259,2.894c0.036,0.388,0.077,0.721,0.107,0.955      c0.03,0.232,0.046,0.365,0.046,0.365c0.344,2.817-0.019,4.718-1.178,5.807c-1.133,1.2-3.033,1.565-5.85,1.222      c0,0-0.133-0.017-0.365-0.046c-0.234-0.031-0.566-0.071-0.954-0.107c-0.789-0.071-1.842-0.165-2.894-0.259      c-2.12-0.174-4.298-0.289-4.298-0.289c-1.449-0.075-2.906-0.257-4.424-0.605      C1773.535,1268.971,1771.948,1268.452,1770.293,1267.743z M1769.965,1249.955c1.643,1.565,3.149,1.614,4.565,0.131      c1.431-1.363,1.38-2.869-0.185-4.512c-1.564-1.642-3.106-1.727-4.613-0.289      C1768.236,1246.848,1768.323,1248.391,1769.965,1249.955z"
/>
<path
   style="fill:#FFA227;"
   d="M1749.152,1307.217c-3.528-0.164-7.505-0.861-11.833-2.221      c-4.311-1.355-7.959-3.076-10.826-5.193c-2.873-2.097-5.049-4.612-6.4-7.675c0,0-0.064-0.14-0.175-0.385      c-0.104-0.244-0.253-0.592-0.431-1.009c-0.351-0.847-0.819-1.976-1.287-3.105c-0.927-2.278-1.818-4.63-1.818-4.63      c-0.649-1.591-0.915-3.05-0.942-4.414c-0.021-1.362,0.232-2.614,0.744-3.74c0.266-0.584,0.595-1.134,0.987-1.647      c0.402-0.509,0.89-0.97,1.43-1.4c1.085-0.857,2.424-1.564,4.017-2.109c0,0,0.583-0.207,1.459-0.518      c0.88-0.304,2.018-0.717,3.22-1.077c2.376-0.74,4.717-1.405,4.717-1.405c1.566-0.447,3.181-0.679,4.833-0.692      c1.656-0.011,3.391,0.223,5.121,0.653c3.475,0.866,7.155,2.55,10.963,4.984c3.822,2.443,6.892,5.049,9.271,7.624      c1.231,1.315,2.233,2.613,3.102,3.936c0.873,1.325,1.569,2.649,2.108,3.97c0,0,0.834,1.998,1.704,3.921      c0.419,0.956,0.916,1.934,1.268,2.649c0.36,0.714,0.599,1.19,0.599,1.19c0.632,1.258,1.019,2.361,1.153,3.332      c0.07,0.487,0.063,0.934,0.016,1.363c-0.038,0.433-0.141,0.835-0.309,1.211c-0.324,0.723-0.906,1.329-1.756,1.832      c-0.843,0.506-1.989,0.895-3.314,1.236c0,0-2.032,0.485-4.102,1.046c-1.039,0.29-2.079,0.58-2.858,0.798      c-0.392,0.115-0.719,0.21-0.948,0.277c-0.223,0.071-0.35,0.111-0.35,0.111C1755.834,1307.06,1752.757,1307.42,1749.152,1307.217      z M1742.755,1290.623c2.078,0.909,3.523,0.447,4.336-1.353c0.818-1.88,0.323-3.248-1.721-4.264      c-2.017-1.003-3.563-0.589-4.429,1.393C1740.082,1288.298,1740.678,1289.714,1742.755,1290.623z"
/>
<path
   style="fill:#A81C1C;"
   d="M1705.061,1325.421c0,0,1.914-1.595,3.823-3.108c1.985-1.511,3.964-2.939,3.964-2.939      c2.659-1.915,5.736-3.075,9.317-3.465c3.568-0.379,7.59,0.015,12.003,0.988c4.43,0.978,8.221,2.297,11.333,3.896      c3.18,1.629,5.733,3.53,7.628,5.634c0,0,1.461,1.587,2.932,3.091c1.545,1.525,3.094,2.967,3.094,2.967      c2.044,1.979,2.91,3.655,2.837,5.259c-0.058,0.799-0.399,1.571-1.027,2.336c-0.625,0.766-1.559,1.523-2.687,2.304      c0,0-1.743,1.176-3.495,2.433c-1.75,1.249-3.507,2.581-3.507,2.581c-2.199,1.739-4.963,3.13-8.417,4.173      c-3.369,1.052-7.343,1.753-11.875,1.95c-4.515,0.196-8.532-0.177-11.953-1.186c-3.42-0.989-6.328-2.607-8.648-4.926      c0,0-1.659-1.765-3.312-3.612c-1.652-1.839-3.295-3.758-3.295-3.758c-1.155-1.267-1.915-2.54-2.403-3.807      c-0.486-1.267-0.677-2.527-0.58-3.766C1700.941,1329.984,1702.432,1327.612,1705.061,1325.421z M1731.67,1332.059      c-1.127-0.122-2.003,0.04-2.63,0.497c-0.615,0.458-0.945,1.214-1.028,2.258c-0.16,2.093,0.886,3.201,3.149,3.342      c2.264,0.141,3.463-0.774,3.614-2.759c0.079-0.995-0.156-1.766-0.666-2.321      C1733.609,1332.523,1732.798,1332.181,1731.67,1332.059z"
/>
<path
   style="fill:#FFA227;"
   d="M1758.518,1388.608c-1.489,2.399-3.579,4.681-6.465,6.859c-2.809,2.129-6.323,4.097-10.513,5.835      c-4.174,1.732-8.052,2.82-11.606,3.061c-3.553,0.226-6.877-0.343-9.84-1.759c0,0-2.167-1.095-4.357-2.272      c-2.187-1.168-4.394-2.418-4.394-2.418c-2.948-1.613-4.704-3.727-5.389-6.125c-0.164-0.601-0.278-1.216-0.285-1.857      c-0.003-0.641,0.064-1.299,0.204-1.97c0.28-1.343,0.85-2.741,1.72-4.175c0,0,0.312-0.54,0.779-1.349      c0.467-0.805,1.088-1.868,1.774-2.927c1.34-2.117,2.701-4.153,2.701-4.153c0.912-1.349,2.001-2.56,3.258-3.63      c1.26-1.07,2.743-2.006,4.344-2.797c3.22-1.567,7.134-2.564,11.614-3.148c4.498-0.586,8.515-0.634,11.992-0.189      c1.789,0.223,3.388,0.575,4.905,1.028c1.52,0.453,2.905,1.016,4.167,1.682c0,0,1.927,1.01,3.833,1.939      c0.938,0.47,1.932,0.911,2.672,1.235c0.737,0.321,1.228,0.534,1.228,0.534c1.293,0.551,2.3,1.142,3.027,1.791      c0.363,0.324,0.656,0.663,0.88,1.019c0.228,0.354,0.422,0.715,0.528,1.1c0.453,1.53-0.235,3.367-1.918,5.608      c0,0-1.234,1.691-2.449,3.464C1759.713,1386.761,1758.518,1388.608,1758.518,1388.608z M1736.461,1386.801      c2.177-0.639,2.987-1.906,2.443-3.821c-0.136-0.48-0.325-0.881-0.561-1.206c-0.221-0.329-0.495-0.581-0.826-0.756      c-0.66-0.35-1.541-0.395-2.643-0.126c-1.102,0.269-1.868,0.718-2.299,1.361c-0.216,0.321-0.347,0.69-0.396,1.106      c-0.032,0.412,0.026,0.87,0.169,1.374C1732.921,1386.754,1734.286,1387.439,1736.461,1386.801z"
/>
<path
   style="fill:#A81C1C;"
   d="M1736.974,1419.477c2.48-2.599,5.784-4.938,9.791-7.027c4.023-2.097,7.803-3.471,11.222-4.236      c3.464-0.803,6.631-1.027,9.428-0.642c0,0,2.147,0.293,4.253,0.512c2.17,0.191,4.291,0.314,4.291,0.314      c1.401,0.083,2.545,0.298,3.444,0.662c0.893,0.368,1.623,0.832,2.077,1.49c0.946,1.291,0.884,3.29,0.176,5.979      c0,0-0.599,2.013-1.153,4.095c-0.273,1.035-0.557,2.1-0.733,2.878c-0.174,0.781-0.289,1.302-0.289,1.302      c-0.575,2.766-1.782,5.65-3.753,8.689c-1.928,2.978-4.528,6.002-7.874,9.07c-3.328,3.051-6.63,5.426-9.869,6.853      c-3.257,1.424-6.548,2.006-9.814,1.693c0,0-0.612-0.061-1.531-0.152c-0.921-0.094-2.111-0.264-3.331-0.431      c-2.427-0.337-4.899-0.743-4.899-0.743c-3.438-0.526-5.763-1.94-7.219-3.959c-0.71-1.022-1.225-2.177-1.409-3.539      c-0.19-1.358-0.127-2.87,0.199-4.526c0,0,0.431-2.473,0.911-4.879c0.535-2.449,1.123-4.835,1.123-4.835      C1732.834,1424.886,1734.462,1422.07,1736.974,1419.477z M1754.585,1425.678c-0.939,0.628-1.517,1.322-1.689,2.066      c-0.167,0.739,0.055,1.538,0.662,2.392c1.216,1.711,2.726,1.891,4.551,0.545c1.825-1.347,2.16-2.82,1.006-4.442      c-0.578-0.813-1.243-1.261-2.001-1.352C1756.362,1424.792,1755.531,1425.045,1754.585,1425.678z"
/>
<path
   style="fill:#FFA227;"
   d="M1810.778,1443.203c0,0,0.11,2.112,0.288,4.274c0.207,2.096,0.484,4.236,0.484,4.236      l-20.479,35.396c0,0-2.366,0.599-4.797,1.146c-2.387,0.492-4.84,0.936-4.84,0.936c-1.656,0.327-3.171,0.387-4.541,0.19      c-1.376-0.188-2.547-0.719-3.6-1.45c-2.003-1.445-3.417-3.77-3.886-7.163c0,0-0.406-2.473-0.744-4.9      c-0.168-1.219-0.335-2.412-0.434-3.329c-0.092-0.919-0.152-1.531-0.152-1.531c-0.367-3.313,0.255-6.569,1.69-9.816      c1.412-3.251,3.739-6.596,6.792-9.923c3.069-3.345,6.137-5.906,9.124-7.827c3.026-1.982,5.88-3.215,8.686-3.755      c0,0,0.521-0.116,1.302-0.289c0.781-0.18,1.843-0.461,2.879-0.736c2.081-0.554,4.093-1.154,4.093-1.154      c2.65-0.739,4.65-0.8,5.931,0.139c0.678,0.468,1.153,1.208,1.53,2.104C1810.476,1440.656,1810.694,1441.801,1810.778,1443.203z       M1793.507,1464.582c0.632-0.945,0.883-1.781,0.777-2.535c-0.1-0.765-0.563-1.44-1.401-2.036      c-1.61-1.145-3.096-0.82-4.443,1.006c-1.346,1.824-1.154,3.343,0.544,4.551c0.88,0.625,1.695,0.859,2.443,0.698      C1792.183,1466.096,1792.878,1465.522,1793.507,1464.582z"
/>
<path
   style="fill:#00BF33;"
   d="M1774.53,1250.086c1.431-1.363,1.38-2.869-0.185-4.512c-1.564-1.642-3.106-1.727-4.613-0.289      c-1.495,1.562-1.408,3.106,0.233,4.669C1771.608,1251.52,1773.114,1251.569,1774.53,1250.086z"
/>
<path
   style="fill:#FFFFFF;"
   d="M1747.092,1289.27c0.818-1.88,0.323-3.248-1.721-4.264c-2.017-1.003-3.563-0.589-4.429,1.393       c-0.859,1.899-0.263,3.314,1.814,4.223C1744.834,1291.532,1746.279,1291.07,1747.092,1289.27z"
/>
<path
   style="fill:#00BF33;"
   d="M1728.012,1334.814c-0.16,2.093,0.886,3.201,3.149,3.342c2.264,0.141,3.463-0.774,3.614-2.759      c0.079-0.995-0.156-1.766-0.666-2.321c-0.499-0.553-1.311-0.895-2.438-1.017c-1.127-0.122-2.003,0.04-2.63,0.497      C1728.425,1333.014,1728.095,1333.77,1728.012,1334.814z"
/>
<path
   style="fill:#FFFFFF;"
   d="M1738.905,1382.98c-0.136-0.48-0.325-0.881-0.561-1.206c-0.221-0.329-0.495-0.581-0.826-0.756       c-0.66-0.35-1.541-0.395-2.643-0.126c-1.102,0.269-1.868,0.718-2.299,1.361c-0.216,0.321-0.347,0.69-0.396,1.106       c-0.032,0.412,0.026,0.87,0.169,1.374c0.573,2.021,1.938,2.706,4.114,2.068       C1738.638,1386.162,1739.449,1384.894,1738.905,1382.98z"
/>
<path
   style="fill:#00BF33;"
   d="M1753.557,1430.136c1.216,1.711,2.726,1.891,4.551,0.545c1.825-1.347,2.16-2.82,1.006-4.442      c-0.578-0.813-1.243-1.261-2.001-1.352c-0.752-0.094-1.583,0.158-2.528,0.791c-0.939,0.628-1.517,1.322-1.689,2.066      C1752.728,1428.483,1752.95,1429.282,1753.557,1430.136z"
/>
<path
   style="fill:#FFFFFF;"
   d="M1792.883,1460.011c-1.61-1.145-3.096-0.82-4.443,1.006c-1.346,1.824-1.154,3.343,0.544,4.551       c0.88,0.625,1.695,0.859,2.443,0.698c0.756-0.17,1.451-0.743,2.079-1.683c0.632-0.945,0.883-1.781,0.777-2.535       C1794.183,1461.282,1793.72,1460.607,1792.883,1460.011z"
/>
<path
   style="fill:#FFA227;"
   d="M2012.557,1341.248c-4.532,0.195-8.508,0.838-11.877,1.876c-3.454,1.057-6.217,2.49-8.415,4.241      h40.894c-2.32-2.338-5.23-4.008-8.65-5.011C2021.088,1341.364,2017.072,1341.054,2012.557,1341.248z"
/>
<path
   style="fill:#A81C1C;"
   d="M1991.5,1299.297c2.81-2.127,6.297-4.164,10.486-5.904c4.173-1.734,8.081-2.746,11.635-2.986      c3.547-0.241,6.879,0.344,9.839,1.762c0,0,2.16,1.075,4.342,2.23c2.18,1.147,4.379,2.374,4.379,2.374      c2.957,1.629,4.711,3.744,5.417,6.214c0.354,1.187,0.362,2.47,0.075,3.814c-0.28,1.343-0.849,2.745-1.717,4.187      c0,0-0.313,0.534-0.783,1.335c-0.469,0.797-1.093,1.849-1.781,2.896c-1.344,2.094-2.709,4.109-2.709,4.109      c-0.906,1.384-1.994,2.599-3.252,3.662c-1.26,1.063-2.746,1.983-4.348,2.766c-3.218,1.586-7.123,2.646-11.604,3.228      c-4.499,0.585-8.523,0.574-12.001,0.116c-1.788-0.216-3.385-0.554-4.902-1.002c-1.52-0.448-2.904-1.014-4.171-1.705      c0,0-1.924-0.994-3.827-1.907c-0.937-0.462-1.928-0.896-2.667-1.214c-0.735-0.315-1.226-0.525-1.226-0.525      c-1.295-0.557-2.302-1.152-3.029-1.801c-0.721-0.651-1.166-1.354-1.405-2.11c-0.467-1.576,0.224-3.414,1.9-5.667      c0,0,1.239-1.677,2.459-3.434c1.222-1.75,2.422-3.581,2.422-3.581C1986.525,1303.756,1988.607,1301.462,1991.5,1299.297z       M2007.068,1307.895c-2.177,0.64-2.983,1.922-2.423,3.893c0.134,0.477,0.325,0.875,0.558,1.2      c0.22,0.329,0.495,0.581,0.826,0.757c0.661,0.352,1.543,0.4,2.645,0.132c1.102-0.268,1.868-0.721,2.298-1.365      c0.216-0.322,0.347-0.691,0.396-1.107c0.035-0.412-0.025-0.868-0.165-1.368      C2010.613,1307.956,2009.244,1307.255,2007.068,1307.895z"
/>
<path
   style="fill:#FFA227;"
   d="M1967.835,1261.266c1.921-2.988,4.48-6.055,7.825-9.125c3.327-3.053,6.672-5.381,9.923-6.793      c3.246-1.436,6.502-2.058,9.815-1.691c0,0,0.612,0.061,1.531,0.152c0.918,0.097,2.111,0.265,3.33,0.433      c2.427,0.338,4.9,0.743,4.9,0.743c3.392,0.468,5.719,1.881,7.163,3.884c0.731,1.053,1.261,2.225,1.451,3.6      c0.197,1.37,0.137,2.885-0.19,4.541c0,0-0.443,2.453-0.936,4.841c-0.546,2.43-1.145,4.797-1.145,4.797      c-0.397,1.583-1.006,3.101-1.822,4.542c-0.408,0.721-0.867,1.422-1.378,2.103c-0.521,0.687-1.097,1.355-1.718,2      c-2.487,2.583-5.785,4.936-9.793,7.023c-4.024,2.095-7.81,3.457-11.223,4.234c-0.873,0.204-1.717,0.363-2.542,0.482      c-0.836,0.126-1.648,0.211-2.438,0.258c-1.58,0.094-3.071,0.036-4.479-0.158c0,0-2.139-0.278-4.237-0.484      c-2.162-0.177-4.274-0.288-4.274-0.288c-1.401-0.083-2.547-0.301-3.451-0.673c-0.897-0.377-1.636-0.852-2.104-1.53      c-0.938-1.281-0.879-3.28-0.14-5.931c0,0,0.6-2.012,1.153-4.094c0.274-1.035,0.556-2.098,0.735-2.879      c0.174-0.781,0.289-1.302,0.289-1.302C1964.62,1267.146,1965.853,1264.293,1967.835,1261.266z M1985.409,1264.02      c-1.825,1.347-2.15,2.834-1.005,4.444c0.595,0.837,1.271,1.3,2.035,1.401c0.756,0.105,1.59-0.145,2.536-0.777      c0.94-0.628,1.514-1.325,1.682-2.079c0.161-0.749-0.073-1.564-0.698-2.443      C1988.753,1262.866,1987.233,1262.673,1985.409,1264.02z"
/>
<path
   style="fill:#A81C1C;"
   d="M1974.169,1213.991c0,0,0.405,2.472,0.743,4.899c0.167,1.219,0.336,2.411,0.432,3.33      c0.091,0.919,0.152,1.531,0.152,1.531c0.315,3.267-0.268,6.558-1.692,9.815c-1.427,3.24-3.8,6.541-6.851,9.87      c-3.068,3.346-6.092,5.948-9.07,7.876c-3.038,1.972-5.921,3.179-8.688,3.754c0,0-0.521,0.116-1.302,0.289      c-0.779,0.178-1.843,0.46-2.878,0.734c-2.082,0.554-4.094,1.153-4.094,1.153c-2.689,0.708-4.689,0.771-5.98-0.176      c-0.658-0.454-1.121-1.184-1.49-2.076c-0.364-0.899-0.579-2.043-0.663-3.444c0,0-0.123-2.12-0.314-4.291      c-0.221-2.104-0.513-4.253-0.513-4.253c-0.385-2.796-0.161-5.964,0.64-9.428c0.764-3.419,2.138-7.199,4.234-11.223      c2.088-4.007,4.427-7.312,7.026-9.792c2.595-2.514,5.409-4.141,8.569-4.96c0,0,2.385-0.588,4.835-1.125      c2.406-0.48,4.878-0.911,4.878-0.911c1.656-0.327,3.168-0.389,4.526-0.199c1.363,0.182,2.516,0.698,3.539,1.407      C1972.227,1208.229,1973.643,1210.553,1974.169,1213.991z M1955.069,1233.693c1.346-1.825,1.165-3.335-0.546-4.552      c-0.853-0.607-1.652-0.829-2.391-0.661c-0.745,0.175-1.438,0.751-2.066,1.691c-0.633,0.946-0.886,1.778-0.791,2.528      c0.091,0.758,0.539,1.422,1.351,2C1952.249,1235.853,1953.722,1235.519,1955.069,1233.693z"
/>
<path
   style="fill:#FFA227;"
   d="M1892.693,1228.722c-0.666-1.262-1.229-2.647-1.682-4.167c-0.454-1.515-0.806-3.116-1.029-4.904      c-0.446-3.476-0.398-7.493,0.188-11.992c0.584-4.481,1.579-8.394,3.146-11.615c0.79-1.602,1.726-3.083,2.796-4.345      c1.069-1.257,2.28-2.347,3.629-3.258c0,0,2.036-1.361,4.152-2.702c1.059-0.686,2.122-1.308,2.927-1.775      c0.809-0.468,1.349-0.779,1.349-0.779c1.433-0.87,2.831-1.44,4.174-1.72c0.672-0.14,1.329-0.208,1.97-0.204      c0.641,0.005,1.256,0.121,1.857,0.284c2.397,0.684,4.512,2.442,6.126,5.388c0,0,1.25,2.207,2.418,4.394      c1.177,2.189,2.272,4.357,2.272,4.357c1.417,2.961,1.986,6.286,1.761,9.839c-0.241,3.554-1.328,7.433-3.059,11.607      c-1.738,4.191-3.706,7.704-5.834,10.513c-2.178,2.887-4.46,4.976-6.859,6.467c0,0-1.847,1.195-3.611,2.411      c-1.773,1.215-3.463,2.449-3.463,2.449c-2.242,1.685-4.078,2.372-5.608,1.919c-0.385-0.106-0.745-0.301-1.1-0.527      c-0.355-0.224-0.694-0.517-1.019-0.881c-0.649-0.727-1.241-1.734-1.792-3.027c0,0-0.214-0.491-0.534-1.228      c-0.324-0.74-0.766-1.733-1.236-2.671C1893.704,1230.65,1892.693,1228.722,1892.693,1228.722z M1905.276,1210.465      c-0.268,1.102-0.224,1.983,0.126,2.644c0.175,0.33,0.427,0.605,0.757,0.826c0.326,0.235,0.726,0.425,1.206,0.561      c1.914,0.544,3.181-0.267,3.819-2.443c0.638-2.176-0.047-3.541-2.067-4.114c-0.504-0.142-0.962-0.202-1.375-0.168      c-0.416,0.048-0.785,0.18-1.107,0.396C1905.995,1208.597,1905.545,1209.364,1905.276,1210.465z"
/>
<path
   style="fill:#A81C1C;"
   d="M1876.719,1194.626c1.009,3.421,1.383,7.439,1.188,11.953c-0.196,4.532-0.897,8.506-1.948,11.875      c-1.042,3.454-2.433,6.218-4.172,8.417c0,0-1.332,1.757-2.581,3.508c-1.257,1.752-2.433,3.495-2.433,3.495      c-0.78,1.129-1.537,2.064-2.303,2.688c-0.765,0.627-1.537,0.968-2.336,1.027c-1.604,0.073-3.28-0.792-5.259-2.837      c0,0-1.443-1.55-2.968-3.094c-1.504-1.469-3.092-2.931-3.092-2.931c-2.103-1.895-4.005-4.449-5.635-7.627      c-1.599-3.111-2.919-6.902-3.897-11.332c-0.974-4.412-1.369-8.434-0.99-12.002c0.39-3.583,1.55-6.659,3.464-9.318      c0,0,1.429-1.979,2.939-3.964c1.513-1.91,3.108-3.824,3.108-3.824c2.192-2.628,4.562-4.121,7.045-4.269      c1.24-0.097,2.5,0.094,3.767,0.58c1.267,0.489,2.54,1.246,3.807,2.402c0,0,1.92,1.643,3.759,3.295      c1.847,1.652,3.612,3.311,3.612,3.311C1874.112,1188.298,1875.73,1191.207,1876.719,1194.626z M1862.541,1206.758      c-0.141-2.263-1.25-3.308-3.344-3.149c-1.044,0.083-1.8,0.412-2.257,1.029c-0.457,0.627-0.619,1.503-0.496,2.63      c0.122,1.128,0.464,1.94,1.017,2.438c0.555,0.508,1.327,0.744,2.321,0.665      C1861.767,1210.221,1862.682,1209.022,1862.541,1206.758z"
/>
<path
   style="fill:#FFA227;"
   d="M1819.309,1246.59c0,0-0.476-0.24-1.19-0.599c-0.715-0.353-1.692-0.848-2.648-1.267      c-1.923-0.87-3.921-1.704-3.921-1.704l-20.479-35.396c0,0,0.665-2.341,1.404-4.717c0.359-1.201,0.771-2.341,1.076-3.22      c0.311-0.875,0.518-1.459,0.518-1.459c0.546-1.594,1.252-2.933,2.11-4.017c0.43-0.54,0.892-1.027,1.4-1.43      c0.513-0.393,1.063-0.722,1.647-0.988c1.126-0.512,2.378-0.765,3.74-0.744c1.365,0.028,2.823,0.292,4.415,0.941      c0,0,2.352,0.89,4.63,1.818c1.129,0.468,2.259,0.936,3.105,1.287c0.418,0.178,0.766,0.327,1.009,0.431      c0.245,0.111,0.385,0.174,0.385,0.174c3.062,1.35,5.578,3.526,7.676,6.399c2.117,2.867,3.838,6.515,5.194,10.826      c1.361,4.327,2.058,8.304,2.223,11.832c0.202,3.605-0.157,6.681-1.092,9.365c0,0-0.04,0.127-0.11,0.351      c-0.067,0.229-0.162,0.556-0.277,0.948c-0.218,0.779-0.507,1.819-0.797,2.858c-0.56,2.07-1.045,4.102-1.045,4.102      c-0.341,1.325-0.729,2.473-1.235,3.315c-0.503,0.849-1.109,1.432-1.832,1.756c-0.375,0.168-0.778,0.271-1.211,0.309      c-0.428,0.049-0.876,0.054-1.363-0.015C1821.671,1247.609,1820.568,1247.221,1819.309,1246.59z M1809.392,1220.975      c1.017,2.045,2.383,2.539,4.264,1.721c1.8-0.813,2.261-2.258,1.352-4.336c-0.909-2.077-2.325-2.673-4.223-1.814      C1808.802,1217.412,1808.39,1218.959,1809.392,1220.975z"
/>
<path
   style="fill:#00BF33;"
   d="M2004.646,1311.788c0.134,0.477,0.325,0.875,0.558,1.2c0.22,0.329,0.495,0.581,0.826,0.757      c0.661,0.352,1.543,0.4,2.645,0.132c1.102-0.268,1.868-0.721,2.298-1.365c0.216-0.322,0.347-0.691,0.396-1.107      c0.035-0.412-0.025-0.868-0.165-1.368c-0.59-2.081-1.96-2.781-4.135-2.142      C2004.892,1308.534,2004.085,1309.817,2004.646,1311.788z"
/>
<path
   style="fill:#FFFFFF;"
   d="M1984.404,1268.463c0.595,0.837,1.271,1.3,2.035,1.401c0.756,0.105,1.59-0.145,2.536-0.777       c0.94-0.628,1.514-1.325,1.682-2.079c0.161-0.749-0.073-1.564-0.698-2.443c-1.207-1.698-2.727-1.891-4.551-0.544       C1983.584,1265.367,1983.259,1266.854,1984.404,1268.463z"
/>
<path
   style="fill:#00BF33;"
   d="M1954.523,1229.141c-0.853-0.607-1.652-0.829-2.391-0.661c-0.745,0.175-1.438,0.751-2.066,1.691      c-0.633,0.946-0.886,1.778-0.791,2.528c0.091,0.758,0.539,1.422,1.351,2c1.622,1.154,3.096,0.82,4.443-1.006      C1956.415,1231.868,1956.234,1230.358,1954.523,1229.141z"
/>
<path
   style="fill:#FFFFFF;"
   d="M1907.366,1214.495c1.914,0.544,3.181-0.267,3.819-2.443c0.638-2.176-0.047-3.541-2.067-4.114       c-0.504-0.142-0.962-0.202-1.375-0.168c-0.416,0.048-0.785,0.18-1.107,0.396c-0.642,0.431-1.092,1.198-1.361,2.299       c-0.268,1.102-0.224,1.983,0.126,2.644c0.175,0.33,0.427,0.605,0.757,0.826       C1906.485,1214.17,1906.886,1214.36,1907.366,1214.495z"
/>
<path
   style="fill:#00BF33;"
   d="M1859.198,1203.609c-1.044,0.083-1.8,0.412-2.257,1.029c-0.457,0.627-0.619,1.503-0.496,2.63      c0.122,1.128,0.464,1.94,1.017,2.438c0.555,0.508,1.327,0.744,2.321,0.665c1.985-0.151,2.901-1.35,2.76-3.614      C1862.4,1204.495,1861.291,1203.45,1859.198,1203.609z"
/>
<path
   style="fill:#FFFFFF;"
   d="M1813.656,1222.696c1.8-0.813,2.261-2.258,1.352-4.336c-0.909-2.077-2.325-2.673-4.223-1.814       c-1.983,0.867-2.395,2.414-1.392,4.429C1810.41,1223.02,1811.776,1223.514,1813.656,1222.696z"
/>
<path
   style="fill:#A81C1C;"
   d="M1918.182,1332.708c0,0,0.306-0.495,0.764-1.238c0.226-0.377,0.496-0.826,0.769-1.313     c0.258-0.492,0.534-1.017,0.809-1.542c0.272-0.535,0.543-1.081,0.791-1.6c0.227-0.521,0.439-1.007,0.621-1.424     c0.354-0.858,0.59-1.43,0.59-1.43c1.146-3.061,1.055-5.936-0.23-8.104c-0.63-1.147-1.6-2.072-2.746-2.82     c-0.582-0.369-1.247-0.667-1.944-0.923c-0.699-0.255-1.445-0.458-2.27-0.579c0,0-0.611-0.083-1.529-0.208     c-0.897-0.126-2.133-0.222-3.326-0.288c-1.182-0.08-2.387-0.074-3.264-0.063c-0.869,0.02-1.449,0.034-1.449,0.034     s-0.581,0.032-1.453,0.081c-0.865,0.059-1.98,0.14-3.109,0.311c-1.119,0.156-2.19,0.33-3.011,0.518     c-0.799,0.181-1.333,0.301-1.333,0.301c-0.688,0.163-1.345,0.315-1.945,0.412c-0.602,0.099-1.139,0.129-1.649,0.134     c-1.03,0.028-1.845-0.207-2.573-0.595c-1.414-0.849-2.343-2.52-3.103-5.323c0,0-0.161-0.519-0.403-1.297     c-0.133-0.395-0.288-0.857-0.454-1.351c-0.179-0.483-0.382-0.995-0.593-1.515c-0.212-0.519-0.433-1.043-0.65-1.538     c-0.22-0.483-0.438-0.923-0.629-1.31c-0.394-0.774-0.656-1.29-0.656-1.29s-0.258-0.534-0.691-1.284     c-0.431-0.752-1.028-1.798-1.686-2.797c-0.657-0.988-1.362-1.991-1.915-2.739c-0.569-0.721-0.948-1.203-0.948-1.203     c-2.075-2.579-4.612-3.833-7.224-3.877c-2.515,0.044-5.055,1.295-7.132,3.872c0,0-0.38,0.481-0.949,1.203     c-0.554,0.743-1.259,1.75-1.917,2.737c-0.659,0.995-1.256,2.045-1.688,2.796c-0.433,0.75-0.692,1.282-0.692,1.282     s-0.263,0.516-0.657,1.29c-0.184,0.383-0.4,0.83-0.63,1.308c-0.217,0.495-0.439,1.019-0.651,1.538     c-0.212,0.52-0.414,1.034-0.595,1.514c-0.166,0.494-0.322,0.956-0.455,1.351c-0.243,0.778-0.404,1.297-0.404,1.297     c-0.775,2.806-1.693,4.474-3.108,5.32c-1.435,0.811-3.367,0.761-6.221,0.085c0,0-0.53-0.123-1.325-0.308     c-0.816-0.192-1.879-0.37-2.992-0.533c-1.122-0.176-2.231-0.265-3.09-0.329c-0.866-0.054-1.444-0.091-1.444-0.091     s-0.579-0.014-1.449-0.035c-0.876-0.01-2.083-0.02-3.264,0.06c-1.191,0.068-2.431,0.16-3.327,0.286     c-0.917,0.124-1.528,0.207-1.528,0.207c-0.835,0.134-1.591,0.347-2.295,0.61c-0.702,0.264-1.37,0.566-1.951,0.935     c-1.147,0.748-2.107,1.657-2.717,2.771c-1.297,2.184-1.378,5.044-0.237,8.103c0,0,0.453,1.18,1.178,2.83     c0.387,0.833,0.859,1.786,1.37,2.765c0.508,0.979,1.139,2.009,1.738,2.983c1.249,1.969,2.609,3.761,3.705,5.027     c0.533,0.633,0.984,1.137,1.327,1.489c0.333,0.346,0.524,0.544,0.524,0.544c1.984,2.07,3.076,3.73,3.028,5.377     c0.046,1.71-1.044,3.37-3.028,5.44c0,0-0.191,0.198-0.524,0.544c-0.343,0.352-0.795,0.856-1.327,1.489     c-1.096,1.266-2.456,3.058-3.705,5.027c-0.599,0.974-1.229,2.005-1.738,2.983c-0.511,0.979-0.983,1.932-1.37,2.765     c-0.725,1.65-1.178,2.83-1.178,2.83c-1.148,3.043-1.06,5.92,0.238,8.104c0.611,1.114,1.571,2.022,2.711,2.76     c0.577,0.365,1.241,0.659,1.935,0.913c0.698,0.251,1.439,0.454,2.262,0.571c0,0,0.307,0.045,0.844,0.124     c0.539,0.072,1.282,0.186,2.196,0.269c0.917,0.08,1.971,0.155,3.071,0.206c1.128,0.027,2.309,0.023,3.454-0.008     c1.175-0.058,2.32-0.15,3.363-0.255c1.069-0.134,2.04-0.285,2.852-0.424c0.812-0.138,1.502-0.308,1.964-0.41     c0.464-0.11,0.729-0.173,0.729-0.173c0.692-0.161,1.348-0.308,1.952-0.405c0.604-0.098,1.145-0.127,1.657-0.128     c1.037-0.023,1.863,0.218,2.612,0.617c1.405,0.841,2.333,2.515,3.108,5.32c0,0,0.288,1.025,0.832,2.624     c0.283,0.773,0.638,1.677,1.056,2.667c0.417,0.99,0.921,1.987,1.454,3.038c1.076,2.048,2.364,4.08,3.432,5.548     c0.529,0.75,0.995,1.37,1.331,1.779c0.338,0.42,0.531,0.659,0.531,0.659c2.078,2.576,4.598,3.828,7.132,3.872     c2.533-0.043,5.076-1.29,7.224-3.877c0,0,0.379-0.481,0.948-1.203c0.553-0.747,1.258-1.751,1.915-2.739     c0.658-1,1.255-2.045,1.686-2.797c0.433-0.749,0.691-1.284,0.691-1.284s0.258-0.515,0.645-1.286     c0.187-0.385,0.401-0.826,0.618-1.306c0.212-0.493,0.43-1.016,0.638-1.534c0.208-0.518,0.405-1.032,0.583-1.509     c0.163-0.493,0.315-0.953,0.445-1.347c0.237-0.776,0.395-1.294,0.395-1.294c0.826-2.825,1.751-4.5,3.166-5.348     c0.728-0.387,1.54-0.621,2.569-0.592c0.509,0.006,1.046,0.036,1.648,0.135c0.601,0.096,1.259,0.247,1.95,0.408     c0,0,0.533,0.12,1.333,0.301c0.821,0.188,1.891,0.362,3.01,0.518c1.129,0.17,2.244,0.252,3.109,0.311     c0.872,0.049,1.453,0.081,1.453,0.081s0.58,0.013,1.449,0.034c0.878,0.012,2.082,0.017,3.264-0.063     c1.193-0.067,2.429-0.163,3.326-0.289c0.917-0.125,1.529-0.208,1.529-0.208c0.824-0.12,1.57-0.323,2.268-0.577     c0.696-0.255,1.359-0.552,1.938-0.915c1.139-0.739,2.099-1.641,2.705-2.747c1.337-2.249,1.422-5.127,0.278-8.186     c0,0-0.236-0.572-0.59-1.431c-0.182-0.417-0.394-0.903-0.621-1.424c-0.248-0.52-0.518-1.065-0.791-1.6     c-0.275-0.525-0.551-1.05-0.809-1.542c-0.273-0.487-0.543-0.935-0.769-1.313c-0.458-0.743-0.764-1.238-0.764-1.238     s-0.286-0.49-0.785-1.211c-0.497-0.72-1.127-1.643-1.825-2.529c-0.708-0.891-1.411-1.73-1.955-2.34     c-0.567-0.601-0.945-1.002-0.945-1.002c-1.988-2.056-3.079-3.716-3.031-5.375h-13.659c-0.048,1.076,1.08,2.148,3.144,3.617     c0,0,0.394,0.289,0.984,0.724c0.569,0.442,1.309,1.058,2.061,1.728c0.741,0.664,1.422,1.365,1.96,1.921     c0.54,0.556,0.856,0.937,0.856,0.937s0.336,0.387,0.839,0.969c0.249,0.297,0.547,0.651,0.852,1.038     c0.292,0.382,0.603,0.8,0.911,1.229c0.308,0.428,0.616,0.869,0.9,1.289c0.264,0.423,0.511,0.817,0.723,1.155     c0.417,0.702,0.695,1.171,0.695,1.171c1.39,2.514,1.553,4.848,0.523,6.566c-0.458,0.85-1.258,1.504-2.23,1.997     c-0.496,0.241-1.074,0.416-1.684,0.55c-0.612,0.133-1.272,0.216-2.01,0.216c0,0-0.543-0.004-1.358-0.01     c-0.793-0.004-1.888-0.078-2.935-0.178c-1.037-0.086-2.091-0.254-2.853-0.385c-0.753-0.139-1.256-0.231-1.256-0.231     s-0.501-0.111-1.253-0.277c-0.744-0.175-1.695-0.409-2.655-0.727c-0.951-0.303-1.849-0.621-2.538-0.914     c-0.667-0.285-1.112-0.474-1.112-0.474c-0.574-0.251-1.113-0.491-1.593-0.673c-0.483-0.185-0.898-0.299-1.284-0.387     c-0.783-0.193-1.344-0.116-1.814,0.122c-0.9,0.55-1.289,1.957-1.545,4.547c0,0-0.054,0.476-0.135,1.189     c-0.052,0.365-0.112,0.79-0.177,1.246c-0.078,0.441-0.171,0.917-0.272,1.399c-0.101,0.482-0.212,0.97-0.324,1.432     c-0.116,0.448-0.236,0.861-0.343,1.223c-0.225,0.727-0.375,1.211-0.375,1.211s-0.149,0.505-0.419,1.214     c-0.268,0.712-0.646,1.708-1.085,2.664c-0.438,0.944-0.923,1.91-1.31,2.633c-0.404,0.698-0.673,1.164-0.673,1.164     c-1.537,2.526-3.495,3.719-5.444,3.762c-1.949-0.044-3.889-1.24-5.374-3.758c0,0-0.138-0.232-0.379-0.638     c-0.239-0.395-0.566-0.995-0.929-1.716c-0.737-1.411-1.583-3.353-2.224-5.283c-0.316-0.993-0.603-1.926-0.819-2.852     c-0.216-0.925-0.385-1.765-0.509-2.479c-0.228-1.482-0.308-2.418-0.308-2.418c-0.222-2.577-0.614-3.984-1.507-4.53     c-0.484-0.246-1.053-0.328-1.842-0.138c-0.388,0.084-0.806,0.198-1.29,0.382c-0.483,0.183-1.021,0.418-1.595,0.67     c0,0-0.221,0.097-0.608,0.267c-0.386,0.162-0.967,0.419-1.651,0.664c-0.684,0.246-1.507,0.525-2.422,0.799     c-0.889,0.246-1.873,0.491-2.891,0.707c-0.988,0.188-2.016,0.353-3.004,0.481c-0.96,0.104-1.887,0.177-2.697,0.225     c-0.806,0.045-1.463,0.04-1.942,0.045c-0.477-0.002-0.75-0.003-0.75-0.003c-0.737,0.002-1.392-0.081-2.005-0.212     c-0.609-0.134-1.189-0.307-1.682-0.549c-0.974-0.493-1.773-1.152-2.234-2.008c-1-1.668-0.838-4.001,0.554-6.504     c0,0,0.542-0.972,1.383-2.305c0.445-0.675,0.983-1.441,1.558-2.219c0.573-0.778,1.268-1.592,1.924-2.348     c1.366-1.534,2.818-2.884,3.97-3.818c0.561-0.466,1.033-0.832,1.39-1.087c0.347-0.249,0.545-0.392,0.545-0.392     c2.062-1.48,3.189-2.552,3.142-3.66c0.047-1.068-1.081-2.14-3.142-3.62c0,0-0.198-0.142-0.545-0.392     c-0.357-0.255-0.829-0.621-1.39-1.087c-1.152-0.934-2.604-2.285-3.97-3.818c-0.657-0.756-1.352-1.57-1.924-2.348     c-0.575-0.777-1.113-1.544-1.558-2.219c-0.842-1.333-1.383-2.305-1.383-2.305c-1.386-2.515-1.553-4.835-0.554-6.503     c0.462-0.856,1.261-1.515,2.239-2.016c0.497-0.245,1.08-0.424,1.695-0.566c0.616-0.141,1.283-0.23,2.029-0.241     c0,0,0.543,0.004,1.357,0.011c0.792,0.004,1.89,0.082,2.935,0.18c1.036,0.086,2.092,0.257,2.853,0.387     c0.753,0.139,1.255,0.232,1.255,0.232s0.499,0.114,1.247,0.284c0.739,0.179,1.686,0.418,2.642,0.74     c0.946,0.308,1.839,0.628,2.525,0.924c0.664,0.287,1.107,0.479,1.107,0.479c2.371,1.047,3.807,1.427,4.727,0.914     c0.9-0.548,1.285-1.953,1.507-4.53c0,0,0.057-0.476,0.141-1.191c0.054-0.365,0.116-0.792,0.183-1.248     c0.081-0.443,0.176-0.919,0.28-1.403c0.104-0.483,0.218-0.972,0.333-1.435c0.12-0.447,0.242-0.862,0.351-1.224     c0.23-0.728,0.384-1.214,0.384-1.214s0.15-0.503,0.421-1.213c0.269-0.711,0.647-1.71,1.087-2.663     c0.439-0.943,0.924-1.913,1.312-2.632c0.404-0.698,0.674-1.164,0.674-1.164c1.484-2.518,3.439-3.714,5.374-3.758     c2.009,0.044,3.961,1.243,5.444,3.762c0,0,0.269,0.466,0.673,1.164c0.387,0.723,0.872,1.689,1.31,2.633     c0.438,0.956,0.817,1.952,1.085,2.664c0.27,0.709,0.419,1.214,0.419,1.214s0.153,0.485,0.383,1.213     c0.108,0.363,0.232,0.775,0.35,1.226c0.115,0.463,0.229,0.952,0.333,1.434c0.104,0.484,0.2,0.957,0.279,1.404     c0.067,0.457,0.129,0.883,0.182,1.248c0.084,0.714,0.141,1.19,0.141,1.19c0.211,2.576,0.604,3.981,1.503,4.531     c0.47,0.238,1.033,0.317,1.817,0.124c0.386-0.087,0.802-0.201,1.284-0.387c0.48-0.183,1.018-0.422,1.59-0.675     c0,0,0.445-0.19,1.112-0.474c0.689-0.293,1.588-0.61,2.538-0.913c0.96-0.318,1.912-0.552,2.655-0.727     c0.752-0.166,1.253-0.277,1.253-0.277s0.502-0.092,1.256-0.231c0.762-0.131,1.816-0.299,2.853-0.385     c1.047-0.099,2.142-0.174,2.935-0.178c0.815-0.006,1.358-0.01,1.358-0.01c0.738,0,1.398,0.083,2.01,0.217     c0.611,0.136,1.191,0.312,1.689,0.557c0.978,0.5,1.785,1.172,2.261,2.053c0.99,1.657,0.831,3.988-0.559,6.503     c0,0-0.278,0.468-0.695,1.171c-0.212,0.338-0.458,0.733-0.723,1.155c-0.284,0.421-0.592,0.861-0.9,1.29     c-0.308,0.429-0.619,0.846-0.911,1.229c-0.304,0.386-0.602,0.741-0.851,1.038c-0.504,0.581-0.839,0.968-0.839,0.968     s-0.316,0.381-0.856,0.937c-0.537,0.555-1.218,1.256-1.96,1.921c-0.752,0.669-1.492,1.285-2.061,1.727     c-0.59,0.434-0.984,0.724-0.984,0.724c-2.064,1.478-3.192,2.541-3.144,3.618h13.659c-0.048-1.661,1.044-3.307,3.031-5.375     c0,0,0.378-0.401,0.945-1.002c0.544-0.61,1.246-1.449,1.955-2.34c0.698-0.886,1.328-1.809,1.825-2.529     C1917.896,1333.198,1918.182,1332.708,1918.182,1332.708z"
/>
<path
   style="fill:#FFFFFF;"
   d="M1931.377,1329.176c0,0,0.27-0.602,0.676-1.505c0.199-0.457,0.436-0.998,0.673-1.583      c0.221-0.59,0.457-1.22,0.692-1.849c0.227-0.648,0.454-1.296,0.667-1.904c0.186-0.617,0.359-1.193,0.507-1.686      c0.284-1.01,0.474-1.684,0.474-1.684c0.997-3.644,0.639-7.059-0.941-9.738c-0.783-1.413-1.912-2.594-3.234-3.584      c-0.669-0.49-1.426-0.905-2.219-1.275c-0.795-0.369-1.642-0.681-2.573-0.904c0,0-0.675-0.173-1.688-0.432      c-0.994-0.26-2.362-0.532-3.693-0.772c-1.32-0.253-2.666-0.417-3.653-0.53c-0.98-0.104-1.633-0.173-1.633-0.173      s-0.661-0.046-1.652-0.115c-0.986-0.058-2.265-0.129-3.562-0.106c-1.287,0.008-2.531,0.039-3.483,0.122      c-0.932,0.077-1.553,0.128-1.553,0.128c-0.815,0.088-1.598,0.163-2.324,0.183c-0.728,0.023-1.391-0.024-2.027-0.096      c-1.283-0.125-2.35-0.513-3.334-1.049c-1.926-1.145-3.378-3.094-4.66-6.189c0,0-0.267-0.561-0.666-1.403      c-0.212-0.426-0.46-0.922-0.726-1.454c-0.279-0.52-0.589-1.069-0.907-1.626c-0.329-0.559-0.658-1.117-0.967-1.641      c-0.321-0.515-0.635-0.984-0.907-1.394c-0.558-0.819-0.93-1.366-0.93-1.366s-0.367-0.559-0.965-1.34      c-0.596-0.784-1.414-1.869-2.292-2.901c-0.878-1.021-1.804-2.051-2.522-2.815c-0.734-0.737-1.223-1.228-1.223-1.228      c-2.651-2.741-5.78-4.034-8.992-4.078c-3.094,0.044-6.225,1.332-8.879,4.071c0,0-0.49,0.491-1.224,1.228      c-0.719,0.76-1.646,1.793-2.524,2.813c-0.88,1.028-1.698,2.116-2.294,2.899c-0.598,0.782-0.967,1.338-0.967,1.338      s-0.372,0.546-0.93,1.366c-0.266,0.407-0.576,0.882-0.908,1.392c-0.309,0.524-0.638,1.083-0.967,1.641      c-0.309,0.553-0.619,1.106-0.909,1.624c-0.266,0.532-0.514,1.028-0.726,1.454c-0.4,0.842-0.667,1.403-0.667,1.403      c-1.301,3.098-2.738,5.043-4.665,6.185c-1.947,1.107-4.378,1.369-7.758,1.011c0,0-0.307-0.029-0.844-0.078      c-0.536-0.042-1.329-0.123-2.263-0.155c-0.935-0.033-2.044-0.055-3.261-0.051c-1.19,0.033-2.486,0.096-3.811,0.191      c-1.295,0.124-2.617,0.282-3.879,0.458c-1.233,0.201-2.405,0.422-3.422,0.627c-1.019,0.204-1.839,0.428-2.435,0.573      c-0.593,0.154-0.931,0.242-0.931,0.242c-0.945,0.241-1.804,0.565-2.604,0.944c-0.799,0.379-1.56,0.8-2.228,1.29      c-1.322,0.991-2.439,2.152-3.199,3.523c-1.594,2.698-1.941,6.094-0.949,9.736c0,0,0.187,0.68,0.467,1.701      c0.147,0.498,0.318,1.08,0.501,1.703c0.204,0.622,0.431,1.278,0.659,1.923c0.234,0.636,0.467,1.272,0.686,1.868      c0.237,0.591,0.471,1.138,0.669,1.599c0.403,0.912,0.672,1.519,0.672,1.519s0.261,0.594,0.721,1.47      c0.458,0.876,1.041,2.008,1.698,3.104c0.666,1.101,1.335,2.153,1.852,2.921c0.545,0.76,0.907,1.268,0.907,1.268      c1.975,2.669,3.047,4.911,2.999,7.135c0.046,2.308-1.023,4.551-2.999,7.22c0,0-0.363,0.507-0.908,1.268      c-0.517,0.768-1.186,1.82-1.852,2.921c-0.657,1.096-1.24,2.228-1.698,3.104c-0.46,0.876-0.721,1.47-0.721,1.47      s-0.269,0.608-0.672,1.519c-0.198,0.462-0.433,1.008-0.669,1.599c-0.219,0.596-0.453,1.232-0.686,1.868      c-0.229,0.645-0.456,1.301-0.659,1.923c-0.183,0.623-0.354,1.204-0.501,1.703c-0.28,1.02-0.467,1.701-0.467,1.701      c-1,3.622-0.646,7.039,0.95,9.737c0.76,1.372,1.877,2.532,3.191,3.511c0.664,0.485,1.419,0.896,2.208,1.263      c0.794,0.364,1.635,0.675,2.563,0.895c0,0,0.68,0.179,1.699,0.447c1,0.269,2.376,0.552,3.716,0.801      c1.328,0.264,2.685,0.435,3.677,0.556c0.986,0.11,1.644,0.184,1.644,0.184s0.657,0.041,1.642,0.102      c0.978,0.051,2.249,0.112,3.537,0.083c1.279-0.016,2.512-0.054,3.458-0.141c0.925-0.082,1.542-0.137,1.542-0.137      c0.819-0.085,1.603-0.155,2.333-0.174c0.731-0.02,1.398,0.028,2.037,0.104c1.292,0.132,2.373,0.528,3.387,1.08      c1.913,1.134,3.365,3.087,4.665,6.185c0,0,0.261,0.559,0.654,1.398c0.208,0.424,0.452,0.919,0.712,1.448      c0.274,0.517,0.578,1.065,0.891,1.62c0.323,0.557,0.646,1.113,0.949,1.635c0.315,0.515,0.624,0.981,0.891,1.39      c0.548,0.817,0.914,1.361,0.914,1.361s0.372,0.563,0.979,1.346c0.605,0.786,1.435,1.874,2.326,2.909      c0.891,1.022,1.83,2.057,2.56,2.82c0.745,0.738,1.241,1.23,1.241,1.23c2.654,2.738,5.762,4.026,8.879,4.071      c3.117-0.043,6.251-1.326,8.993-4.078c0,0,0.247-0.245,0.678-0.675c0.429-0.42,1.028-1.06,1.718-1.832      c1.389-1.514,3.105-3.627,4.606-5.777c0.746-1.102,1.462-2.157,2.076-3.204c0.615-1.047,1.153-2.012,1.593-2.835      c0.857-1.705,1.35-2.811,1.35-2.811c1.368-3.124,2.816-5.078,4.743-6.222c0.984-0.536,2.048-0.921,3.329-1.045      c0.635-0.071,1.297-0.118,2.026-0.095c0.727,0.019,1.512,0.094,2.331,0.178c0,0,0.621,0.051,1.553,0.128      c0.952,0.083,2.195,0.114,3.483,0.122c1.297,0.023,2.577-0.048,3.562-0.106c0.991-0.069,1.652-0.115,1.652-0.115      s0.653-0.069,1.633-0.173c0.986-0.114,2.333-0.277,3.653-0.53c1.331-0.24,2.699-0.512,3.693-0.772      c1.013-0.259,1.688-0.432,1.688-0.432c0.931-0.224,1.778-0.536,2.572-0.903c0.792-0.368,1.546-0.782,2.212-1.265      c1.313-0.979,2.429-2.133,3.184-3.494c1.643-2.779,1.995-6.198,0.999-9.839c0,0-0.19-0.674-0.474-1.684      c-0.148-0.493-0.322-1.069-0.507-1.686c-0.213-0.608-0.44-1.256-0.667-1.904c-0.236-0.63-0.471-1.259-0.692-1.849      c-0.237-0.585-0.474-1.127-0.673-1.583c-0.406-0.903-0.676-1.505-0.676-1.505s-0.256-0.6-0.715-1.486      c-0.456-0.885-1.036-2.03-1.69-3.138c-0.664-1.113-1.329-2.175-1.848-2.952c-0.543-0.769-0.906-1.281-0.906-1.281      c-1.98-2.65-3.051-4.893-3.003-7.133h-13.574c-0.048,1.66,1.043,3.319,3.031,5.375c0,0,0.378,0.401,0.945,1.002      c0.544,0.609,1.247,1.449,1.955,2.34c0.698,0.886,1.328,1.809,1.825,2.529c0.499,0.721,0.785,1.211,0.785,1.211      s0.306,0.495,0.764,1.238c0.226,0.377,0.496,0.826,0.769,1.313c0.258,0.492,0.534,1.017,0.809,1.542      c0.272,0.535,0.542,1.08,0.791,1.6c0.227,0.521,0.439,1.007,0.621,1.424c0.354,0.858,0.59,1.431,0.59,1.431      c1.144,3.059,1.059,5.937-0.278,8.186c-0.606,1.106-1.566,2.008-2.705,2.747c-0.579,0.363-1.242,0.659-1.938,0.915      c-0.698,0.254-1.444,0.457-2.268,0.577c0,0-0.611,0.083-1.529,0.208c-0.897,0.126-2.133,0.222-3.326,0.289      c-1.182,0.08-2.387,0.075-3.264,0.063c-0.87-0.02-1.449-0.034-1.449-0.034s-0.581-0.032-1.453-0.081      c-0.865-0.059-1.98-0.14-3.109-0.311c-1.119-0.156-2.19-0.33-3.01-0.518c-0.799-0.181-1.333-0.301-1.333-0.301      c-0.691-0.161-1.349-0.312-1.95-0.408c-0.603-0.099-1.139-0.129-1.648-0.135c-1.029-0.029-1.841,0.204-2.569,0.592      c-1.415,0.848-2.34,2.523-3.166,5.348c0,0-0.158,0.517-0.395,1.294c-0.13,0.394-0.282,0.854-0.445,1.347      c-0.177,0.477-0.375,0.991-0.583,1.509c-0.208,0.518-0.425,1.041-0.638,1.534c-0.217,0.479-0.431,0.921-0.618,1.306      c-0.387,0.772-0.645,1.286-0.645,1.286s-0.258,0.534-0.691,1.284c-0.431,0.752-1.028,1.797-1.686,2.797      c-0.657,0.988-1.362,1.991-1.915,2.739c-0.569,0.722-0.948,1.203-0.948,1.203c-2.147,2.587-4.691,3.835-7.224,3.877      c-2.534-0.044-5.054-1.296-7.132-3.872c0,0-0.193-0.24-0.531-0.659c-0.336-0.409-0.801-1.029-1.331-1.779      c-1.069-1.468-2.356-3.501-3.432-5.548c-0.534-1.051-1.038-2.048-1.454-3.038c-0.417-0.99-0.773-1.894-1.056-2.667      c-0.545-1.599-0.832-2.624-0.832-2.624c-0.775-2.805-1.703-4.48-3.108-5.32c-0.749-0.4-1.575-0.641-2.612-0.617      c-0.512,0.001-1.052,0.03-1.657,0.128c-0.604,0.096-1.26,0.243-1.952,0.405c0,0-0.265,0.063-0.729,0.173      c-0.463,0.102-1.152,0.271-1.964,0.41c-0.812,0.139-1.782,0.29-2.852,0.424c-1.043,0.105-2.189,0.197-3.363,0.255      c-1.146,0.03-2.327,0.034-3.454,0.008c-1.101-0.051-2.154-0.125-3.071-0.206c-0.913-0.083-1.657-0.197-2.196-0.269      c-0.537-0.079-0.844-0.124-0.844-0.124c-0.822-0.117-1.564-0.32-2.262-0.571c-0.694-0.254-1.358-0.548-1.935-0.913      c-1.14-0.738-2.1-1.647-2.711-2.76c-1.298-2.184-1.385-5.06-0.238-8.104c0,0,0.453-1.18,1.178-2.83      c0.387-0.833,0.859-1.786,1.37-2.765c0.508-0.979,1.139-2.009,1.738-2.983c1.249-1.969,2.609-3.761,3.705-5.027      c0.533-0.632,0.984-1.137,1.327-1.489c0.333-0.346,0.524-0.544,0.524-0.544c1.984-2.07,3.074-3.731,3.028-5.44      c0.048-1.647-1.044-3.307-3.028-5.377c0,0-0.19-0.198-0.524-0.544c-0.343-0.352-0.795-0.856-1.327-1.489      c-1.096-1.266-2.456-3.058-3.705-5.027c-0.599-0.974-1.229-2.005-1.738-2.983c-0.511-0.979-0.984-1.932-1.37-2.765      c-0.725-1.65-1.178-2.83-1.178-2.83c-1.14-3.06-1.06-5.919,0.237-8.103c0.611-1.114,1.571-2.022,2.717-2.771      c0.581-0.369,1.25-0.671,1.951-0.935c0.703-0.264,1.459-0.476,2.295-0.61c0,0,0.611-0.083,1.528-0.207      c0.896-0.126,2.135-0.218,3.327-0.286c1.182-0.08,2.389-0.071,3.264-0.06c0.869,0.021,1.449,0.035,1.449,0.035      s0.578,0.036,1.444,0.091c0.859,0.064,1.968,0.153,3.09,0.329c1.113,0.162,2.176,0.341,2.992,0.533      c0.795,0.185,1.325,0.308,1.325,0.308c2.854,0.675,4.786,0.725,6.221-0.085c1.415-0.846,2.333-2.514,3.108-5.32      c0,0,0.161-0.519,0.404-1.297c0.133-0.396,0.288-0.857,0.455-1.351c0.181-0.479,0.383-0.994,0.595-1.514      c0.212-0.52,0.434-1.043,0.651-1.538c0.23-0.479,0.445-0.925,0.63-1.308c0.394-0.774,0.657-1.29,0.657-1.29      s0.259-0.532,0.692-1.282c0.432-0.751,1.029-1.8,1.688-2.796c0.658-0.987,1.363-1.994,1.917-2.737      c0.569-0.722,0.949-1.203,0.949-1.203c2.077-2.577,4.617-3.828,7.132-3.872c2.611,0.044,5.149,1.298,7.224,3.877      c0,0,0.379,0.481,0.948,1.203c0.553,0.748,1.258,1.751,1.915,2.739c0.658,1,1.255,2.045,1.686,2.797      c0.433,0.749,0.691,1.284,0.691,1.284s0.262,0.516,0.656,1.29c0.19,0.386,0.409,0.827,0.629,1.31      c0.216,0.495,0.438,1.018,0.65,1.538c0.211,0.521,0.414,1.032,0.593,1.515c0.166,0.494,0.321,0.956,0.454,1.351      c0.242,0.778,0.403,1.297,0.403,1.297c0.76,2.804,1.689,4.475,3.103,5.323c0.728,0.387,1.543,0.623,2.573,0.595      c0.51-0.005,1.047-0.035,1.649-0.134c0.6-0.097,1.257-0.248,1.945-0.412c0,0,0.533-0.12,1.333-0.301      c0.821-0.188,1.891-0.362,3.011-0.518c1.129-0.17,2.244-0.252,3.109-0.311c0.872-0.049,1.453-0.081,1.453-0.081      s0.58-0.014,1.449-0.034c0.877-0.011,2.082-0.017,3.264,0.063c1.193,0.067,2.429,0.163,3.326,0.288      c0.917,0.125,1.529,0.208,1.529,0.208c0.825,0.12,1.571,0.323,2.27,0.579c0.696,0.257,1.362,0.555,1.944,0.923      c1.147,0.748,2.117,1.672,2.746,2.82c1.285,2.168,1.376,5.043,0.23,8.104c0,0-0.236,0.572-0.59,1.43      c-0.182,0.417-0.394,0.903-0.621,1.424c-0.248,0.519-0.518,1.065-0.791,1.6c-0.275,0.525-0.551,1.05-0.809,1.542      c-0.273,0.487-0.543,0.935-0.769,1.313c-0.458,0.743-0.764,1.238-0.764,1.238s-0.286,0.49-0.785,1.211      c-0.496,0.72-1.127,1.643-1.825,2.529c-0.708,0.891-1.411,1.73-1.955,2.34c-0.567,0.601-0.945,1.002-0.945,1.002      c-1.987,2.068-3.079,3.715-3.031,5.375h13.574c-0.048-2.241,1.025-4.466,3.003-7.133c0,0,0.362-0.512,0.906-1.281      c0.519-0.777,1.184-1.839,1.848-2.952c0.654-1.108,1.234-2.252,1.69-3.138      C1931.121,1329.776,1931.377,1329.176,1931.377,1329.176z"
/>
<path
   style="fill:#FFA227;"
   d="M1947.686,1313.737c0.705-4.17,0.069-8.109-1.804-11.296c-0.936-1.677-2.22-3.114-3.697-4.359     c-0.747-0.617-1.581-1.159-2.451-1.656c-0.872-0.495-1.797-0.934-2.804-1.286c0,0-0.375-0.133-1.031-0.365     c-0.66-0.224-1.574-0.557-2.704-0.892c-1.13-0.335-2.437-0.704-3.817-1.061c-1.41-0.331-2.894-0.651-4.354-0.932     c-1.49-0.252-2.955-0.469-4.307-0.64c-1.378-0.144-2.641-0.248-3.708-0.321c-1.07-0.071-1.974-0.078-2.59-0.095     c-0.617-0.009-0.969-0.014-0.969-0.014c-0.918-0.018-1.809-0.043-2.648-0.119c-0.841-0.073-1.62-0.21-2.376-0.369     c-1.523-0.299-2.843-0.844-4.084-1.529c-2.44-1.443-4.433-3.658-6.292-6.901c0,0-0.701-1.201-1.877-3.032     c-0.597-0.893-1.325-1.924-2.143-3.043c-0.816-1.123-1.752-2.244-2.719-3.412c-1.943-2.284-4.109-4.5-5.838-6.082     c-0.86-0.805-1.602-1.471-2.13-1.907c-0.531-0.446-0.835-0.701-0.835-0.701c-3.25-2.75-6.962-4.064-10.772-4.108     c-3.67,0.044-7.384,1.352-10.637,4.1c0,0-0.304,0.255-0.835,0.7c-0.528,0.436-1.271,1.098-2.131,1.905     c-1.73,1.581-3.898,3.795-5.843,6.077c-0.968,1.167-1.904,2.291-2.722,3.41c-0.819,1.118-1.546,2.152-2.145,3.041     c-1.177,1.831-1.879,3.033-1.879,3.033c-1.884,3.247-3.857,5.457-6.299,6.896c-2.462,1.405-5.391,1.999-9.199,2.079     c0,0-0.707,0.009-1.767,0.023c-1.08,0.009-2.489,0.104-3.941,0.225c-1.461,0.107-2.901,0.311-4.004,0.471     c-1.109,0.172-1.848,0.286-1.848,0.286s-0.73,0.148-1.826,0.369c-1.1,0.234-2.599,0.555-4.064,0.975     c-1.475,0.406-2.988,0.845-4.085,1.235c-1.115,0.389-1.859,0.649-1.859,0.649c-1.024,0.372-1.962,0.826-2.841,1.333     c-0.878,0.508-1.716,1.056-2.462,1.673c-1.477,1.246-2.746,2.659-3.654,4.287c-1.891,3.21-2.513,7.126-1.814,11.293     c0,0,0.144,0.786,0.361,1.964c0.116,0.578,0.252,1.252,0.398,1.974c0.167,0.721,0.356,1.485,0.548,2.237     c0.198,0.744,0.397,1.488,0.583,2.185c0.205,0.693,0.411,1.334,0.586,1.878c0.357,1.076,0.596,1.793,0.596,1.793     s0.236,0.704,0.665,1.745c0.426,1.041,0.97,2.393,1.594,3.71c0.633,1.321,1.276,2.594,1.776,3.528     c0.529,0.926,0.882,1.543,0.882,1.543c1.814,3.246,2.847,6.079,2.799,8.882c0.045,2.909-0.984,5.743-2.798,8.989     c0,0-0.353,0.617-0.882,1.543c-0.5,0.934-1.143,2.207-1.776,3.528c-0.624,1.317-1.168,2.67-1.594,3.71     c-0.428,1.041-0.664,1.745-0.664,1.745s-0.238,0.717-0.596,1.793c-0.174,0.543-0.381,1.185-0.586,1.878     c-0.186,0.697-0.384,1.441-0.583,2.185c-0.192,0.752-0.381,1.516-0.548,2.237c-0.145,0.722-0.281,1.396-0.398,1.974     c-0.217,1.178-0.361,1.963-0.361,1.963c-0.71,4.144-0.077,8.084,1.814,11.294c0.908,1.628,2.177,3.041,3.645,4.272     c0.74,0.611,1.572,1.148,2.438,1.641c0.87,0.49,1.789,0.928,2.792,1.274c0,0,0.749,0.267,1.872,0.667     c1.105,0.4,2.624,0.856,4.112,1.274c1.476,0.432,2.984,0.768,4.093,1.009c1.104,0.23,1.84,0.383,1.84,0.383     s0.739,0.114,1.848,0.286c1.103,0.16,2.543,0.364,4.004,0.471c1.452,0.121,2.861,0.216,3.941,0.226     c1.06,0.014,1.767,0.023,1.767,0.023c0.923,0.022,1.815,0.053,2.659,0.13c0.845,0.076,1.629,0.215,2.389,0.38     c1.534,0.307,2.872,0.863,4.151,1.569c2.424,1.43,4.416,3.649,6.299,6.896c0,0,0.363,0.606,0.907,1.514     c0.285,0.457,0.618,0.991,0.974,1.563c0.371,0.558,0.778,1.148,1.195,1.744c0.428,0.597,0.856,1.193,1.257,1.752     c0.414,0.551,0.815,1.05,1.162,1.486c0.708,0.87,1.18,1.449,1.18,1.449s0.482,0.593,1.254,1.417     c0.77,0.827,1.822,1.965,2.935,3.044c1.112,1.066,2.275,2.139,3.172,2.927c0.912,0.762,1.52,1.269,1.52,1.269     c3.253,2.747,6.939,4.055,10.636,4.1c3.697-0.043,7.414-1.345,10.772-4.108c0,0,0.599-0.507,1.498-1.267     c0.884-0.789,2.03-1.857,3.127-2.921c1.097-1.075,2.134-2.21,2.893-3.034c0.761-0.822,1.236-1.41,1.236-1.41     s0.472-0.58,1.181-1.449c0.347-0.436,0.748-0.937,1.163-1.484c0.401-0.559,0.83-1.156,1.258-1.752     c0.408-0.593,0.815-1.186,1.197-1.742c0.357-0.572,0.69-1.105,0.976-1.562c0.545-0.909,0.908-1.514,0.908-1.514     c1.968-3.28,3.956-5.501,6.397-6.943c1.242-0.685,2.556-1.227,4.077-1.525c0.755-0.157,1.533-0.295,2.375-0.368     c0.84-0.077,1.733-0.103,2.656-0.125c0,0,0.353-0.005,0.969-0.014c0.615-0.017,1.52-0.023,2.59-0.095     c1.068-0.073,2.33-0.177,3.708-0.321c1.352-0.172,2.816-0.388,4.307-0.64c1.46-0.281,2.944-0.601,4.354-0.932     c1.38-0.358,2.687-0.726,3.817-1.062c1.13-0.335,2.044-0.668,2.704-0.892c0.656-0.232,1.031-0.365,1.031-0.365     c1.008-0.351,1.932-0.79,2.803-1.284c0.869-0.495,1.7-1.034,2.442-1.643c1.466-1.232,2.735-2.637,3.636-4.252     c1.949-3.306,2.578-7.249,1.874-11.417c0,0-0.277-1.593-0.77-3.874c-0.275-1.151-0.615-2.474-0.999-3.854     c-0.384-1.381-0.885-2.842-1.369-4.25c-1.019-2.837-2.198-5.508-3.182-7.435c-0.474-0.963-0.889-1.744-1.204-2.289     c-0.307-0.539-0.483-0.847-0.483-0.847c-1.819-3.223-2.852-6.056-2.805-8.88h-13.66c-0.048,2.24,1.023,4.483,3.003,7.133     c0,0,0.362,0.512,0.906,1.281c0.519,0.777,1.184,1.839,1.848,2.952c0.654,1.108,1.234,2.252,1.69,3.138     c0.459,0.886,0.715,1.486,0.715,1.486s0.27,0.602,0.676,1.505c0.199,0.457,0.436,0.998,0.673,1.583     c0.221,0.59,0.457,1.22,0.692,1.849c0.227,0.648,0.454,1.296,0.667,1.904c0.186,0.617,0.359,1.193,0.507,1.686     c0.284,1.01,0.474,1.684,0.474,1.684c0.996,3.642,0.644,7.06-0.999,9.839c-0.754,1.361-1.871,2.515-3.184,3.494     c-0.666,0.483-1.42,0.896-2.212,1.265c-0.794,0.367-1.641,0.679-2.572,0.903c0,0-0.675,0.173-1.688,0.432     c-0.994,0.26-2.362,0.532-3.693,0.772c-1.32,0.253-2.666,0.417-3.653,0.53c-0.98,0.104-1.633,0.173-1.633,0.173     s-0.661,0.046-1.652,0.115c-0.986,0.058-2.265,0.129-3.562,0.106c-1.287-0.008-2.531-0.039-3.483-0.122     c-0.932-0.077-1.553-0.128-1.553-0.128c-0.819-0.085-1.604-0.159-2.331-0.178c-0.729-0.022-1.391,0.024-2.026,0.095     c-1.281,0.124-2.345,0.509-3.329,1.045c-1.927,1.144-3.375,3.098-4.743,6.222c0,0-0.493,1.107-1.35,2.811     c-0.44,0.823-0.978,1.788-1.593,2.835c-0.615,1.047-1.33,2.102-2.076,3.204c-1.501,2.15-3.217,4.263-4.606,5.777     c-0.69,0.772-1.289,1.413-1.718,1.832c-0.432,0.43-0.678,0.675-0.678,0.675c-2.742,2.752-5.876,4.035-8.993,4.078     c-3.117-0.045-6.224-1.333-8.879-4.071c0,0-0.497-0.492-1.241-1.23c-0.729-0.763-1.669-1.798-2.56-2.82     c-0.891-1.035-1.721-2.123-2.326-2.909c-0.607-0.783-0.979-1.346-0.979-1.346s-0.366-0.544-0.914-1.361     c-0.267-0.409-0.576-0.875-0.891-1.39c-0.303-0.522-0.626-1.079-0.949-1.635c-0.313-0.555-0.617-1.103-0.891-1.62     c-0.261-0.53-0.504-1.025-0.712-1.448c-0.392-0.839-0.654-1.398-0.654-1.398c-1.301-3.098-2.752-5.05-4.665-6.185     c-1.013-0.552-2.095-0.948-3.387-1.08c-0.639-0.076-1.306-0.124-2.037-0.104c-0.731,0.019-1.514,0.089-2.333,0.174     c0,0-0.617,0.055-1.542,0.137c-0.945,0.088-2.179,0.125-3.458,0.141c-1.288,0.03-2.559-0.031-3.537-0.083     c-0.985-0.062-1.642-0.102-1.642-0.102s-0.657-0.073-1.644-0.184c-0.992-0.12-2.349-0.292-3.677-0.556     c-1.34-0.249-2.716-0.533-3.716-0.801c-1.019-0.268-1.699-0.447-1.699-0.447c-0.928-0.219-1.77-0.531-2.563-0.895     c-0.79-0.367-1.545-0.778-2.208-1.263c-1.314-0.979-2.431-2.139-3.191-3.511c-1.595-2.698-1.95-6.115-0.95-9.737     c0,0,0.187-0.68,0.467-1.701c0.146-0.498,0.318-1.08,0.501-1.703c0.204-0.621,0.431-1.278,0.659-1.923     c0.234-0.636,0.467-1.271,0.686-1.868c0.237-0.591,0.472-1.138,0.669-1.599c0.403-0.911,0.672-1.519,0.672-1.519     s0.26-0.594,0.721-1.47c0.458-0.876,1.041-2.008,1.698-3.104c0.666-1.101,1.335-2.153,1.852-2.921     c0.545-0.761,0.908-1.268,0.908-1.268c1.975-2.669,3.045-4.912,2.999-7.22c0.048-2.224-1.024-4.466-2.999-7.135     c0,0-0.363-0.507-0.907-1.268c-0.517-0.768-1.186-1.82-1.852-2.921c-0.657-1.096-1.24-2.228-1.698-3.104     c-0.46-0.876-0.721-1.47-0.721-1.47s-0.269-0.608-0.672-1.519c-0.198-0.462-0.433-1.008-0.669-1.599     c-0.219-0.596-0.453-1.232-0.686-1.868c-0.229-0.645-0.456-1.301-0.659-1.923c-0.183-0.623-0.354-1.204-0.501-1.703     c-0.28-1.02-0.467-1.701-0.467-1.701c-0.991-3.642-0.645-7.038,0.949-9.736c0.76-1.372,1.877-2.532,3.199-3.523     c0.668-0.49,1.429-0.91,2.228-1.29c0.801-0.379,1.66-0.703,2.604-0.944c0,0,0.339-0.088,0.931-0.242     c0.596-0.146,1.416-0.37,2.435-0.573c1.017-0.205,2.188-0.426,3.422-0.627c1.262-0.176,2.584-0.334,3.879-0.458     c1.325-0.095,2.621-0.158,3.811-0.191c1.217-0.004,2.326,0.018,3.261,0.051c0.934,0.032,1.728,0.113,2.263,0.155     c0.537,0.05,0.844,0.078,0.844,0.078c3.379,0.358,5.81,0.096,7.758-1.011c1.927-1.142,3.364-3.086,4.665-6.185     c0,0,0.267-0.561,0.667-1.403c0.213-0.426,0.461-0.922,0.726-1.454c0.29-0.518,0.6-1.071,0.909-1.624     c0.329-0.559,0.659-1.117,0.967-1.641c0.332-0.509,0.643-0.984,0.908-1.392c0.558-0.819,0.93-1.366,0.93-1.366     s0.368-0.556,0.967-1.338c0.596-0.783,1.414-1.872,2.294-2.899c0.878-1.02,1.805-2.053,2.524-2.813     c0.734-0.737,1.224-1.228,1.224-1.228c2.654-2.738,5.785-4.027,8.879-4.071c3.212,0.044,6.341,1.337,8.992,4.078     c0,0,0.489,0.491,1.223,1.228c0.718,0.764,1.645,1.795,2.522,2.815c0.878,1.032,1.696,2.117,2.292,2.901     c0.598,0.782,0.965,1.34,0.965,1.34s0.372,0.546,0.93,1.366c0.272,0.41,0.586,0.879,0.907,1.394     c0.309,0.524,0.638,1.083,0.967,1.641c0.319,0.557,0.629,1.106,0.907,1.626c0.266,0.532,0.513,1.028,0.726,1.454     c0.4,0.842,0.666,1.403,0.666,1.403c1.281,3.095,2.734,5.044,4.66,6.189c0.984,0.536,2.052,0.923,3.334,1.049     c0.636,0.072,1.298,0.119,2.027,0.096c0.726-0.02,1.509-0.095,2.324-0.183c0,0,0.621-0.051,1.553-0.128     c0.952-0.083,2.195-0.114,3.483-0.122c1.297-0.022,2.576,0.048,3.562,0.106c0.991,0.069,1.652,0.115,1.652,0.115     s0.653,0.069,1.633,0.173c0.986,0.114,2.333,0.277,3.653,0.53c1.331,0.24,2.699,0.511,3.693,0.772     c1.013,0.259,1.688,0.432,1.688,0.432c0.931,0.224,1.778,0.536,2.573,0.904c0.793,0.37,1.549,0.786,2.219,1.275     c1.322,0.991,2.451,2.171,3.234,3.584c1.58,2.679,1.938,6.094,0.941,9.738c0,0-0.19,0.674-0.474,1.684     c-0.148,0.493-0.322,1.069-0.507,1.686c-0.213,0.608-0.44,1.256-0.667,1.904c-0.236,0.63-0.471,1.259-0.692,1.849     c-0.237,0.585-0.474,1.126-0.673,1.583c-0.406,0.903-0.676,1.505-0.676,1.505s-0.256,0.6-0.715,1.486     c-0.456,0.885-1.036,2.03-1.69,3.138c-0.664,1.113-1.329,2.175-1.848,2.952c-0.543,0.769-0.906,1.281-0.906,1.281     c-1.978,2.667-3.051,4.892-3.003,7.133h13.66c-0.048-2.825,0.987-5.636,2.805-8.88c0,0,0.175-0.308,0.483-0.847     c0.316-0.544,0.73-1.325,1.204-2.289c0.984-1.927,2.163-4.598,3.182-7.435c0.484-1.408,0.984-2.869,1.369-4.25     c0.384-1.38,0.724-2.704,0.999-3.854C1947.409,1315.329,1947.686,1313.737,1947.686,1313.737z"
/>
<path
   style="fill:none;"
   d="M1870.13,1345.417c-0.729-0.919-1.431-1.795-2.269-2.612c0,0-0.163-0.153-0.407-0.382     c-0.247-0.226-0.588-0.525-0.948-0.817c-0.362-0.296-0.709-0.549-0.992-0.752c-0.283-0.197-0.472-0.328-0.472-0.328     s-0.196-0.129-0.489-0.323c-0.287-0.182-0.681-0.42-1.092-0.65c-0.415-0.235-0.834-0.449-1.144-0.595     c-0.319-0.148-0.532-0.247-0.532-0.247s-0.864-0.396-1.744-0.691c-0.442-0.153-0.911-0.305-1.25-0.398     c-0.342-0.091-0.57-0.151-0.57-0.151c-1.255-0.313-2.021-0.182-2.262,0.236c-0.106,0.218-0.104,0.496,0.061,0.841     c0.174,0.35,0.481,0.751,0.929,1.188c0,0,0.71,0.681,1.425,1.269c0.742,0.608,1.506,1.13,1.506,1.13s0.048,0.033,0.132,0.09     c0.087,0.056,0.21,0.137,0.359,0.234c0.304,0.193,0.708,0.438,1.11,0.665c0.394,0.225,0.821,0.441,1.138,0.594     c0.315,0.148,0.525,0.246,0.525,0.246s0.206,0.091,0.516,0.228c0.31,0.133,0.753,0.305,1.177,0.455     c0.839,0.305,1.735,0.529,1.735,0.529c1.039,0.272,2.126,0.413,3.229,0.542c0.179-0.158,0.286-0.259,0.286-0.259     S1870.105,1345.441,1870.13,1345.417z"
/>
<path
   style="fill:#A81C1C;"
   d="M1864.838,1344.646c-0.424-0.15-0.867-0.322-1.177-0.455c-0.309-0.137-0.516-0.228-0.516-0.228     s-0.21-0.099-0.525-0.246c-0.317-0.152-0.744-0.368-1.138-0.594c-0.403-0.227-0.807-0.472-1.11-0.665     c-0.149-0.097-0.272-0.178-0.359-0.234c-0.084-0.057-0.132-0.09-0.132-0.09s-0.764-0.522-1.506-1.13     c-0.714-0.588-1.425-1.269-1.425-1.269c-0.448-0.437-0.755-0.839-0.929-1.188c-0.165-0.345-0.167-0.622-0.061-0.841     c0.241-0.419,1.007-0.549,2.262-0.236c0,0,0.228,0.06,0.57,0.151c0.339,0.093,0.808,0.245,1.25,0.398     c0.88,0.295,1.744,0.691,1.744,0.691s0.213,0.099,0.532,0.247c0.31,0.146,0.729,0.359,1.144,0.595     c0.411,0.23,0.805,0.468,1.092,0.65c0.293,0.194,0.489,0.323,0.489,0.323s0.189,0.131,0.472,0.328     c0.283,0.203,0.631,0.457,0.992,0.752c0.359,0.292,0.7,0.591,0.948,0.817c0.244,0.229,0.407,0.382,0.407,0.382     c0.839,0.818,1.54,1.694,2.269,2.612c0.064-0.061,0.199-0.193,0.371-0.37c-0.423-0.998-1.469-2.901-1.469-2.901l-0.034-0.066     l-0.055-0.104c-0.292-0.554-0.597-1.074-0.877-1.52c-0.543-0.862-0.964-1.416-0.964-1.416s-0.142-0.189-0.355-0.472     c-0.211-0.272-0.497-0.626-0.804-0.981c-0.619-0.727-1.285-1.368-1.285-1.368s-0.17-0.161-0.426-0.403     c-0.264-0.246-0.617-0.559-0.975-0.847c-0.362-0.296-0.742-0.587-1.035-0.803c-0.293-0.215-0.484-0.341-0.484-0.341     s-0.573-0.409-1.528-0.98c-0.463-0.267-1.024-0.571-1.656-0.883c-0.627-0.306-1.296-0.586-2.012-0.867     c-0.708-0.272-1.415-0.492-2.121-0.7c-0.7-0.203-1.344-0.34-1.928-0.465c-0.586-0.127-1.065-0.198-1.405-0.247     c-0.344-0.047-0.54-0.075-0.54-0.075s-1.071-0.159-2.147-0.208c-0.54-0.03-1.106-0.057-1.515-0.056     c-0.412,0.004-0.686,0.007-0.686,0.007c-1.489,0.051-2.481,0.534-2.926,1.319c-0.207,0.401-0.3,0.864-0.228,1.396     c0.082,0.537,0.3,1.126,0.658,1.753c0,0,0.292,0.488,0.741,1.175c0.432,0.682,1.089,1.576,1.75,2.398     c0.672,0.829,1.396,1.601,1.936,2.146c0.566,0.553,0.944,0.89,0.944,0.89s0.19,0.168,0.476,0.42     c0.287,0.248,0.701,0.575,1.099,0.88c0.786,0.615,1.644,1.151,1.644,1.151s0.207,0.132,0.516,0.33     c0.302,0.193,0.726,0.442,1.162,0.674c0.43,0.232,0.857,0.447,1.174,0.599c0.333,0.149,0.554,0.248,0.554,0.248     s0.662,0.299,1.66,0.646c0.514,0.173,1.108,0.355,1.731,0.517c0.647,0.162,1.341,0.303,2.01,0.41     c0.693,0.107,1.392,0.177,2.019,0.217c0.645,0.039,1.261,0.042,1.763,0.032c0.496-0.01,0.941-0.04,1.239-0.064     c0.298-0.027,0.468-0.043,0.468-0.043s0.893-0.088,1.81-0.264c0.448-0.098,0.894-0.153,1.206-0.295     c0.072-0.061,0.136-0.117,0.193-0.167c-1.103-0.129-2.19-0.27-3.229-0.542     C1866.572,1345.175,1865.676,1344.951,1864.838,1344.646z"
/>
<path
   style="fill:none;"
   d="M1870.265,1345.417c0.729-0.919,1.431-1.795,2.269-2.612c0,0,0.163-0.153,0.407-0.382     c0.247-0.226,0.588-0.525,0.948-0.817c0.362-0.296,0.709-0.549,0.992-0.752c0.283-0.197,0.472-0.328,0.472-0.328     s0.196-0.129,0.489-0.323c0.288-0.182,0.681-0.42,1.092-0.65c0.415-0.235,0.834-0.449,1.144-0.595     c0.319-0.148,0.532-0.247,0.532-0.247s0.864-0.396,1.744-0.691c0.442-0.153,0.911-0.305,1.25-0.398     c0.342-0.091,0.569-0.151,0.569-0.151c1.255-0.313,2.021-0.182,2.262,0.236c0.106,0.218,0.104,0.496-0.061,0.841     c-0.174,0.35-0.481,0.751-0.929,1.188c0,0-0.71,0.681-1.425,1.269c-0.742,0.608-1.506,1.13-1.506,1.13s-0.048,0.033-0.132,0.09     c-0.087,0.056-0.21,0.137-0.359,0.234c-0.304,0.193-0.708,0.438-1.11,0.665c-0.394,0.225-0.821,0.441-1.138,0.594     c-0.315,0.148-0.525,0.246-0.525,0.246s-0.206,0.091-0.516,0.228c-0.31,0.133-0.753,0.305-1.177,0.455     c-0.839,0.305-1.734,0.529-1.734,0.529c-1.039,0.272-2.127,0.413-3.229,0.542c-0.179-0.158-0.286-0.259-0.286-0.259     S1870.291,1345.441,1870.265,1345.417z"
/>
<path
   style="fill:#A81C1C;"
   d="M1875.558,1344.646c0.424-0.15,0.867-0.322,1.177-0.455c0.309-0.137,0.516-0.228,0.516-0.228     s0.21-0.099,0.525-0.246c0.317-0.152,0.744-0.368,1.138-0.594c0.403-0.227,0.807-0.472,1.11-0.665     c0.149-0.097,0.272-0.178,0.359-0.234c0.084-0.057,0.132-0.09,0.132-0.09s0.764-0.522,1.506-1.13     c0.714-0.588,1.425-1.269,1.425-1.269c0.448-0.437,0.755-0.839,0.929-1.188c0.165-0.345,0.167-0.622,0.061-0.841     c-0.241-0.419-1.007-0.549-2.262-0.236c0,0-0.228,0.06-0.569,0.151c-0.339,0.093-0.808,0.245-1.25,0.398     c-0.88,0.295-1.744,0.691-1.744,0.691s-0.213,0.099-0.532,0.247c-0.31,0.146-0.729,0.359-1.144,0.595     c-0.411,0.23-0.805,0.468-1.092,0.65c-0.293,0.194-0.489,0.323-0.489,0.323s-0.189,0.131-0.472,0.328     c-0.283,0.203-0.631,0.457-0.992,0.752c-0.359,0.292-0.7,0.591-0.948,0.817c-0.244,0.229-0.407,0.382-0.407,0.382     c-0.839,0.818-1.54,1.694-2.269,2.612c-0.064-0.061-0.199-0.193-0.371-0.37c0.423-0.998,1.469-2.901,1.469-2.901l0.034-0.066     l0.055-0.104c0.292-0.554,0.597-1.074,0.877-1.52c0.543-0.862,0.964-1.416,0.964-1.416s0.142-0.189,0.355-0.472     c0.211-0.272,0.497-0.626,0.804-0.981c0.619-0.727,1.285-1.368,1.285-1.368s0.17-0.161,0.426-0.403     c0.264-0.246,0.617-0.559,0.975-0.847c0.362-0.296,0.742-0.587,1.035-0.803c0.293-0.215,0.484-0.341,0.484-0.341     s0.573-0.409,1.528-0.98c0.463-0.267,1.024-0.571,1.656-0.883c0.626-0.306,1.296-0.586,2.012-0.867     c0.708-0.272,1.415-0.492,2.121-0.7c0.7-0.203,1.344-0.34,1.928-0.465c0.586-0.127,1.065-0.198,1.405-0.247     c0.344-0.047,0.54-0.075,0.54-0.075s1.071-0.159,2.147-0.208c0.54-0.03,1.105-0.057,1.515-0.056     c0.412,0.004,0.686,0.007,0.686,0.007c1.489,0.051,2.481,0.534,2.926,1.319c0.207,0.401,0.3,0.864,0.228,1.396     c-0.082,0.537-0.3,1.126-0.658,1.753c0,0-0.292,0.488-0.741,1.175c-0.432,0.682-1.089,1.576-1.75,2.398     c-0.672,0.829-1.396,1.601-1.936,2.146c-0.566,0.553-0.944,0.89-0.944,0.89s-0.19,0.168-0.476,0.42     c-0.287,0.248-0.701,0.575-1.099,0.88c-0.786,0.615-1.644,1.151-1.644,1.151s-0.207,0.132-0.516,0.33     c-0.302,0.193-0.726,0.442-1.162,0.674c-0.43,0.232-0.857,0.447-1.174,0.599c-0.333,0.149-0.554,0.248-0.554,0.248     s-0.662,0.299-1.66,0.646c-0.515,0.173-1.108,0.355-1.731,0.517c-0.647,0.162-1.341,0.303-2.01,0.41     c-0.693,0.107-1.392,0.177-2.02,0.217c-0.645,0.039-1.261,0.042-1.763,0.032c-0.496-0.01-0.941-0.04-1.239-0.064     c-0.297-0.027-0.468-0.043-0.468-0.043s-0.893-0.088-1.81-0.264c-0.448-0.098-0.894-0.153-1.206-0.295     c-0.071-0.061-0.136-0.117-0.193-0.167c1.103-0.129,2.19-0.27,3.229-0.542     C1873.823,1345.175,1874.719,1344.951,1875.558,1344.646z"
/>
<path
   style="fill:none;"
   d="M1869.967,1345.944c-0.411,1.098-0.8,2.151-1.069,3.291c0,0-0.047,0.218-0.117,0.545     c-0.066,0.328-0.146,0.774-0.212,1.233c-0.067,0.462-0.105,0.891-0.133,1.238c-0.022,0.344-0.037,0.574-0.037,0.574     s-0.01,0.234-0.025,0.586c-0.008,0.34-0.009,0.8,0.006,1.271c0.013,0.477,0.045,0.946,0.08,1.287     c0.037,0.35,0.062,0.583,0.062,0.583s0.106,0.944,0.307,1.85c0.097,0.457,0.209,0.938,0.303,1.276     c0.098,0.339,0.164,0.566,0.164,0.566c0.378,1.236,0.885,1.826,1.368,1.816c0.241-0.022,0.478-0.167,0.689-0.485     c0.21-0.33,0.396-0.799,0.54-1.409c0,0,0.217-0.959,0.353-1.875c0.139-0.949,0.193-1.873,0.193-1.873s0.003-0.058,0.009-0.159     c0.004-0.103,0.009-0.251,0.016-0.428c0.009-0.359,0.01-0.832-0.003-1.294c-0.01-0.454-0.045-0.931-0.078-1.281     c-0.036-0.346-0.06-0.577-0.06-0.577s-0.028-0.224-0.07-0.559c-0.046-0.334-0.127-0.802-0.217-1.243     c-0.171-0.876-0.441-1.759-0.441-1.759c-0.302-1.031-0.742-2.035-1.2-3.047c-0.228-0.072-0.37-0.112-0.37-0.112     S1870.001,1345.954,1869.967,1345.944z"
/>
<path
   style="fill:#A81C1C;"
   d="M1872.034,1350.877c0.09,0.441,0.171,0.909,0.217,1.243c0.042,0.336,0.07,0.559,0.07,0.559     s0.024,0.231,0.06,0.577c0.032,0.35,0.068,0.827,0.078,1.281c0.013,0.462,0.011,0.935,0.003,1.294     c-0.006,0.177-0.012,0.325-0.016,0.428c-0.006,0.101-0.009,0.159-0.009,0.159s-0.054,0.924-0.193,1.873     c-0.136,0.915-0.353,1.875-0.353,1.875c-0.144,0.609-0.33,1.079-0.54,1.409c-0.211,0.319-0.447,0.464-0.689,0.485     c-0.483,0.009-0.99-0.58-1.368-1.816c0,0-0.066-0.226-0.164-0.566c-0.094-0.338-0.206-0.819-0.303-1.276     c-0.201-0.906-0.307-1.85-0.307-1.85s-0.025-0.233-0.062-0.583c-0.035-0.341-0.068-0.81-0.08-1.287     c-0.015-0.471-0.014-0.931-0.006-1.271c0.015-0.351,0.025-0.586,0.025-0.586s0.015-0.229,0.037-0.574     c0.028-0.347,0.066-0.776,0.133-1.238c0.065-0.459,0.145-0.905,0.212-1.233c0.07-0.327,0.117-0.545,0.117-0.545     c0.269-1.14,0.658-2.193,1.069-3.291c-0.085-0.023-0.267-0.071-0.509-0.127c-0.637,0.877-1.729,2.754-1.729,2.754l-0.039,0.063     l-0.061,0.101c-0.325,0.536-0.613,1.065-0.85,1.534c-0.459,0.91-0.717,1.556-0.717,1.556s-0.089,0.219-0.222,0.547     c-0.125,0.321-0.28,0.748-0.427,1.195c-0.304,0.905-0.51,1.806-0.51,1.806s-0.05,0.229-0.126,0.573     c-0.075,0.353-0.161,0.817-0.223,1.272c-0.067,0.462-0.121,0.938-0.155,1.301c-0.034,0.362-0.043,0.59-0.043,0.59     s-0.055,0.702-0.052,1.815c0.01,0.535,0.038,1.172,0.096,1.874c0.061,0.695,0.165,1.412,0.294,2.171     c0.132,0.747,0.308,1.466,0.493,2.179c0.187,0.704,0.401,1.327,0.595,1.892c0.193,0.568,0.379,1.015,0.513,1.332     c0.136,0.319,0.215,0.501,0.215,0.501s0.416,1,0.928,1.947c0.253,0.478,0.521,0.977,0.733,1.327     c0.216,0.351,0.359,0.585,0.359,0.585c0.811,1.25,1.736,1.851,2.638,1.828c0.45-0.029,0.895-0.188,1.314-0.524     c0.418-0.347,0.811-0.837,1.163-1.468c0,0,0.267-0.502,0.625-1.241c0.362-0.722,0.79-1.746,1.153-2.735     c0.364-1.003,0.653-2.022,0.841-2.765c0.182-0.77,0.276-1.268,0.276-1.268s0.046-0.25,0.115-0.625     c0.065-0.374,0.131-0.897,0.188-1.395c0.122-0.99,0.139-2.002,0.139-2.002s0.007-0.245,0.017-0.613     c0.01-0.358,0.004-0.85-0.022-1.344c-0.023-0.489-0.059-0.964-0.092-1.315c-0.044-0.362-0.073-0.603-0.073-0.603     s-0.085-0.722-0.302-1.756c-0.117-0.53-0.267-1.133-0.449-1.75c-0.195-0.638-0.432-1.306-0.684-1.934     c-0.266-0.649-0.566-1.284-0.855-1.842c-0.299-0.572-0.614-1.103-0.881-1.527c-0.264-0.42-0.519-0.786-0.693-1.028     c-0.177-0.241-0.278-0.379-0.278-0.379s-0.535-0.72-1.159-1.415c-0.315-0.334-0.592-0.687-0.875-0.882     c-0.089-0.03-0.17-0.056-0.243-0.08c0.458,1.012,0.898,2.016,1.2,3.047C1871.593,1349.118,1871.863,1350.001,1872.034,1350.877z"
/>
<path
   style="fill:#00BF33;"
   d="M1856.415,1354.611c0.241,0.419,1.007,0.549,2.262,0.236c0,0,0.228-0.061,0.57-0.151     c0.339-0.094,0.808-0.245,1.25-0.398c0.88-0.295,1.744-0.691,1.744-0.691s0.213-0.099,0.532-0.247     c0.31-0.146,0.729-0.359,1.144-0.595c0.411-0.23,0.805-0.468,1.092-0.65c0.293-0.194,0.489-0.323,0.489-0.323     s0.189-0.131,0.472-0.328c0.283-0.203,0.631-0.457,0.992-0.752c0.36-0.292,0.701-0.59,0.948-0.817     c0.244-0.229,0.407-0.382,0.407-0.382c0.865-0.843,1.583-1.747,2.337-2.697c0.015,0.019,0.031,0.038,0.046,0.057     c0.037,0.048,0.08,0.091,0.096,0.12c0.702,0.884,1.385,1.729,2.195,2.519c0,0,0.163,0.153,0.407,0.382     c0.247,0.226,0.588,0.524,0.948,0.817c0.362,0.296,0.709,0.549,0.992,0.752c0.283,0.197,0.472,0.328,0.472,0.328     s0.196,0.129,0.489,0.323c0.287,0.182,0.681,0.42,1.092,0.65c0.415,0.235,0.834,0.449,1.144,0.595     c0.319,0.148,0.532,0.247,0.532,0.247s0.864,0.396,1.744,0.691c0.442,0.153,0.911,0.305,1.25,0.398     c0.342,0.091,0.57,0.151,0.57,0.151c1.255,0.313,2.021,0.182,2.262-0.236c0.105-0.218,0.104-0.495-0.061-0.841     c-0.174-0.35-0.481-0.751-0.929-1.189c0,0-0.71-0.681-1.425-1.269c-0.742-0.608-1.506-1.13-1.506-1.13s-0.048-0.033-0.132-0.09     c-0.087-0.057-0.21-0.137-0.359-0.234c-0.304-0.193-0.708-0.438-1.11-0.665c-0.394-0.225-0.821-0.441-1.138-0.594     c-0.315-0.148-0.525-0.246-0.525-0.246s-0.206-0.091-0.516-0.228c-0.31-0.133-0.753-0.305-1.177-0.455     c-0.839-0.305-1.735-0.529-1.735-0.529c-1.103-0.289-2.261-0.43-3.434-0.566c0.014-0.017,0.001-0.046-0.02-0.043     c0.434-1.157,0.847-2.256,1.129-3.452c0,0,0.047-0.218,0.117-0.545c0.066-0.328,0.146-0.774,0.211-1.233     c0.067-0.462,0.105-0.891,0.133-1.238c0.022-0.344,0.037-0.574,0.037-0.574s0.01-0.234,0.025-0.585     c0.008-0.34,0.009-0.801-0.006-1.271c-0.013-0.477-0.045-0.946-0.08-1.287c-0.037-0.35-0.062-0.583-0.062-0.583     s-0.106-0.944-0.307-1.85c-0.097-0.457-0.209-0.938-0.303-1.276c-0.098-0.34-0.164-0.566-0.164-0.566     c-0.378-1.236-0.885-1.826-1.368-1.817c-0.241,0.022-0.478,0.167-0.689,0.486c-0.21,0.329-0.396,0.799-0.54,1.409     c0,0-0.217,0.959-0.353,1.875c-0.139,0.949-0.193,1.873-0.193,1.873s-0.003,0.058-0.009,0.159     c-0.004,0.103-0.009,0.251-0.016,0.428c-0.009,0.359-0.01,0.833,0.003,1.294c0.01,0.454,0.045,0.931,0.078,1.281     c0.036,0.346,0.06,0.577,0.06,0.577s0.028,0.224,0.07,0.559c0.046,0.334,0.127,0.802,0.217,1.243     c0.171,0.876,0.441,1.759,0.441,1.759c0.332,1.133,0.83,2.234,1.336,3.348c-0.061-0.007-0.146,0.013-0.132,0.03     c-1.173,0.136-2.331,0.277-3.434,0.566c0,0-0.896,0.224-1.735,0.529c-0.424,0.15-0.867,0.322-1.177,0.455     c-0.309,0.137-0.516,0.228-0.516,0.228s-0.21,0.098-0.525,0.246c-0.317,0.152-0.744,0.368-1.138,0.594     c-0.403,0.227-0.807,0.472-1.11,0.665c-0.149,0.097-0.272,0.177-0.359,0.234c-0.084,0.057-0.132,0.09-0.132,0.09     s-0.764,0.523-1.506,1.13c-0.714,0.588-1.425,1.269-1.425,1.269c-0.448,0.438-0.755,0.839-0.929,1.189     C1856.312,1354.116,1856.31,1354.393,1856.415,1354.611z"
/>
<path
   style="fill:#00BF33;"
   d="M1884.436,1337.707c-0.241-0.419-1.007-0.549-2.262-0.236c0,0-0.228,0.06-0.569,0.151     c-0.339,0.093-0.808,0.245-1.25,0.398c-0.88,0.295-1.744,0.691-1.744,0.691s-0.213,0.099-0.532,0.247     c-0.31,0.146-0.729,0.359-1.144,0.595c-0.411,0.23-0.805,0.468-1.092,0.65c-0.293,0.194-0.489,0.323-0.489,0.323     s-0.189,0.131-0.472,0.328c-0.283,0.203-0.631,0.457-0.992,0.752c-0.359,0.292-0.7,0.591-0.948,0.817     c-0.244,0.229-0.407,0.382-0.407,0.382c-0.865,0.843-1.583,1.747-2.337,2.697c-0.015-0.019-0.03-0.038-0.046-0.057     c-0.037-0.048-0.08-0.091-0.096-0.121c-0.702-0.884-1.385-1.729-2.195-2.519c0,0-0.163-0.153-0.407-0.382     c-0.247-0.226-0.588-0.525-0.948-0.817c-0.362-0.296-0.709-0.549-0.992-0.752c-0.283-0.197-0.472-0.328-0.472-0.328     s-0.196-0.129-0.489-0.323c-0.287-0.182-0.681-0.42-1.092-0.65c-0.415-0.235-0.834-0.449-1.144-0.595     c-0.319-0.148-0.532-0.247-0.532-0.247s-0.864-0.396-1.744-0.691c-0.442-0.153-0.911-0.305-1.25-0.398     c-0.342-0.091-0.57-0.151-0.57-0.151c-1.255-0.313-2.021-0.182-2.262,0.236c-0.106,0.218-0.104,0.496,0.061,0.841     c0.174,0.35,0.481,0.751,0.929,1.188c0,0,0.71,0.681,1.425,1.269c0.742,0.608,1.506,1.13,1.506,1.13s0.048,0.033,0.132,0.09     c0.087,0.056,0.21,0.137,0.359,0.234c0.304,0.193,0.708,0.438,1.11,0.665c0.394,0.225,0.821,0.441,1.138,0.594     c0.315,0.148,0.525,0.246,0.525,0.246s0.206,0.091,0.516,0.228c0.31,0.133,0.753,0.305,1.177,0.455     c0.839,0.305,1.735,0.529,1.735,0.529c1.103,0.289,2.261,0.43,3.434,0.566c-0.014,0.017-0.001,0.046,0.02,0.043     c-0.434,1.157-0.847,2.256-1.129,3.452c0,0-0.047,0.218-0.117,0.545c-0.066,0.328-0.146,0.774-0.211,1.233     c-0.067,0.462-0.105,0.891-0.133,1.238c-0.023,0.344-0.037,0.574-0.037,0.574s-0.01,0.234-0.025,0.586     c-0.008,0.34-0.009,0.801,0.006,1.271c0.013,0.477,0.045,0.946,0.08,1.287c0.037,0.35,0.062,0.583,0.062,0.583     s0.106,0.944,0.307,1.85c0.097,0.457,0.209,0.938,0.303,1.276c0.098,0.34,0.164,0.566,0.164,0.566     c0.379,1.236,0.885,1.826,1.368,1.816c0.241-0.022,0.478-0.167,0.689-0.485c0.21-0.33,0.396-0.799,0.54-1.409     c0,0,0.217-0.959,0.353-1.875c0.139-0.949,0.193-1.873,0.193-1.873s0.003-0.058,0.009-0.159c0.004-0.103,0.009-0.251,0.016-0.428     c0.009-0.359,0.01-0.832-0.003-1.294c-0.01-0.454-0.045-0.931-0.078-1.281c-0.036-0.346-0.06-0.577-0.06-0.577     s-0.028-0.224-0.07-0.559c-0.046-0.334-0.127-0.802-0.217-1.243c-0.171-0.876-0.441-1.759-0.441-1.759     c-0.332-1.133-0.83-2.234-1.336-3.348c0.061,0.007,0.146-0.012,0.132-0.03c1.173-0.136,2.331-0.277,3.434-0.566     c0,0,0.896-0.224,1.735-0.529c0.424-0.15,0.867-0.322,1.177-0.455c0.309-0.137,0.516-0.228,0.516-0.228s0.21-0.099,0.525-0.246     c0.317-0.152,0.744-0.368,1.138-0.594c0.403-0.227,0.807-0.472,1.11-0.665c0.149-0.097,0.272-0.178,0.359-0.234     c0.084-0.057,0.132-0.09,0.132-0.09s0.764-0.522,1.506-1.13c0.714-0.588,1.425-1.269,1.425-1.269     c0.448-0.437,0.755-0.839,0.929-1.188C1884.54,1338.202,1884.541,1337.925,1884.436,1337.707z"
/>
<circle
   style="fill:#A81C1C;"
   cx="1870.252"
   cy="1346.579"
   r="1.489"
/>
</g>
</svg>
