<?xml version="1.0" encoding="UTF-8" standalone="no"?>
<svg
  version="1.1"
  viewBox="1260 1150 400 400"
  xmlns="http://www.w3.org/2000/svg">
<g fill="none">
<path
   style="fill:#A81C1C;"
   d="M1404.477,1470.272c0,0,0.602,2.178,1.281,4.392c0.349,1.111,0.699,2.222,0.961,3.055      c0.286,0.813,0.477,1.355,0.477,1.355c1.054,2.856,2.623,4.734,4.587,5.484c2.067,0.701,4.468,0.293,7.111-1.215      c0,0,0.493-0.275,1.242-0.75c0.736-0.468,1.717-1.093,2.699-1.717c1.942-1.255,3.802-2.532,3.802-2.532s0.466-0.313,1.165-0.783      c0.693-0.463,1.627-1.156,2.535-1.819c1.826-1.341,3.569-2.698,3.569-2.698c2.289-1.777,4.285-2.63,6.073-2.303      c0.894,0.16,1.739,0.602,2.551,1.33c0.82,0.677,1.608,1.64,2.379,2.894c0,0,1.177,1.879,2.437,3.77      c0.626,0.961,1.275,1.868,1.769,2.545c0.498,0.683,0.83,1.138,0.83,1.138s1.315,1.842,2.712,3.691      c0.696,0.922,1.409,1.856,1.952,2.538c0.548,0.665,0.913,1.109,0.913,1.109c1.969,2.325,4.084,3.537,6.265,3.588      c2.101-0.052,4.217-1.262,6.187-3.587c0,0,0.365-0.444,0.913-1.109c0.543-0.678,1.256-1.615,1.952-2.536      c1.398-1.849,2.713-3.691,2.713-3.691s0.332-0.455,0.83-1.138c0.494-0.68,1.143-1.583,1.769-2.543      c1.26-1.892,2.438-3.771,2.438-3.771c0.778-1.255,1.566-2.218,2.385-2.894c0.811-0.725,1.652-1.168,2.547-1.328      c1.787-0.328,3.783,0.528,6.141,2.289c0,0,1.726,1.361,3.534,2.706c0.9,0.666,1.824,1.359,2.511,1.826      c0.692,0.471,1.154,0.786,1.154,0.786s1.86,1.277,3.801,2.532c0.981,0.624,1.962,1.249,2.698,1.717      c0.748,0.474,1.242,0.751,1.242,0.751c2.702,1.488,5.104,1.896,7.11,1.215c1.98-0.752,3.534-2.627,4.588-5.482      c0,0,0.098-0.271,0.269-0.744c0.173-0.465,0.404-1.16,0.671-1.994c0.537-1.664,1.216-3.866,1.834-6.039      c0.635-2.146,1.153-4.381,1.523-6.025c0.355-1.637,0.592-2.728,0.592-2.728c0.294-1.455,0.73-2.585,1.237-3.558      c0.516-0.958,1.157-1.656,1.939-2.106c0.811-0.468,1.756-0.676,2.851-0.65c1.072-0.012,2.298,0.219,3.701,0.681      c0,0,1.067,0.342,2.666,0.855c0.805,0.248,1.763,0.551,2.779,0.835c1.009,0.274,2.096,0.559,3.196,0.836      c2.198,0.555,4.45,1.073,6.164,1.443c1.694,0.317,2.824,0.528,2.824,0.528c1.5,0.268,2.853,0.296,4.038,0.094      c1.187-0.2,2.21-0.628,2.998-1.336c1.593-1.395,2.476-3.637,2.453-6.7c0,0-0.069-4.708-0.375-9.182      c-0.386-4.601-0.998-8.958-0.998-8.958c-0.425-2.926-0.141-5.065,1.1-6.469c0.608-0.669,1.378-1.205,2.385-1.568      c1.009-0.362,2.251-0.554,3.739-0.589c0,0,1.126-0.036,2.815-0.091c1.656-0.099,3.89-0.263,6.164-0.48      c1.136-0.108,2.281-0.228,3.362-0.35c1.069-0.13,2.045-0.281,2.9-0.407c1.712-0.272,2.854-0.453,2.854-0.453      c1.517-0.259,2.81-0.685,3.865-1.271c1.018-0.609,1.791-1.38,2.319-2.297c0.528-0.918,0.806-1.981,0.832-3.177      c0.044-1.186-0.271-2.564-0.78-4.031c0,0-0.833-2.184-1.704-4.293c-0.433-1.056-0.87-2.096-1.243-2.888      c-0.361-0.783-0.602-1.304-0.602-1.304s-0.948-2.071-1.928-4.066c-0.494-0.987-0.988-1.974-1.358-2.715      c-0.402-0.738-0.669-1.23-0.669-1.23c-1.422-2.67-1.808-4.742-1.16-6.439c0.576-1.722,2.224-3.04,5.014-4.117      c0,0,0.131-0.052,0.36-0.142c0.233-0.089,0.551-0.222,0.929-0.386c0.763-0.335,1.781-0.781,2.798-1.227      c2.042-0.914,4.109-1.908,4.109-1.908s0.521-0.245,1.303-0.611c0.786-0.37,1.773-0.89,2.793-1.418      c2.026-1.055,4.072-2.192,4.072-2.192c2.731-1.516,4.199-3.41,4.574-5.478c0.191-1.074,0.097-2.182-0.287-3.313      c-0.432-1.139-1.15-2.3-2.147-3.473c0,0-1.527-1.764-3.064-3.444c-0.753-0.841-1.563-1.672-2.174-2.287      c-0.607-0.611-1.012-1.019-1.012-1.019s-1.597-1.639-3.198-3.194c-0.804-0.781-1.593-1.544-2.21-2.11      c-0.63-0.563-1.051-0.939-1.051-0.939c-2.248-1.955-3.34-3.776-3.288-5.597h-13.811c-0.053,1.624,1.043,3.248,3.3,5.008      c0,0,0.422,0.338,1.055,0.845c0.62,0.51,1.413,1.198,2.222,1.903c1.61,1.405,3.22,2.894,3.22,2.894s0.408,0.37,1.02,0.926      c0.616,0.56,1.434,1.317,2.195,2.083c1.553,1.531,3.1,3.146,3.1,3.146c1.02,1.075,1.751,2.137,2.196,3.176      c0.397,1.031,0.503,2.037,0.33,3.009c-0.341,1.872-1.752,3.573-4.458,4.887c0,0-2.013,0.99-4.003,1.898      c-1.003,0.455-1.971,0.902-2.743,1.217c-0.767,0.312-1.279,0.52-1.279,0.52s-2.028,0.846-4.027,1.613      c-0.995,0.373-1.991,0.746-2.737,1.026c-0.37,0.136-0.68,0.246-0.909,0.32c-0.224,0.074-0.352,0.117-0.352,0.117      c-2.729,0.885-4.312,2.012-4.819,3.545c-0.578,1.507-0.121,3.39,1.381,5.869c0,0,0.282,0.457,0.706,1.143      c0.393,0.688,0.916,1.606,1.44,2.524c1.041,1.856,2.052,3.791,2.052,3.791s0.257,0.488,0.642,1.219      c0.397,0.742,0.867,1.713,1.333,2.702c0.938,1.974,1.841,4.025,1.841,4.025c0.565,1.379,0.929,2.667,0.931,3.764      c0.021,1.106-0.211,2.08-0.689,2.911c-0.479,0.83-1.197,1.519-2.161,2.043c-1.002,0.501-2.242,0.844-3.713,1.013      c0,0-1.1,0.118-2.751,0.295c-0.824,0.079-1.763,0.175-2.792,0.247c-1.041,0.064-2.143,0.122-3.236,0.168      c-2.187,0.094-4.332,0.136-5.921,0.145c-1.621-0.035-2.702-0.058-2.702-0.058c-1.427-0.044-2.607,0.07-3.554,0.354      c-0.944,0.286-1.651,0.746-2.195,1.339c-1.108,1.247-1.262,3.236-0.702,6.015c0,0,0.814,4.135,1.413,8.524      c0.517,4.262,0.808,8.767,0.808,8.767c0.181,2.943-0.564,5.04-2.004,6.307c-0.712,0.644-1.654,1.013-2.763,1.152      c-1.106,0.142-2.381,0.052-3.808-0.283c0,0-1.07-0.257-2.674-0.641c-1.624-0.438-3.755-1.044-5.829-1.686      c-1.038-0.32-2.063-0.648-3.014-0.962c-0.958-0.324-1.861-0.664-2.618-0.942c-1.505-0.574-2.508-0.957-2.508-0.957      c-1.319-0.516-2.46-0.8-3.446-0.84c-1.009-0.078-1.866,0.078-2.588,0.494c-0.696,0.399-1.251,1.049-1.679,1.958      c-0.42,0.925-0.767,2.007-0.972,3.416c0,0-0.17,1.057-0.424,2.641c-0.269,1.593-0.651,3.76-1.148,5.843      c-0.481,2.109-1.02,4.249-1.453,5.868c-0.214,0.812-0.402,1.488-0.544,1.94c-0.14,0.461-0.22,0.724-0.22,0.724      c-0.861,2.795-2.235,4.581-4.025,5.264c-1.817,0.611-4.022,0.155-6.531-1.412c0,0-0.458-0.288-1.152-0.779      c-0.682-0.485-1.59-1.131-2.499-1.777c-1.796-1.298-3.51-2.613-3.51-2.613s-0.425-0.324-1.063-0.81      c-0.632-0.481-1.483-1.193-2.309-1.877c-1.662-1.381-3.24-2.774-3.24-2.774c-2.155-1.806-3.953-2.7-5.542-2.406      c-0.795,0.142-1.538,0.569-2.25,1.279c-0.72,0.661-1.409,1.611-2.089,2.852c0,0-1.027,1.859-2.137,3.734      c-0.55,0.953-1.125,1.848-1.563,2.522c-0.442,0.678-0.736,1.129-0.736,1.129s-1.167,1.829-2.416,3.668      c-0.623,0.916-1.26,1.849-1.748,2.524c-0.493,0.663-0.821,1.105-0.821,1.105c-1.773,2.336-3.692,3.523-5.597,3.575      c-1.978-0.052-3.896-1.241-5.668-3.576c0,0-0.328-0.442-0.821-1.105c-0.487-0.679-1.125-1.61-1.747-2.526      c-1.249-1.84-2.415-3.668-2.415-3.668s-0.294-0.452-0.736-1.129c-0.438-0.672-1.012-1.572-1.562-2.524      c-1.109-1.875-2.136-3.734-2.136-3.734c-0.673-1.241-1.361-2.19-2.083-2.852c-0.713-0.713-1.458-1.138-2.254-1.281      c-1.589-0.292-3.388,0.598-5.481,2.419c0,0-1.594,1.39-3.271,2.767c-0.834,0.681-1.694,1.393-2.332,1.87      c-0.644,0.484-1.073,0.807-1.073,0.807s-1.714,1.315-3.51,2.613c-0.909,0.646-1.818,1.292-2.5,1.777      c-0.694,0.491-1.152,0.778-1.152,0.778c-2.456,1.586-4.66,2.042-6.532,1.412c-1.776-0.681-3.163-2.469-4.024-5.265      c0,0-0.156-0.527-0.39-1.318c-0.21-0.811-0.49-1.892-0.771-2.973c-0.54-2.153-1.006-4.267-1.006-4.267s-0.121-0.524-0.302-1.311      c-0.184-0.771-0.394-1.851-0.59-2.92c-0.399-2.136-0.726-4.229-0.726-4.229c-0.204-1.409-0.549-2.488-0.966-3.415      c-0.427-0.909-0.982-1.558-1.683-1.96l-6.916,11.954c0.788,0.453,1.43,1.151,1.944,2.108c0.504,0.975,0.938,2.102,1.231,3.557      c0,0,0.462,2.163,0.997,4.367c0.265,1.102,0.543,2.215,0.779,3.011C1404.322,1469.731,1404.477,1470.272,1404.477,1470.272z"
/>
<path
   style="fill:#FFFFFF;"
   d="M1398.634,1482.786c0,0,0.748,2.222,1.573,4.477c0.423,1.131,0.845,2.262,1.162,3.11       c0.341,0.827,0.569,1.379,0.569,1.379c1.206,3.013,2.965,4.964,5.117,5.783c2.262,0.772,4.856,0.43,7.717-1.1       c0,0,0.528-0.258,1.328-0.709c0.788-0.444,1.838-1.037,2.888-1.629c2.08-1.192,4.081-2.409,4.081-2.409       s0.503-0.303,1.258-0.758c0.749-0.448,1.756-1.123,2.739-1.768c1.974-1.304,3.867-2.629,3.867-2.629       c2.5-1.802,4.694-2.633,6.679-2.271c0.993,0.177,1.935,0.64,2.844,1.396c0.917,0.705,1.799,1.703,2.665,3.004       c0,0,1.328,1.898,2.739,3.806c0.702,0.969,1.425,1.883,1.976,2.566c0.554,0.688,0.923,1.146,0.923,1.146       s1.465,1.833,3.012,3.67c0.771,0.916,1.558,1.843,2.156,2.52c0.603,0.66,1.005,1.1,1.005,1.1       c2.161,2.42,4.475,3.636,6.859,3.687c2.296-0.052,4.611-1.265,6.773-3.686c0,0,0.402-0.44,1.005-1.1       c0.599-0.673,1.386-1.603,2.157-2.518c1.547-1.837,3.013-3.67,3.013-3.67s0.37-0.458,0.924-1.146       c0.551-0.685,1.275-1.595,1.976-2.564c1.411-1.908,2.739-3.806,2.739-3.806c0.873-1.302,1.756-2.3,2.671-3.005       c0.908-0.753,1.846-1.217,2.839-1.393c1.984-0.363,4.178,0.472,6.754,2.256c0,0,0.95,0.661,2.376,1.653       c1.437,0.97,3.414,2.342,5.41,3.522c2.002,1.216,4.068,2.413,5.646,3.301c0.794,0.442,1.457,0.811,1.92,1.068       c0.464,0.242,0.729,0.38,0.729,0.38c2.925,1.508,5.52,1.85,7.716,1.101c2.169-0.821,3.911-2.768,5.118-5.781       c0,0,0.232-0.553,0.581-1.384c0.335-0.851,0.769-1.991,1.189-3.12c0.844-2.263,1.61-4.494,1.61-4.494s0.185-0.555,0.463-1.387       c0.281-0.817,0.617-1.96,0.942-3.091c0.654-2.262,1.235-4.487,1.235-4.487c0.367-1.532,0.881-2.729,1.469-3.761       c0.597-1.017,1.323-1.768,2.191-2.267c0.9-0.519,1.934-0.775,3.122-0.79c1.164-0.053,2.487,0.144,3.993,0.581       c0,0,2.222,0.613,4.514,1.181c1.154,0.3,2.269,0.514,3.134,0.703c0.861,0.177,1.436,0.295,1.436,0.295s2.32,0.456,4.707,0.862       c0.599,0.1,1.197,0.2,1.758,0.293c0.556,0.077,1.075,0.149,1.52,0.21c0.895,0.116,1.492,0.193,1.492,0.193       c1.605,0.242,3.048,0.226,4.318-0.03c1.271-0.254,2.371-0.746,3.235-1.518c1.745-1.523,2.78-3.897,2.843-7.157       c0,0,0.088-2.45,0.114-4.846c0.032-2.401,0.002-4.746,0.002-4.746s-0.09-2.388-0.239-4.719       c-0.143-2.336-0.343-4.613-0.343-4.613c-0.342-3.119,0.06-5.418,1.432-6.979c0.671-0.744,1.507-1.354,2.586-1.786       c1.081-0.431,2.402-0.688,3.978-0.781c0,0,0.581-0.045,1.452-0.113c0.437-0.038,0.947-0.083,1.494-0.13       c0.537-0.062,1.111-0.128,1.684-0.194c2.299-0.272,4.645-0.611,4.645-0.611s0.591-0.091,1.476-0.227       c0.878-0.146,2.101-0.318,3.253-0.558c2.332-0.455,4.707-0.981,4.707-0.981c1.607-0.319,2.971-0.819,4.087-1.484       c1.078-0.688,1.903-1.546,2.482-2.55c0.578-1.005,0.905-2.155,0.971-3.445c0.083-1.28-0.203-2.758-0.703-4.336       c0,0-0.379-1.141-0.948-2.853c-0.578-1.698-1.344-3.917-2.258-6.132c-0.885-2.206-1.798-4.351-2.495-5.933       c-0.348-0.791-0.638-1.442-0.867-1.907c-0.222-0.46-0.349-0.723-0.349-0.723c-1.407-2.889-1.736-5.153-1.02-7.038       c0.645-1.911,2.373-3.411,5.29-4.66c0,0,0.134-0.061,0.368-0.167c0.238-0.105,0.563-0.261,0.95-0.452       c0.779-0.39,1.819-0.91,2.858-1.429c2.085-1.06,4.191-2.202,4.191-2.202s0.526-0.282,1.314-0.706       c0.793-0.427,1.787-1.022,2.815-1.626c2.041-1.207,4.098-2.495,4.098-2.495c2.859-1.693,4.366-3.786,4.776-6.051       c0.209-1.176,0.132-2.385-0.247-3.618c-0.428-1.24-1.152-2.503-2.18-3.78c0,0-1.487-1.908-2.986-3.735       c-0.734-0.914-1.527-1.818-2.124-2.488c-0.594-0.666-0.99-1.11-0.99-1.11s-1.584-1.789-3.175-3.495       c-0.799-0.856-1.583-1.694-2.198-2.317c-0.628-0.619-1.046-1.032-1.046-1.032c-2.309-2.153-3.414-4.17-3.362-6.187h-13.725       c-0.052,1.821,1.04,3.643,3.288,5.597c0,0,0.42,0.375,1.051,0.939c0.618,0.566,1.406,1.329,2.21,2.11       c1.601,1.556,3.198,3.194,3.198,3.194s0.405,0.407,1.012,1.019c0.611,0.616,1.421,1.446,2.174,2.287       c1.537,1.681,3.064,3.444,3.064,3.444c0.998,1.173,1.715,2.334,2.147,3.473c0.384,1.131,0.478,2.239,0.287,3.313       c-0.375,2.069-1.843,3.963-4.574,5.478c0,0-2.046,1.137-4.072,2.192c-1.021,0.528-2.007,1.048-2.793,1.418       c-0.782,0.367-1.303,0.611-1.303,0.611s-2.067,0.994-4.109,1.908c-1.017,0.446-2.035,0.893-2.798,1.227       c-0.378,0.163-0.696,0.297-0.929,0.386c-0.229,0.09-0.36,0.142-0.36,0.142c-2.79,1.077-4.438,2.395-5.014,4.117       c-0.648,1.697-0.262,3.768,1.16,6.439c0,0,0.268,0.492,0.669,1.23c0.37,0.74,0.864,1.728,1.358,2.715       c0.98,1.995,1.928,4.066,1.928,4.066s0.241,0.522,0.602,1.304c0.373,0.793,0.81,1.832,1.243,2.888       c0.871,2.109,1.704,4.293,1.704,4.293c0.509,1.467,0.824,2.844,0.78,4.031c-0.026,1.196-0.304,2.259-0.832,3.177       c-0.529,0.917-1.302,1.689-2.319,2.297c-1.055,0.585-2.348,1.012-3.865,1.271c0,0-1.141,0.181-2.854,0.453       c-0.855,0.126-1.831,0.277-2.9,0.407c-1.08,0.122-2.225,0.242-3.362,0.35c-2.274,0.217-4.508,0.381-6.164,0.48       c-1.689,0.055-2.815,0.091-2.815,0.091c-1.487,0.035-2.73,0.227-3.739,0.589c-1.007,0.363-1.777,0.9-2.385,1.568       c-1.24,1.405-1.525,3.543-1.1,6.469c0,0,0.612,4.357,0.998,8.958c0.306,4.474,0.375,9.182,0.375,9.182       c0.023,3.063-0.86,5.305-2.453,6.7c-0.788,0.708-1.811,1.136-2.998,1.336c-1.185,0.203-2.537,0.174-4.038-0.094       c0,0-1.13-0.211-2.824-0.528c-1.714-0.37-3.967-0.888-6.164-1.443c-1.099-0.277-2.187-0.562-3.196-0.836       c-1.016-0.284-1.974-0.587-2.779-0.835c-1.6-0.513-2.666-0.855-2.666-0.855c-1.403-0.462-2.63-0.693-3.701-0.681       c-1.095-0.026-2.04,0.182-2.851,0.65c-0.782,0.449-1.424,1.148-1.939,2.106c-0.507,0.973-0.943,2.103-1.237,3.558       c0,0-0.237,1.091-0.592,2.728c-0.37,1.644-0.888,3.878-1.523,6.025c-0.618,2.173-1.297,4.375-1.834,6.039       c-0.267,0.834-0.498,1.529-0.671,1.994c-0.171,0.473-0.269,0.744-0.269,0.744c-1.054,2.855-2.608,4.73-4.588,5.482       c-2.006,0.68-4.409,0.273-7.11-1.215c0,0-0.494-0.277-1.242-0.751c-0.736-0.468-1.717-1.093-2.698-1.717       c-1.941-1.255-3.801-2.532-3.801-2.532s-0.462-0.314-1.154-0.786c-0.687-0.467-1.611-1.161-2.511-1.826       c-1.808-1.345-3.534-2.706-3.534-2.706c-2.358-1.761-4.353-2.617-6.141-2.289c-0.894,0.159-1.735,0.603-2.547,1.328       c-0.819,0.677-1.607,1.64-2.385,2.894c0,0-1.178,1.879-2.438,3.771c-0.626,0.961-1.275,1.864-1.769,2.543       c-0.498,0.683-0.83,1.138-0.83,1.138s-1.315,1.842-2.713,3.691c-0.697,0.921-1.409,1.858-1.952,2.536       c-0.548,0.665-0.913,1.109-0.913,1.109c-1.97,2.326-4.086,3.536-6.187,3.587c-2.181-0.052-4.296-1.263-6.265-3.588       c0,0-0.365-0.443-0.913-1.109c-0.543-0.682-1.255-1.616-1.952-2.538c-1.397-1.849-2.712-3.691-2.712-3.691       s-0.332-0.455-0.83-1.138c-0.494-0.678-1.143-1.585-1.769-2.545c-1.26-1.892-2.437-3.77-2.437-3.77       c-0.771-1.254-1.559-2.217-2.379-2.894c-0.812-0.728-1.657-1.17-2.551-1.33c-1.787-0.327-3.783,0.525-6.073,2.303       c0,0-1.743,1.357-3.569,2.698c-0.908,0.663-1.842,1.356-2.535,1.819c-0.699,0.47-1.165,0.783-1.165,0.783       s-1.86,1.276-3.802,2.532c-0.981,0.624-1.963,1.249-2.699,1.717c-0.748,0.475-1.242,0.75-1.242,0.75       c-2.643,1.507-5.044,1.916-7.111,1.215c-1.964-0.75-3.533-2.628-4.587-5.484c0,0-0.191-0.542-0.477-1.355       c-0.262-0.833-0.611-1.944-0.961-3.055c-0.679-2.214-1.281-4.392-1.281-4.392s-0.155-0.541-0.388-1.351       c-0.236-0.796-0.514-1.909-0.779-3.011c-0.535-2.204-0.997-4.367-0.997-4.367c-0.293-1.455-0.727-2.581-1.231-3.557       c-0.514-0.957-1.156-1.656-1.944-2.108l-6.873,11.88c0.875,0.503,1.601,1.254,2.196,2.27c0.585,1.035,1.097,2.227,1.463,3.76       c0,0,0.597,2.234,1.269,4.505c0.333,1.136,0.68,2.282,0.967,3.102C1398.444,1482.229,1398.634,1482.786,1398.634,1482.786z"
/>
<path
   style="fill:#FFA227;"
   d="M1396.645,1504.509c1.419,3.027,3.37,5.034,5.709,5.921c2.457,0.843,5.234,0.581,8.267-0.823      c0,0,0.285-0.133,0.783-0.365c0.498-0.25,1.21-0.606,2.064-1.035c1.697-0.86,3.923-2.023,6.084-3.208      c2.156-1.148,4.292-2.494,5.848-3.443c1.544-0.973,2.574-1.621,2.574-1.621c2.676-1.675,5.068-2.466,7.251-2.069      c1.092,0.195,2.134,0.673,3.143,1.433c1.017,0.709,2.001,1.7,2.97,2.971c0,0,0.746,0.965,1.866,2.412      c0.578,0.725,1.252,1.57,1.974,2.476c0.735,0.886,1.535,1.803,2.348,2.735c1.625,1.857,3.316,3.716,4.615,5.109      c0.648,0.703,1.197,1.274,1.583,1.655c0.387,0.389,0.609,0.611,0.609,0.611c2.361,2.36,4.87,3.562,7.456,3.614      c2.49-0.052,5.001-1.252,7.363-3.613c0,0,0.221-0.222,0.609-0.611c0.386-0.381,0.935-0.948,1.584-1.653      c1.299-1.393,2.991-3.251,4.616-5.109c0.813-0.932,1.613-1.851,2.348-2.733c0.722-0.906,1.397-1.751,1.974-2.476      c1.12-1.447,1.867-2.412,1.867-2.412c0.977-1.272,1.962-2.263,2.978-2.972c1.008-0.757,2.046-1.237,3.138-1.431      c2.182-0.397,4.574,0.398,7.334,2.052c0,0,2.025,1.317,4.131,2.612c1.049,0.64,2.121,1.307,2.92,1.754      c0.804,0.45,1.34,0.751,1.34,0.751s2.146,1.178,4.371,2.328c1.122,0.571,2.245,1.142,3.087,1.57      c0.854,0.433,1.418,0.683,1.418,0.683c3.103,1.38,5.881,1.641,8.266,0.823c2.358-0.89,4.291-2.893,5.71-5.919      c0,0,0.268-0.568,0.669-1.42c0.377-0.874,0.88-2.039,1.382-3.203c0.984-2.324,1.888-4.62,1.888-4.62s0.217-0.576,0.542-1.439      c0.328-0.849,0.728-2.034,1.115-3.208c0.779-2.348,1.482-4.661,1.482-4.661c0.475-1.54,1.089-2.765,1.77-3.836      c0.69-1.056,1.503-1.856,2.457-2.405c0.99-0.571,2.112-0.879,3.38-0.956c1.245-0.115,2.641,0.011,4.207,0.358      c0,0,2.36,0.552,4.787,1.054c1.222,0.267,2.405,0.449,3.32,0.612c0.912,0.152,1.52,0.253,1.52,0.253s2.444,0.369,4.953,0.685      c0.629,0.077,1.258,0.155,1.847,0.227c0.584,0.056,1.13,0.108,1.598,0.152c0.94,0.081,1.567,0.135,1.567,0.135      c1.662,0.155,3.171,0.06,4.509-0.268c1.341-0.326,2.514-0.884,3.454-1.72c1.897-1.65,3.091-4.142,3.347-7.484      c0,0,0.2-2.552,0.334-5.052c0.141-2.505,0.218-4.957,0.218-4.957s0-2.509-0.062-4.962c-0.056-2.458-0.172-4.859-0.172-4.859      c-0.145-3.207,0.391-5.656,1.894-7.374c0.735-0.82,1.633-1.507,2.766-2.024c1.135-0.515,2.5-0.864,4.102-1.062      c0,0,0.608-0.071,1.519-0.178c0.457-0.058,0.991-0.125,1.563-0.198c0.562-0.087,1.162-0.18,1.762-0.272      c2.405-0.379,4.855-0.828,4.855-0.828s0.612-0.122,1.53-0.304c0.91-0.193,2.175-0.427,3.37-0.73      c2.417-0.581,4.873-1.235,4.873-1.235c1.632-0.422,3.03-1.018,4.187-1.774c1.119-0.78,1.99-1.725,2.619-2.816      c0.628-1.091,1.008-2.326,1.133-3.698c0.143-1.361-0.076-2.919-0.498-4.573c0,0-0.675-2.44-1.394-4.809      c-0.357-1.186-0.719-2.356-1.036-3.247c-0.306-0.881-0.51-1.469-0.51-1.469s-0.839-2.353-1.718-4.632      c-0.444-1.13-0.888-2.259-1.221-3.106c-0.365-0.846-0.609-1.409-0.609-1.409c-1.248-3.047-1.503-5.5-0.718-7.575      c0.714-2.1,2.507-3.792,5.401-5.258c0,0,0.274-0.138,0.754-0.38c0.465-0.252,1.129-0.612,1.926-1.044      c1.597-0.875,3.735-2.082,5.888-3.355c2.187-1.261,4.212-2.632,5.801-3.674c1.573-1.063,2.623-1.771,2.623-1.771      c2.835-1.905,4.363-4.196,4.808-6.657c0.227-1.277,0.17-2.586-0.181-3.916c-0.4-1.337-1.089-2.696-2.07-4.068      c0,0-0.741-1.021-1.852-2.553c-0.559-0.748-1.212-1.621-1.91-2.557c-0.727-0.927-1.524-1.903-2.313-2.865      c-1.583-1.926-3.175-3.786-4.372-5.15c-0.59-0.683-1.104-1.244-1.479-1.636c-0.367-0.39-0.577-0.613-0.577-0.613      c-2.214-2.344-3.315-4.559-3.262-6.773h-13.812c-0.053,2.017,1.053,4.034,3.362,6.187c0,0,0.418,0.413,1.046,1.032      c0.615,0.622,1.399,1.461,2.198,2.317c1.591,1.706,3.175,3.495,3.175,3.495s0.396,0.444,0.99,1.11      c0.598,0.67,1.39,1.573,2.124,2.488c1.499,1.827,2.986,3.735,2.986,3.735c1.028,1.277,1.752,2.541,2.18,3.78      c0.38,1.233,0.456,2.442,0.247,3.618c-0.41,2.265-1.917,4.358-4.776,6.051c0,0-2.057,1.288-4.098,2.495      c-1.028,0.604-2.023,1.199-2.815,1.626c-0.788,0.424-1.314,0.706-1.314,0.706s-2.106,1.142-4.191,2.202      c-1.039,0.52-2.079,1.039-2.858,1.429c-0.386,0.191-0.711,0.347-0.95,0.452c-0.234,0.106-0.368,0.167-0.368,0.167      c-2.917,1.249-4.645,2.749-5.29,4.66c-0.716,1.886-0.387,4.149,1.02,7.038c0,0,0.127,0.263,0.349,0.723      c0.23,0.465,0.52,1.116,0.867,1.907c0.697,1.581,1.611,3.727,2.495,5.933c0.914,2.216,1.681,4.434,2.258,6.132      c0.569,1.712,0.948,2.853,0.948,2.853c0.5,1.578,0.786,3.056,0.703,4.336c-0.065,1.29-0.392,2.44-0.971,3.445      c-0.579,1.004-1.403,1.862-2.482,2.55c-1.116,0.665-2.48,1.165-4.087,1.484c0,0-2.375,0.526-4.707,0.981      c-1.152,0.24-2.375,0.411-3.253,0.558c-0.886,0.136-1.476,0.227-1.476,0.227s-2.346,0.339-4.645,0.611      c-0.573,0.066-1.147,0.132-1.684,0.194c-0.547,0.047-1.057,0.092-1.494,0.13c-0.871,0.068-1.452,0.113-1.452,0.113      c-1.576,0.093-2.896,0.35-3.978,0.781c-1.079,0.432-1.915,1.042-2.586,1.786c-1.371,1.561-1.773,3.859-1.432,6.979      c0,0,0.2,2.277,0.343,4.613c0.149,2.33,0.239,4.719,0.239,4.719s0.03,2.345-0.002,4.746c-0.026,2.396-0.114,4.846-0.114,4.846      c-0.063,3.26-1.098,5.634-2.843,7.157c-0.864,0.772-1.964,1.264-3.235,1.518c-1.27,0.256-2.713,0.273-4.318,0.03      c0,0-0.597-0.077-1.492-0.193c-0.445-0.062-0.964-0.133-1.52-0.21c-0.561-0.094-1.16-0.193-1.758-0.293      c-2.387-0.406-4.707-0.862-4.707-0.862s-0.574-0.118-1.436-0.295c-0.865-0.189-1.98-0.403-3.134-0.703      c-2.291-0.568-4.514-1.181-4.514-1.181c-1.506-0.438-2.829-0.635-3.993-0.581c-1.188,0.015-2.222,0.271-3.122,0.79      c-0.868,0.499-1.594,1.25-2.191,2.267c-0.588,1.033-1.102,2.229-1.469,3.761c0,0-0.58,2.225-1.235,4.487      c-0.325,1.13-0.661,2.274-0.942,3.091c-0.278,0.832-0.463,1.387-0.463,1.387s-0.766,2.231-1.61,4.494      c-0.42,1.13-0.854,2.269-1.189,3.12c-0.349,0.83-0.581,1.384-0.581,1.384c-1.207,3.012-2.949,4.96-5.118,5.781      c-2.196,0.749-4.791,0.407-7.716-1.101c0,0-0.265-0.138-0.729-0.38c-0.463-0.258-1.125-0.626-1.92-1.068      c-1.578-0.888-3.644-2.085-5.646-3.301c-1.997-1.18-3.974-2.552-5.41-3.522c-1.425-0.991-2.376-1.653-2.376-1.653      c-2.576-1.784-4.77-2.619-6.754-2.256c-0.993,0.177-1.931,0.641-2.839,1.393c-0.915,0.705-1.798,1.703-2.671,3.005      c0,0-1.328,1.898-2.739,3.806c-0.702,0.969-1.426,1.88-1.976,2.564c-0.554,0.688-0.924,1.146-0.924,1.146      s-1.465,1.833-3.013,3.67c-0.771,0.915-1.558,1.845-2.157,2.518c-0.603,0.66-1.005,1.1-1.005,1.1      c-2.162,2.421-4.477,3.635-6.773,3.686c-2.384-0.052-4.697-1.267-6.859-3.687c0,0-0.402-0.44-1.005-1.1      c-0.598-0.677-1.385-1.604-2.156-2.52c-1.547-1.837-3.012-3.67-3.012-3.67s-0.369-0.458-0.923-1.146      c-0.551-0.683-1.274-1.598-1.976-2.566c-1.411-1.908-2.739-3.806-2.739-3.806c-0.865-1.301-1.748-2.299-2.665-3.004      c-0.909-0.756-1.851-1.218-2.844-1.396c-1.985-0.362-4.179,0.469-6.679,2.271c0,0-1.892,1.324-3.867,2.629      c-0.983,0.645-1.99,1.319-2.739,1.768c-0.755,0.455-1.258,0.758-1.258,0.758s-2,1.217-4.081,2.409      c-1.05,0.592-2.101,1.185-2.888,1.629c-0.8,0.451-1.328,0.709-1.328,0.709c-2.861,1.53-5.454,1.872-7.717,1.1      c-2.152-0.818-3.91-2.769-5.117-5.783c0,0-0.228-0.551-0.569-1.379c-0.317-0.848-0.74-1.979-1.162-3.11      c-0.825-2.254-1.573-4.477-1.573-4.477s-0.19-0.557-0.475-1.392c-0.288-0.82-0.634-1.967-0.967-3.102      c-0.672-2.271-1.269-4.505-1.269-4.505c-0.366-1.532-0.878-2.725-1.463-3.76c-0.595-1.016-1.321-1.767-2.196-2.27l-6.917,11.955      c0.961,0.553,1.775,1.353,2.463,2.408c0.678,1.073,1.288,2.294,1.763,3.834c0,0,0.371,1.16,0.927,2.9      c0.572,1.744,1.359,4.115,2.268,6.388c0.891,2.301,1.846,4.626,2.591,6.379c0.371,0.878,0.688,1.613,0.922,2.103      C1396.513,1504.224,1396.645,1504.509,1396.645,1504.509z"
/>
<path
   style="fill:#A81C1C;"
   d="M1383.997,1236.313c0,0-2.194-0.571-4.456-1.095c-1.134-0.27-2.271-0.515-3.109-0.668      c-0.85-0.161-1.416-0.268-1.416-0.268c-1.506-0.263-2.862-0.289-4.047-0.087c-1.186,0.201-2.208,0.624-2.989,1.327      c-1.641,1.438-2.526,3.678-2.511,6.753c0,0,0.051,2.351,0.163,4.645c0.106,2.3,0.27,4.54,0.27,4.54s0.182,2.296,0.421,4.532      c0.234,2.242,0.522,4.421,0.522,4.421c0.438,2.917,0.151,5.054-1.053,6.418c-0.612,0.674-1.386,1.211-2.392,1.575      c-1.009,0.361-2.249,0.551-3.732,0.581c0,0-0.561,0.019-1.402,0.047c-0.423,0.018-0.916,0.039-1.444,0.062      c-0.519,0.037-1.073,0.077-1.626,0.116c-2.221,0.166-4.493,0.399-4.493,0.399s-0.571,0.053-1.427,0.132      c-0.849,0.089-2.031,0.186-3.145,0.349c-2.255,0.301-4.557,0.672-4.557,0.672c-1.517,0.258-2.811,0.688-3.873,1.283      c-1.025,0.617-1.807,1.407-2.352,2.352c-0.524,0.911-0.8,1.971-0.821,3.158c-0.038,1.178,0.283,2.541,0.807,3.981      c0,0,0.833,2.185,1.704,4.294c0.434,1.057,0.867,2.095,1.241,2.888c0.361,0.783,0.602,1.305,0.602,1.305s0.94,2.088,1.913,4.099      c0.491,0.995,0.981,1.991,1.349,2.737c0.399,0.744,0.665,1.24,0.665,1.24c1.442,2.618,1.835,4.679,1.184,6.374      c-0.577,1.723-2.228,3.052-5.036,4.183c0,0-0.535,0.196-1.284,0.518c-0.761,0.328-1.776,0.766-2.791,1.204      c-2.037,0.896-4.099,1.872-4.099,1.872s-0.521,0.245-1.303,0.611c-0.79,0.369-1.774,0.889-2.795,1.417      c-2.026,1.055-4.071,2.192-4.071,2.192c-2.746,1.576-4.211,3.471-4.59,5.556c-0.186,1.043-0.087,2.131,0.297,3.251      c0.434,1.127,1.151,2.285,2.149,3.457c0,0,0.759,0.873,1.898,2.181c0.571,0.637,1.238,1.379,1.952,2.175      c0.737,0.787,1.551,1.616,2.352,2.429c1.608,1.629,3.221,3.191,4.43,4.332c0.598,0.571,1.113,1.04,1.491,1.368      c0.37,0.326,0.582,0.512,0.582,0.512c2.248,1.969,3.34,3.79,3.288,5.598c0.05,1.876-1.039,3.698-3.288,5.667      c0,0-0.211,0.186-0.582,0.512c-0.378,0.328-0.893,0.797-1.491,1.368c-1.21,1.141-2.822,2.704-4.43,4.332      c-0.801,0.813-1.615,1.642-2.352,2.429c-0.714,0.796-1.381,1.538-1.952,2.175c-1.139,1.309-1.898,2.181-1.898,2.181      c-0.999,1.165-1.716,2.323-2.15,3.452c-0.384,1.121-0.482,2.214-0.296,3.256c0.379,2.084,1.845,3.978,4.573,5.48      c0,0,1.015,0.561,2.539,1.403c1.539,0.821,3.488,1.9,5.596,2.868c2.074,0.981,4.129,1.896,5.661,2.554      c0.764,0.324,1.4,0.593,1.846,0.782c0.458,0.179,0.721,0.282,0.721,0.282c2.79,1.078,4.443,2.409,5.036,4.182      c0.646,1.683,0.258,3.756-1.184,6.374c0,0-0.135,0.247-0.371,0.679c-0.244,0.437-0.557,1.049-0.928,1.793      c-0.747,1.487-1.728,3.507-2.682,5.59c-0.984,2.093-1.821,4.189-2.453,5.798c-0.624,1.622-1.04,2.704-1.04,2.704      c-0.524,1.439-0.847,2.799-0.81,3.976c0.02,1.186,0.296,2.245,0.824,3.163c0.529,0.918,1.305,1.692,2.327,2.312      c1.062,0.595,2.365,1.039,3.899,1.323c0,0,2.302,0.371,4.557,0.672c1.114,0.163,2.297,0.259,3.145,0.349      c0.856,0.079,1.427,0.132,1.427,0.132s2.261,0.217,4.472,0.369c1.101,0.082,2.204,0.142,3.055,0.161      c0.837,0.023,1.396,0.039,1.396,0.039c1.505,0.057,2.756,0.26,3.77,0.629c1.011,0.371,1.785,0.908,2.397,1.582      c1.204,1.364,1.482,3.49,1.053,6.418c0,0-0.288,2.179-0.522,4.421c-0.239,2.235-0.421,4.532-0.421,4.532s-0.164,2.241-0.27,4.54      c-0.112,2.294-0.163,4.645-0.163,4.645c-0.015,3.075,0.87,5.316,2.451,6.701c0.812,0.729,1.847,1.168,3.042,1.373      c1.193,0.209,2.548,0.182,4.054-0.081c0,0,0.566-0.107,1.416-0.268c0.839-0.153,1.975-0.398,3.109-0.668      c2.263-0.524,4.457-1.095,4.457-1.095s0.547-0.137,1.369-0.342c0.824-0.217,1.885-0.467,2.984-0.804      c2.182-0.641,4.293-1.326,4.293-1.326c1.397-0.466,2.62-0.699,3.685-0.692c1.088-0.032,2.021,0.171,2.808,0.624l6.916-11.954      c-0.701-0.403-1.547-0.555-2.549-0.471c-0.979,0.044-2.117,0.33-3.431,0.85c0,0-1.982,0.766-4.039,1.492      c-1.036,0.379-2.035,0.672-2.812,0.921c-0.775,0.237-1.291,0.396-1.291,0.396s-2.071,0.657-4.214,1.269      c-1.074,0.314-2.151,0.604-2.945,0.791c-0.805,0.195-1.342,0.324-1.342,0.324c-1.433,0.331-2.71,0.419-3.823,0.272      c-1.115-0.145-2.069-0.522-2.802-1.185c-1.429-1.258-2.176-3.354-2.003-6.308c0,0,0.161-2.251,0.38-4.442      c0.214-2.197,0.483-4.332,0.483-4.332s0.289-2.19,0.632-4.316c0.338-2.133,0.728-4.201,0.728-4.201      c0.564-2.781,0.415-4.758-0.66-5.969c-0.548-0.598-1.259-1.058-2.207-1.351c-0.951-0.29-2.139-0.414-3.582-0.39      c0,0-0.536,0.014-1.339,0.035c-0.816,0.026-1.875,0.026-2.932,0.004c-2.122-0.031-4.297-0.126-4.297-0.126      s-0.549-0.022-1.373-0.055c-0.817-0.043-1.957-0.078-3.03-0.178c-2.172-0.177-4.393-0.421-4.393-0.421      c-1.486-0.193-2.735-0.55-3.743-1.06c-0.967-0.535-1.689-1.225-2.167-2.056c-0.478-0.831-0.708-1.801-0.682-2.898      c0.009-1.088,0.38-2.359,0.958-3.714c0,0,0.45-1.014,1.126-2.536c0.684-1.507,1.587-3.468,2.635-5.423      c1.018-1.945,2.061-3.827,2.853-5.209c0.394-0.691,0.725-1.26,0.982-1.666c0.249-0.401,0.391-0.631,0.391-0.631      c1.52-2.431,1.98-4.316,1.402-5.811c-0.522-1.578-2.109-2.718-4.839-3.603c0,0-0.256-0.084-0.705-0.232      c-0.436-0.157-1.058-0.381-1.805-0.65c-1.498-0.549-3.511-1.318-5.546-2.152c-2.07-0.821-3.982-1.753-5.495-2.463      c-1.498-0.731-2.496-1.218-2.496-1.218c-2.703-1.302-4.112-3.003-4.456-4.888c-0.168-0.944-0.059-1.936,0.338-2.958      c0.447-1.03,1.178-2.089,2.199-3.157c0,0,0.768-0.797,1.921-1.994c0.578-0.58,1.251-1.257,1.973-1.983      c0.745-0.717,1.565-1.472,2.373-2.21c1.621-1.479,3.244-2.892,4.459-3.921c0.601-0.515,1.118-0.937,1.498-1.233      c0.372-0.293,0.584-0.461,0.584-0.461c2.257-1.772,3.35-3.397,3.3-5.07c0.052-1.612-1.043-3.236-3.3-5.008      c0,0-0.212-0.168-0.584-0.461c-0.38-0.295-0.897-0.718-1.498-1.233c-1.216-1.029-2.838-2.442-4.459-3.921      c-0.807-0.738-1.628-1.493-2.373-2.21c-0.722-0.725-1.396-1.403-1.973-1.983c-1.153-1.196-1.921-1.994-1.921-1.994      c-1.02-1.075-1.751-2.134-2.198-3.162c-0.397-1.02-0.507-2.009-0.339-2.953c0.344-1.885,1.754-3.588,4.472-4.957      c0,0,2.013-0.989,4.003-1.898c1.003-0.454,1.969-0.902,2.745-1.216c0.767-0.312,1.279-0.52,1.279-0.52s2.023-0.83,4.018-1.581      c0.993-0.365,1.987-0.731,2.732-1.005c0.732-0.268,1.256-0.428,1.256-0.428c2.746-0.932,4.332-2.07,4.839-3.603      c0.582-1.506,0.118-3.379-1.402-5.811c0,0-0.281-0.461-0.702-1.152c-0.396-0.685-0.916-1.606-1.432-2.544      c-1.034-1.871-2.039-3.821-2.039-3.821s-0.257-0.488-0.642-1.22c-0.397-0.742-0.863-1.712-1.331-2.702      c-0.937-1.974-1.84-4.026-1.84-4.026c-0.578-1.354-0.947-2.629-0.955-3.719c-0.025-1.099,0.205-2.069,0.679-2.894      c0.493-0.855,1.219-1.56,2.19-2.092c1.008-0.51,2.249-0.855,3.72-1.024c0,0,2.221-0.245,4.393-0.421      c1.072-0.101,2.213-0.135,3.03-0.179c0.824-0.033,1.373-0.055,1.373-0.055s2.185-0.109,4.316-0.153      c0.531-0.009,1.062-0.019,1.56-0.027c0.507,0.006,0.98,0.011,1.386,0.015c0.807,0.017,1.345,0.028,1.345,0.028      c1.423,0.049,2.601-0.062,3.548-0.347c0.943-0.286,1.654-0.747,2.202-1.344c1.076-1.212,1.232-3.198,0.66-5.969      c0,0-0.39-2.068-0.728-4.201c-0.343-2.126-0.632-4.316-0.632-4.316s-0.27-2.135-0.483-4.332      c-0.219-2.191-0.381-4.441-0.381-4.441c-0.173-2.955,0.574-5.05,2.057-6.355c0.706-0.64,1.648-1.003,2.755-1.144      c1.106-0.142,2.383-0.054,3.816,0.277c0,0,0.537,0.13,1.342,0.324c0.794,0.187,1.871,0.477,2.945,0.791      c2.142,0.612,4.214,1.269,4.214,1.269s0.516,0.158,1.291,0.396c0.778,0.249,1.776,0.542,2.812,0.921      c2.056,0.726,4.039,1.492,4.039,1.492c1.318,0.516,2.457,0.802,3.434,0.847c1.001,0.085,1.845-0.066,2.546-0.469l-6.916-11.954      c-0.788,0.453-1.718,0.655-2.804,0.622c-1.063,0.006-2.286-0.227-3.689-0.689c0,0-2.111-0.685-4.293-1.326      c-1.099-0.337-2.16-0.587-2.984-0.804C1384.545,1236.45,1383.997,1236.313,1383.997,1236.313z"
/>
<path
   style="fill:#FFFFFF;"
   d="M1376.065,1225.007c0,0-2.304-0.468-4.674-0.886c-1.188-0.217-2.377-0.409-3.255-0.522       c-0.889-0.121-1.482-0.201-1.482-0.201c-1.612-0.237-3.059-0.218-4.328,0.038c-1.271,0.255-2.369,0.741-3.226,1.508       c-1.798,1.569-2.834,3.942-2.907,7.215c0,0-0.073,2.435-0.083,4.816c-0.017,2.387,0.027,4.718,0.027,4.718       s0.075,2.403,0.21,4.747c0.129,2.351,0.316,4.641,0.316,4.641c0.356,3.109-0.048,5.406-1.38,6.922       c-0.676,0.75-1.516,1.36-2.594,1.793c-1.081,0.431-2.399,0.684-3.97,0.772c0,0-0.584,0.049-1.459,0.122       c-0.44,0.041-0.953,0.088-1.503,0.139c-0.54,0.066-1.116,0.136-1.693,0.206c-2.311,0.288-4.669,0.645-4.669,0.645       s-0.588,0.087-1.469,0.216c-0.874,0.14-2.09,0.304-3.236,0.535c-2.321,0.437-4.684,0.945-4.684,0.945       c-1.607,0.319-2.973,0.822-4.096,1.498c-1.087,0.698-1.92,1.575-2.517,2.61c-0.574,0.997-0.899,2.144-0.959,3.424       c-0.077,1.271,0.216,2.733,0.732,4.281c0,0,0.745,2.307,1.53,4.542c0.391,1.12,0.782,2.22,1.124,3.061       c0.33,0.831,0.55,1.384,0.55,1.384s0.875,2.227,1.786,4.377c0.46,1.065,0.921,2.131,1.266,2.93       c0.377,0.797,0.629,1.328,0.629,1.328c1.429,2.831,1.766,5.083,1.046,6.966c-0.645,1.911-2.378,3.425-5.314,4.733       c0,0-0.266,0.12-0.732,0.329c-0.452,0.219-1.099,0.532-1.874,0.908c-1.554,0.762-3.638,1.817-5.738,2.937       c-2.134,1.107-4.111,2.323-5.664,3.249c-1.538,0.946-2.564,1.576-2.564,1.576c-2.875,1.76-4.379,3.853-4.793,6.136       c-0.203,1.142-0.121,2.329,0.258,3.549c0.43,1.227,1.154,2.486,2.182,3.764c0,0,1.484,1.93,2.981,3.778       c0.733,0.925,1.526,1.838,2.122,2.516c0.594,0.674,0.989,1.123,0.989,1.123s1.585,1.768,3.178,3.454       c0.799,0.846,1.586,1.675,2.199,2.29c0.628,0.612,1.047,1.02,1.047,1.02c2.308,2.169,3.414,4.186,3.362,6.188       c0.05,2.078-1.052,4.095-3.362,6.264c0,0-0.419,0.408-1.047,1.02c-0.613,0.615-1.4,1.444-2.199,2.29       c-1.593,1.686-3.178,3.454-3.178,3.454s-0.396,0.449-0.989,1.122c-0.597,0.678-1.39,1.591-2.122,2.516       c-1.497,1.847-2.981,3.777-2.981,3.777c-1.029,1.269-1.754,2.528-2.183,3.758c-0.38,1.222-0.461,2.414-0.258,3.556       c0.414,2.282,1.918,4.375,4.774,6.052c0,0,2.062,1.31,4.107,2.536c1.031,0.614,2.026,1.22,2.823,1.653       c0.791,0.431,1.317,0.718,1.317,0.718s2.101,1.122,4.18,2.163c1.037,0.51,2.073,1.02,2.851,1.403       c0.766,0.376,1.312,0.608,1.312,0.608c2.917,1.25,4.65,2.764,5.314,4.732c0.714,1.87,0.383,4.136-1.046,6.966       c0,0-0.253,0.527-0.633,1.317c-0.349,0.792-0.813,1.849-1.278,2.905c-0.919,2.132-1.803,4.339-1.803,4.339       s-0.218,0.558-0.545,1.396c-0.338,0.847-0.73,1.959-1.114,3.087c-0.776,2.253-1.511,4.579-1.511,4.579       c-0.516,1.548-0.811,3.006-0.735,4.276c0.059,1.278,0.384,2.425,0.962,3.43c0.579,1.005,1.406,1.865,2.49,2.566       c1.124,0.676,2.499,1.194,4.124,1.542c0,0,1.175,0.242,2.937,0.606c0.881,0.172,1.886,0.377,2.988,0.563       c1.106,0.168,2.285,0.348,3.465,0.528c2.345,0.338,4.653,0.622,6.366,0.81c1.751,0.162,2.91,0.24,2.91,0.24       c1.595,0.118,2.925,0.387,4.012,0.825c1.084,0.441,1.924,1.052,2.6,1.801c1.331,1.516,1.725,3.801,1.38,6.922       c0,0-0.186,2.29-0.316,4.641c-0.135,2.344-0.21,4.747-0.21,4.747s-0.044,2.331-0.027,4.718c0.01,2.381,0.083,4.817,0.083,4.817       c0.073,3.273,1.109,5.645,2.841,7.158c0.89,0.795,2.003,1.298,3.283,1.558c1.278,0.263,2.725,0.282,4.336,0.044       c0,0,0.593-0.08,1.482-0.201c0.878-0.113,2.068-0.305,3.256-0.522c2.37-0.418,4.674-0.886,4.674-0.886s0.578-0.115,1.446-0.288       c0.871-0.184,1.994-0.392,3.156-0.687c2.308-0.557,4.547-1.16,4.547-1.16c1.5-0.442,2.818-0.641,3.975-0.593       c1.18,0.009,2.201,0.259,3.074,0.762l6.873-11.88c-0.787-0.453-1.72-0.656-2.808-0.624c-1.065-0.007-2.288,0.226-3.685,0.692       c0,0-2.111,0.685-4.293,1.326c-1.099,0.337-2.16,0.587-2.984,0.804c-0.821,0.205-1.369,0.342-1.369,0.342       s-2.194,0.571-4.457,1.095c-1.134,0.27-2.271,0.515-3.109,0.668c-0.85,0.161-1.416,0.268-1.416,0.268       c-1.506,0.263-2.861,0.289-4.054,0.081c-1.195-0.206-2.23-0.644-3.042-1.373c-1.581-1.385-2.466-3.626-2.451-6.701       c0,0,0.051-2.351,0.163-4.645c0.106-2.3,0.27-4.54,0.27-4.54s0.182-2.296,0.421-4.532c0.234-2.242,0.522-4.421,0.522-4.421       c0.429-2.928,0.151-5.054-1.053-6.418c-0.612-0.674-1.386-1.211-2.397-1.582c-1.014-0.369-2.265-0.572-3.77-0.629       c0,0-0.558-0.016-1.396-0.039c-0.85-0.019-1.953-0.079-3.055-0.161c-2.211-0.152-4.472-0.369-4.472-0.369       s-0.571-0.053-1.427-0.132c-0.848-0.089-2.031-0.186-3.145-0.349c-2.255-0.301-4.557-0.672-4.557-0.672       c-1.534-0.285-2.837-0.728-3.899-1.323c-1.021-0.62-1.798-1.394-2.327-2.312c-0.528-0.918-0.803-1.977-0.824-3.163       c-0.037-1.177,0.286-2.536,0.81-3.976c0,0,0.416-1.082,1.04-2.704c0.632-1.609,1.469-3.705,2.453-5.798       c0.954-2.082,1.935-4.103,2.682-5.59c0.371-0.743,0.684-1.356,0.928-1.793c0.236-0.432,0.371-0.679,0.371-0.679       c1.442-2.618,1.83-4.691,1.184-6.374c-0.594-1.774-2.246-3.104-5.036-4.182c0,0-0.262-0.103-0.721-0.282       c-0.445-0.189-1.082-0.458-1.846-0.782c-1.531-0.658-3.586-1.574-5.661-2.554c-2.109-0.968-4.058-2.047-5.596-2.868       c-1.523-0.842-2.539-1.403-2.539-1.403c-2.728-1.501-4.193-3.396-4.573-5.48c-0.186-1.043-0.088-2.135,0.296-3.256       c0.434-1.129,1.151-2.287,2.15-3.452c0,0,0.759-0.872,1.898-2.181c0.571-0.636,1.238-1.379,1.952-2.175       c0.737-0.787,1.551-1.616,2.352-2.429c1.609-1.628,3.221-3.191,4.43-4.332c0.598-0.571,1.113-1.04,1.491-1.368       c0.37-0.326,0.582-0.512,0.582-0.512c2.248-1.969,3.338-3.791,3.288-5.667c0.052-1.808-1.04-3.629-3.288-5.598       c0,0-0.211-0.186-0.582-0.512c-0.378-0.328-0.893-0.797-1.491-1.368c-1.21-1.141-2.822-2.703-4.43-4.332       c-0.801-0.813-1.615-1.642-2.352-2.429c-0.714-0.796-1.381-1.538-1.952-2.175c-1.139-1.309-1.898-2.181-1.898-2.181       c-0.998-1.173-1.715-2.33-2.149-3.457c-0.384-1.119-0.483-2.208-0.297-3.251c0.379-2.084,1.845-3.979,4.59-5.556       c0,0,2.046-1.137,4.071-2.192c1.021-0.528,2.005-1.048,2.795-1.417c0.782-0.367,1.303-0.611,1.303-0.611       s2.062-0.976,4.099-1.872c1.015-0.438,2.03-0.876,2.791-1.204c0.749-0.322,1.284-0.518,1.284-0.518       c2.808-1.13,4.46-2.46,5.036-4.183c0.651-1.695,0.258-3.755-1.184-6.374c0,0-0.266-0.496-0.665-1.24       c-0.368-0.747-0.859-1.742-1.349-2.737c-0.973-2.011-1.913-4.099-1.913-4.099s-0.241-0.522-0.602-1.305       c-0.373-0.793-0.806-1.831-1.241-2.888c-0.871-2.109-1.704-4.294-1.704-4.294c-0.524-1.439-0.845-2.802-0.807-3.981       c0.021-1.187,0.297-2.247,0.821-3.158c0.545-0.945,1.327-1.735,2.352-2.352c1.062-0.595,2.356-1.025,3.873-1.283       c0,0,2.302-0.371,4.557-0.672c1.114-0.163,2.297-0.259,3.145-0.349c0.856-0.079,1.427-0.132,1.427-0.132       s2.272-0.232,4.493-0.399c0.554-0.04,1.107-0.079,1.626-0.116c0.528-0.023,1.022-0.044,1.444-0.062       c0.841-0.028,1.402-0.047,1.402-0.047c1.483-0.03,2.723-0.219,3.732-0.581c1.006-0.364,1.78-0.901,2.392-1.575       c1.204-1.364,1.491-3.501,1.053-6.418c0,0-0.288-2.179-0.522-4.421c-0.239-2.235-0.421-4.532-0.421-4.532       s-0.165-2.241-0.27-4.54c-0.112-2.294-0.163-4.645-0.163-4.645c-0.014-3.075,0.87-5.315,2.511-6.753       c0.782-0.703,1.803-1.126,2.989-1.327c1.185-0.203,2.54-0.177,4.047,0.087c0,0,0.566,0.107,1.416,0.268       c0.839,0.153,1.975,0.398,3.109,0.668c2.262,0.524,4.456,1.095,4.456,1.095s0.548,0.137,1.369,0.342       c0.824,0.217,1.885,0.467,2.984,0.804c2.182,0.642,4.293,1.326,4.293,1.326c1.403,0.463,2.626,0.696,3.689,0.689       c1.087,0.033,2.017-0.168,2.804-0.622l-6.873-11.88c-0.874,0.504-1.891,0.752-3.07,0.759c-1.155,0.047-2.473-0.152-3.979-0.59       c0,0-2.239-0.603-4.547-1.16c-1.162-0.295-2.285-0.502-3.156-0.687C1376.643,1225.122,1376.065,1225.007,1376.065,1225.007z"
/>
<path
   style="fill:#FFA227;"
   d="M1358.24,1212.447c-1.67-0.149-3.181-0.052-4.52,0.276c-1.34,0.327-2.511,0.879-3.444,1.709      c-1.954,1.701-3.15,4.19-3.416,7.547c0,0-0.373,5.11-0.488,10.008c-0.035,5.024,0.173,9.821,0.173,9.821      c0.159,3.196-0.378,5.643-1.837,7.312c-0.74,0.826-1.643,1.514-2.775,2.031c-1.135,0.515-2.497,0.86-4.094,1.052      c0,0-1.217,0.155-3.043,0.388c-1.791,0.279-4.201,0.685-6.647,1.148c-1.229,0.242-2.459,0.485-3.611,0.712      c-1.151,0.244-2.197,0.507-3.115,0.726c-1.835,0.46-3.058,0.768-3.058,0.768c-1.632,0.422-3.032,1.021-4.196,1.789      c-1.128,0.791-2.009,1.757-2.658,2.881c-0.623,1.083-1.001,2.314-1.12,3.675c-0.136,1.352,0.09,2.892,0.529,4.513      c0,0,0.347,1.216,0.867,3.04c0.53,1.811,1.234,4.178,2.09,6.545c0.826,2.356,1.684,4.653,2.341,6.348      c0.326,0.848,0.603,1.547,0.821,2.045c0.211,0.493,0.331,0.775,0.331,0.775c1.272,2.984,1.535,5.423,0.747,7.496      c-0.714,2.101-2.512,3.807-5.428,5.338c0,0-0.563,0.266-1.353,0.694c-0.801,0.434-1.87,1.013-2.939,1.593      c-2.143,1.18-4.303,2.442-4.303,2.442s-0.535,0.319-1.338,0.797c-0.811,0.48-1.821,1.149-2.868,1.826      c-2.077,1.353-4.166,2.788-4.166,2.788c-2.853,1.978-4.378,4.27-4.827,6.749c-0.22,1.24-0.158,2.525,0.193,3.842      c0.402,1.323,1.091,2.678,2.072,4.05c0,0,1.464,2.081,2.944,4.079c0.724,1,1.51,1.989,2.101,2.723      c0.589,0.73,0.981,1.216,0.981,1.216s1.594,1.918,3.199,3.754c0.805,0.92,1.599,1.824,2.217,2.495      c0.633,0.667,1.056,1.112,1.056,1.112c2.214,2.361,3.314,4.577,3.262,6.774c0.05,2.281-1.047,4.497-3.262,6.858      c0,0-0.422,0.445-1.056,1.112c-0.618,0.671-1.412,1.574-2.217,2.495c-1.605,1.836-3.199,3.754-3.199,3.754      s-0.392,0.486-0.981,1.216c-0.591,0.734-1.377,1.722-2.101,2.723c-1.48,1.998-2.944,4.079-2.944,4.079      c-0.982,1.363-1.672,2.718-2.073,4.043c-0.352,1.319-0.412,2.609-0.192,3.849c0.449,2.479,1.974,4.77,4.806,6.658      c0,0,2.094,1.459,4.176,2.834c1.049,0.688,2.063,1.368,2.874,1.857c0.805,0.486,1.342,0.811,1.342,0.811      s2.161,1.262,4.303,2.442c1.069,0.579,2.137,1.158,2.939,1.593c0.79,0.427,1.353,0.694,1.353,0.694      c2.895,1.467,4.693,3.175,5.428,5.338c0.783,2.058,0.526,4.513-0.747,7.496c0,0-0.244,0.564-0.609,1.409      c-0.334,0.847-0.778,1.977-1.223,3.106c-0.879,2.278-1.719,4.631-1.719,4.631s-0.202,0.593-0.504,1.482      c-0.313,0.899-0.672,2.08-1.023,3.275c-0.708,2.389-1.373,4.85-1.373,4.85c-0.439,1.621-0.667,3.157-0.533,4.507      c0.118,1.359,0.495,2.59,1.124,3.681c0.629,1.091,1.503,2.04,2.628,2.833c1.164,0.768,2.575,1.384,4.227,1.837      c0,0,2.444,0.635,4.848,1.196c1.188,0.293,2.446,0.519,3.352,0.705c0.913,0.176,1.522,0.293,1.522,0.293s2.45,0.45,4.855,0.829      c1.198,0.196,2.399,0.369,3.323,0.472c0.912,0.107,1.519,0.179,1.519,0.179c1.623,0.225,2.999,0.587,4.14,1.11      c1.138,0.526,2.042,1.214,2.782,2.04c1.459,1.668,1.985,4.102,1.837,7.311c0,0-0.209,4.797-0.173,9.821      c0.115,4.898,0.488,10.008,0.488,10.008c0.266,3.356,1.462,5.846,3.344,7.485c0.968,0.861,2.156,1.431,3.506,1.764      c1.348,0.336,2.859,0.433,4.529,0.284c0,0,1.258-0.105,3.123-0.304c1.894-0.235,4.388-0.577,6.831-0.96      c1.211-0.2,2.422-0.399,3.558-0.586c1.134-0.208,2.201-0.437,3.1-0.623c1.789-0.391,2.981-0.651,2.981-0.651      c1.56-0.352,2.952-0.48,4.188-0.371c1.26,0.07,2.367,0.371,3.327,0.925l6.917-11.955c-0.874-0.503-1.894-0.753-3.074-0.762      c-1.156-0.048-2.475,0.151-3.975,0.593c0,0-2.239,0.603-4.547,1.16c-1.162,0.295-2.285,0.502-3.156,0.687      c-0.868,0.173-1.446,0.288-1.446,0.288s-2.304,0.468-4.674,0.886c-1.188,0.217-2.377,0.409-3.256,0.522      c-0.889,0.121-1.482,0.201-1.482,0.201c-1.611,0.237-3.058,0.219-4.336-0.044c-1.28-0.26-2.393-0.763-3.283-1.558      c-1.732-1.512-2.768-3.885-2.841-7.158c0,0-0.073-2.435-0.083-4.817c-0.017-2.387,0.027-4.718,0.027-4.718      s0.075-2.403,0.21-4.747c0.129-2.351,0.316-4.641,0.316-4.641c0.345-3.121-0.049-5.406-1.38-6.922      c-0.676-0.75-1.516-1.361-2.6-1.801c-1.087-0.438-2.417-0.707-4.012-0.825c0,0-1.159-0.079-2.91-0.24      c-1.713-0.188-4.021-0.472-6.366-0.81c-1.179-0.18-2.359-0.359-3.465-0.528c-1.102-0.186-2.107-0.391-2.988-0.563      c-1.762-0.364-2.937-0.606-2.937-0.606c-1.625-0.348-3-0.866-4.124-1.542c-1.083-0.701-1.911-1.562-2.49-2.566      c-0.578-1.005-0.903-2.151-0.962-3.43c-0.075-1.269,0.219-2.727,0.735-4.276c0,0,0.735-2.326,1.511-4.579      c0.385-1.127,0.776-2.24,1.114-3.087c0.327-0.837,0.545-1.396,0.545-1.396s0.884-2.207,1.803-4.339      c0.464-1.056,0.929-2.113,1.278-2.905c0.38-0.79,0.633-1.317,0.633-1.317c1.429-2.831,1.76-5.096,1.046-6.966      c-0.664-1.968-2.398-3.483-5.314-4.732c0,0-0.547-0.232-1.312-0.608c-0.777-0.383-1.814-0.893-2.851-1.403      c-2.079-1.041-4.18-2.163-4.18-2.163s-0.527-0.287-1.317-0.718c-0.797-0.433-1.792-1.039-2.823-1.653      c-2.046-1.227-4.107-2.536-4.107-2.536c-2.856-1.677-4.36-3.77-4.774-6.052c-0.203-1.142-0.122-2.334,0.258-3.556      c0.429-1.229,1.154-2.489,2.183-3.758c0,0,1.484-1.93,2.981-3.777c0.733-0.925,1.526-1.838,2.122-2.516      c0.594-0.673,0.989-1.122,0.989-1.122s1.586-1.768,3.178-3.454c0.799-0.846,1.586-1.674,2.199-2.29      c0.628-0.612,1.047-1.02,1.047-1.02c2.309-2.169,3.412-4.186,3.362-6.264c0.052-2.002-1.053-4.019-3.362-6.188      c0,0-0.419-0.408-1.047-1.02c-0.613-0.615-1.4-1.444-2.199-2.29c-1.593-1.686-3.178-3.454-3.178-3.454s-0.396-0.449-0.989-1.123      c-0.596-0.678-1.39-1.591-2.122-2.516c-1.497-1.847-2.981-3.778-2.981-3.778c-1.028-1.277-1.753-2.536-2.182-3.764      c-0.379-1.22-0.462-2.407-0.258-3.549c0.414-2.282,1.918-4.376,4.793-6.136c0,0,1.026-0.63,2.564-1.576      c1.553-0.926,3.53-2.141,5.664-3.249c2.1-1.12,4.184-2.175,5.738-2.937c0.776-0.376,1.422-0.689,1.874-0.908      c0.466-0.21,0.732-0.329,0.732-0.329c2.936-1.308,4.669-2.821,5.314-4.733c0.719-1.883,0.382-4.135-1.046-6.966      c0,0-0.251-0.531-0.629-1.328c-0.345-0.799-0.806-1.864-1.266-2.93c-0.911-2.15-1.786-4.377-1.786-4.377s-0.22-0.554-0.55-1.384      c-0.341-0.841-0.732-1.941-1.124-3.061c-0.785-2.234-1.53-4.542-1.53-4.542c-0.516-1.548-0.809-3.01-0.732-4.281      c0.06-1.28,0.385-2.427,0.959-3.424c0.597-1.035,1.431-1.912,2.517-2.61c1.123-0.676,2.489-1.179,4.096-1.498      c0,0,2.364-0.508,4.684-0.945c1.147-0.231,2.363-0.395,3.236-0.535c0.881-0.13,1.469-0.216,1.469-0.216s2.358-0.357,4.669-0.645      c0.576-0.07,1.152-0.14,1.693-0.206c0.55-0.051,1.063-0.099,1.503-0.139c0.876-0.073,1.459-0.122,1.459-0.122      c1.571-0.087,2.889-0.341,3.97-0.772c1.078-0.433,1.918-1.044,2.594-1.793c1.331-1.516,1.735-3.813,1.38-6.922      c0,0-0.187-2.29-0.316-4.641c-0.135-2.344-0.21-4.747-0.21-4.747s-0.044-2.331-0.027-4.718c0.01-2.381,0.083-4.816,0.083-4.816      c0.073-3.273,1.109-5.646,2.907-7.215c0.857-0.767,1.955-1.253,3.226-1.508c1.269-0.256,2.716-0.275,4.328-0.038      c0,0,0.593,0.08,1.482,0.201c0.878,0.113,2.068,0.305,3.255,0.522c2.37,0.418,4.674,0.886,4.674,0.886s0.578,0.115,1.446,0.287      c0.871,0.185,1.994,0.392,3.156,0.687c2.308,0.557,4.547,1.16,4.547,1.16c1.506,0.438,2.825,0.637,3.979,0.59      c1.179-0.007,2.196-0.256,3.07-0.759l-6.917-11.955c-0.961,0.554-2.064,0.853-3.323,0.922c-1.234,0.108-2.626-0.02-4.192-0.368      c0,0-1.193-0.26-2.981-0.651c-0.899-0.187-1.965-0.415-3.1-0.623c-1.135-0.187-2.347-0.387-3.558-0.586      c-2.443-0.383-4.937-0.724-6.831-0.96C1359.498,1212.552,1358.24,1212.447,1358.24,1212.447z"
/>
<path
   style="fill:#A81C1C;"
   d="M1596.818,1335.524c0,0,0.405-0.407,1.012-1.018c0.611-0.615,1.421-1.446,2.174-2.287      c1.537-1.68,3.064-3.444,3.064-3.444c0.998-1.173,1.715-2.335,2.148-3.463c0.387-1.122,0.483-2.21,0.299-3.245      c-0.39-2.147-1.857-4.041-4.589-5.557c0,0-2.046-1.137-4.072-2.192c-1.021-0.528-2.007-1.048-2.794-1.418      c-0.782-0.367-1.303-0.611-1.303-0.611s-2.067-0.994-4.109-1.908c-1.017-0.446-2.035-0.893-2.798-1.228      c-0.378-0.163-0.696-0.297-0.929-0.386c-0.229-0.09-0.36-0.142-0.36-0.142c-2.785-1.064-4.438-2.394-5.014-4.117      c-0.647-1.697-0.262-3.768,1.186-6.373c0,0,0.266-0.496,0.666-1.24c0.377-0.739,0.864-1.729,1.351-2.737      c0.973-2.01,1.913-4.099,1.913-4.099s0.241-0.522,0.603-1.305c0.373-0.793,0.81-1.832,1.242-2.888      c0.871-2.109,1.704-4.293,1.704-4.293c0.524-1.439,0.844-2.801,0.804-3.989c-0.026-1.196-0.311-2.272-0.855-3.218      c-0.525-0.911-1.298-1.682-2.316-2.293c-1.057-0.587-2.351-1.017-3.868-1.276c0,0-2.302-0.371-4.558-0.673      c-1.115-0.163-2.294-0.262-3.144-0.35c-0.856-0.079-1.427-0.132-1.427-0.132s-2.272-0.233-4.493-0.399      c-1.106-0.09-2.215-0.156-3.07-0.18c-0.842-0.028-1.402-0.047-1.402-0.047c-1.487-0.036-2.728-0.225-3.736-0.585      c-1.006-0.362-1.775-0.899-2.388-1.572c-1.205-1.364-1.489-3.501-1.1-6.469c0,0,0.3-2.167,0.547-4.396      c0.252-2.223,0.448-4.506,0.448-4.506s0.165-2.241,0.271-4.54c0.112-2.294,0.164-4.645,0.164-4.645      c-0.03-3.119-0.917-5.357-2.509-6.754c-0.788-0.708-1.807-1.134-2.993-1.333c-1.184-0.201-2.536-0.173-4.042,0.09      c0,0-1.129,0.211-2.824,0.528c-1.714,0.37-3.967,0.888-6.164,1.443c-1.1,0.277-2.187,0.562-3.196,0.836      c-1.016,0.284-1.974,0.587-2.779,0.835c-1.6,0.513-2.667,0.855-2.667,0.855c-1.403,0.462-2.629,0.693-3.694,0.686      c-1.087,0.03-2.018-0.17-2.799-0.62c-0.812-0.466-1.469-1.173-1.992-2.136c-0.515-0.978-0.951-2.107-1.245-3.563      c0,0-0.237-1.091-0.592-2.728c-0.37-1.644-0.888-3.878-1.523-6.025c-0.618-2.173-1.296-4.375-1.833-6.039      c-0.267-0.834-0.498-1.529-0.671-1.994c-0.171-0.473-0.269-0.744-0.269-0.744c-1.04-2.85-2.609-4.73-4.589-5.482      c-2.006-0.68-4.408-0.272-7.037,1.24c0,0-0.248,0.144-0.683,0.395c-0.435,0.269-1.056,0.653-1.801,1.114      c-1.48,0.926-3.414,2.172-5.283,3.435c-1.863,1.227-3.705,2.641-5.04,3.644c-1.323,1.023-2.206,1.705-2.206,1.705      c-2.304,1.774-4.299,2.624-6.14,2.289c-0.888-0.159-1.729-0.601-2.542-1.327c-0.821-0.677-1.612-1.641-2.39-2.895      c0,0-0.598-0.946-1.494-2.366c-0.466-0.713-1.009-1.544-1.592-2.434c-0.596-0.868-1.247-1.773-1.912-2.692      c-1.328-1.832-2.721-3.67-3.797-5.05c-0.537-0.698-0.993-1.261-1.315-1.639c-0.323-0.386-0.507-0.606-0.507-0.606      c-1.97-2.326-4.071-3.535-6.187-3.587c-2.116,0.05-4.234,1.261-6.266,3.588c0,0-0.365,0.444-0.913,1.109      c-0.543,0.682-1.255,1.617-1.952,2.538c-1.397,1.849-2.712,3.691-2.712,3.691s-0.327,0.455-0.818,1.137      c-0.487,0.679-1.127,1.582-1.744,2.542c-1.243,1.89-2.403,3.766-2.403,3.766c-0.806,1.258-1.611,2.223-2.44,2.901      c-0.821,0.729-1.666,1.171-2.56,1.331c-1.787,0.327-3.769-0.528-6.073-2.303c0,0-1.743-1.357-3.569-2.698      c-0.908-0.663-1.842-1.356-2.535-1.819c-0.699-0.469-1.166-0.783-1.166-0.783s-1.86-1.276-3.802-2.532      c-0.981-0.624-1.963-1.249-2.699-1.717c-0.749-0.475-1.242-0.75-1.242-0.75c-2.642-1.508-5.044-1.916-7.036-1.24      c-2.041,0.772-3.608,2.655-4.662,5.509c0,0-0.191,0.542-0.477,1.355c-0.262,0.833-0.612,1.944-0.961,3.055      c-0.678,2.214-1.281,4.392-1.281,4.392s-0.156,0.541-0.389,1.352c-0.236,0.796-0.514,1.909-0.779,3.011      c-0.536,2.204-0.997,4.367-0.997,4.367c-0.287,1.452-0.721,2.579-1.227,3.554c-0.516,0.958-1.16,1.658-1.948,2.111l6.916,11.954      c0.701-0.402,1.259-1.053,1.687-1.963c0.418-0.927,0.764-2.006,0.963-3.412c0,0,0.327-2.092,0.726-4.229      c0.197-1.068,0.406-2.149,0.59-2.92c0.181-0.786,0.302-1.311,0.302-1.311s0.466-2.114,1.006-4.267      c0.28-1.081,0.56-2.162,0.771-2.973c0.234-0.791,0.39-1.318,0.39-1.318c0.861-2.794,2.247-4.587,4.092-5.288      c1.803-0.607,4.008-0.151,6.464,1.435c0,0,0.457,0.286,1.152,0.778c0.682,0.484,1.591,1.131,2.5,1.777      c1.797,1.297,3.511,2.613,3.511,2.613s0.429,0.323,1.073,0.807c0.638,0.477,1.498,1.189,2.332,1.87      c1.677,1.377,3.271,2.767,3.271,2.767c2.106,1.818,3.893,2.712,5.481,2.419c0.795-0.143,1.541-0.568,2.262-1.282      c0.729-0.662,1.433-1.613,2.137-2.858c0,0,1.012-1.857,2.106-3.73c0.542-0.951,1.108-1.848,1.54-2.521      c0.435-0.677,0.726-1.129,0.726-1.129s1.166-1.829,2.415-3.668c0.622-0.917,1.26-1.847,1.747-2.526      c0.493-0.663,0.821-1.105,0.821-1.105c1.828-2.337,3.749-3.526,5.668-3.576c1.919,0.052,3.825,1.239,5.597,3.575      c0,0,0.166,0.22,0.456,0.604c0.29,0.376,0.699,0.937,1.18,1.632c0.963,1.374,2.208,3.202,3.386,5.021      c0.59,0.912,1.167,1.81,1.693,2.671c0.512,0.883,0.99,1.707,1.4,2.413c0.784,1.406,1.307,2.343,1.307,2.343      c0.679,1.242,1.371,2.191,2.093,2.853c0.714,0.711,1.456,1.137,2.246,1.278c1.637,0.3,3.435-0.589,5.542-2.406      c0,0,0.808-0.699,2.021-1.747c1.224-1.029,2.919-2.48,4.635-3.746c1.722-1.302,3.51-2.59,4.881-3.549      c0.691-0.478,1.267-0.876,1.67-1.154c0.403-0.261,0.633-0.411,0.633-0.411c2.443-1.59,4.648-2.046,6.464-1.435      c1.79,0.683,3.177,2.474,4.026,5.264c0,0,0.08,0.263,0.22,0.724c0.142,0.452,0.33,1.128,0.544,1.94      c0.433,1.619,0.972,3.76,1.453,5.868c0.497,2.082,0.88,4.25,1.148,5.843c0.254,1.585,0.424,2.641,0.424,2.641      c0.205,1.409,0.552,2.49,0.979,3.42c0.435,0.913,1.003,1.57,1.725,1.985c0.695,0.401,1.54,0.549,2.541,0.468      c0.979-0.044,2.12-0.328,3.439-0.845c0,0,1.003-0.383,2.508-0.958c0.757-0.279,1.661-0.619,2.619-0.942      c0.951-0.313,1.976-0.641,3.014-0.961c2.074-0.641,4.205-1.248,5.829-1.686c1.605-0.385,2.674-0.641,2.674-0.641      c1.433-0.331,2.707-0.421,3.812-0.28c1.107,0.138,2.047,0.504,2.758,1.149c1.439,1.268,2.189,3.362,2.055,6.356      c0,0-0.162,2.25-0.381,4.441c-0.214,2.197-0.484,4.332-0.484,4.332s-0.301,2.178-0.656,4.293      c-0.349,2.121-0.75,4.178-0.75,4.178c-0.528,2.817-0.374,4.804,0.702,6.015c0.548,0.597,1.254,1.057,2.198,1.342      c0.946,0.283,2.124,0.395,3.551,0.351c0,0,0.538-0.011,1.345-0.028c0.82-0.021,1.884-0.016,2.945,0.013      c2.131,0.044,4.316,0.153,4.316,0.153s0.549,0.022,1.373,0.056c0.818,0.042,1.956,0.079,3.029,0.18      c2.172,0.177,4.394,0.422,4.394,0.422c1.471,0.169,2.713,0.515,3.715,1.017c0.964,0.526,1.683,1.214,2.158,2.038      c0.492,0.857,0.732,1.842,0.711,2.948c-0.007,1.098-0.374,2.372-0.953,3.726c0,0-0.903,2.051-1.841,4.025      c-0.466,0.989-0.936,1.96-1.333,2.702c-0.385,0.732-0.643,1.219-0.643,1.219s-1.005,1.95-2.039,3.82      c-0.517,0.938-1.035,1.858-1.434,2.545c-0.421,0.691-0.702,1.152-0.702,1.152c-1.525,2.42-1.983,4.303-1.404,5.81      c0.508,1.533,2.094,2.672,4.819,3.545c0,0,0.128,0.042,0.352,0.117c0.228,0.073,0.539,0.184,0.909,0.32      c0.747,0.28,1.742,0.653,2.738,1.026c1.999,0.767,4.027,1.613,4.027,1.613s0.512,0.208,1.279,0.52      c0.772,0.315,1.74,0.762,2.743,1.217c1.99,0.909,4.003,1.898,4.003,1.898c2.706,1.315,4.117,3.015,4.471,4.958      c0.167,0.937,0.058,1.925-0.341,2.947c-0.447,1.03-1.178,2.092-2.198,3.167c0,0-1.547,1.615-3.1,3.146      c-0.761,0.766-1.579,1.523-2.195,2.083c-0.612,0.556-1.02,0.926-1.02,0.926s-1.61,1.489-3.22,2.894      c-0.809,0.705-1.602,1.393-2.222,1.903c-0.633,0.507-1.055,0.845-1.055,0.845c-2.256,1.771-3.352,3.383-3.3,5.008h13.811      c-0.052-1.822,1.04-3.63,3.288-5.598c0,0,0.42-0.375,1.051-0.939c0.618-0.566,1.406-1.329,2.21-2.11      C1595.221,1337.163,1596.818,1335.524,1596.818,1335.524z"
/>
<path
   style="fill:#FFFFFF;"
   d="M1610.578,1334.334c0,0,0.396-0.444,0.99-1.11c0.598-0.67,1.39-1.573,2.124-2.488       c1.499-1.827,2.986-3.735,2.986-3.735c1.028-1.277,1.752-2.541,2.181-3.77c0.382-1.222,0.462-2.409,0.261-3.543       c-0.425-2.351-1.932-4.443-4.791-6.137c0,0-2.057-1.288-4.097-2.495c-1.028-0.604-2.023-1.199-2.815-1.626       c-0.788-0.424-1.314-0.706-1.314-0.706s-2.106-1.142-4.191-2.203c-1.039-0.52-2.079-1.039-2.858-1.429       c-0.386-0.191-0.712-0.347-0.95-0.452c-0.234-0.106-0.368-0.167-0.368-0.167c-2.911-1.234-4.645-2.748-5.29-4.66       c-0.716-1.885-0.387-4.149,1.049-6.966c0,0,0.251-0.531,0.628-1.328c0.355-0.792,0.812-1.852,1.268-2.93       c0.911-2.15,1.786-4.377,1.786-4.377s0.22-0.554,0.55-1.384c0.341-0.84,0.736-1.943,1.126-3.061       c0.785-2.234,1.53-4.541,1.53-4.541c0.517-1.548,0.808-3.009,0.729-4.29c-0.065-1.289-0.401-2.455-0.996-3.49       c-0.575-0.997-1.399-1.854-2.478-2.545c-1.118-0.667-2.483-1.171-4.091-1.49c0,0-2.364-0.509-4.685-0.946       c-1.147-0.231-2.36-0.397-3.235-0.536c-0.881-0.13-1.469-0.217-1.469-0.217s-2.358-0.357-4.669-0.645       c-1.15-0.151-2.305-0.278-3.194-0.347c-0.876-0.073-1.46-0.122-1.46-0.122c-1.576-0.094-2.894-0.347-3.974-0.777       c-1.078-0.431-1.913-1.041-2.589-1.79c-1.332-1.515-1.733-3.813-1.432-6.979c0,0,0.406-4.549,0.582-9.332       c0.095-4.657-0.054-9.533-0.054-9.533c-0.122-3.321-1.16-5.691-2.905-7.216c-0.864-0.772-1.96-1.261-3.23-1.514       c-1.268-0.255-2.712-0.271-4.323-0.034c0,0-0.597,0.077-1.492,0.193c-0.445,0.062-0.964,0.133-1.52,0.21       c-0.561,0.094-1.16,0.193-1.758,0.293c-2.387,0.406-4.707,0.862-4.707,0.862s-0.574,0.118-1.436,0.295       c-0.865,0.188-1.98,0.403-3.134,0.703c-2.291,0.568-4.514,1.181-4.514,1.181c-1.506,0.438-2.828,0.635-3.985,0.587       c-1.179-0.011-2.197-0.257-3.064-0.757c-0.901-0.518-1.643-1.278-2.248-2.301c-0.596-1.038-1.111-2.234-1.478-3.766       c0,0-0.58-2.225-1.234-4.487c-0.325-1.13-0.661-2.274-0.942-3.091c-0.278-0.832-0.463-1.387-0.463-1.387       s-0.766-2.231-1.61-4.494c-0.42-1.13-0.854-2.269-1.189-3.12c-0.349-0.83-0.581-1.384-0.581-1.384       c-1.191-3.006-2.949-4.96-5.118-5.781c-2.196-0.749-4.79-0.407-7.635,1.128c0,0-0.134,0.068-0.368,0.187       c-0.233,0.115-0.569,0.294-0.972,0.516c-0.795,0.442-1.856,1.032-2.916,1.621c-2.1,1.186-4.12,2.398-4.12,2.398       s-0.498,0.305-1.245,0.762c-0.742,0.453-1.739,1.128-2.712,1.775c-1.955,1.309-3.828,2.637-3.828,2.637       c-2.516,1.798-4.71,2.627-6.754,2.256c-0.986-0.176-1.925-0.639-2.834-1.393c-0.917-0.705-1.804-1.704-2.677-3.006       c0,0-1.309-1.896-2.7-3.801c-0.692-0.967-1.405-1.882-1.948-2.564c-0.546-0.687-0.911-1.145-0.911-1.145       s-1.485-1.835-3.052-3.673c-0.781-0.916-1.579-1.846-2.186-2.521c-0.611-0.66-1.018-1.1-1.018-1.1       c-2.163-2.421-4.46-3.634-6.773-3.686c-2.313,0.05-4.629,1.265-6.859,3.687c0,0-0.202,0.22-0.554,0.605       c-0.352,0.377-0.851,0.942-1.439,1.637c-1.179,1.378-2.712,3.215-4.179,5.047c-0.734,0.919-1.455,1.826-2.117,2.695       c-0.649,0.893-1.254,1.726-1.772,2.44c-1.003,1.424-1.671,2.374-1.671,2.374c-0.904,1.306-1.806,2.307-2.732,3.013       c-0.918,0.757-1.861,1.22-2.854,1.397c-1.984,0.362-4.163-0.473-6.678-2.271c0,0-1.892-1.324-3.866-2.629       c-0.983-0.645-1.99-1.319-2.739-1.768c-0.755-0.455-1.258-0.758-1.258-0.758s-2.001-1.217-4.081-2.409       c-1.05-0.592-2.101-1.185-2.888-1.629c-0.8-0.45-1.328-0.709-1.328-0.709c-2.86-1.53-5.455-1.872-7.634-1.129       c-2.236,0.843-3.993,2.799-5.199,5.811c0,0-0.228,0.551-0.569,1.379c-0.317,0.848-0.74,1.979-1.162,3.11       c-0.825,2.255-1.573,4.477-1.573,4.477s-0.19,0.557-0.475,1.392c-0.288,0.82-0.634,1.967-0.968,3.103       c-0.672,2.271-1.269,4.505-1.269,4.505c-0.359,1.529-0.871,2.722-1.458,3.757c-0.597,1.017-1.326,1.77-2.2,2.273l6.873,11.88       c0.788-0.453,1.433-1.153,1.948-2.111c0.506-0.976,0.94-2.102,1.227-3.554c0,0,0.462-2.163,0.997-4.367       c0.265-1.102,0.543-2.215,0.779-3.011c0.233-0.811,0.389-1.352,0.389-1.352s0.602-2.178,1.281-4.392       c0.349-1.111,0.699-2.222,0.961-3.055c0.286-0.813,0.477-1.355,0.477-1.355c1.054-2.854,2.621-4.737,4.662-5.509       c1.991-0.675,4.393-0.267,7.036,1.24c0,0,0.494,0.275,1.242,0.75c0.736,0.468,1.717,1.093,2.699,1.717       c1.942,1.255,3.802,2.532,3.802,2.532s0.466,0.313,1.166,0.783c0.693,0.463,1.627,1.156,2.535,1.819       c1.826,1.341,3.569,2.698,3.569,2.698c2.303,1.774,4.286,2.63,6.073,2.303c0.894-0.16,1.739-0.602,2.56-1.331       c0.829-0.678,1.634-1.643,2.44-2.901c0,0,1.161-1.877,2.403-3.766c0.617-0.959,1.257-1.863,1.744-2.542       c0.491-0.682,0.818-1.137,0.818-1.137s1.315-1.842,2.712-3.691c0.696-0.922,1.409-1.856,1.952-2.538       c0.548-0.665,0.913-1.109,0.913-1.109c2.032-2.327,4.149-3.538,6.266-3.588c2.116,0.052,4.217,1.261,6.187,3.587       c0,0,0.184,0.22,0.507,0.606c0.322,0.378,0.778,0.941,1.315,1.639c1.076,1.38,2.469,3.219,3.797,5.05       c0.665,0.919,1.316,1.824,1.912,2.692c0.582,0.891,1.126,1.722,1.592,2.434c0.896,1.419,1.494,2.366,1.494,2.366       c0.778,1.254,1.569,2.218,2.39,2.895c0.813,0.726,1.654,1.169,2.542,1.327c1.841,0.335,3.836-0.515,6.14-2.289       c0,0,0.882-0.682,2.206-1.705c1.335-1.003,3.177-2.417,5.04-3.644c1.869-1.263,3.803-2.509,5.283-3.435       c0.745-0.461,1.367-0.845,1.801-1.114c0.435-0.251,0.683-0.395,0.683-0.395c2.629-1.512,5.03-1.92,7.037-1.24       c1.98,0.752,3.549,2.633,4.589,5.482c0,0,0.098,0.27,0.269,0.744c0.173,0.465,0.404,1.16,0.671,1.994       c0.537,1.664,1.215,3.866,1.833,6.039c0.635,2.146,1.153,4.381,1.523,6.025c0.355,1.637,0.592,2.728,0.592,2.728       c0.294,1.455,0.73,2.585,1.245,3.563c0.523,0.962,1.18,1.669,1.992,2.136c0.781,0.451,1.712,0.65,2.799,0.62       c1.064,0.007,2.291-0.224,3.694-0.686c0,0,1.067-0.342,2.667-0.855c0.805-0.248,1.763-0.551,2.779-0.835       c1.009-0.274,2.096-0.559,3.196-0.836c2.198-0.555,4.45-1.073,6.164-1.443c1.694-0.317,2.824-0.528,2.824-0.528       c1.506-0.263,2.859-0.292,4.042-0.09c1.186,0.199,2.205,0.625,2.993,1.333c1.592,1.396,2.479,3.635,2.509,6.754       c0,0-0.052,2.351-0.164,4.645c-0.106,2.3-0.271,4.54-0.271,4.54s-0.196,2.283-0.448,4.506       c-0.246,2.229-0.547,4.396-0.547,4.396c-0.389,2.968-0.105,5.106,1.1,6.469c0.612,0.674,1.381,1.21,2.388,1.572       c1.008,0.36,2.248,0.55,3.736,0.585c0,0,0.561,0.019,1.402,0.047c0.854,0.024,1.964,0.09,3.07,0.18       c2.221,0.166,4.493,0.399,4.493,0.399s0.571,0.053,1.427,0.132c0.85,0.089,2.03,0.187,3.144,0.35       c2.256,0.302,4.558,0.673,4.558,0.673c1.517,0.258,2.812,0.689,3.868,1.276c1.018,0.61,1.792,1.382,2.316,2.293       c0.544,0.946,0.83,2.023,0.855,3.218c0.04,1.188-0.28,2.55-0.804,3.989c0,0-0.833,2.184-1.704,4.293       c-0.433,1.056-0.87,2.095-1.242,2.888c-0.362,0.783-0.603,1.305-0.603,1.305s-0.94,2.088-1.913,4.099       c-0.487,1.008-0.974,1.998-1.351,2.737c-0.399,0.744-0.666,1.24-0.666,1.24c-1.448,2.605-1.833,4.677-1.186,6.373       c0.577,1.723,2.229,3.053,5.014,4.117c0,0,0.131,0.052,0.36,0.142c0.233,0.089,0.551,0.222,0.929,0.386       c0.763,0.335,1.781,0.781,2.798,1.228c2.042,0.913,4.109,1.908,4.109,1.908s0.521,0.245,1.303,0.611       c0.786,0.37,1.773,0.89,2.794,1.418c2.026,1.055,4.072,2.192,4.072,2.192c2.731,1.516,4.199,3.41,4.589,5.557       c0.184,1.035,0.087,2.123-0.299,3.245c-0.434,1.129-1.151,2.29-2.148,3.463c0,0-1.527,1.764-3.064,3.444       c-0.753,0.841-1.563,1.672-2.174,2.287c-0.607,0.611-1.012,1.018-1.012,1.018s-1.597,1.639-3.198,3.194       c-0.804,0.781-1.593,1.544-2.21,2.11c-0.63,0.563-1.051,0.939-1.051,0.939c-2.247,1.968-3.34,3.776-3.288,5.598h13.725       c-0.053-2.018,1.053-4.02,3.362-6.188c0,0,0.418-0.413,1.046-1.032c0.615-0.622,1.399-1.461,2.198-2.317       C1608.994,1336.123,1610.578,1334.334,1610.578,1334.334z"
/>
<path
   style="fill:#FFA227;"
   d="M1630.374,1325.216c0.981-1.372,1.67-2.732,2.071-4.057c0.354-1.319,0.414-2.604,0.196-3.835      c-0.461-2.555-1.989-4.845-4.825-6.75c0,0-1.049-0.708-2.622-1.771c-1.589-1.042-3.614-2.413-5.801-3.674      c-2.152-1.273-4.291-2.48-5.888-3.356c-0.797-0.432-1.461-0.792-1.926-1.044c-0.479-0.242-0.753-0.38-0.753-0.38      c-2.889-1.45-4.687-3.157-5.401-5.258c-0.785-2.074-0.53-4.528,0.75-7.495c0,0,0.12-0.282,0.331-0.775      c0.218-0.498,0.498-1.199,0.823-2.045c0.657-1.695,1.515-3.992,2.342-6.348c0.856-2.366,1.564-4.735,2.092-6.545      c0.521-1.824,0.868-3.04,0.868-3.04c0.44-1.621,0.665-3.16,0.526-4.523c-0.125-1.371-0.514-2.623-1.161-3.747      c-0.624-1.082-1.495-2.028-2.615-2.81c-1.158-0.758-2.558-1.358-4.19-1.78c0,0-1.223-0.307-3.058-0.768      c-0.917-0.22-1.966-0.481-3.113-0.727c-1.153-0.227-2.382-0.47-3.612-0.713c-2.446-0.463-4.856-0.869-6.647-1.148      c-1.825-0.234-3.041-0.389-3.041-0.389c-1.602-0.198-2.965-0.544-4.099-1.057c-1.132-0.515-2.03-1.202-2.77-2.028      c-1.46-1.668-1.994-4.116-1.894-7.374c0,0,0.116-2.401,0.172-4.859c0.062-2.453,0.062-4.962,0.062-4.962      s-0.061-2.436-0.185-4.926c-0.118-2.484-0.3-5.02-0.3-5.02c-0.32-3.409-1.518-5.896-3.414-7.548      c-0.94-0.836-2.11-1.391-3.448-1.716c-1.337-0.327-2.845-0.421-4.514-0.272c0,0-0.627,0.054-1.567,0.135      c-0.468,0.044-1.013,0.096-1.598,0.152c-0.59,0.073-1.219,0.15-1.847,0.227c-2.509,0.316-4.953,0.685-4.953,0.685      s-0.608,0.101-1.52,0.253c-0.915,0.163-2.099,0.345-3.32,0.612c-2.427,0.502-4.787,1.054-4.787,1.054      c-1.567,0.348-2.963,0.473-4.198,0.364c-1.258-0.072-2.363-0.37-3.316-0.92c-0.99-0.569-1.822-1.38-2.521-2.441      c-0.69-1.077-1.304-2.301-1.779-3.841c0,0-0.703-2.313-1.482-4.661c-0.387-1.173-0.787-2.359-1.115-3.208      c-0.325-0.863-0.542-1.439-0.542-1.439s-0.904-2.295-1.888-4.62c-0.502-1.165-1.005-2.33-1.382-3.203      c-0.401-0.852-0.669-1.42-0.669-1.42c-1.402-3.019-3.353-5.029-5.711-5.919c-2.384-0.818-5.162-0.557-8.177,0.853      c0,0-0.143,0.065-0.393,0.179c-0.249,0.11-0.607,0.281-1.038,0.495c-0.85,0.426-1.984,0.993-3.118,1.561      c-2.247,1.143-4.414,2.315-4.414,2.315s-0.536,0.3-1.34,0.751c-0.799,0.446-1.872,1.113-2.92,1.754      c-2.106,1.294-4.131,2.612-4.131,2.612c-2.694,1.671-5.086,2.459-7.334,2.052c-1.084-0.193-2.122-0.672-3.132-1.43      c-1.017-0.709-2.006-1.701-2.983-2.973c0,0-1.454-1.937-2.991-3.88c-0.765-0.986-1.551-1.919-2.149-2.614      c-0.601-0.7-1.002-1.167-1.002-1.167s-1.635-1.848-3.353-3.695c-0.857-0.921-1.73-1.855-2.392-2.532      c-0.667-0.663-1.112-1.104-1.112-1.104c-2.362-2.36-4.854-3.561-7.363-3.613c-2.509,0.05-5.021,1.252-7.456,3.614      c0,0-0.439,0.442-1.097,1.104c-0.654,0.679-1.515,1.611-2.361,2.531c-1.695,1.846-3.309,3.692-3.309,3.692      s-0.401,0.467-1.002,1.167c-0.598,0.697-1.384,1.626-2.149,2.612c-1.538,1.943-2.992,3.88-2.992,3.88      c-1.011,1.276-2.017,2.27-3.044,2.98c-1.02,0.762-2.062,1.24-3.154,1.435c-2.182,0.397-4.558-0.398-7.251-2.069      c0,0-1.03-0.648-2.574-1.621c-1.556-0.95-3.692-2.295-5.848-3.443c-2.161-1.185-4.386-2.347-6.084-3.207      c-0.854-0.428-1.566-0.785-2.064-1.035c-0.498-0.232-0.783-0.365-0.783-0.365c-3.032-1.404-5.81-1.665-8.177-0.853      c-2.43,0.913-4.379,2.926-5.798,5.951c0,0-0.133,0.285-0.365,0.784c-0.234,0.49-0.551,1.225-0.922,2.103      c-0.745,1.753-1.7,4.078-2.591,6.379c-0.909,2.274-1.695,4.644-2.268,6.388c-0.557,1.74-0.928,2.9-0.928,2.9      c-0.467,1.536-1.078,2.758-1.757,3.831c-0.689,1.056-1.506,1.858-2.468,2.411l6.917,11.955c0.874-0.503,1.604-1.256,2.2-2.273      c0.587-1.035,1.099-2.228,1.458-3.757c0,0,0.597-2.234,1.269-4.505c0.333-1.136,0.68-2.282,0.968-3.103      c0.285-0.835,0.475-1.392,0.475-1.392s0.748-2.222,1.573-4.477c0.423-1.131,0.845-2.261,1.162-3.11      c0.341-0.827,0.569-1.379,0.569-1.379c1.206-3.012,2.963-4.968,5.199-5.811c2.179-0.744,4.774-0.402,7.634,1.129      c0,0,0.528,0.258,1.328,0.709c0.788,0.444,1.838,1.037,2.888,1.629c2.08,1.192,4.081,2.409,4.081,2.409s0.503,0.303,1.258,0.758      c0.749,0.448,1.756,1.123,2.739,1.768c1.974,1.304,3.866,2.629,3.866,2.629c2.515,1.799,4.694,2.633,6.678,2.271      c0.993-0.177,1.936-0.64,2.854-1.397c0.926-0.706,1.828-1.707,2.732-3.013c0,0,0.668-0.95,1.671-2.374      c0.519-0.714,1.124-1.547,1.772-2.44c0.662-0.868,1.383-1.776,2.117-2.695c1.467-1.833,3-3.67,4.179-5.047      c0.589-0.695,1.088-1.26,1.439-1.637c0.353-0.385,0.554-0.605,0.554-0.605c2.23-2.422,4.546-3.637,6.859-3.687      c2.313,0.052,4.61,1.265,6.773,3.686c0,0,0.407,0.44,1.018,1.1c0.607,0.675,1.404,1.605,2.186,2.521      c1.568,1.839,3.052,3.673,3.052,3.673s0.364,0.458,0.911,1.145c0.543,0.682,1.256,1.597,1.948,2.564      c1.391,1.905,2.7,3.801,2.7,3.801c0.873,1.302,1.76,2.301,2.677,3.006c0.909,0.754,1.848,1.217,2.834,1.393      c2.044,0.371,4.238-0.457,6.754-2.256c0,0,1.874-1.328,3.828-2.637c0.973-0.648,1.97-1.323,2.712-1.775      c0.747-0.457,1.245-0.762,1.245-0.762s2.02-1.212,4.12-2.398c1.06-0.59,2.121-1.179,2.916-1.621      c0.403-0.222,0.739-0.401,0.972-0.516c0.234-0.119,0.368-0.187,0.368-0.187c2.845-1.535,5.439-1.877,7.635-1.128      c2.169,0.821,3.927,2.775,5.118,5.781c0,0,0.233,0.553,0.581,1.384c0.335,0.851,0.769,1.991,1.189,3.12      c0.844,2.263,1.61,4.494,1.61,4.494s0.185,0.555,0.463,1.387c0.281,0.817,0.617,1.96,0.942,3.091      c0.654,2.262,1.234,4.487,1.234,4.487c0.367,1.532,0.882,2.728,1.478,3.766c0.605,1.022,1.348,1.783,2.248,2.301      c0.867,0.5,1.885,0.746,3.064,0.757c1.156,0.048,2.478-0.149,3.985-0.587c0,0,2.223-0.613,4.514-1.181      c1.154-0.3,2.269-0.515,3.134-0.703c0.861-0.177,1.436-0.295,1.436-0.295s2.32-0.456,4.707-0.862      c0.599-0.1,1.197-0.2,1.758-0.293c0.556-0.077,1.075-0.149,1.52-0.21c0.895-0.116,1.492-0.193,1.492-0.193      c1.611-0.237,3.055-0.221,4.323,0.034c1.27,0.253,2.366,0.742,3.23,1.514c1.745,1.524,2.783,3.895,2.905,7.216      c0,0,0.15,4.876,0.054,9.533c-0.176,4.783-0.582,9.332-0.582,9.332c-0.302,3.166,0.1,5.464,1.432,6.979      c0.676,0.749,1.511,1.359,2.589,1.79c1.08,0.429,2.399,0.683,3.974,0.777c0,0,0.584,0.049,1.46,0.122      c0.888,0.069,2.043,0.196,3.194,0.347c2.311,0.288,4.669,0.645,4.669,0.645s0.588,0.087,1.469,0.217      c0.875,0.139,2.088,0.305,3.235,0.536c2.321,0.438,4.685,0.946,4.685,0.946c1.607,0.319,2.973,0.823,4.091,1.49      c1.079,0.69,1.904,1.548,2.478,2.545c0.596,1.035,0.931,2.201,0.996,3.49c0.079,1.282-0.212,2.742-0.729,4.29      c0,0-0.745,2.307-1.53,4.541c-0.39,1.119-0.785,2.221-1.126,3.061c-0.33,0.83-0.55,1.384-0.55,1.384s-0.875,2.226-1.786,4.377      c-0.456,1.078-0.913,2.138-1.268,2.93c-0.377,0.797-0.628,1.328-0.628,1.328c-1.436,2.816-1.765,5.081-1.049,6.966      c0.645,1.911,2.378,3.426,5.29,4.66c0,0,0.134,0.061,0.368,0.167c0.238,0.105,0.563,0.261,0.95,0.452      c0.779,0.39,1.819,0.909,2.858,1.429c2.085,1.06,4.191,2.203,4.191,2.203s0.526,0.282,1.314,0.706      c0.793,0.427,1.787,1.022,2.815,1.626c2.041,1.206,4.097,2.495,4.097,2.495c2.859,1.694,4.366,3.786,4.791,6.137      c0.201,1.133,0.121,2.32-0.261,3.543c-0.429,1.229-1.154,2.493-2.181,3.77c0,0-1.487,1.908-2.986,3.735      c-0.734,0.915-1.527,1.818-2.124,2.488c-0.594,0.666-0.99,1.11-0.99,1.11s-1.584,1.789-3.175,3.495      c-0.799,0.856-1.583,1.694-2.198,2.317c-0.628,0.619-1.046,1.032-1.046,1.032c-2.308,2.168-3.414,4.17-3.362,6.188h13.812      c-0.052-2.215,1.049-4.414,3.262-6.774c0,0,0.21-0.223,0.577-0.613c0.375-0.392,0.889-0.954,1.479-1.636      c1.197-1.365,2.789-3.224,4.372-5.15c0.789-0.962,1.586-1.939,2.313-2.865c0.699-0.935,1.351-1.809,1.911-2.557      C1629.633,1326.238,1630.374,1325.216,1630.374,1325.216z"
/>
<path
   style="fill:#E0486C;"
   d="M1541.103,1338.173c0,0-0.323-0.401-0.807-1.002c-0.503-0.595-1.186-1.375-1.865-2.131     c-1.337-1.523-2.789-2.92-2.789-2.92s-0.266-0.263-0.731-0.722c-0.466-0.455-1.119-1.099-1.961-1.832     c-0.836-0.734-1.784-1.571-2.842-2.414c-1.077-0.839-2.203-1.7-3.355-2.505c-1.178-0.798-2.335-1.557-3.433-2.224     c-1.124-0.658-2.162-1.235-3.046-1.708c-0.893-0.47-1.662-0.824-2.183-1.074c-0.524-0.244-0.823-0.383-0.823-0.383     c-1.043-0.494-1.983-0.998-2.709-1.601c-0.72-0.606-1.325-1.26-1.765-2.023c-0.213-0.367-0.381-0.761-0.517-1.178     c-0.149-0.409-0.258-0.845-0.33-1.31c-0.141-0.932-0.132-1.982-0.034-3.137c0,0,0.039-0.441,0.108-1.213     c0.074-0.786,0.136-1.893,0.159-3.247c0.094-2.735-0.094-6.407-0.621-10.24c-0.564-3.769-1.48-7.689-2.424-10.572     c-0.236-0.732-0.453-1.403-0.645-1.997c-0.215-0.588-0.402-1.1-0.556-1.521c-0.325-0.849-0.51-1.334-0.51-1.334     c-0.491-1.296-1.159-2.405-1.947-3.36c-0.393-0.479-0.817-0.918-1.269-1.316c-0.462-0.382-0.952-0.722-1.468-1.019     c-1.03-0.595-2.157-1.021-3.39-1.209c-1.23-0.192-2.514-0.242-3.888-0.015c0,0-0.515,0.082-1.415,0.226     c-0.894,0.149-2.156,0.359-3.656,0.71c-1.492,0.331-3.196,0.746-4.983,1.303c-1.774,0.513-3.632,1.189-5.414,1.887     c-1.785,0.711-3.513,1.512-5.067,2.285c-1.565,0.826-2.952,1.559-4.116,2.296c-1.163,0.721-2.089,1.329-2.728,1.758     c-0.634,0.456-0.996,0.716-0.996,0.716c-0.951,0.703-1.852,1.178-2.729,1.539c-0.877,0.358-1.728,0.526-2.576,0.506     c-0.88,0.02-1.747-0.148-2.632-0.505c-0.885-0.358-1.786-0.834-2.738-1.537c0,0-0.27-0.195-0.744-0.536     c-0.477-0.34-1.163-0.783-2.017-1.33c-0.853-0.544-1.874-1.181-2.998-1.785c-1.125-0.614-2.37-1.294-3.64-1.866     c-2.548-1.217-5.255-2.23-7.36-2.929c-2.092-0.664-3.563-1.066-3.563-1.066s-0.48-0.131-1.209-0.312     c-0.729-0.182-1.713-0.417-2.717-0.639c-1.006-0.231-2.004-0.388-2.772-0.527c-0.77-0.127-1.283-0.212-1.283-0.212     c-1.414-0.21-2.718-0.149-3.958,0.048c-1.243,0.192-2.369,0.622-3.399,1.216c-0.515,0.297-1.005,0.635-1.464,1.019     c-0.45,0.397-0.873,0.836-1.265,1.314c-0.786,0.954-1.453,2.064-1.95,3.365c0,0-0.386,0.977-0.91,2.418     c-0.503,1.471-1.133,3.401-1.642,5.337c-0.505,1.948-0.936,3.846-1.177,5.299c-0.257,1.437-0.398,2.373-0.398,2.373     s-0.244,1.923-0.401,3.775c-0.14,1.883-0.173,3.714-0.173,3.714s-0.028,0.451-0.026,1.145c-0.001,0.693,0.008,1.606,0.031,2.504     c0.014,0.891,0.078,1.793,0.131,2.46c0.055,0.662,0.092,1.104,0.092,1.104c0.099,1.154,0.112,2.203-0.029,3.133     c-0.072,0.465-0.181,0.9-0.33,1.31c-0.134,0.419-0.305,0.813-0.518,1.184c-0.427,0.741-1.026,1.383-1.746,1.989     c-0.726,0.603-1.672,1.118-2.725,1.637c0,0-0.398,0.186-0.995,0.464c-0.591,0.287-1.42,0.666-2.194,1.093     c-0.783,0.422-1.572,0.865-2.167,1.207c-0.596,0.342-0.989,0.581-0.989,0.581s-1.551,0.952-3.127,2.014     c-1.536,1.063-3.06,2.247-3.06,2.247s-0.392,0.295-0.942,0.761c-0.551,0.466-1.286,1.101-2.023,1.759     c-0.747,0.655-1.464,1.338-1.987,1.863c-0.531,0.53-0.885,0.883-0.885,0.883s-1.45,1.397-2.787,2.921     c-0.679,0.757-1.364,1.537-1.864,2.132c-0.484,0.602-0.807,1.003-0.807,1.003c-0.837,1.084-1.525,2.219-1.941,3.385     c-0.418,1.166-0.642,2.367-0.659,3.584c0.02,1.173,0.241,2.351,0.66,3.506c0.416,1.155,1.103,2.29,1.94,3.374     c0,0,0.323,0.401,0.807,1.003c0.5,0.595,1.185,1.375,1.864,2.132c1.337,1.524,2.787,2.921,2.787,2.921s0.354,0.353,0.885,0.883     c0.523,0.526,1.24,1.209,1.987,1.863c0.737,0.658,1.472,1.293,2.023,1.759c0.55,0.466,0.942,0.761,0.942,0.761     s1.524,1.184,3.06,2.247c1.575,1.062,3.127,2.014,3.127,2.014s0.394,0.244,0.993,0.591c0.597,0.348,1.39,0.8,2.176,1.229     c0.78,0.434,1.611,0.821,2.204,1.113c0.599,0.284,0.999,0.473,0.999,0.473c1.04,0.488,1.981,0.987,2.702,1.583     c0.717,0.599,1.315,1.241,1.742,1.982c0.214,0.37,0.385,0.766,0.519,1.185c0.15,0.41,0.26,0.847,0.332,1.312     c0.142,0.932,0.129,1.98,0.026,3.129c0,0-0.037,0.442-0.092,1.104c-0.054,0.668-0.117,1.569-0.131,2.46     c-0.023,0.897-0.032,1.811-0.031,2.503c-0.002,0.694,0.026,1.145,0.026,1.145s0.032,1.831,0.173,3.713     c0.157,1.852,0.401,3.775,0.401,3.775s0.3,1.879,0.692,3.822c0.407,1.91,0.933,3.855,0.933,3.855s0.031,0.122,0.085,0.335     c0.053,0.215,0.133,0.519,0.239,0.876c0.207,0.719,0.496,1.684,0.804,2.66c0.301,0.984,0.649,1.942,0.919,2.667     c0.274,0.728,0.456,1.213,0.456,1.213c0.498,1.301,1.168,2.414,1.956,3.369c0.393,0.479,0.816,0.918,1.266,1.315     c0.459,0.383,0.947,0.72,1.458,1.015c1.061,0.613,2.204,1.048,3.447,1.24c1.24,0.198,2.528,0.247,3.91,0.024     c0,0,0.513-0.085,1.283-0.213c0.769-0.139,1.767-0.296,2.772-0.527c1.003-0.222,1.987-0.457,2.717-0.639     c0.729-0.181,1.209-0.312,1.209-0.312s1.959-0.534,3.817-1.122c1.881-0.623,3.667-1.322,3.667-1.322s0.111-0.044,0.304-0.122     c0.193-0.077,0.468-0.187,0.798-0.336c0.66-0.291,1.527-0.684,2.373-1.084c0.845-0.39,1.675-0.819,2.29-1.157     c0.608-0.332,1.014-0.554,1.014-0.554s1.607-0.851,3.121-1.837c0.759-0.481,1.495-0.961,2.038-1.332     c0.54-0.388,0.899-0.647,0.899-0.647c0.978-0.702,1.892-1.174,2.777-1.536c0.885-0.358,1.739-0.525,2.593-0.506     c0.854-0.02,1.705,0.148,2.581,0.506c0.875,0.361,1.773,0.836,2.724,1.539c0,0,0.364,0.259,0.909,0.646     c0.55,0.373,1.294,0.849,2.062,1.33c1.531,0.984,3.156,1.831,3.156,1.831s0.406,0.221,1.015,0.554     c0.615,0.339,1.445,0.765,2.29,1.155c0.846,0.4,1.714,0.793,2.374,1.084c0.66,0.292,1.102,0.456,1.102,0.456     s0.884,0.351,2.263,0.853c1.385,0.527,3.24,1.068,5.193,1.628c1.922,0.489,3.937,0.961,5.452,1.223     c1.516,0.268,2.559,0.423,2.559,0.423c1.382,0.224,2.666,0.173,3.894-0.018c1.231-0.186,2.354-0.611,3.385-1.206     c0.515-0.297,1.005-0.637,1.468-1.02c0.453-0.399,0.879-0.84,1.277-1.321c0.798-0.961,1.483-2.083,2.009-3.405     c0,0,0.182-0.485,0.456-1.213c0.27-0.723,0.616-1.684,0.917-2.667c0.308-0.975,0.596-1.941,0.803-2.66     c0.21-0.716,0.322-1.212,0.322-1.212s0.391-1.464,0.858-3.602c0.214-1.09,0.442-2.348,0.653-3.671     c0.199-1.335,0.351-2.766,0.484-4.152c0.115-1.404,0.168-2.806,0.206-4.08c0.022-1.289-0.015-2.49-0.045-3.49     c-0.024-0.996-0.109-1.846-0.153-2.422c-0.052-0.577-0.082-0.906-0.082-0.906c-0.099-1.155-0.108-2.205,0.038-3.144     c0.074-0.469,0.187-0.91,0.341-1.326c0.138-0.426,0.314-0.829,0.534-1.211c0.425-0.735,1.02-1.376,1.737-1.974     c0.722-0.596,1.662-1.099,2.705-1.594c0,0,0.401-0.187,1.101-0.514c0.704-0.334,1.724-0.821,2.898-1.483     c0.594-0.328,1.24-0.694,1.928-1.095c0.686-0.402,1.373-0.854,2.11-1.331c1.486-0.95,2.991-2.062,4.518-3.25     c1.511-1.19,2.976-2.476,4.345-3.747c1.318-1.279,2.607-2.536,3.607-3.665c1.017-1.126,1.865-2.108,2.452-2.806     c0.563-0.706,0.884-1.11,0.884-1.11c0.836-1.075,1.524-2.206,1.938-3.361c0.418-1.155,0.639-2.338,0.66-3.52v0h-18.416v0     c-0.02,0.92-0.233,1.839-0.638,2.732c-0.401,0.893-1.072,1.758-1.891,2.572c0,0-0.311,0.307-0.776,0.767     c-0.478,0.454-1.137,1.044-1.783,1.612c-1.274,1.147-2.644,2.166-2.644,2.166s-0.339,0.249-0.847,0.622     c-0.499,0.37-1.182,0.845-1.891,1.292c-0.698,0.45-1.391,0.879-1.909,1.191c-0.515,0.313-0.884,0.504-0.884,0.504     s-1.411,0.812-2.815,1.509c-1.446,0.695-2.849,1.286-2.849,1.286c-1.936,0.747-3.578,0.743-5.032,0.14     c-0.7-0.291-1.226-0.765-1.589-1.389c-0.36-0.624-0.548-1.396-0.653-2.332c0,0-0.035-0.349-0.088-0.873     c-0.059-0.522-0.189-1.222-0.291-1.896c-0.104-0.676-0.287-1.355-0.385-1.845c-0.1-0.492-0.198-0.82-0.198-0.82     c-0.245-0.867-0.578-1.515-1.095-1.977c-0.516-0.463-1.148-0.726-1.901-0.825c-0.781-0.102-1.473-0.014-2.078,0.239     c-0.604,0.254-1.188,0.661-1.658,1.234c-1.04,1.16-1.755,2.442-2.334,4.038c0,0-0.232,0.584-0.581,1.459     c-0.396,0.856-0.902,2.012-1.562,3.092c-0.291,0.561-0.668,1.073-0.973,1.582c-0.342,0.486-0.662,0.939-0.936,1.328     c-0.302,0.369-0.545,0.682-0.713,0.903c-0.082,0.113-0.151,0.197-0.203,0.25c-0.05,0.056-0.076,0.085-0.076,0.085     c-1.074,1.308-1.863,2.602-2.339,4.057c-0.131,0.362-0.216,0.72-0.255,1.073c-0.046,0.344-0.056,0.672-0.012,1.004     c0.085,0.661,0.359,1.307,0.839,1.932c0.462,0.602,1.005,1.013,1.664,1.217c0.328,0.1,0.69,0.157,1.073,0.148     c0.376-0.018,0.782-0.091,1.22-0.218c0,0,0.331-0.08,0.818-0.227c0.487-0.161,1.138-0.375,1.788-0.589     c0.647-0.254,1.294-0.509,1.779-0.7c0.484-0.206,0.799-0.359,0.799-0.359c0.422-0.2,0.834-0.348,1.233-0.444     c0.391-0.103,0.757-0.164,1.119-0.163c0.72-0.001,1.392,0.216,1.993,0.678c1.241,0.954,2.094,2.389,2.385,4.432     c0,0,0.203,1.527,0.312,3.118c0.09,1.559,0.106,3.202,0.106,3.202s0.004,1.594-0.071,3.267c-0.091,1.639-0.286,3.327-0.286,3.327     s-0.039,0.429-0.137,1.047c-0.095,0.621-0.232,1.456-0.387,2.305c-0.148,0.857-0.338,1.693-0.49,2.325     c-0.155,0.636-0.258,1.061-0.258,1.061c-0.298,1.168-0.758,2.14-1.33,2.955c-0.285,0.409-0.598,0.778-0.937,1.106     c-0.349,0.313-0.725,0.583-1.124,0.813c-0.798,0.461-1.687,0.76-2.68,0.824c-0.991,0.068-2.035,0.001-3.177-0.342     c0,0-0.424-0.122-1.061-0.305c-0.635-0.193-1.454-0.421-2.278-0.719c-0.822-0.29-1.624-0.589-2.216-0.816     c-0.592-0.226-0.98-0.389-0.98-0.389s-1.566-0.693-3.026-1.421c-1.483-0.764-2.865-1.585-2.865-1.585s-0.344-0.187-0.857-0.511     c-0.513-0.323-1.183-0.755-1.831-1.192c-0.647-0.426-1.279-0.885-1.746-1.246c-0.46-0.354-0.767-0.59-0.767-0.59     c-1.656-1.233-2.484-2.731-2.684-4.276c-0.098-0.752,0.052-1.438,0.415-2.052c0.364-0.612,0.93-1.221,1.699-1.731     c0,0,0.292-0.194,0.71-0.528c0.417-0.336,0.977-0.727,1.5-1.191c0.523-0.465,1.04-0.891,1.409-1.247     c0.364-0.357,0.606-0.596,0.606-0.596c0.644-0.597,1.027-1.272,1.181-1.943c0.155-0.669,0.078-1.346-0.213-2.047     c-0.302-0.727-0.734-1.286-1.267-1.693c-0.533-0.405-1.162-0.646-1.908-0.816c-1.478-0.292-2.989-0.306-4.635-0.021     c0,0-0.618,0.133-1.566,0.232c-0.942,0.139-2.222,0.187-3.511,0.224c-1.289-0.036-2.569-0.085-3.512-0.222     c-0.949-0.1-1.566-0.231-1.566-0.231c-1.653-0.284-3.158-0.27-4.635,0.024c-0.745,0.169-1.375,0.413-1.907,0.817     c-0.532,0.407-0.964,0.966-1.266,1.693c-0.291,0.701-0.368,1.378-0.212,2.047c0.154,0.672,0.538,1.344,1.182,1.942     c0,0,0.24,0.237,0.6,0.594c0.366,0.352,0.877,0.779,1.396,1.242c0.518,0.463,1.073,0.852,1.486,1.187     c0.209,0.162,0.384,0.298,0.506,0.392c0.125,0.086,0.197,0.136,0.197,0.136c0.791,0.513,1.356,1.122,1.715,1.733     c0.358,0.613,0.495,1.297,0.397,2.049c-0.201,1.545-1.021,3.043-2.635,4.283c0,0-0.23,0.178-0.633,0.489     c-0.407,0.309-1,0.765-1.727,1.246c-0.728,0.488-1.608,1.079-2.581,1.658c-0.967,0.559-2.042,1.165-3.15,1.726     c-1.099,0.534-2.244,1.066-3.345,1.532c-1.091,0.438-2.145,0.833-3.068,1.163c-0.919,0.322-1.693,0.544-2.246,0.714     c-0.555,0.162-0.872,0.255-0.872,0.255c-1.141,0.343-2.19,0.411-3.189,0.337c-1.003-0.068-1.906-0.376-2.729-0.851     c-0.396-0.229-0.77-0.497-1.116-0.81c-0.337-0.327-0.647-0.695-0.929-1.101c-0.564-0.81-1.013-1.775-1.289-2.927     c0,0-0.078-0.32-0.215-0.88c-0.129-0.563-0.328-1.335-0.498-2.306c-0.175-0.964-0.372-2.058-0.526-3.235     c-0.14-1.195-0.272-2.43-0.347-3.662c-0.058-1.252-0.098-2.459-0.085-3.591c0.026-1.145,0.076-2.185,0.132-3.059     c0.154-1.786,0.317-2.917,0.317-2.917c0.288-2.042,1.142-3.479,2.382-4.433c0.601-0.462,1.266-0.689,1.979-0.696     c0.358-0.005,0.722,0.051,1.109,0.152c0.396,0.093,0.807,0.239,1.229,0.439c0,0,0.318,0.154,0.803,0.365     c0.488,0.194,1.139,0.452,1.789,0.71c0.654,0.218,1.307,0.436,1.798,0.599c0.491,0.148,0.823,0.23,0.823,0.23     c0.431,0.121,0.833,0.19,1.207,0.207c0.382,0.008,0.745-0.048,1.075-0.147c0.662-0.201,1.212-0.607,1.674-1.209     c0.479-0.625,0.746-1.277,0.828-1.94c0.042-0.333,0.032-0.662-0.014-1.005c-0.038-0.352-0.119-0.707-0.244-1.064     c-0.478-1.453-1.27-2.753-2.341-4.056c0,0-0.027-0.03-0.076-0.085c-0.052-0.054-0.124-0.137-0.205-0.25     c-0.169-0.222-0.412-0.536-0.715-0.906c-0.275-0.39-0.596-0.844-0.94-1.331c-0.306-0.51-0.684-1.024-0.976-1.587     c-0.662-1.083-1.169-2.243-1.566-3.102c-0.174-0.44-0.319-0.806-0.42-1.062c-0.105-0.255-0.161-0.402-0.161-0.402     c-0.57-1.566-1.292-2.879-2.327-4.007c-0.47-0.573-1.055-0.988-1.661-1.251c-0.606-0.262-1.3-0.359-2.081-0.257     c-0.753,0.098-1.384,0.371-1.899,0.843c-0.515,0.472-0.847,1.13-1.092,1.997c0,0-0.023,0.082-0.064,0.226     c-0.032,0.143-0.078,0.348-0.133,0.594c-0.097,0.491-0.283,1.171-0.384,1.846c-0.102,0.674-0.234,1.375-0.29,1.896     c-0.053,0.524-0.088,0.874-0.088,0.874c-0.105,0.937-0.294,1.698-0.659,2.312c-0.367,0.614-0.897,1.077-1.597,1.367     c-1.453,0.602-3.094,0.615-5.031-0.142c0,0-1.049-0.425-2.672-1.183c-1.584-0.766-3.721-1.911-5.776-3.283     c-1.062-0.676-2.037-1.414-2.994-2.135c-0.966-0.72-1.808-1.44-2.539-2.077c-0.728-0.637-1.355-1.191-1.762-1.586     c-0.409-0.4-0.643-0.628-0.643-0.628c-0.82-0.82-1.49-1.688-1.893-2.581c-0.405-0.893-0.618-1.809-0.638-2.722     c0.018-0.947,0.233-1.881,0.638-2.782c0.403-0.902,1.073-1.77,1.893-2.59c0,0,0.234-0.228,0.643-0.628     c0.407-0.396,1.035-0.949,1.762-1.586c0.731-0.637,1.573-1.357,2.539-2.077c0.957-0.721,1.932-1.46,2.994-2.135     c2.054-1.372,4.191-2.517,5.776-3.283c1.623-0.757,2.672-1.182,2.672-1.182c1.937-0.758,3.578-0.745,5.031-0.143     c0.701,0.291,1.23,0.753,1.595,1.373c0.362,0.619,0.55,1.391,0.648,2.348c0,0,0.036,0.347,0.09,0.867     c0.062,0.518,0.192,1.213,0.296,1.882c0.105,0.671,0.289,1.345,0.388,1.832c0.056,0.244,0.102,0.447,0.134,0.589     c0.041,0.143,0.064,0.224,0.064,0.224c0.245,0.867,0.577,1.526,1.092,1.997c0.515,0.472,1.146,0.745,1.899,0.843     c0.781,0.101,1.474,0.005,2.081-0.257c0.606-0.263,1.191-0.678,1.661-1.251c1.035-1.127,1.754-2.435,2.327-4.007     c0,0,0.056-0.147,0.161-0.402c0.101-0.256,0.246-0.623,0.42-1.062c0.398-0.858,0.904-2.018,1.566-3.102     c0.292-0.563,0.67-1.076,0.976-1.587c0.344-0.487,0.665-0.942,0.94-1.331c0.303-0.37,0.546-0.685,0.715-0.906     c0.081-0.113,0.154-0.196,0.205-0.25c0.05-0.056,0.076-0.086,0.076-0.086c1.071-1.303,1.862-2.603,2.341-4.056     c0.125-0.357,0.206-0.712,0.244-1.064c0.045-0.343,0.056-0.672,0.014-1.005c-0.082-0.663-0.349-1.316-0.828-1.94     c-0.462-0.602-1.012-1.008-1.674-1.209c-0.33-0.099-0.693-0.155-1.075-0.147c-0.375,0.017-0.776,0.086-1.207,0.207     c0,0-0.332,0.083-0.823,0.23c-0.49,0.163-1.144,0.381-1.798,0.599c-0.651,0.258-1.301,0.516-1.789,0.71     c-0.485,0.21-0.803,0.365-0.803,0.365c-0.422,0.2-0.834,0.348-1.234,0.444c-0.389,0.105-0.757,0.164-1.118,0.164     c-0.72,0.001-1.392-0.216-1.994-0.677c-1.241-0.953-2.091-2.395-2.354-4.47c0,0-0.211-1.518-0.329-3.098     c-0.099-1.549-0.127-3.182-0.127-3.182s-0.005-1.594,0.07-3.266c0.088-1.641,0.285-3.327,0.285-3.327s0.042-0.431,0.143-1.054     c0.1-0.624,0.243-1.465,0.405-2.318c0.154-0.862,0.351-1.703,0.508-2.338c0.16-0.64,0.267-1.067,0.267-1.067     c0.277-1.153,0.722-2.115,1.285-2.925c0.281-0.406,0.591-0.773,0.928-1.101c0.346-0.314,0.722-0.583,1.121-0.813     c0.799-0.46,1.689-0.763,2.692-0.832c1-0.073,2.06-0.014,3.226,0.318c0,0,0.42,0.124,1.051,0.309     c0.629,0.196,1.44,0.427,2.258,0.728c0.815,0.293,1.609,0.594,2.196,0.824c0.587,0.229,0.971,0.391,0.971,0.391     s1.567,0.692,3.027,1.42c1.482,0.761,2.866,1.583,2.866,1.583s0.348,0.187,0.865,0.507c0.518,0.321,1.195,0.753,1.85,1.188     c0.654,0.425,1.292,0.883,1.764,1.243c0.465,0.353,0.774,0.588,0.774,0.588c1.614,1.24,2.434,2.738,2.635,4.283     c0.098,0.752-0.051,1.438-0.414,2.051c-0.363,0.615-0.929,1.222-1.698,1.732c0,0-0.072,0.049-0.197,0.135     c-0.122,0.095-0.297,0.23-0.506,0.392c-0.413,0.335-0.968,0.724-1.486,1.187c-0.519,0.463-1.03,0.89-1.396,1.242     c-0.36,0.356-0.6,0.594-0.6,0.594c-0.664,0.604-1.046,1.278-1.196,1.947c-0.151,0.668-0.065,1.341,0.226,2.042     c0.302,0.727,0.725,1.289,1.254,1.698c0.528,0.406,1.158,0.648,1.919,0.812c1.478,0.293,2.983,0.307,4.635,0.024     c0,0,0.616-0.132,1.562-0.231c0.939-0.137,2.215-0.186,3.501-0.223c1.285,0.035,2.561,0.085,3.501,0.221     c0.469,0.071,0.867,0.089,1.136,0.149c0.271,0.051,0.426,0.081,0.426,0.081c1.678,0.288,3.158,0.268,4.666-0.016     c0.745-0.169,1.367-0.414,1.892-0.822c0.524-0.41,0.947-0.973,1.249-1.7c0.291-0.701,0.376-1.375,0.229-2.041     c-0.145-0.667-0.519-1.338-1.163-1.935c0,0-0.243-0.238-0.606-0.596c-0.369-0.355-0.886-0.782-1.409-1.246     c-0.523-0.464-1.083-0.855-1.5-1.191c-0.418-0.334-0.71-0.528-0.71-0.528c-0.77-0.509-1.335-1.119-1.699-1.731     c-0.363-0.614-0.513-1.299-0.415-2.052c0.2-1.544,1.03-3.043,2.633-4.285c0,0,0.31-0.235,0.774-0.588     c0.471-0.359,1.11-0.82,1.763-1.245c0.655-0.435,1.331-0.866,1.849-1.188c0.518-0.323,0.865-0.509,0.865-0.509     s1.382-0.82,2.865-1.585c1.46-0.728,3.026-1.421,3.026-1.421s0.389-0.163,0.98-0.389c0.592-0.228,1.394-0.527,2.216-0.817     c0.825-0.298,1.644-0.526,2.278-0.719c0.636-0.183,1.061-0.305,1.061-0.305c1.135-0.345,2.18-0.413,3.172-0.344     c0.995,0.065,1.886,0.365,2.685,0.826c0.399,0.23,0.775,0.501,1.123,0.813c0.338,0.328,0.649,0.696,0.931,1.103     c0.564,0.811,1.011,1.772,1.282,2.921c0,0,0.107,0.427,0.267,1.067c0.157,0.636,0.356,1.475,0.51,2.337     c0.162,0.854,0.305,1.695,0.405,2.319c0.052,0.31,0.086,0.575,0.109,0.762c0.023,0.185,0.036,0.291,0.036,0.291     s0.196,1.688,0.287,3.327c0.075,1.672,0.071,3.267,0.071,3.267s-0.017,1.643-0.106,3.202c-0.109,1.591-0.312,3.118-0.312,3.118     c-0.297,2.035-1.143,3.479-2.385,4.432c-0.602,0.462-1.273,0.679-1.993,0.678c-0.362,0.001-0.728-0.06-1.119-0.163     c-0.399-0.096-0.811-0.244-1.233-0.444c0,0-0.317-0.155-0.803-0.364c-0.488-0.193-1.139-0.451-1.789-0.709     c-0.654-0.218-1.307-0.436-1.797-0.599c-0.494-0.137-0.823-0.229-0.823-0.229c-0.431-0.121-0.831-0.189-1.202-0.203     c-0.38-0.004-0.738,0.054-1.064,0.156c-0.654,0.207-1.198,0.618-1.66,1.22c-0.479,0.624-0.753,1.271-0.842,1.929     c-0.045,0.33-0.039,0.658,0.005,0.997c0.036,0.35,0.115,0.704,0.24,1.061c0.503,1.475,1.272,2.752,2.364,4.078     c0,0,0.026,0.03,0.076,0.085c0.052,0.053,0.122,0.138,0.203,0.25c0.168,0.221,0.411,0.535,0.713,0.903     c0.274,0.389,0.593,0.842,0.936,1.328c0.305,0.509,0.682,1.021,0.973,1.582c0.66,1.08,1.166,2.236,1.562,3.092     c0.349,0.876,0.581,1.459,0.581,1.459c0.571,1.572,1.293,2.879,2.329,4.006c0.473,0.589,1.058,1.004,1.663,1.262     c0.606,0.258,1.298,0.345,2.079,0.243c0.752-0.098,1.385-0.362,1.9-0.829c0.516-0.467,0.848-1.125,1.089-2.012     c0,0,0.023-0.082,0.064-0.224c0.032-0.142,0.078-0.345,0.133-0.589c0.099-0.487,0.285-1.162,0.387-1.832     c0.104-0.669,0.236-1.365,0.295-1.882c0.054-0.52,0.09-0.867,0.09-0.867c0.104-0.936,0.292-1.708,0.653-2.332     c0.363-0.624,0.888-1.098,1.589-1.389c1.453-0.603,3.092-0.616,5.032,0.14c0,0,1.403,0.591,2.849,1.286     c1.404,0.697,2.815,1.509,2.815,1.509s0.369,0.192,0.884,0.505c0.517,0.312,1.21,0.74,1.909,1.191     c0.708,0.447,1.391,0.922,1.891,1.292c0.508,0.373,0.847,0.622,0.847,0.622s1.368,1.004,2.64,2.134     c0.647,0.56,1.3,1.141,1.783,1.588c0.465,0.454,0.776,0.756,0.776,0.756c0.822,0.846,1.494,1.728,1.896,2.63     c0.406,0.902,0.618,1.821,0.639,2.741h18.416c-0.02-1.182-0.242-2.365-0.66-3.531     C1542.632,1340.443,1541.943,1339.291,1541.103,1338.173z"
/>
<path
   style="fill:#FFA227;"
   d="M1528.719,1383.777c-1.131,2.008-1.151,3.337,0.189,4.202c1.258,0.812,2.613,0.257,3.822-1.884     c1.198-2.043,1.029-3.485-0.314-4.177C1531.011,1381.194,1529.844,1381.863,1528.719,1383.777z"
/>
<path
   style="fill:#FFA227;"
   d="M1461.786,1422.449c-2.225-0.04-3.366,0.688-3.44,2.263c-0.072,1.513,1.069,2.329,3.441,2.37     c2.372-0.043,3.512-0.857,3.44-2.371C1465.153,1423.136,1464.012,1422.407,1461.786,1422.449z"
/>
<path
   style="fill:#FFA227;"
   d="M1394.833,1383.814c-1.132-1.929-2.294-2.581-3.698-1.856c-1.343,0.693-1.518,2.118-0.312,4.177     c1.174,2.078,2.517,2.621,3.776,1.809C1395.939,1387.079,1395.931,1385.764,1394.833,1383.814z"
/>
<path
   style="fill:#FFA227;"
   d="M1394.833,1306.467c1.098-1.95,1.106-3.265-0.234-4.129c-1.259-0.812-2.602-0.27-3.776,1.808     c-1.207,2.059-1.032,3.484,0.312,4.177C1392.539,1309.048,1393.7,1308.396,1394.833,1306.467z"
/>
<path
   style="fill:#FFA227;"
   d="M1461.786,1267.832c2.208,0.042,3.366-0.687,3.441-2.262c0.073-1.514-1.085-2.328-3.439-2.371     c-2.443,0.042-3.601,0.859-3.527,2.372C1458.336,1267.146,1459.494,1267.873,1461.786,1267.832z"
/>
<path
   style="fill:#FFA227;"
   d="M1528.677,1306.43c1.167,1.987,2.334,2.656,3.739,1.931c1.343-0.692,1.512-2.133,0.269-4.254     c-1.165-2.063-2.52-2.619-3.778-1.806C1527.568,1303.166,1527.587,1304.495,1528.677,1306.43z"
/>
<path
   style="fill:#FFA227;"
   d="M1506.934,1345.14L1506.934,1345.14l-4.632,0v0c-0.04,1.176,0.723,1.796,2.238,1.867     C1506.114,1347.082,1506.894,1346.463,1506.934,1345.14z"
/>
<path
   style="fill:#FFA227;"
   d="M1482.011,1380.251c-1.003,0.6-1.179,1.524-0.482,2.876c0.72,1.397,1.668,1.808,2.801,1.134     c1.154-0.636,1.259-1.684,0.414-2.995C1483.915,1379.977,1483.037,1379.69,1482.011,1380.251z"
/>
<path
   style="fill:#FFA227;"
   d="M1441.501,1380.24c-1.018-0.556-1.903-0.276-2.734,1.013c-0.845,1.309-0.734,2.365,0.413,2.995     c1.167,0.694,2.124,0.285,2.843-1.111C1442.719,1381.785,1442.535,1380.858,1441.501,1380.24z"
/>
<path
   style="fill:#FFA227;"
   d="M1421.23,1345.163c0.038-1.211-0.723-1.84-2.238-1.913c-1.573-0.075-2.356,0.554-2.394,1.916     c0.04,1.313,0.82,1.942,2.394,1.866C1420.506,1346.958,1421.269,1346.329,1421.23,1345.163z"
/>
<path
   style="fill:#FFA227;"
   d="M1441.501,1310.041c1.004-0.599,1.177-1.526,0.48-2.876c-0.722-1.397-1.669-1.806-2.802-1.132     c-1.155,0.636-1.258,1.687-0.413,2.995C1439.598,1310.317,1440.475,1310.601,1441.501,1310.041z"
/>
<path
   style="fill:#FFA227;"
   d="M1482.011,1310.03c1.026,0.561,1.904,0.274,2.733-1.015c0.845-1.311,0.74-2.359-0.414-2.995     c-1.133-0.674-2.081-0.262-2.801,1.134C1480.832,1308.506,1481.008,1309.43,1482.011,1310.03z"
/>
<path
   style="fill:#FFA227;"
   d="M1504.54,1343.273c-1.515,0.072-2.277,0.692-2.238,1.867h4.632     C1506.894,1343.818,1506.114,1343.198,1504.54,1343.273z"
/>
<polygon
   style="fill:#FFA227;"
   points="1461.971,1322.02 1470.936,1331.456 1483.591,1334.502 1479.901,1346.984     1483.591,1359.466 1470.936,1362.512 1461.971,1371.948 1453.006,1362.512 1440.351,1359.466 1444.041,1346.984     1440.351,1334.502 1453.006,1331.456   "
/>
<polygon
   style="fill:#75CBEA;"
   points="1461.971,1329.592 1468.217,1336.166 1477.033,1338.288 1474.463,1346.984     1477.033,1355.68 1468.217,1357.802 1461.971,1364.376 1455.725,1357.802 1446.909,1355.68 1449.479,1346.984 1446.909,1338.288     1455.725,1336.166   "
/>
<path
   style="fill:#A81C1C;"
   d="M1464.953,1347.469c0,1.828-1.482,3.31-3.311,3.31c-1.828,0-3.311-1.482-3.311-3.31    c0-1.828,1.482-3.311,3.311-3.311C1463.471,1344.158,1464.953,1345.64,1464.953,1347.469z"
/>
</g>
</svg>
