<?xml version="1.0" encoding="UTF-8" standalone="no"?>
<svg
  version="1.1"
  viewBox="1250 100 400 400"
  xmlns="http://www.w3.org/2000/svg">
<g fill="none">
<path
   style="fill:#00BF33;"
   d="M1350.889,420.494c0,0-0.065-0.586-0.163-1.466c-0.091-0.882-0.225-2.027-0.296-3.223      c-0.167-2.368-0.271-4.686-0.271-4.686l8.895-10.275c0,0,2.222-0.343,4.38-0.738c1.07-0.183,2.177-0.436,2.985-0.612      c0.809-0.183,1.348-0.305,1.348-0.305s2.152-0.465,4.236-0.977c1.043-0.253,2.07-0.513,2.862-0.749      c0.78-0.227,1.299-0.378,1.299-0.378s2.059-0.618,4.048-1.279c0.985-0.336,1.971-0.672,2.71-0.923      c0.742-0.282,1.237-0.47,1.237-0.47c2.673-1.074,4.589-1.181,5.983-0.318c1.38,0.77,2.18,2.53,2.503,5.394      c0,0,0.058,0.537,0.182,1.295c0.128,0.771,0.299,1.799,0.47,2.828c0.36,2.068,0.79,4.178,0.79,4.178s0.113,0.53,0.282,1.326      c0.17,0.804,0.437,1.814,0.704,2.862c0.537,2.08,1.148,4.197,1.148,4.197s0.148,0.533,0.371,1.333      c0.225,0.804,0.534,1.881,0.881,2.912c0.677,2.087,1.429,4.207,1.429,4.207c1.011,2.804,1.207,5.278,0.453,7.404      c-0.754,2.126-2.452,3.893-5.272,5.302c0,0-2.089,1.009-4.253,1.985c-1.085,0.503-2.164,0.946-2.98,1.276      c-0.82,0.331-1.367,0.551-1.367,0.551s-2.214,0.87-4.502,1.702c-1.138,0.41-2.306,0.843-3.164,1.113      c-0.865,0.275-1.442,0.459-1.442,0.459s-2.304,0.76-4.679,1.477c-1.197,0.353-2.393,0.706-3.291,0.97      c-0.91,0.268-1.504,0.407-1.504,0.407c-3.194,0.794-5.931,0.531-8.072-0.693c-2.183-1.334-3.698-3.643-4.515-6.832      c0,0-0.146-0.6-0.366-1.501c-0.192-0.917-0.448-2.139-0.704-3.361c-0.493-2.435-0.914-4.826-0.914-4.826      s-0.111-0.596-0.279-1.489c-0.172-0.88-0.357-2.097-0.529-3.302C1351.172,422.858,1350.889,420.494,1350.889,420.494z       M1361.794,411.764c-1.353,1.789-1.953,4.256-1.551,7.35c0,0,0.315,2.288,0.697,4.621c0.201,1.172,0.401,2.344,0.552,3.223      c0.178,0.863,0.296,1.439,0.296,1.439c0.651,3.08,1.997,5.282,4.005,6.512c1.972,1.123,4.536,1.288,7.555,0.4      c0,0,0.558-0.152,1.416-0.439c0.845-0.283,1.971-0.661,3.097-1.039c2.234-0.766,4.395-1.571,4.395-1.571      c0.746-0.277,1.419-0.581,2.028-0.922c0.616-0.355,1.163-0.736,1.645-1.145c0.964-0.816,1.667-1.739,2.135-2.766      c0.468-1.026,0.7-2.153,0.709-3.378c0.004-0.612-0.047-1.249-0.153-1.91c-0.099-0.675-0.247-1.383-0.448-2.115      c0,0-0.555-2.194-1.037-4.348c-0.232-1.072-0.463-2.144-0.637-2.948c-0.17-0.791-0.258-1.35-0.258-1.35      c-0.402-2.162-1.051-3.748-2.004-4.773c-0.318-0.342-0.669-0.621-1.056-0.839c-0.403-0.224-0.815-0.426-1.277-0.545      c-1.376-0.372-3.078-0.195-5.169,0.472c0,0-0.529,0.172-1.321,0.43c-0.789,0.227-1.842,0.53-2.894,0.834      c-2.123,0.595-4.315,1.143-4.315,1.143C1365.279,408.835,1363.163,409.954,1361.794,411.764z"
/>
<path
   style="fill:#00BF33;"
   d="M1464.405,452.714c0,0-0.093,0.119-0.255,0.328c-0.162,0.212-0.397,0.503-0.681,0.843      c-0.578,0.687-1.348,1.603-2.118,2.52c-1.562,1.834-3.208,3.669-3.208,3.669s-0.407,0.464-1.018,1.159      c-0.615,0.701-1.448,1.566-2.297,2.462c-1.693,1.778-3.469,3.553-3.469,3.553c-2.37,2.388-4.87,3.444-7.429,3.416      c-1.232-0.017-2.465-0.313-3.676-0.898c-1.209-0.633-2.397-1.551-3.545-2.753c0,0-1.719-1.82-3.355-3.64      c-0.822-0.896-1.622-1.844-2.214-2.559c-0.589-0.711-0.981-1.185-0.981-1.185s-1.586-1.877-3.09-3.749      c-0.754-0.939-1.494-1.864-2.038-2.579c-0.538-0.729-0.896-1.215-0.896-1.215s-1.406-1.941-2.733-3.872      c-1.335-1.932-2.59-3.852-2.59-3.852c-1.651-2.733-2.167-5.157-1.696-7.363c0.471-2.207,1.927-4.182,4.248-5.985      c0,0,1.759-1.444,3.437-2.9c1.686-1.455,3.292-2.919,3.292-2.919s0.403-0.36,1.008-0.901c0.603-0.555,1.4-1.327,2.179-2.085      c1.564-1.524,3.046-3.052,3.046-3.052s0.365-0.383,0.912-0.956c0.543-0.569,1.257-1.335,1.958-2.153      c1.406-1.608,2.73-3.216,2.73-3.216c0.89-1.108,1.737-1.919,2.559-2.438c0.823-0.568,1.621-0.847,2.411-0.838      c1.641,0.013,3.216,1.222,4.923,3.436c0,0,1.271,1.638,2.625,3.28c0.674,0.813,1.366,1.659,1.89,2.241      c0.528,0.587,0.879,0.979,0.879,0.979s1.431,1.565,2.945,3.129c0.768,0.781,1.536,1.562,2.112,2.148      c0.293,0.296,0.538,0.535,0.71,0.693c0.172,0.162,0.27,0.255,0.27,0.255s1.557,1.507,3.198,3.007      c1.632,1.501,3.346,2.991,3.346,2.991c2.27,1.889,3.666,3.888,4.075,6.113c0.407,2.214-0.174,4.639-1.908,7.303      c0,0-1.311,1.887-2.704,3.784C1465.871,450.811,1464.405,452.714,1464.405,452.714z M1459.715,439.516      c-0.212-2.246-1.43-4.389-3.525-6.468c0,0-0.389-0.394-0.973-0.986c-0.579-0.586-1.346-1.438-2.095-2.258      c-1.503-1.655-2.922-3.311-2.922-3.311c-1.902-2.124-3.676-3.332-5.521-3.348c-0.889-0.011-1.785,0.266-2.707,0.819      c-0.92,0.504-1.864,1.29-2.85,2.35c0,0-1.472,1.62-3.026,3.238c-0.776,0.823-1.564,1.593-2.162,2.165      c-0.602,0.576-1.004,0.961-1.004,0.961c-2.218,2.018-3.518,4.125-3.798,6.364s0.458,4.595,2.406,7.154      c0,0,0.357,0.465,0.892,1.163c0.538,0.702,1.267,1.633,2.016,2.512c1.492,1.787,3.064,3.577,3.064,3.577      c1.049,1.196,2.139,2.109,3.25,2.738c1.113,0.581,2.247,0.875,3.381,0.89c2.354,0.025,4.657-1.03,6.828-3.413      c0,0,1.628-1.75,3.175-3.499c0.775-0.882,1.536-1.732,2.096-2.421c0.556-0.684,0.927-1.14,0.927-1.14      C1459.132,444.099,1459.927,441.763,1459.715,439.516z"
/>
<path
   style="fill:#00BF33;"
   d="M1494.88,438.784c-2.847-1.475-4.512-3.288-5.208-5.434c-0.696-2.146-0.416-4.614,0.73-7.397      c0,0,0.814-2.087,1.547-4.153c0.718-2.132,1.359-4.231,1.359-4.231s0.657-2.083,1.241-4.131      c0.301-1.009,0.552-2.094,0.749-2.869c0.189-0.783,0.315-1.306,0.315-1.306s0.512-2.093,0.951-4.146      c0.108-0.512,0.216-1.024,0.317-1.504c0.089-0.491,0.172-0.95,0.244-1.343c0.134-0.784,0.224-1.306,0.224-1.306      c0.208-1.418,0.525-2.557,0.969-3.43c0.445-0.871,1.019-1.474,1.699-1.894c1.372-0.818,3.333-0.584,5.996,0.501      c0,0,1.436,0.581,3.673,1.408c1.119,0.414,2.44,0.887,3.883,1.38c1.428,0.472,2.949,0.922,4.512,1.375      c1.559,0.448,3.146,0.879,4.656,1.268c1.494,0.368,2.886,0.662,4.105,0.922c2.432,0.51,4.103,0.813,4.103,0.813      c1.484,0.286,2.759,0.664,3.853,1.195c1.098,0.535,2.017,1.225,2.748,2.084c0.731,0.859,1.271,1.885,1.611,3.095      c0.343,1.215,0.482,2.612,0.368,4.164c0,0-0.201,2.311-0.468,4.67c-0.142,1.186-0.284,2.372-0.39,3.261      c-0.054,0.451-0.112,0.815-0.152,1.07c-0.04,0.256-0.063,0.402-0.063,0.402s-0.347,2.326-0.763,4.697      c-0.409,2.366-0.886,4.775-0.886,4.775s-0.499,2.362-1.07,4.765c-0.564,2.398-1.2,4.835-1.2,4.835      c-0.943,3.237-2.565,5.423-4.706,6.671c-1.065,0.635-2.299,0.956-3.656,1.023c-1.354,0.07-2.832-0.117-4.42-0.568      c0,0-0.446-0.128-1.226-0.352c-0.776-0.223-1.88-0.545-3.213-0.996c-2.662-0.887-6.111-2.064-9.466-3.392      c-3.385-1.379-6.634-2.812-9.014-3.927C1496.427,439.595,1494.88,438.784,1494.88,438.784z M1501.171,429.06      c0.439,1.035,1.122,1.99,2.05,2.824c0.924,0.827,2.098,1.55,3.539,2.169c0,0,2.161,0.869,4.396,1.701      c0.561,0.207,1.121,0.414,1.647,0.608c0.524,0.177,1.013,0.342,1.432,0.484c0.845,0.277,1.408,0.461,1.408,0.461      c1.501,0.496,2.891,0.727,4.159,0.703c1.27-0.021,2.419-0.296,3.398-0.883c1.97-1.152,3.423-3.239,4.194-6.37      c0,0,0.523-2.342,0.975-4.643c0.459-2.305,0.85-4.568,0.85-4.568c0.434-3.163-0.051-5.591-1.358-7.43      c-1.307-1.839-3.429-3.077-6.275-3.814c0,0-2.185-0.627-4.301-1.297c-2.123-0.666-4.174-1.374-4.174-1.374      c-2.79-0.907-4.921-1.042-6.464-0.128c-0.765,0.468-1.425,1.118-1.961,2.025c-0.535,0.91-0.949,2.075-1.263,3.499      c0,0-0.12,0.544-0.3,1.359c-0.094,0.409-0.205,0.886-0.323,1.397c-0.13,0.5-0.269,1.033-0.408,1.565      c-0.564,2.136-1.203,4.309-1.203,4.309c-0.413,1.43-0.634,2.768-0.642,4.007C1500.533,426.898,1500.729,428.018,1501.171,429.06      z"
/>
<path
   style="fill:#00BF33;"
   d="M1557.91,395.991c-3.143,0.085-5.484-0.649-7.161-2.166c-1.669-1.51-2.664-3.794-3.113-6.73      c0,0-0.173-1.101-0.433-2.751c-0.137-0.82-0.294-1.764-0.485-2.776c-0.21-1.028-0.441-2.114-0.682-3.188      c-0.479-2.15-0.997-4.246-1.402-5.793c-0.431-1.567-0.755-2.604-0.755-2.604s-0.609-2.073-1.26-4.075      c-0.326-1.004-0.655-1.99-0.913-2.728c-0.279-0.747-0.465-1.245-0.465-1.245c-1.081-2.661-1.189-4.578-0.35-5.93      c0.775-1.39,2.536-2.191,5.393-2.502c0,0,0.132-0.018,0.362-0.048c0.234-0.029,0.555-0.079,0.938-0.142      c0.774-0.133,1.806-0.311,2.837-0.489c2.075-0.374,4.193-0.82,4.193-0.82s0.266-0.055,0.73-0.15      c0.466-0.096,1.138-0.234,1.907-0.428c1.555-0.377,3.649-0.915,5.772-1.512c1.058-0.299,2.135-0.606,3.127-0.914      c0.977-0.327,1.888-0.632,2.67-0.893c1.577-0.555,2.628-0.926,2.628-0.926c2.798-0.999,5.281-1.208,7.403-0.457      c2.131,0.755,3.889,2.466,5.306,5.271c0,0,1.002,2.107,1.971,4.29c0.5,1.095,0.939,2.183,1.265,3.006      c0.328,0.828,0.546,1.38,0.546,1.38s0.436,1.117,1.089,2.792c0.63,1.682,1.532,3.997,2.242,6.296      c0.744,2.311,1.454,4.679,1.971,6.481c0.255,0.906,0.468,1.66,0.617,2.189c0.132,0.525,0.207,0.825,0.207,0.825      c0.802,3.178,0.54,5.916-0.693,8.073c-1.296,2.119-3.604,3.635-6.783,4.437c0,0-0.3,0.076-0.825,0.209      c-0.518,0.136-1.283,0.31-2.202,0.507c-1.834,0.398-4.26,0.894-6.65,1.334c-2.368,0.461-4.802,0.79-6.598,1.021      c-1.786,0.219-2.977,0.364-2.977,0.364s-0.59,0.069-1.475,0.174c-0.888,0.096-2.037,0.241-3.24,0.319      C1560.24,395.873,1557.91,395.991,1557.91,395.991z M1558.557,384.357c1.788,1.353,4.257,1.953,7.351,1.552      c0,0,2.299-0.331,4.645-0.731c1.17-0.199,2.354-0.408,3.238-0.577c0.867-0.185,1.446-0.308,1.446-0.308      c3.071-0.636,5.273-1.984,6.468-3.933c1.131-1.986,1.296-4.55,0.4-7.555c0,0-0.041-0.142-0.113-0.391      c-0.068-0.246-0.18-0.605-0.319-1.036c-0.28-0.852-0.653-1.987-1.026-3.122c-0.757-2.252-1.553-4.43-1.553-4.43      c-0.285-0.731-0.593-1.392-0.941-1.993c-0.359-0.606-0.744-1.146-1.154-1.623c-0.821-0.953-1.746-1.653-2.772-2.121      c-1.026-0.468-2.151-0.704-3.371-0.723c-0.61-0.01-1.244,0.035-1.901,0.132c-0.669,0.091-1.373,0.229-2.098,0.417      c0,0-2.202,0.572-4.365,1.07c-1.076,0.24-2.152,0.479-2.959,0.659c-0.399,0.087-0.734,0.155-0.978,0.198      c-0.24,0.044-0.377,0.069-0.377,0.069c-2.876,0.524-4.735,1.499-5.612,3.06c-0.941,1.523-0.939,3.609-0.037,6.387      c0,0,0.17,0.532,0.424,1.33c0.234,0.789,0.53,1.843,0.822,2.915c0.584,2.137,1.122,4.344,1.122,4.344      C1555.628,380.872,1556.746,382.987,1558.557,384.357z"
/>
<path
   style="fill:#00BF33;"
   d="M1591.164,327.346l-13.348-2.553c1.801,2.321,3.777,3.777,5.984,4.248      C1586.006,329.512,1588.429,328.996,1591.164,327.346z"
/>
<path
   style="fill:#75CBEA;"
   d="M1360.243,419.115c-0.402-3.095,0.198-5.561,1.551-7.35c1.369-1.81,3.485-2.93,6.41-3.664      c0,0,2.192-0.548,4.315-1.143c1.052-0.303,2.105-0.606,2.894-0.834c0.793-0.258,1.321-0.43,1.321-0.43      c2.091-0.667,3.793-0.844,5.169-0.472c0.462,0.118,0.874,0.321,1.277,0.545c0.387,0.218,0.739,0.497,1.056,0.839      c0.953,1.025,1.601,2.612,2.004,4.773c0,0,0.088,0.56,0.258,1.35c0.174,0.804,0.405,1.876,0.637,2.948      c0.482,2.155,1.037,4.348,1.037,4.348c0.201,0.732,0.349,1.44,0.448,2.115c0.106,0.661,0.157,1.298,0.153,1.91      c-0.009,1.224-0.24,2.351-0.709,3.378c-0.468,1.026-1.171,1.949-2.135,2.766c-0.482,0.408-1.029,0.79-1.645,1.145      c-0.609,0.341-1.282,0.645-2.028,0.922c0,0-2.161,0.805-4.395,1.571c-1.126,0.378-2.252,0.755-3.097,1.039      c-0.857,0.287-1.416,0.439-1.416,0.439c-3.019,0.888-5.583,0.724-7.555-0.4c-2.008-1.23-3.354-3.432-4.005-6.512      c0,0-0.119-0.575-0.296-1.439c-0.151-0.879-0.351-2.051-0.552-3.223C1360.557,421.403,1360.243,419.115,1360.243,419.115z       M1371.838,418.678c-1.201,1.903-0.918,3.432,0.919,4.56c1.807,1.025,3.274,0.569,4.383-1.397      c1.109-1.965,0.79-3.433-0.923-4.402C1374.476,416.369,1373.045,416.764,1371.838,418.678z"
/>
<path
   style="fill:#75CBEA;"
   d="M1456.19,433.048c2.095,2.079,3.313,4.221,3.525,6.468c0.211,2.246-0.583,4.582-2.546,7.087      c0,0-0.371,0.456-0.927,1.14c-0.56,0.689-1.321,1.539-2.096,2.421c-1.546,1.75-3.175,3.499-3.175,3.499      c-2.172,2.383-4.474,3.437-6.828,3.413c-1.134-0.015-2.268-0.309-3.381-0.89c-1.111-0.63-2.201-1.542-3.25-2.738      c0,0-1.573-1.79-3.064-3.577c-0.75-0.879-1.478-1.81-2.016-2.512c-0.535-0.698-0.892-1.163-0.892-1.163      c-1.948-2.56-2.687-4.916-2.406-7.154s1.58-4.346,3.798-6.364c0,0,0.401-0.384,1.004-0.961c0.598-0.572,1.386-1.341,2.162-2.165      c1.554-1.617,3.026-3.238,3.026-3.238c0.985-1.06,1.93-1.845,2.85-2.35c0.921-0.553,1.818-0.83,2.707-0.819      c1.845,0.016,3.619,1.224,5.521,3.348c0,0,1.42,1.656,2.922,3.311c0.748,0.82,1.515,1.672,2.095,2.258      C1455.801,432.654,1456.19,433.048,1456.19,433.048z M1447.538,440.149c-0.02-2.257-1.029-3.389-3.073-3.415      c-1.968-0.025-3.012,1.085-3.102,3.337c-0.09,2.258,0.919,3.388,2.996,3.415      C1446.514,443.513,1447.558,442.406,1447.538,440.149z"
/>
<path
   style="fill:#75CBEA;"
   d="M1506.76,434.054c-1.441-0.619-2.615-1.342-3.539-2.169c-0.927-0.835-1.611-1.789-2.05-2.824      c-0.442-1.042-0.637-2.162-0.626-3.394c0.008-1.24,0.229-2.577,0.642-4.007c0,0,0.639-2.173,1.203-4.309      c0.139-0.533,0.278-1.066,0.408-1.565c0.118-0.511,0.228-0.988,0.323-1.397c0.18-0.816,0.3-1.359,0.3-1.359      c0.314-1.424,0.728-2.589,1.263-3.499c0.536-0.908,1.196-1.558,1.961-2.025c1.543-0.914,3.674-0.779,6.464,0.128      c0,0,2.052,0.708,4.174,1.374c2.115,0.67,4.301,1.297,4.301,1.297c2.846,0.737,4.968,1.975,6.275,3.814      c1.307,1.839,1.793,4.266,1.358,7.43c0,0-0.391,2.263-0.85,4.568c-0.453,2.301-0.975,4.643-0.975,4.643      c-0.771,3.131-2.224,5.218-4.194,6.37c-0.979,0.587-2.128,0.861-3.398,0.883c-1.268,0.024-2.658-0.208-4.159-0.703      c0,0-0.563-0.185-1.408-0.461c-0.419-0.142-0.908-0.307-1.432-0.484c-0.526-0.194-1.086-0.401-1.647-0.608      C1508.921,434.922,1506.76,434.054,1506.76,434.054z M1512.242,423.767c0.529,0.997,1.15,1.625,1.876,1.883      c0.728,0.263,1.556,0.148,2.452-0.387c1.811-1.048,2.14-2.532,0.993-4.475c-1.148-1.943-2.57-2.414-4.287-1.419      c-0.853,0.511-1.379,1.099-1.558,1.817C1511.541,421.909,1511.713,422.77,1512.242,423.767z"
/>
<path
   style="fill:#75CBEA;"
   d="M1565.907,385.909c-3.094,0.401-5.563-0.199-7.351-1.552c-1.811-1.37-2.928-3.485-3.662-6.41      c0,0-0.538-2.207-1.122-4.344c-0.292-1.071-0.588-2.125-0.822-2.915c-0.254-0.798-0.424-1.33-0.424-1.33      c-0.903-2.779-0.904-4.865,0.037-6.387c0.877-1.56,2.737-2.535,5.612-3.06c0,0,0.137-0.025,0.377-0.069      c0.244-0.042,0.579-0.111,0.978-0.198c0.807-0.18,1.883-0.419,2.959-0.659c2.163-0.498,4.365-1.07,4.365-1.07      c0.725-0.188,1.429-0.326,2.098-0.417c0.657-0.097,1.291-0.141,1.901-0.132c1.22,0.019,2.345,0.254,3.371,0.723      c1.026,0.468,1.951,1.168,2.772,2.121c0.411,0.477,0.796,1.017,1.154,1.623c0.347,0.601,0.656,1.262,0.941,1.993      c0,0,0.796,2.178,1.553,4.43c0.373,1.135,0.746,2.27,1.026,3.122c0.139,0.431,0.251,0.79,0.319,1.036      c0.072,0.249,0.113,0.391,0.113,0.391c0.896,3.005,0.732,5.569-0.4,7.555c-1.195,1.949-3.396,3.297-6.468,3.933      c0,0-0.578,0.123-1.446,0.308c-0.884,0.169-2.068,0.378-3.238,0.577C1568.207,385.578,1565.907,385.909,1565.907,385.909z       M1565.513,374.249c1.904,1.2,3.423,0.929,4.519-0.853c1.032-1.82,0.569-3.274-1.396-4.383      c-1.965-1.109-3.426-0.803-4.402,0.923C1563.194,371.624,1563.599,373.043,1565.513,374.249z"
/>
<path
   style="fill:#00BF33;"
   d="M1389.608,156.496c0,0,2.181,0.945,4.287,1.923c2.138,1.04,4.202,2.115,4.202,2.115l4.474,12.832      c0,0-0.813,2.088-1.548,4.151c-0.718,2.132-1.36,4.231-1.36,4.231s-0.674,2.09-1.273,4.144      c-0.309,1.012-0.567,2.102-0.769,2.879c-0.194,0.786-0.324,1.31-0.324,1.31s-0.496,2.086-0.922,4.132      c-0.218,1.017-0.415,2.042-0.542,2.837c-0.129,0.781-0.215,1.302-0.215,1.302c-0.208,1.419-0.528,2.558-0.98,3.436      c-0.453,0.875-1.04,1.485-1.741,1.918c-1.362,0.812-3.322,0.579-5.945-0.533c0,0-1.916-0.766-3.904-1.494      c-1.981-0.732-4.032-1.424-4.032-1.424s-2.018-0.627-4.105-1.212c-2.08-0.588-4.229-1.132-4.229-1.132s-0.134-0.036-0.369-0.098      c-0.236-0.064-0.572-0.151-0.967-0.242c-0.802-0.183-1.872-0.426-2.943-0.669c-2.157-0.475-4.38-0.9-4.38-0.9      c-0.736-0.136-1.433-0.311-2.075-0.51c-0.636-0.191-1.23-0.42-1.778-0.687c-1.097-0.535-2.016-1.226-2.747-2.085      c-0.731-0.86-1.271-1.885-1.61-3.096c-0.17-0.605-0.289-1.257-0.357-1.958c-0.062-0.694-0.061-1.422-0.01-2.205      c0,0,0.186-2.298,0.436-4.645c0.134-1.18,0.268-2.359,0.368-3.244c0.051-0.448,0.104-0.812,0.143-1.065      c0.038-0.254,0.06-0.4,0.06-0.4s0.364-2.338,0.797-4.721c0.426-2.378,0.922-4.799,0.922-4.799s0.5-2.362,1.071-4.765      c0.564-2.399,1.201-4.836,1.201-4.836c0.882-3.198,2.501-5.385,4.627-6.623c1.097-0.654,2.353-0.986,3.721-1.059      c1.367-0.076,2.848,0.109,4.436,0.56c0,0,0.594,0.175,1.485,0.438c0.882,0.254,2.068,0.636,3.248,1.043      c2.357,0.796,4.643,1.633,4.643,1.633s0.572,0.203,1.431,0.507c0.86,0.316,1.976,0.694,3.115,1.165      C1387.415,155.555,1389.608,156.496,1389.608,156.496z M1391.733,170.285c-0.439-1.035-1.12-1.992-2.044-2.825      c-0.922-0.828-2.097-1.551-3.546-2.166c0,0-2.143-0.877-4.359-1.717c-1.109-0.428-2.225-0.833-3.054-1.104      c-0.838-0.28-1.397-0.467-1.397-0.467c-1.5-0.496-2.894-0.726-4.173-0.696c-1.281,0.027-2.449,0.311-3.458,0.916      c-1.956,1.143-3.406,3.231-4.121,6.326c0,0-0.523,2.342-0.976,4.643c-0.46,2.305-0.851,4.568-0.851,4.568      c-0.488,3.198-0.013,5.636,1.294,7.474c1.308,1.839,3.442,3.066,6.336,3.772c0,0,2.185,0.628,4.3,1.298      c2.122,0.667,4.174,1.375,4.174,1.375c2.05,0.691,3.779,0.966,5.144,0.651c0.457-0.101,0.878-0.263,1.262-0.487      c0.402-0.226,0.754-0.538,1.094-0.867c1.016-0.998,1.718-2.554,2.19-4.69c0,0,0.116-0.542,0.291-1.354      c0.172-0.826,0.43-1.893,0.71-2.951c0.548-2.129,1.17-4.294,1.17-4.294c0.42-1.433,0.641-2.77,0.646-4.009      C1392.374,172.444,1392.175,171.328,1391.733,170.285z"
/>
<path
   style="fill:#00BF33;"
   d="M1304.982,238.7c0,0-0.87-2.214-1.702-4.502c-0.41-1.138-0.842-2.305-1.115-3.164      c-0.275-0.865-0.459-1.442-0.459-1.442s-0.76-2.303-1.477-4.678c-0.353-1.197-0.706-2.393-0.971-3.291      c-0.268-0.91-0.408-1.504-0.408-1.504c-0.794-3.194-0.532-5.931,0.739-8.153c1.29-2.101,3.594-3.618,6.784-4.435      c0,0,0.6-0.146,1.501-0.366c0.917-0.192,2.139-0.448,3.361-0.704c2.435-0.493,4.827-0.915,4.827-0.915s0.596-0.111,1.489-0.279      c0.88-0.172,2.096-0.358,3.302-0.53c2.411-0.351,4.775-0.635,4.775-0.635s0.587-0.065,1.467-0.163      c0.883-0.09,2.027-0.226,3.222-0.297c2.369-0.168,4.687-0.271,4.687-0.271c3.152-0.098,5.485,0.65,7.16,2.164      c1.673,1.512,2.675,3.783,3.116,6.729c0,0,0.343,2.222,0.738,4.38c0.183,1.07,0.438,2.178,0.613,2.986      c0.183,0.809,0.305,1.348,0.305,1.348s0.465,2.152,0.977,4.236c0.253,1.042,0.514,2.071,0.75,2.862      c0.227,0.78,0.378,1.299,0.378,1.299s0.619,2.059,1.279,4.048c0.33,0.997,0.665,1.978,0.924,2.71      c0.282,0.742,0.47,1.237,0.47,1.237c1.074,2.672,1.184,4.59,0.348,5.93c-0.799,1.432-2.559,2.233-5.423,2.555      c0,0-0.536,0.058-1.294,0.183c-0.771,0.128-1.8,0.299-2.828,0.47c-2.068,0.36-4.178,0.791-4.178,0.791s-0.53,0.113-1.326,0.283      c-0.803,0.171-1.813,0.438-2.861,0.705c-2.08,0.537-4.198,1.148-4.198,1.148s-0.533,0.148-1.333,0.371      c-0.805,0.225-1.88,0.535-2.911,0.882c-2.087,0.677-4.207,1.43-4.207,1.43c-2.804,1.012-5.278,1.208-7.404,0.454      c-2.128-0.754-3.894-2.451-5.303-5.272c0,0-1.009-2.089-1.985-4.252c-0.503-1.085-0.948-2.164-1.277-2.98      C1305.202,239.246,1304.982,238.7,1304.982,238.7z M1318.73,241.207c1.026,0.469,2.151,0.704,3.371,0.724      c0.61,0.01,1.244-0.035,1.901-0.131c0.672-0.089,1.374-0.228,2.099-0.416c0,0,2.194-0.555,4.349-1.038      c1.072-0.232,2.144-0.463,2.948-0.637c0.791-0.17,1.349-0.258,1.349-0.258c2.883-0.537,4.742-1.511,5.646-3.119      c0.937-1.509,0.933-3.596,0.039-6.387c0,0-0.172-0.529-0.43-1.321c-0.235-0.783-0.538-1.831-0.835-2.895      c-0.594-2.123-1.143-4.314-1.143-4.314c-0.702-2.973-1.807-5.1-3.618-6.47c-1.787-1.353-4.267-1.944-7.397-1.489      c0,0-2.288,0.315-4.621,0.698c-1.172,0.201-2.343,0.402-3.222,0.553c-0.863,0.178-1.439,0.296-1.439,0.296      c-3.081,0.65-5.28,1.999-6.469,3.931c-1.166,2.047-1.33,4.61-0.442,7.629c0,0,0.153,0.559,0.44,1.416      c0.283,0.844,0.661,1.97,1.039,3.096c0.766,2.233,1.571,4.394,1.571,4.394c0.284,0.731,0.595,1.393,0.939,1.993      c0.359,0.606,0.744,1.146,1.154,1.623C1316.78,240.038,1317.704,240.738,1318.73,241.207z"
/>
<path
   style="fill:#00BF33;"
   d="M1301.769,272.025c2.745-1.715,5.173-2.244,7.379-1.772c2.207,0.472,4.177,1.944,5.969,4.322      c0,0,1.444,1.758,2.9,3.437c1.455,1.686,2.919,3.292,2.919,3.292s0.361,0.399,0.902,0.997c0.557,0.596,1.328,1.385,2.088,2.156      c1.526,1.547,3.056,3.014,3.056,3.014s0.382,0.369,0.955,0.922c0.57,0.549,1.331,1.271,2.15,1.981      c1.607,1.422,3.214,2.762,3.214,2.762c1.108,0.89,1.92,1.734,2.439,2.554c0.569,0.822,0.847,1.62,0.838,2.416      c-0.011,1.593-1.224,3.168-3.435,4.923c0,0-1.234,0.949-3.088,2.468c-1.901,1.52-4.217,3.622-6.582,5.877      c-2.404,2.251-4.604,4.629-6.275,6.483c-1.67,1.852-2.776,3.149-2.776,3.149c-1.888,2.27-3.887,3.667-6.111,4.077      c-2.214,0.408-4.638-0.174-7.304-1.907c0,0-1.89-1.331-3.789-2.744c-1.899-1.405-3.805-2.893-3.805-2.893      s-0.49-0.363-1.166-0.924c-0.686-0.57-1.602-1.33-2.517-2.09c-1.832-1.541-3.665-3.165-3.665-3.165s-0.464-0.407-1.159-1.018      c-0.703-0.615-1.566-1.448-2.463-2.297c-1.778-1.693-3.553-3.469-3.553-3.469c-2.391-2.443-3.443-4.945-3.417-7.428      c0.016-1.241,0.314-2.474,0.897-3.683c0.633-1.207,1.55-2.391,2.752-3.538c0,0,1.354-1.305,3.387-3.167      c0.997-0.933,2.231-1.994,3.561-3.101c1.323-1.108,2.734-2.26,4.142-3.38c0.704-0.552,1.407-1.105,2.1-1.649      c0.692-0.536,1.421-1.049,2.099-1.543c1.369-0.986,2.644-1.878,3.735-2.627C1300.324,272.962,1301.769,272.025,1301.769,272.025      z M1307.092,282.348c-2.239-0.28-4.595,0.46-7.146,2.328c0,0-0.466,0.362-1.164,0.904c-0.702,0.546-1.637,1.284-2.517,2.044      c-1.788,1.512-3.58,3.106-3.58,3.106c-1.196,1.049-2.108,2.135-2.738,3.244c-0.579,1.111-0.875,2.245-0.889,3.387      c-0.022,2.285,1.028,4.589,3.414,6.828c0,0,1.75,1.628,3.499,3.174c0.883,0.775,1.731,1.536,2.422,2.096      c0.684,0.556,1.14,0.927,1.14,0.927c2.504,1.962,4.84,2.757,7.087,2.545c2.246-0.212,4.389-1.431,6.468-3.526      c0,0,0.394-0.389,0.986-0.973c0.584-0.579,1.438-1.347,2.257-2.095c1.656-1.503,3.311-2.923,3.311-2.923      c2.121-1.956,3.333-3.73,3.347-5.521c0.011-0.895-0.265-1.792-0.82-2.711c-0.505-0.918-1.29-1.859-2.35-2.844      c0,0-1.619-1.489-3.235-3.061c-0.823-0.785-1.589-1.582-2.161-2.187c-0.575-0.609-0.959-1.016-0.959-1.016      C1311.438,283.927,1309.331,282.628,1307.092,282.348z"
/>
<path
   style="fill:#00BF33;"
   d="M1307.332,348.019c1.502-2.77,3.314-4.436,5.46-5.133c2.146-0.696,4.613-0.418,7.373,0.66      c0,0,1.036,0.4,2.591,1c1.519,0.596,3.682,1.297,5.764,1.958c2.106,0.655,4.138,1.271,5.724,1.673      c1.581,0.388,2.635,0.646,2.635,0.646s2.093,0.512,4.146,0.951c0.512,0.108,1.024,0.216,1.504,0.317      c0.491,0.089,0.95,0.172,1.344,0.243c0.783,0.134,1.306,0.223,1.306,0.223c1.415,0.202,2.554,0.519,3.428,0.964      c0.871,0.447,1.477,1.022,1.897,1.703c0.817,1.372,0.586,3.332-0.534,5.944c0,0-0.758,1.929-1.477,3.93      c-0.723,1.994-1.406,4.06-1.406,4.06s-1.286,4.028-2.395,8.333c-0.545,2.133-0.977,4.263-1.317,5.909      c-0.32,1.652-0.534,2.753-0.534,2.753c-0.29,1.478-0.668,2.753-1.198,3.849c-0.533,1.099-1.221,2.021-2.08,2.753      c-0.859,0.731-1.887,1.269-3.099,1.607c-1.216,0.341-2.613,0.481-4.16,0.374c0,0-2.311-0.201-4.67-0.467      c-1.186-0.142-2.372-0.284-3.261-0.39c-0.451-0.054-0.816-0.11-1.07-0.151c-0.256-0.04-0.402-0.063-0.402-0.063      s-4.679-0.691-9.531-1.66c-4.716-1.023-9.589-2.333-9.589-2.333c-3.187-0.867-5.376-2.486-6.622-4.628      c-0.635-1.065-0.96-2.303-1.028-3.662c-0.071-1.357,0.116-2.834,0.571-4.414c0,0,0.347-1.186,0.866-2.965      c0.576-1.789,1.366-4.141,2.186-6.434c0.416-1.135,0.832-2.271,1.222-3.335c0.405-1.057,0.826-2.049,1.171-2.884      c0.707-1.659,1.179-2.765,1.179-2.765s0.937-2.201,1.907-4.326C1306.263,350.102,1307.332,348.019,1307.332,348.019z       M1317.082,354.384c-1.035,0.439-1.991,1.119-2.826,2.044c-0.828,0.922-1.551,2.097-2.166,3.545c0,0-0.869,2.161-1.7,4.396      c-0.207,0.561-0.414,1.122-0.608,1.647c-0.177,0.524-0.341,1.013-0.483,1.432c-0.277,0.845-0.461,1.408-0.461,1.408      c-0.5,1.493-0.731,2.883-0.706,4.153c0.022,1.272,0.3,2.424,0.887,3.404c1.151,1.971,3.24,3.421,6.325,4.122      c0,0,2.353,0.541,4.666,1.011c2.317,0.477,4.59,0.884,4.59,0.884c3.163,0.434,5.59-0.052,7.429-1.359      c1.839-1.308,3.077-3.43,3.813-6.276c0,0,0.617-2.2,1.277-4.33c0.657-2.137,1.356-4.203,1.356-4.203      c0.946-2.732,1.077-4.863,0.165-6.406c-0.468-0.766-1.121-1.427-2.029-1.966c-0.911-0.536-2.075-0.95-3.496-1.258      c0,0-0.544-0.12-1.359-0.3c-0.409-0.094-0.886-0.204-1.397-0.322c-0.5-0.13-1.032-0.269-1.565-0.408      c-2.136-0.564-4.309-1.203-4.309-1.203c-1.433-0.42-2.771-0.641-4.01-0.647C1319.242,353.743,1318.125,353.942,1317.082,354.384      z"
/>
<path
   style="fill:#00BF33;"
   d="M1350.159,411.118l8.895-10.275c-2.947,0.44-5.218,1.443-6.729,3.115      C1350.809,405.634,1350.062,407.966,1350.159,411.118z"
/>
<path
   style="fill:#75CBEA;"
   d="M1386.144,165.294c1.449,0.616,2.623,1.338,3.546,2.166c0.924,0.833,1.605,1.79,2.044,2.825      c0.442,1.043,0.641,2.159,0.633,3.393c-0.006,1.239-0.227,2.576-0.646,4.009c0,0-0.622,2.166-1.17,4.294      c-0.28,1.058-0.537,2.125-0.71,2.951c-0.174,0.813-0.291,1.354-0.291,1.354c-0.472,2.137-1.174,3.692-2.19,4.69      c-0.341,0.329-0.692,0.64-1.094,0.867c-0.385,0.224-0.805,0.386-1.262,0.487c-1.365,0.316-3.093,0.04-5.144-0.651      c0,0-2.051-0.708-4.174-1.375c-2.115-0.671-4.3-1.298-4.3-1.298c-2.894-0.705-5.028-1.932-6.336-3.772      c-1.307-1.838-1.782-4.275-1.294-7.474c0,0,0.391-2.263,0.851-4.568c0.453-2.301,0.976-4.643,0.976-4.643      c0.715-3.095,2.165-5.182,4.121-6.326c1.009-0.605,2.177-0.889,3.458-0.916c1.279-0.03,2.673,0.2,4.173,0.696      c0,0,0.559,0.187,1.397,0.467c0.829,0.271,1.945,0.676,3.054,1.104C1384,164.417,1386.144,165.294,1386.144,165.294z       M1380.731,175.547c-0.528-0.997-1.153-1.624-1.889-1.876c-0.738-0.258-1.583-0.134-2.507,0.417      c-1.798,1.04-2.14,2.532-0.991,4.475c1.148,1.942,2.583,2.407,4.287,1.419c0.879-0.527,1.421-1.123,1.611-1.846      C1381.429,177.406,1381.26,176.543,1380.731,175.547z"
/>
<path
   style="fill:#75CBEA;"
   d="M1326.101,241.383c-0.725,0.188-1.427,0.326-2.099,0.416c-0.657,0.097-1.291,0.141-1.901,0.131      c-1.22-0.019-2.345-0.255-3.371-0.724c-1.026-0.469-1.95-1.169-2.772-2.122c-0.411-0.477-0.795-1.017-1.154-1.623      c-0.344-0.599-0.655-1.262-0.939-1.993c0,0-0.805-2.161-1.571-4.394c-0.378-1.126-0.756-2.252-1.039-3.096      c-0.287-0.857-0.44-1.416-0.44-1.416c-0.888-3.019-0.724-5.583,0.442-7.629c1.188-1.932,3.388-3.281,6.469-3.931      c0,0,0.575-0.119,1.439-0.296c0.879-0.151,2.05-0.352,3.222-0.553c2.333-0.383,4.621-0.698,4.621-0.698      c3.131-0.454,5.61,0.136,7.397,1.489c1.811,1.371,2.916,3.498,3.618,6.47c0,0,0.549,2.192,1.143,4.314      c0.297,1.064,0.599,2.112,0.835,2.895c0.258,0.793,0.43,1.321,0.43,1.321c0.894,2.791,0.898,4.878-0.039,6.387      c-0.903,1.608-2.763,2.582-5.646,3.119c0,0-0.559,0.088-1.349,0.258c-0.804,0.174-1.876,0.406-2.948,0.637      C1328.295,240.828,1326.101,241.383,1326.101,241.383z M1324.285,230.353c1.966,1.108,3.434,0.789,4.44-0.989      c1.035-1.674,0.636-3.107-1.277-4.313c-1.904-1.201-3.43-0.916-4.52,0.851C1321.863,227.777,1322.319,229.244,1324.285,230.353z      "
/>
<path
   style="fill:#75CBEA;"
   d="M1299.946,284.676c2.551-1.868,4.907-2.608,7.146-2.328c2.239,0.28,4.347,1.579,6.372,3.725      c0,0,0.384,0.406,0.959,1.016c0.572,0.605,1.338,1.402,2.161,2.187c1.616,1.572,3.235,3.061,3.235,3.061      c1.06,0.985,1.845,1.926,2.35,2.844c0.555,0.919,0.831,1.816,0.82,2.711c-0.014,1.791-1.226,3.565-3.347,5.521      c0,0-1.656,1.42-3.311,2.923c-0.82,0.748-1.673,1.516-2.257,2.095c-0.591,0.584-0.986,0.973-0.986,0.973      c-2.079,2.095-4.222,3.314-6.468,3.526c-2.246,0.212-4.582-0.583-7.087-2.545c0,0-0.456-0.371-1.14-0.927      c-0.691-0.56-1.54-1.321-2.422-2.096c-1.75-1.546-3.499-3.174-3.499-3.174c-2.386-2.238-3.436-4.543-3.414-6.828      c0.015-1.142,0.31-2.276,0.889-3.387c0.63-1.109,1.542-2.195,2.738-3.244c0,0,1.791-1.594,3.58-3.106      c0.879-0.76,1.815-1.498,2.517-2.044C1299.481,285.037,1299.946,284.676,1299.946,284.676z M1306.062,294.577      c-2.256-0.09-3.387,0.904-3.414,2.996c-0.026,2.093,1.082,3.122,3.338,3.103c2.256-0.019,3.389-1.013,3.414-2.997      C1309.425,295.696,1308.316,294.667,1306.062,294.577z"
/>
<path
   style="fill:#75CBEA;"
   d="M1312.09,359.974c0.615-1.449,1.338-2.623,2.166-3.545c0.834-0.925,1.791-1.605,2.826-2.044      c1.042-0.442,2.16-0.641,3.392-0.632c1.239,0.006,2.577,0.227,4.01,0.647c0,0,2.173,0.639,4.309,1.203      c0.533,0.139,1.066,0.278,1.565,0.408c0.511,0.118,0.988,0.228,1.397,0.322c0.816,0.18,1.359,0.3,1.359,0.3      c1.421,0.308,2.585,0.722,3.496,1.258c0.907,0.538,1.561,1.2,2.029,1.966c0.912,1.543,0.782,3.673-0.165,6.406      c0,0-0.699,2.066-1.356,4.203c-0.661,2.13-1.277,4.33-1.277,4.33c-0.736,2.846-1.974,4.968-3.813,6.276      c-1.839,1.307-4.266,1.793-7.429,1.359c0,0-2.274-0.407-4.59-0.884c-2.312-0.47-4.666-1.011-4.666-1.011      c-3.085-0.702-5.174-2.152-6.325-4.122c-0.587-0.98-0.865-2.132-0.887-3.404c-0.025-1.27,0.207-2.66,0.706-4.153      c0,0,0.185-0.563,0.461-1.408c0.141-0.419,0.306-0.908,0.483-1.432c0.194-0.526,0.401-1.086,0.608-1.647      C1311.221,362.135,1312.09,359.974,1312.09,359.974z M1322.377,365.455c-0.997,0.529-1.625,1.151-1.883,1.876      c-0.129,0.363-0.165,0.751-0.109,1.164c0.064,0.409,0.237,0.835,0.497,1.288c1.047,1.811,2.532,2.139,4.475,0.992      c1.943-1.148,2.414-2.57,1.42-4.286c-0.248-0.431-0.533-0.77-0.835-1.03c-0.294-0.264-0.622-0.44-0.984-0.528      C1324.235,364.753,1323.374,364.926,1322.377,365.455z"
/>
<path
   style="fill:#00BF33;"
   d="M1598.887,322.024c0,0-1.941,1.406-3.872,2.732c-1.932,1.334-3.852,2.589-3.852,2.589      l-13.348-2.553c0,0-1.444-1.759-2.9-3.438c-1.455-1.687-2.919-3.293-2.919-3.293s-0.36-0.403-0.901-1.008      c-0.553-0.603-1.326-1.4-2.084-2.179c-1.524-1.564-3.052-3.047-3.052-3.047s-0.382-0.365-0.956-0.912      c-0.57-0.543-1.333-1.257-2.152-1.959c-1.608-1.406-3.215-2.731-3.215-2.731c-1.108-0.89-1.92-1.737-2.438-2.567      c-0.567-0.831-0.847-1.644-0.837-2.464c0.011-1.581,1.222-3.157,3.436-4.862c0,0,1.638-1.271,3.28-2.625      c0.813-0.674,1.658-1.366,2.241-1.889c0.587-0.528,0.979-0.879,0.979-0.879s1.565-1.431,3.129-2.944      c0.781-0.768,1.562-1.535,2.148-2.111c0.295-0.293,0.536-0.539,0.694-0.71c0.162-0.172,0.255-0.27,0.255-0.27      s1.507-1.557,3.007-3.197c1.5-1.632,2.991-3.346,2.991-3.346c1.891-2.269,3.889-3.666,6.114-4.075      c2.213-0.407,4.64,0.174,7.302,1.909c0,0,1.887,1.311,3.784,2.704c1.896,1.385,3.799,2.851,3.799,2.851s0.119,0.093,0.328,0.255      c0.213,0.163,0.501,0.397,0.842,0.681c0.687,0.578,1.603,1.348,2.519,2.119c1.834,1.563,3.669,3.208,3.669,3.208      s0.464,0.407,1.159,1.019c0.699,0.615,1.565,1.449,2.461,2.297c1.778,1.693,3.553,3.47,3.553,3.47      c2.388,2.371,3.442,4.871,3.416,7.336c-0.017,1.279-0.314,2.535-0.899,3.758c-0.634,1.22-1.552,2.409-2.753,3.556      c0,0-1.82,1.719-3.64,3.355c-0.895,0.822-1.846,1.622-2.56,2.214c-0.711,0.589-1.185,0.981-1.185,0.981s-1.877,1.586-3.749,3.09      c-0.94,0.754-1.863,1.494-2.58,2.038C1599.374,321.666,1598.887,322.024,1598.887,322.024z M1585.852,316.945      c2.239,0.279,4.593-0.444,7.146-2.329c0,0,0.465-0.357,1.162-0.892c0.702-0.539,1.635-1.267,2.514-2.016      c1.787-1.491,3.577-3.064,3.577-3.064c1.196-1.049,2.109-2.139,2.739-3.26c0.582-1.124,0.876-2.279,0.891-3.456      c0.023-2.268-1.03-4.571-3.413-6.743c0,0-1.75-1.629-3.499-3.175c-0.882-0.775-1.733-1.536-2.421-2.096      c-0.684-0.556-1.139-0.927-1.139-0.927c-2.51-2.027-4.847-2.835-7.094-2.623c-2.246,0.212-4.387,1.447-6.461,3.6      c0,0-0.394,0.389-0.986,0.973c-0.588,0.579-1.438,1.346-2.259,2.094c-1.656,1.502-3.311,2.922-3.311,2.922      c-0.816,0.713-1.464,1.408-1.978,2.092c-0.538,0.684-0.919,1.357-1.14,2.026c-0.148,0.446-0.224,0.89-0.23,1.335      c-0.005,0.461,0.06,0.92,0.197,1.38c0.445,1.381,1.37,2.766,2.97,4.244c0,0,1.62,1.472,3.238,3.027      c0.824,0.776,1.591,1.564,2.164,2.162c0.576,0.603,0.96,1.004,0.96,1.004C1581.504,315.382,1583.613,316.665,1585.852,316.945z"
/>
<path
   style="fill:#00BF33;"
   d="M1570.016,207.63c0,0,2.338,0.364,4.721,0.796c2.378,0.426,4.8,0.922,4.8,0.922      s2.362,0.499,4.764,1.071c2.399,0.564,4.835,1.2,4.835,1.2c3.199,0.881,5.385,2.5,6.67,4.707c0.631,1.057,0.95,2.292,1.019,3.65      c0.071,1.356-0.114,2.838-0.565,4.426c0,0-0.175,0.594-0.438,1.485c-0.135,0.442-0.292,0.958-0.46,1.511      c-0.185,0.555-0.383,1.146-0.581,1.737c-0.797,2.358-1.633,4.643-1.633,4.643s-0.203,0.573-0.507,1.431      c-0.317,0.86-0.693,1.976-1.164,3.114c-0.906,2.267-1.847,4.46-1.847,4.46s-0.945,2.181-1.923,4.287      c-1.038,2.138-2.114,4.203-2.114,4.203c-1.497,2.785-3.314,4.437-5.46,5.134c-2.146,0.697-4.608,0.432-7.372-0.658      c0,0-2.088-0.813-4.152-1.548c-2.132-0.718-4.231-1.36-4.231-1.36s-2.089-0.673-4.144-1.272      c-1.011-0.309-2.103-0.566-2.879-0.769c-0.786-0.194-1.31-0.324-1.31-0.324s-2.086-0.496-4.132-0.921      c-0.51-0.104-1.021-0.208-1.499-0.306c-0.49-0.086-0.947-0.166-1.338-0.235c-0.781-0.129-1.302-0.215-1.302-0.215      c-1.418-0.208-2.558-0.528-3.433-0.973c-0.872-0.446-1.474-1.02-1.892-1.695c-0.842-1.414-0.609-3.375,0.502-5.996      c0,0,0.766-1.916,1.494-3.904c0.732-1.981,1.424-4.033,1.424-4.033s0.627-2.018,1.211-4.105c0.588-2.081,1.131-4.23,1.131-4.23      s0.036-0.134,0.098-0.369c0.065-0.237,0.151-0.571,0.241-0.966c0.182-0.803,0.426-1.873,0.669-2.943      c0.474-2.158,0.899-4.381,0.899-4.381c0.286-1.484,0.666-2.76,1.196-3.853c0.535-1.097,1.225-2.017,2.085-2.747      c0.859-0.731,1.885-1.271,3.096-1.611c1.216-0.343,2.611-0.481,4.163-0.367c0,0,2.298,0.185,4.645,0.436      c1.179,0.134,2.359,0.267,3.243,0.368c0.448,0.051,0.814,0.103,1.066,0.142C1569.871,207.609,1570.016,207.63,1570.016,207.63z       M1560.932,218.29c-1.839,1.307-3.077,3.428-3.814,6.275c0,0-0.627,2.185-1.298,4.301c-0.667,2.122-1.374,4.174-1.374,4.174      c-0.936,2.743-1.07,4.874-0.129,6.464c0.465,0.76,1.114,1.42,2.022,1.958c0.911,0.536,2.077,0.953,3.501,1.268      c0,0,0.542,0.116,1.354,0.291c0.407,0.092,0.883,0.198,1.392,0.313c0.498,0.127,1.029,0.261,1.56,0.396      c2.129,0.548,4.294,1.17,4.294,1.17c1.445,0.446,2.79,0.684,4.034,0.7c1.235,0.02,2.355-0.175,3.397-0.617      c1.036-0.439,1.989-1.122,2.822-2.058c0.823-0.933,1.538-2.125,2.14-3.603c0,0,0.877-2.143,1.717-4.36      c0.209-0.556,0.418-1.112,0.614-1.633c0.179-0.52,0.346-1.005,0.489-1.42c0.281-0.838,0.467-1.397,0.467-1.397      c0.496-1.5,0.726-2.894,0.701-4.164c-0.023-1.271-0.296-2.421-0.879-3.392c-1.186-2.031-3.273-3.481-6.369-4.195      c0,0-2.342-0.523-4.643-0.976c-2.305-0.46-4.568-0.851-4.568-0.851C1565.2,216.498,1562.771,216.984,1560.932,218.29z"
/>
<path
   style="fill:#00BF33;"
   d="M1542.75,188.186c0.146,3.196-0.589,5.535-2.107,7.213c-1.509,1.668-3.795,2.663-6.785,3.064      c0,0-2.222,0.344-4.379,0.739c-1.07,0.183-2.179,0.439-2.986,0.614c-0.809,0.183-1.348,0.305-1.348,0.305      s-2.138,0.476-4.209,0.998c-1.037,0.259-2.057,0.522-2.843,0.762c-0.775,0.23-1.291,0.384-1.291,0.384s-2.073,0.609-4.075,1.26      c-1.004,0.325-1.991,0.655-2.728,0.912c-0.747,0.279-1.245,0.465-1.245,0.465c-2.672,1.074-4.579,1.189-5.93,0.349      c-1.39-0.775-2.191-2.535-2.555-5.424c0,0-0.013-0.099-0.036-0.284c-0.023-0.188-0.059-0.457-0.113-0.79      c-0.111-0.677-0.271-1.644-0.462-2.805c-0.203-1.168-0.456-2.541-0.754-4.027c-0.156-0.745-0.316-1.515-0.48-2.298      c-0.188-0.766-0.379-1.543-0.571-2.321c-0.396-1.563-0.821-3.141-1.244-4.632c-0.421-1.496-0.841-2.9-1.24-4.052      c-0.784-2.34-1.365-3.925-1.365-3.925c-1.012-2.803-1.208-5.28-0.456-7.404c0.755-2.13,2.451-3.894,5.271-5.304      c0,0,2.107-1.002,4.29-1.971c1.095-0.5,2.183-0.938,3.006-1.264c0.828-0.327,1.38-0.545,1.38-0.545s2.195-0.878,4.464-1.719      c1.129-0.415,2.286-0.851,3.138-1.127c0.858-0.279,1.43-0.465,1.43-0.465s2.303-0.76,4.678-1.478      c1.197-0.353,2.393-0.706,3.291-0.971c0.91-0.268,1.505-0.409,1.505-0.409c3.257-0.758,5.996-0.495,8.153,0.739      c2.117,1.298,3.619,3.594,4.436,6.784c0,0,0.113,0.449,0.311,1.235c0.193,0.787,0.438,1.947,0.726,3.308      c0.286,1.366,0.603,2.949,0.917,4.63c0.316,1.679,0.632,3.449,0.868,5.271c0.25,1.805,0.473,3.591,0.659,5.249      c0.183,1.664,0.352,3.173,0.43,4.525C1542.678,186.446,1542.75,188.186,1542.75,188.186z M1531.176,187.591      c1.353-1.788,1.942-4.267,1.553-7.351c0,0-0.331-2.299-0.73-4.644c-0.209-1.178-0.419-2.355-0.576-3.238      c-0.184-0.867-0.307-1.446-0.307-1.446c-0.651-3.081-1.985-5.272-3.932-6.468c-1.986-1.132-4.552-1.297-7.629-0.442      c0,0-0.559,0.154-1.417,0.441c-0.844,0.283-1.97,0.661-3.096,1.039c-2.233,0.766-4.394,1.571-4.394,1.571      c-0.731,0.284-1.393,0.594-1.993,0.94c-0.606,0.359-1.146,0.744-1.623,1.154c-0.953,0.821-1.653,1.745-2.122,2.772      c-0.469,1.026-0.704,2.151-0.723,3.371c-0.009,0.61,0.035,1.244,0.132,1.901c0.09,0.67,0.228,1.374,0.416,2.099      c0,0,0.556,2.194,1.038,4.349c0.232,1.072,0.464,2.144,0.637,2.948c0.17,0.791,0.259,1.349,0.259,1.349      c0.585,2.91,1.559,4.769,3.12,5.646c1.521,0.942,3.596,0.932,6.387,0.038c0,0,0.532-0.17,1.33-0.424      c0.788-0.232,1.843-0.529,2.914-0.821c2.137-0.584,4.344-1.122,4.344-1.122C1527.679,190.509,1529.806,189.401,1531.176,187.591      z"
/>
<path
   style="fill:#00BF33;"
   d="M1474.17,154.976c1.635,2.732,2.166,5.158,1.694,7.364c-0.472,2.207-1.943,4.18-4.25,5.983      c0,0-3.54,2.864-6.759,5.77c-0.401,0.364-0.802,0.728-1.197,1.086c-0.39,0.377-0.775,0.748-1.146,1.108      c-0.726,0.72-1.404,1.392-1.985,1.967c-1.127,1.154-1.878,1.923-1.878,1.923s-0.369,0.382-0.922,0.955      c-0.549,0.569-1.271,1.332-1.981,2.151c-1.422,1.607-2.761,3.214-2.761,3.214c-0.883,1.109-1.727,1.92-2.549,2.439      c-0.823,0.57-1.624,0.848-2.421,0.839c-1.592-0.011-3.169-1.222-4.862-3.437c0,0-1.286-1.638-2.656-3.279      c-0.682-0.812-1.382-1.659-1.912-2.239c-0.534-0.587-0.89-0.978-0.89-0.978s-0.726-0.788-1.814-1.97      c-1.103-1.17-2.621-2.783-4.194-4.3c-3.122-2.992-6.575-5.951-6.575-5.951c-2.255-1.888-3.667-3.887-4.078-6.11      c-0.408-2.214,0.189-4.64,1.906-7.305c0,0,1.331-1.89,2.744-3.789c1.405-1.899,2.893-3.805,2.893-3.805s0.185-0.239,0.508-0.657      c0.33-0.403,0.802-0.978,1.369-1.668c1.144-1.381,2.709-3.225,4.341-5.07c1.626-1.881,3.329-3.583,4.633-4.927      c1.321-1.324,2.201-2.207,2.201-2.207c2.352-2.388,4.853-3.441,7.336-3.415c1.242,0.016,2.479,0.314,3.691,0.897      c1.209,0.633,2.393,1.55,3.531,2.751c0,0,0.852,0.905,2.13,2.262c0.621,0.679,1.346,1.471,2.123,2.319      c0.764,0.868,1.562,1.823,2.347,2.763c1.572,1.886,3.079,3.769,4.18,5.178c0.552,0.699,1.002,1.294,1.312,1.729      c0.31,0.427,0.487,0.671,0.487,0.671s1.427,1.944,2.774,3.878C1472.895,153.052,1474.17,154.976,1474.17,154.976z       M1463.768,160.286c0.28-2.239-0.444-4.593-2.329-7.146c0,0-0.362-0.465-0.904-1.164c-0.546-0.703-1.284-1.636-2.044-2.516      c-1.512-1.788-3.106-3.579-3.106-3.579c-1.041-1.195-2.126-2.108-3.237-2.737c-1.113-0.579-2.252-0.874-3.394-0.889      c-2.285-0.022-4.588,1.03-6.743,3.412c0,0-1.65,1.75-3.217,3.501c-0.785,0.883-1.556,1.732-2.123,2.424      c-0.564,0.684-0.939,1.141-0.939,1.141c-1.962,2.504-2.756,4.84-2.544,7.087c0.212,2.246,1.431,4.389,3.527,6.468      c0,0,0.394,0.394,0.984,0.985c0.586,0.583,1.362,1.437,2.119,2.256c1.52,1.655,2.957,3.31,2.957,3.31      c1.887,2.124,3.662,3.334,5.452,3.349c0.896,0.011,1.796-0.264,2.717-0.82c0.92-0.505,1.861-1.29,2.839-2.351      c0,0,1.489-1.619,3.061-3.235c0.785-0.823,1.582-1.59,2.187-2.162c0.609-0.576,1.016-0.959,1.016-0.959      C1462.205,164.634,1463.488,162.524,1463.768,160.286z"
/>
<path
   style="fill:#00BF33;"
   d="M1398.097,160.534l4.474,12.832c1.091-2.764,1.355-5.226,0.659-7.372      C1402.534,163.848,1400.882,162.031,1398.097,160.534z"
/>
<path
   style="fill:#75CBEA;"
   d="M1592.998,314.615c-2.553,1.885-4.907,2.609-7.146,2.329c-2.239-0.28-4.349-1.562-6.373-3.723      c0,0-0.384-0.402-0.96-1.004c-0.573-0.598-1.34-1.386-2.164-2.162c-1.617-1.555-3.238-3.027-3.238-3.027      c-1.6-1.478-2.525-2.863-2.97-4.244c-0.137-0.46-0.203-0.919-0.197-1.38c0.005-0.445,0.082-0.889,0.23-1.335      c0.221-0.669,0.602-1.342,1.14-2.026c0.514-0.684,1.162-1.379,1.978-2.092c0,0,1.656-1.419,3.311-2.922      c0.821-0.748,1.671-1.515,2.259-2.094c0.592-0.584,0.986-0.973,0.986-0.973c2.074-2.152,4.215-3.388,6.461-3.6      c2.246-0.212,4.584,0.596,7.094,2.623c0,0,0.456,0.371,1.139,0.927c0.687,0.56,1.539,1.321,2.421,2.096      c1.75,1.547,3.499,3.175,3.499,3.175c2.383,2.172,3.435,4.474,3.413,6.743c-0.016,1.177-0.309,2.332-0.891,3.456      c-0.63,1.121-1.543,2.211-2.739,3.26c0,0-1.79,1.573-3.577,3.064c-0.879,0.749-1.812,1.477-2.514,2.016      C1593.463,314.259,1592.998,314.615,1592.998,314.615z M1586.875,304.792c2.259,0.091,3.388-0.918,3.416-3.074      c0.026-2.077-1.082-3.121-3.338-3.101c-2.256,0.02-3.39,1.028-3.414,2.997C1583.514,303.658,1584.625,304.702,1586.875,304.792z      "
/>
<path
   style="fill:#75CBEA;"
   d="M1557.118,224.565c0.737-2.846,1.975-4.967,3.814-6.275c1.839-1.307,4.267-1.793,7.43-1.357      c0,0,2.262,0.391,4.568,0.851c2.301,0.453,4.643,0.976,4.643,0.976c3.096,0.714,5.183,2.164,6.369,4.195      c0.583,0.972,0.856,2.121,0.879,3.392c0.025,1.27-0.205,2.664-0.701,4.164c0,0-0.187,0.559-0.467,1.397      c-0.143,0.416-0.31,0.901-0.489,1.42c-0.196,0.521-0.405,1.077-0.614,1.633c-0.84,2.216-1.717,4.36-1.717,4.36      c-0.602,1.478-1.317,2.67-2.14,3.603c-0.832,0.937-1.786,1.62-2.822,2.058c-1.042,0.441-2.162,0.637-3.397,0.617      c-1.244-0.016-2.589-0.255-4.034-0.7c0,0-2.165-0.622-4.294-1.17c-0.531-0.135-1.062-0.27-1.56-0.396      c-0.509-0.114-0.984-0.221-1.392-0.313c-0.813-0.174-1.354-0.291-1.354-0.291c-1.424-0.314-2.59-0.731-3.501-1.268      c-0.909-0.538-1.558-1.198-2.022-1.958c-0.941-1.59-0.807-3.721,0.129-6.464c0,0,0.708-2.052,1.374-4.174      C1556.491,226.75,1557.118,224.565,1557.118,224.565z M1567.563,228.523c-1.943,1.148-2.406,2.584-1.381,4.352      c0.508,0.847,1.094,1.373,1.814,1.554c0.724,0.178,1.587,0.009,2.584-0.52c0.997-0.528,1.624-1.153,1.88-1.881      c0.262-0.729,0.148-1.558-0.383-2.447C1570.998,227.717,1569.505,227.375,1567.563,228.523z"
/>
<path
   style="fill:#75CBEA;"
   d="M1532.729,180.239c0.388,3.085-0.2,5.564-1.553,7.351c-1.37,1.811-3.497,2.918-6.411,3.661      c0,0-2.207,0.538-4.344,1.122c-1.071,0.291-2.126,0.589-2.914,0.821c-0.798,0.255-1.33,0.424-1.33,0.424      c-2.791,0.895-4.866,0.904-6.387-0.038c-1.561-0.877-2.535-2.736-3.12-5.646c0,0-0.089-0.558-0.259-1.349      c-0.174-0.804-0.406-1.876-0.637-2.948c-0.482-2.155-1.038-4.349-1.038-4.349c-0.188-0.725-0.326-1.428-0.416-2.099      c-0.097-0.657-0.141-1.291-0.132-1.901c0.019-1.22,0.255-2.345,0.723-3.371c0.469-1.026,1.169-1.951,2.122-2.772      c0.477-0.411,1.017-0.795,1.623-1.154c0.6-0.345,1.262-0.655,1.993-0.94c0,0,2.161-0.805,4.394-1.571      c1.126-0.378,2.252-0.756,3.096-1.039c0.857-0.287,1.417-0.441,1.417-0.441c3.077-0.855,5.643-0.69,7.629,0.442      c1.947,1.196,3.281,3.387,3.932,6.468c0,0,0.123,0.578,0.307,1.446c0.157,0.883,0.367,2.061,0.576,3.238      C1532.399,177.94,1532.729,180.239,1532.729,180.239z M1521.069,180.633c1.2-1.904,0.929-3.422-0.852-4.52      c-1.821-1.032-3.275-0.569-4.384,1.396c-1.109,1.965-0.804,3.426,0.923,4.402      C1518.443,182.952,1519.863,182.546,1521.069,180.633z"
/>
<path
   style="fill:#75CBEA;"
   d="M1461.44,153.14c1.885,2.553,2.609,4.907,2.329,7.146c-0.28,2.239-1.564,4.348-3.724,6.372      c0,0-0.406,0.384-1.016,0.959c-0.605,0.572-1.402,1.339-2.187,2.162c-1.572,1.616-3.061,3.235-3.061,3.235      c-0.978,1.061-1.919,1.846-2.839,2.351c-0.921,0.556-1.821,0.831-2.717,0.82c-1.79-0.014-3.565-1.224-5.452-3.349      c0,0-1.436-1.655-2.957-3.31c-0.757-0.819-1.533-1.673-2.119-2.256c-0.591-0.591-0.984-0.985-0.984-0.985      c-2.096-2.079-3.315-4.221-3.527-6.468c-0.212-2.246,0.582-4.582,2.544-7.087c0,0,0.376-0.456,0.939-1.141      c0.567-0.692,1.338-1.541,2.123-2.424c1.567-1.75,3.217-3.501,3.217-3.501c2.155-2.382,4.458-3.434,6.743-3.412      c1.143,0.014,2.281,0.31,3.394,0.889c1.111,0.629,2.197,1.542,3.237,2.737c0,0,1.594,1.791,3.106,3.579      c0.76,0.879,1.498,1.813,2.044,2.516C1461.078,152.674,1461.44,153.14,1461.44,153.14z M1451.539,159.257      c0.089-2.255-0.905-3.387-2.997-3.413c-2.092-0.026-3.121,1.082-3.102,3.338c0.02,2.257,1.014,3.389,2.997,3.414      C1450.421,162.62,1451.45,161.512,1451.539,159.257z"
/>
<path
   style="fill:#FFA227;"
   d="M1530.068,313.426l-7.287-1.394c1.015,2.466,2.214,3.953,3.72,4.308     C1527.672,316.619,1528.873,315.649,1530.068,313.426z"
/>
<path
   style="fill:#FFA227;"
   d="M1450.21,343.055c0,0,0.53,0.519,1.381,1.296c0.853,0.802,2.027,1.729,3.297,2.712      c1.253,0.908,2.601,1.837,3.636,2.454c1.035,0.623,1.762,1.03,1.762,1.03s0.362,0.203,0.904,0.509      c0.543,0.286,1.28,0.663,2.037,1.034c0.759,0.378,1.533,0.732,2.116,0.972c0.591,0.247,0.985,0.412,0.985,0.412      s1.604,0.659,3.271,1.176c0.833,0.266,1.694,0.542,2.334,0.712c0.646,0.169,1.076,0.281,1.076,0.281s0.326,0.083,0.896,0.23      c0.571,0.139,1.408,0.361,2.403,0.548c0.999,0.194,2.196,0.428,3.491,0.616c1.284,0.171,2.697,0.35,4.122,0.466      c1.411,0.096,2.869,0.182,4.238,0.204c1.36,0.009,2.657-0.009,3.783-0.041c2.219-0.11,3.748-0.254,3.748-0.254      c2.678-0.256,4.537,0.062,5.571,1.226c0.495,0.556,0.601,1.328,0.277,2.345c-0.163,0.506-0.428,1.08-0.815,1.703      c-0.395,0.614-0.905,1.286-1.534,2.017c-2.448,2.855-5.849,5.738-10.226,8.163c0,0-0.302,0.182-0.885,0.494      c-0.587,0.304-1.448,0.751-2.543,1.319c-2.202,1.112-5.413,2.59-9.398,4.037c-3.976,1.465-8.763,2.808-13.99,3.752      c-5.225,0.944-10.901,1.438-16.558,1.343c-11.349-0.137-22.362-2.78-30.258-5.961c-0.494-0.193-0.978-0.383-1.45-0.568      c-0.466-0.203-0.921-0.401-1.365-0.594c-0.884-0.394-1.723-0.768-2.511-1.119c-1.548-0.764-2.896-1.436-3.991-2.015      c-2.167-1.205-3.39-1.92-3.39-1.92c-4.297-2.575-7.647-5.567-10.025-8.491c-2.364-2.955-2.911-5.065-1.886-6.142      c1.075-1.137,2.928-1.357,5.675-0.999c0,0,0.499,0.058,1.248,0.146c0.739,0.091,1.738,0.176,2.732,0.233      c0.991,0.062,1.967,0.108,2.692,0.135c0.733,0.008,1.222,0.013,1.222,0.013s0.486-0.005,1.216-0.011      c0.731-0.018,1.673-0.018,2.636-0.089c0.959-0.062,1.901-0.139,2.6-0.203c0.699-0.063,1.16-0.116,1.16-0.116      s1.884-0.215,3.679-0.497c1.823-0.311,3.566-0.708,3.566-0.708s0.324-0.067,0.891-0.212c0.57-0.151,1.378-0.371,2.322-0.648      c0.939-0.264,2.03-0.628,3.168-1.049c0.559-0.211,1.137-0.429,1.724-0.65c0.581-0.235,1.169-0.497,1.743-0.751      c1.149-0.508,2.259-1.038,3.281-1.6c1.02-0.554,1.927-1.043,2.702-1.542c1.541-0.964,2.488-1.622,2.488-1.622      s1.296-0.941,2.485-1.895c0.596-0.463,1.179-1.002,1.603-1.373c0.419-0.381,0.699-0.635,0.699-0.635      c0.754-0.645,1.452-1.187,2.115-1.517c0.332-0.167,0.656-0.286,0.975-0.36c0.32-0.092,0.635-0.137,0.95-0.133      C1447.546,340.954,1448.783,341.649,1450.21,343.055z M1457.806,364.88c0,0-1.672-0.895-3.237-1.819      c-1.58-0.959-3.054-1.972-3.054-1.972c-1.955-1.38-3.716-2.048-5.501-2.095c-0.446-0.006-0.893,0.035-1.345,0.121      c-0.451,0.069-0.906,0.18-1.37,0.339c-0.927,0.313-1.89,0.834-2.911,1.457c0,0-0.376,0.24-0.94,0.6      c-0.567,0.35-1.345,0.856-2.13,1.284c-1.569,0.884-3.24,1.739-3.24,1.739c-2.221,1.11-3.585,2.341-3.929,3.802      c-0.172,0.73,0.052,1.457,0.72,2.184c0.668,0.724,1.776,1.471,3.383,2.1c3.112,1.309,7.034,2.073,11.523,2.151      c4.473,0.074,8.447-0.595,11.621-1.81c1.594-0.583,2.731-1.292,3.434-2.003c0.703-0.711,0.969-1.435,0.816-2.17      C1461.341,367.317,1459.99,366.057,1457.806,364.88z"
/>
<path
   style="fill:#FFA227;"
   d="M1370.581,309.821c-1.08,2.518-2.306,3.998-3.823,4.313c-0.729,0.152-1.453-0.165-2.172-0.968      c-0.718-0.803-1.444-2.088-2.049-3.877c-1.281-3.56-2.034-7.998-1.954-12.996c0,0,0.005-0.354,0.016-1.017      c0-0.664,0.051-1.633,0.13-2.867c0.071-1.234,0.17-2.732,0.382-4.435c0.102-0.852,0.191-1.764,0.335-2.713      c0.155-0.947,0.318-1.943,0.489-2.983c0.754-4.139,1.919-8.936,3.706-13.933c1.773-4.996,4.182-10.16,7.085-15.027      c2.897-4.872,6.295-9.432,9.837-13.371c3.536-3.948,7.207-7.274,10.513-9.908c3.294-2.656,6.261-4.572,8.344-5.89      c1.043-0.658,1.894-1.124,2.462-1.461c0.573-0.329,0.879-0.505,0.879-0.505c4.369-2.439,8.601-3.849,12.318-4.456      c1.915-0.292,3.379-0.295,4.409-0.056c1.041,0.267,1.645,0.767,1.859,1.48c0.447,1.485-0.261,3.224-1.88,5.393      c0,0-0.227,0.303-0.623,0.833c-0.396,0.52-0.938,1.301-1.559,2.235c-1.257,1.846-2.778,4.369-4.069,6.915      c-1.306,2.542-2.368,5.125-3.068,7.044c-0.688,1.948-1.071,3.208-1.071,3.208s-0.515,1.742-0.937,3.428      c-0.409,1.721-0.709,3.405-0.709,3.405s-0.018,0.105-0.049,0.288c-0.033,0.181-0.074,0.445-0.115,0.767      c-0.086,0.639-0.191,1.484-0.279,2.314c-0.097,0.823-0.146,1.665-0.178,2.287c-0.029,0.618-0.048,1.03-0.048,1.03      s-0.009,0.204-0.024,0.561c-0.016,0.354-0.033,0.86-0.025,1.477c0.009,1.231,0.029,2.808,0.189,4.393      c0.121,1.558,0.362,3.1,0.565,4.223c0.188,1.113,0.378,1.857,0.378,1.857c0.231,0.983,0.301,1.807,0.278,2.552      c-0.022,0.745-0.202,1.367-0.533,1.901c-0.306,0.549-0.778,0.998-1.428,1.377c-0.631,0.389-1.411,0.721-2.393,1.003      c0,0-0.092,0.025-0.253,0.067c-0.163,0.043-0.393,0.106-0.659,0.19c-0.537,0.165-1.261,0.397-1.994,0.648      c-0.743,0.246-1.464,0.525-1.999,0.748c-0.543,0.225-0.905,0.375-0.905,0.375s-0.272,0.119-0.748,0.327      c-0.487,0.208-1.147,0.528-1.945,0.938c-1.623,0.807-3.73,2.03-5.817,3.455c-1.016,0.716-2.065,1.469-3.011,2.219      c-0.929,0.752-1.802,1.491-2.551,2.145c-0.743,0.655-1.321,1.231-1.746,1.636c-0.419,0.41-0.658,0.645-0.658,0.645      s-0.318,0.323-0.796,0.807c-0.462,0.491-1.063,1.161-1.67,1.852c-1.237,1.375-2.353,2.866-2.353,2.866s-0.288,0.37-0.721,0.926      c-0.216,0.284-0.467,0.614-0.737,0.969c-0.254,0.362-0.526,0.749-0.797,1.135c-0.541,0.782-1.078,1.585-1.478,2.198      c-0.4,0.612-0.639,1.028-0.639,1.028s-1,1.655-1.939,3.413C1371.447,307.972,1370.581,309.821,1370.581,309.821z       M1377.793,274.653c1.443,0.476,3.133-0.072,5.308-1.368c0,0,0.394-0.243,0.985-0.607c0.584-0.362,1.372-0.826,2.187-1.256      c0.805-0.435,1.603-0.85,2.198-1.151c0.294-0.152,0.549-0.272,0.729-0.355c0.179-0.083,0.281-0.13,0.281-0.13      c1.106-0.525,2.008-1.097,2.764-1.72c0.775-0.614,1.375-1.295,1.817-2.071c0.466-0.761,0.789-1.605,0.956-2.569      c0.169-0.963,0.248-2.004,0.167-3.204c0,0-0.022-0.453-0.054-1.132c-0.013-0.671-0.021-1.576-0.014-2.496      c0-0.925,0.031-1.853,0.079-2.541c0.045-0.698,0.074-1.163,0.074-1.163c0.098-2.516-0.216-4.278-1.319-5.32      c-1.086-1.034-3.077-0.651-5.791,1.407c-2.666,2.086-5.343,5.088-7.646,8.933c-2.307,3.862-3.658,7.641-4.231,10.978      C1375.726,272.332,1376.369,274.189,1377.793,274.653z"
/>
<path
   style="fill:#FFA227;"
   d="M1530.846,311.657c-0.255,0.667-0.515,1.243-0.778,1.769l-7.288-1.394      c0,0-0.814-1.882-1.668-3.661c-0.415-0.89-0.906-1.775-1.247-2.422c-0.351-0.644-0.586-1.073-0.586-1.073      s-0.24-0.417-0.601-1.043c-0.379-0.623-0.898-1.441-1.418-2.238c-1.015-1.598-2.16-3.094-2.16-3.094s-0.276-0.376-0.691-0.939      c-0.208-0.276-0.451-0.598-0.711-0.943c-0.275-0.337-0.568-0.696-0.861-1.055c-0.588-0.71-1.177-1.398-1.619-1.904      c-0.445-0.506-0.765-0.832-0.765-0.832s-1.228-1.305-2.487-2.497c-1.296-1.198-2.583-2.288-2.583-2.288      s-0.336-0.273-0.844-0.668c-0.508-0.395-1.184-0.909-1.856-1.401c-0.665-0.495-1.387-0.954-1.899-1.295      c-0.519-0.334-0.865-0.557-0.865-0.557s-0.343-0.219-0.858-0.548c-0.532-0.319-1.238-0.731-1.937-1.122      c-0.691-0.395-1.397-0.762-1.943-1.022c-0.535-0.258-0.891-0.43-0.891-0.43s-1.413-0.667-2.876-1.198      c-0.727-0.271-1.424-0.53-1.974-0.703c-0.547-0.168-0.911-0.28-0.911-0.28c-1.892-0.602-3.137-1.353-3.762-2.491      c-0.321-0.538-0.453-1.184-0.472-1.922c-0.029-0.732,0.096-1.579,0.353-2.555c0,0,0.363-1.44,0.67-2.973      c0.285-1.503,0.481-3.076,0.481-3.076s0.012-0.099,0.032-0.272c0.021-0.174,0.049-0.422,0.07-0.713      c0.047-0.586,0.102-1.378,0.144-2.187c0.05-0.816,0.053-1.617,0.049-2.227c-0.006-0.615-0.01-1.025-0.01-1.025      s-0.004-0.415-0.01-1.038c-0.012-0.624-0.064-1.44-0.12-2.282c-0.096-1.692-0.346-3.378-0.346-3.378s-0.066-0.427-0.165-1.068      c-0.097-0.652-0.258-1.503-0.447-2.355c-0.184-0.856-0.386-1.725-0.546-2.382c-0.177-0.643-0.295-1.072-0.295-1.072      s-0.122-0.429-0.304-1.074c-0.192-0.639-0.437-1.533-0.74-2.378c-0.296-0.854-0.611-1.719-0.857-2.371      c-0.244-0.654-0.421-1.086-0.421-1.086s-0.7-1.712-1.503-3.465c-0.812-1.713-1.744-3.437-1.744-3.437s-0.23-0.442-0.606-1.07      c-0.375-0.63-0.889-1.473-1.424-2.32c-0.53-0.857-1.095-1.688-1.533-2.301c-0.441-0.62-0.735-1.034-0.735-1.034      c-1.559-2.226-2.229-3.951-1.74-5.438c0.46-1.413,2.576-1.938,6.303-1.257c3.704,0.708,7.925,2.215,12.243,4.793      c0,0,0.306,0.179,0.867,0.533c0.561,0.356,1.383,0.877,2.429,1.541c1.039,0.675,2.259,1.555,3.666,2.553      c0.694,0.51,1.413,1.08,2.177,1.673c0.765,0.593,1.56,1.225,2.358,1.923c3.25,2.723,6.81,6.176,10.216,10.223      c3.413,4.038,6.663,8.673,9.413,13.597c2.758,4.92,5.012,10.123,6.662,15.161c1.66,5.036,2.716,9.896,3.353,14.096      c0.143,1.053,0.28,2.062,0.411,3.022c0.09,0.964,0.175,1.879,0.255,2.738c0.169,1.719,0.2,3.224,0.25,4.462      c0.055,1.239,0.048,2.211,0.038,2.874c-0.008,0.663-0.012,1.017-0.012,1.017C1533.094,303.776,1532.232,308.17,1530.846,311.657      z M1516.581,276.561c0.719-0.216,1.243-0.778,1.553-1.719c0.283-0.931,0.341-2.237,0.142-3.929      c-0.513-3.425-1.749-7.156-3.964-11.128c-2.164-3.904-4.757-6.969-7.369-9.114c-0.659-0.533-1.275-0.965-1.843-1.297      c-0.579-0.323-1.118-0.54-1.601-0.666c-0.968-0.25-1.729-0.116-2.289,0.383c-1.13,1.004-1.522,2.781-1.429,5.332      c0,0,0.061,1.866,0.02,3.673c-0.062,1.837-0.195,3.592-0.195,3.592c-0.116,1.195-0.099,2.261,0.068,3.214      c0.156,0.959,0.424,1.828,0.871,2.591c0.888,1.607,2.358,2.83,4.475,3.905c0,0,0.401,0.203,1.002,0.507      c0.604,0.309,1.371,0.752,2.163,1.207c1.596,0.9,3.124,1.942,3.124,1.942C1513.435,276.412,1515.142,276.995,1516.581,276.561z"
/>
<path
   style="fill:#E0486C;"
   d="M1451.26,321.352c-0.441,0.487-0.776,0.977-0.977,1.587c-0.201,0.604-0.273,1.287-0.187,2.033     c0.174,1.493,0.74,2.903,1.929,4.269c0,0,0.857,0.984,1.826,1.969c0.482,0.497,0.975,0.935,1.36,1.289     c0.389,0.346,0.648,0.577,0.648,0.577s0.266,0.225,0.664,0.562c0.399,0.319,0.945,0.742,1.512,1.163     c0.568,0.428,1.153,0.835,1.595,1.116c0.45,0.29,0.749,0.483,0.749,0.483s1.227,0.789,2.526,1.454     c0.648,0.339,1.326,0.693,1.83,0.922c0.51,0.229,0.85,0.381,0.85,0.381s0.346,0.155,0.864,0.386     c0.525,0.233,1.236,0.536,1.95,0.794c0.717,0.268,1.455,0.528,2.017,0.718c0.563,0.194,0.933,0.293,0.933,0.293     s0.379,0.105,0.948,0.262c0.57,0.15,1.356,0.365,2.138,0.533c1.554,0.332,3.2,0.607,3.2,0.607s1.602,0.254,3.291,0.444     c1.659,0.167,3.384,0.24,3.384,0.24s0.107,0.004,0.296,0.012c0.189,0.009,0.459,0.018,0.776,0.017c0.639,0.004,1.5,0,2.376-0.019     c0.883-0.01,1.753-0.067,2.411-0.117c0.664-0.052,1.106-0.087,1.106-0.087s0.451-0.044,1.126-0.109     c0.679-0.07,1.562-0.204,2.473-0.342c1.829-0.26,3.644-0.682,3.644-0.682s0.459-0.098,1.147-0.245     c0.699-0.145,1.613-0.37,2.526-0.626c0.917-0.25,1.846-0.519,2.547-0.73c0.688-0.227,1.147-0.379,1.147-0.379     c1.213-0.428,2.316-0.976,3.218-1.688c0.898-0.715,1.657-1.55,2.24-2.51c0.539-0.939,0.915-1.98,1.113-3.1     c0.179-1.131,0.153-2.355-0.048-3.627c0,0-0.067-0.474-0.216-1.192c-0.146-0.717-0.349-1.662-0.563-2.588     c-0.204-0.923-0.449-1.839-0.651-2.522c-0.198-0.676-0.329-1.126-0.329-1.126s-0.489-1.798-1.131-3.531     c-0.31-0.866-0.619-1.71-0.87-2.338c-0.265-0.626-0.442-1.043-0.442-1.043s-0.181-0.406-0.451-1.015     c-0.282-0.606-0.619-1.392-1.037-2.175c-0.806-1.565-1.64-3.026-1.64-3.026l-17.759-3.397c0,0,0.683,0.804,1.697,2.133     c0.524,0.67,1.043,1.451,1.634,2.339c0.599,0.891,1.17,1.859,1.725,2.868c0.278,0.504,0.564,1.023,0.822,1.535     c0.247,0.519,0.489,1.029,0.724,1.523c0.229,0.511,0.451,1.005,0.661,1.474c0.199,0.473,0.369,0.92,0.532,1.342     c0.322,0.842,0.58,1.565,0.759,2.076c0.163,0.508,0.256,0.799,0.256,0.799c0.316,1.034,0.462,2.023,0.409,2.921     c-0.073,0.888-0.318,1.7-0.723,2.413c-0.443,0.727-1.06,1.335-1.812,1.827c-0.755,0.49-1.709,0.821-2.767,1.035     c0,0-0.299,0.057-0.821,0.157c-0.532,0.087-1.295,0.201-2.189,0.317c-0.443,0.053-0.924,0.111-1.432,0.171     c-0.512,0.038-1.053,0.077-1.612,0.118c-0.547,0.028-1.111,0.057-1.685,0.086c-0.573,0.016-1.165,0.011-1.74,0.007     c-0.569-0.013-1.139-0.026-1.7-0.039c-0.562-0.028-1.118-0.073-1.643-0.117c-1.051-0.087-2.003-0.193-2.835-0.331     c-0.822-0.127-1.488-0.247-1.949-0.334c-0.464-0.09-0.734-0.157-0.734-0.157c-1.891-0.428-3.194-1.293-4.093-2.499     c-0.459-0.617-0.699-1.262-0.751-1.948c-0.058-0.694,0.125-1.364,0.431-2.149c0.634-1.495,1.501-2.935,2.73-4.33     c0,0,0.115-0.132,0.315-0.363c0.213-0.221,0.467-0.577,0.791-0.988c0.664-0.811,1.427-1.979,2.168-3.157     c0.682-1.212,1.354-2.433,1.745-3.403c0.214-0.477,0.398-0.871,0.492-1.163c0.108-0.285,0.17-0.449,0.17-0.449     c0.655-1.767,1.495-3.189,2.52-4.506c0.189-0.23,0.389-0.427,0.595-0.61l-10.448-1.999c0,0-0.102,0.373-0.23,1.037     c-0.067,0.331-0.206,0.711-0.308,1.166c-0.051,0.228-0.154,0.451-0.227,0.699c-0.086,0.243-0.14,0.514-0.26,0.769     c-0.757,2.125-2.179,4.782-4.168,7.061c-1.961,2.304-4.472,4.127-6.47,5.221c-2.025,1.058-3.466,1.522-3.466,1.522     C1453.173,319.759,1452.157,320.453,1451.26,321.352z"
/>
<path
   style="fill:#E0486C;"
   d="M1408.177,342.365c0,0-1.734,0.022-3.474-0.113c-0.872-0.059-1.773-0.122-2.433-0.198     c-0.662-0.081-1.104-0.136-1.104-0.136s-0.883-0.103-2.242-0.302c-1.331-0.222-3.149-0.554-4.964-1     c-1.803-0.45-3.656-0.972-5.007-1.442c-1.368-0.456-2.296-0.793-2.296-0.793c-1.193-0.455-2.245-1.049-3.142-1.76     c-0.885-0.719-1.579-1.577-2.124-2.516c-1.052-1.902-1.395-4.203-0.875-6.735c0,0,0.047-0.238,0.129-0.654     c0.083-0.414,0.199-1.002,0.378-1.71c0.35-1.416,0.801-3.24,1.405-5.029c0.295-0.893,0.576-1.761,0.885-2.573     c0.312-0.813,0.609-1.556,0.868-2.184c0.505-1.252,0.905-2.066,0.905-2.066s0.191-0.406,0.477-1.015     c0.296-0.606,0.659-1.393,1.089-2.172c0.423-0.779,0.852-1.536,1.175-2.095c0.323-0.559,0.547-0.923,0.547-0.923     s0.944-1.461,1.907-2.814c1-1.368,2.041-2.629,2.041-2.629s0.193-0.236,0.531-0.648c0.355-0.409,0.862-0.986,1.472-1.65     c0.306-0.332,0.631-0.686,0.988-1.052c0.368-0.358,0.756-0.736,1.158-1.127c0.401-0.373,0.815-0.758,1.235-1.149     c0.426-0.381,0.886-0.758,1.329-1.124c0.89-0.733,1.775-1.423,2.661-2.03c0.879-0.608,1.646-1.143,2.381-1.572     c1.433-0.862,2.365-1.357,2.365-1.357s1.306-0.682,2.574-1.262c0.622-0.297,1.309-0.552,1.787-0.743     c0.486-0.184,0.809-0.307,0.809-0.307s0.323-0.112,0.808-0.281c0.496-0.159,1.167-0.353,1.821-0.531     c1.291-0.368,2.624-0.601,2.624-0.601c1.72-0.343,3.265-0.11,4.646,0.484c0.691,0.297,1.237,0.688,1.651,1.157     c0.434,0.478,0.735,1.032,0.882,1.653c0.378,1.251,0.432,2.471,0.159,3.818c0,0-0.078,0.508-0.214,1.396     c-0.114,0.886-0.217,2.146-0.181,3.643c0.04,1.496,0.254,3.23,0.711,5.05c0.475,1.813,1.216,3.707,2.206,5.478     c0.491,0.888,1.061,1.731,1.642,2.543c0.618,0.784,1.221,1.563,1.898,2.228c1.305,1.377,2.685,2.48,3.942,3.292     c0.324,0.187,0.614,0.4,0.909,0.57c0.301,0.16,0.581,0.32,0.84,0.479c0.554,0.25,1.004,0.533,1.417,0.682     c0.401,0.172,0.705,0.332,0.933,0.398c0.22,0.083,0.337,0.127,0.337,0.127c1.248,0.46,2.249,1.197,3.157,2.123     c0.455,0.504,0.787,1.012,0.975,1.623c0.188,0.608,0.236,1.292,0.127,2.034c-0.219,1.487-0.832,2.882-2.046,4.218     c0,0-0.895,0.956-1.9,1.91c-0.503,0.491-1.006,0.908-1.403,1.252c-0.399,0.334-0.666,0.557-0.666,0.557s-0.275,0.218-0.689,0.544     c-0.415,0.316-0.973,0.712-1.557,1.115c-1.169,0.826-2.407,1.53-2.407,1.53s-0.234,0.137-0.644,0.376     c-0.413,0.237-1.017,0.588-1.746,0.945c-0.73,0.363-1.617,0.802-2.586,1.217c-0.96,0.397-2.028,0.823-3.122,1.202     c-1.079,0.355-2.205,0.701-3.281,0.99c-1.061,0.265-2.084,0.493-2.979,0.678c-0.89,0.177-1.631,0.281-2.164,0.365     c-0.533,0.077-0.838,0.121-0.838,0.121s-0.411,0.056-1.029,0.14c-0.61,0.065-1.434,0.144-2.275,0.209     c-0.844,0.071-1.695,0.116-2.325,0.124C1408.604,342.357,1408.177,342.365,1408.177,342.365z M1414.145,329.33     c0,0,0.372-0.016,0.93-0.041c0.555-0.029,1.314-0.106,2.042-0.183c1.452-0.138,2.884-0.42,2.884-0.42     c1.868-0.347,3.241-1.219,4.162-2.384c0.479-0.606,0.732-1.251,0.785-1.916c0.068-0.685-0.048-1.408-0.353-2.146     c-0.548-1.551-1.418-2.976-2.599-4.417c0,0-0.108-0.139-0.298-0.382c-0.186-0.246-0.482-0.573-0.773-1.016     c-0.305-0.432-0.68-0.923-1.02-1.49c-0.376-0.544-0.716-1.162-1.072-1.77c-0.192-0.297-0.327-0.624-0.492-0.928     c-0.151-0.311-0.336-0.601-0.46-0.907c-0.258-0.606-0.554-1.149-0.726-1.648c-0.41-0.971-0.621-1.641-0.621-1.641     c-0.607-1.751-1.4-3.223-2.382-4.506c-0.523-0.635-1.024-1.12-1.641-1.421c-0.611-0.301-1.3-0.423-2.068-0.334     c-1.48,0.173-2.889,0.875-4.218,2.287c0,0-0.24,0.265-0.588,0.676c-0.35,0.411-0.815,0.971-1.279,1.554     c-0.471,0.583-0.877,1.176-1.208,1.636c-0.322,0.464-0.537,0.773-0.537,0.773s-0.216,0.314-0.539,0.785     c-0.305,0.472-0.709,1.114-1.108,1.777c-0.407,0.665-0.789,1.345-1.053,1.858c-0.271,0.521-0.451,0.869-0.451,0.869     s-0.723,1.416-1.314,2.899c-0.302,0.74-0.618,1.51-0.816,2.082c-0.199,0.578-0.331,0.963-0.331,0.963     c-0.735,2.059-0.626,3.892,0.171,5.339c0.418,0.712,0.98,1.345,1.728,1.842c0.76,0.49,1.671,0.866,2.719,1.107     c0,0,1.632,0.352,3.199,0.616c1.603,0.251,3.162,0.398,3.162,0.398s0.097,0.008,0.267,0.023c0.168,0.016,0.411,0.034,0.71,0.047     c0.592,0.03,1.373,0.061,2.139,0.076c0.758,0.024,1.533,0.002,2.105-0.02C1413.767,329.346,1414.145,329.33,1414.145,329.33z"
/>
<path
   style="fill:#E0486C;"
   d="M1427.405,241.561c0,0,0.215-0.371,0.538-0.928c0.325-0.567,0.778-1.301,1.261-2.018     c0.479-0.725,0.978-1.456,1.362-2.005c0.386-0.541,0.657-0.888,0.657-0.888s0.276-0.355,0.689-0.888     c0.42-0.526,0.986-1.264,1.587-1.945c0.598-0.687,1.219-1.375,1.695-1.892c0.475-0.517,0.802-0.857,0.802-0.857     s1.282-1.333,2.675-2.665c1.386-1.296,2.888-2.552,2.888-2.552c2.001-1.638,4.194-2.477,6.438-2.422     c0.541,0.007,1.082,0.063,1.62,0.166c0.536,0.123,1.07,0.295,1.597,0.515c1.054,0.443,2.085,1.055,3.053,1.936     c0,0,0.359,0.326,0.897,0.816c0.531,0.499,1.234,1.124,1.902,1.818c1.346,1.368,2.583,2.733,2.583,2.733s1.258,1.414,2.407,2.817     c0.581,0.688,1.125,1.449,1.529,1.985c0.397,0.544,0.663,0.907,0.663,0.907s0.191,0.272,0.526,0.747     c0.331,0.472,0.784,1.191,1.307,2.023c0.522,0.837,1.11,1.797,1.678,2.881c0.571,1.076,1.159,2.174,1.67,3.346     c1.054,2.281,1.871,4.606,2.397,6.317c0.51,1.748,0.777,2.869,0.777,2.869s0.09,0.385,0.205,0.966     c0.117,0.579,0.262,1.344,0.389,2.096c0.134,0.743,0.212,1.531,0.281,2.089c0.059,0.563,0.098,0.938,0.098,0.938     s0.037,0.37,0.094,0.924c0.04,0.568,0.084,1.316,0.111,2.048c0.033,0.728,0.04,1.453,0.023,2.009     c-0.014,0.544-0.024,0.906-0.024,0.906s-0.008,0.179-0.022,0.493c-0.02,0.317-0.029,0.745-0.086,1.289     c-0.112,1.091-0.243,2.448-0.522,3.834c-0.131,0.685-0.267,1.349-0.412,1.966c-0.16,0.631-0.317,1.204-0.457,1.688     c-0.141,0.484-0.259,0.875-0.35,1.153c-0.097,0.28-0.152,0.439-0.152,0.439c-0.596,1.682-1.524,2.879-2.74,3.785     c-0.599,0.445-1.22,0.717-1.854,0.847c-0.641,0.136-1.229,0.077-1.876-0.067c-1.234-0.345-2.367-0.874-3.361-1.755     c0,0-0.095-0.083-0.272-0.238c-0.166-0.171-0.457-0.358-0.797-0.635c-0.7-0.525-1.708-1.274-3.033-1.971     c-1.312-0.718-2.927-1.395-4.767-1.895c-1.844-0.508-3.919-0.851-5.911-0.852c-4.01-0.112-7.939,1.053-10.639,2.453     c-1.354,0.69-2.436,1.369-3.141,1.91c-0.374,0.243-0.636,0.475-0.823,0.621c-0.188,0.145-0.289,0.223-0.289,0.223     c-1.037,0.852-2.14,1.389-3.42,1.654c-0.606,0.159-1.244,0.154-1.87,0.006c-0.607-0.134-1.221-0.426-1.809-0.891     c-1.174-0.929-2.119-2.188-2.613-3.885c0,0-0.426-1.284-0.718-2.596c-0.153-0.658-0.307-1.347-0.396-1.851     c-0.084-0.507-0.14-0.846-0.14-0.846s-0.049-0.342-0.122-0.855c-0.071-0.518-0.16-1.222-0.205-1.91     c-0.053-0.695-0.092-1.407-0.114-1.949c-0.013-0.273-0.018-0.496-0.017-0.649c-0.001-0.155-0.001-0.244-0.001-0.244     s-0.005-1.433,0.086-2.919c0.106-1.449,0.293-2.97,0.293-2.97s0.193-1.472,0.473-3.01c0.288-1.504,0.686-3.037,0.686-3.037     s0.095-0.393,0.268-0.954c0.172-0.562,0.413-1.319,0.673-2.085c0.254-0.776,0.546-1.525,0.775-2.089     c0.232-0.569,0.387-0.949,0.387-0.949s0.157-0.384,0.392-0.961c0.24-0.578,0.59-1.315,0.952-2.077     C1426.551,243.037,1427.405,241.561,1427.405,241.561z M1433.364,258.632c-0.642,1.785-0.556,3.43-0.011,4.798     c0.286,0.718,0.711,1.263,1.259,1.646c0.547,0.378,1.241,0.661,2.05,0.759c1.614,0.295,3.267,0.251,5.095-0.054     c0,0,0.69-0.09,1.725-0.224c1.039-0.087,2.427-0.216,3.824-0.164c1.396-0.004,2.793,0.16,3.842,0.277     c1.047,0.168,1.746,0.281,1.746,0.281c1.881,0.375,3.511,0.456,5.172,0.207c0.793-0.083,1.474-0.324,2.036-0.716     c0.553-0.374,0.988-0.9,1.294-1.612c0.588-1.37,0.706-2.978,0.116-4.793c0,0-0.084-0.259-0.231-0.713     c-0.147-0.465-0.38-1.093-0.686-1.857c-0.597-1.553-1.537-3.576-2.679-5.596c-0.575-0.982-1.186-2.002-1.802-2.922     c-0.618-0.904-1.232-1.757-1.778-2.49c-0.547-0.726-1.031-1.294-1.373-1.711c-0.347-0.412-0.545-0.647-0.545-0.647     c-0.71-0.854-1.479-1.445-2.272-1.873c-0.396-0.212-0.799-0.378-1.205-0.496c-0.407-0.099-0.817-0.151-1.227-0.156     c-1.702-0.046-3.367,0.777-4.84,2.377c0,0-0.846,0.92-1.986,2.3c-0.567,0.719-1.203,1.555-1.845,2.442     c-0.641,0.898-1.277,1.903-1.876,2.868c-0.596,0.98-1.138,2.007-1.618,2.927c-0.478,0.931-0.873,1.847-1.2,2.593     c-0.328,0.743-0.568,1.395-0.731,1.845C1433.455,258.376,1433.364,258.632,1433.364,258.632z"
/>
<path
   style="fill:#E0486C;"
   d="M1472.563,287.323c-0.697,0.278-1.257,0.666-1.679,1.127c-0.418,0.461-0.763,1.019-0.927,1.624     c-0.405,1.237-0.49,2.444-0.269,3.749c0,0,0.014,0.124,0.04,0.341c0.019,0.217,0.09,0.523,0.12,0.896     c0.055,0.746,0.16,1.74,0.115,2.745c0.022,0.501-0.051,1.005-0.063,1.478c-0.03,0.473-0.113,0.915-0.135,1.296     c-0.137,0.759-0.204,1.272-0.204,1.272l10.445,1.998c0.855-0.849,1.914-1.249,3.167-1.069c1.475,0.216,2.864,0.964,4.146,2.468     l17.759,3.397c0,0-0.338-0.549-0.93-1.509c-0.298-0.472-0.661-1.037-1.081-1.669c-0.43-0.633-0.949-1.337-1.501-2.076     c-2.222-2.979-5.499-6.507-9.113-9.222c-3.602-2.758-7.439-4.695-10.355-5.76c-1.469-0.539-2.677-0.896-3.525-1.122     c-0.866-0.219-1.349-0.323-1.349-0.323C1475.527,286.571,1473.941,286.772,1472.563,287.323z"
/>
<path
   style="fill:#00BF33;"
   d="M1476.892,308.965c0,0-0.062,0.163-0.17,0.449c-0.094,0.292-0.279,0.686-0.492,1.163     c-0.392,0.97-1.063,2.191-1.745,3.403c-0.74,1.178-1.504,2.346-2.168,3.157c-0.324,0.411-0.578,0.767-0.791,0.988     c-0.2,0.231-0.315,0.363-0.315,0.363c-1.228,1.395-2.095,2.835-2.73,4.33c-0.307,0.785-0.49,1.455-0.431,2.149     c0.052,0.686,0.292,1.331,0.751,1.948c0.899,1.206,2.202,2.071,4.093,2.499c0,0,0.27,0.067,0.734,0.157     c0.461,0.087,1.127,0.206,1.949,0.334c0.831,0.138,1.783,0.243,2.835,0.331c0.525,0.043,1.081,0.089,1.643,0.117     c0.561,0.013,1.13,0.026,1.7,0.039c0.575,0.004,1.167,0.01,1.74-0.007c0.574-0.029,1.139-0.058,1.685-0.086     c0.559-0.041,1.099-0.081,1.612-0.118c0.508-0.061,0.989-0.118,1.432-0.171c0.894-0.116,1.657-0.23,2.189-0.317     c0.523-0.1,0.821-0.157,0.821-0.157c1.058-0.214,2.012-0.545,2.767-1.035c0.751-0.492,1.369-1.101,1.812-1.827     c0.405-0.714,0.651-1.525,0.723-2.413c0.054-0.898-0.092-1.887-0.409-2.921c0,0-0.093-0.29-0.256-0.799     c-0.179-0.511-0.437-1.235-0.759-2.076c-0.163-0.422-0.332-0.869-0.532-1.342c-0.21-0.469-0.431-0.963-0.661-1.474     c-0.235-0.494-0.478-1.004-0.724-1.523c-0.258-0.512-0.545-1.031-0.822-1.535c-0.555-1.009-1.126-1.977-1.725-2.868     c-0.591-0.888-1.11-1.669-1.634-2.339c-1.013-1.329-1.697-2.133-1.697-2.133l-7.311-1.399c-0.206,0.183-0.406,0.38-0.595,0.61     C1478.387,305.776,1477.547,307.198,1476.892,308.965z"
/>
<path
   style="fill:#00BF33;"
   d="M1424.164,326.302c0.479-0.606,0.732-1.251,0.785-1.916c0.068-0.685-0.048-1.408-0.353-2.146     c-0.548-1.551-1.418-2.976-2.599-4.417c0,0-0.108-0.139-0.298-0.382c-0.186-0.246-0.482-0.573-0.773-1.016     c-0.305-0.432-0.68-0.923-1.02-1.49c-0.376-0.544-0.716-1.162-1.072-1.77c-0.192-0.297-0.327-0.624-0.492-0.928     c-0.151-0.311-0.336-0.601-0.46-0.907c-0.258-0.606-0.554-1.149-0.726-1.648c-0.41-0.971-0.621-1.641-0.621-1.641     c-0.607-1.751-1.4-3.223-2.382-4.506c-0.523-0.635-1.024-1.12-1.641-1.421c-0.611-0.301-1.3-0.423-2.068-0.334     c-1.48,0.173-2.889,0.875-4.218,2.287c0,0-0.24,0.265-0.588,0.676c-0.35,0.411-0.815,0.971-1.279,1.554     c-0.471,0.583-0.877,1.176-1.208,1.636c-0.322,0.464-0.537,0.773-0.537,0.773s-0.216,0.314-0.539,0.785     c-0.305,0.472-0.709,1.114-1.108,1.777c-0.407,0.665-0.789,1.345-1.053,1.858c-0.271,0.521-0.451,0.869-0.451,0.869     s-0.723,1.416-1.314,2.899c-0.302,0.74-0.618,1.51-0.816,2.082c-0.199,0.578-0.331,0.963-0.331,0.963     c-0.735,2.059-0.626,3.892,0.171,5.339c0.418,0.712,0.98,1.345,1.728,1.842c0.76,0.49,1.671,0.866,2.719,1.107     c0,0,1.632,0.352,3.199,0.616c1.603,0.251,3.162,0.398,3.162,0.398s0.097,0.008,0.267,0.023c0.168,0.016,0.411,0.034,0.71,0.047     c0.592,0.03,1.373,0.061,2.139,0.076c0.758,0.024,1.533,0.002,2.105-0.02c0.567-0.024,0.946-0.04,0.946-0.04     s0.372-0.016,0.93-0.041c0.555-0.029,1.314-0.106,2.042-0.183c1.452-0.138,2.884-0.42,2.884-0.42     C1421.869,328.339,1423.242,327.467,1424.164,326.302z"
/>
<path
   style="fill:#00BF33;"
   d="M1433.353,263.43c0.286,0.718,0.711,1.263,1.259,1.646c0.547,0.378,1.241,0.661,2.05,0.759     c1.614,0.295,3.267,0.251,5.095-0.054c0,0,0.69-0.09,1.725-0.224c1.039-0.087,2.427-0.216,3.824-0.164     c1.396-0.004,2.793,0.16,3.842,0.277c1.047,0.168,1.746,0.281,1.746,0.281c1.881,0.375,3.511,0.456,5.172,0.207     c0.793-0.083,1.474-0.324,2.036-0.716c0.553-0.374,0.988-0.9,1.294-1.612c0.588-1.37,0.706-2.978,0.116-4.793     c0,0-0.084-0.259-0.231-0.713c-0.147-0.465-0.38-1.093-0.686-1.857c-0.597-1.553-1.537-3.576-2.679-5.596     c-0.575-0.982-1.186-2.002-1.802-2.922c-0.618-0.904-1.232-1.757-1.778-2.49c-0.547-0.726-1.031-1.294-1.373-1.711     c-0.347-0.412-0.545-0.647-0.545-0.647c-0.71-0.854-1.479-1.445-2.272-1.873c-0.396-0.212-0.799-0.378-1.205-0.496     c-0.407-0.099-0.817-0.151-1.227-0.156c-1.702-0.046-3.367,0.777-4.84,2.377c0,0-0.846,0.92-1.986,2.3     c-0.567,0.719-1.203,1.555-1.845,2.442c-0.641,0.898-1.277,1.903-1.876,2.868c-0.596,0.98-1.138,2.007-1.618,2.927     c-0.478,0.931-0.873,1.847-1.2,2.593c-0.328,0.743-0.568,1.395-0.731,1.845c-0.16,0.447-0.252,0.703-0.252,0.703     C1432.721,260.416,1432.807,262.062,1433.353,263.43z"
/>
<path
   style="fill:#00BF33;"
   d="M1480.005,303.848l7.313,1.399c-1.282-1.504-2.672-2.252-4.146-2.468     C1481.919,302.599,1480.86,302.999,1480.005,303.848z"
/>
<path
   style="fill:#FFA227;"
   d="M1446.337,297.869c-4.464,7.563-10.311,5.188-10.311,5.188s0.858-6.121,9.76-6.121     c-8.903,0-9.76-6.121-9.76-6.121s5.847-2.375,10.311,5.188c-4.458-7.552,0.551-11.328,0.551-11.328s5.009,3.776,0.551,11.328     c4.464-7.563,10.311-5.188,10.311-5.188s-0.858,6.121-9.76,6.121c8.903,0,9.76,6.121,9.76,6.121s-5.847,2.375-10.311-5.188     c4.458,7.552-0.551,11.328-0.551,11.328S1441.879,305.421,1446.337,297.869z"
/>
<path
   style="fill:#75CBEA;"
   d="M1449.603,296.935c0,1.499-1.215,2.714-2.715,2.714s-2.715-1.215-2.715-2.714     c0-1.499,1.215-2.715,2.715-2.715S1449.603,295.436,1449.603,296.935z"
/>
</g>
</svg>
