<?xml version="1.0" encoding="UTF-8" standalone="no"?>
<svg
  version="1.1"
  viewBox="30 620 400 400"
  xmlns="http://www.w3.org/2000/svg">
<g fill="none">
<path
   style="fill:#FFA227;"
   d="M330.446,848.574c-0.337,0.942-0.01,2.112,0.989,3.57c0.475,0.72,0.789,1.392,0.941,2.006       c0.132,0.607,0.088,1.15-0.108,1.631c-0.412,0.999-1.686,1.314-3.782,0.976c-2.099-0.329-4.438-1.062-6.968-2.153       c-2.54-1.094-4.856-1.853-6.911-2.281c-2.13-0.453-3.329-0.296-3.688,0.466c-0.36,0.762,0.281,1.782,2.001,3.115       c1.675,1.308,3.745,2.629,6.211,3.868c2.463,1.236,4.541,2.527,6.144,3.912c1.601,1.39,2.163,2.586,1.672,3.511       c-0.499,0.918-1.564,1.533-3.303,1.704c-1.779,0.192-2.887,0.687-3.4,1.551c-0.491,0.878-0.47,2.061,0.148,3.695       c0.576,1.606,0.567,2.876-0.027,3.774c-0.605,0.845-1.942,0.838-3.905,0.019c-1.973-0.814-4.081-2.072-6.289-3.721       c-2.217-1.653-4.313-2.91-6.223-3.806c-1.961-0.94-3.079-1.027-3.634-0.399c-0.556,0.666-0.164,1.779,1.194,3.469       c1.315,1.661,3.022,3.418,5.137,5.199c2.109,1.774,3.838,3.519,5.093,5.254c1.267,1.752,1.507,3.021,0.808,3.801       c-0.703,0.775-1.925,1.087-3.627,0.931c-1.738-0.243-2.958-0.041-3.663,0.676c-0.355,0.356-0.587,0.836-0.697,1.448       c-0.055,0.306-0.079,0.645-0.075,1.016c-0.005,0.362,0.02,0.757,0.075,1.187c0.155,1.709-0.158,2.935-0.93,3.641       c-0.389,0.351-0.896,0.472-1.538,0.33c-0.647-0.147-1.408-0.535-2.275-1.161c-1.729-1.257-3.469-2.989-5.237-5.103       c-1.775-2.121-3.526-3.831-5.182-5.146c-1.685-1.359-2.796-1.748-3.462-1.186c-0.668,0.508-0.558,1.667,0.371,3.625       c0.892,1.916,2.145,4.017,3.793,6.238c1.643,2.212,2.898,4.325,3.708,6.304c0.813,1.966,0.832,3.325-0.046,3.888       c-0.896,0.602-2.163,0.617-3.766,0.048c-1.618-0.591-2.854-0.69-3.714-0.164c-0.862,0.523-1.356,1.642-1.547,3.431       c-0.213,1.673-0.804,2.786-1.724,3.288c-0.925,0.496-2.106-0.034-3.511-1.661c-1.397-1.624-2.694-3.711-3.93-6.174       c-1.241-2.471-2.561-4.536-3.868-6.204c-1.332-1.713-2.349-2.341-3.109-1.967c-0.75,0.395-0.939,1.528-0.491,3.649       c0.432,2.063,1.194,4.383,2.289,6.922c1.092,2.53,1.828,4.872,2.161,6.98c0.341,2.1,0.036,3.399-0.963,3.811       c-0.976,0.358-2.216,0.073-3.648-0.857c-1.449-0.977-2.607-1.272-3.568-0.996c-0.989,0.311-1.729,1.277-2.298,2.956       c-0.146,0.407-0.306,0.775-0.479,1.102c-0.176,0.318-0.368,0.587-0.572,0.82c-0.408,0.464-0.867,0.765-1.373,0.899       c-1.014,0.268-2.056-0.55-3.033-2.429c-0.978-1.871-1.797-4.199-2.432-6.882c-0.638-2.691-1.414-5.014-2.301-6.943       c-0.908-1.977-1.746-2.833-2.57-2.654c-0.825,0.171-1.248,1.331-1.305,3.465c-0.054,2.101,0.153,4.532,0.633,7.255       c0.48,2.713,0.648,5.16,0.495,7.281c-0.151,2.121-0.781,3.298-1.815,3.47c-0.258,0.043-0.522,0.043-0.79,0       c-0.27-0.054-0.546-0.157-0.826-0.299c-0.56-0.286-1.138-0.742-1.727-1.366c-1.184-1.305-2.241-1.866-3.271-1.767       c-0.995,0.058-1.937,0.814-2.878,2.303c-0.944,1.436-1.967,2.223-3.005,2.209c-1.079,0.012-1.87-1.036-2.385-3.097       c-0.524-2.061-0.773-4.499-0.769-7.255c0.003-2.766-0.211-5.194-0.627-7.253c-0.424-2.112-1.039-3.172-1.88-3.198       c-0.841-0.032-1.525,0.957-2.071,3.062c-0.541,2.054-0.939,4.476-1.106,7.236c-0.165,2.756-0.533,5.174-1.174,7.192       c-0.646,2.018-1.524,3.005-2.568,2.916c-0.521-0.044-1.027-0.262-1.509-0.648c-0.241-0.193-0.476-0.429-0.704-0.706       c-0.227-0.292-0.447-0.628-0.659-1.004c-0.88-1.562-1.774-2.389-2.772-2.523c-0.498-0.068-1.022,0.043-1.577,0.319       c-0.552,0.251-1.138,0.678-1.768,1.282c-1.251,1.158-2.422,1.646-3.485,1.45c-0.256-0.048-0.482-0.156-0.676-0.326       c-0.193-0.183-0.355-0.426-0.486-0.728c-0.262-0.604-0.399-1.443-0.413-2.511c-0.035-2.138,0.284-4.575,0.923-7.255       c0.64-2.69,0.964-5.116,1.026-7.229c0.079-2.162-0.276-3.283-1.1-3.472c-0.839-0.255-1.708,0.534-2.723,2.445       c-1.005,1.86-1.94,4.12-2.734,6.769c-0.79,2.64-1.706,4.917-2.8,6.752c-0.55,0.916-1.097,1.571-1.634,1.96       c-0.539,0.396-1.063,0.511-1.553,0.325c-0.988-0.352-1.758-1.362-2.289-3.002c-0.239-0.838-0.532-1.501-0.885-1.995       c-0.344-0.515-0.742-0.876-1.208-1.066c-0.931-0.385-2.119-0.117-3.627,0.808c-0.381,0.216-0.746,0.393-1.094,0.53       c-0.343,0.126-0.667,0.208-0.975,0.255c-0.615,0.091-1.162,0.025-1.635-0.198c-0.948-0.446-1.213-1.74-0.761-3.811       c0.457-2.069,1.35-4.343,2.588-6.811c1.239-2.472,2.115-4.764,2.67-6.816c0.583-2.096,0.508-3.283-0.257-3.688       c-0.736-0.395-1.78,0.218-3.202,1.843c-1.396,1.57-2.822,3.55-4.206,5.945c-1.377,2.387-2.814,4.372-4.301,5.892       c-1.478,1.526-2.689,2.036-3.582,1.505c-0.939-0.529-1.431-1.72-1.528-3.437c-0.068-1.76-0.498-2.883-1.337-3.436       c-0.818-0.583-2.012-0.628-3.716-0.11c-0.819,0.247-1.547,0.352-2.176,0.319c-0.314-0.017-0.605-0.068-0.867-0.155       c-0.254-0.098-0.483-0.231-0.684-0.397c-0.808-0.667-0.757-1.997,0.169-3.913c0.93-1.912,2.331-3.922,4.104-6.031       c1.779-2.117,3.15-4.138,4.156-5.983c1.025-1.871,1.234-3.089,0.607-3.652c-0.623-0.568-1.777-0.248-3.554,1.008       c-1.735,1.224-3.57,2.846-5.471,4.854c-1.894,2.003-3.765,3.614-5.554,4.737c-1.787,1.135-3.077,1.344-3.841,0.581l-7.364,7.34       c0,0,0.686,0.686,1.974,1.973c0.647,0.639,1.501,1.369,2.472,2.261c0.981,0.881,2.079,1.93,3.415,2.979       c5.194,4.355,13.066,10.148,23.506,15.328c1.317,0.619,2.662,1.251,4.033,1.895c0.677,0.341,1.397,0.602,2.108,0.901       c0.714,0.292,1.434,0.587,2.16,0.885c0.729,0.291,1.452,0.616,2.202,0.888c0.753,0.264,1.513,0.531,2.278,0.799       c1.534,0.526,3.068,1.129,4.684,1.563c1.606,0.459,3.218,0.986,4.877,1.415c1.666,0.403,3.353,0.811,5.058,1.224       c1.716,0.357,3.463,0.659,5.218,1.001c0.876,0.187,1.767,0.299,2.661,0.418c0.894,0.122,1.792,0.245,2.693,0.369       c7.222,0.9,14.765,1.161,22.387,0.658c7.62-0.498,15.314-1.759,22.812-3.771c7.499-2.008,14.799-4.764,21.661-8.138       c6.864-3.37,13.287-7.356,19.104-11.735c11.645-8.765,20.834-19.035,27.224-28.749c1.672-2.385,3.041-4.817,4.416-7.085       c0.669-1.145,1.24-2.306,1.842-3.408c0.582-1.113,1.195-2.17,1.67-3.254c0.503-1.07,0.99-2.106,1.459-3.106       c0.23-0.502,0.48-0.984,0.682-1.477s0.399-0.977,0.592-1.451c0.388-0.947,0.761-1.856,1.117-2.724       c0.175-0.435,0.362-0.854,0.515-1.275c0.148-0.422,0.292-0.834,0.432-1.235c0.565-1.603,1.07-3.034,1.509-4.28       c0.375-1.267,0.693-2.345,0.951-3.219c0.52-1.747,0.797-2.679,0.797-2.679l-10.041-2.699c-0.303,1.006-1.274,1.823-2.88,2.418       c-0.828,0.29-1.478,0.622-1.958,1.008C330.947,847.653,330.632,848.089,330.446,848.574z"
/>
<path
   style="fill:#00BF33;"
   d="M272.647,940.678l-3.194,0.683l-0.01,0.716l0.003-0.715l-0.887,0.189l-0.048,0.05       c0,0-0.105,0.13-0.211,0.26c-0.107,0.124-0.215,0.249-0.215,0.249l-0.473,0.502c0,0,0.224-0.248,0.448-0.496       c0.224-0.243,0.441-0.506,0.441-0.506c-0.079,0.089-0.17,0.177-0.26,0.254c-0.6,0.548-1.427,0.959-2.473,1.237       c-0.963,0.256-1.825,0.327-2.577,0.198c-0.174-0.028-0.342-0.067-0.505-0.116l1.237,0.406l-0.672-0.198l-0.59-0.214       l-0.093-0.023c0,0-0.222,0.082-0.445,0.163c-0.225,0.072-0.45,0.143-0.45,0.143l0.355,0.616l-0.358-0.615l-3.082,0.979       c0,0-1.004,0.308-2.009,0.615c-0.501,0.164-1.011,0.283-1.392,0.381c-0.382,0.097-0.636,0.162-0.636,0.162       s0.471-0.077,0.942-0.154c0.472-0.069,0.939-0.171,0.939-0.171l3.732-0.798l-3.732,0.798c0,0-0.466,0.102-0.939,0.171       c-0.471,0.077-0.942,0.154-0.942,0.154l-0.965,0.158l-0.965,0.158l-0.918,0.15l-0.965,0.158c0,0-0.471,0.077-0.942,0.154       c-0.474,0.055-0.948,0.11-0.948,0.11s-1.876,0.213-5.16,0.585c-1.646,0.138-3.65,0.243-5.946,0.396       c-0.287,0.018-0.579,0.036-0.875,0.054c-0.297,0.004-0.598,0.009-0.904,0.013c-0.611,0.009-1.24,0.018-1.885,0.027       c-1.291,0.01-2.648,0.056-4.064,0.038c-5.663-0.117-12.265-0.587-19.264-1.681c-6.983-1.173-14.334-2.971-21.488-5.384       l-2.67-0.94c-0.885-0.325-1.789-0.598-2.651-0.975c-1.74-0.713-3.473-1.424-5.193-2.128c-1.693-0.766-3.354-1.567-5.005-2.337       c-0.412-0.194-0.823-0.388-1.232-0.581c-0.4-0.213-0.798-0.424-1.195-0.636c-0.793-0.422-1.581-0.842-2.362-1.258       c-6.216-3.384-11.794-6.967-16.284-10.421c-4.55-3.376-8.08-6.522-10.508-8.76c-1.244-1.089-2.14-2.029-2.77-2.651       c-0.626-0.625-0.961-0.959-0.961-0.959l-7.364,7.339c1.002,1,0.975,2.47,0.038,4.455c0,0-0.177,0.375-0.443,0.939       c-0.26,0.563-0.606,1.314-0.952,2.065c-0.67,1.506-1.34,3.012-1.34,3.012c-0.866,2.009-0.736,3.56,0.377,4.565       c1.117,1,2.654,0.991,4.571-0.135c0,0,1.431-0.848,2.862-1.696c1.414-0.863,2.828-1.726,2.828-1.726       c1.87-1.142,3.343-1.305,4.406-0.435c1.049,0.889,1.269,2.306,0.581,4.393c-0.689,2.066-1.875,4.228-3.522,6.437l-4.98,6.675       c-1.654,2.216-2.768,4.42-3.342,6.569c-0.603,2.185-0.175,3.778,1.181,4.738c1.377,0.931,2.999,0.803,4.859-0.505       c1.823-1.27,3.466-3.1,4.986-5.41l4.58-6.955c1.516-2.301,3.18-4.127,4.895-5.471c0.853-0.675,1.633-1.095,2.346-1.25       c0.714-0.157,1.383-0.081,1.989,0.287c1.17,0.702,1.491,2.13,1.044,4.272c0,0-0.319,1.632-0.638,3.263       c-0.299,1.643-0.597,3.286-0.597,3.286c-0.392,2.163,0.078,3.601,1.389,4.307c1.363,0.728,2.835,0.307,4.419-1.195       c0,0,1.187-1.142,2.375-2.284c1.176-1.172,2.353-2.343,2.353-2.343c1.557-1.552,2.957-2.065,4.202-1.481       c1.245,0.584,1.759,1.997,1.563,4.185c-0.188,2.16-0.788,4.555-1.877,7.086l-3.293,7.649c-1.094,2.54-1.719,4.915-1.777,7.129       c-0.069,2.266,0.717,3.68,2.253,4.305c0.767,0.312,1.536,0.351,2.298,0.101c0.766-0.26,1.532-0.827,2.286-1.681       c1.48-1.669,2.655-3.834,3.6-6.433l2.846-7.826c0.942-2.589,2.15-4.753,3.5-6.471c1.352-1.717,2.688-2.372,3.984-1.918       c0.646,0.237,1.139,0.669,1.483,1.31c0.342,0.648,0.529,1.52,0.564,2.61c0,0,0.054,1.648,0.109,3.297       c0.076,1.654,0.152,3.309,0.152,3.309c0.116,2.19,0.887,3.526,2.366,3.954c1.441,0.354,2.777-0.412,3.975-2.25       c0,0,0.908-1.39,1.816-2.781c0.886-1.396,1.772-2.792,1.772-2.792c0.571-0.927,1.16-1.59,1.77-1.982       c0.305-0.196,0.616-0.324,0.933-0.384c0.32-0.072,0.647-0.078,0.982-0.014c1.39,0.265,2.177,1.493,2.486,3.656       c0.317,2.166,0.267,4.642-0.215,7.354l-1.46,8.199c-0.485,2.722-0.554,5.185-0.109,7.371c0.224,1.116,0.603,1.993,1.136,2.599       c0.534,0.599,1.219,0.951,2.039,1.065c1.643,0.23,3.043-0.599,4.108-2.595c1.06-1.945,1.768-4.305,2.093-7.052l0.981-8.27       c0.325-2.736,0.952-5.116,1.872-7.08c0.937-1.992,2.08-2.957,3.449-2.839c1.37,0.118,2.325,1.263,2.894,3.387       c0,0,0.431,1.603,0.862,3.206c0.455,1.583,0.911,3.167,0.911,3.167c0.618,2.094,1.725,3.197,3.225,3.249       c1.499,0.046,2.661-0.957,3.416-3.032c0,0,0.551-1.571,1.102-3.142c0.528-1.572,1.056-3.143,1.056-3.143       c0.687-2.078,1.68-3.153,3.096-3.174c1.365-0.002,2.415,0.986,3.217,3.006c0.81,2.023,1.335,4.437,1.494,7.188l0.478,8.314       c0.158,2.761,0.71,5.165,1.664,7.177c0.943,2.065,2.245,2.991,3.891,2.877c1.704-0.158,2.824-1.315,3.397-3.509       c0.593-2.149,0.722-4.613,0.401-7.359l-0.964-8.272c-0.319-2.737-0.261-5.202,0.178-7.335c0.449-2.149,1.35-3.267,2.704-3.511       c1.357-0.22,2.56,0.658,3.595,2.585c0,0,0.791,1.456,1.582,2.911c0.813,1.451,1.626,2.903,1.626,2.903       c1.106,1.933,2.42,2.711,3.888,2.407c1.467-0.312,2.357-1.589,2.614-3.761c0,0,0.175-1.639,0.35-3.278       c0.077-0.824,0.153-1.648,0.211-2.265c0.052-0.62,0.087-1.034,0.087-1.034c0.185-2.188,0.938-3.483,2.266-3.836       c1.328-0.354,2.621,0.403,3.885,2.198c1.245,1.777,2.273,4.014,3.064,6.654l2.39,7.978c0.793,2.649,1.885,4.857,3.276,6.588       c1.392,1.785,2.868,2.376,4.494,1.854c0.782-0.255,1.388-0.703,1.794-1.396c0.405-0.698,0.62-1.611,0.643-2.749       c0.076-2.232-0.37-4.662-1.317-7.26l-2.85-7.825c-0.942-2.589-1.417-5.019-1.476-7.204c-0.067-2.182,0.499-3.524,1.776-4.001       c1.309-0.536,2.635,0.037,4.086,1.673c0,0,1.103,1.231,2.206,2.461c1.124,1.221,2.247,2.442,2.247,2.442       c1.507,1.596,3.006,2.145,4.345,1.475c1.349-0.65,1.926-2.108,1.664-4.281c0,0-0.209-1.638-0.418-3.277       c-0.229-1.629-0.458-3.257-0.458-3.257c-0.301-2.149,0.109-3.607,1.319-4.256c1.206-0.656,2.632-0.227,4.275,1.232       c1.632,1.465,3.151,3.417,4.527,5.805l4.158,7.216c1.38,2.397,2.959,4.286,4.696,5.654c1.761,1.414,3.371,1.62,4.785,0.757       c1.409-0.87,1.96-2.361,1.483-4.605c-0.453-2.186-1.485-4.424-3.002-6.736l-4.569-6.963c-1.511-2.304-2.532-4.561-3.094-6.679       c-0.568-2.113-0.329-3.554,0.841-4.348c1.141-0.747,2.545-0.519,4.332,0.741c0,0,1.365,0.934,2.729,1.868       c1.383,0.92,2.766,1.839,2.766,1.839c1.824,1.214,3.364,1.4,4.54,0.492c1.194-0.978,1.381-2.507,0.625-4.565       c0,0-0.581-1.55-1.162-3.099c-0.599-1.536-1.198-3.071-1.198-3.071c-0.397-1.015-0.567-1.889-0.508-2.619       c0.055-0.735,0.321-1.349,0.832-1.808c1.017-0.923,2.507-0.846,4.431,0.201c1.922,1.048,3.888,2.56,5.776,4.567l5.706,6.066       c1.895,2.015,3.831,3.541,5.853,4.491c2.048,0.961,3.647,0.792,4.821-0.381c1.173-1.174,1.342-2.778,0.388-4.829       c-0.919-2.003-2.444-3.949-4.453-5.851l-6.048-5.725c-2-1.895-3.507-3.867-4.552-5.794c-1.043-1.929-1.119-3.423-0.197-4.442       c0.917-1.024,2.433-1.083,4.443-0.301c0,0,1.532,0.601,3.064,1.202c1.546,0.583,3.093,1.167,3.093,1.167       c2.054,0.759,3.581,0.571,4.558-0.626c0.96-1.139,0.74-2.71-0.462-4.533c0,0-0.918-1.388-1.837-2.775       c-0.933-1.369-1.866-2.738-1.866-2.738c-1.255-1.79-1.502-3.212-0.71-4.323c0.789-1.176,2.226-1.417,4.334-0.849       c2.113,0.562,4.368,1.584,6.669,3.098l6.956,4.579c2.31,1.521,4.545,2.555,6.728,3.006c2.236,0.473,3.793-0.039,4.635-1.473       c0.858-1.423,0.649-3.041-0.766-4.809c-1.37-1.743-3.26-3.326-5.656-4.707l-7.212-4.163c-2.386-1.378-4.326-2.894-5.769-4.515       c-1.441-1.635-1.893-3.076-1.242-4.286c0.647-1.213,2.075-1.641,4.25-1.327c0,0,1.645,0.237,3.29,0.473       c1.636,0.207,3.271,0.414,3.271,0.414c2.167,0.258,3.616-0.326,4.253-1.683c0.636-1.358,0.154-2.828-1.433-4.331       c0,0-1.228-1.126-2.455-2.252c-1.237-1.105-2.474-2.211-2.474-2.211c-1.64-1.451-2.238-2.788-1.703-4.098       c0.258-0.632,0.729-1.085,1.412-1.373c0.675-0.29,1.54-0.422,2.629-0.389c2.175,0.055,4.6,0.526,7.189,1.467l7.827,2.845       c2.599,0.945,5.024,1.388,7.246,1.308c2.266-0.049,3.626-0.876,4.165-2.428c0.139-0.403,0.21-0.796,0.206-1.182       c-0.016-0.389-0.102-0.77-0.259-1.143c-0.315-0.747-0.917-1.463-1.816-2.16c-1.744-1.391-3.958-2.484-6.607-3.277l-7.978-2.39       c-2.639-0.791-4.882-1.819-6.671-3.067c-1.785-1.26-2.512-2.543-2.125-3.859l-10.04-2.699c0,0-0.544,1.838-1.496,5.056       c-0.119,0.402-0.245,0.826-0.376,1.27c-0.136,0.443-0.31,0.896-0.473,1.375c-0.336,0.954-0.699,1.986-1.087,3.088       c-0.721,2.225-1.805,4.633-2.875,7.303c-0.139,0.332-0.269,0.671-0.419,1.006c-0.156,0.332-0.313,0.668-0.473,1.006       c-0.318,0.677-0.642,1.367-0.972,2.069c-0.664,1.401-1.314,2.868-2.12,4.308c-0.779,1.452-1.56,2.955-2.395,4.471       c-0.889,1.485-1.796,3.003-2.72,4.546c-3.815,6.096-8.393,12.283-13.503,18.005c-5.108,5.721-10.699,11.015-16.353,15.461       c-5.645,4.461-11.279,8.13-16.234,11.05c-1.263,0.688-2.473,1.348-3.624,1.976c-0.576,0.313-1.136,0.619-1.682,0.916       c-0.547,0.294-1.098,0.541-1.621,0.801c-1.051,0.51-2.036,0.986-2.946,1.428c-0.455,0.22-0.892,0.432-1.309,0.634       c-0.426,0.183-0.832,0.358-1.217,0.524c-1.543,0.659-2.756,1.176-3.582,1.529c-0.413,0.176-0.73,0.312-0.944,0.403       c-0.212,0.094-0.327,0.13-0.327,0.13c-1.191,0.443-2.421,0.869-3.693,1.278c-0.636,0.204-1.281,0.403-1.937,0.598       C274.013,940.376,273.332,940.521,272.647,940.678z"
/>
<path
   style="fill:#FFA227;"
   d="M153.96,884.864c-0.693-0.721-1.844-1.045-3.587-0.926c-1.706,0.087-2.921-0.288-3.586-1.087       c-0.659-0.856-0.271-2.135,1.076-3.781c1.345-1.657,3.155-3.315,5.368-4.957c2.22-1.649,4.042-3.274,5.45-4.843       c1.452-1.612,1.855-2.685,1.404-3.403c-0.469-0.705-1.664-0.671-3.675,0.143c-1.966,0.788-4.143,1.914-6.456,3.43       c-2.304,1.512-4.472,2.668-6.495,3.373c-2.033,0.705-3.32,0.571-3.872-0.322c-0.544-0.896-0.497-2.155,0.157-3.71       c0.73-1.643,0.865-2.86,0.381-3.744c-0.479-0.887-1.601-1.42-3.297-1.719c-1.672-0.311-2.761-0.959-3.234-1.93       c-0.477-0.927,0.219-2.094,1.909-3.388c1.693-1.306,3.838-2.506,6.368-3.596c2.539-1.096,4.677-2.286,6.409-3.497       c1.785-1.228,2.462-2.177,2.137-2.951c-0.294-0.82-1.45-1.039-3.59-0.708c-2.092,0.309-4.465,0.91-7.064,1.856       c-2.589,0.943-4.963,1.571-7.089,1.792c-1.064,0.107-1.917,0.061-2.551-0.135c-0.628-0.198-1.006-0.558-1.167-1.056       c-0.315-0.999,0.03-2.216,1.02-3.617c0.263-0.345,0.483-0.674,0.66-0.99c0.187-0.318,0.339-0.625,0.444-0.917       c0.211-0.584,0.252-1.116,0.123-1.603c-0.252-0.974-1.203-1.76-2.832-2.421c-1.551-0.718-2.451-1.601-2.672-2.623       c-0.213-1.026,0.629-2.004,2.604-2.885c1.956-0.872,4.327-1.516,7.04-1.994c2.723-0.481,5.081-1.146,7.051-1.924       c2.022-0.782,2.919-1.549,2.772-2.404c-0.165-0.821-1.178-1.306-3.345-1.475c-2.101-0.182-4.545-0.144-7.292,0.175       c-2.737,0.32-5.192,0.352-7.307,0.068c-2.11-0.275-3.268-0.939-3.37-1.973c-0.064-1.075,0.566-2.178,1.869-3.279       c1.356-1.105,1.965-2.118,1.98-3.123c-0.011-1.005-0.722-1.989-2.165-3.046c-1.418-1.019-2.034-2.085-2.004-3.13       c0.038-1.047,1.125-1.8,3.207-2.2c2.082-0.395,4.527-0.471,7.278-0.306c2.755,0.164,5.205,0.058,7.312-0.235       c2.157-0.292,3.222-0.853,3.293-1.693c0.071-0.84-0.886-1.576-2.958-2.252c-1.993-0.659-4.378-1.163-7.124-1.489       c-2.736-0.324-5.127-0.862-7.109-1.629c-1.983-0.757-2.928-1.669-2.783-2.74c0.071-0.515,0.307-1.007,0.723-1.466       c0.44-0.456,1.049-0.88,1.821-1.265c1.596-0.76,2.464-1.609,2.645-2.593c0.049-0.255,0.048-0.518,0.014-0.788       c-0.024-0.268-0.091-0.545-0.202-0.831c-0.221-0.574-0.617-1.187-1.189-1.853c-1.092-1.319-1.522-2.514-1.28-3.536       c0.301-1.008,1.555-1.497,3.684-1.401c2.13,0.093,4.545,0.544,7.184,1.336c2.649,0.794,5.042,1.281,7.142,1.469       c1.076,0.098,1.899,0.068,2.481-0.088c0.291-0.078,0.522-0.188,0.695-0.329c0.183-0.137,0.313-0.304,0.385-0.504       c0.288-0.797-0.453-1.728-2.304-2.858c-1.805-1.104-4.02-2.142-6.619-3.087c-2.59-0.94-4.801-2.02-6.574-3.219       c-0.884-0.598-1.519-1.186-1.865-1.74c-0.338-0.55-0.408-1.075-0.208-1.559c0.399-0.968,1.441-1.673,3.087-2.082       c0.424-0.097,0.804-0.21,1.143-0.34c0.349-0.125,0.663-0.264,0.932-0.422c0.54-0.316,0.916-0.704,1.137-1.172       c0.427-0.902,0.215-2.11-0.62-3.676c-0.74-1.518-0.86-2.77-0.373-3.687c0.511-0.95,1.785-1.13,3.838-0.542       c2.064,0.583,4.311,1.59,6.696,2.968c2.395,1.383,4.615,2.413,6.623,3.09c2.057,0.696,3.249,0.671,3.676-0.053       c0.218-0.361,0.179-0.823-0.078-1.367c-0.255-0.543-0.761-1.19-1.53-1.946c-1.494-1.483-3.386-3.031-5.695-4.553       c-2.301-1.515-4.218-3.043-5.658-4.613c-1.437-1.574-1.87-2.837-1.292-3.71c0.607-0.851,1.817-1.278,3.518-1.279       c0.885,0.001,1.613-0.092,2.194-0.287c0.291-0.097,0.543-0.221,0.763-0.369c0.23-0.14,0.425-0.306,0.585-0.5       c0.641-0.774,0.728-1.978,0.286-3.689c-0.196-0.835-0.278-1.587-0.186-2.201c0.093-0.614,0.32-1.122,0.683-1.521       c0.699-0.77,2.001-0.63,3.851,0.407c1.856,1.03,3.799,2.521,5.799,4.416c2.008,1.899,3.935,3.385,5.747,4.514       c1.84,1.163,3,1.435,3.591,0.841c0.613-0.616,0.341-1.781-0.817-3.626c-1.099-1.79-2.583-3.727-4.477-5.742       c-1.888-2.007-3.396-3.936-4.428-5.792c-1.028-1.86-1.149-3.182-0.375-3.89c0.392-0.347,0.876-0.59,1.512-0.657       c0.632-0.071,1.375-0.011,2.224,0.179c1.701,0.444,2.908,0.349,3.681-0.296c0.799-0.614,1.184-1.751,1.149-3.51       c0.036-1.727,0.447-2.966,1.334-3.528c0.871-0.585,2.131-0.157,3.702,1.277c1.566,1.438,3.09,3.355,4.602,5.659       c1.518,2.311,3.057,4.206,4.543,5.694c1.507,1.527,2.594,2.086,3.336,1.628c0.719-0.435,0.728-1.626,0.027-3.685       c-0.671-2.017-1.676-4.255-3.057-6.651c-1.378-2.388-2.375-4.623-2.943-6.667c-0.577-2.039-0.408-3.337,0.507-3.836       c0.949-0.514,2.186-0.43,3.74,0.374c1.565,0.828,2.759,1.023,3.665,0.58c0.894-0.468,1.545-1.451,1.951-3.184       c0.396-1.657,1.097-2.728,2.065-3.13c0.985-0.361,2.116,0.351,3.316,2.112c1.196,1.763,2.24,3.981,3.184,6.57       c0.947,2.598,2.017,4.796,3.117,6.591c0.559,0.922,1.073,1.564,1.544,1.936c0.473,0.379,0.914,0.52,1.317,0.391       c0.807-0.251,1.107-1.406,0.906-3.569c-0.195-2.111-0.685-4.509-1.479-7.158c-0.792-2.639-1.253-5.057-1.345-7.201       c-0.094-2.117,0.371-3.33,1.414-3.608l-2.692-10.042c0,0-0.235,0.062-0.689,0.182c-0.453,0.126-1.132,0.286-2.006,0.542       c-0.867,0.276-1.937,0.617-3.194,1.017c-0.629,0.199-1.305,0.413-2.027,0.641c-0.709,0.264-1.462,0.545-2.258,0.842       c-0.797,0.295-1.636,0.606-2.516,0.932c-0.886,0.311-1.772,0.742-2.719,1.131c-0.942,0.401-1.923,0.819-2.94,1.252       c-0.996,0.481-2.027,0.979-3.093,1.493c-2.157,0.981-4.337,2.248-6.676,3.504c-1.163,0.64-2.304,1.388-3.502,2.1       c-0.596,0.362-1.199,0.727-1.809,1.097c-0.591,0.399-1.188,0.802-1.792,1.209c-0.604,0.408-1.213,0.82-1.829,1.236       c-0.616,0.416-1.246,0.825-1.843,1.293c-1.214,0.907-2.45,1.832-3.708,2.772c-1.224,0.983-2.444,2.014-3.699,3.04       c-0.312,0.258-0.626,0.518-0.941,0.778c-0.302,0.275-0.604,0.552-0.908,0.829c-0.608,0.554-1.221,1.111-1.838,1.673       c-4.896,4.532-9.682,9.723-14.071,15.525c-4.392,5.798-8.384,12.205-11.756,19.061c-3.377,6.854-6.13,14.153-8.158,21.666       c-2.011,7.517-3.288,15.213-3.803,22.836c-0.52,7.623-0.278,15.168,0.616,22.387c0.889,7.221,2.428,14.112,4.392,20.487       c0.252,0.795,0.503,1.585,0.752,2.369c0.124,0.392,0.247,0.783,0.37,1.172c0.142,0.383,0.283,0.764,0.424,1.145       c0.572,1.517,1.11,3.021,1.676,4.485c0.617,1.444,1.223,2.864,1.819,4.257c0.281,0.704,0.622,1.374,0.946,2.042       c0.324,0.669,0.645,1.331,0.963,1.986c0.318,0.655,0.633,1.304,0.944,1.945c0.342,0.626,0.68,1.244,1.015,1.856       c0.68,1.217,1.292,2.436,1.977,3.573c1.395,2.26,2.646,4.449,4.02,6.379c0.664,0.979,1.307,1.927,1.928,2.843       c0.663,0.885,1.302,1.738,1.916,2.558c0.624,0.812,1.175,1.628,1.786,2.342c0.598,0.723,1.168,1.413,1.71,2.068       c0.54,0.656,1.051,1.277,1.532,1.861c0.51,0.559,0.988,1.083,1.432,1.57c0.887,0.977,1.642,1.808,2.254,2.481       c0.627,0.659,1.135,1.138,1.464,1.474c0.333,0.332,0.505,0.503,0.505,0.503l7.364-7.34c-0.371-0.369-0.617-0.86-0.737-1.466       c-0.06-0.303-0.09-0.634-0.084-0.995c0.014-0.37,0.06-0.768,0.138-1.194C154.815,886.836,154.66,885.629,153.96,884.864z"
/>
<path
   style="fill:#00BF33;"
   d="M103.058,788.716c0,0,0.057-0.196,0.143-0.489c0.1-0.29,0.234-0.677,0.367-1.064       c0.268-0.772,0.535-1.544,0.535-1.544l-0.611-0.366l0.613,0.36l0.298-0.858l-0.018-0.066l-0.231-0.624l-0.214-0.665       l0.441,1.276c-0.037-0.113-0.06-0.234-0.087-0.352c-0.194-0.799-0.16-1.726,0.095-2.778c0.28-0.956,0.67-1.731,1.172-2.314       c0.115-0.136,0.236-0.26,0.363-0.376l-0.995,0.861l0.521-0.478l0.492-0.401l0.068-0.069l0.18-0.928l-0.706,0.001l0.706-0.004       c0,0,0.154-0.794,0.308-1.589c0.077-0.398,0.155-0.796,0.212-1.095c0.072-0.294,0.12-0.49,0.12-0.49l1.045-4.066l-0.634,1.8       c0,0-0.317,0.9-0.633,1.8c-0.159,0.45-0.321,0.898-0.414,1.244c-0.102,0.343-0.169,0.571-0.169,0.571s0.068-0.229,0.169-0.571       c0.093-0.346,0.255-0.794,0.414-1.244c0.316-0.9,0.633-1.8,0.633-1.8l0.634-1.8l0.325-0.922l0.325-0.923       c0,0,0.084-0.217,0.173-0.432c0.088-0.215,0.176-0.43,0.176-0.43l0.37-0.905l0.724-1.766c0,0,0.179-0.437,0.515-1.255       c0.169-0.409,0.377-0.913,0.622-1.506c0.273-0.581,0.586-1.248,0.937-1.996c0.351-0.747,0.74-1.575,1.164-2.476       c0.212-0.451,0.432-0.919,0.661-1.406c0.252-0.475,0.513-0.966,0.783-1.474c1.092-2.025,2.253-4.351,3.756-6.753       c5.688-9.783,15.026-21.882,26.452-31.798c11.383-9.952,24.555-17.685,35.02-22.002c1.308-0.542,2.538-1.119,3.75-1.563       c1.21-0.449,2.357-0.876,3.436-1.276c1.077-0.405,2.086-0.782,3.041-1.065c0.949-0.301,1.821-0.578,2.608-0.828       c0.787-0.25,1.49-0.473,2.102-0.667c0.616-0.179,1.146-0.309,1.573-0.425c0.855-0.227,1.312-0.348,1.312-0.348l-2.692-10.042       c-1.368,0.364-2.631-0.4-3.885-2.2c0,0-0.951-1.341-1.901-2.682c-0.972-1.334-1.944-2.668-1.944-2.668       c-1.311-1.755-2.721-2.421-4.148-1.965c-0.711,0.232-1.261,0.674-1.621,1.357c-0.358,0.689-0.538,1.589-0.532,2.69       c0,0,0.021,1.661,0.042,3.321c0.043,1.653,0.085,3.307,0.085,3.307c0.057,2.186-0.538,3.539-1.825,4.019       c-1.27,0.522-2.626-0.041-4.086-1.671c-1.447-1.632-2.729-3.741-3.82-6.271l-3.298-7.647c-1.094-2.54-2.448-4.607-4.023-6.182       c-1.591-1.617-3.191-2.062-4.675-1.325c-1.494,0.717-2.192,2.177-1.989,4.437c0.189,2.209,0.953,4.544,2.194,7.015l3.735,7.443       c1.235,2.463,1.984,4.815,2.29,6.968c0.311,2.145-0.072,3.587-1.318,4.257c-1.197,0.652-2.596,0.208-4.229-1.257       c0,0-1.254-1.096-2.508-2.193c-1.262-1.065-2.525-2.13-2.525-2.13c-1.667-1.409-3.159-1.745-4.428-0.972       c-1.312,0.81-1.702,2.263-1.178,4.411c0,0,0.404,1.614,0.807,3.228c0.423,1.602,0.845,3.204,0.845,3.204       c0.559,2.119,0.295,3.577-0.842,4.348c-1.15,0.753-2.587,0.549-4.374-0.71c-1.78-1.254-3.554-2.978-5.197-5.189l-4.966-6.686       c-1.649-2.22-3.391-3.956-5.283-5.124c-1.928-1.2-3.561-1.253-4.87-0.237c-1.284,1.048-1.625,2.636-0.907,4.793       c0.693,2.11,1.974,4.209,3.748,6.33l5.343,6.388c1.767,2.114,3.029,4.24,3.832,6.262c0.401,1.011,0.571,1.886,0.511,2.616       c-0.055,0.738-0.323,1.352-0.834,1.812c-1.017,0.923-2.5,0.839-4.431-0.2c0,0-1.461-0.785-2.921-1.571       c-1.477-0.769-2.953-1.539-2.953-1.539c-1.945-0.986-3.469-0.964-4.56,0.128c-1.051,1.053-1.074,2.581-0.094,4.53       c0,0,0.184,0.37,0.459,0.925c0.282,0.555,0.657,1.295,1.033,2.035c0.774,1.475,1.547,2.949,1.547,2.949       c1.043,1.929,1.147,3.392,0.232,4.404c-0.944,1.055-2.44,1.09-4.444,0.3c-2.024-0.797-4.138-2.072-6.247-3.846l-6.373-5.361       c-2.116-1.78-4.211-3.065-6.317-3.761c-2.153-0.721-3.739-0.379-4.788,0.91c-1.067,1.273-0.992,2.948,0.204,4.866       c1.165,1.898,2.862,3.695,5.08,5.347l6.676,4.978c2.208,1.647,3.963,3.383,5.215,5.169c1.249,1.799,1.476,3.245,0.68,4.365       c-0.766,1.142-2.22,1.409-4.335,0.849c0,0-1.599-0.423-3.199-0.845c-1.611-0.403-3.223-0.806-3.223-0.806       c-1.07-0.259-1.987-0.292-2.741-0.102c-0.752,0.191-1.306,0.627-1.697,1.266c-0.773,1.286-0.45,2.813,0.956,4.494       c0,0,1.074,1.254,2.148,2.508c1.086,1.235,2.172,2.469,2.172,2.469c1.448,1.626,1.914,3.039,1.243,4.287       c-0.642,1.204-2.055,1.604-4.225,1.281c-2.174-0.316-4.538-1.07-7.001-2.305l-7.443-3.735       c-2.477-1.243-4.827-1.961-7.036-2.134c-2.249-0.208-3.684,0.464-4.384,1.957c-0.726,1.549-0.324,3.077,1.281,4.663       c1.579,1.59,3.656,2.933,6.196,4.027l7.649,3.294c2.531,1.09,4.644,2.373,6.285,3.822c1.636,1.461,2.222,2.826,1.702,4.099       c-0.26,0.636-0.736,1.102-1.423,1.4c-0.678,0.301-1.547,0.443-2.636,0.411c0,0-1.646-0.039-3.292-0.078       c-1.653-0.018-3.306-0.036-3.306-0.036c-2.194,0.002-3.576,0.732-4.068,2.145c-0.122,0.353-0.177,0.705-0.156,1.056       c0.031,0.354,0.131,0.706,0.3,1.054c0.338,0.696,0.952,1.377,1.835,2.033c0,0,1.343,0.974,2.686,1.947       c1.35,0.952,2.7,1.905,2.7,1.905c1.789,1.25,2.511,2.542,2.127,3.859c-0.326,1.333-1.598,2.079-3.774,2.275       c-2.173,0.183-4.63-0.051-7.31-0.689l-8.101-1.93c-2.69-0.642-5.154-0.806-7.36-0.475c-1.127,0.153-2.007,0.471-2.654,0.959       c-0.323,0.244-0.589,0.53-0.797,0.859c-0.195,0.333-0.332,0.708-0.413,1.126c-0.312,1.614,0.45,3.011,2.387,4.189       c1.883,1.183,4.203,2.015,6.926,2.499l8.199,1.46c2.712,0.484,5.047,1.291,6.956,2.334c0.96,0.517,1.64,1.065,2.081,1.654       c0.446,0.591,0.627,1.219,0.533,1.896c-0.194,1.402-1.381,2.259-3.528,2.693c0,0-1.624,0.336-3.249,0.673       c-1.627,0.359-3.253,0.718-3.253,0.718c-2.124,0.505-3.28,1.535-3.41,3.029c-0.129,1.494,0.832,2.725,2.836,3.588       c0,0,1.519,0.641,3.039,1.282c1.542,0.62,3.084,1.24,3.084,1.24c2.04,0.819,3.061,1.904,3.012,3.278       c-0.042,1.374-1.158,2.394-3.222,3.087c-2.061,0.68-4.5,1.019-7.255,1.016l-8.328-0.012c-2.765-0.005-5.194,0.417-7.253,1.24       c-2.111,0.82-3.103,2.115-3.074,3.777c0.009,1.662,1.102,2.886,3.273,3.598c2.115,0.704,4.568,0.929,7.328,0.771l8.314-0.477       c2.751-0.157,5.214,0.088,7.324,0.661c2.109,0.565,3.232,1.494,3.325,2.907c0.131,1.358-0.797,2.465-2.78,3.385       c0,0-1.493,0.717-2.987,1.435c-1.49,0.74-2.98,1.481-2.98,1.481c-1.955,0.975-2.93,2.224-2.671,3.691       c0.245,1.526,1.472,2.454,3.63,2.826c0,0,1.63,0.27,3.261,0.541c1.627,0.248,3.254,0.495,3.254,0.495       c2.131,0.331,3.416,1.142,3.695,2.487c0.287,1.344-0.528,2.599-2.397,3.745c-1.87,1.145-4.163,2.096-6.843,2.733l-8.103,1.923       c-2.693,0.639-4.985,1.558-6.785,2.83c-1.854,1.296-2.511,2.769-2.085,4.373c0.428,1.604,1.725,2.552,3.981,2.746       c2.227,0.192,4.667-0.159,7.316-0.952l7.978-2.389c2.64-0.79,5.099-1.113,7.287-1.057c2.189,0.059,3.517,0.738,3.934,2.047       c0.213,0.654,0.133,1.318-0.186,1.981c-0.314,0.661-0.9,1.333-1.752,2.012c0,0-1.288,1.029-2.576,2.057       c-1.28,1.05-2.559,2.1-2.559,2.1c-1.686,1.402-2.29,2.82-1.748,4.264c0.564,1.375,1.988,1.986,4.175,1.849       c0,0,1.658-0.103,3.315-0.206c1.649-0.124,3.298-0.249,3.298-0.249c2.176-0.194,3.508,0.311,4.12,1.53       c0.615,1.274,0.1,2.641-1.451,4.184c-1.547,1.551-3.562,2.993-6.024,4.229l-7.443,3.736c-2.472,1.24-4.487,2.659-5.974,4.324       c-1.535,1.701-1.808,3.268-1.024,4.728c0.791,1.455,2.287,2.084,4.52,1.743c2.189-0.313,4.5-1.157,6.898-2.54l7.215-4.16       c2.387-1.376,4.68-2.303,6.827-2.754c2.153-0.439,3.602-0.096,4.316,1.077c0.722,1.168,0.344,2.637-0.991,4.344       c0,0-1.015,1.294-2.029,2.589c-1.002,1.313-2.004,2.626-2.004,2.626c-1.316,1.749-1.548,3.3-0.706,4.539       c0.824,1.251,2.398,1.526,4.5,0.901c0,0,1.584-0.494,3.169-0.987c1.571-0.512,3.143-1.024,3.143-1.024       c2.075-0.689,3.508-0.519,4.374,0.6c0.866,1.053,0.683,2.498-0.469,4.353c-1.147,1.861-2.775,3.726-4.888,5.494l-6.388,5.343       c-2.122,1.774-3.725,3.653-4.778,5.623c-0.551,0.997-0.821,1.895-0.821,2.702c0.006,0.802,0.304,1.494,0.853,2.106       c1.146,1.267,2.719,1.495,4.818,0.648c2.071-0.801,4.123-2.163,6.136-4.059l6.066-5.706c2.007-1.887,4.018-3.309,5.985-4.222       c1.995-0.921,3.492-0.928,4.464,0.044l7.364-7.339c0,0-0.339-0.339-0.975-0.974c-0.315-0.321-0.717-0.703-1.165-1.177       c-0.439-0.482-0.943-1.036-1.508-1.656c-1.117-1.252-2.541-2.713-3.995-4.545c-0.744-0.901-1.535-1.86-2.37-2.872       c-0.821-1.022-1.621-2.145-2.49-3.291c-6.975-9.14-14.577-22.676-19.382-37.264l-0.871-2.741       c-0.283-0.915-0.601-1.819-0.826-2.748c-0.485-1.848-0.989-3.683-1.45-5.513c-0.395-1.846-0.787-3.678-1.174-5.487       c-0.35-1.817-0.609-3.628-0.909-5.4c-0.072-0.444-0.144-0.885-0.216-1.325c-0.063-0.441-0.104-0.883-0.157-1.321       c-0.1-0.878-0.198-1.747-0.296-2.606c-0.097-0.86-0.194-1.711-0.289-2.551c-0.055-0.844-0.109-1.678-0.162-2.5       c-0.052-0.823-0.104-1.634-0.155-2.433c-0.047-0.799-0.116-1.586-0.111-2.362c-0.022-1.551-0.043-3.049-0.064-4.488       c-0.052-1.439,0.056-2.816,0.087-4.126c0.049-1.31,0.095-2.553,0.138-3.721c0.2-2.329,0.375-4.359,0.519-6.031       c0.182-1.668,0.393-2.97,0.505-3.862c0.122-0.891,0.187-1.366,0.187-1.366c0.089-0.629,0.176-1.266,0.289-1.907       c0.135-0.637,0.279-1.281,0.432-1.931C102.332,791.392,102.675,790.066,103.058,788.716z"
/>
<path
   style="fill:#FFA227;"
   d="M210.789,713.824c0.488-0.105,0.942-0.382,1.368-0.836c0.426-0.456,0.835-1.034,1.216-1.824       c0.775-1.514,1.705-2.373,2.729-2.544c1.061-0.201,1.979,0.817,2.731,2.8c0.764,1.997,1.296,4.395,1.614,7.132       c0.32,2.747,0.818,5.139,1.473,7.146c0.669,2.063,1.398,2.977,2.235,2.892c0.84-0.044,1.404-1.089,1.702-3.233       c0.298-2.092,0.41-4.538,0.253-7.299c-0.158-2.751-0.076-5.205,0.323-7.305c0.405-2.104,1.159-3.226,2.207-3.218       c1.045-0.012,2.11,0.67,3.125,2.024c1.054,1.378,2.036,2.156,3.04,2.183c1.004,0.037,2.022-0.626,3.132-2.017       c1.105-1.288,2.208-1.881,3.282-1.792c1.036,0.089,1.702,1.207,1.974,3.303c0.279,2.128,0.24,4.59-0.085,7.326       c-0.326,2.746-0.369,5.197-0.192,7.312c0.166,2.165,0.642,3.251,1.473,3.36c0.432,0.057,0.84-0.145,1.24-0.616       c0.399-0.464,0.787-1.172,1.18-2.179c0.782-1.954,1.451-4.303,1.937-7.026c0.483-2.713,1.131-5.076,2.005-7.016       c0.88-1.939,1.87-2.831,2.903-2.64c0.258,0.049,0.507,0.135,0.746,0.273c0.237,0.148,0.464,0.338,0.683,0.569       c0.436,0.463,0.834,1.093,1.191,1.885c0.664,1.627,1.465,2.535,2.449,2.766c0.968,0.292,2.116-0.091,3.505-1.167       c0.706-0.507,1.366-0.852,1.975-1.034c0.612-0.189,1.168-0.2,1.658-0.013c0.989,0.352,1.399,1.621,1.189,3.74       c-0.216,2.117-0.84,4.487-1.781,7.076c-0.944,2.599-1.542,4.967-1.845,7.05c-0.164,1.068-0.184,1.876-0.07,2.476       c0.11,0.608,0.362,0.988,0.765,1.155c0.774,0.322,1.729-0.378,2.959-2.169c1.213-1.741,2.404-3.884,3.498-6.423       c1.089-2.531,2.29-4.681,3.598-6.383c1.286-1.679,2.423-2.312,3.364-1.869c0.974,0.461,1.63,1.529,1.941,3.195       c0.264,1.76,0.812,2.844,1.699,3.316c0.882,0.48,2.123,0.297,3.725-0.366c1.558-0.663,2.82-0.719,3.719-0.185       c0.447,0.271,0.711,0.718,0.756,1.378c0.044,0.661-0.109,1.501-0.459,2.512c-0.707,2.017-1.866,4.182-3.381,6.483       c-1.52,2.31-2.648,4.483-3.439,6.443c-0.818,2.004-0.853,3.191-0.148,3.651c0.683,0.491,1.771,0.066,3.384-1.383       c1.573-1.409,3.203-3.229,4.856-5.446c1.647-2.209,3.31-4.018,4.971-5.363c1.643-1.338,2.95-1.761,3.767-1.055       c0.8,0.661,1.175,1.871,1.087,3.569c-0.065,0.874-0.003,1.58,0.139,2.187c0.141,0.607,0.395,1.074,0.765,1.41       c0.766,0.697,1.977,0.85,3.72,0.501c1.685-0.288,2.898-0.03,3.644,0.705c0.742,0.741,0.557,2.047-0.584,3.83       c-1.159,1.804-2.765,3.671-4.773,5.558c-2.014,1.895-3.641,3.724-4.867,5.453c-1.259,1.771-1.577,2.922-1.005,3.543       c0.284,0.313,0.734,0.412,1.334,0.32c0.594-0.087,1.36-0.385,2.308-0.9c1.852-1.002,3.857-2.394,5.979-4.169       c2.113-1.769,4.151-3.136,6.07-4.062c1.917-0.928,3.257-0.972,3.928-0.166c0.638,0.831,0.701,2.105,0.219,3.743       c-0.538,1.68-0.463,2.854,0.092,3.733c0.557,0.831,1.693,1.267,3.462,1.335c1.747,0.083,2.861,0.629,3.404,1.516       c0.561,0.924,0.057,2.132-1.464,3.608c-1.516,1.484-3.5,2.919-5.888,4.295c-2.395,1.381-4.4,2.789-5.994,4.194       c-1.635,1.438-2.215,2.49-1.808,3.232c0.4,0.746,1.631,0.83,3.703,0.263c2.029-0.548,4.313-1.411,6.785-2.65       c2.463-1.236,4.743-2.131,6.818-2.59c2.078-0.454,3.382-0.194,3.843,0.75c0.485,0.931,0.221,2.208-0.629,3.686       c-0.897,1.54-1.135,2.718-0.75,3.648c0.345,0.946,1.339,1.626,3.037,2.101c1.65,0.492,2.693,1.249,2.993,2.286       c0.313,0.993-0.462,2.054-2.286,3.142c-1.821,1.097-4.084,2.039-6.724,2.829c-2.649,0.795-4.904,1.727-6.752,2.725       c-1.925,1.015-2.746,1.888-2.532,2.697c0.222,0.84,1.362,1.186,3.537,1.102c2.133-0.069,4.547-0.39,7.236-1.027       c2.681-0.636,5.103-0.982,7.224-0.952c2.121,0.036,3.323,0.591,3.543,1.615c0.11,0.511,0.051,1.058-0.177,1.635       c-0.224,0.577-0.674,1.195-1.258,1.835c-1.241,1.252-1.768,2.345-1.602,3.336c0.042,0.248,0.126,0.49,0.255,0.725       c0.119,0.237,0.273,0.47,0.476,0.698c0.404,0.455,0.986,0.891,1.75,1.314c1.476,0.891,2.307,1.868,2.408,2.908       c0.062,1.045-0.946,1.921-2.978,2.563c-2.033,0.637-4.457,0.998-7.208,1.156c-2.761,0.159-5.174,0.544-7.21,1.086       c-2.085,0.54-3.038,1.194-3.052,2.061c0.006,0.835,1.025,1.434,3.153,1.855c2.077,0.426,4.515,0.675,7.28,0.679       c2.755,0.003,5.204,0.257,7.282,0.787c2.073,0.52,3.084,1.314,3.052,2.353c-0.039,1.076-0.771,2.1-2.172,3.043       c-1.505,0.937-2.295,1.868-2.378,2.87c-0.043,0.501,0.089,1.017,0.398,1.561c0.154,0.272,0.353,0.551,0.596,0.838       c0.228,0.286,0.499,0.58,0.816,0.884c1.22,1.171,1.767,2.311,1.627,3.348c-0.07,0.519-0.393,0.936-0.961,1.242       c-0.575,0.305-1.421,0.495-2.486,0.574c-2.135,0.148-4.583-0.061-7.296-0.544c-2.723-0.484-5.166-0.662-7.282-0.611       c-2.167,0.043-3.276,0.484-3.426,1.318c-0.038,0.209-0.011,0.418,0.081,0.629c0.078,0.209,0.224,0.419,0.436,0.633       c0.426,0.427,1.123,0.865,2.103,1.32c1.911,0.89,4.227,1.667,6.917,2.308c2.681,0.638,4.998,1.45,6.886,2.444       c1.891,0.985,2.736,2.005,2.487,3.059l10.041,2.699c0,0,0.227-0.945,0.654-2.717c0.215-0.886,0.479-1.978,0.791-3.262       c0.244-1.298,0.525-2.789,0.84-4.46c0.08-0.417,0.161-0.846,0.245-1.286c0.078-0.441,0.126-0.897,0.193-1.361       c0.127-0.93,0.26-1.903,0.399-2.917c0.07-0.507,0.142-1.025,0.215-1.552c0.073-0.528,0.098-1.07,0.151-1.62       c0.095-1.101,0.193-2.241,0.295-3.419c0.133-1.176,0.132-2.398,0.187-3.653c0.032-1.255,0.12-2.546,0.115-3.872       c-0.053-2.652-0.018-5.443-0.269-8.344c-0.66-11.609-3.462-25.101-9.143-38.524c-2.837-6.705-6.397-13.374-10.647-19.732       c-4.246-6.359-9.18-12.404-14.663-17.901c-5.479-5.5-11.504-10.448-17.848-14.7c-6.342-4.256-13-7.812-19.7-10.654       c-0.842-0.345-1.681-0.689-2.515-1.031c-0.834-0.345-1.661-0.695-2.513-0.973c-1.691-0.584-3.354-1.198-5.017-1.75       c-1.682-0.498-3.346-0.99-4.99-1.477c-1.651-0.461-3.309-0.813-4.929-1.221c-1.615-0.435-3.245-0.683-4.836-0.996       c-0.797-0.152-1.587-0.302-2.372-0.451c-0.786-0.14-1.574-0.222-2.35-0.336c-0.778-0.107-1.549-0.212-2.313-0.317       c-0.765-0.098-1.519-0.233-2.276-0.277c-1.509-0.13-2.989-0.257-4.439-0.382c-11.63-0.752-21.346,0.314-28.023,1.478       c-1.682,0.237-3.158,0.594-4.448,0.865c-1.288,0.285-2.392,0.489-3.273,0.717c-1.759,0.468-2.696,0.718-2.696,0.718       l2.692,10.042c1.013-0.262,2.192,0.124,3.506,1.216C208.652,713.568,209.777,714.042,210.789,713.824z"
/>
<path
   style="fill:#00BF33;"
   d="M319.461,717.83l2.196,2.415l0.627-0.349l-0.622,0.354c0,0,0.152,0.168,0.305,0.336       c0.146,0.175,0.292,0.349,0.292,0.349l0.066,0.018l0.647,0.121l0.674,0.158l-1.308-0.275c0.115,0.026,0.229,0.068,0.344,0.106       c0.778,0.245,1.549,0.753,2.315,1.517c0.706,0.704,1.2,1.412,1.466,2.126c0.063,0.165,0.115,0.327,0.148,0.499       c0,0-0.058-0.324-0.128-0.64c-0.068-0.318-0.135-0.637-0.135-0.637l0.165,0.679c0,0,0.028,0.154,0.056,0.308       c0.024,0.157,0.049,0.314,0.049,0.314l0.024,0.095l0.7,0.633l0.356-0.614l-0.354,0.616l2.398,2.172       c0,0,0.777,0.706,1.536,1.433c0.736,0.748,1.472,1.496,1.472,1.496l-1.215-1.471c0,0-0.144-0.191-0.388-0.453       c-0.241-0.265-0.561-0.618-0.882-0.971c-0.642-0.706-1.284-1.411-1.284-1.411s0.642,0.706,1.284,1.411       c0.321,0.353,0.642,0.706,0.882,0.971c0.243,0.262,0.388,0.453,0.388,0.453l1.215,1.471l0.622,0.754l0.623,0.754l0.592,0.718       l0.622,0.754c0,0,0.08,0.089,0.186,0.233c0.107,0.143,0.25,0.334,0.393,0.525c0.286,0.382,0.572,0.764,0.572,0.764       s0.283,0.378,0.813,1.086c0.52,0.716,1.329,1.732,2.274,3.087c0.923,1.37,2.043,3.034,3.328,4.942       c0.598,0.983,1.235,2.028,1.906,3.13c0.672,1.102,1.391,2.253,2.046,3.509c5.559,9.844,11.507,23.922,14.334,38.796       c1.467,7.409,2.263,14.943,2.466,22.019c0.265,7.082-0.278,13.69-0.903,19.313c-0.397,2.804-0.684,5.386-1.166,7.638       c-0.442,2.257-0.754,4.241-1.185,5.837c-0.777,3.21-1.221,5.045-1.221,5.045l10.04,2.699c0.335-1.373,1.6-2.089,3.774-2.274       c0,0,1.646-0.147,3.291-0.295c1.65-0.169,3.301-0.339,3.301-0.339c1.094-0.126,1.966-0.407,2.607-0.84       c0.321-0.216,0.584-0.471,0.789-0.762c0.192-0.294,0.323-0.626,0.393-0.993c0.282-1.47-0.545-2.805-2.445-3.895       c0,0-1.439-0.813-2.879-1.626c-1.444-0.791-2.888-1.582-2.888-1.582c-0.959-0.523-1.637-1.08-2.076-1.68       c-0.445-0.601-0.624-1.24-0.53-1.921c0.188-1.361,1.379-2.248,3.528-2.693c2.147-0.432,4.618-0.483,7.354-0.158l8.27,0.983       c2.746,0.327,5.219,0.194,7.38-0.379c2.182-0.568,3.301-1.739,3.445-3.393c0.144-1.655-0.758-2.993-2.808-3.951       c-1.998-0.944-4.399-1.454-7.164-1.62l-8.313-0.499c-2.75-0.166-5.174-0.697-7.214-1.514c-2.04-0.808-3.062-1.862-3.012-3.277       c0.042-1.364,1.155-2.353,3.221-3.035c0,0,1.558-0.538,3.117-1.075c1.558-0.561,3.116-1.122,3.116-1.122       c2.059-0.74,3.105-1.866,3.081-3.355c-0.006-1.546-1.143-2.61-3.257-3.232c0,0-1.596-0.459-3.193-0.917       c-1.596-0.436-3.191-0.872-3.191-0.872c-2.11-0.576-3.234-1.535-3.325-2.907c-0.129-1.369,0.792-2.516,2.775-3.437       c1.979-0.918,4.36-1.595,7.097-1.915l8.272-0.965c2.747-0.32,5.122-0.965,7.083-2.023c1.996-1.073,2.899-2.471,2.615-4.109       c-0.261-1.64-1.462-2.731-3.686-3.187c-2.172-0.454-4.628-0.391-7.351,0.089l-8.202,1.445c-2.714,0.477-5.184,0.51-7.333,0.197       c-2.129-0.32-3.418-1.141-3.696-2.487c-0.287-1.344,0.53-2.589,2.397-3.746c0,0,1.411-0.876,2.823-1.751       c0.697-0.445,1.393-0.891,1.916-1.225c0.518-0.337,0.863-0.562,0.863-0.562c1.825-1.195,2.572-2.529,2.175-4.021       c-0.383-1.438-1.689-2.221-3.868-2.342c0,0-1.668-0.087-3.335-0.174c-1.661-0.065-3.323-0.13-3.323-0.13       c-2.189-0.058-3.504-0.698-3.918-1.997c-0.219-0.674-0.141-1.341,0.18-2c0.315-0.658,0.905-1.319,1.759-1.993       c1.704-1.357,3.866-2.554,6.454-3.498l7.825-2.85c2.598-0.946,4.758-2.121,6.416-3.6c1.703-1.506,2.203-3.052,1.618-4.602       c-0.625-1.534-2.068-2.32-4.334-2.236c-2.222,0.063-4.624,0.636-7.162,1.733l-7.646,3.3c-2.53,1.091-4.907,1.745-7.076,1.937       c-2.181,0.184-3.525-0.349-4.142-1.577c-0.597-1.237-0.095-2.632,1.451-4.185c0,0,1.169-1.175,2.338-2.349       c1.158-1.195,2.316-2.389,2.316-2.389c1.528-1.595,1.899-3.088,1.19-4.407c-0.715-1.315-2.191-1.801-4.344-1.427       c0,0-1.62,0.302-3.24,0.603c-1.628,0.332-3.256,0.664-3.256,0.664c-2.147,0.449-3.58,0.132-4.316-1.076       c-0.716-1.16-0.324-2.601,1.019-4.3c1.344-1.709,3.171-3.369,5.474-4.882l6.962-4.569c2.312-1.517,4.117-3.194,5.38-5.021       c1.315-1.844,1.463-3.428,0.537-4.786c-0.943-1.423-2.525-1.797-4.71-1.196c-2.16,0.563-4.36,1.684-6.58,3.333l-6.686,4.965       c-2.212,1.642-4.378,2.825-6.448,3.512c-2.081,0.68-3.535,0.486-4.374-0.601c-0.872-1.061-0.716-2.538,0.436-4.393       c0,0,0.865-1.409,1.731-2.819c0.851-1.426,1.701-2.853,1.701-2.853c0.553-0.954,0.849-1.823,0.885-2.598       c0.03-0.769-0.22-1.427-0.72-1.983c-1.006-1.11-2.56-1.241-4.574-0.379c0,0-1.51,0.667-3.019,1.334       c-1.495,0.684-2.989,1.368-2.989,1.368c-1.989,0.931-3.492,0.929-4.464-0.043c-0.973-0.971-0.968-2.462-0.039-4.456       c0.943-1.989,2.365-3.99,4.258-5.991l5.725-6.048c1.901-2.008,3.269-4.054,4.073-6.121c0.85-2.095,0.623-3.666-0.646-4.811       c-1.229-1.098-2.788-1.177-4.799-0.064c-1.976,1.049-3.862,2.649-5.642,4.765l-5.361,6.373       c-1.774,2.108-3.645,3.732-5.512,4.876c-1.861,1.149-3.31,1.331-4.366,0.468c-1.081-0.915-1.277-2.313-0.579-4.393       c0,0,0.513-1.568,1.026-3.136c0.495-1.581,0.989-3.163,0.989-3.163c0.629-2.102,0.34-3.656-0.883-4.525       c-1.245-0.838-2.802-0.604-4.557,0.712c0,0-1.318,1.002-2.635,2.004c-1.299,1.015-2.598,2.03-2.598,2.03       c-0.858,0.672-1.646,1.087-2.363,1.239c-0.717,0.154-1.385,0.081-1.972-0.278c-1.179-0.707-1.526-2.151-1.089-4.299       c0.448-2.142,1.376-4.433,2.754-6.819l4.165-7.211c1.384-2.394,2.235-4.719,2.56-6.93c0.349-2.25-0.295-3.724-1.758-4.512       c-1.465-0.783-3.053-0.481-4.742,1.026c-1.656,1.465-3.072,3.47-4.311,5.942l-3.736,7.443c-1.234,2.457-2.678,4.476-4.233,6.03       c-1.547,1.557-2.919,2.083-4.201,1.481c-1.235-0.58-1.713-1.974-1.515-4.164c0,0,0.121-1.643,0.241-3.286       c0.099-1.651,0.198-3.303,0.198-3.303c0.133-2.182-0.489-3.585-1.866-4.146c-0.714-0.291-1.424-0.293-2.128-0.014       c-0.707,0.288-1.416,0.877-2.118,1.722c0,0-1.051,1.288-2.103,2.575c-1.03,1.296-2.061,2.591-2.061,2.591       c-1.362,1.714-2.688,2.371-3.984,1.918c-0.324-0.113-0.609-0.284-0.855-0.508c-0.25-0.212-0.46-0.48-0.632-0.805       c-0.343-0.649-0.53-1.521-0.56-2.609c-0.059-2.176,0.263-4.629,1.053-7.268l2.389-7.978c0.794-2.649,1.144-5.083,0.951-7.298       c-0.188-2.267-1.122-3.593-2.709-4.052c-1.604-0.398-3.077,0.281-4.375,2.148c-1.276,1.819-2.194,4.101-2.835,6.791       l-1.931,8.101c-0.64,2.68-1.59,4.964-2.732,6.817c-0.571,0.927-1.17,1.587-1.792,1.977c-0.311,0.195-0.628,0.321-0.95,0.38       c-0.326,0.072-0.657,0.076-0.995,0.012c-1.349-0.257-2.166-1.491-2.486-3.656c0,0-0.242-1.638-0.484-3.276       c-0.264-1.641-0.529-3.282-0.529-3.282c-0.184-1.082-0.502-1.95-0.97-2.551c-0.469-0.595-1.085-0.949-1.848-1.055       c-1.473-0.204-2.714,0.697-3.692,2.652c0,0-0.742,1.479-1.484,2.957c-0.719,1.482-1.438,2.965-1.438,2.965       c-0.926,1.994-2.039,2.961-3.398,2.844c-1.411-0.122-2.335-1.264-2.893-3.387c-0.566-2.125-0.805-4.594-0.641-7.339       l0.498-8.313c0.166-2.76-0.054-5.204-0.753-7.303c-0.707-2.151-1.929-3.208-3.59-3.265c-1.66-0.051-2.957,0.899-3.782,3.023       c-0.828,2.076-1.256,4.514-1.258,7.28l-0.01,8.328c-0.004,2.755-0.349,5.202-1.035,7.281c-0.699,2.078-1.722,3.153-3.097,3.174       c-1.376,0.001-2.457-0.985-3.269-3.004c0,0-0.615-1.529-1.23-3.059c-0.638-1.528-1.275-3.055-1.275-3.055       c-0.859-2.018-2.09-3.001-3.587-2.9c-1.493,0.141-2.523,1.339-3.032,3.474c0,0-0.365,1.616-0.729,3.232       c-0.342,1.614-0.684,3.228-0.684,3.228c-0.439,2.148-1.309,3.262-2.703,3.512c-1.347,0.218-2.509-0.666-3.544-2.593       c-1.042-1.926-1.847-4.269-2.326-6.982l-1.446-8.201c-0.479-2.724-1.31-5.052-2.494-6.951       c-1.183-1.972-2.571-2.683-4.185-2.349c-1.673,0.355-2.657,1.6-2.971,3.839c-0.34,2.191-0.182,4.647,0.457,7.338l1.923,8.103       c0.635,2.68,0.864,5.125,0.683,7.319c-0.195,2.19-0.938,3.483-2.266,3.836l2.692,10.042c0,0,0.464-0.123,1.332-0.353       c0.869-0.228,2.138-0.592,3.785-0.917c3.274-0.727,7.98-1.696,13.7-2.328c0.715-0.081,1.444-0.164,2.188-0.248       c0.743-0.085,1.5-0.179,2.275-0.214c1.548-0.099,3.148-0.201,4.793-0.306c0.822-0.071,1.658-0.055,2.504-0.074       c0.846-0.012,1.701-0.024,2.567-0.036c0.865-0.003,1.74-0.045,2.623-0.016c0.883,0.031,1.774,0.063,2.672,0.095       c7.182,0.257,14.843,1.058,22.345,2.675c7.505,1.584,14.861,3.822,21.562,6.431c1.663,0.682,3.299,1.353,4.9,2.009       c1.566,0.736,3.099,1.456,4.591,2.157c1.508,0.669,2.898,1.473,4.273,2.19c1.36,0.745,2.713,1.395,3.931,2.163       c2.466,1.482,4.755,2.796,6.67,4.14c0.972,0.649,1.882,1.257,2.723,1.819c0.847,0.553,1.569,1.142,2.25,1.63       c1.348,1,2.407,1.786,3.129,2.321c0.366,0.262,0.623,0.492,0.805,0.636c0.18,0.147,0.272,0.223,0.272,0.223       C315.54,714.006,317.59,715.719,319.461,717.83z"
/>
<path
   style="fill:#FFA227;"
   d="M282.188,820.439c-4.132-0.552-7.82-0.544-11.023-0.217c-1.658,0.163-3.173,0.406-4.548,0.71     c-1.387,0.303-2.691,0.656-3.836,1.067l36.26,9.746c-0.65-1.727-1.478-3.244-2.541-4.566c-1.075-1.326-2.329-2.441-3.744-3.357     C289.888,821.999,286.295,820.988,282.188,820.439z"
/>
<path
   style="fill:#A81C1C;"
   d="M257.286,783.316c0.661-1.473,1.445-3.024,2.376-4.623c0.926-1.591,1.998-3.228,3.267-4.881     c2.527-3.299,5.263-5.845,8.266-7.399c1.503-0.783,3.113-1.33,4.78-1.568c0.838-0.124,1.699-0.182,2.58-0.173     c0.877,0.014,1.753,0.118,2.657,0.28c0,0,0.679,0.13,1.697,0.325c1.005,0.222,2.354,0.547,3.729,0.91     c1.358,0.373,2.71,0.81,3.745,1.147c0.519,0.167,0.942,0.319,1.236,0.43c0.296,0.11,0.466,0.172,0.466,0.172     c3.716,1.285,6.495,3.627,8.278,6.655c1.66,2.953,2.3,6.526,1.548,10.387c0,0-0.031,0.178-0.084,0.489     c-0.053,0.31-0.131,0.752-0.247,1.285c-0.227,1.064-0.528,2.454-0.883,3.816c-0.374,1.371-0.771,2.702-1.08,3.683     c-0.341,0.979-0.569,1.632-0.569,1.632c-0.307,0.886-0.653,1.706-1.081,2.477c-0.433,0.771-0.915,1.484-1.444,2.141     c-1.044,1.312-2.327,2.411-3.758,3.32c-2.848,1.841-6.423,2.912-10.544,3.448c-4.122,0.535-7.83,0.46-11.052,0.122     c-1.643-0.16-3.131-0.396-4.538-0.689c-0.697-0.148-1.36-0.312-1.989-0.493c-0.635-0.18-1.268-0.369-1.853-0.578     c0,0-0.443-0.139-1.107-0.348c-0.685-0.191-1.591-0.42-2.47-0.609c-0.901-0.185-1.808-0.32-2.461-0.409     c-0.325-0.046-0.608-0.073-0.806-0.091c-0.197-0.018-0.309-0.028-0.309-0.028c-2.327-0.234-3.706-0.566-4.154-1.421     c-0.533-0.848-0.132-2.207,0.832-4.339c0,0,0.048-0.102,0.131-0.281c0.085-0.181,0.201-0.439,0.324-0.743     c0.251-0.61,0.589-1.464,0.879-2.335c0.277-0.856,0.533-1.755,0.71-2.443c0.152-0.679,0.254-1.132,0.254-1.132     c0.12-0.604,0.277-1.243,0.442-1.881c0.161-0.634,0.35-1.291,0.57-1.969C256.07,786.232,256.601,784.819,257.286,783.316z      M274.137,785.807c-0.866,0.579-1.362,1.237-1.499,1.958c-0.153,0.733,0.031,1.543,0.583,2.447     c0.486,0.898,1.085,1.446,1.792,1.672c0.689,0.233,1.506,0.134,2.441-0.326c0.934-0.459,1.511-1.055,1.721-1.809     c0.194-0.743,0-1.631-0.554-2.646c-0.621-1.027-1.305-1.658-2.051-1.872C275.807,785.028,275.002,785.228,274.137,785.807z"
/>
<path
   style="fill:#FFA227;"
   d="M218.402,776.868c-1.91-2.632-3.818-5.779-5.419-9.628c-1.592-3.826-2.461-7.484-2.288-10.86     c0.138-3.381,1.262-6.596,3.726-9.408c0,0,0.452-0.521,1.13-1.304c0.689-0.782,1.651-1.768,2.652-2.779     c0.998-1.013,2.06-1.944,2.87-2.675c0.81-0.729,1.375-1.183,1.375-1.183c1.493-1.256,3.092-2.255,4.751-2.87     c1.656-0.66,3.365-0.949,5.068-0.961c3.531,0.013,6.962,1.284,9.925,3.866c0,0,0.548,0.47,1.371,1.174     c0.813,0.697,1.851,1.709,2.852,2.686c1.007,0.967,1.941,2.027,2.631,2.786c0.676,0.768,1.128,1.28,1.128,1.28     c1.169,1.425,2.071,2.906,2.685,4.488c0.611,1.596,0.948,3.24,1.023,4.92c0.144,3.395-0.699,7.047-2.291,10.872     c-1.601,3.85-3.524,7.008-5.41,9.618c-0.966,1.355-1.936,2.544-2.889,3.581c-0.959,1.05-1.92,1.998-2.849,2.785     c0,0-0.348,0.324-0.869,0.81c-0.512,0.496-1.16,1.112-1.775,1.822c-0.616,0.7-1.182,1.36-1.591,1.915     c-0.397,0.545-0.662,0.908-0.662,0.908c-1.367,1.901-2.329,2.903-3.313,2.888c-0.474,0.013-0.951-0.259-1.477-0.724     c-0.529-0.51-1.103-1.199-1.783-2.182c0,0-0.252-0.376-0.654-0.898c-0.401-0.52-0.972-1.263-1.577-1.928     c-0.602-0.666-1.257-1.359-1.759-1.834c-0.514-0.474-0.856-0.79-0.856-0.79C222.221,781.606,220.324,779.554,218.402,776.868z      M228.969,763.51c0.151,2.084,1.25,3.008,3.277,3.006c2.103,0.027,3.208-0.935,3.364-3.004c0.157-2.083-0.945-3.199-3.36-3.228     C229.921,760.288,228.818,761.442,228.969,763.51z"
/>
<path
   style="fill:#A81C1C;"
   d="M172.491,767.807c0,0,0.676-0.26,1.714-0.595c1.039-0.334,2.376-0.786,3.754-1.141     c1.377-0.358,2.712-0.697,3.734-0.899c1.016-0.194,1.694-0.323,1.694-0.323c3.604-0.659,6.999-0.069,10.008,1.497     c2.99,1.559,5.662,4.186,8.18,7.477c2.533,3.31,4.35,6.503,5.676,9.468c1.347,3.019,2.152,5.71,2.645,8.148     c0,0,0.102,0.455,0.254,1.137c0.158,0.672,0.43,1.587,0.704,2.442c0.271,0.856,0.628,1.724,0.876,2.331     c0.25,0.61,0.448,1.016,0.448,1.016c0.499,1.095,0.805,1.944,0.978,2.66c0.135,0.691,0.135,1.244-0.118,1.649     c-0.464,0.836-1.811,1.157-4.142,1.387c0,0-0.448,0.049-1.12,0.123c-0.687,0.08-1.544,0.243-2.461,0.431     c-0.926,0.182-1.782,0.442-2.471,0.641c-0.683,0.213-1.138,0.355-1.138,0.355c-1.144,0.406-2.446,0.75-3.83,1.041     c-1.373,0.293-2.885,0.524-4.542,0.679c-3.208,0.335-6.901,0.403-11.035-0.144c-4.107-0.543-7.693-1.627-10.554-3.474     c-1.416-0.908-2.673-2.004-3.753-3.308c-1.068-1.301-1.902-2.796-2.555-4.51c0,0-0.216-0.654-0.54-1.634     c-0.307-0.987-0.755-2.341-1.082-3.71c-0.339-1.369-0.69-2.789-0.88-3.853c-0.193-1.076-0.321-1.793-0.321-1.793     c-0.39-1.937-0.383-3.781-0.136-5.541c0.12-0.882,0.362-1.715,0.64-2.533c0.292-0.811,0.619-1.609,1.066-2.341     c0.872-1.477,1.977-2.821,3.388-3.936C168.946,769.414,170.625,768.508,172.491,767.807z M190.349,785.8     c-1.718-1.166-3.256-0.801-4.436,1.227c-1.145,2.045-0.73,3.54,1.152,4.45c1.866,0.903,3.251,0.446,4.246-1.336     C192.338,788.375,192.077,786.971,190.349,785.8z"
/>
<path
   style="fill:#FFA227;"
   d="M209.903,836.153c-0.119,0.604-0.279,1.245-0.441,1.88c-0.161,0.634-0.351,1.29-0.571,1.969     c-0.449,1.369-0.977,2.78-1.658,4.288c-1.328,2.954-3.167,6.162-5.701,9.459c-2.531,3.295-5.193,5.897-8.194,7.456     c-1.508,0.776-3.121,1.326-4.785,1.566c-0.836,0.126-1.695,0.185-2.575,0.177c-0.879-0.009-1.751-0.114-2.656-0.275     c0,0-0.684-0.135-1.709-0.337c-1.014-0.227-2.372-0.565-3.757-0.938c-1.367-0.384-2.729-0.833-3.771-1.18     c-0.523-0.171-0.946-0.33-1.244-0.442c-0.298-0.112-0.469-0.177-0.469-0.177c-3.703-1.266-6.474-3.612-8.21-6.55     c-1.672-2.974-2.317-6.546-1.555-10.386c0,0,0.03-0.18,0.082-0.494c0.053-0.314,0.125-0.759,0.24-1.297     c0.222-1.075,0.518-2.479,0.868-3.855c0.37-1.385,0.76-2.73,1.07-3.721c0.339-0.989,0.565-1.648,0.565-1.648     c0.314-0.863,0.662-1.672,1.092-2.436c0.434-0.766,0.916-1.479,1.444-2.14c1.042-1.32,2.324-2.44,3.752-3.356     c2.854-1.816,6.437-2.817,10.557-3.357c4.122-0.54,7.822-0.524,11.043-0.195c1.645,0.167,3.133,0.417,4.542,0.714     c0.697,0.15,1.36,0.315,1.989,0.493c0.633,0.177,1.266,0.36,1.848,0.56c0,0,0.444,0.142,1.109,0.356     c0.685,0.197,1.594,0.431,2.474,0.626c0.903,0.19,1.811,0.331,2.466,0.423c0.325,0.048,0.612,0.076,0.809,0.095     c0.197,0.019,0.309,0.029,0.309,0.029c2.321,0.226,3.704,0.557,4.154,1.418c0.52,0.822,0.115,2.183-0.854,4.306     c0,0-0.047,0.103-0.13,0.282c-0.083,0.181-0.201,0.442-0.323,0.748c-0.248,0.613-0.583,1.47-0.869,2.346     c-0.272,0.86-0.526,1.765-0.697,2.455C210.002,835.698,209.903,836.153,209.903,836.153z M190.335,841.745     c0.866-0.578,1.365-1.232,1.509-1.944c0.161-0.724-0.014-1.517-0.551-2.395c-0.491-0.903-1.087-1.453-1.796-1.675     c-0.688-0.231-1.504-0.128-2.438,0.332c-0.934,0.46-1.512,1.053-1.723,1.805c-0.192,0.74,0,1.629,0.559,2.651     c0.605,0.996,1.278,1.609,2.015,1.812C188.666,842.526,189.469,842.323,190.335,841.745z"
/>
<path
   style="fill:#A81C1C;"
   d="M210.661,871.202c-0.166-3.399,0.694-7.047,2.281-10.873c1.598-3.852,3.506-7.013,5.403-9.623     c0.964-1.356,1.922-2.549,2.862-3.59c0.946-1.053,1.895-2.006,2.82-2.793c0,0,0.351-0.323,0.878-0.807     c0.517-0.495,1.171-1.109,1.792-1.818c0.622-0.7,1.193-1.357,1.606-1.914c0.401-0.544,0.668-0.907,0.668-0.907     c0.681-0.931,1.264-1.705,1.791-2.161c0.264-0.228,0.516-0.441,0.761-0.554c0.245-0.127,0.484-0.154,0.723-0.175     c0.478-0.015,0.956,0.26,1.486,0.724c0.533,0.51,1.115,1.198,1.812,2.18c0,0,0.064,0.093,0.177,0.256     c0.115,0.155,0.28,0.376,0.478,0.641c0.401,0.519,0.974,1.265,1.579,1.926c0.602,0.665,1.258,1.361,1.761,1.832     c0.514,0.474,0.857,0.79,0.857,0.79c1.862,1.648,3.788,3.693,5.727,6.371c1.902,2.634,3.755,5.804,5.351,9.656     c1.587,3.828,2.522,7.458,2.373,10.826c-0.153,3.388-1.344,6.622-3.718,9.411c0,0-0.451,0.521-1.129,1.304     c-0.687,0.786-1.649,1.769-2.649,2.782c-0.997,1.017-2.059,1.945-2.868,2.677c-0.41,0.36-0.751,0.659-0.99,0.869     c-0.244,0.201-0.383,0.316-0.383,0.316c-1.542,1.263-3.167,2.264-4.842,2.88c-1.672,0.661-3.388,0.947-5.103,0.96     c-0.858,0.02-1.713-0.094-2.561-0.249c-0.847-0.169-1.689-0.379-2.513-0.715c-1.647-0.67-3.247-1.586-4.727-2.894     c0,0-0.556-0.471-1.39-1.177c-0.825-0.696-1.878-1.713-2.893-2.692c-1.021-0.969-1.969-2.034-2.669-2.795     c-0.686-0.771-1.144-1.286-1.144-1.286c-1.157-1.424-2.033-2.897-2.624-4.471C211.056,874.52,210.737,872.882,210.661,871.202z      M228.926,864.077c-0.155,2.085,0.931,3.192,3.275,3.225c2.346-0.004,3.431-1.154,3.283-3.224     c-0.149-2.083-1.232-3.01-3.274-3.008C230.169,861.04,229.079,862.009,228.926,864.077z"
/>
<path
   style="fill:#FFA227;"
   d="M255.605,823.505c0,0,0.447-0.047,1.118-0.118c0.684-0.077,1.54-0.235,2.455-0.417     c0.923-0.177,1.78-0.43,2.466-0.624c0.682-0.208,1.137-0.346,1.137-0.346l36.26,9.746c0,0,0.217,0.647,0.543,1.617     c0.31,0.977,0.761,2.317,1.093,3.672c0.344,1.356,0.699,2.761,0.896,3.814c0.198,1.065,0.329,1.774,0.329,1.774     c0.751,3.86,0.13,7.463-1.626,10.528c-0.864,1.467-1.969,2.802-3.371,3.904c-1.364,1.128-3.028,2.012-4.865,2.675     c0,0-0.675,0.262-1.712,0.598c-1.039,0.335-2.378,0.786-3.753,1.144c-1.377,0.359-2.713,0.697-3.734,0.902     c-1.017,0.195-1.694,0.324-1.694,0.324c-3.667,0.723-7.013,0.085-10.009-1.489c-3.008-1.542-5.738-4.125-8.252-7.421     c-2.529-3.313-4.298-6.542-5.618-9.514c-1.361-3.009-2.187-5.679-2.652-8.146c0,0-0.102-0.455-0.254-1.136     c-0.161-0.674-0.431-1.587-0.706-2.441c-0.274-0.858-0.63-1.723-0.879-2.331c-0.25-0.609-0.45-1.017-0.45-1.017     c-0.509-1.081-0.819-1.924-0.995-2.636c-0.138-0.688-0.137-1.237,0.113-1.641C251.925,824.066,253.276,823.737,255.605,823.505z      M277.447,836.072c-1.868-0.902-3.254-0.427-4.284,1.407c-1.018,1.753-0.768,3.167,0.96,4.341     c1.716,1.167,3.265,0.79,4.436-1.223C279.743,838.493,279.329,836.98,277.447,836.072z"
/>
<path
   style="fill:#00BF33;"
   d="M273.22,790.213c0.486,0.898,1.085,1.446,1.792,1.672c0.689,0.233,1.506,0.134,2.441-0.326     c0.934-0.459,1.511-1.055,1.721-1.809c0.194-0.743,0-1.631-0.554-2.646c-0.621-1.027-1.305-1.658-2.051-1.872     c-0.763-0.205-1.568-0.004-2.434,0.574c-0.866,0.579-1.362,1.237-1.499,1.958C272.484,788.499,272.669,789.308,273.22,790.213z"
/>
<path
   style="fill:#FFFFFF;"
   d="M232.246,766.516c2.103,0.027,3.208-0.935,3.364-3.004c0.157-2.083-0.945-3.199-3.36-3.228      c-2.328,0.004-3.431,1.158-3.281,3.226C229.119,765.595,230.219,766.518,232.246,766.516z"
/>
<path
   style="fill:#00BF33;"
   d="M185.913,787.026c-1.145,2.045-0.73,3.54,1.152,4.45c1.866,0.903,3.251,0.446,4.246-1.336     c1.027-1.766,0.765-3.169-0.962-4.341C188.631,784.634,187.093,784.999,185.913,787.026z"
/>
<path
   style="fill:#FFFFFF;"
   d="M191.293,837.407c-0.491-0.903-1.087-1.453-1.796-1.675c-0.688-0.231-1.504-0.128-2.438,0.332      c-0.934,0.46-1.512,1.053-1.723,1.805c-0.192,0.74,0,1.629,0.559,2.651c0.605,0.996,1.278,1.609,2.015,1.812      c0.756,0.194,1.559-0.009,2.425-0.587c0.866-0.578,1.365-1.232,1.509-1.944C192.005,839.077,191.83,838.284,191.293,837.407z"
/>
<path
   style="fill:#00BF33;"
   d="M232.201,867.303c2.346-0.004,3.431-1.154,3.283-3.224c-0.149-2.083-1.232-3.01-3.274-3.008     c-2.042-0.03-3.131,0.939-3.284,3.007C228.771,866.162,229.857,867.27,232.201,867.303z"
/>
<path
   style="fill:#FFFFFF;"
   d="M273.163,837.479c-1.018,1.753-0.768,3.167,0.96,4.341c1.716,1.167,3.265,0.79,4.436-1.223      c1.184-2.105,0.771-3.617-1.112-4.525C275.579,835.171,274.193,835.645,273.163,837.479z"
/>
<path
   style="fill:#E0486C;"
   d="M233.929,812.976c17.793-17.793,17.793,22.812,0,5.019c17.793,17.793-22.812,17.793-5.018,0    c-17.793,17.793-17.793-22.812,0-5.019C211.117,795.183,251.722,795.183,233.929,812.976z"
/>
<path
   style="fill:#00BF33;"
   d="M234.905,812c1.925,1.925,1.925,5.046,0,6.97c-1.925,1.925-5.045,1.925-6.97,0    c-1.925-1.925-1.925-5.045,0-6.97C229.859,810.076,232.98,810.076,234.905,812z"
/>
</g>
</svg>
