<?xml version="1.0" encoding="UTF-8" standalone="no"?>
<svg
  version="1.1"
  viewBox="1670 620 400 400"
  xmlns="http://www.w3.org/2000/svg">
<g fill="none">
<polygon
   style="fill:#A81C1C;"
   points="1871.42,790.988 1880.217,800.248 1892.635,803.237 1889.015,815.485 1892.635,827.734     1880.217,830.723 1871.42,839.983 1862.622,830.723 1850.204,827.734 1853.825,815.485 1850.204,803.237 1862.622,800.248   "
/>
<polygon
   style="fill:#75CBEA;"
   points="1871.42,798.418 1877.549,804.869 1886.2,806.952 1883.678,815.485 1886.2,824.019     1877.549,826.102 1871.42,832.553 1865.29,826.102 1856.639,824.019 1859.161,815.485 1856.639,806.952 1865.29,804.869   "
/>
<path
   style="fill:#00BF33;"
   d="M2004.376,858.488c1.429,0.46,3.083,0.279,4.901-0.664c0,0,1.381-0.684,2.762-1.367      c1.389-0.715,2.779-1.43,2.779-1.43l2.406-1.301l-21.26-5.568c0,0,1.185,1.688,2.353,3.447c1.17,1.752,2.32,3.575,2.32,3.575      C2001.757,856.93,2002.949,858.029,2004.376,858.488z"
/>
<path
   style="fill:#75CBEA;"
   d="M1990.921,887.951c1.284,0.778,2.902,0.964,4.926,0.486c0,0,1.518-0.338,3.037-0.676      c1.544-0.341,3.024-0.759,3.024-0.759s1.492-0.428,2.985-0.856c1.507-0.458,3.013-0.915,3.013-0.915s1.527-0.479,3.046-1.003      c1.494-0.552,2.987-1.105,2.987-1.105s1.513-0.564,3.026-1.128c1.525-0.595,3.05-1.19,3.05-1.19      c2.032-0.821,4.189-1.239,6.581-1.124c2.366,0.112,4.247-1.395,5.434-4.488c0,0,0.815-2.352,1.63-4.704      c0.4-1.178,0.8-2.357,1.1-3.24c0.262-0.894,0.437-1.49,0.437-1.49c0.923-3.165,0.157-4.681-2.227-4.511      c-2.386,0.174-4.541,0.805-6.413,1.867c0,0-0.352,0.199-0.968,0.546c-0.605,0.348-1.507,0.83-2.6,1.388      c-2.175,1.122-5.057,2.55-7.905,3.867c-2.911,1.301-5.847,2.469-8.001,3.306c-1.078,0.408-1.977,0.747-2.605,0.985      c-0.646,0.221-1.015,0.347-1.015,0.347c-1.958,0.663-3.594,0.653-4.959,0.031c-1.365-0.622-2.45-1.852-3.317-3.657      c0,0-0.154-0.336-0.384-0.84c-0.249-0.505-0.582-1.179-0.915-1.853c-0.678-1.323-1.356-2.646-1.356-2.646      s-0.694-1.281-1.388-2.562c-0.352-0.628-0.703-1.255-0.967-1.726c-0.258-0.464-0.46-0.781-0.46-0.781s-0.775-1.243-1.55-2.486      c-0.784-1.211-1.569-2.423-1.569-2.423s-0.776-1.186-1.553-2.372c-0.381-0.582-0.796-1.168-1.112-1.606      c-0.313-0.435-0.522-0.725-0.522-0.725c-1.122-1.53-2.412-2.469-3.896-2.901c-1.43-0.414-2.724,0.073-3.865,1.375      c-1.215,1.278-1.747,2.733-1.538,4.491c0.043,0.447,0.12,0.887,0.212,1.315c0.077,0.422,0.183,0.836,0.316,1.245      c0.267,0.817,0.646,1.611,1.135,2.391c0,0,0.931,1.462,2.291,3.767c1.291,2.271,2.941,5.388,4.538,8.682      c1.501,3.235,2.897,6.622,3.918,9.243c0.949,2.578,1.529,4.356,1.529,4.356C1988.701,885.81,1989.638,887.174,1990.921,887.951z      "
/>
<path
   style="fill:#FFA227;"
   d="M1971.012,913.493c1.068,1.054,2.605,1.616,4.695,1.631c0,0,0.389,0.01,0.972,0.025      c0.586,0.015,1.37,0.031,2.132,0.017c1.55-0.027,3.099-0.054,3.099-0.054s1.56-0.062,3.12-0.123      c1.581-0.087,3.162-0.174,3.162-0.174s0.393-0.036,0.981-0.089c0.591-0.06,1.379-0.14,2.166-0.22      c1.592-0.182,3.185-0.364,3.185-0.364s1.613-0.189,3.227-0.378c0.817-0.096,1.623-0.211,2.216-0.311c0.6-0.096,1-0.16,1-0.16      c2.126-0.359,4.377-0.226,6.672,0.435c2.286,0.662,4.508-0.337,6.305-3.131c0,0,1.37-2.087,2.739-4.173      c1.296-2.133,2.553-4.289,2.553-4.289c0.838-1.424,1.166-2.554,0.984-3.37c-0.183-0.818-0.891-1.332-2.056-1.518      c-2.371-0.382-4.635-0.272-6.725,0.322c0,0-1.579,0.456-3.913,1.072c-0.582,0.151-1.212,0.314-1.878,0.486      c-0.679,0.154-1.395,0.316-2.136,0.484c-1.48,0.325-3.047,0.651-4.6,0.955c-1.561,0.299-3.077,0.598-4.542,0.821      c-1.471,0.22-2.831,0.406-3.99,0.555c-2.317,0.298-3.833,0.455-3.833,0.455c-2.007,0.229-3.622-0.18-4.804-1.1      c-1.186-0.923-1.929-2.352-2.405-4.348c0,0-0.322-1.462-0.643-2.924c-0.341-1.435-0.681-2.869-0.681-2.869      s-0.09-0.352-0.225-0.879c-0.136-0.526-0.313-1.22-0.53-1.931c-0.424-1.398-0.849-2.796-0.849-2.796s-0.453-1.378-0.906-2.756      c-0.469-1.349-0.939-2.698-0.939-2.698s-0.111-0.333-0.306-0.843c-0.192-0.504-0.449-1.176-0.705-1.848      c-0.526-1.319-1.052-2.638-1.052-2.638c-0.72-1.73-1.749-2.932-3.094-3.694c-1.296-0.732-2.682-0.57-4.12,0.405      c-0.728,0.483-1.271,1.067-1.68,1.735c-0.436,0.652-0.709,1.405-0.827,2.27c-0.271,1.753-0.044,3.499,0.501,5.209      c0,0,0.552,1.626,1.319,4.164c0.808,2.567,1.64,5.943,2.403,9.496c0.184,0.894,0.369,1.788,0.551,2.668      c0.16,0.874,0.299,1.731,0.435,2.573c0.269,1.681,0.498,3.276,0.681,4.659c0.178,1.378,0.335,2.564,0.396,3.355      c0.071,0.806,0.112,1.267,0.112,1.267C1969.353,910.901,1969.944,912.44,1971.012,913.493z"
/>
<path
   style="fill:#00BF33;"
   d="M1945.751,933.76c0.797,1.271,2.167,2.176,4.203,2.68c0,0,0.379,0.108,0.934,0.238      c0.561,0.132,1.309,0.309,2.057,0.486c1.518,0.337,3.037,0.675,3.037,0.675s1.536,0.307,3.073,0.613      c0.775,0.149,1.558,0.297,2.13,0.381c0.578,0.09,0.964,0.151,0.964,0.151s1.571,0.219,3.141,0.438      c1.596,0.198,3.192,0.396,3.192,0.396s0.402,0.051,1.006,0.127c0.603,0.073,1.421,0.181,2.215,0.246      c1.612,0.136,3.224,0.272,3.224,0.272c2.158,0.152,4.322,0.811,6.406,1.991c2.099,1.207,4.407,0.658,6.842-1.593      c0,0,0.457-0.423,1.144-1.057c0.69-0.631,1.603-1.478,2.467-2.377c1.75-1.776,3.5-3.551,3.5-3.551      c1.169-1.164,1.711-2.223,1.71-3.072c-0.001-0.85-0.557-1.501-1.654-1.959c-2.202-0.908-4.385-1.284-6.581-1.219      c0,0-1.649,0.068-4.073,0.114c-1.212,0.023-2.616,0.038-4.105,0.036c-1.507-0.021-3.123-0.084-4.708-0.153      c-3.184-0.148-6.252-0.34-8.609-0.629c-2.332-0.257-3.849-0.461-3.849-0.461c-2.024-0.263-3.47-0.995-4.409-2.166      c-0.939-1.17-1.364-2.771-1.347-4.8c0,0,0.031-1.489,0.063-2.979c0.007-1.467,0.014-2.935,0.014-2.935s-0.011-0.369-0.028-0.922      c-0.023-0.552-0.054-1.287-0.085-2.022c-0.082-1.451-0.163-2.903-0.163-2.903s-0.114-1.438-0.228-2.877      c-0.058-0.708-0.133-1.424-0.204-1.972c-0.067-0.54-0.112-0.901-0.112-0.901s-0.175-1.423-0.351-2.846      c-0.197-1.398-0.394-2.796-0.394-2.796c-0.276-1.831-1.023-3.263-2.157-4.318c-0.547-0.509-1.152-0.788-1.835-0.876      c-0.691-0.094-1.449,0.013-2.271,0.314c-1.667,0.579-2.69,1.743-3.369,3.327c-0.684,1.633-0.9,3.353-0.715,5.202      c0,0,0.151,1.702,0.297,4.337c0.072,1.318,0.14,2.872,0.185,4.562c0.021,1.66-0.003,3.428-0.047,5.237      c-0.053,1.795-0.107,3.656-0.237,5.35c-0.131,1.69-0.282,3.288-0.427,4.67c-0.145,1.381-0.283,2.545-0.384,3.362      c-0.098,0.823-0.171,1.277-0.171,1.277C1944.735,930.861,1944.953,932.489,1945.751,933.76z"
/>
<path
   style="fill:#75CBEA;"
   d="M1916.514,947.698c0.479,1.405,1.624,2.654,3.469,3.554c0,0,1.373,0.696,2.746,1.392      c1.403,0.684,2.807,1.367,2.807,1.367s1.414,0.67,2.854,1.311c1.439,0.599,2.879,1.199,2.879,1.199s1.482,0.58,2.963,1.16      c1.511,0.565,3.022,1.131,3.022,1.131s0.38,0.141,0.949,0.352c0.569,0.196,1.327,0.457,2.086,0.718      c1.541,0.509,3.082,1.018,3.082,1.018c2.069,0.652,4.028,1.797,5.787,3.428c1.743,1.614,4.119,1.619,7.015,0.011      c0,0,0.543-0.303,1.359-0.757c0.818-0.45,1.864-1.126,2.929-1.771c2.117-1.311,4.233-2.621,4.233-2.621      c2.748-1.833,3.121-3.514,1.192-4.905c-1.939-1.4-3.981-2.277-6.105-2.678c0,0-1.623-0.32-3.998-0.844      c-1.187-0.262-2.561-0.576-4.012-0.926c-0.728-0.179-1.466-0.351-2.228-0.557c-0.759-0.214-1.531-0.432-2.302-0.649      c-3.074-0.893-6.023-1.798-8.23-2.581c-2.215-0.796-3.648-1.349-3.648-1.349c-1.914-0.73-3.156-1.778-3.801-3.132      c-0.645-1.354-0.69-3.005-0.203-4.967c0,0,0.376-1.436,0.751-2.872c0.372-1.412,0.673-2.88,0.673-2.88s0.286-1.442,0.571-2.883      c0.258-1.425,0.516-2.85,0.516-2.85s0.058-0.357,0.146-0.891c0.083-0.539,0.204-1.23,0.294-1.961      c0.172-1.444,0.344-2.887,0.344-2.887s0.161-1.419,0.323-2.837c0.135-1.4,0.27-2.799,0.27-2.799      c0.13-1.881-0.269-3.451-1.125-4.731c-0.414-0.619-0.946-1.04-1.585-1.273c-0.32-0.117-0.667-0.186-1.039-0.209      c-0.382-0.037-0.793-0.032-1.23,0.018c-1.763,0.176-3.055,1.033-4.049,2.473c-1.05,1.422-1.665,3.03-1.911,4.872      c0,0-0.06,0.437-0.165,1.203c-0.117,0.75-0.297,1.812-0.532,3.107c-0.474,2.572-1.163,6.139-2.115,9.568      c-0.462,1.737-0.961,3.493-1.458,5.152c-0.501,1.648-1.029,3.132-1.486,4.446c-0.921,2.61-1.607,4.379-1.607,4.379      C1916.205,944.682,1916.025,946.263,1916.514,947.698z"
/>
<path
   style="fill:#FFA227;"
   d="M1884.854,954.541c0.143,1.494,0.959,2.895,2.549,4.216c0,0,1.177,1.003,2.353,2.007      c1.209,0.999,2.418,1.997,2.418,1.997s0.307,0.245,0.768,0.613c0.464,0.349,1.083,0.814,1.702,1.279      c1.265,0.924,2.529,1.848,2.529,1.848s1.311,0.915,2.621,1.83c0.669,0.453,1.337,0.907,1.839,1.246      c0.504,0.321,0.84,0.535,0.84,0.535s1.354,0.867,2.707,1.734c1.385,0.858,2.771,1.715,2.771,1.715      c1.87,1.129,3.514,2.694,4.841,4.643c1.325,1.967,3.645,2.537,6.842,1.655c0,0,0.606-0.148,1.492-0.445      c0.889-0.287,2.075-0.67,3.261-1.052c1.184-0.387,2.369-0.774,3.257-1.064c0.446-0.141,0.812-0.273,1.066-0.372      c0.255-0.095,0.401-0.15,0.401-0.15c3.095-1.161,3.853-2.686,2.291-4.493c-1.566-1.806-3.362-3.154-5.333-4.015      c0,0-0.37-0.163-1.017-0.447c-0.646-0.308-1.569-0.747-2.677-1.274c-2.202-1.078-5.054-2.482-7.826-4.027      c-2.789-1.578-5.467-3.192-7.424-4.417c-0.977-0.599-1.796-1.178-2.357-1.548c-0.562-0.382-0.883-0.6-0.883-0.6      c-1.698-1.161-2.665-2.473-2.982-3.939c-0.316-1.467,0.022-3.078,0.949-4.864c0,0,0.697-1.303,1.395-2.605      c0.654-1.342,1.308-2.684,1.308-2.684s0.611-1.33,1.222-2.659c0.58-1.32,1.16-2.64,1.16-2.64s0.139-0.331,0.347-0.829      c0.197-0.513,0.461-1.197,0.724-1.88c0.5-1.358,1.001-2.716,1.001-2.716s0.484-1.336,0.969-2.672      c0.234-0.668,0.465-1.322,0.629-1.828c0.16-0.512,0.267-0.853,0.267-0.853c0.552-1.817,0.532-3.414-0.01-4.861      c-0.525-1.399-1.679-2.126-3.406-2.284c-1.754-0.235-3.225,0.242-4.506,1.462c-1.339,1.163-2.316,2.546-2.978,4.28      c0,0-0.159,0.409-0.437,1.126c-0.281,0.721-0.69,1.753-1.221,2.935c-0.527,1.196-1.164,2.599-1.883,4.113      c-0.719,1.509-1.515,3.161-2.371,4.708c-0.851,1.573-1.741,3.155-2.609,4.644c-0.442,0.746-0.869,1.468-1.274,2.152      c-0.423,0.661-0.822,1.285-1.191,1.861c-1.5,2.309-2.578,3.859-2.578,3.859C1885.244,951.473,1884.711,953.048,1884.854,954.541      z"
/>
<path
   style="fill:#00BF33;"
   d="M1852.473,953.793c-0.207,1.486,0.26,3.049,1.498,4.723c0,0,0.91,1.264,1.819,2.528      c0.462,0.642,0.934,1.255,1.292,1.706c0.359,0.456,0.599,0.761,0.599,0.761s0.982,1.205,1.964,2.409      c1.014,1.206,2.029,2.412,2.029,2.412s0.262,0.302,0.656,0.755c0.396,0.447,0.926,1.073,1.468,1.639      c1.097,1.157,2.195,2.313,2.195,2.313s1.116,1.17,2.231,2.339c1.149,1.168,2.298,2.336,2.298,2.336      c1.557,1.514,2.795,3.357,3.635,5.595c0.419,1.114,1.156,1.949,2.208,2.495c0.525,0.273,1.129,0.473,1.809,0.6      c0.68,0.131,1.436,0.184,2.262,0.117c0,0,2.49-0.173,4.98-0.346c1.245-0.093,2.491-0.167,3.418-0.295      c0.929-0.109,1.549-0.182,1.549-0.182c3.289-0.391,4.382-1.689,3.277-3.814c-1.109-2.125-2.548-3.861-4.27-5.167      c0,0-0.323-0.246-0.888-0.677c-0.564-0.44-1.36-1.027-2.306-1.811c-1.895-1.56-4.351-3.651-6.689-5.755      c-1.17-1.027-2.319-2.178-3.373-3.202c-1.054-1.037-2.016-2.006-2.827-2.837c-0.8-0.831-1.467-1.524-1.934-2.009      c-0.23-0.239-0.41-0.436-0.532-0.574c-0.122-0.136-0.187-0.208-0.187-0.208c-1.381-1.54-2.018-3.049-1.986-4.549      c0.032-1.5,0.735-2.98,2.051-4.486c0,0,0.25-0.262,0.62-0.694c0.366-0.429,0.853-1,1.341-1.572      c0.947-1.142,1.894-2.285,1.894-2.285s0.902-1.14,1.805-2.281c0.443-0.574,0.88-1.128,1.202-1.576      c0.321-0.445,0.535-0.742,0.535-0.742s0.834-1.199,1.668-2.398c0.801-1.195,1.602-2.39,1.602-2.39s0.799-1.176,1.56-2.358      c0.743-1.222,1.485-2.444,1.485-2.444c0.956-1.627,1.305-3.179,1.113-4.713c-0.187-1.477-1.143-2.479-2.781-3.025      c-0.818-0.257-1.618-0.415-2.399-0.36c-0.782,0.052-1.548,0.296-2.311,0.731c-1.565,0.901-2.836,1.965-3.88,3.49      c0,0-0.974,1.429-2.552,3.584c-1.575,2.11-3.787,4.828-6.183,7.597c-2.382,2.677-4.942,5.271-6.947,7.245      c-1,0.982-1.848,1.725-2.45,2.278c-0.605,0.543-0.95,0.853-0.95,0.853C1853.563,950.909,1852.68,952.307,1852.473,953.793z"
/>
<path
   style="fill:#75CBEA;"
   d="M1821.12,945.666c-0.537,1.39-0.456,3.064,0.371,4.962c0,0,0.606,1.412,1.213,2.823      c0.637,1.422,1.275,2.844,1.275,2.844s0.673,1.418,1.345,2.836c0.341,0.721,0.701,1.406,0.973,1.921      c0.273,0.518,0.456,0.863,0.456,0.863s0.763,1.39,1.526,2.779c0.794,1.397,1.589,2.794,1.589,2.794s0.199,0.353,0.499,0.882      c0.303,0.522,0.702,1.254,1.123,1.928c0.854,1.37,1.707,2.741,1.707,2.741c1.166,1.817,1.93,3.942,2.228,6.316      c0.148,1.187,0.667,2.18,1.557,2.966c0.899,0.746,2.171,1.275,3.797,1.572c0,0,0.612,0.111,1.531,0.278      c0.92,0.16,2.141,0.399,3.371,0.589c2.471,0.326,4.941,0.653,4.941,0.653c1.636,0.21,2.801,0.073,3.479-0.423      c0.682-0.513,0.872-1.349,0.584-2.499c-0.587-2.3-1.578-4.362-2.947-6.044c0,0-1.04-1.273-2.526-3.178      c-1.495-1.865-3.384-4.53-5.164-7.149c-0.892-1.311-1.758-2.618-2.549-3.84c-0.788-1.236-1.49-2.44-2.086-3.443      c-1.187-2.019-1.931-3.354-1.931-3.354c-0.999-1.776-1.277-3.371-0.901-4.823c0.376-1.452,1.406-2.751,3.044-3.954      c0,0,1.214-0.868,2.428-1.735c1.182-0.874,2.365-1.748,2.365-1.748s0.287-0.22,0.719-0.55c0.429-0.349,1-0.814,1.572-1.279      c1.117-0.938,2.234-1.876,2.234-1.876s1.087-0.956,2.175-1.913c0.53-0.48,1.06-0.96,1.457-1.32      c0.392-0.355,0.654-0.613,0.654-0.613s1.038-0.999,2.076-1.997c1.005-1.001,2.01-2.002,2.01-2.002      c1.307-1.341,2.006-2.759,2.175-4.295c0.161-1.48-0.536-2.692-2.003-3.635c-0.733-0.476-1.484-0.762-2.263-0.858      c-0.777-0.12-1.577-0.098-2.421,0.138c-1.721,0.424-3.241,1.333-4.605,2.53c0,0-1.278,1.141-3.31,2.838      c-1.016,0.848-2.224,1.833-3.555,2.883c-1.316,0.995-2.752,2.042-4.228,3.084c-1.473,1.036-2.992,2.085-4.436,3.021      c-1.431,0.902-2.801,1.734-3.993,2.442c-2.386,1.415-4.049,2.334-4.049,2.334      C1822.825,943.143,1821.664,944.257,1821.12,945.666z"
/>
<path
   style="fill:#FFA227;"
   d="M1792.468,930.562c-0.851,1.236-1.128,2.836-0.761,4.875c0,0,0.254,1.528,0.508,3.056      c0.282,1.546,0.565,3.091,0.565,3.091s0.077,0.383,0.206,0.945c0.131,0.566,0.306,1.321,0.48,2.077      c0.374,1.524,0.747,3.047,0.747,3.047s0.415,1.546,0.829,3.092c0.214,0.777,0.433,1.562,0.616,2.123      c0.18,0.57,0.3,0.951,0.3,0.951s0.48,1.536,0.959,3.073c0.51,1.55,1.02,3.1,1.02,3.1c0.355,1.032,0.595,2.113,0.714,3.237      c0.13,1.1,0.138,2.245,0.017,3.427c-0.249,2.359,1.164,4.288,4.181,5.669c0,0,0.142,0.065,0.39,0.178      c0.246,0.119,0.607,0.264,1.04,0.44c0.866,0.351,2.021,0.818,3.177,1.285c1.157,0.463,2.314,0.926,3.181,1.274      c0.865,0.356,1.455,0.553,1.455,0.553c3.118,1.088,4.679,0.403,4.642-1.983c-0.04-2.388-0.551-4.57-1.509-6.492      c0,0-0.185-0.35-0.488-1.005c-0.297-0.651-0.722-1.581-1.232-2.697c-0.996-2.239-2.28-5.144-3.413-8.109      c-1.124-3.003-2.138-5.962-2.851-8.159c-0.364-1.086-0.627-2.04-0.815-2.693c-0.185-0.654-0.29-1.029-0.29-1.029      c-0.553-1.984-0.452-3.612,0.249-4.939c0.7-1.327,1.994-2.343,3.85-3.113c0,0,0.345-0.136,0.863-0.339      c0.519-0.21,1.194-0.467,1.883-0.768c1.363-0.608,2.725-1.215,2.725-1.215s1.322-0.626,2.644-1.252      c1.292-0.638,2.583-1.276,2.583-1.276s0.319-0.165,0.798-0.412c0.481-0.267,1.122-0.622,1.763-0.978      c1.256-0.721,2.513-1.441,2.513-1.441s1.23-0.714,2.46-1.428c0.602-0.361,1.204-0.722,1.655-0.993      c0.447-0.273,0.751-0.476,0.751-0.476c1.593-1.042,2.604-2.281,3.119-3.738c0.499-1.416,0.07-2.69-1.143-3.944      c-1.194-1.305-2.629-1.882-4.396-1.768c-1.772,0.031-3.408,0.462-5.028,1.365c0,0-0.385,0.211-1.058,0.581      c-0.674,0.362-1.661,0.913-2.824,1.472c-1.171,0.576-2.559,1.24-4.08,1.936c-0.769,0.344-1.563,0.7-2.37,1.061      c-0.41,0.178-0.823,0.357-1.238,0.537l-1.238,0.495c-1.66,0.655-3.357,1.291-4.977,1.871c-1.617,0.577-3.173,1.123-4.475,1.502      c-2.629,0.799-4.448,1.29-4.448,1.29C1794.738,928.465,1793.318,929.326,1792.468,930.562z"
/>
<path
   style="fill:#00BF33;"
   d="M1766.124,932.627c0,0,0.101,1.615,0.203,3.229c0.128,1.635,0.255,3.269,0.255,3.269      c0.243,2.133-0.015,4.366-0.805,6.614c-0.396,1.124-0.369,2.239,0.084,3.334c0.455,1.092,1.316,2.19,2.666,3.154      c0,0,2.014,1.474,4.028,2.948c0.506,0.365,1.011,0.73,1.486,1.073c0.487,0.323,0.942,0.625,1.332,0.884      c0.781,0.516,1.301,0.86,1.301,0.86c2.765,1.823,4.435,1.534,4.956-0.806c0.518-2.343,0.533-4.601,0.055-6.713      c0,0-0.368-1.596-0.855-3.95c-0.453-2.407-0.98-5.601-1.416-8.72c-0.107-0.784-0.219-1.551-0.306-2.326      c-0.078-0.777-0.155-1.543-0.229-2.283c-0.139-1.474-0.251-2.837-0.337-3.997c-0.172-2.32-0.247-3.835-0.247-3.835      c-0.067-2.07,0.416-3.636,1.404-4.765c0.989-1.128,2.477-1.81,4.452-2.116c0,0,1.484-0.243,2.968-0.487      c1.458-0.264,2.915-0.528,2.915-0.528s1.422-0.291,2.844-0.582c0.699-0.143,1.411-0.315,1.946-0.451      c0.531-0.134,0.885-0.223,0.885-0.223s1.407-0.38,2.814-0.759c1.379-0.398,2.759-0.795,2.759-0.795s0.34-0.098,0.851-0.244      c0.508-0.146,1.182-0.343,1.871-0.575c1.352-0.456,2.704-0.911,2.704-0.911c1.776-0.628,3.039-1.591,3.877-2.889      c0.806-1.251,0.72-2.637-0.179-4.115c-0.224-0.372-0.473-0.703-0.748-0.994c-0.268-0.302-0.551-0.581-0.867-0.811      c-0.631-0.466-1.372-0.775-2.234-0.936c-0.869-0.184-1.76-0.221-2.616-0.204c-0.856,0.017-1.721,0.148-2.605,0.39      c0,0-1.198,0.333-3.046,0.798c-0.917,0.224-2.028,0.516-3.176,0.749c-1.154,0.24-2.4,0.484-3.663,0.716      c-2.517,0.459-5.142,0.895-7.051,1.095c-1.934,0.228-3.252,0.354-3.252,0.354l-15.31,15.456c0,0-0.004,0.925-0.009,1.849      c0.004,0.932,0.008,1.865,0.008,1.865s0.007,0.4,0.017,1c0.008,0.605,0.03,1.406,0.078,2.191      C1766.028,931.034,1766.124,932.627,1766.124,932.627z"
/>
<path
   style="fill:#00BF33;"
   d="M1768.058,909.123c-1.114,1.005-1.76,2.502-1.886,4.578c0,0-0.115,1.552-0.23,3.103      c-0.057,0.786-0.096,1.566-0.11,2.14c-0.018,0.581-0.03,0.968-0.03,0.968l-0.042,2.702l15.467-15.614c0,0-2.082,0.21-4.218,0.37      c-2.087,0.122-4.217,0.181-4.217,0.181C1770.748,907.614,1769.172,908.118,1768.058,909.123z"
/>
<path
   style="fill:#75CBEA;"
   d="M1749.301,882.72c-1.315,0.722-2.291,2.034-2.901,4.03c0,0-0.12,0.369-0.3,0.924      c-0.174,0.552-0.428,1.307-0.637,2.044c-0.416,1.491-0.832,2.982-0.832,2.982s-0.386,1.511-0.773,3.022      c-0.368,1.537-0.736,3.075-0.736,3.075s-0.097,0.396-0.206,0.972c-0.112,0.583-0.261,1.359-0.41,2.136      c-0.282,1.576-0.563,3.151-0.563,3.151s-0.281,1.598-0.562,3.195c-0.135,0.805-0.271,1.619-0.345,2.214      c-0.08,0.601-0.134,1.002-0.134,1.002c-0.267,2.137-1.041,4.253-2.335,6.26c-1.289,1.996-0.977,4.41,1.178,6.931      c0,0,1.601,1.909,3.202,3.817c1.683,1.838,3.365,3.676,3.365,3.676c1.119,1.212,2.105,1.851,2.938,1.912      c0.851,0.046,1.535-0.473,2.054-1.538c1.036-2.146,1.596-4.355,1.629-6.524c0,0,0.021-1.643,0.105-4.055      c0.051-2.385,0.34-5.663,0.639-8.797c0.164-1.581,0.312-3.116,0.524-4.586c0.212-1.471,0.424-2.826,0.614-3.978      c0.38-2.303,0.664-3.8,0.664-3.8c0.355-1.987,1.223-3.426,2.438-4.289c1.231-0.875,2.8-1.168,4.85-1.052      c0,0,1.493,0.112,2.987,0.223c1.473,0.086,2.946,0.172,2.946,0.172s0.363,0.015,0.908,0.037      c0.546,0.019,1.256,0.053,2.001,0.051c1.462-0.003,2.923-0.007,2.923-0.007s1.451-0.036,2.901-0.073      c1.428-0.06,2.857-0.121,2.857-0.121s0.354-0.013,0.898-0.052c0.538-0.038,1.255-0.09,1.973-0.141      c1.415-0.122,2.83-0.243,2.83-0.243c1.865-0.188,3.313-0.826,4.43-1.894c1.074-1.03,1.319-2.406,0.798-4.068      c-0.255-0.837-0.654-1.531-1.181-2.114c-0.5-0.606-1.145-1.087-1.941-1.45c-1.607-0.766-3.34-1.058-5.139-1.028      c0,0-1.719,0.06-4.374,0.063c-2.694,0.035-6.16-0.147-9.793-0.431c-0.902-0.074-1.822-0.147-2.711-0.242      c-0.882-0.11-1.75-0.218-2.59-0.322c-1.69-0.223-3.287-0.46-4.666-0.679c-1.385-0.216-2.539-0.421-3.32-0.586      c-0.794-0.162-1.248-0.254-1.248-0.254C1752.261,881.871,1750.616,881.998,1749.301,882.72z"
/>
<path
   style="fill:#FFA227;"
   d="M1737.096,852.722c-1.446,0.401-2.703,1.454-3.765,3.26c0,0-0.204,0.333-0.509,0.831      c-0.286,0.499-0.668,1.166-1.05,1.832c-0.754,1.358-1.509,2.716-1.509,2.716s-0.73,1.384-1.46,2.769      c-0.359,0.705-0.718,1.409-0.987,1.938c-0.251,0.528-0.418,0.881-0.418,0.881s-0.655,1.442-1.311,2.884      c-0.642,1.472-1.285,2.944-1.285,2.944s-0.659,1.479-1.29,2.986c-0.588,1.505-1.176,3.01-1.176,3.01      c-0.759,2.023-2.005,3.908-3.729,5.567c-0.858,0.827-1.357,1.845-1.436,3.02c-0.063,1.168,0.271,2.506,1.003,3.989      c0,0,0.276,0.558,0.689,1.395c0.423,0.832,0.943,1.965,1.563,3.045c1.204,2.179,2.408,4.358,2.408,4.358      c0.4,0.72,0.802,1.293,1.203,1.717c0.418,0.414,0.834,0.68,1.241,0.8c0.815,0.241,1.598-0.106,2.351-1.025      c0.75-0.924,1.375-1.884,1.874-2.872c0.516-0.998,0.916-2.031,1.187-3.086c0,0,0.404-1.597,1.051-3.93      c0.327-1.168,0.701-2.511,1.141-3.942c0.465-1.446,0.973-2.968,1.493-4.467c0.52-1.5,1.052-2.977,1.561-4.343      c0.502-1.363,1.06-2.652,1.503-3.727c0.908-2.159,1.534-3.554,1.534-3.554c0.827-1.863,1.939-3.039,3.329-3.605      c1.389-0.566,3.046-0.517,4.99,0.077c0,0,1.421,0.454,2.842,0.908c1.407,0.424,2.815,0.849,2.815,0.849s0.351,0.097,0.876,0.244      c0.536,0.135,1.251,0.315,1.966,0.495c1.417,0.335,2.834,0.671,2.834,0.671s1.414,0.301,2.828,0.602      c1.39,0.297,2.832,0.525,2.832,0.525s1.416,0.238,2.832,0.477c1.399,0.211,2.797,0.422,2.797,0.422      c1.846,0.253,3.405-0.036,4.746-0.824c1.267-0.747,1.83-2.036,1.717-3.783c-0.099-1.756-0.894-3.088-2.228-4.187      c-1.368-1.125-2.984-1.811-4.778-2.177c0,0-1.678-0.34-4.251-0.951c-1.282-0.308-2.808-0.68-4.424-1.126      c-1.583-0.459-3.287-0.98-5.006-1.539c-3.486-1.095-6.839-2.428-9.413-3.495c-1.285-0.532-2.363-0.996-3.119-1.326      c-0.751-0.331-1.16-0.533-1.16-0.533C1740.166,852.577,1738.541,852.321,1737.096,852.722z"
/>
<path
   style="fill:#00BF33;"
   d="M1732.13,820.719c-0.75,0.027-1.493,0.224-2.233,0.604c-0.744,0.379-1.479,0.941-2.168,1.695      c0,0-1.061,1.115-2.123,2.23c-1.059,1.148-2.117,2.296-2.117,2.296s-1.04,1.179-2.08,2.359      c-0.987,1.207-1.974,2.414-1.974,2.414s-0.98,1.254-1.961,2.507c-0.974,1.286-1.949,2.572-1.949,2.572s-0.247,0.324-0.616,0.81      c-0.35,0.489-0.818,1.141-1.285,1.794c-0.927,1.332-1.855,2.663-1.855,2.663c-1.216,1.797-2.872,3.347-4.938,4.567      c-2.068,1.213-2.732,3.488-2.019,6.729c0,0,0.136,0.608,0.34,1.521c0.184,0.918,0.533,2.115,0.852,3.32      c0.657,2.405,1.314,4.81,1.314,4.81c0.946,3.168,2.477,3.998,4.352,2.549c1.901-1.461,3.297-3.159,4.319-5.091      c0,0,0.768-1.465,1.945-3.592c1.186-2.131,2.727-4.889,4.488-7.581c0.859-1.343,1.726-2.661,2.543-3.875      c0.818-1.215,1.572-2.324,2.287-3.275c1.395-1.895,2.334-3.109,2.334-3.109c1.245-1.625,2.605-2.513,4.088-2.743      c1.482-0.23,3.078,0.201,4.82,1.229c0,0,1.269,0.771,2.539,1.542c0.632,0.371,1.265,0.743,1.74,1.022      c0.491,0.269,0.818,0.449,0.818,0.449s1.302,0.685,2.603,1.37c1.293,0.654,2.587,1.307,2.587,1.307s1.298,0.619,2.597,1.238      c1.336,0.576,2.672,1.152,2.672,1.152s1.316,0.559,2.631,1.117c1.305,0.528,2.609,1.055,2.609,1.055      c1.734,0.67,3.38,0.728,4.843,0.275c1.434-0.445,2.181-1.541,2.515-3.275c0.159-0.866,0.136-1.671-0.073-2.428      c-0.203-0.758-0.623-1.461-1.136-2.149c-1.065-1.407-2.432-2.453-4.13-3.214c0,0-0.399-0.182-1.098-0.502      c-0.679-0.327-1.651-0.802-2.823-1.396c-2.337-1.186-5.544-2.867-8.558-4.76c-1.532-0.94-3.071-1.92-4.519-2.873      c-1.429-0.954-2.701-1.885-3.827-2.699c-2.235-1.632-3.731-2.798-3.731-2.798c-0.829-0.63-1.601-1.103-2.359-1.411      C1733.632,820.834,1732.879,820.691,1732.13,820.719z"
/>
<path
   style="fill:#75CBEA;"
   d="M1734.735,788.434c-1.471-0.293-3.054,0.084-4.787,1.224c0,0-1.307,0.836-2.615,1.671      c-0.656,0.431-1.311,0.863-1.803,1.186c-0.498,0.327-0.809,0.551-0.809,0.551s-1.252,0.911-2.503,1.821      c-1.255,0.943-2.51,1.886-2.51,1.886s-1.26,0.989-2.519,1.979c-0.639,0.502-1.253,1.013-1.7,1.402      c-0.454,0.39-0.757,0.65-0.757,0.65s-1.224,1.046-2.449,2.091c-1.225,1.079-2.45,2.157-2.45,2.157      c-0.805,0.733-1.718,1.378-2.688,1.931c-0.96,0.553-2.01,1.012-3.145,1.366c-2.268,0.701-3.486,2.76-3.571,6.079      c0,0-0.004,0.156-0.011,0.429c0.004,0.273,0.009,0.663,0.015,1.131c0.018,0.936,0.041,2.184,0.065,3.432      c0.028,1.248,0.057,2.495,0.078,3.431c0.005,0.468,0.032,0.857,0.052,1.13c0.018,0.272,0.028,0.428,0.028,0.428      c0.222,3.305,1.464,4.472,3.644,3.494c2.18-0.982,3.987-2.316,5.38-3.958c0,0,0.262-0.308,0.721-0.846      c0.469-0.537,1.166-1.3,1.99-2.198c1.664-1.8,3.847-4.128,6.108-6.338c2.32-2.216,4.643-4.315,6.384-5.835      c0.858-0.762,1.615-1.381,2.149-1.811c0.529-0.427,0.832-0.672,0.832-0.672c1.607-1.29,3.145-1.838,4.64-1.717      c1.495,0.12,2.938,0.909,4.376,2.313c0,0,0.26,0.264,0.651,0.659c0.397,0.394,0.895,0.914,1.454,1.429      c1.094,1.013,2.188,2.026,2.188,2.026s1.094,0.968,2.189,1.936c1.094,0.935,2.188,1.871,2.188,1.871s0.266,0.23,0.703,0.571      c0.434,0.337,1.012,0.785,1.591,1.234c1.155,0.87,2.31,1.739,2.31,1.739s1.139,0.848,2.277,1.695      c0.573,0.416,1.127,0.825,1.571,1.127c0.444,0.3,0.74,0.501,0.74,0.501c1.581,1.049,3.116,1.488,4.658,1.386      c1.49-0.1,2.522-0.994,3.165-2.597c0.733-1.608,0.702-3.15-0.095-4.725c-0.745-1.614-1.767-2.947-3.239-4.079      c0,0-0.345-0.27-0.95-0.743c-0.59-0.476-1.502-1.166-2.471-2.016c-1.964-1.694-4.656-4.071-7.22-6.62      c-2.493-2.531-5.033-5.253-6.828-7.362c-1.764-2.102-2.929-3.579-2.929-3.579      C1737.556,789.69,1736.206,788.727,1734.735,788.434z"
/>
<path
   style="fill:#FFA227;"
   d="M1744.68,757.61c-1.366-0.622-3.006-0.622-4.982,0.079c0,0-0.37,0.124-0.925,0.31      c-0.54,0.199-1.26,0.464-1.98,0.73c-1.449,0.557-2.899,1.114-2.899,1.114s-1.448,0.593-2.895,1.185      c-0.728,0.309-1.457,0.619-2.003,0.851c-0.552,0.234-0.895,0.403-0.895,0.403s-1.425,0.685-2.85,1.37      c-1.434,0.716-2.869,1.432-2.869,1.432s-1.452,0.73-2.903,1.459c-0.738,0.37-1.44,0.757-1.967,1.051      c-0.53,0.295-0.883,0.492-0.883,0.492c-1.872,1.062-4.031,1.705-6.413,1.868c-2.363,0.161-4.13,1.847-4.849,5.075      c0,0-0.566,2.42-1.132,4.839c-0.304,1.204-0.478,2.441-0.664,3.355c-0.168,0.918-0.281,1.53-0.281,1.53      c-0.592,3.249,0.33,4.666,2.688,4.224c2.359-0.446,4.443-1.32,6.199-2.588c0,0,1.324-0.965,3.3-2.338      c1.976-1.375,4.757-3.103,7.445-4.734c1.367-0.812,2.67-1.614,3.99-2.319c1.305-0.709,2.519-1.349,3.555-1.885      c2.074-1.072,3.443-1.74,3.443-1.74c1.807-0.903,3.451-1.078,4.883-0.617c1.425,0.458,2.627,1.548,3.757,3.26      c0,0,0.803,1.264,1.607,2.527c0.812,1.232,1.623,2.465,1.623,2.465s0.205,0.3,0.513,0.75c0.315,0.45,0.703,1.038,1.149,1.633      c0.879,1.171,1.758,2.343,1.758,2.343s0.899,1.143,1.798,2.286c0.904,1.111,1.809,2.222,1.809,2.222s0.223,0.275,0.557,0.686      c0.339,0.411,0.822,0.96,1.292,1.499c0.948,1.064,1.897,2.128,1.897,2.128c1.272,1.386,2.653,2.168,4.177,2.426      c1.468,0.247,2.711-0.382,3.723-1.797c0.98-1.422,1.374-2.928,1.001-4.645c-0.177-0.877-0.46-1.706-0.848-2.498      c-0.404-0.795-0.82-1.529-1.398-2.25c0,0-1.075-1.344-2.664-3.473c-0.778-1.059-1.756-2.343-2.651-3.705      c-0.922-1.371-1.897-2.867-2.86-4.402c-1.982-3.085-3.665-6.248-4.967-8.726c-0.644-1.234-1.173-2.282-1.541-3.02      c-0.363-0.737-0.547-1.153-0.547-1.153C1747.125,759.471,1746.045,758.231,1744.68,757.61z"
/>
<path
   style="fill:#00BF33;"
   d="M1761.431,729.892c-1.183-0.921-2.802-1.32-4.834-1.056c0,0-1.533,0.17-3.066,0.339      c-1.552,0.197-3.104,0.394-3.104,0.394s-0.388,0.056-0.97,0.139c-0.584,0.084-1.368,0.199-2.123,0.342      c-1.535,0.288-3.07,0.577-3.07,0.577s-1.56,0.328-3.12,0.657c-1.577,0.357-3.153,0.714-3.153,0.714s-0.396,0.088-0.974,0.236      c-0.584,0.149-1.362,0.348-2.14,0.547c-1.569,0.423-3.139,0.846-3.139,0.846c-2.09,0.595-4.361,0.715-6.725,0.324      c-2.336-0.383-4.332,0.921-5.868,3.864c0,0-0.288,0.553-0.72,1.383c-0.444,0.824-0.938,1.97-1.473,3.097      c-1.044,2.265-2.088,4.531-2.088,4.531c-1.31,3.036-0.667,4.657,1.699,4.75c2.395,0.101,4.553-0.304,6.578-1.128      c0,0,1.531-0.63,3.8-1.503c2.289-0.866,5.219-2.002,8.307-2.93c3.057-0.949,6.027-1.813,8.29-2.38      c2.291-0.553,3.794-0.878,3.794-0.878c2.002-0.442,3.617-0.248,4.9,0.529c1.284,0.777,2.227,2.131,2.897,4.036      c0,0,0.474,1.404,0.948,2.809c0.241,0.695,0.48,1.38,0.69,1.908c0.202,0.521,0.337,0.869,0.337,0.869s0.555,1.36,1.11,2.72      c0.569,1.331,1.138,2.661,1.138,2.661s0.578,1.319,1.201,2.619c0.653,1.299,1.307,2.599,1.307,2.599s0.649,1.273,1.297,2.545      c0.66,1.242,1.32,2.483,1.32,2.483c0.898,1.627,2.124,2.729,3.536,3.322c1.385,0.581,2.658,0.219,4.031-0.894      c1.372-1.113,1.967-2.542,2.008-4.283c0.092-1.759-0.28-3.436-1.09-5.107c0,0-0.191-0.398-0.525-1.093      c-0.328-0.697-0.751-1.675-1.269-2.885c-0.514-1.207-1.104-2.636-1.718-4.201c-0.302-0.779-0.632-1.606-0.923-2.429      c-0.283-0.83-0.57-1.673-0.858-2.515c-1.134-3.401-2.199-6.977-2.813-9.633c-0.657-2.682-1.05-4.535-1.05-4.535      C1763.356,732.252,1762.616,730.814,1761.431,729.892z"
/>
<path
   style="fill:#75CBEA;"
   d="M1784.168,706.821c-0.939-1.17-2.392-1.896-4.449-2.131c0,0-1.536-0.197-3.073-0.393      c-1.561-0.175-3.122-0.35-3.122-0.35s-0.385-0.029-0.962-0.073c-0.58-0.038-1.354-0.089-2.127-0.14      c-1.567-0.083-3.134-0.165-3.134-0.165s-1.6-0.05-3.2-0.1c-0.811-0.025-1.61-0.027-2.203-0.017      c-0.599,0.007-0.998,0.011-0.998,0.011s-1.611,0.014-3.221,0.028c-1.632,0.039-3.264,0.078-3.264,0.078      c-2.198,0.066-4.386-0.299-6.581-1.217c-2.189-0.921-4.448-0.13-6.649,2.353c0,0-1.574,1.936-3.148,3.872      c-0.781,0.972-1.563,1.945-2.149,2.674c-0.555,0.753-0.926,1.255-0.926,1.255c-1.962,2.668-1.763,4.358,0.537,5.011      c2.304,0.651,4.548,0.793,6.674,0.433c0,0,0.4-0.067,1.099-0.183c0.689-0.122,1.706-0.263,2.922-0.416      c2.428-0.312,5.625-0.669,8.751-0.932c3.205-0.204,6.337-0.316,8.65-0.36c1.154-0.027,2.113-0.031,2.803-0.013      c0.681,0.013,1.069,0.02,1.069,0.02c2.061,0.045,3.591,0.613,4.66,1.667c1.068,1.053,1.667,2.584,1.866,4.582      c0,0,0.03,0.369,0.075,0.923c0.043,0.55,0.109,1.285,0.203,2.036c0.185,1.478,0.371,2.955,0.371,2.955s0.215,1.444,0.429,2.887      c0.235,1.418,0.47,2.837,0.47,2.837s0.304,1.433,0.607,2.867c0.324,1.407,0.647,2.813,0.647,2.813s0.325,1.379,0.65,2.759      c0.16,0.678,0.346,1.366,0.495,1.886c0.146,0.515,0.243,0.858,0.243,0.858c0.533,1.817,1.425,3.138,2.671,4.051      c1.202,0.878,2.583,0.868,4.095,0.045c1.578-0.776,2.568-1.961,2.97-3.68c0.205-0.883,0.364-1.711,0.388-2.575      c0.027-0.861-0.059-1.738-0.252-2.639c0,0-0.09-0.429-0.249-1.178c-0.149-0.746-0.39-1.849-0.603-3.138      c-0.415-2.56-0.947-6.109-1.275-9.71c-0.146-1.778-0.265-3.586-0.352-5.304c-0.083-1.712-0.16-3.363-0.148-4.72      c-0.007-2.749,0.046-4.633,0.046-4.633C1785.524,709.597,1785.107,707.99,1784.168,706.821z"
/>
<path
   style="fill:#FFA227;"
   d="M1811.611,689.613c-0.646-1.354-1.896-2.398-3.849-3.109c0,0-1.454-0.55-2.907-1.101      c-1.475-0.561-2.943-1.029-2.943-1.029s-1.482-0.464-2.963-0.927c-1.509-0.447-3.019-0.894-3.019-0.894      s-0.385-0.107-0.962-0.268c-0.575-0.154-1.363-0.386-2.127-0.563c-1.552-0.363-3.103-0.726-3.103-0.726      s-1.574-0.364-3.148-0.728c-1.6-0.345-3.201-0.69-3.201-0.69c-2.124-0.398-4.176-1.27-6.106-2.676      c-0.962-0.701-2.036-0.995-3.213-0.876c-1.17,0.129-2.476,0.624-3.782,1.64c0,0-1.985,1.504-3.97,3.008      c-0.495,0.378-0.989,0.756-1.453,1.111c-0.449,0.373-0.868,0.721-1.228,1.019c-0.718,0.598-1.196,0.997-1.196,0.997      c-2.537,2.119-2.739,3.801-0.649,4.974c2.094,1.171,4.25,1.837,6.408,1.989c0,0,1.632,0.108,4.026,0.32      c2.437,0.264,5.641,0.673,8.752,1.152c1.546,0.222,3.117,0.526,4.569,0.815c1.451,0.288,2.787,0.571,3.922,0.82      c1.126,0.256,2.064,0.469,2.721,0.618c0.648,0.148,1.027,0.253,1.027,0.253c2,0.527,3.362,1.436,4.16,2.707      c0.798,1.27,1.026,2.893,0.754,4.875c0,0-0.061,0.361-0.132,0.927c-0.07,0.559-0.164,1.304-0.257,2.049      c-0.165,1.474-0.33,2.948-0.33,2.948s-0.129,1.448-0.257,2.896c-0.06,0.716-0.111,1.433-0.132,1.989      c-0.025,0.548-0.041,0.913-0.041,0.913s-0.041,1.458-0.082,2.917c-0.016,1.437-0.032,2.874-0.032,2.874      s-0.004,0.355-0.011,0.887c-0.005,0.531-0.014,1.229,0.01,1.956c0.046,1.427,0.092,2.854,0.092,2.854      c0.089,1.883,0.646,3.37,1.648,4.547c0.967,1.132,2.32,1.447,3.998,1.008c0.422-0.108,0.811-0.252,1.17-0.433      c0.371-0.165,0.717-0.361,1.031-0.599c0.629-0.473,1.14-1.096,1.543-1.878c0.823-1.607,1.285-3.224,1.332-5.06      c0,0,0.032-1.729,0.171-4.396c0.152-2.641,0.513-6.123,0.991-9.756c0.521-3.543,1.225-7.129,1.812-9.883      c0.626-2.673,1.116-4.482,1.116-4.482C1812.292,692.623,1812.257,690.967,1811.611,689.613z"
/>
<path
   style="fill:#00BF33;"
   d="M1822.952,665.742c0,0-1.451-0.722-2.903-1.445c-0.732-0.355-1.476-0.721-2.028-0.972      c-0.553-0.247-0.922-0.412-0.922-0.412c-1.972-0.861-3.779-2.204-5.334-4.015c-1.541-1.791-3.956-2.203-6.981-0.848      c0,0-2.283,0.995-4.566,1.99c-1.137,0.507-2.242,1.081-3.085,1.484c-0.838,0.412-1.396,0.687-1.396,0.687      c-2.968,1.453-3.54,3.061-1.781,4.671c1.771,1.625,3.72,2.774,5.79,3.426c0,0,1.567,0.486,3.853,1.252      c0.573,0.194,1.184,0.395,1.837,0.631c0.652,0.245,1.339,0.503,2.05,0.77c1.413,0.539,2.9,1.124,4.364,1.72      c2.915,1.154,5.791,2.517,7.886,3.532c2.099,1.017,3.452,1.713,3.452,1.713c1.804,0.91,2.941,2.164,3.421,3.568      c0.491,1.435,0.32,3.011-0.376,4.939c0,0-0.531,1.402-1.063,2.804c-0.501,1.39-1.002,2.779-1.002,2.779s-0.48,1.372-0.916,2.754      c-0.412,1.404-0.824,2.809-0.824,2.809s-0.377,1.403-0.755,2.806c-0.348,1.388-0.696,2.777-0.696,2.777      s-0.085,0.346-0.212,0.864c-0.116,0.527-0.272,1.231-0.427,1.934c-0.286,1.393-0.572,2.786-0.572,2.786      c-0.351,1.844-0.152,3.416,0.554,4.791c0.681,1.323,1.93,1.947,3.672,1.917c0.878-0.002,1.648-0.209,2.369-0.524      c0.723-0.309,1.366-0.792,1.941-1.454c0.595-0.665,1.088-1.386,1.488-2.17c0.4-0.784,0.732-1.569,0.963-2.461      c0,0,0.312-1.2,0.835-3.026c0.262-0.913,0.578-1.984,0.934-3.139c0.362-1.139,0.779-2.32,1.208-3.53      c0.863-2.395,1.795-4.887,2.565-6.667c0.768-1.783,1.318-2.984,1.318-2.984l-5.768-20.977c0,0-0.8-0.468-1.601-0.935      c-0.811-0.464-1.622-0.929-1.622-0.929s-0.35-0.194-0.876-0.486c-0.526-0.272-1.228-0.635-1.93-0.999      C1824.382,666.458,1822.952,665.742,1822.952,665.742z"
/>
<path
   style="fill:#00BF33;"
   d="M1842.363,679.14c-0.316-1.467-1.292-2.776-3.031-3.929c0,0-1.289-0.879-2.579-1.757      c-1.309-0.823-2.619-1.646-2.619-1.646l-2.323-1.392l5.827,21.191c0,0,0.857-1.902,1.786-3.826      c0.459-0.975,0.945-1.899,1.316-2.597c0.374-0.701,0.623-1.168,0.623-1.168C1842.33,682.221,1842.679,680.607,1842.363,679.14z"
/>
<path
   style="fill:#75CBEA;"
   d="M1874.602,676.075c0.033-1.5-0.612-3.009-2.036-4.55c0,0-0.258-0.301-0.649-0.719      c-0.396-0.418-0.924-0.976-1.451-1.534c-1.084-1.115-2.167-2.23-2.167-2.23s-1.116-1.099-2.232-2.198      c-0.566-0.546-1.14-1.104-1.572-1.502c-0.434-0.392-0.724-0.654-0.724-0.654s-1.193-1.042-2.386-2.085      c-1.226-1.039-2.453-2.077-2.453-2.077s-1.246-1.048-2.492-2.097c-1.274-0.994-2.548-1.989-2.548-1.989      c-1.722-1.306-3.171-3.04-4.267-5.167c-0.547-1.062-1.378-1.821-2.487-2.249c-1.103-0.393-2.482-0.455-4.116-0.177      c0,0-0.615,0.105-1.537,0.263c-0.919,0.172-2.158,0.34-3.373,0.618c-2.436,0.535-4.872,1.07-4.872,1.07      c-3.238,0.69-4.143,2.218-2.809,4.16c1.338,1.945,2.972,3.517,4.841,4.644c0,0,1.416,0.842,3.467,2.126      c1.027,0.651,2.203,1.374,3.455,2.229c1.253,0.858,2.566,1.779,3.854,2.706c1.289,0.927,2.552,1.858,3.715,2.736      c1.165,0.887,2.238,1.78,3.142,2.516c1.808,1.489,2.964,2.488,2.964,2.488c1.547,1.326,2.354,2.728,2.496,4.222      c0.143,1.493-0.381,3.067-1.508,4.759c0,0-0.843,1.232-1.685,2.463c-0.81,1.227-1.62,2.453-1.62,2.453s-0.194,0.306-0.485,0.764      c-0.283,0.475-0.66,1.108-1.036,1.741c-0.726,1.263-1.453,2.526-1.453,2.526s-0.692,1.27-1.384,2.539      c-0.333,0.632-0.665,1.263-0.914,1.737c-0.24,0.49-0.4,0.817-0.4,0.817s-0.632,1.291-1.264,2.581      c-0.6,1.281-1.201,2.563-1.201,2.563c-0.767,1.703-0.936,3.273-0.567,4.773c0.357,1.445,1.429,2.348,3.13,2.737      c0.852,0.199,1.655,0.214,2.42,0.04c0.763-0.187,1.508-0.455,2.217-0.971c1.465-0.986,2.58-2.353,3.445-3.95      c0,0,0.804-1.51,2.125-3.8c0.661-1.139,1.453-2.499,2.344-3.913c0.893-1.384,1.881-2.865,2.909-4.352      c0.524-0.744,1.047-1.489,1.563-2.221c0.265-0.367,0.527-0.731,0.787-1.091c0.265-0.345,0.526-0.686,0.783-1.021      c1.037-1.341,2.04-2.596,2.92-3.672c0.879-1.076,1.634-1.974,2.168-2.602c0.534-0.637,0.844-0.966,0.844-0.966      C1873.855,679.055,1874.568,677.575,1874.602,676.075z"
/>
<path
   style="fill:#FFA227;"
   d="M1906.686,680.525c0.377-1.452,0.09-3.049-0.95-4.835c0,0-0.76-1.346-1.52-2.692      c-0.792-1.353-1.584-2.706-1.584-2.706s-0.204-0.336-0.51-0.839c-0.308-0.502-0.73-1.137-1.156-1.79      c-0.869-1.3-1.739-2.6-1.739-2.6s-0.915-1.307-1.83-2.614c-0.471-0.655-0.943-1.31-1.296-1.802      c-0.357-0.497-0.601-0.809-0.601-0.809s-0.973-1.275-1.946-2.55c-1.006-1.278-2.011-2.555-2.011-2.555      c-1.369-1.684-2.37-3.742-2.944-6.048c-0.567-2.299-2.551-3.622-5.86-3.878c0,0-0.622-0.047-1.554-0.119      c-0.933-0.068-2.181-0.083-3.428-0.13c-2.495-0.07-4.989-0.14-4.989-0.14c-3.311,0.009-4.549,1.221-3.701,3.439      c0.852,2.238,2.077,4.079,3.634,5.596c0,0,1.182,1.16,2.88,2.904c0.849,0.872,1.824,1.89,2.844,2.981      c0.51,0.548,1.032,1.103,1.556,1.688c0.516,0.598,1.041,1.205,1.566,1.812c2.077,2.434,4.039,4.842,5.453,6.679      c1.41,1.89,2.301,3.146,2.301,3.146c1.195,1.669,1.653,3.23,1.445,4.716c-0.208,1.486-1.08,2.885-2.566,4.249      c0,0-1.104,0.987-2.208,1.974c-0.543,0.486-1.081,0.997-1.483,1.395c-0.399,0.391-0.666,0.651-0.666,0.651      s-1.031,1.044-2.063,2.089c-0.999,1.046-1.998,2.092-1.998,2.092s-0.245,0.265-0.611,0.663c-0.366,0.406-0.847,0.91-1.324,1.478      c-0.936,1.111-1.873,2.222-1.873,2.222s-0.914,1.096-1.827,2.192c-0.881,1.094-1.761,2.189-1.761,2.189      c-1.14,1.486-1.668,3.03-1.657,4.566c0.005,0.744,0.217,1.388,0.622,1.934c0.405,0.532,1.002,1.007,1.784,1.413      c1.563,0.822,3.107,0.82,4.725,0.159c1.654-0.606,3.05-1.606,4.267-3.007c0,0,1.141-1.358,2.953-3.221      c0.908-0.946,1.99-2.049,3.187-3.228c0.607-0.589,1.234-1.197,1.872-1.815c0.644-0.596,1.304-1.183,1.976-1.779      c1.342-1.187,2.724-2.369,4.053-3.472c0.663-0.549,1.316-1.09,1.937-1.58c0.624-0.475,1.215-0.924,1.76-1.338      c2.204-1.653,3.748-2.739,3.748-2.739C1905.269,683.274,1906.308,681.977,1906.686,680.525z"
/>
<path
   style="fill:#00BF33;"
   d="M1936.876,692.258c0.701-1.327,0.795-2.959,0.204-4.962c0,0-0.401-1.505-0.85-2.998      c-0.475-1.472-0.95-2.944-0.95-2.944s-0.511-1.473-1.022-2.945c-0.541-1.485-1.082-2.97-1.082-2.97s-0.143-0.375-0.359-0.937      c-0.228-0.547-0.532-1.277-0.836-2.007c-0.635-1.466-1.27-2.933-1.27-2.933s-0.648-1.485-1.296-2.97      c-0.337-0.747-0.674-1.493-0.927-2.053c-0.127-0.283-0.237-0.512-0.315-0.669c-0.078-0.159-0.122-0.249-0.122-0.249      c-0.957-1.921-1.479-4.107-1.506-6.491c-0.013-1.192-0.419-2.23-1.217-3.104c-0.798-0.872-1.983-1.605-3.573-2.044      c0,0-2.387-0.691-4.775-1.382c-1.193-0.349-2.389-0.685-3.3-0.883c-0.907-0.215-1.511-0.359-1.511-0.359      c-3.209-0.758-4.677,0.088-4.371,2.462c0.309,2.376,1.061,4.499,2.227,6.316c0,0,0.89,1.36,2.143,3.421      c1.24,2.116,2.826,4.925,4.299,7.705c0.369,0.698,0.734,1.383,1.083,2.076c0.339,0.704,0.673,1.397,0.995,2.067      c0.635,1.338,1.207,2.58,1.685,3.641c0.955,2.122,1.545,3.521,1.545,3.521c0.785,1.89,0.859,3.555,0.321,4.946      c-0.544,1.407-1.698,2.531-3.459,3.527c0,0-1.31,0.736-2.62,1.472c-1.279,0.746-2.558,1.493-2.558,1.493      s-1.237,0.76-2.473,1.519c-0.608,0.373-1.22,0.782-1.677,1.092c-0.454,0.307-0.757,0.512-0.757,0.512s-1.195,0.838-2.39,1.677      c-1.163,0.846-2.327,1.692-2.327,1.692s-0.287,0.208-0.718,0.521c-0.431,0.32-0.994,0.717-1.563,1.166      c-1.12,0.892-2.24,1.784-2.24,1.784c-1.461,1.199-2.324,2.536-2.669,4.043c-0.331,1.451,0.228,2.722,1.59,3.8      c0.339,0.277,0.693,0.487,1.049,0.686c0.355,0.204,0.721,0.361,1.099,0.472c0.757,0.222,1.565,0.259,2.435,0.116      c0.885-0.125,1.74-0.392,2.541-0.704c0.8-0.308,1.569-0.726,2.318-1.255c0,0,1.404-1.005,3.624-2.482      c0.553-0.364,1.166-0.779,1.806-1.176c0.646-0.392,1.327-0.805,2.031-1.232c1.424-0.85,2.977-1.745,4.569-2.627      c1.602-0.907,3.194-1.693,4.729-2.443c1.533-0.747,2.997-1.43,4.269-2.008c0.641-0.287,1.228-0.55,1.748-0.783      c0.519-0.214,0.971-0.4,1.344-0.554c0.752-0.302,1.181-0.474,1.181-0.474C1934.872,694.595,1936.176,693.584,1936.876,692.258z"
/>
<path
   style="fill:#75CBEA;"
   d="M1963.551,710.621c0.99-1.128,1.465-2.7,1.367-4.798c0,0-0.085-1.533-0.171-3.066      c-0.111-1.553-0.223-3.106-0.223-3.106s-0.147-1.562-0.293-3.124c-0.075-0.792-0.169-1.571-0.252-2.145      c-0.08-0.581-0.133-0.968-0.133-0.968s-0.242-1.569-0.484-3.137c-0.27-1.587-0.539-3.174-0.539-3.174s-0.067-0.401-0.168-1.001      c-0.102-0.602-0.238-1.412-0.404-2.191c-0.335-1.584-0.67-3.168-0.67-3.168c-0.477-2.112-0.471-4.375,0.058-6.711      c0.258-1.157,0.13-2.305-0.47-3.305c-0.591-1.013-1.607-1.95-3.036-2.792c0,0-0.538-0.316-1.345-0.79      c-0.809-0.471-1.875-1.121-2.989-1.685c-2.209-1.16-4.419-2.32-4.419-2.32c-0.732-0.382-1.384-0.64-1.953-0.774      c-0.575-0.122-1.072-0.11-1.478,0.012c-0.814,0.248-1.277,0.969-1.399,2.15c-0.117,1.184-0.108,2.328,0.02,3.43      c0.118,1.122,0.355,2.203,0.71,3.234c0,0,0.543,1.557,1.289,3.863c0.372,1.153,0.794,2.49,1.223,3.916      c0.407,1.466,0.82,3.018,1.21,4.559c0.78,3.089,1.48,6.084,1.882,8.426c0.426,2.308,0.667,3.82,0.667,3.82      c0.33,2.015,0.045,3.609-0.806,4.845c-0.851,1.236-2.261,2.103-4.209,2.671c0,0-1.435,0.399-2.87,0.798      c-1.407,0.416-2.813,0.832-2.813,0.832s-0.346,0.108-0.874,0.291c-0.521,0.182-1.217,0.424-1.912,0.666      c-1.366,0.498-2.732,0.996-2.732,0.996s-1.344,0.525-2.688,1.051c-1.321,0.514-2.654,1.125-2.654,1.125      s-1.312,0.581-2.624,1.162c-1.282,0.594-2.564,1.189-2.564,1.189c-1.679,0.808-2.816,1.901-3.503,3.299      c-0.646,1.32-0.412,2.713,0.639,4.104c1.04,1.416,2.441,2.072,4.15,2.261c1.758,0.182,3.467-0.114,5.18-0.821      c0,0,1.584-0.636,4.063-1.536c1.24-0.449,2.707-0.963,4.312-1.493c1.585-0.503,3.281-0.984,5.025-1.463      c1.735-0.468,3.525-0.941,5.193-1.315c1.654-0.358,3.227-0.672,4.591-0.928c2.728-0.513,4.607-0.805,4.607-0.805      C1961.064,712.423,1962.561,711.749,1963.551,710.621z"
/>
<path
   style="fill:#FFA227;"
   d="M1985.263,734.654c1.216-0.865,2.076-2.31,2.405-4.331c0,0,0.277-1.516,0.555-3.032      c0.257-1.542,0.514-3.084,0.514-3.084s0.058-0.387,0.145-0.969c0.084-0.581,0.206-1.369,0.286-2.133      c0.166-1.553,0.332-3.105,0.332-3.105s0.135-1.588,0.271-3.175c0.113-1.611,0.225-3.223,0.225-3.223s0.021-0.399,0.054-0.999      c0.026-0.602,0.061-1.405,0.095-2.207c0.049-1.624,0.098-3.249,0.098-3.249c0.032-2.169,0.585-4.388,1.627-6.523      c1.043-2.127,0.374-4.415-1.995-6.737c0,0-0.445-0.436-1.114-1.09c-0.694-0.626-1.62-1.461-2.546-2.297      c-1.862-1.659-3.724-3.318-3.724-3.318c-2.563-2.095-4.269-1.987-5.051,0.265c-0.781,2.257-1.047,4.48-0.806,6.615      c0,0,0.158,1.65,0.336,4.079c0.088,1.214,0.18,2.622,0.259,4.115c0.035,0.743,0.072,1.511,0.109,2.291      c0.024,0.785,0.03,1.594,0.039,2.391c0.026,3.2-0.019,6.307-0.116,8.624c-0.132,2.353-0.255,3.887-0.255,3.887      c-0.155,2.045-0.807,3.536-1.921,4.541c-1.114,1.005-2.682,1.518-4.698,1.61c0,0-1.481,0.048-2.962,0.097      c-0.729,0.024-1.47,0.07-2.033,0.116c-0.557,0.043-0.928,0.071-0.928,0.071s-1.461,0.137-2.922,0.274      c-1.437,0.159-2.874,0.318-2.874,0.318s-0.358,0.046-0.894,0.115c-0.533,0.068-1.243,0.164-1.971,0.289      c-1.43,0.248-2.86,0.496-2.86,0.496s-1.403,0.251-2.806,0.501c-1.377,0.271-2.754,0.542-2.754,0.542      c-1.853,0.434-3.229,1.252-4.214,2.443c-0.474,0.574-0.726,1.204-0.767,1.884c-0.042,0.68,0.137,1.397,0.469,2.22      c0.672,1.634,1.841,2.643,3.521,3.161c1.656,0.601,3.368,0.732,5.201,0.442c0,0,1.745-0.306,4.334-0.572      c1.304-0.142,2.843-0.293,4.519-0.429c0.834-0.065,1.717-0.139,2.594-0.183c0.877-0.031,1.767-0.064,2.658-0.096      c1.794-0.051,3.616-0.072,5.346-0.067c0.434,0.003,0.86,0.006,1.278,0.008c0.409,0.014,0.81,0.028,1.2,0.042      c0.786,0.035,1.529,0.068,2.216,0.099c2.76,0.141,4.648,0.296,4.648,0.296C1982.457,735.815,1984.034,735.529,1985.263,734.654z      "
/>
<path
   style="fill:#00BF33;"
   d="M2000.88,763.035c1.39-0.566,2.498-1.751,3.307-3.654c0,0,0.624-1.415,1.249-2.83      c0.61-1.445,1.221-2.89,1.221-2.89s0.144-0.363,0.361-0.908c0.201-0.545,0.47-1.271,0.738-1.997      c0.524-1.476,1.049-2.953,1.049-2.953s0.503-1.517,1.005-3.035c0.513-1.539,0.932-3.07,0.932-3.07s0.445-1.545,0.891-3.09      c0.428-1.573,0.856-3.146,0.856-3.146c0.27-1.055,0.671-2.091,1.183-3.09c0.498-0.99,1.123-1.95,1.876-2.869      c1.508-1.832,1.396-4.218-0.355-7.03c0,0-0.083-0.131-0.23-0.361c-0.153-0.225-0.372-0.547-0.634-0.933      c-0.527-0.771-1.229-1.799-1.932-2.826c-0.706-1.025-1.412-2.051-1.942-2.819c-0.559-0.748-0.931-1.247-0.931-1.247      c-1.99-2.638-3.665-2.931-4.952-0.917c-1.286,2.018-2.067,4.125-2.333,6.262c0,0-0.051,0.401-0.14,1.104      c-0.08,0.693-0.25,1.717-0.446,2.92c-0.402,2.415-0.96,5.566-1.624,8.646c-0.72,3.125-1.506,6.155-2.124,8.381      c-0.297,1.108-0.594,2.045-0.8,2.695c-0.206,0.648-0.324,1.018-0.324,1.018c-0.63,1.96-1.61,3.263-2.925,3.986      c-1.314,0.723-2.954,0.859-4.929,0.481c0,0-0.363-0.077-0.907-0.192c-0.55-0.11-1.252-0.269-1.999-0.394      c-1.471-0.245-2.942-0.489-2.942-0.489s-1.447-0.207-2.894-0.414c-1.429-0.18-2.857-0.361-2.857-0.361s-0.353-0.044-0.907-0.088      c-0.547-0.043-1.277-0.101-2.006-0.159c-1.443-0.094-2.885-0.187-2.885-0.187s-1.417-0.085-2.834-0.17      c-0.701-0.038-1.4-0.068-1.945-0.073c-0.536-0.008-0.893-0.014-0.893-0.014c-1.896-0.013-3.419,0.461-4.652,1.393      c-1.186,0.899-1.571,2.226-1.213,3.915c0.282,1.746,1.149,3.03,2.683,3.912c1.524,0.937,3.105,1.496,4.961,1.633      c0,0,0.437,0.036,1.203,0.099c0.759,0.072,1.891,0.154,3.172,0.329c1.296,0.165,2.822,0.376,4.476,0.634      c1.641,0.265,3.472,0.544,5.196,0.925c1.75,0.367,3.519,0.768,5.194,1.174c0.841,0.21,1.654,0.413,2.425,0.606      c0.768,0.202,1.468,0.413,2.132,0.605c2.641,0.776,4.435,1.363,4.435,1.363C1997.83,763.543,1999.491,763.601,2000.88,763.035z"
/>
<path
   style="fill:#75CBEA;"
   d="M2009.516,794.254c1.483-0.23,2.84-1.128,4.079-2.795c0,0,0.942-1.235,1.885-2.47      c0.467-0.631,0.934-1.262,1.285-1.735c0.332-0.476,0.553-0.793,0.553-0.793s0.866-1.287,1.732-2.574      c0.858-1.319,1.716-2.637,1.716-2.637s0.846-1.364,1.691-2.727c0.789-1.383,1.578-2.766,1.578-2.766s0.796-1.404,1.592-2.809      c0.785-1.436,1.57-2.871,1.57-2.871c1.019-1.932,2.413-3.642,4.317-5.092c1.878-1.434,2.378-3.806,1.268-6.928      c0,0-0.88-2.33-1.761-4.661c-0.443-1.164-0.879-2.331-1.266-3.182c-0.37-0.857-0.617-1.429-0.617-1.429      c-1.314-3.032-2.87-3.705-4.589-2.037c-1.719,1.671-2.969,3.546-3.727,5.569c0,0-0.143,0.38-0.394,1.044      c-0.259,0.665-0.598,1.598-1.071,2.726c-0.95,2.261-2.247,5.212-3.59,8.056c-1.362,2.857-2.888,5.649-3.995,7.673      c-0.564,1.005-1.035,1.844-1.364,2.43c-0.351,0.583-0.551,0.917-0.551,0.917c-1.073,1.766-2.332,2.811-3.778,3.212      c-1.446,0.401-3.067,0.156-4.892-0.669c0,0-0.334-0.158-0.835-0.396c-0.516-0.227-1.205-0.529-1.893-0.831      c-1.368-0.578-2.736-1.156-2.736-1.156s-1.353-0.536-2.707-1.071c-0.677-0.259-1.339-0.516-1.854-0.699      c-0.519-0.18-0.865-0.299-0.865-0.299s-1.389-0.455-2.777-0.909c-1.376-0.424-2.751-0.849-2.751-0.849s-1.354-0.429-2.711-0.817      c-1.384-0.362-2.768-0.724-2.768-0.724c-1.833-0.451-3.42-0.341-4.833,0.283c-1.361,0.603-2.046,1.809-2.099,3.541      c-0.012,0.861,0.075,1.671,0.35,2.408c0.276,0.736,0.73,1.402,1.367,2.01c1.315,1.244,2.698,2.158,4.463,2.719      c0,0,1.651,0.522,4.172,1.414c2.458,0.907,5.72,2.236,9.064,3.732c3.216,1.516,6.489,3.207,8.941,4.561      c2.375,1.366,3.973,2.353,3.973,2.353C2006.436,794.044,2008.033,794.484,2009.516,794.254z"
/>
<path
   style="fill:#FFA227;"
   d="M2010.69,826.618c1.496,0.12,3.034-0.438,4.644-1.77c0,0,0.304-0.242,0.76-0.606      c0.452-0.366,1.078-0.857,1.65-1.358c1.167-1.017,2.335-2.035,2.335-2.035s1.154-1.051,2.307-2.102      c1.153-1.083,2.306-2.167,2.306-2.167s0.301-0.278,0.708-0.699c0.413-0.426,0.964-0.994,1.514-1.562      c1.099-1.164,2.199-2.328,2.199-2.328s1.111-1.183,2.222-2.366c0.55-0.599,1.12-1.207,1.513-1.664      c0.396-0.459,0.66-0.766,0.66-0.766c1.392-1.642,3.198-2.988,5.38-3.959c1.091-0.484,1.886-1.269,2.377-2.352      c0.511-1.083,0.644-2.457,0.443-4.102c0,0-0.3-2.478-0.6-4.955c-0.143-1.24-0.392-2.464-0.534-3.388      c-0.156-0.922-0.26-1.537-0.26-1.537c-0.557-3.264-1.908-4.28-3.97-3.051c-2.063,1.233-3.721,2.772-4.937,4.57      c0,0-0.913,1.364-2.3,3.336c-0.676,0.983-1.541,2.126-2.463,3.326c-0.921,1.2-1.907,2.457-2.898,3.689      c-1.938,2.463-4.08,4.826-5.651,6.542c-1.578,1.718-2.634,2.813-2.634,2.813c-0.691,0.733-1.422,1.281-2.167,1.654      c-0.74,0.372-1.483,0.567-2.233,0.595c-0.75,0.028-1.503-0.112-2.264-0.412c-0.755-0.3-1.531-0.76-2.359-1.371      c0,0-1.19-0.912-2.379-1.824c-1.187-0.879-2.373-1.758-2.373-1.758s-1.179-0.853-2.37-1.668      c-1.228-0.797-2.455-1.595-2.455-1.595s-1.236-0.763-2.473-1.526c-1.23-0.731-2.461-1.461-2.461-1.461s-0.303-0.181-0.759-0.451      c-0.473-0.262-1.103-0.612-1.733-0.961c-1.254-0.672-2.508-1.343-2.508-1.343c-1.668-0.862-3.231-1.12-4.751-0.838      c-1.463,0.273-2.418,1.289-2.886,2.96c-0.253,0.839-0.261,1.632-0.183,2.412c0.089,0.779,0.367,1.531,0.837,2.269      c0.466,0.758,1.016,1.435,1.653,2.042c0.63,0.607,1.29,1.149,2.076,1.625c0,0,1.472,0.889,3.698,2.339      c0.557,0.369,1.161,0.768,1.799,1.191c0.635,0.429,1.266,0.891,1.94,1.377c1.34,0.971,2.772,2.043,4.207,3.156      c0.713,0.556,1.446,1.122,2.132,1.689c0.676,0.576,1.342,1.142,1.986,1.69c1.289,1.114,2.492,2.188,3.523,3.129      c1.03,0.941,1.9,1.747,2.457,2.314c0.573,0.572,0.9,0.898,0.9,0.898C2007.753,825.699,2009.194,826.498,2010.69,826.618z"
/>
<path
   style="fill:#00BF33;"
   d="M2025.692,848.406c0,0,0.342-0.219,0.856-0.547c0.497-0.339,1.16-0.79,1.823-1.242      c1.326-0.931,2.652-1.862,2.652-1.862c1.756-1.269,3.841-2.155,6.199-2.589c2.392-0.422,3.767-2.334,4.207-5.62      c0,0,0.079-0.618,0.199-1.545c0.059-0.464,0.127-1.004,0.201-1.584c0.061-0.581,0.104-1.203,0.158-1.824      c0.198-2.486,0.396-4.973,0.396-4.973c0.06-0.823,0.052-1.523-0.064-2.1c-0.124-0.577-0.323-1.029-0.597-1.354      c-0.548-0.651-1.393-0.792-2.527-0.437c-1.134,0.36-2.184,0.82-3.145,1.372c-0.962,0.552-1.88,1.195-2.683,1.928      c0,0-1.219,1.113-3.046,2.707c-0.914,0.797-1.979,1.712-3.12,2.668c-1.159,0.954-2.447,1.943-3.705,2.909      c-1.264,0.966-2.527,1.906-3.708,2.766c-0.59,0.425-1.161,0.836-1.702,1.225c-0.561,0.377-1.092,0.734-1.582,1.063      c-1.958,1.301-3.255,2.119-3.255,2.119c-1.725,1.099-3.306,1.467-4.777,1.175c-1.471-0.292-2.823-1.244-4.109-2.809      c0,0-0.929-1.16-1.858-2.32c-0.467-0.566-0.933-1.133-1.283-1.558c-0.344-0.42-0.6-0.7-0.6-0.7s-0.991-1.091-1.981-2.183      c-0.994-1.059-1.988-2.118-1.988-2.118s-1.01-1.028-2.021-2.056c-0.497-0.505-1.024-1.006-1.427-1.379      c-0.399-0.371-0.665-0.618-0.665-0.618s-1.049-0.977-2.099-1.953c-1.05-0.944-2.099-1.887-2.099-1.887      c-0.702-0.612-1.416-1.072-2.147-1.388c-0.745-0.317-1.505-0.491-2.276-0.53c-1.47-0.073-2.633,0.693-3.512,2.208      c-0.441,0.758-0.69,1.523-0.749,2.305c-0.032,0.391-0.004,0.787,0.047,1.188c0.04,0.4,0.128,0.805,0.263,1.218      c0.524,1.691,1.455,3.145,2.792,4.443c0,0,0.238,0.222,0.611,0.609c0.378,0.393,0.918,0.955,1.566,1.63      c1.295,1.364,3.016,3.24,4.726,5.21c3.254,3.879,6.408,8.212,6.408,8.212l21.045,5.512c0,0,0.789-0.462,1.578-0.923      c0.792-0.473,1.583-0.945,1.583-0.945s1.351-0.84,2.701-1.68C2024.335,849.278,2025.692,848.406,2025.692,848.406z"
/>
<path
   style="fill:#FFA227;"
   d="M1925.417,822.318c-4.469-0.568-8.455-0.534-11.913-0.158c-1.791,0.187-3.426,0.461-4.909,0.799     c-1.496,0.337-2.904,0.728-4.138,1.18l39.251,10.28c-0.714-1.861-1.62-3.495-2.778-4.916c-1.171-1.425-2.534-2.622-4.069-3.602     C1933.749,823.951,1929.86,822.883,1925.417,822.318z"
/>
<path
   style="fill:#A81C1C;"
   d="M1898.25,782.376c0.704-1.596,1.54-3.278,2.535-5.012c0.989-1.725,2.137-3.502,3.496-5.297     c2.708-3.583,5.646-6.352,8.881-8.053c1.618-0.856,3.355-1.458,5.154-1.727c0.904-0.14,1.834-0.209,2.787-0.205     c0.948,0.009,1.896,0.115,2.874,0.284c0,0,0.734,0.136,1.836,0.34c1.088,0.233,2.548,0.575,4.036,0.957     c1.47,0.394,2.934,0.857,4.055,1.214c0.562,0.176,1.02,0.339,1.339,0.456c0.321,0.116,0.504,0.183,0.504,0.183     c4.025,1.363,7.043,3.874,8.992,7.134c1.814,3.179,2.53,7.036,1.745,11.214c0,0-0.032,0.193-0.088,0.529     c-0.055,0.335-0.136,0.813-0.258,1.39c-0.237,1.152-0.553,2.656-0.928,4.13c-0.395,1.484-0.814,2.926-1.142,3.987     c-0.362,1.06-0.604,1.767-0.604,1.767c-0.326,0.959-0.694,1.849-1.151,2.684c-0.462,0.837-0.979,1.61-1.545,2.324     c-1.119,1.425-2.498,2.622-4.037,3.613c-3.065,2.009-6.921,3.192-11.371,3.799c-4.451,0.607-8.458,0.552-11.942,0.208     c-1.777-0.161-3.386-0.407-4.909-0.713c-0.754-0.155-1.472-0.328-2.153-0.519c-0.687-0.19-1.373-0.39-2.006-0.612     c0,0-0.479-0.147-1.198-0.368c-0.742-0.202-1.722-0.443-2.673-0.641c-0.975-0.194-1.955-0.334-2.663-0.425     c-0.351-0.047-0.658-0.075-0.872-0.093c-0.212-0.018-0.334-0.028-0.334-0.028c-2.516-0.237-4.009-0.586-4.498-1.507     c-0.581-0.913-0.158-2.384,0.87-4.695c0,0,0.051-0.111,0.139-0.305c0.09-0.196,0.214-0.476,0.345-0.805     c0.267-0.661,0.626-1.586,0.933-2.529c0.293-0.927,0.564-1.9,0.75-2.645c0.16-0.735,0.266-1.225,0.266-1.225     c0.125-0.654,0.291-1.345,0.464-2.036c0.169-0.686,0.369-1.397,0.602-2.132C1896.957,785.535,1897.521,784.004,1898.25,782.376z      M1916.477,784.95c-0.931,0.632-1.463,1.346-1.606,2.127c-0.161,0.794,0.045,1.667,0.647,2.641     c0.531,0.967,1.183,1.555,1.948,1.794c0.746,0.247,1.629,0.134,2.636-0.369c1.006-0.502,1.625-1.151,1.848-1.966     c0.205-0.804-0.011-1.763-0.617-2.856c-0.678-1.105-1.422-1.783-2.229-2.008C1918.277,784.097,1917.408,784.319,1916.477,784.95z     "
/>
<path
   style="fill:#FFA227;"
   d="M1856.187,775.677c-2.083-2.831-4.166-6.219-5.922-10.367c-1.747-4.124-2.711-8.071-2.548-11.719     c0.126-3.654,1.318-7.136,3.961-10.192c0,0,0.485-0.567,1.212-1.417c0.739-0.85,1.771-1.922,2.846-3.022     c1.072-1.101,2.213-2.115,3.083-2.91c0.871-0.794,1.477-1.288,1.477-1.288c1.605-1.368,3.326-2.459,5.115-3.135     c1.785-0.725,3.63-1.049,5.47-1.073c3.816-0.01,7.532,1.339,10.752,4.109c0,0,0.596,0.504,1.49,1.259     c0.884,0.747,2.013,1.834,3.101,2.883c1.094,1.038,2.111,2.176,2.862,2.992c0.736,0.825,1.227,1.375,1.227,1.375     c1.273,1.532,2.258,3.126,2.933,4.832c0.672,1.72,1.047,3.495,1.14,5.31c0.179,3.668-0.707,7.62-2.4,11.764     c-1.703,4.171-3.76,7.597-5.78,10.431c-1.034,1.471-2.075,2.762-3.097,3.889c-1.029,1.141-2.061,2.172-3.059,3.029     c0,0-0.374,0.352-0.934,0.881c-0.55,0.539-1.246,1.21-1.906,1.981c-0.661,0.761-1.268,1.478-1.706,2.081     c-0.425,0.591-0.709,0.986-0.709,0.986c-1.465,2.063-2.497,3.153-3.561,3.143c-0.512,0.017-1.029-0.273-1.601-0.772     c-0.575-0.547-1.2-1.288-1.942-2.346c0,0-0.275-0.405-0.714-0.966c-0.437-0.559-1.059-1.358-1.717-2.072     c-0.655-0.715-1.367-1.46-1.914-1.969c-0.558-0.508-0.931-0.847-0.931-0.847C1860.347,780.771,1858.283,778.566,1856.187,775.677     z M1867.513,761.17c0.177,2.251,1.372,3.241,3.562,3.225c2.272,0.015,3.46-1.033,3.614-3.269c0.155-2.252-1.044-3.45-3.653-3.465     C1868.521,757.681,1867.337,758.935,1867.513,761.17z"
/>
<path
   style="fill:#A81C1C;"
   d="M1806.513,766.205c0,0,0.729-0.286,1.847-0.655c1.121-0.368,2.562-0.866,4.048-1.259     c1.486-0.397,2.925-0.772,4.029-0.997c1.097-0.217,1.828-0.361,1.828-0.361c3.89-0.737,7.562-0.123,10.825,1.548     c3.241,1.664,6.147,4.484,8.892,8.023c2.76,3.559,4.746,6.997,6.2,10.192c1.477,3.253,2.365,6.155,2.915,8.786     c0,0,0.113,0.491,0.282,1.227c0.175,0.725,0.476,1.712,0.777,2.634c0.298,0.923,0.691,1.859,0.963,2.513     c0.274,0.658,0.491,1.095,0.491,1.095c0.547,1.179,0.883,2.095,1.076,2.868c0.151,0.746,0.155,1.343-0.116,1.783     c-0.495,0.907-1.949,1.263-4.466,1.528c0,0-0.484,0.056-1.209,0.141c-0.742,0.091-1.667,0.274-2.656,0.483     c-0.999,0.203-1.923,0.49-2.666,0.709c-0.736,0.235-1.227,0.392-1.227,0.392c-1.233,0.447-2.638,0.827-4.132,1.152     c-1.481,0.326-3.114,0.586-4.903,0.765c-3.464,0.385-7.455,0.483-11.926-0.079c-4.442-0.559-8.325-1.705-11.428-3.681     c-1.536-0.971-2.903-2.147-4.078-3.549c-1.163-1.399-2.075-3.008-2.792-4.856c0,0-0.238-0.705-0.595-1.762     c-0.339-1.065-0.833-2.524-1.195-4.001c-0.376-1.477-0.765-3.009-0.978-4.157c-0.216-1.161-0.36-1.935-0.36-1.935     c-0.435-2.09-0.44-4.083-0.186-5.987c0.124-0.954,0.379-1.856,0.674-2.742c0.309-0.878,0.657-1.743,1.136-2.537     c0.932-1.603,2.117-3.062,3.634-4.277C1802.693,767.965,1804.501,766.975,1806.513,766.205z M1825.935,785.523     c-1.865-1.248-3.524-0.843-4.785,1.356c-1.223,2.218-0.765,3.83,1.276,4.8c2.023,0.963,3.516,0.459,4.579-1.473     C1828.102,788.292,1827.81,786.778,1825.935,785.523z"
/>
<path
   style="fill:#FFA227;"
   d="M1847.414,839.8c-0.124,0.653-0.292,1.347-0.463,2.034c-0.17,0.686-0.37,1.397-0.603,2.132     c-0.476,1.482-1.037,3.01-1.761,4.646c-1.415,3.201-3.38,6.681-6.095,10.261c-2.713,3.578-5.571,6.409-8.802,8.114     c-1.625,0.849-3.364,1.454-5.16,1.726c-0.903,0.142-1.831,0.212-2.782,0.21c-0.95-0.004-1.893-0.111-2.872-0.279     c0,0-0.74-0.141-1.849-0.353c-1.098-0.239-2.567-0.594-4.066-0.987c-1.48-0.406-2.955-0.882-4.084-1.248     c-0.566-0.181-1.025-0.35-1.347-0.469c-0.323-0.12-0.508-0.188-0.508-0.188c-4.01-1.342-7.021-3.858-8.917-7.021     c-1.827-3.202-2.549-7.058-1.753-11.213c0,0,0.031-0.195,0.085-0.535c0.055-0.339,0.13-0.821,0.25-1.404     c0.233-1.164,0.542-2.683,0.912-4.172c0.391-1.5,0.803-2.955,1.13-4.028c0.359-1.071,0.599-1.785,0.599-1.785     c0.333-0.935,0.703-1.811,1.163-2.64c0.464-0.83,0.98-1.605,1.546-2.323c1.116-1.433,2.494-2.652,4.031-3.653     c3.071-1.982,6.937-3.088,11.385-3.701c4.451-0.613,8.449-0.621,11.931-0.287c1.779,0.169,3.388,0.429,4.913,0.74     c0.755,0.157,1.472,0.331,2.153,0.519c0.685,0.187,1.37,0.381,2.001,0.592c0,0,0.48,0.151,1.201,0.377     c0.741,0.208,1.725,0.455,2.678,0.659c0.977,0.2,1.96,0.345,2.668,0.44c0.351,0.049,0.662,0.077,0.875,0.097     c0.213,0.019,0.334,0.029,0.334,0.029c2.51,0.228,4.007,0.576,4.499,1.504c0.568,0.884,0.14,2.358-0.892,4.659     c0,0-0.05,0.111-0.138,0.306c-0.088,0.196-0.214,0.479-0.344,0.81c-0.264,0.664-0.62,1.593-0.923,2.542     c-0.288,0.931-0.557,1.911-0.737,2.658C1847.518,839.308,1847.414,839.8,1847.414,839.8z M1826.308,845.979     c0.932-0.631,1.466-1.341,1.617-2.111c0.169-0.784-0.025-1.64-0.612-2.584c-0.537-0.973-1.185-1.562-1.953-1.798     c-0.745-0.245-1.626-0.128-2.632,0.376c-1.006,0.503-1.627,1.148-1.85,1.962c-0.202,0.8,0.011,1.761,0.622,2.861     c0.661,1.072,1.392,1.729,2.19,1.944C1824.51,846.834,1825.376,846.609,1826.308,845.979z"
/>
<path
   style="fill:#A81C1C;"
   d="M1848.477,877.669c-0.203-3.672,0.701-7.62,2.39-11.766c1.7-4.174,3.74-7.603,5.772-10.436     c1.032-1.472,2.059-2.767,3.068-3.899c1.015-1.145,2.034-2.181,3.028-3.038c0,0,0.377-0.351,0.943-0.878     c0.555-0.539,1.258-1.206,1.924-1.977c0.667-0.76,1.279-1.474,1.722-2.079c0.429-0.591,0.715-0.985,0.715-0.985     c0.73-1.011,1.354-1.851,1.921-2.348c0.283-0.248,0.555-0.479,0.818-0.604c0.264-0.139,0.522-0.169,0.78-0.194     c0.516-0.019,1.035,0.274,1.611,0.772c0.58,0.547,1.213,1.287,1.973,2.343c0,0,0.07,0.1,0.193,0.275     c0.126,0.166,0.305,0.404,0.521,0.689c0.437,0.558,1.061,1.361,1.719,2.071c0.656,0.714,1.369,1.462,1.915,1.968     c0.559,0.508,0.932,0.847,0.932,0.847c2.024,1.768,4.119,3.964,6.233,6.845c2.073,2.833,4.098,6.246,5.849,10.397     c1.741,4.125,2.777,8.042,2.64,11.682c-0.142,3.663-1.406,7.166-3.952,10.195c0,0-0.484,0.567-1.211,1.417     c-0.737,0.854-1.77,1.923-2.843,3.024c-1.07,1.105-2.211,2.116-3.081,2.913c-0.44,0.392-0.807,0.718-1.064,0.946     c-0.262,0.219-0.412,0.344-0.412,0.344c-1.658,1.375-3.406,2.469-5.212,3.145c-1.802,0.726-3.654,1.047-5.508,1.072     c-0.927,0.028-1.851-0.09-2.769-0.252c-0.917-0.177-1.828-0.398-2.721-0.755c-1.785-0.712-3.519-1.691-5.128-3.095     c0,0-0.604-0.505-1.511-1.262c-0.897-0.746-2.041-1.838-3.146-2.889c-1.11-1.041-2.141-2.184-2.903-3.002     c-0.747-0.829-1.245-1.381-1.245-1.381c-1.26-1.531-2.217-3.116-2.866-4.814C1848.926,881.252,1848.571,879.484,1848.477,877.669     z M1868.165,869.844c-0.153,2.254,1.028,3.443,3.562,3.463c2.535-0.021,3.7-1.271,3.526-3.507     c-0.175-2.25-1.352-3.244-3.559-3.227C1869.487,866.553,1868.316,867.608,1868.165,869.844z"
/>
<path
   style="fill:#FFA227;"
   d="M1896.713,825.816c0,0,0.483-0.054,1.207-0.135c0.738-0.088,1.663-0.265,2.65-0.468     c0.997-0.197,1.92-0.477,2.661-0.691c0.736-0.229,1.226-0.382,1.226-0.382l39.251,10.28c0,0,0.239,0.697,0.598,1.743     c0.342,1.054,0.839,2.498,1.207,3.961c0.381,1.462,0.774,2.978,0.995,4.115c0.221,1.149,0.368,1.915,0.368,1.915     c0.838,4.166,0.193,8.064-1.684,11.388c-0.924,1.591-2.109,3.042-3.615,4.242c-1.466,1.228-3.259,2.195-5.239,2.924     c0,0-0.727,0.288-1.846,0.657c-1.12,0.369-2.564,0.866-4.047,1.262c-1.485,0.398-2.927,0.772-4.028,1.001     c-1.097,0.217-1.829,0.362-1.829,0.362c-3.958,0.806-7.578,0.141-10.826-1.539c-3.261-1.646-6.229-4.418-8.969-7.961     c-2.755-3.563-4.69-7.04-6.137-10.242c-1.491-3.242-2.403-6.122-2.922-8.784c0,0-0.113-0.49-0.283-1.226     c-0.178-0.728-0.477-1.712-0.78-2.633c-0.302-0.925-0.692-1.858-0.965-2.512c-0.274-0.657-0.493-1.096-0.493-1.096     c-0.557-1.164-0.898-2.073-1.093-2.842c-0.154-0.742-0.156-1.336,0.111-1.774C1892.74,826.448,1894.198,826.083,1896.713,825.816     z M1920.403,839.245c-2.025-0.962-3.519-0.439-4.62,1.55c-1.088,1.901-0.808,3.428,1.067,4.685     c1.862,1.249,3.534,0.831,4.785-1.352C1922.9,841.844,1922.443,840.213,1920.403,839.245z"
/>
<path
   style="fill:#00BF33;"
   d="M1915.517,789.718c0.531,0.967,1.183,1.555,1.948,1.794c0.746,0.247,1.629,0.134,2.636-0.369     c1.006-0.502,1.625-1.151,1.848-1.966c0.205-0.804-0.011-1.763-0.617-2.856c-0.678-1.105-1.422-1.783-2.229-2.008     c-0.826-0.216-1.695,0.006-2.626,0.638c-0.931,0.632-1.463,1.346-1.606,2.127C1914.71,787.87,1914.916,788.744,1915.517,789.718z     "
/>
<path
   style="fill:#FFFFFF;"
   d="M1871.075,764.395c2.272,0.015,3.46-1.033,3.614-3.269c0.155-2.252-1.044-3.45-3.653-3.465      c-2.516,0.02-3.7,1.275-3.523,3.509C1867.691,763.421,1868.885,764.411,1871.075,764.395z"
/>
<path
   style="fill:#00BF33;"
   d="M1821.15,786.88c-1.223,2.218-0.765,3.83,1.276,4.8c2.023,0.963,3.516,0.459,4.579-1.473     c1.097-1.915,0.805-3.43-1.07-4.684C1824.07,784.276,1822.411,784.681,1821.15,786.88z"
/>
<path
   style="fill:#FFFFFF;"
   d="M1827.313,841.284c-0.537-0.973-1.185-1.562-1.953-1.798c-0.745-0.245-1.626-0.128-2.632,0.376      c-1.006,0.503-1.627,1.148-1.85,1.962c-0.202,0.8,0.011,1.761,0.622,2.861c0.661,1.072,1.392,1.729,2.19,1.944      c0.819,0.204,1.685-0.021,2.616-0.651c0.932-0.631,1.466-1.341,1.617-2.111C1828.094,843.084,1827.9,842.228,1827.313,841.284z"
/>
<path
   style="fill:#00BF33;"
   d="M1871.726,873.306c2.535-0.021,3.7-1.271,3.526-3.507c-0.175-2.25-1.352-3.244-3.559-3.227     c-2.206-0.019-3.377,1.036-3.528,3.272C1868.012,872.097,1869.193,873.287,1871.726,873.306z"
/>
<path
   style="fill:#FFFFFF;"
   d="M1915.783,840.794c-1.088,1.901-0.808,3.428,1.067,4.685c1.862,1.249,3.534,0.831,4.785-1.352      c1.265-2.283,0.807-3.914-1.233-4.882C1918.378,838.283,1916.884,838.806,1915.783,840.794z"
/>
<circle
   style="fill:#A81C1C;"
   cx="1871.098"
   cy="815.961"
   r="3.249"
/>
</g>
</svg>
