<?xml version="1.0" encoding="UTF-8" standalone="no"?>
<svg
  version="1.1"
  viewBox="850 1150 400 400"
  xmlns="http://www.w3.org/2000/svg">
<g fill="none">
<path
   style="fill:#FFA227;"
   d="M1221.396,1347.835h-7.378c1.458,1.564,2.931,2.383,4.469,2.405      C1219.686,1350.258,1220.651,1349.446,1221.396,1347.835z"
/>
<path
   style="fill:#FFA227;"
   d="M1170.343,1403.064c0,0,2.816-0.777,5.695-1.685c1.457-0.442,2.838-0.948,3.899-1.331      c1.06-0.391,1.767-0.652,1.767-0.652s1.427-0.538,2.855-1.076c0.719-0.282,1.437-0.564,1.976-0.775      c0.546-0.214,0.89-0.366,0.89-0.366s1.394-0.634,2.788-1.269c1.404-0.666,2.808-1.332,2.808-1.332s1.061-0.515,2.653-1.287      c1.599-0.786,3.625-1.91,5.719-3.08c1.044-0.6,2.087-1.199,3.066-1.761c0.491-0.29,0.966-0.571,1.416-0.837      c0.436-0.275,0.849-0.535,1.229-0.775c1.524-0.985,2.54-1.642,2.54-1.642c1.807-1.186,3.442-1.645,4.944-1.314      c1.447,0.318,2.259,1.709,2.406,4.346c0.043,0.644,0.057,1.311,0.041,2c-0.027,0.686-0.111,1.386-0.211,2.111      c-0.207,1.447-0.538,2.973-0.995,4.567c0,0-0.065,0.225-0.185,0.646c-0.127,0.419-0.282,1.044-0.553,1.816      c-0.524,1.55-1.273,3.764-2.172,6.421c-0.436,1.333-1.04,2.729-1.612,4.23c-0.593,1.493-1.203,3.074-1.874,4.693      c-0.72,1.597-1.464,3.248-2.219,4.926c-0.383,0.836-0.769,1.679-1.157,2.525c-0.422,0.829-0.845,1.662-1.269,2.495      c-0.853,1.662-1.697,3.33-2.557,4.954c-0.914,1.595-1.814,3.164-2.685,4.683c-0.438,0.758-0.87,1.503-1.292,2.232      c-0.451,0.711-0.893,1.407-1.323,2.084c-0.867,1.35-1.686,2.626-2.442,3.805c-0.74,1.189-1.507,2.219-2.159,3.151      c-0.659,0.927-1.233,1.735-1.706,2.4c-0.95,1.328-1.493,2.087-1.493,2.087c-2.013,2.609-4.135,4.668-6.252,6.104      c-2.174,1.392-3.822,1.611-4.941,0.641c-1.163-1.006-1.76-2.595-1.849-4.777c0,0-0.023-0.4-0.058-1.001      c-0.03-0.594-0.096-1.403-0.174-2.212c-0.16-1.602-0.32-3.203-0.32-3.203s-0.192-1.586-0.385-3.172      c-0.105-0.782-0.21-1.565-0.289-2.152c-0.078-0.581-0.145-0.976-0.145-0.976s-0.254-1.568-0.507-3.135      c-0.274-1.542-0.547-3.084-0.547-3.084s-0.226-1.134-0.565-2.835c-0.351-1.691-0.93-3.972-1.505-6.171      c-0.592-2.215-1.171-4.346-1.722-5.981c-0.533-1.605-0.888-2.675-0.888-2.675s-0.499-1.4-0.998-2.8      c-0.256-0.688-0.512-1.376-0.704-1.892c-0.189-0.509-0.338-0.858-0.338-0.858c-0.712-1.864-0.818-3.307-0.251-4.413      c0.283-0.553,0.734-1.018,1.354-1.408C1168.667,1403.662,1169.405,1403.324,1170.343,1403.064z M1192.529,1408.471      c0,0-1.48,0.566-2.961,1.131c-1.468,0.535-2.936,1.07-2.936,1.07c-0.98,0.336-1.755,0.753-2.412,1.221      c-0.657,0.469-1.144,1.014-1.466,1.644c-0.646,1.261-0.63,2.855,0.007,4.882c0,0,0.13,0.376,0.291,0.925      c0.164,0.556,0.382,1.297,0.601,2.039c0.423,1.506,0.845,3.012,0.845,3.012c0.592,2.054,1.495,3.476,2.775,4.241      c1.28,0.767,2.815,0.381,4.66-1.321c0.891-0.834,1.798-1.787,2.585-2.923c0.788-1.136,1.539-2.408,2.253-3.806      c1.472-2.76,2.219-5.482,2.522-7.896c0.13-1.217,0.071-2.197-0.23-2.959c-0.304-0.763-0.802-1.287-1.492-1.572      C1196.18,1407.585,1194.562,1407.747,1192.529,1408.471z"
/>
<path
   style="fill:#FFA227;"
   d="M1148.712,1477.887c2.177,0.219,3.716,0.89,4.656,2.113c0.452,0.587,0.602,1.29,0.45,2.11      c-0.148,0.824-0.601,1.762-1.391,2.765c-0.777,1.018-1.706,2.031-2.779,3.027c-1.071,0.999-2.281,1.986-3.68,2.858      c0,0-0.785,0.505-2.16,1.387c-1.376,0.881-3.326,2.162-5.774,3.528c-1.215,0.697-2.531,1.452-3.924,2.25      c-1.397,0.79-2.922,1.529-4.475,2.339c-0.78,0.398-1.573,0.802-2.376,1.212c-0.402,0.203-0.807,0.408-1.213,0.614      c-0.415,0.189-0.831,0.38-1.25,0.571c-1.676,0.758-3.38,1.528-5.083,2.297l-1.28,0.57l-1.299,0.518      c-0.866,0.343-1.728,0.684-2.584,1.023c-0.856,0.336-1.706,0.67-2.546,0.999c-0.42,0.164-0.838,0.327-1.252,0.488      c-0.421,0.145-0.839,0.288-1.253,0.431c-1.66,0.563-3.265,1.106-4.787,1.622c-0.763,0.251-1.5,0.514-2.223,0.731      c-0.727,0.209-1.428,0.41-2.102,0.604c-2.7,0.757-4.94,1.433-6.531,1.809c-1.593,0.372-2.503,0.584-2.503,0.584      c-1.615,0.374-3.156,0.626-4.609,0.758c-1.458,0.112-2.84,0.044-4.118-0.1c-2.619-0.284-3.959-1.168-4.192-2.63      c-0.243-1.518,0.308-3.13,1.595-4.875c0,0,0.714-0.982,1.784-2.455c0.518-0.735,1.122-1.592,1.769-2.51      c0.631-0.943,1.289-1.963,1.934-2.972c1.291-2.022,2.518-4.034,3.408-5.536c0.448-0.741,0.804-1.398,1.053-1.85      c0.248-0.452,0.389-0.711,0.389-0.711s0.744-1.372,1.489-2.743c0.712-1.363,1.425-2.727,1.425-2.727s0.169-0.342,0.422-0.855      c0.251-0.514,0.585-1.185,0.898-1.899c0.618-1.402,1.235-2.805,1.235-2.805s1.227-2.788,2.316-5.527      c0.539-1.396,1.038-2.819,1.405-3.865c0.359-1.048,0.599-1.746,0.599-1.746c0.314-0.92,0.683-1.665,1.119-2.237      c0.217-0.287,0.453-0.526,0.703-0.73c0.246-0.215,0.509-0.386,0.792-0.514c1.131-0.513,2.56-0.334,4.374,0.473      c0,0,0.336,0.158,0.841,0.396c0.503,0.23,1.193,0.567,1.862,0.845c1.364,0.571,2.728,1.142,2.728,1.142s1.044,0.41,2.61,1.025      c1.581,0.609,3.732,1.419,5.882,2.088c2.161,0.698,4.379,1.363,6.067,1.846c0.846,0.247,1.552,0.437,2.037,0.554      c0.491,0.123,0.771,0.193,0.771,0.193s1.518,0.354,3.037,0.708c1.545,0.335,3.091,0.67,3.091,0.67s0.39,0.086,0.974,0.214      c0.583,0.123,1.378,0.305,2.149,0.439c1.566,0.276,3.133,0.551,3.133,0.551s1.584,0.244,3.168,0.487      C1147.103,1477.664,1148.712,1477.887,1148.712,1477.887z M1124.697,1487.674c-0.69-1.323-2.054-2.301-4.065-2.999      c0,0-1.475-0.501-2.949-1.001c-0.725-0.243-1.471-0.546-2.016-0.75c-0.547-0.212-0.911-0.353-0.911-0.353      c-1.982-0.741-3.566-0.838-4.857-0.255c-0.323,0.146-0.627,0.333-0.913,0.564c-0.291,0.22-0.567,0.475-0.825,0.778      c-0.516,0.604-0.966,1.382-1.359,2.339c0,0-0.617,1.443-1.233,2.886c-0.321,0.726-0.643,1.452-0.884,1.997      c-0.243,0.551-0.416,0.899-0.416,0.899c-0.866,1.919-1.105,3.576-0.615,4.986c0.482,1.394,1.991,2.139,4.436,2.016      c1.215-0.078,2.502-0.291,3.848-0.63c0.673-0.169,1.361-0.37,2.062-0.601c0.706-0.221,1.411-0.502,2.121-0.83      c1.431-0.643,2.741-1.33,3.916-2.061c0.588-0.365,1.142-0.741,1.661-1.128c0.517-0.392,0.983-0.827,1.422-1.253      C1124.918,1490.515,1125.389,1488.996,1124.697,1487.674z"
/>
<path
   style="fill:#FFA227;"
   d="M967.971,1495.645c-0.337-0.356-0.614-0.698-0.859-1.032l3.695-6.386      c0,0,1.575-0.383,3.151-0.766c0.776-0.199,1.552-0.398,2.134-0.548c0.575-0.146,0.969-0.269,0.969-0.269      s1.538-0.481,3.075-0.961c1.509-0.497,3.019-0.995,3.019-0.995s1.487-0.495,2.973-0.989c0.733-0.245,1.484-0.542,2.034-0.745      c0.551-0.21,0.918-0.35,0.918-0.35s1.438-0.575,2.876-1.15c1.409-0.589,2.817-1.178,2.817-1.178s1.393-0.588,2.788-1.275      c1.373-0.674,2.747-1.348,2.747-1.348s1.349-0.668,2.699-1.336c0.662-0.339,1.323-0.678,1.82-0.932      c0.49-0.25,0.822-0.44,0.822-0.44s1.298-0.755,2.596-1.51c1.267-0.765,2.533-1.531,2.533-1.531c1.662-1,3.048-1.303,4.287-0.982      c1.186,0.335,2.165,1.396,2.998,3.173c0,0,0.156,0.338,0.389,0.846c0.233,0.516,0.553,1.183,0.886,1.831      c0.677,1.316,1.355,2.632,1.355,2.632s0.725,1.313,1.449,2.626c0.757,1.321,1.513,2.641,1.513,2.641s0.193,0.323,0.482,0.808      c0.296,0.484,0.69,1.128,1.085,1.773c0.816,1.295,1.632,2.589,1.632,2.589s0.864,1.288,1.728,2.576      c0.875,1.312,1.801,2.532,1.801,2.532s0.923,1.244,1.846,2.487c0.955,1.247,1.91,2.493,1.91,2.493s0.967,1.266,1.972,2.521      c1.023,1.214,2.046,2.427,2.046,2.427s1.071,1.202,2.142,2.404c1.104,1.202,2.207,2.404,2.207,2.404      c0.738,0.811,1.291,1.585,1.651,2.339c0.36,0.762,0.527,1.525,0.494,2.293c-0.062,1.478-1.35,2.576-3.849,3.109      c-1.249,0.285-2.609,0.469-4.068,0.547c-0.73,0.039-1.484,0.052-2.262,0.038c-0.776-0.042-1.575-0.119-2.396-0.221      c0,0-0.926-0.117-2.547-0.322c-0.81-0.105-1.794-0.232-2.922-0.378c-1.13-0.133-2.389-0.398-3.771-0.629      c-1.379-0.248-2.873-0.517-4.454-0.801c-0.792-0.131-1.596-0.317-2.418-0.507c-0.822-0.188-1.662-0.381-2.516-0.576      c-0.854-0.198-1.721-0.4-2.6-0.604c-0.878-0.207-1.77-0.401-2.652-0.665c-1.771-0.502-3.57-1.012-5.369-1.522      c-1.807-0.484-3.569-1.115-5.315-1.696c-1.74-0.6-3.468-1.148-5.106-1.77c-1.631-0.641-3.208-1.261-4.703-1.849      c-0.746-0.297-1.472-0.586-2.175-0.865c-0.699-0.287-1.359-0.6-2-0.883c-2.555-1.154-4.69-2.105-6.164-2.811      c-1.457-0.741-2.289-1.165-2.289-1.165c-1.47-0.75-2.81-1.55-4.008-2.385C969.869,1497.527,968.858,1496.573,967.971,1495.645z       M995.844,1495.217c-0.266,0.697-0.239,1.413,0.094,2.15c0.167,0.368,0.411,0.742,0.733,1.12      c0.327,0.366,0.736,0.726,1.225,1.092c1.008,0.734,2.129,1.402,3.377,2.012c1.247,0.613,2.617,1.178,4.157,1.591      c1.504,0.43,2.948,0.749,4.319,0.949c0.687,0.096,1.35,0.18,2.002,0.2c0.654,0.013,1.287-0.004,1.899-0.052      c2.452-0.202,3.846-1.048,4.165-2.505c0.321-1.457-0.107-3.087-1.241-4.927c0,0-0.808-1.333-1.615-2.667      c-0.398-0.657-0.784-1.334-1.066-1.857c-0.282-0.515-0.47-0.858-0.47-0.858c-0.999-1.834-2.15-2.931-3.502-3.316      c-1.412-0.373-2.962-0.133-4.794,0.823c0,0-1.386,0.71-2.772,1.42c-1.416,0.698-2.833,1.396-2.833,1.396      C997.605,1492.717,996.376,1493.816,995.844,1495.217z"
/>
<path
   style="fill:#E0486C;"
   d="M1152.685,1390.433c0.022,1.724,0.728,2.947,2.088,3.56c1.362,0.612,2.938,0.719,4.793,0.249      c0,0,1.408-0.313,2.75-0.694c1.366-0.386,2.732-0.773,2.732-0.773s1.367-0.421,2.734-0.843c0.689-0.223,1.378-0.446,1.895-0.614      c0.524-0.17,0.854-0.293,0.854-0.293s1.35-0.509,2.699-1.019c1.362-0.54,2.723-1.08,2.723-1.08s1.382-0.556,2.765-1.111      c0.704-0.282,1.362-0.586,1.87-0.813c0.506-0.229,0.843-0.383,0.843-0.383s1.345-0.649,2.689-1.297      c1.354-0.68,2.708-1.361,2.708-1.361s0.342-0.171,0.856-0.428c0.522-0.257,1.196-0.609,1.853-0.974      c1.332-0.741,2.664-1.482,2.664-1.482s1.325-0.776,2.65-1.553c1.331-0.808,2.663-1.616,2.663-1.616s0.324-0.213,0.811-0.532      c0.484-0.326,1.129-0.76,1.775-1.194c1.295-0.896,2.589-1.792,2.589-1.792s1.31-0.913,2.621-1.826      c1.333-0.924,2.576-1.898,2.576-1.898c1.672-1.298,2.604-2.747,2.803-4.328c0.094-0.762,0.012-1.547-0.273-2.348      c-0.309-0.803-0.805-1.621-1.49-2.445c0,0-1.041-1.218-2.082-2.435c-1.045-1.185-2.09-2.371-2.09-2.371      s-1.015-1.183-2.122-2.334c-1.087-1.136-2.175-2.272-2.175-2.272s-1.089-1.09-2.179-2.181c-1.091-1.058-2.182-2.117-2.182-2.117      h-17.98c0,0,3.289,2.74,6.58,5.8c0.411,0.384,0.821,0.768,1.225,1.146c0.385,0.383,0.765,0.761,1.132,1.126      c0.734,0.747,1.419,1.445,2.005,2.042c1.172,1.23,1.953,2.05,1.953,2.05c0.693,0.738,1.197,1.47,1.515,2.188      c0.294,0.715,0.385,1.414,0.301,2.09c-0.178,1.403-1.087,2.68-2.735,3.805c0,0-0.232,0.158-0.638,0.434      c-0.397,0.276-0.995,0.663-1.722,1.117c-1.444,0.91-3.363,2.085-5.269,3.195c-0.96,0.555-1.889,1.101-2.806,1.592      c-0.92,0.479-1.779,0.925-2.516,1.308c-1.464,0.732-2.44,1.22-2.44,1.22c-1.726,0.846-3.303,1.051-4.74,0.69      c-1.49-0.377-2.37-1.474-2.698-3.347c-0.178-0.918-0.235-1.878-0.212-2.888c-0.018-1.02,0.07-2.086,0.27-3.201      c0,0,0.151-0.837,0.379-2.092c0.201-1.26,0.377-2.955,0.606-4.641c0.263-1.683,0.324-3.391,0.436-4.663      c0.099-1.275,0.166-2.124,0.166-2.124c0.054-0.574,0.105-1.127,0.155-1.663c0.06-0.535,0.145-1.049,0.253-1.547      c0.216-0.995,0.528-1.921,0.929-2.799c0.143-0.31,0.301-0.583,0.467-0.837h-10.578c0,0-0.068,2.372-0.169,5.93      c-0.07,0.885-0.145,1.844-0.225,2.858c-0.037,0.507-0.075,1.028-0.114,1.561c-0.02,0.266-0.04,0.536-0.06,0.807      c-0.036,0.27-0.072,0.542-0.109,0.816c-0.307,2.193-0.512,4.552-0.995,6.863c-0.222,1.158-0.382,2.33-0.635,3.462      c-0.263,1.13-0.521,2.243-0.771,3.319c-0.126,0.538-0.234,1.071-0.366,1.586c-0.148,0.511-0.292,1.01-0.433,1.497      c-0.276,0.974-0.536,1.896-0.776,2.746c-0.214,0.859-0.517,1.613-0.739,2.295c-0.23,0.68-0.431,1.273-0.597,1.761      c-0.326,0.978-0.512,1.537-0.512,1.537C1152.88,1386.814,1152.57,1388.669,1152.685,1390.433z"
/>
<path
   style="fill:#E0486C;"
   d="M1162.362,1440.495c0,0,0.153,1.529,0.306,3.058c0.131,1.553,0.263,3.106,0.263,3.106      s0.062,0.786,0.154,1.965c0.072,1.17,0.132,2.721,0.182,4.302c0.102,3.152,0.098,6.403,0.098,6.403      c-0.036,2.102-0.645,3.709-1.764,4.774c-1.123,1.062-2.732,1.61-4.885,1.467c0,0-3.233-0.168-6.361-0.437      c-1.555-0.116-3.134-0.307-4.309-0.46c-1.167-0.154-1.945-0.257-1.945-0.257s-1.537-0.213-3.074-0.425      c-0.758-0.115-1.516-0.23-2.084-0.316c-0.562-0.085-0.945-0.158-0.945-0.158s-1.513-0.311-3.026-0.622      c-1.487-0.33-2.973-0.661-2.973-0.661s-1.094-0.254-2.735-0.635c-1.628-0.39-3.829-1.025-5.946-1.651      c-2.134-0.646-4.18-1.272-5.752-1.862c-1.542-0.57-2.57-0.95-2.57-0.95s-1.347-0.513-2.693-1.026      c-0.661-0.263-1.322-0.526-1.818-0.723c-0.489-0.193-0.824-0.346-0.824-0.346s-1.308-0.603-2.615-1.206      c-1.278-0.616-2.555-1.232-2.555-1.232c-1.679-0.815-2.805-1.898-3.457-3.242c-0.65-1.343-0.452-2.738,0.651-4.136      c0.535-0.69,1.164-1.331,1.893-1.915c0.704-0.632,1.503-1.215,2.411-1.735c0,0,0.683-0.39,1.88-1.071      c1.158-0.746,2.813-1.811,4.798-3.089c3.9-2.666,8.899-6.533,13.479-10.871c1.132-1.097,2.316-2.142,3.354-3.299      c0.536-0.562,1.067-1.119,1.592-1.669c0.53-0.546,1.054-1.085,1.522-1.657c0.969-1.116,1.906-2.195,2.794-3.218      c0.835-1.066,1.625-2.074,2.354-3.005c0.361-0.468,0.733-0.897,1.042-1.338c0.31-0.44,0.604-0.857,0.881-1.25      c0.557-0.782,1.043-1.463,1.443-2.024c0.201-0.28,0.381-0.53,0.538-0.747c0.143-0.226,0.265-0.418,0.363-0.574      c0.198-0.312,0.303-0.478,0.303-0.478c1.109-1.776,2.512-3.066,3.893-4.091c1.443-1.031,2.839-1.153,4.142-0.426      c1.303,0.729,2.324,1.92,3.052,3.65c0,0,0.549,1.316,1.098,2.633c0.56,1.34,1.026,2.666,1.026,2.666s0.459,1.351,0.917,2.703      c0.442,1.38,0.885,2.759,0.885,2.759s0.083,0.261,0.227,0.719c0.139,0.455,0.359,1.123,0.576,1.904      c0.435,1.561,0.994,3.676,1.516,5.845c0.262,1.083,0.516,2.179,0.746,3.215c0.197,1.025,0.381,1.981,0.538,2.801      c0.294,1.667,0.49,2.779,0.49,2.779s0.252,1.509,0.504,3.019c0.124,0.763,0.237,1.527,0.302,2.088      C1162.315,1440.117,1162.362,1440.495,1162.362,1440.495z M1149.504,1434.702c0,0-0.218-1.455-0.436-2.909      c-0.238-1.429-0.477-2.859-0.477-2.859c-0.334-1.864-1.149-3.295-2.292-4.227c-0.596-0.486-1.246-0.725-1.948-0.734      c-0.716-0.021-1.502,0.173-2.345,0.58c-1.708,0.798-3.255,2.096-4.856,3.696c0,0-0.589,0.619-1.473,1.548      c-0.853,0.959-2.133,2.096-3.359,3.286c-0.623,0.585-1.224,1.194-1.823,1.726c-0.607,0.523-1.173,1.011-1.659,1.43      c-0.968,0.84-1.613,1.401-1.613,1.401c-0.835,0.765-1.642,1.461-2.301,2.237c-0.666,0.767-1.221,1.568-1.666,2.4      c-0.906,1.64-1.025,3.004-0.115,4.265c0.868,1.2,2.227,2.066,4.109,2.563c0,0,0.357,0.092,0.879,0.207      c0.529,0.116,1.235,0.271,1.94,0.425c1.434,0.293,2.867,0.587,2.867,0.587s1.459,0.292,2.918,0.584      c0.739,0.146,1.476,0.277,2.018,0.357c0.548,0.085,0.914,0.142,0.914,0.142s1.479,0.195,2.959,0.391      c1.504,0.174,3.008,0.349,3.008,0.349c2.026,0.258,3.507-0.173,4.504-1.117c0.993-0.947,1.478-2.433,1.393-4.414      c0,0-0.095-1.519-0.189-3.037c-0.117-1.495-0.234-2.991-0.234-2.991s-0.158-1.472-0.316-2.944      c-0.077-0.724-0.187-1.468-0.27-2.021C1149.56,1435.07,1149.504,1434.702,1149.504,1434.702z"
/>
<path
   style="fill:#E0486C;"
   d="M1076.934,1489.836c0,0-0.851,1.286-1.701,2.571c-0.862,1.308-1.773,2.531-1.773,2.531      s-0.936,1.245-1.872,2.491c-0.969,1.248-1.937,2.497-1.937,2.497s-0.967,1.265-1.972,2.523      c-1.023,1.214-2.046,2.427-2.046,2.427c-1.391,1.604-2.888,2.461-4.476,2.578c-0.382,0.026-0.768,0.014-1.156-0.058      c-0.388-0.082-0.779-0.21-1.171-0.385c-0.783-0.35-1.571-0.888-2.353-1.615c0,0-1.155-1.102-2.31-2.204      c-1.123-1.104-2.245-2.209-2.245-2.209s-1.104-1.142-2.208-2.284c-1.072-1.144-2.144-2.288-2.144-2.288      s-0.774-0.861-1.935-2.153c-1.147-1.26-2.63-3.093-4.051-4.881c-1.424-1.796-2.783-3.584-3.774-4.926      c-0.969-1.395-1.615-2.325-1.615-2.325s-0.825-1.245-1.649-2.49c-0.792-1.24-1.585-2.48-1.585-2.48s-0.796-1.201-1.54-2.492      c-0.734-1.266-1.467-2.532-1.467-2.532s-1.429-2.535-2.713-5.05c-1.279-2.608-2.417-5.176-2.417-5.176      c-0.752-1.704-0.926-3.261-0.562-4.709c0.366-1.447,1.452-2.377,3.154-2.744c0.853-0.187,1.745-0.259,2.682-0.251      c0.946-0.034,1.932,0.036,2.957,0.22c0,0,0.774,0.141,2.128,0.389c1.367,0.175,3.321,0.425,5.665,0.726      c4.709,0.423,11.052,0.709,17.372,0.353c6.322-0.287,12.538-1.392,17.144-2.383c1.149-0.263,2.203-0.505,3.137-0.719      c0.935-0.211,1.726-0.485,2.39-0.661c1.323-0.374,2.079-0.588,2.079-0.588c1.01-0.255,1.962-0.496,2.893-0.609      c0.931-0.113,1.835-0.115,2.709-0.016c0.436,0.048,0.84,0.142,1.203,0.26c0.359,0.109,0.683,0.258,0.971,0.448      c0.574,0.379,1.003,0.918,1.269,1.616c0.53,1.39,0.554,2.994-0.028,4.805c0,0-0.432,1.337-0.864,2.674      c-0.462,1.35-0.925,2.7-0.925,2.7s-0.497,1.349-0.995,2.698c-0.253,0.688-0.527,1.332-0.732,1.827      c-0.208,0.494-0.346,0.823-0.346,0.823s-0.585,1.326-1.17,2.652c-0.616,1.336-1.233,2.673-1.233,2.673s-0.155,0.338-0.389,0.846      c-0.233,0.515-0.553,1.184-0.886,1.832c-0.677,1.316-1.354,2.632-1.354,2.632s-0.724,1.313-1.449,2.626      c-0.757,1.321-1.513,2.641-1.513,2.641s-0.193,0.324-0.482,0.809c-0.296,0.484-0.69,1.128-1.084,1.773      C1077.75,1488.541,1076.934,1489.836,1076.934,1489.836z M1073.83,1472.126c0.944-1.685,1.24-3.253,0.963-4.708      c-0.289-1.51-1.333-2.444-3.181-2.863c-1.801-0.385-3.842-0.601-6.088-0.294c0,0-0.211,0.027-0.58,0.075      c-0.371,0.037-0.894,0.142-1.533,0.172c-1.275,0.097-2.974,0.225-4.674,0.354c-0.848,0.091-1.704,0.075-2.504,0.102      c-0.8,0.02-1.547,0.038-2.187,0.054c-1.28,0.036-2.133,0.06-2.133,0.06c-2.308-0.066-4.277,0.278-6.076,0.993      c-1.746,0.61-2.674,1.638-2.785,3.173c-0.106,1.478,0.371,3.011,1.504,4.596c0,0,0.16,0.223,0.441,0.614      c0.281,0.401,0.689,0.927,1.187,1.571c0.994,1.285,2.358,3.002,3.785,4.721c0.713,0.855,1.44,1.731,2.133,2.515      c0.704,0.771,1.361,1.49,1.925,2.106c1.161,1.233,1.935,2.054,1.935,2.054c0.697,0.729,1.399,1.27,2.097,1.624      c0.349,0.177,0.697,0.307,1.043,0.391c0.345,0.074,0.688,0.089,1.028,0.065c1.41-0.107,2.736-0.95,3.954-2.54      c0,0,0.675-0.894,1.688-2.236c0.993-1.379,2.274-3.252,3.493-5.098c1.22-1.861,2.384-3.659,3.209-5.122      C1073.287,1473.078,1073.83,1472.126,1073.83,1472.126z"
/>
<path
   style="fill:#E0486C;"
   d="M1014.868,1454.366c0.493-1.426,0.069-2.722-1.146-3.98c-0.604-0.641-1.296-1.224-2.079-1.739      c-0.392-0.258-0.806-0.499-1.245-0.722c-0.443-0.215-0.9-0.435-1.37-0.663c0,0-0.716-0.326-1.791-0.815      c-0.539-0.241-1.167-0.523-1.84-0.825c-0.68-0.288-1.36-0.69-2.066-1.038c-0.701-0.358-1.402-0.716-2.06-1.052      c-0.329-0.167-0.648-0.327-0.95-0.48c-0.293-0.17-0.57-0.331-0.825-0.479c-1.023-0.591-1.706-0.985-1.706-0.985l-5.296,9.154      c0.647,1.197,0.708,2.343,0.094,3.444c-0.723,1.293-1.964,2.299-3.802,2.965l-9.004,15.562c0,0,2.226-0.661,5.426-1.745      c1.624-0.588,3.49-1.29,5.44-2.066c1.952-0.777,3.976-1.605,6.003-2.574c2.015-0.94,3.976-1.903,5.769-2.823      c1.798-0.928,3.467-1.905,4.851-2.704c1.389-0.811,2.517-1.497,3.299-1.979c0.389-0.242,0.695-0.432,0.904-0.561      c0.21-0.138,0.322-0.212,0.322-0.212C1013.38,1457.003,1014.378,1455.776,1014.868,1454.366z"
/>
<path
   style="fill:#00BF33;"
   d="M1168.909,1354.68c0,0-0.066,0.85-0.166,2.124c-0.112,1.273-0.172,2.981-0.436,4.663      c-0.229,1.686-0.405,3.381-0.606,4.641c-0.227,1.255-0.379,2.092-0.379,2.092c-0.2,1.115-0.288,2.181-0.27,3.201      c-0.023,1.011,0.034,1.97,0.212,2.888c0.328,1.872,1.207,2.97,2.698,3.347c1.437,0.361,3.014,0.156,4.74-0.69      c0,0,0.976-0.488,2.44-1.22c0.736-0.383,1.595-0.83,2.516-1.308c0.918-0.49,1.846-1.037,2.806-1.592      c1.906-1.11,3.825-2.285,5.269-3.195c0.726-0.454,1.324-0.841,1.722-1.117c0.406-0.276,0.638-0.434,0.638-0.434      c1.648-1.126,2.557-2.402,2.735-3.805c0.083-0.676-0.007-1.375-0.301-2.09c-0.318-0.718-0.822-1.45-1.515-2.188      c0,0-0.781-0.82-1.953-2.05c-0.587-0.598-1.272-1.295-2.005-2.042c-0.367-0.365-0.747-0.742-1.132-1.126      c-0.404-0.378-0.815-0.762-1.225-1.146c-3.292-3.06-6.58-5.8-6.58-5.8h-7.402c-0.166,0.255-0.324,0.527-0.467,0.837      c-0.401,0.878-0.712,1.804-0.929,2.799c-0.108,0.497-0.193,1.012-0.253,1.547      C1169.014,1353.553,1168.963,1354.106,1168.909,1354.68z"
/>
<path
   style="fill:#00BF33;"
   d="M1146.299,1424.707c-0.596-0.486-1.246-0.725-1.948-0.734c-0.716-0.021-1.502,0.173-2.345,0.58      c-1.708,0.798-3.255,2.096-4.856,3.696c0,0-0.589,0.619-1.473,1.548c-0.853,0.959-2.133,2.096-3.359,3.286      c-0.623,0.585-1.224,1.194-1.823,1.726c-0.607,0.523-1.173,1.011-1.659,1.43c-0.968,0.84-1.613,1.401-1.613,1.401      c-0.835,0.765-1.642,1.461-2.301,2.237c-0.666,0.767-1.221,1.568-1.666,2.4c-0.906,1.64-1.025,3.004-0.115,4.265      c0.868,1.2,2.227,2.066,4.109,2.563c0,0,0.357,0.092,0.879,0.207c0.529,0.116,1.235,0.271,1.94,0.425      c1.434,0.293,2.867,0.587,2.867,0.587s1.459,0.292,2.918,0.584c0.739,0.146,1.476,0.277,2.018,0.357      c0.548,0.085,0.914,0.142,0.914,0.142s1.479,0.195,2.959,0.391c1.504,0.174,3.008,0.349,3.008,0.349      c2.026,0.258,3.507-0.173,4.504-1.117c0.993-0.947,1.478-2.433,1.393-4.414c0,0-0.095-1.519-0.189-3.037      c-0.117-1.495-0.234-2.991-0.234-2.991s-0.158-1.472-0.316-2.944c-0.077-0.724-0.187-1.468-0.27-2.021      c-0.083-0.552-0.139-0.92-0.139-0.92s-0.218-1.455-0.436-2.909c-0.238-1.429-0.477-2.859-0.477-2.859      C1148.257,1427.07,1147.443,1425.64,1146.299,1424.707z"
/>
<path
   style="fill:#00BF33;"
   d="M1074.793,1467.418c-0.289-1.51-1.333-2.444-3.181-2.863c-1.801-0.385-3.842-0.601-6.088-0.294      c0,0-0.211,0.027-0.58,0.075c-0.371,0.037-0.894,0.142-1.533,0.172c-1.275,0.097-2.974,0.225-4.674,0.354      c-0.848,0.091-1.704,0.075-2.504,0.102c-0.8,0.02-1.547,0.038-2.187,0.054c-1.28,0.036-2.133,0.06-2.133,0.06      c-2.308-0.066-4.277,0.278-6.076,0.993c-1.746,0.61-2.674,1.638-2.785,3.173c-0.106,1.478,0.371,3.011,1.504,4.596      c0,0,0.16,0.223,0.441,0.614c0.281,0.401,0.689,0.927,1.187,1.571c0.994,1.285,2.358,3.002,3.785,4.721      c0.713,0.855,1.44,1.731,2.133,2.515c0.704,0.771,1.361,1.49,1.925,2.106c1.161,1.233,1.935,2.054,1.935,2.054      c0.697,0.729,1.399,1.27,2.097,1.624c0.349,0.177,0.697,0.307,1.043,0.391c0.345,0.074,0.688,0.089,1.028,0.065      c1.41-0.107,2.736-0.95,3.954-2.54c0,0,0.675-0.894,1.688-2.236c0.993-1.379,2.274-3.252,3.493-5.098      c1.22-1.861,2.384-3.659,3.209-5.122c0.814-1.428,1.357-2.38,1.357-2.38C1074.774,1470.441,1075.07,1468.873,1074.793,1467.418z      "
/>
<path
   style="fill:#00BF33;"
   d="M992.493,1450.741l-3.708,6.409c1.837-0.666,3.079-1.672,3.802-2.965      C993.201,1453.084,993.141,1451.938,992.493,1450.741z"
/>
<path
   style="fill:#FFA227;"
   d="M967.112,1494.612l3.695-6.386c-2.107,0.51-3.565,1.389-4.354,2.709      C965.836,1491.964,966.067,1493.19,967.112,1494.612z"
/>
<path
   style="fill:#FFA227;"
   d="M944.833,1422.781c0,0-0.74,2.836-1.398,5.791c-0.603,2.896-1.097,5.892-1.097,5.892      s-0.252,1.509-0.504,3.019c-0.125,0.764-0.236,1.526-0.301,2.087c-0.07,0.567-0.117,0.945-0.117,0.945s-0.153,1.529-0.306,3.058      c-0.131,1.553-0.262,3.107-0.262,3.107s-0.024,0.293-0.065,0.807c-0.037,0.511-0.107,1.261-0.14,2.126      c-0.083,1.744-0.166,4.097-0.201,6.494c-0.015,1.195-0.034,2.413-0.018,3.539c0.034,1.123,0.065,2.172,0.092,3.07      c0.08,1.82,0.134,3.033,0.134,3.033c0.11,2.166-0.318,3.815-1.357,4.949c-1,1.093-2.602,1.093-4.939-0.112      c-1.145-0.581-2.327-1.292-3.489-2.177c-1.139-0.908-2.284-1.963-3.424-3.16c0,0-0.642-0.676-1.765-1.86      c-1.113-1.193-2.618-2.976-4.454-5.086c-0.456-0.531-0.93-1.084-1.421-1.656c-0.468-0.592-0.951-1.203-1.449-1.832      c-0.99-1.261-2.033-2.592-3.112-3.968c-1.069-1.384-2.086-2.881-3.16-4.37c-1.06-1.5-2.163-3.006-3.148-4.594      c-1.007-1.572-2.013-3.145-3.004-4.692c-0.972-1.559-1.843-3.147-2.725-4.659c-1.793-3.009-3.234-5.947-4.515-8.439      c-0.317-0.625-0.622-1.223-0.911-1.792c-0.286-0.57-0.523-1.129-0.764-1.645c-0.47-1.037-0.881-1.941-1.218-2.686      c-0.671-1.491-1.055-2.344-1.055-2.344c-0.169-0.377-0.329-0.75-0.482-1.121c-0.142-0.375-0.268-0.75-0.391-1.12      c-0.243-0.741-0.453-1.468-0.631-2.179c-0.355-1.422-0.581-2.78-0.676-4.058c-0.178-2.563,0.513-4.124,1.897-4.602      c1.452-0.505,3.123-0.225,5.049,0.795c0,0,0.354,0.184,0.911,0.446c0.551,0.259,1.286,0.605,2.021,0.95      c1.462,0.665,2.924,1.33,2.924,1.33s1.465,0.629,2.929,1.257c1.441,0.623,2.954,1.175,2.954,1.175s1.48,0.565,2.96,1.131      c1.468,0.535,2.935,1.07,2.935,1.07s1.088,0.392,2.74,0.924c1.681,0.519,3.907,1.175,6.103,1.772      c1.092,0.288,2.184,0.575,3.208,0.845c1.04,0.246,2.019,0.458,2.847,0.637c1.651,0.341,2.753,0.569,2.753,0.569      s1.458,0.268,2.916,0.536c1.433,0.266,2.925,0.454,2.925,0.454c1.964,0.316,3.263,0.948,3.932,1.995      C945.212,1419.49,945.311,1420.901,944.833,1422.781z M929.061,1439.326c0,0,0.253-1.568,0.507-3.136      c0.273-1.542,0.547-3.084,0.547-3.084c0.387-2.028,0.182-3.575-0.561-4.781c-0.765-1.192-2.148-1.976-4.216-2.439      c0,0-1.548-0.306-3.036-0.691c-1.512-0.387-3.023-0.774-3.023-0.774c-2.07-0.514-3.749-0.442-5.051,0.287      c-1.303,0.727-1.737,2.253-1.191,4.706c0.483,2.421,1.735,4.9,3.417,7.547c0.825,1.328,1.756,2.477,2.701,3.493      c0.942,1.018,1.903,1.898,2.878,2.626c0.969,0.734,1.886,1.142,2.699,1.258c0.809,0.119,1.51-0.051,2.102-0.506      C928.021,1442.92,928.721,1441.412,929.061,1439.326z"
/>
<path
   style="fill:#FFA227;"
   d="M890.859,1366.624c-1.281,1.774-2.658,2.773-4.183,2.972c-1.468,0.194-2.719-0.898-3.758-3.261      c-0.55-1.178-0.905-2.493-1.218-3.921c-0.304-1.428-0.519-2.971-0.638-4.614c0,0-0.017-0.233-0.048-0.668      c-0.042-0.436-0.053-1.075-0.077-1.889c-0.041-1.628-0.099-3.955-0.168-6.746c0.003-2.791,0.115-6.049,0.215-9.537      c0.13-1.743,0.264-3.545,0.4-5.375c0.072-0.915,0.145-1.837,0.218-2.763c0.076-0.925,0.217-1.85,0.324-2.777      c0.237-1.852,0.474-3.704,0.707-5.526c0.256-1.82,0.612-3.597,0.907-5.323c0.156-0.862,0.308-1.709,0.458-2.539      c0.076-0.415,0.151-0.825,0.225-1.23c0.09-0.402,0.18-0.799,0.268-1.191c0.36-1.566,0.7-3.046,1.014-4.412      c0.594-2.742,1.276-4.979,1.715-6.555c0.449-1.573,0.705-2.473,0.705-2.473c0.432-1.601,1.032-3.046,1.68-4.361      c0.646-1.315,1.349-2.496,2.101-3.536c0.379-0.535,0.749-0.984,1.121-1.344c0.385-0.355,0.763-0.625,1.133-0.812      c0.74-0.375,1.451-0.42,2.143-0.156c1.443,0.549,2.527,1.818,3.384,3.8c0,0,2.013,4.514,4.149,8.724      c1.09,2.122,2.282,4.207,3.149,5.731c0.883,1.512,1.471,2.521,1.471,2.521s0.196,0.333,0.49,0.833      c0.286,0.496,0.692,1.158,1.12,1.819c0.845,1.302,1.69,2.604,1.69,2.604s0.87,1.26,1.739,2.521      c0.877,1.229,1.754,2.457,1.754,2.457s0.114,0.153,0.313,0.42c0.202,0.266,0.491,0.645,0.838,1.101      c0.694,0.906,1.623,2.097,2.557,3.258c0.934,1.163,1.872,2.298,2.577,3.136c0.722,0.841,1.23,1.393,1.23,1.393      c1.308,1.467,1.9,2.777,1.742,4.01c-0.077,0.616-0.349,1.21-0.792,1.797c-0.418,0.59-1.021,1.171-1.808,1.757      c0,0-1.199,0.863-2.399,1.725c-1.203,0.895-2.405,1.79-2.405,1.79s-0.224,0.173-0.616,0.474      c-0.402,0.303-0.931,0.74-1.576,1.274c-1.288,1.066-3.008,2.526-4.729,4.05c-0.855,0.761-1.732,1.536-2.516,2.275      c-0.77,0.749-1.489,1.449-2.105,2.048c-1.231,1.233-2.052,2.055-2.052,2.055s-1.087,1.136-2.175,2.272      c-1.107,1.151-2.121,2.335-2.121,2.335s-1.045,1.185-2.09,2.371c-1.041,1.218-2.082,2.436-2.082,2.436s-1.022,1.249-2.045,2.497      C891.818,1365.33,890.859,1366.624,890.859,1366.624z M894.382,1340.976c0.745,0.032,1.496-0.125,2.258-0.464      c0.753-0.339,1.538-0.859,2.368-1.553c0,0,1.197-1.025,2.393-2.049c1.196-0.992,2.391-1.985,2.391-1.985      c0.8-0.674,1.412-1.343,1.837-2.019c0.451-0.674,0.729-1.355,0.816-2.057c0.178-1.406-0.381-2.885-1.675-4.526      c0,0-0.99-1.242-1.878-2.506c-0.906-1.282-1.813-2.563-1.813-2.563c-1.256-1.713-2.586-2.749-4.053-3.028      c-1.466-0.281-2.79,0.667-3.939,2.841c-1.19,2.166-1.822,4.881-2.228,7.98c-0.097,0.778-0.171,1.535-0.215,2.27      c-0.014,0.737-0.004,1.453,0.033,2.144c0.073,1.383,0.248,2.672,0.531,3.857      C891.756,1339.748,892.894,1340.914,894.382,1340.976z"
/>
<path
   style="fill:#FFA227;"
   d="M965.785,1201.284c0.477-0.113,0.913-0.181,1.326-0.226l3.695,6.386c0,0-0.456,1.552-0.912,3.104      c-0.221,0.773-0.438,1.536-0.581,2.135c-0.146,0.59-0.244,0.984-0.244,0.984s-0.352,1.568-0.705,3.135      c-0.324,1.551-0.648,3.103-0.648,3.103s-0.081,0.384-0.203,0.96c-0.118,0.579-0.285,1.328-0.415,2.119      c-0.26,1.554-0.52,3.108-0.52,3.108s-0.222,1.528-0.444,3.056c-0.195,1.51-0.391,3.02-0.391,3.02s-0.044,0.378-0.093,0.96      c-0.048,0.577-0.112,1.346-0.176,2.115c-0.106,1.521-0.211,3.042-0.211,3.042s-0.099,1.498-0.198,2.995      c-0.047,0.739-0.079,1.485-0.088,2.058c-0.013,0.565-0.021,0.942-0.021,0.942s0,1.496,0.001,2.992      c0.024,1.474,0.049,2.949,0.049,2.949c0.01,1.912-0.353,3.341-1.282,4.222c-0.892,0.852-2.31,1.161-4.273,0.986      c0,0-1.463-0.102-2.926-0.205c-1.486-0.079-2.973-0.159-2.973-0.159s-1.507-0.038-3.014-0.075      c-0.766-0.02-1.509-0.007-2.07,0.002c-0.563,0.01-0.938,0.017-0.938,0.017s-1.517,0.024-3.034,0.049      c-1.538,0.049-3.076,0.098-3.076,0.098s-0.387,0.021-0.969,0.053c-0.589,0.028-1.353,0.088-2.114,0.159      c-1.539,0.15-3.078,0.301-3.078,0.301s-1.55,0.166-3.1,0.331c-0.783,0.094-1.566,0.188-2.153,0.258      c-0.594,0.071-0.976,0.132-0.976,0.132s-1.559,0.239-3.119,0.479c-1.577,0.267-3.154,0.533-3.154,0.533      s-1.591,0.314-3.183,0.629c-0.809,0.157-1.573,0.355-2.168,0.492c-0.59,0.143-0.983,0.238-0.983,0.238      c-2.095,0.497-3.784,0.368-5.08-0.459c-1.25-0.795-1.507-2.436-0.788-4.916c0.742-2.461,2.142-5.045,4.06-7.741      c0,0,0.131-0.193,0.404-0.535c0.269-0.345,0.664-0.85,1.166-1.493c1.018-1.276,2.422-3.141,4.213-5.289      c3.627-4.257,8.572-9.862,14.061-14.922c0.676-0.642,1.353-1.284,2.027-1.923c0.675-0.638,1.39-1.227,2.077-1.835      c1.389-1.201,2.756-2.383,4.079-3.526c1.345-1.117,2.69-2.143,3.946-3.14c1.27-0.978,2.436-1.949,3.581-2.755      c2.281-1.622,4.183-2.974,5.513-3.92c0.66-0.481,1.216-0.805,1.578-1.049c0.368-0.237,0.564-0.364,0.564-0.364      C960.604,1203.122,963.247,1201.822,965.785,1201.284z M952.266,1225.635c-0.472-0.578-1.105-0.915-1.912-0.996      c-0.793-0.065-1.747,0.137-2.872,0.612c-2.278,1.007-4.606,2.48-6.876,4.712c-1.13,1.076-2.135,2.157-2.999,3.235      c-0.839,1.103-1.515,2.225-2.055,3.32c-1.065,2.207-1.038,3.828,0.063,4.835c1.1,1.008,2.729,1.459,4.9,1.41      c0,0,1.565-0.023,3.131-0.047c1.544,0,3.088,0.001,3.088,0.001c2.093,0.061,3.628-0.377,4.644-1.347      c1.059-1.003,1.556-2.54,1.668-4.576c0,0,0.082-1.549,0.164-3.098c0.107-1.569,0.214-3.138,0.214-3.138      C953.546,1228.4,953.212,1226.794,952.266,1225.635z"
/>
<path
   style="fill:#E0486C;"
   d="M964.601,1413.776c-1.561-0.803-2.924-0.841-4.148,0.042c-1.21,0.875-2.092,2.191-2.615,4.039      c0,0-0.105,0.342-0.241,0.846c-0.138,0.51-0.321,1.189-0.504,1.869c-0.351,1.382-0.703,2.764-0.703,2.764s-0.322,1.4-0.643,2.8      c-0.16,0.71-0.307,1.418-0.399,1.938c-0.097,0.526-0.162,0.877-0.162,0.877s-0.238,1.43-0.476,2.859      c-0.218,1.455-0.435,2.91-0.435,2.91s-0.056,0.368-0.139,0.92c-0.084,0.555-0.192,1.297-0.269,2.021      c-0.158,1.472-0.316,2.945-0.316,2.945s-0.117,1.495-0.234,2.991c-0.094,1.518-0.188,3.037-0.188,3.037      s-0.056,1.509-0.112,3.017c-0.033,1.531-0.065,3.062-0.065,3.062s0.001,1.543,0.002,3.086c0,0.784,0.03,1.545,0.054,2.118      c0.025,0.576,0.041,0.96,0.041,0.96s0.092,1.558,0.185,3.116c0.118,1.578,0.235,3.157,0.235,3.157s0.029,0.398,0.072,0.996      c0.039,0.605,0.114,1.391,0.201,2.174c0.181,1.582,0.362,3.164,0.362,3.164c0.274,2.109,1.039,3.669,2.307,4.631      c1.248,0.893,2.95,1.196,5.05,0.856c0,0,1.566-0.276,3.133-0.551c0.77-0.133,1.567-0.318,2.15-0.44      c0.584-0.128,0.974-0.214,0.974-0.214s1.545-0.335,3.09-0.671c1.518-0.354,3.036-0.708,3.036-0.708s1.483-0.351,2.984-0.798      c1.478-0.438,2.955-0.876,2.955-0.876l9.004-15.563c0,0-1.028,0.38-2.569,0.95c-1.572,0.59-3.619,1.218-5.752,1.863      c-2.117,0.627-4.317,1.261-5.946,1.652c-1.641,0.381-2.735,0.635-2.735,0.635c-1.958,0.439-3.519,0.238-4.629-0.552      c-1.125-0.856-1.753-2.31-1.891-4.312c0,0-0.068-1.123-0.169-2.807c-0.021-0.417-0.043-0.869-0.066-1.346      c-0.01-0.486-0.02-0.999-0.031-1.53c-0.017-1.058-0.025-2.178-0.023-3.289c0.014-2.234,0.031-4.376,0.137-6.041      c0.107-1.643,0.178-2.738,0.178-2.738c0.141-1.929,0.757-3.402,1.789-4.465c1.072-1.102,2.457-1.305,4.231-0.633      c0.438,0.159,0.872,0.346,1.303,0.563c0.448,0.198,0.893,0.422,1.334,0.676c0.883,0.508,1.753,1.131,2.608,1.877      c0,0,0.161,0.14,0.442,0.385c0.273,0.255,0.701,0.573,1.203,0.968c1.005,0.788,2.346,1.84,3.686,2.891      c1.388,0.986,2.777,1.973,3.818,2.712c0.513,0.382,0.961,0.669,1.278,0.864c0.314,0.2,0.494,0.314,0.494,0.314      c1.949,1.223,3.347,2.679,4.516,4.156c0.201,0.27,0.362,0.535,0.502,0.798l5.297-9.156c0,0-0.513-0.293-1.41-0.805      c-0.457-0.243-0.984-0.584-1.586-0.979c-0.606-0.389-1.289-0.828-2.035-1.306c-1.526-0.904-3.156-2.187-4.982-3.443      c-0.226-0.16-0.454-0.321-0.684-0.484c-0.22-0.175-0.442-0.352-0.666-0.529c-0.448-0.354-0.901-0.711-1.358-1.072      c-0.458-0.359-0.921-0.72-1.385-1.083l-0.697-0.546l-0.667-0.585c-0.894-0.774-1.789-1.549-2.669-2.311      c-0.451-0.369-0.866-0.771-1.275-1.17c-0.412-0.395-0.82-0.785-1.22-1.168c-0.402-0.382-0.798-0.757-1.185-1.125      c-0.393-0.362-0.769-0.724-1.11-1.102c-0.701-0.737-1.363-1.434-1.975-2.077c-1.259-1.253-2.177-2.417-2.865-3.189      c-0.679-0.781-1.068-1.227-1.068-1.227c-0.71-0.769-1.356-1.512-2.086-2.11C966.148,1414.672,965.389,1414.174,964.601,1413.776      z"
/>
<path
   style="fill:#E0486C;"
   d="M916.346,1397.203c0,0-1.394-0.634-2.788-1.268c-1.404-0.666-2.808-1.331-2.808-1.331      s-0.708-0.341-1.771-0.854c-0.533-0.264-1.154-0.571-1.82-0.901c-0.647-0.347-1.337-0.717-2.027-1.086      c-2.764-1.496-5.562-3.134-5.562-3.134c-1.883-1.065-2.914-2.413-3.273-3.918c-0.349-1.508,0.026-3.188,1.151-4.965      c0,0,0.109-0.169,0.301-0.464c0.197-0.294,0.478-0.714,0.815-1.218c0.675-1.003,1.58-2.323,2.491-3.615      c0.911-1.293,1.828-2.558,2.518-3.494c0.338-0.467,0.661-0.859,0.868-1.129c0.213-0.271,0.335-0.426,0.335-0.426      s0.969-1.225,1.939-2.45c0.974-1.193,1.948-2.385,1.948-2.385s0.988-1.167,1.992-2.298c1.048-1.121,2.097-2.243,2.097-2.243      s0.781-0.82,1.953-2.051c0.587-0.598,1.272-1.296,2.005-2.043c0.367-0.365,0.747-0.743,1.132-1.126      c0.404-0.378,0.814-0.762,1.224-1.146c3.291-3.061,6.581-5.801,6.581-5.801s1.141-0.91,2.282-1.82      c1.14-0.878,2.279-1.756,2.279-1.756s1.151-0.834,2.301-1.669c1.129-0.822,2.341-1.601,2.341-1.601      c1.58-1.046,3.099-1.481,4.588-1.374c1.491,0.109,2.566,0.977,3.183,2.634c0.711,1.628,1.07,3.482,1.004,5.584      c0,0,0.023,0.79,0.064,2.174c0.05,1.382,0.022,3.365,0.262,5.719c0.044,0.59,0.09,1.204,0.138,1.84      c0.054,0.635,0.068,1.297,0.177,1.965c0.171,1.342,0.35,2.757,0.536,4.222c0.486,2.907,0.987,6.015,1.758,9.062      c1.447,6.114,3.456,12.081,5.286,16.425c0.201,0.554,0.435,1.068,0.663,1.555c0.222,0.489,0.434,0.953,0.632,1.388      c0.392,0.874,0.734,1.636,1.015,2.263c0.283,0.627,0.557,1.095,0.719,1.426c0.169,0.328,0.259,0.502,0.259,0.502      c0.479,0.93,0.835,1.852,1.079,2.765c0.246,0.912,0.461,1.772,0.523,2.646c0.165,1.771-0.43,3.044-1.709,3.812      c-1.281,0.766-2.82,1.056-4.676,0.821c0,0-1.41-0.183-2.82-0.365c-0.713-0.103-1.425-0.206-1.96-0.283      c-0.542-0.078-0.884-0.144-0.884-0.144s-1.395-0.278-2.789-0.556c-1.411-0.306-2.823-0.613-2.823-0.613s-1.071-0.244-2.677-0.61      c-1.606-0.383-3.679-0.971-5.82-1.599c-2.119-0.634-4.321-1.303-5.869-1.882c-1.585-0.58-2.641-0.967-2.641-0.967      s-1.427-0.538-2.855-1.076c-0.719-0.282-1.437-0.564-1.976-0.775C916.692,1397.355,916.346,1397.203,916.346,1397.203z       M927.818,1388.951c0,0,1.362,0.54,2.723,1.08c1.35,0.509,2.699,1.018,2.699,1.018c1.829,0.622,3.457,0.637,4.837,0.111      c0.719-0.274,1.252-0.718,1.614-1.321c0.181-0.302,0.319-0.644,0.416-1.025c0.108-0.385,0.188-0.815,0.226-1.282      c0.082-0.937,0.057-1.909-0.081-2.913c-0.139-1.003-0.407-2.033-0.687-3.127c0,0-0.232-0.82-0.58-2.05      c-0.176-0.615-0.382-1.332-0.602-2.1c-0.198-0.774-0.371-1.61-0.567-2.439c-0.362-1.666-0.821-3.312-0.999-4.581      c-0.224-1.26-0.373-2.1-0.373-2.1c-0.182-1.114-0.525-2.136-0.82-3.101c-0.312-0.963-0.712-1.846-1.194-2.65      c-0.951-1.608-2.169-2.383-3.691-2.231c-1.482,0.15-2.884,0.887-4.214,2.261c0,0-0.99,1.062-1.981,2.124      c-0.987,1.095-1.975,2.189-1.975,2.189s-1.022,1.103-1.948,2.227c-0.944,1.142-1.888,2.284-1.888,2.284      s-0.923,1.184-1.846,2.368c-0.459,0.606-0.918,1.211-1.262,1.666c-0.346,0.459-0.565,0.766-0.565,0.766      c-1.161,1.607-1.573,3.115-1.264,4.453c0.318,1.335,1.307,2.513,3.145,3.41c0,0,1.354,0.68,2.708,1.361      c1.345,0.649,2.69,1.297,2.69,1.297s0.337,0.153,0.843,0.383c0.507,0.227,1.168,0.531,1.872,0.813      C926.435,1388.395,927.818,1388.951,927.818,1388.951z"
/>
<path
   style="fill:#E0486C;"
   d="M916.329,1298.517c0,0-0.185-0.344-0.429-0.853c-0.247-0.515-0.577-1.201-0.907-1.888      c-0.649-1.399-1.298-2.797-1.298-2.797s-0.631-1.441-1.263-2.883c-0.644-1.463-1.188-2.922-1.188-2.922      s-0.576-1.474-1.151-2.948c-0.56-1.503-1.121-3.007-1.121-3.007c-0.354-1.007-0.561-1.958-0.544-2.813      c0.018-0.854,0.209-1.637,0.572-2.347c0.699-1.367,2.068-2.411,4.08-3.058c0,0,0.371-0.125,0.96-0.288      c0.582-0.163,1.357-0.38,2.133-0.597c1.539-0.409,3.078-0.819,3.078-0.819s1.519-0.399,3.037-0.798      c1.494-0.397,3.049-0.714,3.049-0.714s1.146-0.23,2.865-0.576c1.719-0.327,3.956-0.753,6.215-1.085      c4.585-0.643,8.981-1.022,8.981-1.022s0.366-0.033,0.935-0.062c0.562-0.029,1.311-0.067,2.061-0.105      c1.482-0.055,2.963-0.11,2.963-0.11s1.457-0.048,2.914-0.096c0.72-0.021,1.442-0.03,1.999-0.02      c0.55,0.006,0.916,0.01,0.916,0.01s2.933,0.052,5.766,0.209c0.706,0.043,1.412,0.085,2.074,0.125      c0.67,0.062,1.296,0.12,1.832,0.169c1.061,0.11,1.769,0.183,1.769,0.183c1.864,0.21,3.305,0.842,4.376,1.883      c1.069,1.041,1.321,2.441,0.767,4.089c-0.139,0.412-0.305,0.821-0.498,1.225c-0.176,0.421-0.375,0.84-0.604,1.254      c-0.457,0.828-1.025,1.638-1.713,2.425c0,0-0.13,0.148-0.373,0.427c-0.255,0.269-0.572,0.71-1,1.251      c-0.426,0.543-0.944,1.202-1.537,1.958c-0.298,0.377-0.616,0.778-0.95,1.201c-0.31,0.441-0.636,0.904-0.977,1.387      c-2.835,3.787-6.17,9.161-8.988,14.788c-2.835,5.621-5.092,11.505-6.521,15.997c-0.652,2.265-1.195,4.153-1.575,5.475      c-0.304,1.342-0.477,2.109-0.477,2.109c-0.233,1.015-0.555,1.948-0.957,2.804c-0.377,0.861-0.781,1.656-1.291,2.367      c-1.005,1.422-2.287,2.054-3.761,1.821c-1.474-0.236-2.838-1.009-4.102-2.416c0,0-0.962-1.046-1.925-2.092      c-0.479-0.537-0.959-1.073-1.319-1.476c-0.356-0.408-0.594-0.68-0.594-0.68s-0.89-1.098-1.781-2.195      c-0.885-1.13-1.77-2.26-1.77-2.26s-0.876-1.173-1.753-2.346c-0.445-0.597-0.867-1.195-1.166-1.643      c-0.307-0.451-0.511-0.752-0.511-0.752s-0.829-1.217-1.659-2.434c-0.821-1.249-1.642-2.498-1.642-2.498s-0.2-0.319-0.499-0.798      c-0.295-0.48-0.708-1.13-1.068-1.771c-0.737-1.305-1.474-2.61-1.474-2.61s-0.744-1.329-1.488-2.657      C917.063,1299.876,916.329,1298.517,916.329,1298.517z M933.225,1304.665c1.014,1.667,2.237,2.71,3.637,3.196      c1.469,0.509,2.729,0.046,4.047-1.333c0.669-0.664,1.277-1.421,1.82-2.276c0.271-0.428,0.527-0.88,0.765-1.357      c0.23-0.481,0.467-0.977,0.712-1.488c0,0,0.351-0.774,0.878-1.935c0.261-0.582,0.566-1.26,0.893-1.987      c0.314-0.733,0.743-1.47,1.12-2.233c0.387-0.757,0.774-1.514,1.137-2.224c0.18-0.355,0.355-0.699,0.52-1.025      c0.183-0.317,0.355-0.616,0.515-0.892c0.637-1.106,1.063-1.843,1.063-1.843c0.588-0.989,0.983-1.992,1.378-2.922      c0.378-0.939,0.638-1.874,0.796-2.818c0.297-1.848-0.151-3.181-1.409-4.038c-1.233-0.838-2.796-1.193-4.693-0.981      c0,0-1.08,0.126-2.699,0.316c-0.82,0.109-1.776,0.236-2.8,0.373c-1.036,0.142-2.139,0.31-3.21,0.514      c-2.164,0.392-4.362,0.84-6.026,1.201c-0.834,0.186-1.529,0.34-2.016,0.448c-0.49,0.11-0.754,0.185-0.754,0.185      c-1.93,0.493-3.217,1.382-3.838,2.595c-0.322,0.629-0.474,1.333-0.454,2.108c0.022,0.776,0.266,1.647,0.657,2.576      c0,0,0.453,1.039,1.133,2.597c0.347,0.763,0.752,1.654,1.186,2.608c0.432,0.942,0.908,1.938,1.433,2.94      c1.023,1.994,2.07,3.927,2.864,5.348c0.399,0.705,0.731,1.293,0.964,1.705C933.073,1304.428,933.225,1304.665,933.225,1304.665z      "
/>
<path
   style="fill:#E0486C;"
   d="M978.163,1262.537c0.978,1.127,2.355,1.452,4.018,0.979c1.716-0.414,3.415-1.227,5.061-2.524      c0,0,0.645-0.455,1.612-1.137c0.482-0.344,1.044-0.744,1.646-1.174c0.301-0.215,0.612-0.437,0.928-0.663      c0.328-0.208,0.661-0.419,0.994-0.63c1.336-0.837,2.644-1.72,3.657-2.329c1.027-0.586,1.711-0.976,1.711-0.976l-5.296-9.154      c-1.364-0.042-2.39-0.564-3.038-1.645c-0.761-1.271-1.012-2.846-0.67-4.764l-9.004-15.562c0,0-0.128,0.559-0.351,1.539      c-0.209,0.991-0.542,2.333-0.832,4.048c-0.303,1.696-0.629,3.657-0.932,5.728c-0.15,1.039-0.304,2.091-0.432,3.18      c-0.118,1.103-0.227,2.215-0.324,3.319c-0.193,2.212-0.352,4.373-0.442,6.398c-0.063,2.063-0.083,3.956-0.079,5.56      c0.006,1.607,0.023,2.912,0.059,3.843c0.048,0.937,0.075,1.472,0.075,1.472C976.627,1259.933,977.186,1261.408,978.163,1262.537      z"
/>
<path
   style="fill:#00BF33;"
   d="M987.474,1445.788c0,0-0.18-0.114-0.494-0.314c-0.317-0.196-0.765-0.483-1.278-0.864      c-1.041-0.74-2.43-1.726-3.818-2.712c-1.34-1.051-2.681-2.102-3.686-2.891c-0.502-0.395-0.93-0.713-1.203-0.968      c-0.281-0.245-0.442-0.385-0.442-0.385c-0.856-0.746-1.725-1.369-2.608-1.877c-0.442-0.254-0.887-0.479-1.334-0.676      c-0.431-0.216-0.865-0.404-1.303-0.563c-1.773-0.672-3.158-0.469-4.231,0.633c-1.032,1.063-1.648,2.536-1.789,4.465      c0,0-0.071,1.095-0.178,2.738c-0.106,1.665-0.123,3.807-0.137,6.041c-0.003,1.111,0.006,2.231,0.023,3.289      c0.011,0.53,0.021,1.043,0.031,1.53c0.023,0.478,0.045,0.929,0.066,1.346c0.101,1.684,0.169,2.807,0.169,2.807      c0.138,2.002,0.766,3.456,1.891,4.312c1.11,0.79,2.671,0.992,4.629,0.552c0,0,1.094-0.254,2.735-0.635      c1.629-0.392,3.829-1.025,5.946-1.652c2.133-0.645,4.18-1.273,5.752-1.863c1.542-0.57,2.569-0.95,2.569-0.95l3.707-6.407      c-0.141-0.263-0.301-0.529-0.502-0.798C990.821,1448.466,989.423,1447.011,987.474,1445.788z"
/>
<path
   style="fill:#00BF33;"
   d="M938.076,1391.159c0.719-0.274,1.252-0.718,1.614-1.321c0.181-0.302,0.319-0.644,0.416-1.025      c0.108-0.385,0.188-0.815,0.226-1.282c0.082-0.937,0.057-1.909-0.081-2.913c-0.139-1.003-0.407-2.033-0.687-3.127      c0,0-0.232-0.82-0.58-2.05c-0.176-0.615-0.382-1.332-0.602-2.1c-0.198-0.774-0.371-1.61-0.567-2.439      c-0.362-1.666-0.821-3.312-0.999-4.581c-0.224-1.26-0.373-2.1-0.373-2.1c-0.182-1.114-0.525-2.136-0.82-3.101      c-0.312-0.963-0.712-1.846-1.194-2.65c-0.951-1.608-2.169-2.383-3.691-2.231c-1.482,0.15-2.884,0.887-4.214,2.261      c0,0-0.99,1.062-1.981,2.124c-0.987,1.095-1.975,2.189-1.975,2.189s-1.022,1.103-1.948,2.227      c-0.944,1.142-1.888,2.284-1.888,2.284s-0.923,1.184-1.846,2.368c-0.459,0.606-0.918,1.211-1.262,1.666      c-0.346,0.459-0.565,0.766-0.565,0.766c-1.161,1.607-1.573,3.115-1.264,4.453c0.318,1.335,1.307,2.513,3.145,3.41      c0,0,1.354,0.68,2.708,1.361c1.345,0.649,2.69,1.297,2.69,1.297s0.337,0.153,0.843,0.383c0.507,0.227,1.168,0.531,1.872,0.813      c1.382,0.555,2.765,1.11,2.765,1.11s1.362,0.54,2.723,1.08c1.35,0.509,2.699,1.018,2.699,1.018      C935.069,1391.67,936.697,1391.685,938.076,1391.159z"
/>
<path
   style="fill:#00BF33;"
   d="M936.862,1307.862c1.469,0.509,2.729,0.046,4.047-1.333c0.669-0.664,1.277-1.421,1.82-2.276      c0.271-0.428,0.527-0.88,0.765-1.357c0.23-0.481,0.467-0.977,0.712-1.488c0,0,0.351-0.774,0.878-1.935      c0.261-0.582,0.566-1.26,0.893-1.987c0.314-0.733,0.743-1.47,1.12-2.233c0.387-0.757,0.774-1.514,1.137-2.224      c0.18-0.355,0.355-0.699,0.52-1.025c0.183-0.317,0.355-0.616,0.515-0.892c0.637-1.106,1.063-1.843,1.063-1.843      c0.588-0.989,0.983-1.992,1.378-2.922c0.378-0.939,0.638-1.874,0.796-2.818c0.297-1.848-0.151-3.181-1.409-4.038      c-1.233-0.838-2.796-1.193-4.693-0.981c0,0-1.08,0.126-2.699,0.316c-0.82,0.109-1.776,0.236-2.8,0.373      c-1.036,0.142-2.139,0.31-3.21,0.514c-2.164,0.392-4.362,0.84-6.026,1.201c-0.834,0.186-1.529,0.34-2.016,0.448      c-0.49,0.11-0.754,0.185-0.754,0.185c-1.93,0.493-3.217,1.382-3.838,2.595c-0.322,0.629-0.474,1.333-0.454,2.108      c0.022,0.776,0.266,1.647,0.657,2.576c0,0,0.453,1.039,1.133,2.597c0.347,0.763,0.752,1.654,1.186,2.608      c0.432,0.942,0.908,1.938,1.433,2.94c1.023,1.994,2.07,3.927,2.864,5.348c0.399,0.705,0.731,1.293,0.964,1.705      c0.229,0.406,0.381,0.644,0.381,0.644C934.239,1306.333,935.462,1307.375,936.862,1307.862z"
/>
<path
   style="fill:#00BF33;"
   d="M992.493,1244.93l-3.708-6.409c-0.343,1.918-0.091,3.493,0.67,4.764      C990.104,1244.366,991.13,1244.888,992.493,1244.93z"
/>
<path
   style="fill:#FFA227;"
   d="M967.112,1201.058l3.695,6.386c0.612-2.074,0.578-3.774-0.173-5.116      C970.049,1201.282,968.868,1200.868,967.112,1201.058z"
/>
<path
   style="fill:#FFA227;"
   d="M1040.479,1217.662c0,0-0.528-0.524-1.321-1.309c-0.802-0.806-1.877-1.78-2.984-2.775      c-2.204-1.985-4.553-3.952-4.553-3.952s-1.167-1.013-2.355-1.928c-1.206-0.933-2.412-1.867-2.412-1.867      s-1.249-0.911-2.498-1.822c-0.638-0.453-1.276-0.905-1.755-1.245c-0.483-0.341-0.806-0.557-0.806-0.557      s-3.822-2.577-7.961-5.067c-2.059-1.243-4.15-2.347-5.759-3.218c-1.621-0.85-2.701-1.416-2.701-1.416      c-0.968-0.499-1.757-1.049-2.361-1.657c-0.599-0.593-1.017-1.251-1.248-1.985c-0.451-1.427,0.349-2.826,2.575-4.222      c2.16-1.39,4.86-2.617,8.102-3.315c0,0,0.911-0.21,2.505-0.577c0.799-0.175,1.763-0.419,2.88-0.637      c1.12-0.203,2.385-0.431,3.763-0.68c1.38-0.243,2.874-0.518,4.457-0.777c1.591-0.205,3.269-0.421,5.005-0.645      c3.468-0.506,7.193-0.705,10.911-0.997c0.93-0.083,1.86-0.107,2.787-0.13c0.927-0.025,1.85-0.05,2.766-0.074      c0.916-0.022,1.825-0.044,2.723-0.065c0.898-0.021,1.785-0.048,2.657-0.014c1.745,0.043,3.431,0.084,5.031,0.123      c0.8,0.023,1.577,0.045,2.33,0.066c0.752,0.02,1.478,0.097,2.176,0.14c2.789,0.214,5.113,0.393,6.739,0.518      c1.621,0.196,2.548,0.308,2.548,0.308c3.271,0.425,6.131,1.126,8.423,2.348c2.303,1.16,3.323,2.464,3.044,3.919      c-0.287,1.511-1.366,2.832-3.214,4.019c0,0-1.332,0.898-2.665,1.796c-1.315,0.88-2.608,1.863-2.608,1.863      s-1.278,0.976-2.555,1.952c-1.245,0.982-2.491,1.964-2.491,1.964s-1.243,0.964-2.451,1.948      c-1.198,1.027-2.395,2.055-2.395,2.055s-0.869,0.777-2.171,1.943c-0.634,0.585-1.374,1.267-2.167,1.997      c-0.388,0.366-0.789,0.744-1.196,1.129c-0.401,0.403-0.809,0.813-1.217,1.223c-3.252,3.283-6.185,6.573-6.185,6.573      s-0.963,1.156-1.925,2.312c-0.93,1.155-1.861,2.31-1.861,2.31c-0.63,0.757-1.246,1.33-1.859,1.718      c-0.307,0.194-0.613,0.341-0.92,0.442c-0.306,0.112-0.613,0.188-0.923,0.21      C1043.141,1219.7,1041.868,1219.043,1040.479,1217.662z M1034.084,1195.749c0,0,1.243,0.965,2.452,1.946      c1.198,1.027,2.396,2.055,2.396,2.055c1.562,1.377,3.005,2.011,4.417,1.905c0.353-0.025,0.703-0.102,1.053-0.216      c0.35-0.102,0.699-0.25,1.049-0.446c0.699-0.39,1.401-0.967,2.12-1.732c0,0,1.058-1.144,2.117-2.287      c1.09-1.143,2.181-2.286,2.181-2.286c1.479-1.505,2.255-2.978,2.276-4.47c0.011-0.746-0.258-1.41-0.829-1.987      c-0.571-0.576-1.445-1.086-2.64-1.417c-1.165-0.344-2.44-0.585-3.815-0.729c-0.687-0.072-1.4-0.119-2.136-0.143      c-0.368-0.012-0.742-0.018-1.122-0.018c-0.379,0.012-0.764,0.038-1.155,0.066c-1.556,0.114-3.02,0.312-4.373,0.597      c-1.353,0.294-2.6,0.627-3.714,1.165c-2.234,1.037-3.255,2.312-3.06,3.791      C1031.493,1193.022,1032.448,1194.405,1034.084,1195.749z"
/>
<path
   style="fill:#FFA227;"
   d="M1116.12,1198.952c-0.875-2.05-1.079-3.684-0.485-5.116c0.566-1.371,2.154-1.948,4.691-1.593      c2.536,0.345,5.419,1.115,8.334,2.665c0,0,0.831,0.426,2.286,1.171c0.726,0.376,1.607,0.832,2.618,1.356      c0.988,0.565,2.102,1.202,3.318,1.898c1.212,0.703,2.524,1.464,3.912,2.269c1.352,0.864,2.778,1.775,4.252,2.717      c0.735,0.474,1.483,0.956,2.24,1.444c0.752,0.495,1.485,1.037,2.238,1.563c1.496,1.066,3.016,2.149,4.535,3.233      c5.935,4.522,11.663,9.32,15.658,13.24c1.011,0.967,1.937,1.853,2.758,2.639c0.819,0.787,1.483,1.525,2.054,2.108      c1.127,1.181,1.771,1.855,1.771,1.855c2.318,2.361,3.891,4.868,4.934,7.207c0.541,1.194,0.793,2.189,0.761,3.005      c-0.048,0.83-0.366,1.468-0.94,1.937c-1.195,0.974-2.826,1.275-5.005,1.058c0,0-1.214-0.118-3.035-0.296      c-1.821-0.156-4.181-0.373-6.576-0.472c-4.822-0.193-9.431-0.142-9.431-0.142s-1.565,0.049-3.131,0.098      c-1.542,0.072-3.085,0.144-3.085,0.144s-1.519,0.114-3.039,0.228c-0.747,0.055-1.516,0.144-2.088,0.211      c-0.57,0.067-0.95,0.112-0.95,0.112s-3.038,0.342-5.966,0.778c-1.455,0.2-2.936,0.477-4.033,0.69      c-1.091,0.215-1.818,0.359-1.818,0.359c-1.916,0.384-3.327,0.213-4.314-0.542c-1.014-0.718-1.578-2.041-1.788-4.009      c0,0-0.135-1.484-0.269-2.968c-0.067-0.756-0.174-1.468-0.242-2.023c-0.074-0.551-0.124-0.918-0.124-0.918      s-0.167-1.106-0.418-2.765c-0.14-0.839-0.304-1.818-0.479-2.867c-0.182-1.059-0.39-2.189-0.636-3.285      c-0.476-2.214-1.009-4.461-1.434-6.16c-0.218-0.852-0.399-1.562-0.526-2.059c-0.129-0.502-0.214-0.771-0.214-0.771      s-0.453-1.488-0.906-2.975c-0.483-1.502-0.966-3.004-0.966-3.004s-0.494-1.521-0.988-3.043      c-0.251-0.771-0.533-1.494-0.737-2.061c-0.209-0.56-0.348-0.934-0.348-0.934s-0.582-1.49-1.165-2.979      C1116.733,1200.453,1116.12,1198.952,1116.12,1198.952z M1136.591,1214.881c-0.803,1.258-0.968,2.925-0.568,5.009      c0,0,0.078,0.382,0.196,0.956c0.112,0.578,0.276,1.32,0.401,2.107c0.249,1.546,0.499,3.092,0.499,3.092      c0.35,2.08,1.061,3.495,2.214,4.317c1.126,0.858,2.667,1.143,4.725,0.858c0,0,1.562-0.192,3.123-0.384      c0.79-0.095,1.578-0.176,2.158-0.218c0.586-0.047,0.977-0.078,0.977-0.078c2.101-0.217,3.658-0.843,4.634-1.972      c0.978-1.127,0.83-2.757-0.456-4.858c-1.345-2.026-3.311-4.018-5.783-5.927c-2.556-1.814-4.99-3.163-7.337-3.844      C1138.946,1213.269,1137.393,1213.623,1136.591,1214.881z"
/>
<path
   style="fill:#FFA227;"
   d="M1221.836,1346.579c-0.131,0.468-0.281,0.878-0.44,1.256h-7.378c0,0-1.144-1.169-2.287-2.338      c-1.145-1.137-2.291-2.273-2.291-2.273s-1.16-1.09-2.32-2.179c-1.14-1.076-2.368-2.113-2.368-2.113s-1.198-1.038-2.396-2.076      c-1.197-1.005-2.393-2.011-2.393-2.011s-1.194-0.96-2.387-1.919c-1.24-0.923-2.481-1.846-2.481-1.846s-1.253-0.889-2.505-1.778      c-1.249-0.856-2.497-1.713-2.497-1.713s-1.213-0.86-2.513-1.669c-1.277-0.798-2.554-1.597-2.554-1.597s-1.283-0.752-2.565-1.503      c-0.639-0.362-1.277-0.725-1.756-0.996c-0.481-0.265-0.802-0.442-0.802-0.442c-1.737-0.933-2.75-1.97-3.037-3.216      c-0.286-1.199,0.209-2.593,1.265-4.183c0,0,0.829-1.217,1.659-2.434c0.821-1.249,1.642-2.498,1.642-2.498      s0.199-0.319,0.499-0.799c0.296-0.48,0.706-1.13,1.067-1.771c0.737-1.305,1.474-2.61,1.474-2.61s0.744-1.329,1.488-2.657      c0.733-1.36,1.466-2.72,1.466-2.72s0.182-0.347,0.424-0.861c0.245-0.52,0.573-1.213,0.9-1.905      c0.644-1.411,1.288-2.823,1.288-2.823s0.636-1.429,1.272-2.858c0.649-1.45,1.197-2.897,1.197-2.897s0.576-1.474,1.151-2.948      c0.561-1.503,1.121-3.007,1.121-3.007s0.133-0.382,0.332-0.956c0.191-0.572,0.477-1.354,0.704-2.115      c0.465-1.546,0.93-3.093,0.93-3.093c0.619-2.068,1.576-3.47,2.94-4.181c1.312-0.687,2.859-0.089,4.641,1.778      c0.444,0.467,0.897,0.962,1.31,1.508c0.408,0.549,0.805,1.133,1.193,1.753c0.774,1.239,1.505,2.619,2.183,4.131      c0,0,0.095,0.213,0.275,0.613c0.188,0.396,0.428,0.992,0.727,1.753c0.599,1.522,1.455,3.697,2.483,6.306      c0.481,1.317,0.954,2.761,1.474,4.281c0.5,1.527,1.087,3.119,1.574,4.802c0.48,1.686,0.976,3.428,1.48,5.198      c0.239,0.888,0.522,1.773,0.726,2.682c0.212,0.907,0.424,1.817,0.637,2.727c0.414,1.823,0.857,3.64,1.225,5.442      c0.326,1.81,0.646,3.592,0.956,5.316c0.151,0.863,0.3,1.711,0.446,2.541c0.111,0.835,0.219,1.652,0.325,2.447      c0.202,1.592,0.393,3.096,0.569,4.485c0.082,0.695,0.178,1.36,0.236,1.995c0.05,0.635,0.098,1.238,0.143,1.804      c0.087,1.133,0.163,2.121,0.226,2.934c0.12,1.627,0.189,2.557,0.189,2.557c0.029,0.411,0.055,0.816,0.067,1.215      c0,0.4-0.007,0.794-0.02,1.181c-0.026,0.776-0.079,1.528-0.156,2.253C1222.439,1344.002,1222.185,1345.35,1221.836,1346.579z       M1207.532,1322.693c1.474-0.235,2.4-1.518,2.729-3.95c0.145-1.241,0.213-2.555,0.104-3.936      c-0.129-1.378-0.374-2.836-0.734-4.388c-0.654-3.06-1.805-5.633-3.146-7.672c-0.681-1.017-1.374-1.725-2.075-2.12      c-0.703-0.395-1.438-0.471-2.145-0.248c-0.712,0.224-1.362,0.631-1.958,1.218c-0.61,0.591-1.178,1.366-1.704,2.32      c0,0-0.771,1.371-1.542,2.742c-0.781,1.34-1.562,2.68-1.562,2.68c-1.021,1.762-1.462,3.323-1.137,4.691      c0.328,1.422,1.368,2.633,3.151,3.734c0,0,0.324,0.209,0.809,0.523c0.483,0.321,1.127,0.748,1.771,1.176      c1.292,0.882,2.585,1.765,2.585,1.765C1204.453,1322.42,1206.059,1322.929,1207.532,1322.693z"
/>
<path
   style="fill:#E0486C;"
   d="M1038.355,1239.304c1.478-0.935,2.183-2.193,2.036-3.668c-0.151-1.495-0.843-2.889-2.174-4.224      c0,0-0.988-1.014-1.976-2.027c-1.021-1.011-2.042-2.023-2.042-2.023s-1.037-1.018-2.094-1.94      c-1.075-0.941-2.15-1.882-2.15-1.882s-1.119-0.935-2.238-1.87c-0.573-0.465-1.146-0.931-1.576-1.28      c-0.435-0.344-0.725-0.574-0.725-0.574s-1.165-0.891-2.329-1.781c-1.197-0.884-2.394-1.768-2.394-1.768s-1.238-0.86-2.476-1.721      c-0.629-0.437-1.258-0.847-1.731-1.141c-0.476-0.3-0.792-0.5-0.792-0.5s-1.281-0.812-2.561-1.624      c-1.312-0.803-2.624-1.605-2.624-1.605s-0.332-0.196-0.83-0.489c-0.499-0.29-1.174-0.693-1.841-1.046      c-1.355-0.721-2.711-1.442-2.711-1.442s-1.399-0.705-2.798-1.411c-1.43-0.693-2.859-1.387-2.859-1.387s-0.36-0.181-0.894-0.421      c-0.54-0.244-1.259-0.568-1.979-0.893c-1.465-0.638-2.93-1.277-2.93-1.277c-0.985-0.413-1.912-0.647-2.776-0.704      c-0.432-0.027-0.85-0.015-1.25,0.05c-0.395,0.075-0.774,0.195-1.138,0.358c-1.401,0.63-2.517,1.947-3.275,3.93      c0,0-0.139,0.374-0.348,0.934c-0.203,0.567-0.486,1.289-0.736,2.062c-0.494,1.521-0.988,3.043-0.988,3.043      s-0.483,1.502-0.965,3.004c-0.453,1.488-0.906,2.975-0.906,2.975s-0.111,0.362-0.256,0.934      c-0.144,0.565-0.336,1.319-0.527,2.073c-0.36,1.495-0.719,2.989-0.719,2.989l9.004,15.563c0,0,0.185-1.077,0.462-2.692      c0.147-0.81,0.321-1.768,0.527-2.786c0.218-0.996,0.461-2.065,0.717-3.141c0.51-2.151,1.078-4.332,1.531-5.982      c0.466-1.62,0.813-2.687,0.813-2.687c0.599-1.909,1.556-3.155,2.798-3.716c0.322-0.146,0.66-0.248,1.014-0.306      c0.359-0.047,0.736-0.043,1.127,0.002c0.783,0.09,1.628,0.358,2.532,0.803c0,0,1.008,0.506,2.521,1.266      c0.74,0.387,1.603,0.838,2.528,1.321c0.926,0.519,1.903,1.077,2.865,1.64c1.926,1.125,3.79,2.269,5.159,3.135      c0.682,0.424,1.261,0.835,1.656,1.097c0.396,0.271,0.622,0.425,0.622,0.425c1.601,1.099,2.57,2.375,2.973,3.8      c0.417,1.48-0.1,2.772-1.57,3.952c-1.412,1.23-3.156,2.276-5.307,2.982c0,0-0.203,0.063-0.547,0.206      c-0.346,0.137-0.839,0.334-1.432,0.569c-0.593,0.234-1.285,0.506-2.026,0.798c-0.74,0.294-1.541,0.581-2.307,0.954      c-1.55,0.7-3.099,1.399-4.262,1.924c-1.136,0.581-1.893,0.968-1.893,0.968c-1.023,0.526-2.016,0.922-2.997,1.204      c-0.979,0.285-1.903,0.534-2.856,0.635c-0.335,0.038-0.646,0.043-0.945,0.033l5.297,9.156c0,0,0.511-0.295,1.406-0.811      c0.877-0.551,2.205-1.194,3.779-2.003c3.123-1.674,7.476-3.504,11.876-5.192c1.117-0.375,2.234-0.751,3.333-1.121      c0.55-0.183,1.09-0.384,1.633-0.552c0.548-0.153,1.089-0.304,1.621-0.452c1.062-0.304,2.089-0.598,3.062-0.876      c0.979-0.259,1.92-0.443,2.78-0.65c0.861-0.201,1.65-0.386,2.349-0.55c0.698-0.173,1.323-0.242,1.829-0.343      c1.016-0.18,1.597-0.283,1.597-0.283c1.029-0.167,1.968-0.5,2.859-0.784C1036.801,1240.163,1037.615,1239.773,1038.355,1239.304      z"
/>
<path
   style="fill:#E0486C;"
   d="M1076.883,1205.826c0,0,1.249-0.911,2.497-1.822c0.638-0.453,1.276-0.905,1.754-1.245      c0.484-0.335,0.806-0.559,0.806-0.559s2.557-1.72,5.255-3.403c1.345-0.842,2.718-1.678,3.76-2.297      c1.04-0.583,1.733-0.971,1.733-0.971c1.844-1.031,3.545-1.318,5.033-0.893c1.497,0.399,2.748,1.618,3.713,3.52      c0,0,1.478,2.871,2.816,5.701c0.666,1.437,1.286,2.91,1.747,3.99c0.452,1.084,0.753,1.807,0.753,1.807s0.586,1.432,1.172,2.864      c0.58,1.407,1.09,2.888,1.09,2.888s0.488,1.461,0.975,2.922c0.458,1.448,0.915,2.896,0.915,2.896s0.347,1.069,0.814,2.686      c0.453,1.649,1.021,3.831,1.531,5.982c0.256,1.076,0.5,2.145,0.718,3.141c0.208,1.015,0.381,1.975,0.528,2.785      c0.278,1.615,0.463,2.692,0.463,2.692s0.229,1.418,0.458,2.837c0.227,1.393,0.377,2.845,0.377,2.845s0.133,1.43,0.266,2.859      c0.106,1.41,0.213,2.821,0.213,2.821c0.14,1.848-0.245,3.378-1.09,4.621c-0.831,1.22-2.138,1.74-3.911,1.494      c-0.869-0.116-1.742-0.337-2.616-0.673c-0.865-0.352-1.799-0.704-2.698-1.239c0,0-0.681-0.394-1.873-1.083      c-0.585-0.366-1.343-0.719-2.194-1.159c-0.852-0.438-1.813-0.933-2.862-1.473c-4.26-2.021-10.07-4.447-16.094-6.237      c-1.516-0.407-3.013-0.89-4.515-1.257c-1.507-0.348-2.99-0.691-4.424-1.023c-2.903-0.507-5.597-1.078-7.952-1.304      c-1.171-0.149-2.245-0.286-3.197-0.408c-0.959-0.069-1.794-0.13-2.483-0.18c-1.376-0.108-2.162-0.17-2.162-0.17      c-0.523-0.051-1.03-0.101-1.523-0.15c-0.492-0.059-0.968-0.144-1.427-0.251c-0.919-0.216-1.773-0.526-2.565-0.92      c-0.812-0.413-1.419-0.845-1.826-1.401c-0.407-0.553-0.616-1.207-0.627-1.953c-0.021-1.493,0.5-2.989,1.638-4.515      c0,0,0.867-1.107,1.733-2.213c0.899-1.108,1.798-2.216,1.798-2.216s0.942-1.094,1.884-2.189      c0.958-1.115,1.945-2.142,1.945-2.142s2.922-3.147,6.167-6.279c3.198-2.99,6.717-5.931,6.717-5.931s1.167-1.015,2.355-1.93      C1075.677,1206.759,1076.883,1205.826,1076.883,1205.826z M1078.324,1219.811c0,0-0.29,0.23-0.725,0.575      c-0.43,0.349-1.003,0.815-1.576,1.28c-1.119,0.935-2.237,1.87-2.237,1.87c-1.45,1.257-2.269,2.625-2.503,4.087      c-0.241,1.518,0.465,2.766,2.015,3.794c0.774,0.527,1.639,0.945,2.575,1.337c0.931,0.417,1.945,0.754,3.045,1.006      c0,0,0.831,0.189,2.078,0.474c1.23,0.348,2.871,0.811,4.511,1.274c0.41,0.115,0.821,0.23,1.225,0.343      c0.397,0.135,0.788,0.269,1.166,0.398c0.757,0.257,1.463,0.497,2.068,0.702c1.212,0.407,2.021,0.678,2.021,0.678      c2.103,0.815,4.097,1.194,5.987,1.119c1.844,0.029,3.109-0.608,3.741-2.009c0.607-1.351,0.679-2.957,0.168-4.828      c0,0-0.389-1.428-0.846-2.784c-0.463-1.382-0.926-2.764-0.926-2.764s-0.477-1.404-0.954-2.808      c-0.251-0.707-0.503-1.414-0.691-1.945c-0.191-0.537-0.328-0.876-0.328-0.876s-0.572-1.372-1.144-2.744      c-0.603-1.383-1.206-2.766-1.206-2.766c-0.801-1.848-1.884-3.014-3.213-3.363c-1.32-0.375-2.853-0.041-4.529,1.036      c0,0-0.317,0.2-0.792,0.5c-0.472,0.293-1.102,0.706-1.731,1.142c-1.238,0.86-2.476,1.721-2.476,1.721s-1.197,0.884-2.394,1.768      C1079.488,1218.921,1078.324,1219.811,1078.324,1219.811z"
/>
<path
   style="fill:#E0486C;"
   d="M1162.328,1255.136c0,0,0.385,0.019,0.963,0.047c0.585,0.024,1.348,0.076,2.104,0.144      c1.53,0.139,3.061,0.278,3.061,0.278s1.558,0.176,3.116,0.352c0.787,0.099,1.574,0.198,2.164,0.273      c0.596,0.075,0.982,0.138,0.982,0.138s1.559,0.239,3.119,0.478c1.577,0.267,3.154,0.533,3.154,0.533      c2.106,0.384,3.629,1.23,4.469,2.585c0.83,1.291,1.046,3.001,0.597,5.071c0,0-0.088,0.388-0.219,0.97      c-0.124,0.575-0.33,1.362-0.534,2.139c-0.417,1.541-0.834,3.082-0.834,3.082s-0.416,1.518-0.831,3.036      c-0.215,0.747-0.43,1.495-0.591,2.055c-0.158,0.554-0.287,0.932-0.287,0.932s-1.472,4.498-3.098,8.707      c-0.842,2.13-1.769,4.228-2.451,5.762c-0.695,1.523-1.159,2.538-1.159,2.538s-0.612,1.332-1.324,2.667      c-0.698,1.313-1.397,2.626-1.397,2.626s-0.692,1.288-1.384,2.576c-0.351,0.631-0.701,1.262-0.964,1.735      c-0.259,0.467-0.453,0.783-0.453,0.783s-1.526,2.517-3.093,4.894c-0.787,1.194-1.559,2.353-2.179,3.221      c-0.633,0.864-1.055,1.441-1.055,1.441c-1.126,1.509-2.401,2.44-3.837,2.847c-1.436,0.405-2.766-0.077-3.896-1.38      c-1.18-1.291-2.191-2.892-2.834-4.87c0,0-0.057-0.189-0.199-0.529c-0.137-0.342-0.337-0.844-0.592-1.483      c-0.514-1.276-1.175-3.129-2.199-5.256c-0.242-0.538-0.494-1.098-0.755-1.678c-0.129-0.29-0.261-0.586-0.394-0.886      c-0.151-0.292-0.303-0.588-0.458-0.889c-0.615-1.204-1.264-2.475-1.934-3.789c-0.736-1.279-1.498-2.601-2.271-3.945      c-0.364-0.685-0.82-1.323-1.237-1.987c-0.423-0.661-0.848-1.324-1.273-1.988c-3.461-5.273-7.472-10.163-10.648-13.67      c-0.818-0.856-1.567-1.64-2.232-2.335c-0.33-0.35-0.639-0.677-0.925-0.979c-0.292-0.296-0.578-0.55-0.827-0.79      c-1.001-0.951-1.572-1.495-1.572-1.495c-1.475-1.482-2.652-2.936-3.359-4.552c-0.359-0.801-0.507-1.565-0.458-2.263      c0.039-0.685,0.291-1.325,0.762-1.903c0.94-1.153,2.329-1.987,4.16-2.348c0,0,1.381-0.298,2.761-0.597      c1.407-0.279,2.813-0.557,2.813-0.557s0.354-0.064,0.884-0.159c0.532-0.095,1.248-0.222,1.943-0.316      c1.415-0.192,2.83-0.383,2.83-0.383s1.448-0.163,2.896-0.325c1.472-0.141,2.944-0.281,2.944-0.281s1.463-0.103,2.926-0.205      c1.486-0.08,2.972-0.159,2.972-0.159s1.507-0.038,3.014-0.075c0.766-0.02,1.51-0.009,2.07,0.001      c0.563,0.01,0.938,0.017,0.938,0.017s1.517,0.024,3.034,0.049C1160.79,1255.087,1162.328,1255.136,1162.328,1255.136z       M1148.562,1266.702c-1.944,0.038-3.456,0.572-4.576,1.541c-1.162,1.007-1.437,2.371-0.852,4.167      c0.486,1.824,1.404,3.634,2.804,5.42c0,0,0.492,0.695,1.229,1.738c0.371,0.52,0.803,1.127,1.266,1.777      c0.232,0.325,0.471,0.661,0.714,1.002c0.225,0.353,0.453,0.712,0.682,1.072c0.907,1.44,1.855,2.856,2.514,3.948      c0.634,1.108,1.056,1.846,1.056,1.846c0.572,0.998,1.193,1.87,1.86,2.643c0.62,0.798,1.294,1.492,2.029,2.101      c1.44,1.185,2.821,1.459,4.204,0.79c1.333-0.647,2.407-1.818,3.183-3.575c0,0,0.432-1,1.081-2.501      c0.643-1.516,1.498-3.58,2.216-5.645c0.746-2.076,1.461-4.208,1.981-5.834c0.266-0.815,0.471-1.494,0.6-1.961      c0.134-0.473,0.211-0.743,0.211-0.743c0.541-1.923,0.418-3.486-0.317-4.633c-0.741-1.205-2.166-1.908-4.173-2.151      c0,0-1.123-0.128-2.807-0.32c-0.832-0.082-1.803-0.178-2.843-0.28c-1.032-0.095-2.177-0.148-3.285-0.209      c-2.231-0.115-4.421-0.181-6.044-0.207c-0.805-0.02-1.496-0.01-1.979-0.001      C1148.836,1266.697,1148.562,1266.702,1148.562,1266.702z"
/>
<path
   style="fill:#E0486C;"
   d="M1162.631,1326.594c-1.465,0.281-2.449,1.31-2.898,2.987c-0.396,1.671-0.644,3.562-0.357,5.635      c0,0,0.026,0.195,0.07,0.537c0.034,0.343,0.136,0.827,0.161,1.42c0.089,1.181,0.209,2.757,0.328,4.332      c0.088,0.785,0.067,1.58,0.092,2.322c0.018,0.742,0.036,1.435,0.05,2.028c0.036,1.187,0.059,1.979,0.059,1.979h10.575      c0.681-1.163,1.627-1.791,2.887-1.81c1.481-0.021,2.989,0.551,4.517,1.81h17.979c0,0-1.725-1.594-4.31-3.821      c-1.305-1.112-2.773-2.38-4.439-3.681c-1.684-1.3-3.477-2.636-5.264-3.915c-0.897-0.639-1.776-1.267-2.67-1.867      c-0.914-0.599-1.811-1.175-2.677-1.72c-1.733-1.091-3.342-2.06-4.715-2.863c-1.355-0.806-2.594-1.428-3.405-1.866      c-0.826-0.429-1.299-0.674-1.299-0.674C1165.646,1326.571,1164.098,1326.315,1162.631,1326.594z"
/>
<path
   style="fill:#00BF33;"
   d="M999.29,1243.056c0,0,0.757-0.387,1.893-0.968c1.162-0.525,2.712-1.224,4.262-1.924      c0.765-0.373,1.566-0.66,2.307-0.954c0.741-0.292,1.433-0.565,2.026-0.798c0.592-0.235,1.086-0.432,1.432-0.569      c0.344-0.143,0.547-0.206,0.547-0.206c2.151-0.706,3.894-1.751,5.307-2.982c1.47-1.181,1.987-2.473,1.57-3.952      c-0.404-1.425-1.372-2.702-2.973-3.8c0,0-0.226-0.155-0.622-0.425c-0.395-0.262-0.974-0.673-1.656-1.097      c-1.369-0.866-3.233-2.01-5.159-3.135c-0.962-0.563-1.938-1.121-2.865-1.64c-0.925-0.483-1.788-0.934-2.528-1.321      c-1.512-0.76-2.521-1.266-2.521-1.266c-0.904-0.446-1.749-0.713-2.532-0.803c-0.391-0.044-0.769-0.049-1.127-0.002      c-0.354,0.058-0.692,0.16-1.014,0.306c-1.242,0.561-2.199,1.806-2.798,3.716c0,0-0.347,1.068-0.813,2.687      c-0.453,1.649-1.021,3.831-1.531,5.982c-0.256,1.076-0.499,2.145-0.717,3.141c-0.206,1.017-0.38,1.976-0.527,2.786      c-0.277,1.615-0.462,2.692-0.462,2.692l3.707,6.407c0.299,0.01,0.61,0.005,0.945-0.033c0.953-0.101,1.877-0.35,2.856-0.635      C997.274,1243.978,998.267,1243.582,999.29,1243.056z"
/>
<path
   style="fill:#00BF33;"
   d="M1071.282,1227.624c-0.241,1.518,0.465,2.766,2.015,3.794c0.774,0.527,1.639,0.945,2.575,1.337      c0.931,0.417,1.945,0.754,3.045,1.006c0,0,0.831,0.189,2.078,0.474c1.23,0.348,2.871,0.811,4.511,1.274      c0.41,0.115,0.821,0.23,1.225,0.343c0.397,0.135,0.788,0.269,1.166,0.398c0.757,0.257,1.463,0.497,2.068,0.702      c1.212,0.407,2.021,0.678,2.021,0.678c2.103,0.815,4.097,1.194,5.987,1.119c1.844,0.029,3.109-0.608,3.741-2.009      c0.607-1.351,0.679-2.957,0.168-4.828c0,0-0.389-1.428-0.846-2.784c-0.463-1.382-0.926-2.764-0.926-2.764      s-0.477-1.404-0.954-2.808c-0.251-0.707-0.503-1.414-0.691-1.945c-0.191-0.537-0.328-0.876-0.328-0.876      s-0.572-1.372-1.144-2.744c-0.603-1.383-1.206-2.766-1.206-2.766c-0.801-1.848-1.884-3.014-3.213-3.363      c-1.32-0.375-2.853-0.041-4.529,1.036c0,0-0.317,0.2-0.792,0.5c-0.472,0.293-1.102,0.706-1.731,1.142      c-1.238,0.86-2.476,1.721-2.476,1.721s-1.197,0.884-2.394,1.768c-1.164,0.891-2.329,1.781-2.329,1.781s-0.29,0.23-0.725,0.575      c-0.43,0.349-1.003,0.815-1.576,1.28c-1.119,0.935-2.237,1.87-2.237,1.87      C1072.335,1224.793,1071.516,1226.161,1071.282,1227.624z"
/>
<path
   style="fill:#00BF33;"
   d="M1143.986,1268.243c-1.162,1.007-1.437,2.371-0.852,4.167c0.486,1.824,1.404,3.634,2.804,5.42      c0,0,0.492,0.695,1.229,1.738c0.371,0.52,0.803,1.127,1.266,1.777c0.232,0.325,0.471,0.661,0.714,1.002      c0.225,0.353,0.453,0.712,0.682,1.072c0.907,1.44,1.855,2.856,2.514,3.948c0.634,1.108,1.056,1.846,1.056,1.846      c0.572,0.998,1.193,1.87,1.86,2.643c0.62,0.798,1.294,1.492,2.029,2.101c1.44,1.185,2.821,1.459,4.204,0.79      c1.333-0.647,2.407-1.818,3.183-3.575c0,0,0.432-1,1.081-2.501c0.643-1.516,1.498-3.58,2.216-5.645      c0.746-2.076,1.461-4.208,1.981-5.834c0.266-0.815,0.471-1.494,0.6-1.961c0.134-0.473,0.211-0.743,0.211-0.743      c0.541-1.923,0.418-3.486-0.317-4.633c-0.741-1.205-2.166-1.908-4.173-2.151c0,0-1.123-0.128-2.807-0.32      c-0.832-0.082-1.803-0.178-2.843-0.28c-1.032-0.095-2.177-0.148-3.285-0.209c-2.231-0.115-4.421-0.181-6.044-0.207      c-0.805-0.02-1.496-0.01-1.979-0.001c-0.48,0.008-0.755,0.013-0.755,0.013      C1146.617,1266.74,1145.106,1267.274,1143.986,1268.243z"
/>
<path
   style="fill:#00BF33;"
   d="M1170.711,1347.835h7.404c-1.528-1.259-3.036-1.831-4.517-1.81      C1172.338,1346.045,1171.392,1346.673,1170.711,1347.835z"
/>
<path
   style="fill:#00BF33;"
   d="M1105.206,1354.76c1.475,0.25,3.109-0.275,4.798-1.83c0,0,1.313-1.114,2.521-2.347     c0.616-0.612,1.233-1.246,1.694-1.731c0.439-0.491,0.732-0.818,0.732-0.818s0.503-0.586,1.006-1.171     c0.502-0.604,1.003-1.208,1.003-1.208h-21.954c0,0,0.392,0.345,0.981,0.862c0.576,0.527,1.407,1.26,2.137,2.03     c0.743,0.768,1.5,1.583,2.045,2.211c0.526,0.637,0.877,1.062,0.877,1.062C1102.413,1353.483,1103.727,1354.51,1105.206,1354.76z"
/>
<path
   style="fill:#75CBEA;"
   d="M1086.884,1386.894c0.962,1.132,2.551,1.781,4.853,1.689c0,0,0.426-0.014,1.065-0.035     c0.638-0.03,1.521-0.055,2.378-0.137c0.86-0.078,1.734-0.172,2.396-0.25c0.662-0.078,1.105-0.141,1.105-0.141     s1.728-0.275,3.519-0.638c1.753-0.381,3.546-0.867,3.546-0.867s0.461-0.114,1.121-0.326c0.666-0.207,1.56-0.495,2.464-0.803     c0.913-0.3,1.793-0.65,2.465-0.915c0.673-0.271,1.122-0.453,1.122-0.453s0.452-0.182,1.13-0.455     c0.672-0.283,1.553-0.687,2.45-1.105c1.81-0.821,3.558-1.802,3.558-1.802c2.373-1.281,4.778-2.122,7.33-2.311     c1.282-0.09,2.458-0.759,3.555-1.996c1.117-1.227,2.041-3.066,2.809-5.437c0,0,0.259-0.902,0.648-2.255     c0.405-1.349,0.827-3.177,1.238-5.007c0.401-1.832,0.696-3.683,0.935-5.068c0.182-1.391,0.304-2.319,0.304-2.319     c0.338-2.457,0.109-4.193-0.371-5.154c-0.501-0.965-1.338-1.159-2.498-0.633c-1.161,0.534-2.246,1.199-3.252,1.982     c-0.993,0.784-1.945,1.684-2.835,2.694c0,0-0.333,0.376-0.915,1.034c-0.569,0.652-1.44,1.563-2.49,2.605     c-2.057,2.098-5.017,4.641-8.014,6.802c-3.058,2.163-6.148,3.946-8.538,5.075c-1.189,0.571-2.15,1.015-2.864,1.295     c-0.698,0.28-1.096,0.439-1.096,0.439c-2.09,0.838-3.818,0.749-5.107,0.014c-1.313-0.748-2.183-2.144-2.92-4.141     c0,0-0.127-0.367-0.317-0.917c-0.183-0.541-0.467-1.267-0.767-1.976c-0.296-0.708-0.599-1.396-0.829-1.902     c-0.252-0.51-0.42-0.849-0.42-0.849s-0.172-0.329-0.429-0.824c-0.268-0.492-0.588-1.121-0.983-1.754     c-0.381-0.629-0.767-1.237-1.058-1.683c-0.289-0.445-0.494-0.737-0.494-0.737s-0.851-1.187-1.717-2.264     c-0.904-1.098-1.842-2.092-1.842-2.092s-0.217-0.25-0.581-0.62c-0.364-0.37-0.85-0.85-1.336-1.307     c-0.476-0.457-0.979-0.897-1.372-1.219c-0.384-0.316-0.641-0.526-0.641-0.526c-1.346-1.089-2.862-1.609-4.387-1.73     c-0.741-0.059-1.399,0.038-1.966,0.262c-0.571,0.224-1.11,0.564-1.525,1.023c-0.922,0.9-1.074,1.812-0.65,2.991     c0.447,1.21,1.168,2.396,2.261,3.676c0,0,0.065,0.076,0.187,0.22c0.12,0.143,0.309,0.36,0.515,0.629     c0.417,0.541,1.041,1.349,1.718,2.373c1.355,2.035,2.928,5.011,4.054,8.351c1.159,3.328,1.789,6.947,2.028,9.774     c0.059,0.703,0.103,1.359,0.136,1.948c0.029,0.586,0.029,1.085,0.035,1.51c0,0.852,0,1.339,0,1.339     C1085.56,1384.11,1085.905,1385.743,1086.884,1386.894z"
/>
<path
   style="fill:#FFA227;"
   d="M1052.201,1399.75c0.009,1.498,0.807,2.968,2.63,4.418c0,0,1.319,1.043,2.745,2.072     c0.711,0.528,1.438,0.98,1.995,1.348c0.562,0.358,0.936,0.596,0.936,0.596s0.382,0.233,0.954,0.583     c0.576,0.338,1.353,0.762,2.153,1.191c1.598,0.878,3.279,1.619,3.279,1.619s0.428,0.189,1.071,0.471     c0.649,0.288,1.523,0.649,2.409,0.971c0.888,0.332,1.796,0.656,2.486,0.893c0.689,0.235,1.15,0.366,1.15,0.366     s1.835,0.598,3.755,1.107c1.898,0.483,3.891,0.904,3.891,0.904c2.616,0.479,5.043,1.468,7.097,2.912     c2.043,1.469,5.444,1.1,9.63-1.611c0,0,0.197-0.127,0.54-0.349c0.342-0.225,0.839-0.533,1.408-0.942     c1.141-0.814,2.689-1.867,4.143-3.04c0.733-0.579,1.474-1.15,2.144-1.712c0.663-0.572,1.282-1.105,1.812-1.563     c1.065-0.911,1.733-1.563,1.733-1.563c0.898-0.848,1.603-1.625,2.113-2.319c0.494-0.711,0.795-1.337,0.912-1.869     c0.232-1.067-0.285-1.755-1.508-2.095c-1.229-0.335-2.483-0.519-3.751-0.561c-1.284-0.058-2.593,0.017-3.908,0.231     c0,0-0.49,0.091-1.363,0.204c-0.875,0.11-2.117,0.256-3.575,0.392c-1.474,0.117-3.182,0.202-4.967,0.23     c-1.816-0.011-3.674-0.028-5.544-0.199c-3.697-0.256-7.256-0.953-9.787-1.573c-1.275-0.318-2.32-0.642-3.033-0.855     c-0.716-0.22-1.116-0.351-1.116-0.351c-2.164-0.755-3.406-1.866-3.928-3.271c-0.522-1.404-0.318-3.098,0.42-5.045     c0,0,0.56-1.486,1.023-2.921c0.234-0.719,0.428-1.473,0.574-2.013c0.139-0.543,0.231-0.905,0.231-0.905s0.092-0.351,0.204-0.899     c0.111-0.551,0.247-1.277,0.366-1.991c0.125-0.706,0.217-1.425,0.272-1.969c0.054-0.535,0.091-0.891,0.091-0.891     s0.139-1.418,0.143-2.841c0.037-1.395-0.057-2.786-0.057-2.786s-0.019-0.341-0.047-0.854c-0.028-0.503-0.083-1.176-0.173-1.856     c-0.082-0.673-0.178-1.329-0.256-1.812c-0.082-0.489-0.154-0.82-0.154-0.82c-0.356-1.734-1.133-3.052-2.241-4.146     c-1.053-1.033-2.261-1.41-3.513-1.268c-1.266,0.136-2.03,0.682-2.441,1.911c-0.468,1.189-0.66,2.599-0.652,4.273     c0,0-0.005,0.397-0.013,1.092c-0.01,0.349-0.021,0.786-0.052,1.279c-0.036,0.482-0.085,1.032-0.153,1.644     c-0.126,1.247-0.377,2.625-0.73,4.199c-0.188,0.754-0.405,1.547-0.651,2.367c-0.245,0.823-0.54,1.606-0.851,2.438     c-1.249,3.251-3.071,6.508-4.714,8.789c-0.808,1.193-1.559,2.084-2.094,2.757c-0.538,0.658-0.861,1.035-0.861,1.035     C1052.975,1396.73,1052.192,1398.252,1052.201,1399.75z"
/>
<path
   style="fill:#00BF33;"
   d="M1017.362,1387.312c-0.965,1.164-1.289,2.791-0.819,5.068c0,0,0.072,0.428,0.216,1.046     c0.14,0.623,0.338,1.461,0.554,2.31c0.208,0.859,0.467,1.682,0.662,2.317c0.201,0.634,0.335,1.057,0.335,1.057     s0.143,0.423,0.357,1.059c0.224,0.628,0.547,1.454,0.884,2.296c0.338,0.839,0.69,1.696,0.984,2.307     c0.293,0.623,0.488,1.038,0.488,1.038s0.207,0.42,0.516,1.051c0.31,0.641,0.754,1.465,1.222,2.289     c0.466,0.827,0.952,1.66,1.328,2.286c0.389,0.608,0.648,1.013,0.648,1.013s0.261,0.409,0.653,1.021     c0.4,0.605,0.932,1.454,1.512,2.239c0.574,0.797,1.17,1.598,1.627,2.199c0.456,0.604,0.773,0.996,0.773,0.996     c1.696,2.056,2.922,4.365,3.57,6.794c0.621,2.441,3.471,4.343,8.422,4.954c0,0,0.232,0.029,0.638,0.079     c0.406,0.043,0.986,0.135,1.684,0.186c1.394,0.099,3.259,0.297,5.117,0.331c0.93,0.022,1.86,0.044,2.732,0.064     c0.872,0.014,1.685-0.022,2.383-0.033c1.395-0.041,2.324-0.068,2.324-0.068c4.955-0.304,6.661-1.785,5.203-3.843     c-1.451-2.055-3.366-3.833-5.651-5.172c0,0-0.426-0.269-1.172-0.741c-0.739-0.478-1.78-1.141-2.981-1.989     c-1.201-0.88-2.559-1.869-3.942-3.021c-1.384-1.167-2.794-2.378-4.118-3.71c-2.668-2.571-4.951-5.388-6.491-7.495     c-0.776-1.05-1.365-1.984-1.775-2.603c-0.401-0.628-0.63-0.986-0.63-0.986c-1.175-1.961-1.409-3.624-0.907-5.032     c0.504-1.414,1.744-2.568,3.563-3.594c0,0,1.383-0.776,2.659-1.575c1.298-0.841,2.491-1.721,2.491-1.721s0.074-0.055,0.203-0.15     c0.128-0.094,0.312-0.232,0.531-0.411c0.438-0.351,1.009-0.819,1.559-1.289c0.549-0.46,1.081-0.953,1.473-1.334     c0.385-0.375,0.642-0.625,0.642-0.625s1.016-0.99,1.936-2.085c0.462-0.535,0.902-1.067,1.222-1.468     c0.317-0.42,0.529-0.701,0.529-0.701s0.206-0.276,0.516-0.689c0.304-0.421,0.696-0.943,1.068-1.523     c0.748-1.15,1.389-2.275,1.389-2.275c0.843-1.577,1.096-3.091,0.953-4.628c-0.069-0.74-0.279-1.378-0.598-1.911     c-0.319-0.531-0.747-0.944-1.284-1.324c-1.071-0.693-2.026-0.789-3.132-0.096c-0.557,0.276-1.108,0.717-1.641,1.174     c-0.53,0.451-1.07,1.053-1.599,1.681c0,0-0.258,0.3-0.709,0.826c-0.232,0.263-0.519,0.583-0.861,0.949     c-0.338,0.35-0.727,0.735-1.171,1.16c-0.896,0.872-1.976,1.773-3.257,2.75c-1.257,0.915-2.713,1.887-4.24,2.714     c-3.051,1.693-6.538,3.01-9.264,3.707c-1.384,0.393-2.531,0.594-3.376,0.77c-0.841,0.168-1.319,0.233-1.319,0.233     C1019.897,1385.496,1018.309,1386.169,1017.362,1387.312z"
/>
<path
   style="fill:#75CBEA;"
   d="M998.669,1355.389c-1.458,0.265-2.844,1.32-3.889,3.357c0,0-0.204,0.377-0.51,0.942     c-0.314,0.573-0.702,1.343-1.06,2.128c-0.368,0.786-0.728,1.593-0.994,2.207c-0.262,0.613-0.414,1.024-0.414,1.024     s-0.156,0.415-0.39,1.037c-0.226,0.625-0.547,1.479-0.818,2.338c-0.537,1.709-1.022,3.515-1.022,3.515s-0.431,1.791-0.803,3.675     c-0.186,0.939-0.316,1.874-0.427,2.594c-0.102,0.721-0.17,1.201-0.17,1.201s-0.081,0.484-0.163,1.205     c-0.081,0.72-0.18,1.69-0.265,2.677c-0.094,0.992-0.146,1.982-0.169,2.727c-0.024,0.752-0.04,1.253-0.04,1.253     c-0.013,0.67-0.062,1.336-0.137,1.987c-0.065,0.644-0.164,1.28-0.298,1.905c-0.267,1.25-0.672,2.46-1.224,3.609     c-1.081,2.256-0.124,5.526,3.253,9.184c0,0,0.644,0.676,1.611,1.689c0.968,1.011,2.334,2.288,3.699,3.56     c1.409,1.225,2.801,2.472,3.917,3.321c1.103,0.864,1.839,1.44,1.839,1.44c3.993,2.966,6.253,2.921,6.457,0.408     c0.107-1.256,0.074-2.529-0.091-3.806c-0.165-1.278-0.489-2.523-0.916-3.797c0,0-0.156-0.48-0.428-1.319     c-0.259-0.845-0.651-2.003-1.007-3.451c-0.366-1.437-0.775-3.069-1.083-4.853c-0.158-0.888-0.323-1.781-0.448-2.704     c-0.121-0.927-0.23-1.859-0.325-2.778c-0.104-0.911-0.152-1.847-0.199-2.745c-0.041-0.904-0.086-1.765-0.085-2.615     c0.014-1.711,0.026-3.222,0.146-4.553c0.105-1.32,0.201-2.375,0.302-3.126c0.108-0.746,0.169-1.172,0.169-1.172     c0.326-2.236,1.237-3.675,2.529-4.435c1.291-0.759,2.959-0.833,5.046-0.471c0,0,1.52,0.32,3.052,0.501     c1.502,0.215,3.011,0.289,3.011,0.289s0.37,0.017,0.925,0.043c0.545,0.027,1.279,0.04,2.019,0.021     c0.733-0.012,1.45-0.038,1.98-0.065c0.537-0.032,0.898-0.069,0.898-0.069s0.358-0.036,0.895-0.091     c0.538-0.063,1.221-0.132,1.927-0.255c0.703-0.118,1.388-0.249,1.894-0.353c0.505-0.102,0.839-0.181,0.839-0.181     s1.364-0.315,2.632-0.686c1.307-0.401,2.525-0.865,2.525-0.865c1.645-0.652,2.823-1.668,3.697-2.933     c0.422-0.612,0.671-1.234,0.769-1.844c0.049-0.305,0.059-0.608,0.031-0.904c-0.016-0.313-0.067-0.624-0.156-0.928     c-0.19-0.593-0.414-1.103-0.813-1.414c-0.186-0.171-0.392-0.32-0.645-0.424c-0.255-0.102-0.542-0.177-0.846-0.242     c-0.314-0.065-0.644-0.105-0.99-0.123c-0.333-0.03-0.672-0.046-1.034-0.036c-0.734,0.029-1.486,0.099-2.313,0.249     c0,0-0.398,0.067-1.094,0.185c-0.687,0.097-1.672,0.212-2.922,0.301c-2.423,0.144-5.808,0.041-9.26-0.643     c-3.453-0.651-6.891-1.903-9.475-3.099c-1.256-0.602-2.365-1.156-3.08-1.576c-0.731-0.427-1.148-0.672-1.148-0.672     C1001.717,1355.642,1000.159,1355.117,998.669,1355.389z"
/>
<path
   style="fill:#FFA227;"
   d="M1004.853,1318.918c-1.292-0.736-3.022-0.812-5.136,0.074c0,0-0.399,0.157-0.998,0.393     c-0.611,0.236-1.389,0.583-2.177,0.95c-0.788,0.365-1.586,0.75-2.184,1.05c-0.582,0.312-0.97,0.521-0.97,0.521     s-0.387,0.217-0.967,0.543c-0.574,0.333-1.38,0.777-2.125,1.267c-0.757,0.484-1.52,0.989-2.094,1.377     c-0.577,0.387-0.95,0.659-0.95,0.659s-1.484,1.095-2.983,2.3c-1.452,1.205-2.895,2.527-2.895,2.527s-0.091,0.081-0.25,0.223     c-0.162,0.142-0.386,0.347-0.646,0.597c-0.525,0.5-1.225,1.18-1.924,1.883c-0.71,0.7-1.385,1.426-1.881,1.983     c-0.501,0.561-0.835,0.935-0.835,0.935c-0.441,0.506-0.902,0.984-1.382,1.435c-0.469,0.451-0.947,0.874-1.452,1.267     c-1.006,0.786-2.091,1.452-3.251,1.977c-1.176,0.525-2.038,1.547-2.649,3.073c-0.631,1.523-0.86,3.549-0.78,6.019     c0,0,0.066,0.931,0.164,2.327c0.058,0.698,0.109,1.512,0.204,2.383c0.109,0.87,0.225,1.798,0.341,2.727     c0.111,0.929,0.262,1.853,0.42,2.717c0.156,0.864,0.302,1.671,0.428,2.363c0.125,0.691,0.272,1.26,0.357,1.661     c0.091,0.4,0.144,0.629,0.144,0.629c0.532,2.427,1.32,4,2.115,4.739c0.804,0.74,1.658,0.636,2.566-0.257     c1.821-1.806,3.129-3.983,4.118-6.492c0,0,0.183-0.467,0.503-1.286c0.308-0.808,0.841-1.966,1.456-3.3     c1.228-2.677,3.135-6.065,5.214-9.111c2.139-3.064,4.429-5.789,6.281-7.669c0.928-0.944,1.667-1.692,2.239-2.2     c0.561-0.502,0.881-0.789,0.881-0.789c1.683-1.505,3.308-2.022,4.786-1.774c1.477,0.248,2.801,1.261,4.171,2.88     c0,0,0.952,1.221,2.016,2.345c0.522,0.564,1.035,1.106,1.433,1.504c0.412,0.393,0.686,0.656,0.686,0.656s0.274,0.252,0.685,0.629     c0.42,0.372,0.938,0.856,1.523,1.318c1.15,0.931,2.285,1.755,2.285,1.755s1.209,0.829,2.395,1.551     c0.58,0.366,1.228,0.701,1.68,0.946c0.459,0.239,0.765,0.399,0.765,0.399s0.3,0.155,0.751,0.387     c0.463,0.225,1.093,0.509,1.706,0.773c1.21,0.54,2.484,0.951,2.484,0.951c1.647,0.559,3.223,0.527,4.709,0.118     c0.717-0.198,1.301-0.511,1.757-0.91c0.483-0.407,0.852-0.902,1.086-1.47c0.581-1.161,0.389-2.069-0.404-3.058     c-0.829-1.006-1.923-1.907-3.383-2.748c0,0-0.358-0.197-0.954-0.566c-0.581-0.368-1.426-0.917-2.432-1.651     c-1.952-1.447-4.478-3.697-6.69-6.438c-2.213-2.711-4.057-5.884-5.269-8.463c-0.575-1.269-1.055-2.4-1.346-3.187     c-0.284-0.796-0.446-1.252-0.446-1.252C1007.032,1321.073,1006.165,1319.665,1004.853,1318.918z"
/>
<path
   style="fill:#00BF33;"
   d="M1033.026,1294.934c-0.522-1.403-1.777-2.513-3.989-3.244c0,0-1.599-0.526-3.295-1.002     c-1.672-0.451-3.423-0.813-3.423-0.813s-0.44-0.101-1.093-0.212c-0.653-0.111-1.535-0.252-2.434-0.38     c-0.904-0.138-1.807-0.233-2.487-0.291c-0.687-0.059-1.145-0.098-1.145-0.098s-1.865-0.154-3.757-0.156     c-1.911-0.046-3.839,0.066-3.839,0.066s-0.485,0.02-1.212,0.051c-0.367,0.02-0.796,0.043-1.255,0.068     c-0.456,0.041-0.942,0.085-1.429,0.128c-0.978,0.094-1.97,0.205-2.72,0.297c-0.743,0.099-1.235,0.182-1.235,0.182     c-1.315,0.216-2.628,0.292-3.912,0.238c-1.27-0.04-2.525-0.224-3.747-0.564c-1.222-0.342-2.588-0.15-4.017,0.65     c-0.717,0.397-1.47,0.927-2.222,1.614c-0.74,0.697-1.495,1.538-2.255,2.519c0,0-0.142,0.186-0.389,0.511     c-0.238,0.332-0.579,0.807-0.988,1.376c-0.403,0.573-0.873,1.243-1.377,1.96c-0.475,0.737-0.982,1.523-1.489,2.309     c-1.022,1.567-1.909,3.22-2.613,4.434c-0.667,1.236-1.085,2.075-1.085,2.075c-1.154,2.197-1.55,3.913-1.424,4.985     c0.139,1.082,0.86,1.551,2.13,1.452c2.563-0.208,4.954-1.04,7.327-2.323c0,0,0.441-0.24,1.212-0.66     c0.756-0.421,1.902-0.968,3.233-1.592c2.662-1.258,6.292-2.638,9.855-3.63c1.81-0.481,3.561-0.912,5.241-1.2     c0.834-0.149,1.618-0.292,2.376-0.396c0.763-0.1,1.475-0.184,2.127-0.253c1.293-0.15,2.383-0.203,3.136-0.237     c0.747-0.03,1.173-0.047,1.173-0.047c2.262-0.061,3.846,0.594,4.809,1.725c0.981,1.15,1.336,2.771,1.337,4.885     c0,0-0.004,0.391-0.009,0.977c0.004,0.589-0.008,1.336,0.04,2.114c0.041,0.772,0.095,1.526,0.143,2.085     c0.044,0.556,0.09,0.93,0.09,0.93s0.191,1.499,0.445,2.91c0.286,1.451,0.636,2.816,0.636,2.816s0.082,0.341,0.243,0.863     c0.156,0.519,0.37,1.199,0.594,1.859c0.213,0.654,0.484,1.321,0.677,1.802c0.199,0.478,0.331,0.797,0.331,0.797     s0.131,0.312,0.328,0.78c0.21,0.47,0.51,1.092,0.809,1.689c0.3,0.599,0.605,1.175,0.867,1.614     c0.254,0.428,0.424,0.714,0.424,0.714c0.897,1.486,2.137,2.481,3.532,3.12c0.676,0.309,1.326,0.445,1.934,0.432     c0.621-0.007,1.233-0.146,1.778-0.433c1.189-0.521,1.629-1.345,1.651-2.606c0-0.163-0.006-0.329-0.019-0.497     c-0.002-0.161-0.01-0.324-0.024-0.491c-0.029-0.333-0.084-0.679-0.161-1.037c-0.135-0.701-0.34-1.433-0.645-2.236     c0,0-0.035-0.094-0.099-0.271c-0.059-0.176-0.145-0.433-0.255-0.76c-0.207-0.654-0.536-1.651-0.798-2.826     c-0.597-2.405-1.039-5.722-0.966-9.245c0.051-3.503,0.653-7.168,1.402-9.88c0.351-1.39,0.737-2.504,1.012-3.309     c0.287-0.807,0.451-1.268,0.451-1.268C1033.334,1298.034,1033.549,1296.339,1033.026,1294.934z"
/>
<path
   style="fill:#75CBEA;"
   d="M1070.026,1294.68c0.501-1.407,0.257-3.079-0.971-5.049c0,0-0.886-1.434-1.879-2.893     c-0.995-1.407-2.102-2.821-2.102-2.821s-0.069-0.088-0.19-0.241c-0.121-0.156-0.297-0.371-0.512-0.621     c-0.429-0.505-1.015-1.18-1.622-1.857c-0.604-0.687-1.235-1.339-1.72-1.82c-0.489-0.486-0.815-0.81-0.815-0.81     s-1.33-1.323-2.777-2.533c-0.719-0.615-1.461-1.239-2.027-1.689c-0.571-0.437-0.952-0.729-0.952-0.729s-0.383-0.294-0.958-0.735     c-0.58-0.431-1.367-1.046-2.175-1.585c-1.61-1.104-3.328-2.183-3.328-2.183c-2.286-1.338-4.219-3.112-5.653-5.168     c-0.716-1.039-1.885-1.756-3.502-2.097c-0.806-0.151-1.723-0.208-2.744-0.168c-1.024,0.028-2.145,0.194-3.358,0.48     c0,0-0.913,0.215-2.282,0.538c-1.353,0.385-3.173,0.854-4.952,1.449c-1.783,0.587-3.555,1.204-4.857,1.74     c-1.306,0.523-2.177,0.871-2.177,0.871c-2.268,1.01-3.717,1.975-4.286,2.924c-0.581,0.932-0.328,1.756,0.706,2.487     c2.073,1.433,4.484,2.424,7.102,2.9c0,0,0.495,0.105,1.362,0.288c0.863,0.195,2.074,0.454,3.501,0.84     c2.868,0.788,6.521,1.983,9.908,3.56c1.688,0.742,3.324,1.622,4.789,2.434c1.468,0.824,2.783,1.688,3.868,2.395     c2.176,1.509,3.482,2.555,3.482,2.555c1.772,1.452,2.562,2.922,2.573,4.42c0.011,1.498-0.758,3.019-2.12,4.594     c0,0-1.036,1.206-1.964,2.397c-0.469,0.585-0.907,1.238-1.23,1.693c-0.317,0.464-0.528,0.773-0.528,0.773     s-0.201,0.307-0.502,0.768c-0.292,0.479-0.669,1.119-1.025,1.751c-0.356,0.634-0.695,1.25-0.93,1.75     c-0.233,0.486-0.388,0.81-0.388,0.81s-0.147,0.325-0.368,0.812c-0.218,0.476-0.489,1.135-0.734,1.804     c-0.248,0.662-0.476,1.315-0.638,1.8c-0.161,0.491-0.254,0.832-0.254,0.832s-0.097,0.329-0.242,0.824     c-0.138,0.498-0.321,1.126-0.467,1.792c-0.298,1.334-0.502,2.607-0.502,2.607c-0.24,1.769,0.045,3.269,0.71,4.664     c0.32,0.671,0.735,1.199,1.215,1.593c0.482,0.396,1.018,0.632,1.638,0.811c1.217,0.298,2.107,0.063,2.901-0.949     c0.834-0.956,1.494-2.216,2.064-3.787c0,0,0.141-0.373,0.388-1.024c0.255-0.673,0.652-1.579,1.206-2.677     c0.548-1.133,1.273-2.333,2.152-3.7c0.879-1.282,1.925-2.708,3.077-4.002c2.293-2.653,5.105-5.074,7.421-6.672     c1.161-0.836,2.175-1.454,2.901-1.885c0.738-0.432,1.159-0.679,1.159-0.679C1068.273,1297.24,1069.522,1296.096,1070.026,1294.68     z"
/>
<path
   style="fill:#FFA227;"
   d="M1098.533,1318.263c1.293-0.761,2.196-2.209,2.492-4.49c0,0,0.064-0.425,0.16-1.063     c0.094-0.643,0.173-1.485,0.256-2.356c0.18-1.745,0.21-3.514,0.21-3.514s0.007-0.444,0.017-1.111     c0.014-0.677,0.002-1.571-0.042-2.466c-0.036-0.9-0.089-1.814-0.135-2.507c-0.064-0.683-0.107-1.139-0.107-1.139     s-0.053-0.463-0.133-1.156c-0.09-0.691-0.192-1.649-0.36-2.572c-0.159-0.93-0.336-1.873-0.477-2.586     c-0.137-0.716-0.249-1.186-0.249-1.186s-0.411-1.87-0.917-3.796c-0.529-1.881-1.162-3.807-1.162-3.807     c-0.43-1.272-0.757-2.521-0.924-3.8c-0.167-1.28-0.202-2.55-0.088-3.802c0.119-1.255-0.317-2.556-1.337-3.855     c-1.047-1.253-2.641-2.57-4.872-3.679c0,0-0.829-0.437-2.094-1.049c-1.284-0.573-2.97-1.397-4.722-2.072     c-0.873-0.342-1.747-0.684-2.566-1.005c-0.827-0.299-1.606-0.558-2.272-0.786c-0.668-0.223-1.224-0.408-1.613-0.538     c-0.389-0.132-0.616-0.19-0.616-0.19c-2.386-0.696-4.12-0.876-5.166-0.518c-1.045,0.339-1.381,1.133-1.057,2.358     c0.669,2.434,1.883,4.731,3.581,6.79c0,0,0.324,0.384,0.86,1.09c0.537,0.701,1.292,1.696,2.143,2.892     c0.834,1.241,1.781,2.641,2.692,4.197c0.907,1.566,1.817,3.2,2.607,4.9c1.628,3.333,2.801,6.761,3.531,9.259     c0.351,1.278,0.603,2.328,0.774,3.054c0.173,0.722,0.249,1.148,0.249,1.148c0.432,2.245,0.097,3.871-0.861,5.029     c-0.951,1.151-2.524,1.828-4.585,2.168c0,0-0.381,0.048-0.962,0.159c-0.578,0.105-1.338,0.254-2.079,0.413     c-0.735,0.148-1.487,0.36-2.029,0.505c-0.541,0.152-0.902,0.254-0.902,0.254s-0.351,0.107-0.878,0.267     c-0.532,0.179-1.231,0.427-1.91,0.682c-0.679,0.253-1.339,0.516-1.839,0.745c-0.491,0.222-0.818,0.37-0.818,0.37     s-0.321,0.154-0.804,0.384c-0.472,0.222-1.11,0.566-1.724,0.913c-0.616,0.347-1.208,0.695-1.646,0.965     c-0.439,0.287-0.731,0.479-0.731,0.479s-0.286,0.189-0.714,0.473c-0.425,0.291-0.968,0.65-1.511,1.076     c-0.54,0.413-1.057,0.829-1.435,1.142c-0.376,0.307-0.624,0.534-0.624,0.534c-1.318,1.196-2.061,2.527-2.448,4.022     c-0.186,0.72-0.208,1.392-0.094,2.004c0.111,0.623,0.374,1.131,0.731,1.673c0.741,1.003,1.572,1.411,2.838,1.136     c1.254-0.188,2.576-0.734,4.021-1.569c0,0,0.348-0.195,0.956-0.537c0.629-0.352,1.509-0.785,2.642-1.28     c2.235-0.973,5.479-2.047,8.942-2.556c3.459-0.55,7.149-0.572,9.986-0.33c1.396,0.129,2.588,0.297,3.438,0.421     c0.83,0.152,1.304,0.239,1.304,0.239C1095.567,1319.089,1097.244,1319.022,1098.533,1318.263z"
/>
<path
   style="fill:#00BF33;"
   d="M1123.279,1335.678c0,0,0.229-0.431,0.574-1.077c0.321-0.648,0.744-1.526,1.159-2.424     c0.415-0.897,0.831-1.816,1.098-2.508c0.277-0.699,0.462-1.165,0.462-1.165c0.989-2.51,2.288-4.704,4.115-6.494     c0.922-0.895,1.396-2.167,1.433-3.819c0.062-1.658-0.414-3.659-1.353-5.968c0,0-0.383-0.856-0.958-2.139     c-0.561-1.291-1.411-2.961-2.276-4.623c-0.876-1.655-1.831-3.267-2.548-4.473c-0.754-1.183-1.257-1.972-1.257-1.972     c-0.66-1.048-1.32-1.866-1.934-2.477c-0.61-0.614-1.168-1.025-1.668-1.234c-1.001-0.42-1.787-0.013-2.318,1.124     c-0.546,1.158-0.949,2.369-1.216,3.618c-0.263,1.247-0.394,2.536-0.431,3.887c0,0-0.013,0.502-0.036,1.382     c-0.018,0.867-0.089,2.119-0.226,3.594c-0.222,2.928-0.853,6.779-1.749,10.36c-0.951,3.625-2.158,6.978-3.262,9.383     c-0.539,1.203-0.991,2.162-1.356,2.836c-0.353,0.663-0.555,1.042-0.555,1.042c-1.058,1.987-2.437,3.032-3.897,3.3     c-1.486,0.273-3.05-0.235-4.901-1.286c0,0-0.333-0.199-0.833-0.497c-0.489-0.296-1.17-0.669-1.859-1.017     c-0.683-0.351-1.359-0.681-1.861-0.919c-0.519-0.228-0.866-0.379-0.866-0.379s-0.344-0.141-0.86-0.353     c-0.521-0.204-1.177-0.476-1.88-0.709c-1.399-0.474-2.746-0.851-2.746-0.851s-1.418-0.36-2.775-0.626     c-1.396-0.26-2.756-0.416-2.756-0.416s-0.327-0.052-0.845-0.1c-0.517-0.049-1.197-0.104-1.863-0.142     c-0.657-0.045-1.334-0.052-1.837-0.049c-0.496,0.005-0.827,0.009-0.827,0.009c-0.864,0.016-1.674,0.171-2.422,0.434     c-0.744,0.26-1.419,0.622-2.047,1.07c-1.209,0.869-1.756,1.97-1.847,3.231c-0.12,1.282,0.35,2.084,1.436,2.715     c1.122,0.642,2.437,1.083,4.099,1.356c0,0,0.285,0.049,0.784,0.135c0.483,0.098,1.179,0.247,2.035,0.463     c1.7,0.428,3.937,1.187,6.173,2.237c1.095,0.525,2.189,1.113,3.219,1.717c0.989,0.609,1.938,1.228,2.735,1.792     c1.54,1.133,2.584,2.006,2.584,2.006h21.732c0,0,0.642-0.846,1.283-1.692c0.637-0.879,1.274-1.758,1.274-1.758     s1.017-1.531,2.01-3.17c0.507-0.817,0.94-1.65,1.292-2.287C1123.051,1336.106,1123.279,1335.678,1123.279,1335.678z"
/>
</g>
</svg>
