<?xml version="1.0" encoding="UTF-8" standalone="no"?>
<svg
  version="1.1"
  viewBox="1700 1625 400 400"
  xmlns="http://www.w3.org/2000/svg">
<g fill="none">
<path
   style="fill:#75CBEA;"
   d="M2024.914,1828.539c2.365,0.686,5.154,1.09,8.334,1.199l2.379,0.081l2.379,0.081l2.379,0.082      l1.219,0.042l3.599,0.123l2.379,0.081l1.219,0.042l1.16,0.04l11.954,0.409c3.179,0.119,4.863-1.463,4.939-4.773      c0.008-0.346-0.006-0.671-0.026-0.99h-45.314c-0.07,0.244-0.118,0.487-0.125,0.73      C2021.354,1826.901,2022.49,1827.84,2024.914,1828.539z"
/>
<path
   style="fill:#00BF33;"
   d="M2038.563,1855.246l3.523,0.744l2.329,0.492l1.194,0.252l1.135,0.24l11.703,2.472      c1.553,0.329,2.832,0.188,3.791-0.453c0.938-0.643,1.561-1.786,1.853-3.415c0.292-1.63,0.226-3.012-0.191-4.123      c-0.407-1.11-1.245-1.96-2.359-2.525c-2.254-1.136-4.09-2.615-5.473-4.355c0,0-1.052-1.287-2.105-2.573      c-0.518-0.634-1.065-1.263-1.489-1.733c-0.417-0.467-0.695-0.779-0.695-0.779c-1.456-1.655-2.482-3.622-3.104-5.874      c0,0-0.228-0.852-0.527-1.7c-0.284-0.844-0.567-1.688-0.567-1.688l-2.379-0.081l-3.599-0.123l-1.219-0.042l-2.379-0.082      c0,0-0.309,0.766-0.618,1.532c-0.292,0.764-0.655,1.517-0.655,1.517c-0.957,1.993-2.292,3.608-3.975,4.788      c0,0-0.318,0.219-0.796,0.548c-0.471,0.328-1.115,0.758-1.786,1.178c-1.321,0.825-2.641,1.649-2.641,1.649      s-1.302,0.804-2.603,1.608c-1.295,0.77-2.59,1.539-2.59,1.539c-1.77,0.974-2.781,2.024-2.988,3.22      c-0.212,1.193,0.77,2.315,3.052,3.424c2.203,1.08,4.863,1.957,7.979,2.615l2.329,0.492l2.329,0.492l2.329,0.492      L2038.563,1855.246z"
/>
<path
   style="fill:#75CBEA;"
   d="M2031.136,1879.537l3.339,1.348l2.207,0.891l1.132,0.457l1.076,0.434l11.091,4.479      c2.946,1.201,5.073,0.287,6.284-2.806c1.125-3.12,0.602-5.514-1.392-7.01c-2.021-1.513-3.489-3.265-4.592-5.234      c0,0-0.837-1.459-1.675-2.918c-0.848-1.425-1.696-2.851-1.696-2.851c-0.56-0.938-0.977-1.929-1.314-2.984      c-0.359-1.06-0.604-2.176-0.739-3.346l-0.441-3.518l-2.329-0.492l-3.523-0.744l-1.193-0.252l-2.329-0.492l-1.831,2.769      c-0.62,0.903-1.318,1.697-2.09,2.374c-0.793,0.672-1.694,1.218-2.638,1.648c0,0-1.43,0.622-2.859,1.244      c-1.418,0.589-2.837,1.177-2.837,1.177s-0.35,0.146-0.875,0.364c-0.53,0.215-1.263,0.488-1.98,0.759      c-1.434,0.522-2.869,1.045-2.869,1.045c-1.912,0.649-3.002,1.537-3.435,2.67c-0.448,1.125,0.299,2.392,2.337,3.876      c1.987,1.452,4.469,2.786,7.419,3.978l2.207,0.891l2.207,0.891l2.207,0.891L2031.136,1879.537z"
/>
<path
   style="fill:#00BF33;"
   d="M2019.605,1902.17l3.053,1.909l2.018,1.262l1.035,0.647l0.984,0.615l10.142,6.342      c2.676,1.685,5.02,1.214,6.646-1.68c1.644-2.879,1.649-5.267-0.104-7.116c-1.728-1.843-2.948-3.866-3.654-5.978      c0,0-0.55-1.572-1.099-3.144c-0.539-1.55-1.175-3.103-1.175-3.103c-0.801-2.057-1.092-4.258-0.906-6.589      c0,0,0.081-0.877,0.091-1.777c0.024-0.891,0.047-1.781,0.047-1.781l-2.207-0.891l-3.339-1.348l-1.131-0.457l-2.207-0.891      c0,0-0.553,0.613-1.105,1.225c-0.536,0.617-1.138,1.198-1.138,1.198c-1.58,1.544-3.384,2.602-5.367,3.133      c0,0-1.484,0.399-3.03,0.726c-1.52,0.322-3.04,0.644-3.04,0.644s-1.495,0.309-2.99,0.618c-0.74,0.142-1.479,0.284-2.034,0.39      c-0.553,0.102-0.939,0.157-0.939,0.157c-2.011,0.298-3.299,0.951-3.903,2.005c-0.605,1.05-0.048,2.454,1.669,4.253      c1.692,1.769,3.898,3.512,6.596,5.199l2.018,1.262l2.018,1.262l2.018,1.262L2019.605,1902.17z"
/>
<path
   style="fill:#75CBEA;"
   d="M2004.328,1922.472l2.677,2.408l1.769,1.592l0.907,0.816l0.862,0.776l8.893,8      c2.358,2.135,4.656,1.996,6.825-0.513c0.54-0.625,0.972-1.243,1.294-1.849c0.309-0.617,0.496-1.233,0.583-1.826      c0.171-1.19-0.089-2.315-0.776-3.367c-1.373-2.106-2.207-4.296-2.516-6.482c0,0-0.063-0.411-0.158-1.029      c-0.112-0.622-0.261-1.45-0.409-2.279c-0.316-1.635-0.632-3.269-0.632-3.269c-0.421-2.156-0.247-4.32,0.255-6.64l0.774-3.468      l-2.018-1.262l-3.053-1.909l-1.034-0.647l-2.018-1.262l-2.651,1.985c-1.738,1.303-3.778,1.979-5.835,2.15      c0,0-1.549,0.1-3.098,0.2c-0.765,0.038-1.531,0.077-2.105,0.106c-0.583,0.014-0.971,0.024-0.971,0.024s-1.542,0.034-3.084,0.068      c-1.519,0.007-3.039,0.015-3.039,0.015c-1-0.013-1.837,0.092-2.518,0.32c-0.7,0.212-1.255,0.539-1.652,0.999      c-0.796,0.916-0.52,2.371,0.893,4.469c1.376,2.049,3.255,4.154,5.62,6.283l1.77,1.592l1.77,1.592l1.77,1.592L2004.328,1922.472z      "
/>
<path
   style="fill:#00BF33;"
   d="M1985.747,1939.799l2.221,2.834l1.468,1.873l0.753,0.96l0.716,0.913l7.379,9.414      c1.947,2.501,4.275,2.809,6.842,0.711c2.509-2.162,3.283-4.454,2.298-6.751c-0.493-1.153-0.838-2.292-1.068-3.437      c-0.237-1.152-0.343-2.293-0.321-3.412c0,0,0.01-1.674,0.02-3.348c-0.016-1.651-0.032-3.302-0.032-3.302      c-0.013-2.166,0.413-4.385,1.376-6.517c0,0,0.353-0.813,0.706-1.626c0.362-0.801,0.67-1.641,0.67-1.641l-1.769-1.592      l-2.677-2.408l-0.907-0.816l-1.77-1.592c0,0-0.716,0.404-1.476,0.758c-0.747,0.362-1.494,0.725-1.494,0.725      c-2.006,0.918-4.013,1.349-6.099,1.132c0,0-1.556-0.182-3.113-0.364c-1.531-0.205-3.061-0.411-3.061-0.411      s-1.514-0.193-3.009-0.421c-1.51-0.269-3.021-0.538-3.021-0.538c-1.982-0.39-3.405-0.201-4.321,0.599      c-0.925,0.785-0.939,2.223,0.09,4.531c0.994,2.246,2.479,4.639,4.441,7.144l1.468,1.873l1.469,1.874l1.469,1.874      L1985.747,1939.799z"
/>
<path
   style="fill:#75CBEA;"
   d="M1964.478,1953.692l1.697,3.176l1.121,2.099l0.575,1.076l0.547,1.023l5.636,10.551      c0.749,1.403,1.675,2.284,2.787,2.615c1.096,0.304,2.371,0.047,3.806-0.777s2.451-1.764,3.033-2.797      c0.581-1.037,0.699-2.214,0.414-3.434c-0.578-2.455-0.625-4.811-0.182-6.987c0,0,0.31-1.631,0.62-3.263      c0.282-1.644,0.51-3.3,0.51-3.3c0.333-2.177,1.19-4.213,2.512-6.14l1.882-3.03l-1.468-1.873l-2.221-2.834l-0.753-0.96      l-1.469-1.874l-3.144,0.998c-2.14,0.551-4.244,0.553-6.233,0.02c0,0-1.492-0.401-2.974-0.854      c-1.482-0.483-2.964-0.966-2.964-0.966s-1.454-0.482-2.908-0.963c-1.424-0.499-2.847-0.997-2.847-0.997      c-1.878-0.718-3.338-0.824-4.386-0.211c-1.05,0.605-1.278,2.078-0.66,4.539c0.585,2.373,1.629,4.981,3.128,7.788l1.122,2.1      l1.121,2.1l1.121,2.1L1964.478,1953.692z"
/>
<path
   style="fill:#00BF33;"
   d="M1941.105,1963.641l1.116,3.423l0.738,2.263l0.378,1.16l0.36,1.103l3.708,11.372      c0.976,3.027,3.043,4.064,6.188,2.993c0.788-0.256,1.465-0.593,2.036-0.988c0.574-0.388,1.048-0.818,1.421-1.288      c0.746-0.941,1.083-2.042,1.015-3.294c-0.14-2.514,0.245-4.795,1.055-6.873c0,0,0.577-1.582,1.154-3.163      c0.544-1.569,1.089-3.137,1.089-3.137c0.36-1.029,0.842-2.003,1.441-2.921c0.583-0.952,1.277-1.863,2.085-2.719l2.407-2.604      l-1.121-2.099l-1.697-3.176l-0.575-1.076l-1.121-2.1l-3.296,0.384c-1.09,0.107-2.145,0.088-3.162-0.071      c-1.034-0.194-2.023-0.515-2.962-0.964c0,0-1.395-0.692-2.79-1.384c-1.362-0.705-2.725-1.409-2.725-1.409      s-0.334-0.161-0.846-0.445c-0.506-0.281-1.181-0.656-1.856-1.03c-1.322-0.759-2.644-1.518-2.644-1.518      c-0.861-0.516-1.64-0.847-2.344-0.993c-0.702-0.139-1.334-0.107-1.914,0.073c-1.148,0.384-1.636,1.775-1.46,4.291      c0.168,2.457,0.744,5.217,1.73,8.242l0.738,2.263l0.738,2.263l0.738,2.263L1941.105,1963.641z"
/>
<path
   style="fill:#75CBEA;"
   d="M1916.359,1969.368l0.502,3.566l0.332,2.357l0.17,1.208l0.162,1.149l1.667,11.845      c0.431,3.139,2.297,4.622,5.561,4.005c3.263-0.591,5.094-2.13,5.384-4.652c0.3-2.51,1.064-4.746,2.226-6.648      c0,0,0.85-1.434,1.7-2.867c0.411-0.714,0.821-1.428,1.129-1.963c0.296-0.553,0.494-0.922,0.494-0.922      c1.058-1.94,2.555-3.583,4.458-4.945c0,0,0.179-0.13,0.448-0.326c0.267-0.198,0.628-0.446,0.975-0.734      c0.696-0.557,1.392-1.114,1.392-1.114l-0.738-2.263l-1.116-3.423l-0.378-1.16l-0.738-2.263c0,0-0.824-0.027-1.648-0.053      c-0.408-0.005-0.827-0.051-1.137-0.073c-0.31-0.025-0.517-0.042-0.517-0.042c-2.197-0.211-4.166-0.907-5.847-2.081      c0,0-0.314-0.224-0.785-0.559c-0.47-0.356-1.096-0.83-1.723-1.305c-1.224-0.955-2.447-1.91-2.447-1.91s-1.197-0.944-2.395-1.888      c-0.584-0.474-1.168-0.949-1.606-1.305c-0.435-0.374-0.725-0.624-0.725-0.624c-1.522-1.348-2.849-1.915-4.043-1.7      c-1.194,0.206-1.908,1.551-2.181,4.018c-0.266,2.431-0.182,5.242,0.26,8.392l0.332,2.357l0.332,2.357l0.332,2.357      L1916.359,1969.368z"
/>
<path
   style="fill:#00BF33;"
   d="M1890.986,1970.708l-0.118,3.599l-0.078,2.379l-0.04,1.22l-0.038,1.16l-0.393,11.955      c-0.115,3.179,1.469,4.863,4.78,4.939c3.306-0.004,5.369-1.328,6.09-3.713c0.728-2.408,1.867-4.423,3.339-6.09      c0,0,1.083-1.289,2.167-2.579c1.048-1.288,2.097-2.576,2.097-2.576c0.691-0.844,1.477-1.594,2.355-2.253      c0.878-0.655,1.839-1.306,2.893-1.827l3.154-1.631l-0.332-2.357l-0.502-3.566l-0.17-1.208l-0.332-2.357l-3.226-0.76      c-1.061-0.28-2.042-0.625-2.947-1.164c-0.905-0.535-1.724-1.175-2.453-1.918c0,0-1.074-1.127-2.148-2.254      c-1.039-1.128-2.078-2.255-2.078-2.255s-0.258-0.267-0.643-0.712c-0.38-0.438-0.888-1.021-1.395-1.604      c-0.985-1.166-1.971-2.333-1.971-2.333c-1.269-1.574-2.483-2.282-3.701-2.311c-1.216-0.035-2.153,1.101-2.849,3.525      c-0.682,2.365-1.083,5.154-1.188,8.334l-0.078,2.379l-0.078,2.379l-0.078,2.379L1890.986,1970.708z"
/>
<path
   style="fill:#75CBEA;"
   d="M1865.759,1967.707l-0.739,3.524l-0.489,2.329l-0.25,1.194l-0.238,1.135l-2.456,11.707      c-0.326,1.549-0.186,2.843,0.459,3.782c0.645,0.938,1.788,1.561,3.417,1.852c1.63,0.291,3.011,0.225,4.121-0.192      c1.112-0.427,1.958-1.251,2.523-2.37c1.133-2.254,2.609-4.091,4.347-5.475c0,0,1.285-1.052,2.57-2.105      c0.633-0.516,1.263-1.085,1.731-1.5c0.466-0.417,0.777-0.695,0.777-0.695c1.653-1.456,3.618-2.483,5.869-3.105      c0,0,0.213-0.06,0.532-0.151c0.318-0.105,0.743-0.246,1.167-0.386c0.844-0.283,1.687-0.567,1.687-0.567l0.078-2.379l0.118-3.599      l0.04-1.219l0.078-2.379c0,0-0.766-0.309-1.532-0.618c-0.38-0.155-0.761-0.311-1.046-0.427      c-0.283-0.131-0.472-0.218-0.472-0.218c-1.994-0.958-3.61-2.292-4.793-3.976c0,0-0.22-0.318-0.549-0.796      c-0.328-0.48-0.761-1.103-1.181-1.776c-0.826-1.321-1.652-2.642-1.652-2.642s-0.806-1.302-1.611-2.604      c-0.771-1.295-1.543-2.591-1.543-2.591c-0.979-1.751-2.028-2.776-3.224-2.979c-1.193-0.213-2.313,0.769-3.419,3.052      c-1.081,2.223-1.951,4.87-2.606,7.991l-0.489,2.33l-0.489,2.33l-0.489,2.33L1865.759,1967.707z"
/>
<path
   style="fill:#00BF33;"
   d="M1841.459,1960.308l-1.344,3.341l-0.888,2.208l-0.456,1.132l-0.433,1.076l-4.464,11.097      c-1.197,2.947-0.281,5.075,2.812,6.285c3.127,1.106,5.515,0.596,7.01-1.404c0.752-1.003,1.57-1.885,2.443-2.645      c0.436-0.38,0.886-0.729,1.349-1.049c0.467-0.334,0.946-0.637,1.438-0.911c0,0,1.457-0.838,2.914-1.676      c1.424-0.849,2.848-1.697,2.848-1.697c0.938-0.564,1.925-0.968,2.984-1.325c1.06-0.359,2.175-0.604,3.344-0.74l3.516-0.442      l0.489-2.329l0.739-3.524l0.25-1.194l0.489-2.33l-2.77-1.831c-0.904-0.62-1.698-1.318-2.376-2.09      c-0.677-0.774-1.221-1.689-1.653-2.629c0,0-0.624-1.43-1.247-2.86c-0.59-1.419-1.18-2.838-1.18-2.838s-0.596-1.386-1.129-2.847      c-0.524-1.435-1.048-2.87-1.048-2.87c-0.652-1.909-1.537-3.013-2.676-3.428c-1.125-0.449-2.39,0.299-3.871,2.338      c-1.448,1.988-2.779,4.472-3.967,7.423l-0.888,2.208l-0.888,2.208l-0.888,2.208L1841.459,1960.308z"
/>
<path
   style="fill:#75CBEA;"
   d="M1816.866,1972.582c1.84-1.73,3.86-2.951,5.971-3.658c0,0,1.571-0.55,3.141-1.101      c0.777-0.279,1.547-0.557,2.135-0.798c0.582-0.232,0.97-0.387,0.97-0.387c2.055-0.802,4.255-1.094,6.584-0.909      c0,0,0.221,0.016,0.552,0.04c0.331,0.022,0.783,0.026,1.228,0.042c0.89,0.023,1.78,0.047,1.78,0.047l0.888-2.208l1.344-3.341      l0.455-1.132l0.888-2.208c0,0-0.613-0.553-1.226-1.106c-0.304-0.279-0.612-0.545-0.834-0.763      c-0.221-0.22-0.369-0.366-0.369-0.366c-1.545-1.58-2.605-3.385-3.137-5.37c0,0-0.097-0.374-0.242-0.935      c-0.148-0.551-0.322-1.323-0.491-2.088c-0.323-1.521-0.647-3.042-0.647-3.042s-0.311-1.495-0.621-2.991      c-0.142-0.74-0.285-1.48-0.392-2.036c-0.106-0.548-0.162-0.932-0.162-0.932c-0.259-1.735-0.782-2.93-1.597-3.614l-22.728,39.284      C1812.966,1974.313,1815.148,1974.216,1816.866,1972.582z"
/>
<path
   style="fill:#75CBEA;"
   d="M1828.225,1934.988c-1.77,1.691-3.514,3.897-5.202,6.594l-1.263,2.018l-1.263,2.018l-1.263,2.018      l-0.647,1.034l-1.91,3.052l-1.263,2.018l-0.648,1.034l-0.615,0.983l-6.346,10.139c-1.685,2.673-1.218,5.022,1.677,6.648      c0.3,0.173,0.593,0.317,0.884,0.454l22.693-39.223c-0.179-0.176-0.369-0.331-0.58-0.452      C1831.426,1932.72,1830.025,1933.271,1828.225,1934.988z"
/>
<path
   style="fill:#00BF33;"
   d="M1798.291,1933.385l-2.409,2.676l-1.593,1.769l-0.817,0.907l-0.776,0.862l-8.004,8.889      c-2.136,2.357-1.998,4.655,0.511,6.823c0.625,0.54,1.243,0.972,1.849,1.294c0.613,0.314,1.232,0.497,1.824,0.586      c1.19,0.171,2.315-0.089,3.368-0.775c2.107-1.372,4.298-2.206,6.484-2.515c0,0,0.411-0.062,1.027-0.155      c0.622-0.111,1.451-0.26,2.28-0.409c1.635-0.316,3.27-0.631,3.27-0.631c2.158-0.423,4.319-0.243,6.639,0.259l3.468,0.774      l1.263-2.018l1.91-3.052l0.647-1.034l1.263-2.018l-1.985-2.65c-1.304-1.737-1.975-3.783-2.147-5.837c0,0-0.1-1.549-0.199-3.098      c-0.038-0.765-0.077-1.531-0.105-2.105c-0.013-0.584-0.022-0.974-0.022-0.974s-0.033-1.542-0.067-3.083      c-0.007-1.519-0.014-3.038-0.014-3.038c0.014-1-0.091-1.837-0.32-2.517c-0.208-0.705-0.538-1.256-0.997-1.654      c-0.916-0.796-2.372-0.52-4.47,0.892c-2.05,1.375-4.156,3.254-6.285,5.618l-1.593,1.769l-1.593,1.769l-1.593,1.769      L1798.291,1933.385z"
/>
<path
   style="fill:#75CBEA;"
   d="M1780.972,1914.795l-2.835,2.22l-1.874,1.468l-0.961,0.752l-0.913,0.715l-9.417,7.375      c-2.503,1.947-2.808,4.271-0.715,6.842c2.162,2.509,4.454,3.283,6.751,2.299c1.153-0.492,2.295-0.839,3.436-1.065      c1.152-0.236,2.293-0.342,3.413-0.32c0,0,1.674,0.01,3.349,0.021c1.651-0.016,3.302-0.031,3.302-0.031      c2.162-0.008,4.384,0.415,6.516,1.38c0,0,0.813,0.353,1.626,0.707c0.801,0.362,1.639,0.672,1.639,0.672l1.593-1.769l2.409-2.676      l0.816-0.907l1.593-1.769c0,0-0.401-0.718-0.756-1.478c-0.362-0.747-0.725-1.494-0.725-1.494c-0.917-2.007-1.351-4.01-1.129-6.1      c0,0,0.182-1.556,0.365-3.112c0.206-1.53,0.411-3.06,0.411-3.06s0.19-1.511,0.424-3.01c0.269-1.51,0.538-3.02,0.538-3.02      c0.391-1.981,0.201-3.404-0.598-4.32c-0.78-0.929-2.222-0.941-4.53,0.087c-2.247,0.993-4.641,2.477-7.146,4.438l-1.874,1.468      l-1.874,1.468l-1.874,1.468L1780.972,1914.795z"
/>
<path
   style="fill:#00BF33;"
   d="M1767.09,1893.519l-3.177,1.695l-2.1,1.12l-1.077,0.575l-1.023,0.546l-10.553,5.631      c-1.404,0.748-2.283,1.673-2.617,2.786c-0.307,1.097-0.048,2.371,0.775,3.806c0.824,1.435,1.764,2.451,2.797,3.033      c1.032,0.584,2.213,0.701,3.432,0.417c2.456-0.578,4.812-0.624,6.988-0.179c0,0,1.632,0.31,3.263,0.621      c0.806,0.152,1.654,0.265,2.267,0.362c0.619,0.091,1.031,0.151,1.031,0.151c2.176,0.335,4.217,1.189,6.138,2.516l3.03,1.883      l1.874-1.468l2.835-2.22l0.96-0.752l1.874-1.468l-0.997-3.143c-0.545-2.143-0.551-4.245-0.016-6.233c0,0,0.104-0.373,0.26-0.933      c0.163-0.562,0.355-1.289,0.598-2.041c0.483-1.482,0.966-2.963,0.966-2.963s0.482-1.453,0.964-2.907      c0.499-1.423,0.998-2.846,0.998-2.846c0.724-1.88,0.826-3.338,0.214-4.386c-0.604-1.051-2.081-1.278-4.537-0.663      c-2.373,0.583-4.982,1.627-7.789,3.124l-2.1,1.121l-2.1,1.121l-2.1,1.121L1767.09,1893.519z"
/>
<path
   style="fill:#75CBEA;"
   d="M1757.15,1870.142l-3.424,1.115l-2.263,0.737l-1.16,0.378l-1.103,0.359l-11.374,3.703      c-3.028,0.975-4.065,3.041-2.994,6.185c0.134,0.392,0.279,0.759,0.436,1.101c0.171,0.337,0.355,0.649,0.549,0.936      c0.387,0.574,0.818,1.049,1.288,1.421c0.941,0.746,2.042,1.084,3.295,1.016c2.513-0.138,4.798,0.245,6.87,1.059      c0,0,1.582,0.577,3.164,1.155c1.569,0.545,3.137,1.09,3.137,1.09c1.029,0.36,2.003,0.843,2.921,1.442      c0.946,0.586,1.861,1.278,2.716,2.087l2.605,2.408l2.1-1.12l3.177-1.695l1.076-0.574l2.1-1.121l-0.384-3.295      c-0.105-1.091-0.091-2.143,0.075-3.163c0.194-1.033,0.515-2.022,0.964-2.961c0,0,0.692-1.395,1.384-2.789      c0.705-1.362,1.41-2.724,1.41-2.724s0.163-0.334,0.448-0.847c0.281-0.506,0.656-1.181,1.031-1.855      c0.759-1.321,1.518-2.643,1.518-2.643c0.516-0.86,0.847-1.639,0.993-2.343c0.073-0.352,0.1-0.686,0.08-1.001      c-0.006-0.321-0.053-0.626-0.15-0.913c-0.384-1.148-1.775-1.636-4.292-1.462c-2.457,0.167-5.218,0.742-8.243,1.726l-2.264,0.737      l-2.263,0.737l-2.264,0.737L1757.15,1870.142z"
/>
<path
   style="fill:#00BF33;"
   d="M1751.436,1845.393l-3.566,0.5l-2.357,0.331l-1.208,0.17l-1.149,0.161l-11.845,1.661      c-3.136,0.429-4.626,2.296-4.009,5.56c0.589,3.263,2.133,5.094,4.649,5.387c2.51,0.301,4.747,1.066,6.648,2.229      c0,0,1.434,0.851,2.867,1.701c0.714,0.411,1.428,0.822,1.963,1.13c0.552,0.297,0.92,0.495,0.92,0.495      c1.94,1.059,3.583,2.556,4.946,4.459c0,0,0.13,0.179,0.326,0.448c0.201,0.267,0.442,0.63,0.73,0.977      c0.557,0.696,1.115,1.392,1.115,1.392l2.263-0.737l3.424-1.115l1.16-0.378l2.264-0.737c0,0,0.027-0.824,0.053-1.648      c0.005-0.408,0.057-0.828,0.077-1.137c0.025-0.31,0.042-0.517,0.042-0.517c0.211-2.196,0.908-4.165,2.082-5.846      c0,0,0.224-0.314,0.561-0.786c0.356-0.47,0.831-1.096,1.305-1.722c0.955-1.223,1.91-2.446,1.91-2.446s0.944-1.197,1.888-2.394      c0.474-0.584,0.949-1.168,1.305-1.606c0.376-0.435,0.627-0.726,0.627-0.726c1.348-1.521,1.915-2.848,1.7-4.042      c-0.209-1.193-1.547-1.909-4.016-2.183c-2.432-0.268-5.242-0.185-8.393,0.257l-2.357,0.331l-2.357,0.331l-2.357,0.331      L1751.436,1845.393z"
/>
<path
   style="fill:#75CBEA;"
   d="M1750.106,1820.02l-3.599-0.12l-2.379-0.079l-1.22-0.041l-1.159-0.039l-11.955-0.398      c-3.179-0.116-4.863,1.467-4.939,4.778c-0.003,3.306,1.326,5.369,3.709,6.092c2.407,0.729,4.426,1.869,6.086,3.342      c0,0,1.289,1.084,2.579,2.167c1.288,1.049,2.576,2.098,2.576,2.098c0.844,0.691,1.594,1.478,2.253,2.356      c0.648,0.879,1.304,1.84,1.823,2.893l1.631,3.154l2.357-0.331l3.566-0.5l1.208-0.169l2.357-0.331l0.76-3.225      c0.281-1.061,0.622-2.041,1.167-2.946c0.535-0.904,1.175-1.724,1.918-2.452c0,0,1.127-1.073,2.253-2.147      c1.128-1.039,2.255-2.077,2.255-2.077s0.272-0.258,0.715-0.643c0.438-0.38,1.021-0.887,1.605-1.394      c1.166-0.985,2.333-1.969,2.333-1.969c1.576-1.268,2.278-2.482,2.314-3.7c0.035-1.216-1.101-2.153-3.525-2.85      c-2.364-0.683-5.154-1.085-8.334-1.191l-2.379-0.079l-2.379-0.079l-2.379-0.079L1750.106,1820.02z"
/>
<path
   style="fill:#00BF33;"
   d="M1753.12,1794.794l-3.524-0.741l-2.329-0.49l-1.194-0.251l-1.135-0.239l-11.706-2.461      c-1.55-0.327-2.839-0.187-3.785,0.457c-0.938,0.644-1.561,1.787-1.853,3.417c-0.291,1.63-0.225,3.012,0.191,4.122      c0.42,1.111,1.249,1.959,2.366,2.524c2.254,1.134,4.091,2.612,5.474,4.35c0,0,1.052,1.286,2.105,2.571      c0.517,0.633,1.078,1.263,1.496,1.732c0.417,0.467,0.695,0.778,0.695,0.778c1.456,1.654,2.483,3.619,3.104,5.87      c0,0,0.06,0.213,0.151,0.532c0.094,0.319,0.244,0.744,0.383,1.168c0.283,0.844,0.567,1.688,0.567,1.688l2.379,0.079l3.599,0.12      l1.219,0.041l2.379,0.079c0,0,0.309-0.766,0.618-1.532c0.157-0.381,0.302-0.762,0.43-1.046c0.131-0.283,0.218-0.472,0.218-0.472      c0.957-1.994,2.292-3.609,3.976-4.791c0,0,0.318-0.219,0.796-0.549c0.477-0.328,1.107-0.76,1.779-1.18      c1.321-0.826,2.642-1.651,2.642-1.651s1.302-0.805,2.604-1.61c1.295-0.771,2.591-1.541,2.591-1.541      c1.757-0.977,2.778-2.027,2.982-3.223c0.213-1.193-0.769-2.314-3.052-3.42c-2.216-1.081-4.868-1.953-7.987-2.609l-2.33-0.49      l-2.329-0.49l-2.329-0.49L1753.12,1794.794z"
/>
<path
   style="fill:#75CBEA;"
   d="M1760.528,1770.497l-3.34-1.345l-2.208-0.889l-1.132-0.456l-1.076-0.433l-11.095-4.469      c-2.947-1.198-5.075-0.283-6.285,2.81c-1.112,3.125-0.598,5.514,1.4,7.01c1.003,0.752,1.885,1.571,2.645,2.444      c0.753,0.871,1.398,1.8,1.956,2.786c0,0,0.838,1.458,1.675,2.916c0.849,1.424,1.697,2.849,1.697,2.849      c0.563,0.938,0.971,1.927,1.321,2.984c0.359,1.06,0.604,2.175,0.74,3.345l0.441,3.517l2.329,0.49l3.524,0.741l1.194,0.251      l2.329,0.49l1.831-2.77c0.62-0.904,1.318-1.698,2.09-2.375c0.781-0.676,1.691-1.22,2.632-1.652c0,0,1.43-0.623,2.86-1.246      c1.419-0.59,2.838-1.179,2.838-1.179s1.389-0.595,2.85-1.127c1.435-0.523,2.87-1.047,2.87-1.047      c1.91-0.651,3.009-1.537,3.43-2.674c0.449-1.125-0.299-2.391-2.337-3.873c-1.988-1.449-4.471-2.782-7.422-3.971l-2.208-0.889      l-2.208-0.889l-2.208-0.889L1760.528,1770.497z"
/>
<path
   style="fill:#00BF33;"
   d="M1772.036,1747.853l-3.055-1.906l-2.019-1.26l-1.035-0.646l-0.984-0.614l-10.148-6.333      c-2.682-1.686-5.015-1.206-6.642,1.688c-1.641,2.88-1.652,5.264,0.112,7.116c1.729,1.841,2.95,3.862,3.657,5.973      c0,0,0.55,1.571,1.1,3.142c0.538,1.548,1.182,3.104,1.182,3.104c0.802,2.055,1.094,4.256,0.908,6.586      c0,0-0.074,0.88-0.084,1.779c-0.023,0.89-0.047,1.78-0.047,1.78l2.208,0.889l3.34,1.345l1.131,0.456l2.208,0.889      c0,0,0.553-0.613,1.106-1.226c0.538-0.616,1.132-1.201,1.132-1.201c1.58-1.545,3.385-2.604,5.369-3.135      c0,0,1.478-0.404,3.026-0.731c1.52-0.323,3.041-0.646,3.041-0.646s1.495-0.31,2.991-0.62c0.74-0.142,1.48-0.285,2.035-0.392      c0.547-0.106,0.934-0.161,0.934-0.161c2.012-0.3,3.301-0.953,3.904-2.006c0.61-1.047,0.041-2.457-1.676-4.253      c-1.693-1.767-3.901-3.508-6.6-5.193l-2.019-1.26l-2.019-1.26l-2.02-1.26L1772.036,1747.853z"
/>
<path
   style="fill:#75CBEA;"
   d="M1787.298,1727.54l-2.679-2.406l-1.771-1.59l-0.908-0.815l-0.863-0.775l-8.9-7.992      c-2.36-2.133-4.659-1.993-6.827,0.517c-0.54,0.626-0.973,1.242-1.293,1.85c-0.3,0.624-0.493,1.235-0.578,1.829      c-0.171,1.19,0.091,2.314,0.778,3.365c1.374,2.104,2.21,4.293,2.52,6.478c0,0,0.051,0.404,0.164,1.032      c0.112,0.621,0.261,1.45,0.41,2.278c0.317,1.634,0.633,3.267,0.633,3.267c0.417,2.152,0.255,4.322-0.248,6.641l-0.773,3.467      l2.019,1.26l3.055,1.906l1.035,0.646l2.02,1.26l2.651-1.986c1.74-1.303,3.77-1.988,5.832-2.156c0,0,1.55-0.101,3.1-0.202      c0.766-0.039,1.532-0.078,2.106-0.107c0.568-0.029,0.966-0.028,0.966-0.028s1.543-0.035,3.086-0.069      c1.52-0.008,3.04-0.017,3.04-0.017c1,0.013,1.838-0.093,2.519-0.322c0.691-0.221,1.253-0.542,1.648-1.003      c0.796-0.916,0.519-2.37-0.894-4.466c-1.377-2.048-3.258-4.151-5.625-6.277l-1.771-1.59l-1.771-1.59l-1.771-1.59      L1787.298,1727.54z"
/>
<path
   style="fill:#00BF33;"
   d="M1805.862,1710.194l-2.224-2.832l-1.47-1.872l-0.754-0.96l-0.716-0.912l-7.388-9.407      c-1.947-2.497-4.282-2.811-6.841-0.703c-2.509,2.162-3.281,4.454-2.295,6.749c0.969,2.286,1.436,4.609,1.398,6.85      c0,0-0.009,1.673-0.018,3.347c0.017,1.65,0.033,3.3,0.033,3.3c0.023,2.174-0.408,4.386-1.369,6.52c0,0-0.353,0.813-0.706,1.625      c-0.176,0.405-0.352,0.807-0.466,1.125c-0.119,0.312-0.199,0.52-0.199,0.52l1.771,1.59l2.679,2.406l0.908,0.815l1.771,1.59      c0,0,0.181-0.099,0.453-0.247c0.266-0.153,0.643-0.334,1.019-0.516c0.747-0.363,1.494-0.725,1.494-0.725      c2.005-0.921,4.019-1.346,6.096-1.139c0,0,1.557,0.182,3.115,0.363c1.531,0.205,3.063,0.409,3.063,0.409      s1.504,0.208,3.007,0.416c1.511,0.268,3.022,0.536,3.022,0.536c1.983,0.389,3.407,0.199,4.323-0.6      c0.917-0.795,0.937-2.224-0.096-4.534c-0.996-2.245-2.482-4.636-4.447-7.139l-1.47-1.872l-1.47-1.872l-1.47-1.872      L1805.862,1710.194z"
/>
<path
   style="fill:#75CBEA;"
   d="M1807.491,1682.768c0.58,2.454,0.629,4.809,0.186,6.984c0,0-0.309,1.631-0.618,3.262      c-0.274,1.654-0.505,3.304-0.505,3.304c-0.331,2.178-1.191,4.207-2.506,6.143l-1.881,3.029l1.47,1.872l2.224,2.832l0.753,0.959      l1.47,1.872l3.145-0.998c2.133-0.561,4.244-0.557,6.232-0.026c0,0,1.497,0.406,2.972,0.848c1.483,0.482,2.966,0.965,2.966,0.965      s1.455,0.481,2.91,0.962c1.424,0.498,2.849,0.996,2.849,0.996c1.611,0.604,2.93,0.782,3.926,0.413l-22.728-39.284      c-1.219,0.796-2.079,1.685-2.566,2.655C1807.319,1680.553,1807.223,1681.632,1807.491,1682.768z"
/>
<path
   style="fill:#75CBEA;"
   d="M1834.406,1711.329c-0.583-2.373-1.625-4.983-3.121-7.791l-1.12-2.101l-1.12-2.101l-1.12-2.101      l-0.574-1.077l-1.694-3.177l-1.12-2.1l-0.574-1.077l-0.546-1.024l-5.626-10.556c-0.748-1.404-1.672-2.284-2.785-2.618      c-1.1-0.313-2.371-0.051-3.808,0.772c-0.301,0.173-0.572,0.353-0.836,0.536l22.693,39.223c0.242-0.066,0.473-0.152,0.683-0.273      C1834.792,1715.262,1835.017,1713.78,1834.406,1711.329z"
/>
<path
   style="fill:#00BF33;"
   d="M1850.733,1686.229l-1.113-3.424l-0.736-2.263l-0.377-1.161l-0.359-1.103l-3.698-11.376      c-0.974-3.028-3.039-4.066-6.183-2.995c-1.578,0.507-2.709,1.347-3.461,2.27c-0.746,0.941-1.085,2.042-1.017,3.295      c0.137,2.512-0.246,4.802-1.063,6.868c0,0-0.578,1.582-1.156,3.164c-0.545,1.569-1.091,3.138-1.091,3.138      c-0.36,1.03-0.843,2.003-1.443,2.922c-0.589,0.941-1.279,1.86-2.089,2.714l-2.408,2.605l1.12,2.1l1.694,3.177l0.574,1.077      l1.12,2.101l3.295-0.383c1.091-0.104,2.141-0.094,3.164,0.078c1.033,0.194,2.022,0.515,2.96,0.965c0,0,1.394,0.692,2.788,1.384      c1.361,0.705,2.723,1.41,2.723,1.41s0.335,0.167,0.848,0.452c0.506,0.281,1.18,0.656,1.855,1.031      c1.321,0.759,2.642,1.518,2.642,1.518c0.86,0.516,1.638,0.847,2.342,0.994c0.352,0.074,0.685,0.098,1.002,0.082      c0.322-0.003,0.626-0.053,0.913-0.149c1.148-0.384,1.637-1.775,1.463-4.292c-0.166-2.458-0.74-5.219-1.723-8.245l-0.736-2.264      l-0.736-2.264l-0.736-2.264L1850.733,1686.229z"
/>
<path
   style="fill:#75CBEA;"
   d="M1875.484,1680.527l-0.499-3.566l-0.329-2.357l-0.169-1.209l-0.161-1.149l-1.656-11.846      c-0.428-3.133-2.294-4.631-5.558-4.013c-3.264,0.588-5.094,2.136-5.389,4.645c-0.302,2.51-1.068,4.747-2.232,6.649      c0,0-0.851,1.434-1.702,2.867c-0.411,0.714-0.822,1.428-1.13,1.963c-0.298,0.55-0.496,0.916-0.496,0.916      c-1.06,1.94-2.558,3.584-4.461,4.946c0,0-0.722,0.51-1.426,1.053c-0.696,0.557-1.393,1.115-1.393,1.115l0.736,2.263l1.113,3.424      l0.377,1.16l0.736,2.264c0,0,0.824,0.027,1.647,0.054c0.826,0.042,1.655,0.122,1.655,0.122c2.196,0.211,4.164,0.908,5.844,2.082      c0,0,0.314,0.226,0.786,0.565c0.469,0.356,1.095,0.831,1.721,1.305c1.223,0.955,2.445,1.911,2.445,1.911      s1.196,0.944,2.393,1.889c0.584,0.475,1.168,0.951,1.605,1.307c0.435,0.377,0.726,0.628,0.726,0.628      c1.52,1.348,2.847,1.915,4.041,1.7c1.193-0.212,1.91-1.543,2.185-4.013c0.269-2.432,0.187-5.242-0.253-8.393l-0.33-2.357      l-0.33-2.358l-0.329-2.357L1875.484,1680.527z"
/>
<path
   style="fill:#00BF33;"
   d="M1900.859,1679.207l0.122-3.599l0.08-2.379l0.041-1.22l0.039-1.159l0.403-11.955      c0.117-3.179-1.465-4.863-4.775-4.939c-3.306-0.01-5.37,1.324-6.094,3.705c-0.73,2.405-1.871,4.429-3.345,6.083      c0,0-1.084,1.289-2.169,2.579c-1.05,1.288-2.099,2.576-2.099,2.576c-0.691,0.844-1.479,1.594-2.357,2.253      c-0.88,0.641-1.841,1.302-2.895,1.82l-3.155,1.631l0.329,2.357l0.499,3.566l0.169,1.208l0.329,2.357l3.225,0.76      c1.061,0.283,2.04,0.618,2.946,1.17c0.904,0.535,1.723,1.175,2.451,1.918c0,0,1.073,1.127,2.146,2.253      c1.038,1.128,2.076,2.255,2.076,2.255s0.259,0.276,0.643,0.719c0.38,0.438,0.887,1.021,1.393,1.604      c0.984,1.166,1.969,2.333,1.969,2.333c1.268,1.577,2.481,2.275,3.699,2.317c1.215,0.035,2.154-1.102,2.852-3.525      c0.685-2.364,1.087-5.154,1.195-8.334l0.08-2.379l0.08-2.379l0.08-2.379L1900.859,1679.207z"
/>
<path
   style="fill:#75CBEA;"
   d="M1926.083,1682.234l0.742-3.523l0.491-2.329l0.252-1.194l0.239-1.135l2.466-11.704      c0.328-1.552,0.187-2.836-0.455-3.788c-0.644-0.937-1.786-1.561-3.416-1.853c-1.63-0.291-3.012-0.226-4.122,0.191      c-1.11,0.413-1.959,1.246-2.525,2.363c-1.135,2.254-2.614,4.09-4.353,5.474c0,0-1.286,1.052-2.572,2.104      c-0.634,0.517-1.263,1.072-1.732,1.493c-0.467,0.417-0.778,0.695-0.778,0.695c-1.655,1.456-3.62,2.482-5.872,3.104      c0,0-0.852,0.232-1.699,0.531c-0.844,0.283-1.688,0.567-1.688,0.567l-0.08,2.379l-0.122,3.599l-0.041,1.219l-0.08,2.379      c0,0,0.766,0.309,1.532,0.618c0.764,0.293,1.517,0.652,1.517,0.652c1.993,0.958,3.609,2.292,4.79,3.976      c0,0,0.219,0.318,0.548,0.796c0.328,0.474,0.759,1.11,1.179,1.782c0.825,1.321,1.65,2.642,1.65,2.642s0.804,1.302,1.609,2.604      c0.77,1.295,1.54,2.59,1.54,2.59c0.975,1.764,2.026,2.779,3.221,2.985c1.193,0.213,2.314-0.769,3.422-3.052      c1.081-2.21,1.955-4.866,2.612-7.983l0.491-2.329l0.491-2.329l0.491-2.329L1926.083,1682.234z"
/>
<path
   style="fill:#00BF33;"
   d="M1950.377,1689.652l1.347-3.339l0.89-2.207l0.456-1.132l0.434-1.076l4.474-11.093      c1.199-2.946,0.285-5.074-2.808-6.284c-3.123-1.119-5.514-0.6-7.01,1.396c-0.753,1.002-1.572,1.884-2.446,2.644      c-0.872,0.755-1.8,1.394-2.786,1.952c0,0-1.458,0.837-2.916,1.675c-1.425,0.848-2.85,1.697-2.85,1.697      c-0.938,0.561-1.928,0.974-2.984,1.318c-1.06,0.359-2.176,0.604-3.345,0.739l-3.517,0.441l-0.491,2.329l-0.742,3.523      l-0.252,1.194l-0.491,2.329l2.769,1.831c0.904,0.62,1.698,1.318,2.375,2.09c0.674,0.787,1.219,1.692,1.65,2.635      c0,0,0.622,1.43,1.245,2.859c0.589,1.419,1.178,2.837,1.178,2.837s0.146,0.35,0.365,0.875c0.217,0.524,0.489,1.261,0.76,1.977      c0.523,1.435,1.046,2.869,1.046,2.869c0.65,1.911,1.537,3.006,2.672,3.433c1.125,0.448,2.391-0.299,3.875-2.337      c1.451-1.987,2.784-4.47,3.974-7.421l0.891-2.208l0.89-2.208l0.89-2.208L1950.377,1689.652z"
/>
<path
   style="fill:#75CBEA;"
   d="M1973.015,1701.172l1.908-3.054l1.261-2.019l0.646-1.035l0.615-0.984l6.337-10.145      c1.686-2.679,1.21-5.018-1.684-6.644c-2.88-1.642-5.265-1.651-7.116,0.108c-1.842,1.729-3.864,2.949-5.976,3.655      c0,0-1.572,0.55-3.143,1.1c-1.549,0.538-3.104,1.178-3.104,1.178c-2.056,0.801-4.257,1.093-6.587,0.907      c0,0-0.879-0.078-1.778-0.088c-0.89-0.023-1.781-0.047-1.781-0.047l-0.89,2.207l-1.347,3.339l-0.456,1.131l-0.89,2.208      c0,0,0.613,0.553,1.226,1.106c0.616,0.537,1.199,1.135,1.199,1.135c1.544,1.58,2.603,3.384,3.134,5.368      c0,0,0.402,1.481,0.729,3.028c0.323,1.52,0.645,3.04,0.645,3.04s0.31,1.495,0.619,2.99c0.142,0.74,0.284,1.48,0.391,2.035      c0.105,0.547,0.159,0.937,0.159,0.937c0.299,2.011,0.952,3.3,2.005,3.903c1.049,0.607,2.456,0.045,4.253-1.673      c1.768-1.692,3.51-3.899,5.196-6.598l1.261-2.019l1.261-2.019l1.261-2.019L1973.015,1701.172z"
/>
<path
   style="fill:#00BF33;"
   d="M1993.322,1716.441l2.407-2.678l1.591-1.77l0.816-0.907l0.776-0.863l7.996-8.896      c2.134-2.359,1.994-4.658-0.515-6.826c-0.625-0.54-1.243-0.972-1.849-1.294c-0.621-0.304-1.234-0.494-1.828-0.58      c-1.19-0.171-2.314,0.09-3.366,0.777c-2.105,1.373-4.295,2.209-6.48,2.518c0,0-0.406,0.053-1.03,0.161      c-0.621,0.112-1.45,0.261-2.279,0.41c-1.634,0.316-3.268,0.632-3.268,0.632c-2.154,0.419-4.321,0.251-6.641-0.252l-3.467-0.773      l-1.261,2.019l-1.908,3.054l-0.646,1.035l-1.261,2.019l1.986,2.651c1.303,1.739,1.983,3.774,2.153,5.834      c0,0,0.1,1.549,0.201,3.099c0.039,0.766,0.077,1.531,0.106,2.105c0.016,0.581,0.026,0.969,0.026,0.969s0.034,1.542,0.068,3.085      c0.008,1.52,0.016,3.039,0.016,3.039c-0.013,1,0.092,1.838,0.321,2.518c0.216,0.696,0.54,1.254,1.001,1.65      c0.916,0.796,2.371,0.52,4.467-0.894c2.048-1.377,4.153-3.257,6.28-5.623l1.591-1.77l1.591-1.771l1.591-1.77L1993.322,1716.441z      "
/>
<path
   style="fill:#75CBEA;"
   d="M2010.659,1735.014l2.833-2.223l1.873-1.469l0.96-0.753l0.913-0.716l9.411-7.383      c2.499-1.947,2.81-4.278,0.707-6.841c-2.162-2.509-4.454-3.282-6.75-2.296c-1.154,0.494-2.289,0.836-3.439,1.071      c-1.152,0.237-2.292,0.344-3.411,0.322c0,0-1.674-0.01-3.347-0.019c-1.651,0.016-3.301,0.032-3.301,0.032      c-2.17,0.017-4.385-0.411-6.518-1.373c0,0-0.813-0.353-1.626-0.706c-0.8-0.363-1.643-0.667-1.643-0.667l-1.591,1.77      l-2.407,2.678l-0.815,0.907l-1.591,1.77c0,0,0.407,0.713,0.76,1.474c0.362,0.747,0.725,1.494,0.725,1.494      c0.919,2.006,1.348,4.016,1.136,6.098c0,0-0.182,1.557-0.364,3.114c-0.205,1.531-0.41,3.062-0.41,3.062      s-0.209,1.504-0.418,3.008c-0.269,1.511-0.537,3.022-0.537,3.022c-0.39,1.983-0.2,3.406,0.599,4.322      c0.79,0.921,2.224,0.938,4.532-0.093c2.245-0.995,4.638-2.48,7.141-4.444l1.873-1.469l1.873-1.469l1.873-1.469      L2010.659,1735.014z"
/>
<path
   style="fill:#00BF33;"
   d="M2024.563,1756.275l3.175-1.698l2.099-1.122l1.076-0.575l1.023-0.547l10.548-5.641      c1.401-0.749,2.286-1.678,2.612-2.787c0.304-1.096,0.047-2.371-0.778-3.806c-0.825-1.435-1.764-2.45-2.797-3.032      c-1.043-0.577-2.216-0.698-3.436-0.411c-2.455,0.579-4.81,0.627-6.985,0.184c0,0-1.631-0.309-3.262-0.619      c-1.649-0.278-3.302-0.507-3.302-0.507c-2.177-0.332-4.21-1.19-6.142-2.509l-3.029-1.882l-1.873,1.469l-2.833,2.223l-0.96,0.753      l-1.873,1.469l0.998,3.144c0.556,2.136,0.555,4.244,0.023,6.232c0,0-0.403,1.494-0.851,2.973      c-0.483,1.483-0.965,2.965-0.965,2.965s-0.481,1.454-0.963,2.909c-0.498,1.424-0.997,2.848-0.997,2.848      c-0.712,1.875-0.822,3.338-0.208,4.385c0.604,1.05,2.078,1.278,4.538,0.659c2.378-0.589,4.982-1.632,7.789-3.132l2.099-1.123      l2.099-1.122l2.099-1.123L2024.563,1756.275z"
/>
<path
   style="fill:#75CBEA;"
   d="M2034.52,1779.644l3.423-1.118l2.263-0.739l1.16-0.379l1.103-0.36l11.371-3.713      c3.027-0.978,4.063-3.045,2.992-6.19c-0.256-0.788-0.599-1.463-0.991-2.035c-0.387-0.574-0.817-1.048-1.288-1.421      c-0.94-0.745-2.042-1.083-3.294-1.013c-2.515,0.141-4.791-0.244-6.875-1.052c0,0-1.582-0.576-3.163-1.152      c-1.568-0.544-3.137-1.088-3.137-1.088c-1.029-0.359-2.002-0.841-2.921-1.44c-0.958-0.58-1.864-1.276-2.721-2.083l-2.604-2.407      l-2.099,1.122l-3.175,1.698l-1.076,0.575l-2.099,1.123l0.384,3.296c0.108,1.09,0.086,2.147-0.068,3.161      c-0.193,1.034-0.515,2.024-0.963,2.963c0,0-0.692,1.395-1.383,2.791c-0.705,1.363-1.409,2.726-1.409,2.726      s-0.164,0.335-0.442,0.845c-0.281,0.506-0.656,1.182-1.03,1.857c-0.759,1.322-1.518,2.645-1.518,2.645      c-0.515,0.861-0.847,1.64-0.993,2.345c-0.142,0.703-0.103,1.333,0.076,1.913c0.384,1.148,1.774,1.635,4.29,1.459      c2.457-0.169,5.216-0.746,8.241-1.734l2.263-0.739l2.263-0.739l2.263-0.739L2034.52,1779.644z"
/>
<path
   style="fill:#00BF33;"
   d="M2040.261,1804.387l3.565-0.503l2.357-0.333l1.208-0.171l1.149-0.162l11.844-1.672      c3.141-0.433,4.617-2.299,4.001-5.563c-0.593-3.263-2.126-5.094-4.655-5.382c-2.51-0.299-4.746-1.062-6.647-2.224      c0,0-1.433-0.849-2.867-1.699c-0.715-0.41-1.43-0.82-1.967-1.127c-0.553-0.296-0.922-0.494-0.922-0.494      c-1.94-1.057-3.583-2.554-4.945-4.456c0,0-0.13-0.179-0.326-0.448c-0.195-0.268-0.45-0.627-0.737-0.974      c-0.557-0.696-1.114-1.392-1.114-1.392l-2.263,0.739l-3.423,1.118l-1.16,0.379l-2.263,0.739c0,0-0.027,0.824-0.053,1.648      c-0.006,0.408-0.045,0.825-0.07,1.136c-0.025,0.31-0.042,0.517-0.042,0.517c-0.211,2.197-0.907,4.167-2.081,5.849      c0,0-0.223,0.314-0.558,0.786c-0.355,0.47-0.828,1.096-1.301,1.722c-0.955,1.224-1.91,2.449-1.91,2.449      s-0.944,1.198-1.888,2.396c-0.474,0.584-0.949,1.169-1.305,1.607c-0.372,0.435-0.62,0.725-0.62,0.725      c-1.348,1.522-1.915,2.85-1.7,4.045c0.202,1.194,1.554,1.906,4.021,2.179c2.431,0.266,5.241,0.18,8.391-0.264l2.357-0.333      l2.357-0.333l2.357-0.333L2040.261,1804.387z"
/>
<path
   style="fill:#75CBEA;"
   d="M2063.144,1819.548c-2.41-0.727-4.419-1.865-6.093-3.337c0,0-1.289-1.083-2.579-2.165      c-1.288-1.048-2.576-2.096-2.576-2.096c-0.844-0.69-1.594-1.477-2.252-2.354c-0.661-0.877-1.308-1.839-1.83-2.892l-1.631-3.153      l-2.357,0.333l-3.565,0.503l-1.208,0.17l-2.357,0.333l-0.76,3.227c-0.278,1.061-0.628,2.042-1.16,2.947      c-0.535,0.905-1.175,1.725-1.918,2.454c0,0-1.127,1.074-2.254,2.149c-1.128,1.04-2.255,2.079-2.255,2.079      s-0.265,0.258-0.708,0.644c-0.438,0.38-1.021,0.888-1.605,1.395c-1.167,0.986-2.333,1.972-2.333,1.972      c-1.345,1.095-2.089,2.149-2.245,3.2h45.385C2066.616,1822.053,2065.371,1820.217,2063.144,1819.548z"
/>
<path
   style="fill:#00BF33;"
   d="M1924.682,1818.829l-7.17,0.931c0,0,0.012,0.088,0.029,0.221c0.012,0.133,0.059,0.306,0.063,0.487     c0.014,0.36,0.05,0.719,0.05,0.719s0.043,0.357,0.032,0.725c0.004,0.365,0.029,0.73,0.029,0.73h14.371     c0,0-0.01-0.298-0.025-0.744c-0.025-0.445,0.006-1.045-0.065-1.633c-0.059-0.589-0.067-1.185-0.135-1.622     c-0.058-0.439-0.096-0.731-0.096-0.731L1924.682,1818.829z"
/>
<path
   style="fill:#A81C1C;"
   d="M1916.064,1814.293c0,0,0.119,0.331,0.257,0.655c0.078,0.159,0.121,0.33,0.162,0.455     c0.041,0.125,0.068,0.209,0.068,0.209s0.044,0.125,0.11,0.313c0.082,0.183,0.131,0.446,0.206,0.701     c0.17,0.504,0.266,1.029,0.266,1.029s0.182,0.699,0.16,0.705c0,0,0.028,0.17,0.055,0.34c0.032,0.169,0.064,0.339,0.064,0.339     c0.021-0.005,0.1,0.722,0.1,0.722l7.17-0.931l7.082-0.919c0,0-0.018-0.147-0.05-0.405c-0.021-0.26-0.084-0.625-0.17-1.06     c-0.136-0.879-0.393-2.034-0.688-3.178c-0.176-0.564-0.304-1.142-0.486-1.665c-0.177-0.525-0.342-1.015-0.483-1.435     c-0.327-0.824-0.545-1.374-0.545-1.374l-6.597,2.733L1916.064,1814.293z"
/>
<path
   style="fill:none;"
   d="M1917.512,1819.76c0,0,0.012,0.088,0.029,0.221c0.012,0.133,0.059,0.306,0.063,0.487     c0.014,0.36,0.05,0.719,0.05,0.719"
/>
<path
   style="fill:#00BF33;"
   d="M1913.205,1809.361c0,0,0.057,0.069,0.143,0.173c0.086,0.103,0.176,0.259,0.281,0.403     c0.203,0.294,0.429,0.573,0.417,0.581c0,0,0.07,0.115,0.176,0.287c0.102,0.174,0.268,0.389,0.401,0.623     c0.25,0.476,0.549,0.924,0.529,0.934c0,0,0.08,0.163,0.16,0.326c0.084,0.16,0.169,0.321,0.169,0.321     c0.018-0.008,0.289,0.625,0.289,0.625s0.316,0.651,0.295,0.66l6.68-2.767l6.597-2.733c0,0-0.043-0.142-0.154-0.376     c-0.107-0.235-0.261-0.572-0.445-0.976c-0.166-0.412-0.415-0.867-0.669-1.361c-0.129-0.246-0.249-0.507-0.389-0.763     c-0.147-0.252-0.296-0.509-0.446-0.765c-0.15-0.255-0.286-0.52-0.441-0.767c-0.159-0.245-0.316-0.487-0.467-0.72     c-0.149-0.235-0.293-0.463-0.429-0.679c-0.15-0.207-0.291-0.403-0.422-0.583c-0.258-0.364-0.473-0.667-0.623-0.879     c-0.163-0.203-0.256-0.319-0.256-0.319l-5.662,4.351L1913.205,1809.361z"
/>
<path
   style="fill:none;"
   d="M1916.551,1815.612c0,0-0.027-0.083-0.068-0.209c-0.04-0.125-0.084-0.296-0.162-0.455     c-0.139-0.323-0.257-0.655-0.257-0.655"
/>
<path
   style="fill:#A81C1C;"
   d="M1909.129,1805.287c0,0,0.284,0.233,0.582,0.449c0.276,0.243,0.552,0.486,0.552,0.486     s0.103,0.085,0.258,0.213c0.144,0.14,0.336,0.326,0.528,0.512c0.204,0.173,0.387,0.369,0.519,0.52     c0.138,0.145,0.231,0.241,0.231,0.241s0.13,0.131,0.259,0.262c0.117,0.142,0.234,0.284,0.234,0.284s0.121,0.139,0.242,0.277     c0.125,0.136,0.243,0.277,0.243,0.277s0.105,0.14,0.21,0.279c0.109,0.137,0.217,0.274,0.217,0.274l5.733-4.406l5.662-4.351     c0,0-0.092-0.117-0.254-0.321c-0.167-0.2-0.376-0.509-0.672-0.844c-0.292-0.338-0.632-0.733-0.997-1.155     c-0.391-0.399-0.802-0.83-1.208-1.266c-0.437-0.405-0.867-0.817-1.267-1.207c-0.422-0.365-0.817-0.706-1.155-0.997     c-0.699-0.555-1.165-0.925-1.165-0.925l-4.349,5.664L1909.129,1805.287z"
/>
<path
   style="fill:none;"
   d="M1913.205,1809.361c0,0,0.057,0.069,0.143,0.173c0.086,0.103,0.176,0.259,0.281,0.403     c0.203,0.294,0.429,0.573,0.417,0.581"
/>
<path
   style="fill:#00BF33;"
   d="M1904.229,1802.442c-0.002,0.005,0.087,0.019,0.204,0.083c0.12,0.056,0.279,0.131,0.439,0.206     c0.162,0.069,0.324,0.139,0.446,0.191c0.116,0.064,0.194,0.107,0.194,0.107s0.119,0.062,0.296,0.156     c0.176,0.097,0.429,0.191,0.652,0.344c0.23,0.139,0.464,0.27,0.643,0.364c0.174,0.101,0.282,0.183,0.282,0.183     s0.146,0.095,0.291,0.189c0.148,0.091,0.296,0.182,0.296,0.182s0.041,0.021,0.097,0.06c0.055,0.041,0.128,0.097,0.201,0.152     c0.149,0.107,0.297,0.214,0.297,0.214s0.144,0.098,0.288,0.196c0.143,0.1,0.273,0.218,0.273,0.218l4.403-5.735l4.349-5.664     c0,0-0.115-0.092-0.317-0.255c-0.211-0.149-0.513-0.363-0.874-0.618c-0.179-0.13-0.374-0.271-0.58-0.42     c-0.214-0.135-0.44-0.278-0.674-0.426c-0.463-0.304-0.958-0.625-1.478-0.903c-0.255-0.148-0.509-0.297-0.76-0.443     c-0.253-0.142-0.513-0.26-0.757-0.388c-0.492-0.25-0.942-0.502-1.352-0.666c-0.401-0.183-0.736-0.335-0.97-0.442     c-0.231-0.115-0.373-0.156-0.373-0.156l-2.741,6.594L1904.229,1802.442z"
/>
<path
   style="fill:none;"
   d="M1910.264,1806.222c0,0-0.276-0.243-0.552-0.486c-0.298-0.216-0.582-0.449-0.582-0.449"
/>
<path
   style="fill:#A81C1C;"
   d="M1898.764,1800.989c-0.003,0.014,0.36,0.012,0.704,0.098c0.347,0.071,0.697,0.122,0.697,0.122     c0.006-0.022,0.517,0.132,1.039,0.233c0.512,0.142,1.024,0.283,1.024,0.283c0.007-0.021,0.649,0.218,0.649,0.218     s0.687,0.216,0.68,0.236c0,0,0.167,0.068,0.334,0.136c0.169,0.063,0.338,0.127,0.338,0.127l2.776-6.676l2.741-6.594     c0,0-0.55-0.218-1.374-0.544c-0.42-0.142-0.909-0.308-1.434-0.486c-0.521-0.189-1.101-0.311-1.665-0.489     c-1.143-0.298-2.298-0.557-3.177-0.693c-0.436-0.083-0.8-0.153-1.06-0.173c-0.258-0.031-0.405-0.049-0.405-0.049l-0.927,7.081     L1898.764,1800.989z"
/>
<path
   style="fill:none;"
   d="M1904.229,1802.442c-0.002,0.005,0.087,0.019,0.204,0.083c0.12,0.056,0.279,0.131,0.439,0.206     c0.162,0.069,0.324,0.139,0.446,0.191c0.116,0.064,0.194,0.107,0.194,0.107"
/>
<path
   style="fill:#00BF33;"
   d="M1892.966,1800.987c0,0,0.351-0.054,0.707-0.093c0.36-0.014,0.719-0.049,0.719-0.049     s0.136-0.013,0.34-0.032c0.208,0.003,0.484,0.001,0.76-0.01c0.276-0.024,0.552-0.013,0.759,0.001     c0.207,0.005,0.345,0.009,0.345,0.009s0.187,0,0.375,0c0.184,0.017,0.368,0.034,0.368,0.034s0.175,0.014,0.35,0.028     c0.175,0.01,0.351,0.019,0.351,0.019s0.047-0.001,0.115,0.007c0.068,0.011,0.158,0.025,0.248,0.039     c0.181,0.024,0.362,0.049,0.362,0.049l0.939-7.169l0.927-7.081c0,0-2.351-0.34-4.76-0.327c-2.408-0.012-4.76,0.323-4.76,0.323     l0.922,7.081L1892.966,1800.987z"
/>
<path
   style="fill:none;"
   d="M1898.764,1800.989c-0.003,0.014,0.36,0.012,0.704,0.098c0.347,0.071,0.697,0.122,0.697,0.122"
/>
<path
   style="fill:#A81C1C;"
   d="M1887.5,1802.436c0,0,0.331-0.118,0.655-0.257c0.159-0.077,0.329-0.123,0.455-0.162     c0.125-0.041,0.208-0.068,0.208-0.068s0.125-0.044,0.313-0.11c0.183-0.082,0.445-0.133,0.7-0.207     c0.504-0.169,1.029-0.266,1.029-0.266s0.175-0.043,0.351-0.085c0.173-0.054,0.354-0.075,0.354-0.075s0.17-0.027,0.34-0.055     c0.169-0.032,0.339-0.064,0.339-0.064c0.002,0.007,0.175-0.051,0.358-0.061c0.182-0.02,0.363-0.039,0.363-0.039l-0.933-7.17     l-0.922-7.081c0,0-0.147,0.018-0.405,0.049c-0.26,0.02-0.624,0.086-1.06,0.171c-0.879,0.136-2.034,0.394-3.177,0.69     c-0.564,0.176-1.143,0.303-1.665,0.487c-0.525,0.177-1.015,0.342-1.434,0.484c-0.824,0.327-1.374,0.545-1.374,0.545l2.736,6.596     L1887.5,1802.436z"
/>
<path
   style="fill:none;"
   d="M1894.392,1800.845c0,0-0.358,0.035-0.719,0.049c-0.356,0.038-0.707,0.093-0.707,0.093"
/>
<path
   style="fill:#00BF33;"
   d="M1882.569,1805.298c0,0,0.071-0.059,0.177-0.147c0.106-0.089,0.266-0.18,0.413-0.289     c0.148-0.108,0.296-0.216,0.407-0.297c0.107-0.088,0.189-0.128,0.189-0.128s0.113-0.069,0.282-0.174     c0.171-0.1,0.382-0.265,0.613-0.394c0.468-0.245,0.908-0.541,0.918-0.521c0,0,0.163-0.08,0.326-0.16     c0.161-0.084,0.321-0.169,0.321-0.169c-0.008-0.019,0.657-0.304,0.657-0.304s0.619-0.302,0.627-0.281l-2.77-6.679l-2.736-6.596     c0,0-0.143,0.042-0.375,0.155c-0.236,0.107-0.572,0.261-0.976,0.445c-0.412,0.166-0.867,0.417-1.361,0.669     c-0.246,0.129-0.507,0.248-0.762,0.39c-0.252,0.147-0.509,0.296-0.765,0.445c-0.523,0.28-1.021,0.604-1.487,0.909     c-0.235,0.149-0.463,0.293-0.678,0.43c-0.207,0.15-0.403,0.291-0.583,0.422c-0.361,0.261-0.672,0.466-0.879,0.624     c-0.203,0.163-0.319,0.256-0.319,0.256l4.354,5.66L1882.569,1805.298z"
/>
<path
   style="fill:none;"
   d="M1888.819,1801.949c0,0-0.083,0.027-0.208,0.068c-0.126,0.039-0.296,0.085-0.455,0.162     c-0.323,0.138-0.655,0.257-0.655,0.257"
/>
<path
   style="fill:#A81C1C;"
   d="M1878.519,1809.347c0,0,0.227-0.277,0.437-0.568c0.238-0.269,0.475-0.538,0.475-0.538     s0.087-0.105,0.216-0.262c0.142-0.146,0.331-0.342,0.52-0.537c0.176-0.208,0.378-0.391,0.53-0.527     c0.147-0.141,0.245-0.235,0.245-0.235s0.125-0.123,0.25-0.246c0.135-0.112,0.27-0.223,0.27-0.223s0.139-0.121,0.278-0.242     c0.136-0.124,0.276-0.244,0.276-0.244s0.14-0.105,0.279-0.21c0.137-0.109,0.274-0.217,0.274-0.217l-4.408-5.731l-4.354-5.66     c0,0-0.116,0.092-0.319,0.252c-0.199,0.166-0.506,0.373-0.838,0.668c-0.336,0.29-0.728,0.628-1.148,0.991     c-0.397,0.389-0.824,0.797-1.259,1.2c-0.403,0.434-0.811,0.862-1.2,1.259c-0.363,0.42-0.701,0.812-0.991,1.148     c-0.296,0.331-0.503,0.639-0.669,0.838c-0.16,0.203-0.252,0.319-0.252,0.319l5.659,4.356L1878.519,1809.347z"
/>
<path
   style="fill:none;"
   d="M1882.569,1805.298c0,0,0.071-0.059,0.177-0.147c0.106-0.089,0.266-0.18,0.413-0.289     c0.148-0.108,0.296-0.216,0.407-0.297c0.107-0.088,0.189-0.128,0.189-0.128"
/>
<path
   style="fill:#00BF33;"
   d="M1875.655,1814.277c0.004,0.002,0.021-0.087,0.083-0.204c0.056-0.12,0.132-0.279,0.207-0.439     c0.069-0.162,0.138-0.324,0.19-0.446c0.064-0.116,0.107-0.194,0.107-0.194s0.062-0.118,0.156-0.296     c0.098-0.175,0.19-0.429,0.343-0.652c0.139-0.23,0.27-0.464,0.364-0.643c0.099-0.175,0.182-0.283,0.182-0.283     s0.095-0.146,0.19-0.291c0.091-0.148,0.182-0.296,0.182-0.296s0.024-0.039,0.059-0.098c0.042-0.055,0.097-0.128,0.152-0.201     c0.107-0.149,0.214-0.297,0.214-0.297s0.103-0.152,0.206-0.303c0.108-0.148,0.23-0.287,0.23-0.287l-5.729-4.41l-5.659-4.356     c0,0-0.093,0.116-0.256,0.319c-0.16,0.206-0.363,0.517-0.625,0.878c-0.131,0.181-0.272,0.377-0.422,0.583     c-0.137,0.215-0.281,0.443-0.431,0.678c-0.305,0.466-0.63,0.963-0.91,1.487c-0.149,0.256-0.298,0.513-0.445,0.765     c-0.144,0.254-0.261,0.516-0.391,0.762c-0.252,0.495-0.505,0.948-0.67,1.361c-0.184,0.404-0.337,0.74-0.445,0.976     c-0.116,0.232-0.156,0.375-0.156,0.375l6.595,2.739L1875.655,1814.277z"
/>
<path
   style="fill:none;"
   d="M1879.432,1808.241c0,0-0.237,0.269-0.475,0.538c-0.21,0.291-0.437,0.568-0.437,0.568"
/>
<path
   style="fill:#A81C1C;"
   d="M1874.203,1819.742c0.014,0.003,0.013-0.36,0.098-0.704c0.072-0.347,0.122-0.697,0.122-0.697     c-0.022-0.005,0.13-0.517,0.233-1.039c0.141-0.512,0.283-1.024,0.283-1.024s0.039-0.176,0.109-0.343     c0.06-0.17,0.119-0.34,0.119-0.34s0.205-0.654,0.224-0.647c0,0,0.068-0.167,0.136-0.334c0.063-0.169,0.127-0.338,0.127-0.338     l-6.677-2.773l-6.595-2.739c0,0-0.218,0.55-0.544,1.374c-0.142,0.42-0.307,0.909-0.485,1.434     c-0.187,0.522-0.311,1.101-0.488,1.665c-0.297,1.144-0.555,2.298-0.691,3.177c-0.084,0.436-0.152,0.8-0.172,1.06     c-0.031,0.258-0.049,0.405-0.049,0.405l7.081,0.925L1874.203,1819.742z"
/>
<path
   style="fill:none;"
   d="M1875.655,1814.277c0.004,0.002,0.021-0.087,0.083-0.204c0.056-0.12,0.132-0.279,0.207-0.439     c0.069-0.162,0.138-0.324,0.19-0.446c0.064-0.116,0.107-0.194,0.107-0.194"
/>
<path
   style="fill:#00BF33;"
   d="M1874.203,1825.54c0,0-0.047-0.354-0.094-0.707c-0.014-0.36-0.049-0.719-0.049-0.719     s-0.013-0.136-0.033-0.339c0.003-0.208,0.001-0.484-0.01-0.76c-0.023-0.276-0.015-0.552,0-0.759     c0.005-0.207,0.009-0.345,0.009-0.345s0-0.187,0.001-0.375c0.01-0.186,0.033-0.369,0.033-0.369s0.014-0.175,0.028-0.35     c0.01-0.175,0.019-0.351,0.019-0.351s0.002-0.046,0.006-0.115c0.011-0.068,0.025-0.158,0.039-0.248     c0.025-0.181,0.049-0.362,0.049-0.362l-7.17-0.936l-7.081-0.925c0,0-0.337,2.352-0.326,4.76c-0.012,2.408,0.326,4.76,0.326,4.76     l7.081-0.925L1874.203,1825.54z"
/>
<path
   style="fill:none;"
   d="M1874.423,1818.342c0,0-0.051,0.35-0.122,0.697c-0.084,0.344-0.084,0.707-0.098,0.704"
/>
<path
   style="fill:#A81C1C;"
   d="M1875.655,1831.006c0,0-0.121-0.34-0.263-0.672c-0.08-0.163-0.123-0.339-0.166-0.467     c-0.042-0.128-0.07-0.214-0.07-0.214s-0.193-0.487-0.31-0.997c-0.167-0.496-0.262-1.012-0.262-1.012s-0.042-0.175-0.085-0.351     c-0.053-0.173-0.076-0.353-0.076-0.353s-0.029-0.179-0.058-0.358c-0.034-0.178-0.068-0.356-0.068-0.356     c-0.02,0.005-0.094-0.686-0.094-0.686l-7.17,0.936l-7.081,0.925c0,0,0.018,0.147,0.049,0.405c0.02,0.26,0.088,0.624,0.172,1.06     c0.136,0.879,0.394,2.034,0.691,3.177c0.177,0.564,0.302,1.143,0.488,1.665c0.177,0.525,0.343,1.015,0.485,1.434     c0.327,0.824,0.544,1.374,0.544,1.374l6.595-2.739L1875.655,1831.006z"
/>
<path
   style="fill:none;"
   d="M1874.061,1824.115c0,0,0.035,0.358,0.049,0.719c0.047,0.354,0.094,0.707,0.094,0.707"
/>
<path
   style="fill:#00BF33;"
   d="M1878.497,1835.907c0,0-0.057-0.069-0.143-0.172c-0.083-0.106-0.175-0.26-0.28-0.404     c-0.205-0.292-0.427-0.574-0.415-0.582c0,0-0.07-0.115-0.176-0.287c-0.102-0.174-0.27-0.388-0.4-0.624     c-0.252-0.475-0.548-0.925-0.528-0.935c0,0-0.076-0.155-0.152-0.309c-0.08-0.153-0.161-0.305-0.161-0.305     c-0.019,0.008-0.304-0.656-0.304-0.656s-0.073-0.156-0.145-0.312c-0.082-0.152-0.137-0.315-0.137-0.315l-6.677,2.773     l-6.595,2.739c0,0,0.04,0.142,0.155,0.373c0.107,0.234,0.259,0.568,0.442,0.97c0.165,0.41,0.414,0.861,0.665,1.353     c0.128,0.244,0.247,0.504,0.387,0.758c0.146,0.25,0.294,0.505,0.443,0.76c0.149,0.254,0.285,0.516,0.438,0.763     c0.158,0.244,0.314,0.483,0.464,0.715c0.148,0.234,0.29,0.46,0.426,0.675c0.149,0.206,0.29,0.4,0.419,0.58     c0.256,0.362,0.469,0.664,0.618,0.875c0.162,0.202,0.255,0.317,0.255,0.317l5.666-4.347L1878.497,1835.907z"
/>
<path
   style="fill:none;"
   d="M1875.156,1829.653c0,0,0.028,0.086,0.07,0.214c0.042,0.128,0.086,0.304,0.166,0.467     c0.142,0.332,0.263,0.672,0.263,0.672"
/>
<path
   style="fill:#A81C1C;"
   d="M1882.569,1839.984c0,0-0.277-0.227-0.568-0.438c-0.269-0.237-0.539-0.475-0.539-0.475     s-0.105-0.087-0.262-0.216c-0.146-0.142-0.342-0.331-0.537-0.52c-0.208-0.176-0.392-0.377-0.527-0.529     c-0.141-0.147-0.235-0.245-0.235-0.245s-0.123-0.125-0.247-0.249c-0.111-0.135-0.223-0.27-0.223-0.27l-0.486-0.553     c0,0-0.11-0.147-0.221-0.294c-0.114-0.144-0.229-0.288-0.229-0.288l-5.737,4.401l-5.666,4.347c0,0,0.37,0.466,0.925,1.166     c0.292,0.338,0.633,0.732,0.998,1.155c0.385,0.405,0.796,0.836,1.206,1.268c0.431,0.411,0.862,0.823,1.266,1.208     c0.422,0.365,0.817,0.706,1.155,0.998c0.333,0.297,0.643,0.506,0.843,0.673c0.204,0.161,0.321,0.254,0.321,0.254l4.354-5.66     L1882.569,1839.984z"
/>
<path
   style="fill:none;"
   d="M1878.497,1835.907c0,0-0.057-0.069-0.143-0.172c-0.083-0.106-0.175-0.26-0.28-0.404     c-0.205-0.292-0.427-0.574-0.415-0.582"
/>
<path
   style="fill:#00BF33;"
   d="M1887.5,1842.846c0,0-0.086-0.022-0.204-0.082c-0.12-0.057-0.279-0.132-0.439-0.207     c-0.162-0.069-0.324-0.139-0.446-0.191c-0.117-0.063-0.194-0.106-0.194-0.106s-0.118-0.062-0.296-0.156     c-0.175-0.099-0.429-0.189-0.652-0.343c-0.23-0.139-0.464-0.27-0.642-0.365c-0.177-0.097-0.283-0.182-0.283-0.182     s-0.153-0.1-0.306-0.199c-0.156-0.096-0.312-0.191-0.312-0.191s-0.04-0.019-0.092-0.059c-0.052-0.039-0.122-0.092-0.191-0.144     c-0.141-0.102-0.283-0.204-0.283-0.204s-0.151-0.103-0.303-0.206c-0.15-0.106-0.287-0.229-0.287-0.229l-4.408,5.731l-4.354,5.66     c0,0,0.116,0.093,0.319,0.256c0.207,0.158,0.518,0.362,0.879,0.624c0.181,0.131,0.377,0.272,0.583,0.422     c0.216,0.137,0.443,0.281,0.678,0.43c0.466,0.306,0.964,0.629,1.487,0.909c0.256,0.149,0.512,0.299,0.765,0.445     c0.255,0.142,0.516,0.261,0.762,0.39c0.495,0.253,0.949,0.504,1.361,0.669c0.404,0.184,0.74,0.337,0.976,0.445     c0.233,0.114,0.375,0.155,0.375,0.155l2.736-6.596L1887.5,1842.846z"
/>
<path
   style="fill:none;"
   d="M1881.463,1839.072c0,0,0.269,0.237,0.539,0.475c0.291,0.211,0.568,0.438,0.568,0.438"
/>
<path
   style="fill:#A81C1C;"
   d="M1892.966,1844.295c0,0-0.089-0.01-0.221-0.025c-0.134-0.011-0.311-0.028-0.483-0.072     c-0.346-0.072-0.696-0.122-0.696-0.122c-0.005,0.022-0.517-0.128-1.04-0.232c-0.512-0.141-1.024-0.283-1.024-0.283     c-0.007,0.022-0.683-0.228-0.683-0.228s-0.654-0.204-0.647-0.224c0,0-0.167-0.068-0.334-0.137     c-0.169-0.063-0.338-0.127-0.338-0.127l-2.77,6.679l-2.736,6.596c0,0,0.55,0.218,1.374,0.545c0.42,0.142,0.91,0.307,1.434,0.484     c0.523,0.185,1.102,0.311,1.665,0.487c1.144,0.296,2.299,0.554,3.178,0.69c0.436,0.085,0.801,0.151,1.06,0.171     c0.258,0.031,0.405,0.049,0.405,0.049l0.922-7.081L1892.966,1844.295z"
/>
<path
   style="fill:none;"
   d="M1887.5,1842.846c0,0-0.086-0.022-0.204-0.082c-0.12-0.057-0.279-0.132-0.439-0.207     c-0.162-0.069-0.324-0.139-0.446-0.191c-0.117-0.063-0.194-0.106-0.194-0.106"
/>
<path
   style="fill:#00BF33;"
   d="M1898.765,1844.293c0,0-0.363,0.047-0.725,0.095c-0.369,0.015-0.737,0.051-0.737,0.051     s-0.134,0.012-0.334,0.031c-0.204-0.003-0.476-0.001-0.747,0.01c-0.271,0.023-0.543,0.014-0.747-0.001     c-0.204-0.005-0.339-0.009-0.339-0.009s-0.187,0-0.375-0.001c-0.186-0.007-0.369-0.032-0.369-0.032s-0.184-0.015-0.368-0.03     c-0.185-0.01-0.369-0.02-0.369-0.02s-0.045,0.002-0.109-0.008c-0.064-0.01-0.15-0.024-0.236-0.037     c-0.172-0.023-0.344-0.047-0.344-0.047l-0.933,7.17l-0.922,7.081c0,0,2.352,0.335,4.76,0.323c2.409,0.014,4.76-0.327,4.76-0.327     l-0.928-7.081L1898.765,1844.293z"
/>
<path
   style="fill:none;"
   d="M1892.966,1844.295c0,0-0.089-0.01-0.221-0.025c-0.134-0.011-0.311-0.028-0.483-0.072     c-0.346-0.072-0.696-0.122-0.696-0.122"
/>
<path
   style="fill:#A81C1C;"
   d="M1904.196,1842.852c0,0-0.331,0.119-0.655,0.258c-0.159,0.078-0.33,0.12-0.455,0.161     c-0.125,0.041-0.208,0.068-0.208,0.068s-0.495,0.196-1.014,0.316c-0.504,0.17-1.029,0.265-1.029,0.265s-0.167,0.041-0.333,0.081     c-0.164,0.051-0.336,0.073-0.336,0.073s-0.179,0.029-0.358,0.058c-0.178,0.034-0.356,0.067-0.356,0.067     c0.005,0.02-0.686,0.095-0.686,0.095l0.939,7.169l0.928,7.081c0,0,0.146-0.018,0.403-0.049c0.259-0.02,0.62-0.089,1.053-0.171     c0.873-0.135,2.021-0.393,3.158-0.686c0.56-0.175,1.135-0.302,1.655-0.484c0.522-0.176,1.009-0.339,1.426-0.48     c0.819-0.325,1.365-0.542,1.365-0.542l-2.731-6.598L1904.196,1842.852z"
/>
<path
   style="fill:none;"
   d="M1897.303,1844.439c0,0,0.367-0.036,0.737-0.051c0.362-0.047,0.725-0.095,0.725-0.095"
/>
<path
   style="fill:#00BF33;"
   d="M1909.129,1839.995c0,0-0.069,0.057-0.172,0.143c-0.104,0.085-0.259,0.176-0.404,0.281     c-0.293,0.204-0.573,0.428-0.581,0.416c0,0-0.115,0.07-0.287,0.176c-0.174,0.102-0.389,0.269-0.623,0.4     c-0.475,0.251-0.924,0.548-0.934,0.529c0,0-0.155,0.076-0.31,0.152c-0.153,0.08-0.306,0.16-0.306,0.16     c0.008,0.019-0.656,0.305-0.656,0.305s-0.651,0.315-0.66,0.295l2.765,6.681l2.731,6.598c0,0,0.142-0.044,0.376-0.153     c0.236-0.108,0.572-0.261,0.976-0.445c0.412-0.166,0.868-0.413,1.362-0.668c0.247-0.126,0.503-0.256,0.763-0.388     c0.252-0.147,0.508-0.296,0.765-0.446c0.256-0.15,0.519-0.287,0.768-0.441c0.245-0.159,0.486-0.316,0.72-0.467     c0.235-0.149,0.463-0.292,0.679-0.428c0.207-0.15,0.403-0.292,0.583-0.422c0.364-0.258,0.667-0.472,0.88-0.622     c0.203-0.163,0.319-0.256,0.319-0.256l-4.349-5.664L1909.129,1839.995z"
/>
<path
   style="fill:none;"
   d="M1902.877,1843.339c0,0,0.083-0.027,0.208-0.068c0.125-0.042,0.297-0.083,0.455-0.161     c0.323-0.139,0.655-0.258,0.655-0.258"
/>
<path
   style="fill:#A81C1C;"
   d="M1913.205,1835.921c0,0-0.227,0.277-0.438,0.568c-0.237,0.27-0.474,0.539-0.474,0.539     s-0.087,0.105-0.217,0.262c-0.142,0.147-0.33,0.342-0.519,0.538c-0.177,0.207-0.375,0.393-0.529,0.528     c-0.147,0.141-0.245,0.235-0.245,0.235s-0.131,0.129-0.263,0.259c-0.142,0.117-0.284,0.235-0.284,0.235l-0.525,0.463     c0,0-0.147,0.11-0.294,0.221c-0.144,0.114-0.288,0.228-0.288,0.228l4.404,5.735l4.349,5.664c0,0,0.466-0.37,1.165-0.925     c0.338-0.292,0.732-0.633,1.155-0.998c0.4-0.39,0.83-0.802,1.267-1.207c0.406-0.437,0.816-0.868,1.208-1.266     c0.365-0.423,0.705-0.817,0.997-1.155c0.296-0.335,0.505-0.644,0.672-0.844c0.161-0.204,0.254-0.321,0.254-0.321l-5.662-4.351     L1913.205,1835.921z"
/>
<path
   style="fill:none;"
   d="M1909.129,1839.995c0,0-0.069,0.057-0.172,0.143c-0.104,0.085-0.259,0.176-0.404,0.281     c-0.293,0.204-0.573,0.428-0.581,0.416"
/>
<path
   style="fill:#00BF33;"
   d="M1916.064,1830.989c0,0-0.023,0.086-0.081,0.205c-0.057,0.12-0.132,0.279-0.207,0.438     c-0.069,0.162-0.139,0.324-0.191,0.446c-0.063,0.117-0.105,0.195-0.105,0.195s-0.062,0.118-0.156,0.296     c-0.1,0.174-0.188,0.43-0.342,0.652c-0.14,0.23-0.271,0.464-0.365,0.642c-0.096,0.178-0.181,0.284-0.181,0.284     s-0.1,0.153-0.2,0.306c-0.096,0.156-0.191,0.311-0.191,0.311s-0.02,0.039-0.058,0.092c-0.039,0.052-0.092,0.122-0.145,0.191     c-0.102,0.141-0.204,0.283-0.204,0.283s-0.103,0.151-0.206,0.303c-0.104,0.151-0.228,0.288-0.228,0.288l5.733,4.406l5.662,4.351     c0,0,0.093-0.116,0.256-0.319c0.15-0.212,0.365-0.515,0.623-0.879c0.131-0.181,0.272-0.376,0.422-0.583     c0.136-0.216,0.28-0.443,0.429-0.678c0.152-0.234,0.308-0.475,0.467-0.72c0.155-0.248,0.291-0.512,0.441-0.767     c0.149-0.256,0.299-0.513,0.446-0.765c0.14-0.256,0.26-0.517,0.389-0.763c0.254-0.494,0.502-0.949,0.668-1.361     c0.184-0.404,0.338-0.74,0.445-0.976c0.112-0.234,0.154-0.376,0.154-0.376l-6.597-2.733L1916.064,1830.989z"
/>
<path
   style="fill:none;"
   d="M1913.205,1835.921c0,0-0.227,0.277-0.438,0.568c-0.237,0.27-0.474,0.539-0.474,0.539"
/>
<path
   style="fill:#A81C1C;"
   d="M1917.512,1825.522c-0.014-0.003-0.015,0.369-0.1,0.721c-0.073,0.355-0.125,0.714-0.125,0.714     c0.022,0.005-0.131,0.508-0.23,1.022c-0.139,0.504-0.279,1.007-0.279,1.007c0.021,0.007-0.227,0.683-0.227,0.683     s-0.217,0.687-0.237,0.68c0,0-0.065,0.159-0.129,0.318c-0.06,0.16-0.121,0.321-0.121,0.321l6.68,2.767l6.597,2.733     c0,0,0.218-0.55,0.545-1.374c0.141-0.42,0.306-0.91,0.483-1.435c0.182-0.523,0.31-1.102,0.487-1.666     c0.295-1.144,0.552-2.299,0.688-3.178c0.086-0.436,0.149-0.801,0.17-1.061c0.031-0.258,0.05-0.405,0.05-0.405l-7.082-0.919     L1917.512,1825.522z"
/>
<path
   style="fill:none;"
   d="M1915.481,1832.273c0,0,0.042-0.078,0.105-0.195c0.052-0.122,0.122-0.284,0.191-0.446     c0.075-0.159,0.151-0.319,0.207-0.438c0.058-0.119,0.081-0.205,0.081-0.205"
/>
<path
   style="fill:#00BF33;"
   d="M1917.653,1824.096c0,0-0.015,0.184-0.03,0.368c-0.01,0.184-0.02,0.369-0.02,0.369     s0.001,0.045-0.007,0.109c-0.01,0.064-0.024,0.15-0.037,0.236c-0.023,0.172-0.047,0.344-0.047,0.344l7.17,0.93l7.082,0.919     c0,0,0.038-0.292,0.096-0.731c0.068-0.438,0.076-1.033,0.135-1.622c0.071-0.588,0.04-1.188,0.065-1.633     c0.015-0.446,0.025-0.744,0.025-0.744h-14.371c0,0-0.01,0.187-0.02,0.374c-0.005,0.187-0.01,0.374-0.01,0.374s0,0.178,0,0.356     C1917.676,1823.922,1917.653,1824.096,1917.653,1824.096z"
/>
<path
   style="fill:none;"
   d="M1917.512,1825.522c-0.014-0.003-0.015,0.369-0.1,0.721c-0.073,0.355-0.125,0.714-0.125,0.714"
/>
<path
   style="fill:#75CBEA;"
   d="M1953.098,1815.142c-2.01,2.795-3.12,5.139-3.07,7.499h-17.942c0,0-0.01-0.298-0.025-0.744     c-0.025-0.445,0.006-1.045-0.065-1.633c-0.059-0.589-0.067-1.185-0.135-1.622c-0.058-0.439-0.096-0.731-0.096-0.731     s1.302-0.471,2.599-0.993c0.653-0.26,1.293-0.528,1.767-0.732c0.476-0.207,0.794-0.345,0.794-0.345     c1.679-0.729,2.908-1.558,3.66-2.474c0.702-0.903,0.981-1.906,0.698-2.921c-0.531-1.972-2.798-2.856-6.443-2.431     c0,0-1.394,0.151-2.768,0.348c-1.376,0.192-2.729,0.43-2.729,0.43s-0.043-0.142-0.154-0.376     c-0.107-0.235-0.261-0.572-0.445-0.976c-0.166-0.412-0.415-0.867-0.669-1.361c-0.129-0.246-0.249-0.507-0.389-0.763     c-0.147-0.252-0.296-0.509-0.446-0.765c-0.15-0.255-0.286-0.52-0.441-0.767c-0.159-0.245-0.316-0.487-0.467-0.72     c-0.149-0.235-0.293-0.463-0.429-0.679c-0.15-0.207-0.291-0.403-0.422-0.583c-0.258-0.364-0.473-0.667-0.623-0.879     c-0.163-0.203-0.256-0.319-0.256-0.319s0.892-1.046,1.758-2.132c0.868-1.081,1.708-2.201,1.708-2.201     c1.091-1.485,1.708-2.813,1.895-3.988c0.192-1.178-0.134-2.123-0.829-2.877c-0.751-0.698-1.704-1.023-2.88-0.837     c-1.176,0.184-2.508,0.804-3.985,1.894c0,0-1.135,0.829-2.229,1.687c-1.099,0.855-2.156,1.739-2.156,1.739     s-0.115-0.092-0.317-0.255c-0.211-0.149-0.513-0.363-0.874-0.618c-0.179-0.13-0.374-0.271-0.58-0.42     c-0.214-0.135-0.44-0.278-0.674-0.426c-0.463-0.304-0.958-0.625-1.478-0.903c-0.255-0.148-0.509-0.297-0.76-0.443     c-0.253-0.142-0.513-0.26-0.757-0.388c-0.492-0.25-0.942-0.502-1.352-0.666c-0.401-0.183-0.736-0.335-0.97-0.442     c-0.231-0.115-0.373-0.156-0.373-0.156s0.239-1.353,0.433-2.728c0.198-1.373,0.35-2.766,0.35-2.766     c0.433-3.649-0.509-5.931-2.496-6.467c-0.985-0.273-1.985,0.005-2.893,0.706c-0.921,0.75-1.765,1.978-2.5,3.655     c0,0-0.134,0.318-0.335,0.796c-0.198,0.475-0.458,1.116-0.71,1.77c-0.506,1.299-0.965,2.603-0.965,2.603s-2.351-0.34-4.76-0.327     c-2.408-0.012-4.76,0.323-4.76,0.323s-0.472-1.302-0.994-2.599c-0.26-0.653-0.528-1.291-0.732-1.766     c-0.207-0.476-0.346-0.794-0.346-0.794c-0.73-1.679-1.56-2.909-2.466-3.661c-0.894-0.705-1.878-0.984-2.857-0.716     c-2.046,0.553-2.929,2.819-2.502,6.465c0,0,0.151,1.394,0.349,2.767c0.193,1.375,0.431,2.729,0.431,2.729     s-0.143,0.042-0.375,0.155c-0.236,0.107-0.572,0.261-0.976,0.445c-0.412,0.166-0.867,0.417-1.361,0.669     c-0.246,0.129-0.507,0.248-0.762,0.39c-0.252,0.147-0.509,0.296-0.765,0.445c-0.523,0.28-1.021,0.604-1.487,0.909     c-0.235,0.149-0.463,0.293-0.678,0.43c-0.207,0.15-0.403,0.291-0.583,0.422c-0.361,0.261-0.672,0.466-0.879,0.624     c-0.203,0.163-0.319,0.256-0.319,0.256s-1.047-0.892-2.133-1.757c-1.082-0.868-2.202-1.708-2.202-1.708     c-1.484-1.089-2.814-1.707-3.988-1.893c-1.177-0.19-2.123,0.135-2.877,0.83c-0.697,0.753-1.02,1.701-0.832,2.876     c0.186,1.175,0.805,2.505,1.892,3.989c0,0,0.84,1.121,1.707,2.203c0.865,1.086,1.757,2.134,1.757,2.134s-0.093,0.116-0.256,0.319     c-0.16,0.206-0.363,0.517-0.625,0.878c-0.131,0.181-0.272,0.377-0.422,0.583c-0.137,0.215-0.281,0.443-0.431,0.678     c-0.305,0.466-0.63,0.963-0.91,1.487c-0.149,0.256-0.298,0.513-0.445,0.765c-0.144,0.254-0.261,0.516-0.391,0.762     c-0.252,0.495-0.505,0.948-0.67,1.361c-0.184,0.404-0.337,0.74-0.445,0.976c-0.116,0.232-0.156,0.375-0.156,0.375     s-1.353-0.239-2.728-0.432c-1.373-0.198-2.767-0.349-2.767-0.349c-3.647-0.429-5.913,0.453-6.466,2.499     c-0.27,0.978,0.01,1.963,0.715,2.857c0.75,0.906,1.982,1.737,3.66,2.468c0,0,0.318,0.138,0.794,0.346     c0.475,0.205,1.111,0.472,1.764,0.733c1.298,0.522,2.599,0.995,2.599,0.995s-0.337,2.352-0.326,4.76     c-0.012,2.408,0.326,4.76,0.326,4.76s-1.303,0.458-2.603,0.963c-0.654,0.252-1.297,0.512-1.771,0.709     c-0.478,0.201-0.796,0.334-0.796,0.334c-1.678,0.734-2.904,1.577-3.656,2.498c-0.702,0.908-0.978,1.907-0.706,2.893     c0.536,1.987,2.818,2.93,6.466,2.499c0,0,1.394-0.152,2.767-0.35c1.375-0.193,2.728-0.432,2.728-0.432s0.04,0.142,0.155,0.373     c0.107,0.234,0.259,0.568,0.442,0.97c0.165,0.41,0.414,0.861,0.665,1.353c0.128,0.244,0.247,0.504,0.387,0.758     c0.146,0.25,0.294,0.505,0.443,0.76c0.149,0.254,0.285,0.516,0.438,0.763c0.158,0.244,0.314,0.483,0.464,0.715     c0.148,0.234,0.29,0.46,0.426,0.675c0.149,0.206,0.29,0.4,0.419,0.58c0.256,0.362,0.469,0.664,0.618,0.875     c0.162,0.202,0.255,0.317,0.255,0.317s-0.884,1.057-1.739,2.155c-0.858,1.094-1.688,2.228-1.688,2.228     c-1.092,1.478-1.711,2.809-1.895,3.985c-0.188,1.177,0.139,2.128,0.835,2.881c0.754,0.695,1.701,1.021,2.877,0.831     c1.175-0.186,2.504-0.805,3.988-1.894c0,0,1.12-0.84,2.202-1.708c1.086-0.865,2.132-1.757,2.132-1.757s0.116,0.093,0.319,0.256     c0.207,0.158,0.518,0.362,0.879,0.624c0.181,0.131,0.377,0.272,0.583,0.422c0.216,0.137,0.443,0.281,0.678,0.43     c0.466,0.306,0.964,0.629,1.487,0.909c0.256,0.149,0.512,0.299,0.765,0.445c0.255,0.142,0.516,0.261,0.762,0.39     c0.495,0.253,0.949,0.504,1.361,0.669c0.404,0.184,0.74,0.337,0.976,0.445c0.233,0.114,0.375,0.155,0.375,0.155     s-0.238,1.354-0.431,2.729c-0.197,1.373-0.349,2.767-0.349,2.767c-0.427,3.646,0.456,5.913,2.428,6.444     c1.014,0.285,2.019,0.005,2.922-0.697c0.916-0.75,1.745-1.981,2.475-3.659c0,0,0.138-0.318,0.346-0.794     c0.205-0.474,0.472-1.112,0.733-1.765c0.522-1.298,0.994-2.599,0.994-2.599s2.352,0.335,4.76,0.323     c2.409,0.014,4.76-0.327,4.76-0.327s0.458,1.303,0.964,2.603c0.252,0.654,0.512,1.295,0.71,1.77     c0.201,0.478,0.335,0.796,0.335,0.796c0.735,1.677,1.578,2.905,2.5,3.655c0.908,0.701,1.908,0.979,2.893,0.705     c1.987-0.536,2.916-2.814,2.496-6.467c0,0-0.168-1.387-0.38-2.755c-0.208-1.37-0.458-2.719-0.458-2.719s0.142-0.044,0.376-0.153     c0.236-0.108,0.572-0.261,0.976-0.445c0.412-0.166,0.868-0.413,1.362-0.668c0.247-0.126,0.503-0.256,0.763-0.388     c0.252-0.147,0.508-0.296,0.765-0.446c0.256-0.15,0.519-0.287,0.768-0.441c0.245-0.159,0.486-0.316,0.72-0.467     c0.235-0.149,0.463-0.292,0.679-0.428c0.207-0.15,0.403-0.292,0.583-0.422c0.364-0.258,0.667-0.472,0.88-0.622     c0.203-0.163,0.319-0.256,0.319-0.256s1.057,0.883,2.156,1.739c1.094,0.858,2.229,1.687,2.229,1.687     c1.478,1.089,2.798,1.719,3.968,1.908c1.171,0.193,2.123-0.133,2.897-0.852c0.69-0.748,1.004-1.684,0.805-2.849     c-0.195-1.163-0.826-2.485-1.913-3.962c0,0-0.828-1.135-1.686-2.23c-0.855-1.099-1.738-2.157-1.738-2.157     s0.093-0.116,0.256-0.319c0.15-0.212,0.365-0.515,0.623-0.879c0.131-0.181,0.272-0.376,0.422-0.583     c0.136-0.216,0.28-0.443,0.429-0.678c0.152-0.234,0.308-0.475,0.467-0.72c0.155-0.248,0.291-0.512,0.441-0.767     c0.149-0.256,0.299-0.513,0.446-0.765c0.14-0.256,0.26-0.517,0.389-0.763c0.254-0.494,0.502-0.949,0.668-1.361     c0.184-0.404,0.338-0.74,0.445-0.976c0.112-0.234,0.154-0.376,0.154-0.376s1.349,0.251,2.718,0.46     c1.367,0.212,2.754,0.381,2.754,0.381c3.654,0.421,5.932-0.508,6.468-2.494c0.276-0.985-0.003-1.989-0.703-2.899     c-0.748-0.923-1.977-1.767-3.655-2.496c0,0-0.318-0.138-0.794-0.345c-0.473-0.204-1.113-0.472-1.767-0.732     c-1.298-0.521-2.599-0.993-2.599-0.993s0.038-0.292,0.096-0.731c0.068-0.438,0.076-1.033,0.135-1.622     c0.071-0.588,0.04-1.188,0.065-1.633c0.015-0.446,0.025-0.744,0.025-0.744h17.942c-0.05,2.359,1.058,4.721,3.07,7.499     c0,0,0.387,0.54,0.967,1.349c0.554,0.818,1.265,1.938,1.975,3.111c0.699,1.168,1.321,2.375,1.808,3.309     c0.49,0.934,0.766,1.567,0.766,1.567c1.553,3.342,3.58,6.447,6.433,9.263c0,0,1.03,1.014,2.04,2.071     c1.012,1.053,2.004,2.148,2.004,2.148s-0.112,0.303-0.308,0.747c-0.198,0.442-0.463,1.032-0.728,1.621     c-0.268,0.588-0.536,1.176-0.737,1.617c-0.217,0.433-0.361,0.722-0.361,0.722l-1.208,2.357c0,0-0.219,0.437-0.588,1.07     c-0.365,0.635-0.853,1.481-1.34,2.327c-1.016,1.666-2.091,3.295-2.091,3.295s-0.172,0.273-0.454,0.666     c-0.279,0.395-0.652,0.921-1.025,1.447c-0.377,0.523-0.744,1.054-1.04,1.435c-0.297,0.381-0.495,0.635-0.495,0.635     s-1.461-0.286-2.894-0.613c-1.436-0.323-2.843-0.686-2.843-0.686c-1.926-0.552-3.815-0.9-5.653-1.052     c-1.836-0.15-3.698-0.172-5.498,0.011c0,0-0.699,0.045-1.749,0.111c-1.043,0.055-2.397,0.122-3.769,0.089     c-1.362-0.016-2.677-0.058-3.683-0.152c-0.985-0.088-1.642-0.146-1.642-0.146c-0.85-0.075-1.667-0.142-2.425-0.152     c-0.76-0.014-1.452,0.043-2.116,0.123c-1.341,0.143-2.458,0.552-3.494,1.116c-2.029,1.205-3.565,3.245-5.031,6.466     c0,0-0.273,0.593-0.683,1.484c-0.218,0.45-0.472,0.975-0.745,1.537c-0.298,0.548-0.616,1.133-0.934,1.718     c-0.339,0.591-0.677,1.182-0.995,1.737c-0.332,0.542-0.655,1.041-0.936,1.474c-0.576,0.868-0.959,1.446-0.959,1.446     c-1.058,1.519-2.015,3.064-2.819,4.785c-0.814,1.671-1.489,3.463-1.993,5.412c0,0-0.093,0.353-0.232,0.883     c-0.141,0.533-0.335,1.237-0.541,1.929c-0.407,1.393-0.861,2.79-0.861,2.79s-1.311,0.181-2.626,0.312     c-1.316,0.102-2.633,0.203-2.633,0.203s-0.626,0.053-1.252,0.081c-0.626,0.018-1.252,0.037-1.252,0.037s-0.486,0.012-1.214,0.031     c-0.729,0.023-1.7,0.038-2.671,0.002c-0.971-0.026-1.943-0.053-2.671-0.073c-0.729-0.049-1.214-0.082-1.214-0.082     s-1.284-0.099-2.568-0.199c-1.282-0.127-2.562-0.303-2.562-0.303s-0.487-1.401-0.925-2.798c-0.221-0.694-0.43-1.402-0.582-1.936     c-0.15-0.531-0.25-0.886-0.25-0.886c-0.49-1.946-1.142-3.733-1.947-5.404c-0.795-1.72-1.758-3.263-2.856-4.797     c0,0-0.383-0.578-0.959-1.446c-0.28-0.435-0.604-0.93-0.934-1.477c-0.317-0.554-0.656-1.145-0.994-1.736     c-0.328-0.589-0.646-1.171-0.932-1.72c-0.272-0.563-0.526-1.087-0.744-1.537c-0.409-0.89-0.682-1.483-0.682-1.483     c-1.394-3.192-2.934-5.232-4.948-6.426c-1.067-0.581-2.203-1.003-3.556-1.153c-0.669-0.086-1.365-0.145-2.128-0.133     c-0.762,0.01-1.577,0.072-2.428,0.147c0,0-0.652,0.062-1.631,0.155c-1,0.099-2.304,0.147-3.657,0.173     c-1.363,0.04-2.708-0.016-3.743-0.064c-1.042-0.059-1.737-0.098-1.737-0.098c-1.807-0.189-3.688-0.186-5.541-0.055     c-1.855,0.133-3.762,0.464-5.685,1.012c0,0-1.408,0.362-2.844,0.684c-1.434,0.326-2.895,0.611-2.895,0.611     s-0.198-0.254-0.495-0.636c-0.292-0.385-0.662-0.914-1.038-1.437c-0.373-0.526-0.745-1.052-1.025-1.447     c-0.283-0.392-0.452-0.667-0.452-0.667l-1.36-2.117c0,0-0.271-0.406-0.644-1.036c-0.365-0.634-0.853-1.48-1.34-2.326     c-0.497-0.84-0.922-1.721-1.263-2.37c-0.333-0.653-0.555-1.088-0.555-1.088s-0.146-0.288-0.364-0.721     c-0.201-0.441-0.469-1.029-0.738-1.616c-0.265-0.59-0.529-1.179-0.728-1.621c-0.2-0.441-0.311-0.746-0.311-0.746     s0.979-1.127,1.98-2.209c0.999-1.087,2.017-2.128,2.017-2.128c2.865-2.792,4.886-5.917,6.441-9.257c0,0,0.279-0.627,0.772-1.551     c0.49-0.924,1.114-2.118,1.816-3.273c0.712-1.161,1.427-2.269,1.979-3.078c0.581-0.801,0.969-1.335,0.969-1.335     c2.007-2.798,3.113-5.161,3.065-7.591c0.051-2.341-1.058-4.703-3.065-7.501c0,0-0.388-0.534-0.969-1.335     c-0.553-0.809-1.268-1.917-1.979-3.078c-0.702-1.156-1.326-2.349-1.817-3.273c-0.492-0.924-0.772-1.551-0.772-1.551     c-1.531-3.424-3.573-6.467-6.441-9.257c0,0-1.019-1.041-2.017-2.128c-1-1.082-1.979-2.209-1.979-2.209s0.11-0.304,0.311-0.745     c0.198-0.442,0.463-1.031,0.728-1.621c0.268-0.588,0.536-1.176,0.738-1.616c0.218-0.432,0.364-0.72,0.364-0.72l1.209-2.357     c0,0,0.217-0.428,0.58-1.051c0.359-0.624,0.839-1.456,1.318-2.288c0.998-1.639,2.055-3.241,2.055-3.241s0.174-0.281,0.464-0.684     c0.287-0.405,0.669-0.944,1.051-1.483c0.753-1.087,1.575-2.122,1.575-2.122s1.44,0.313,2.854,0.664     c1.417,0.348,2.806,0.733,2.806,0.733c1.931,0.539,3.838,0.87,5.691,1.005c1.852,0.133,3.728,0.14,5.536-0.049     c0,0,0.695-0.039,1.738-0.098c1.035-0.048,2.38-0.104,3.743-0.064c1.353,0.025,2.657,0.073,3.657,0.173     c0.979,0.093,1.631,0.155,1.631,0.155c3.51,0.321,6.061,0.027,8.112-1.138c2.029-1.202,3.554-3.233,4.948-6.426     c0,0,0.278-0.595,0.696-1.489c0.222-0.452,0.481-0.979,0.759-1.543c0.303-0.55,0.627-1.137,0.951-1.724     c0.345-0.593,0.69-1.186,1.013-1.743c0.348-0.541,0.673-1.046,0.952-1.478c0.586-0.87,0.976-1.451,0.976-1.451     c1.05-1.512,1.986-3.056,2.768-4.771c0.792-1.667,1.443-3.455,1.934-5.401c0,0,0.1-0.354,0.25-0.886     c0.152-0.534,0.361-1.242,0.582-1.936c0.438-1.397,0.925-2.798,0.925-2.798s1.279-0.177,2.562-0.304     c1.284-0.099,2.568-0.199,2.568-0.199s0.659-0.056,1.317-0.086c0.658-0.019,1.317-0.038,1.317-0.038s0.486-0.012,1.214-0.03     c0.364-0.008,0.789-0.016,1.245-0.026c0.455,0.008,0.941,0.017,1.427,0.027c0.971,0.026,1.943,0.053,2.671,0.073     c0.729,0.051,1.214,0.085,1.214,0.085s1.284,0.099,2.568,0.199c1.282,0.132,2.561,0.307,2.561,0.307s0.454,1.397,0.861,2.79     c0.205,0.693,0.4,1.396,0.541,1.929c0.139,0.53,0.232,0.883,0.232,0.883c0.504,1.948,1.179,3.74,1.993,5.412     c0.804,1.721,1.76,3.266,2.818,4.785c0,0,0.39,0.58,0.975,1.45c0.285,0.436,0.614,0.934,0.951,1.48     c0.323,0.556,0.668,1.149,1.012,1.742c0.334,0.591,0.658,1.174,0.949,1.726c0.277,0.564,0.536,1.091,0.758,1.543     c0.417,0.893,0.695,1.488,0.695,1.488c1.374,3.189,2.915,5.225,4.942,6.431c1.036,0.564,2.158,0.977,3.501,1.12     c0.665,0.081,1.357,0.138,2.117,0.124c0.757-0.011,1.572-0.079,2.418-0.157c0,0,0.657-0.059,1.642-0.146     c1.007-0.094,2.322-0.136,3.683-0.152c1.372-0.032,2.726,0.034,3.769,0.089c1.049,0.067,1.749,0.112,1.749,0.112     c1.806,0.191,3.686,0.182,5.535,0.053c1.853-0.133,3.763-0.466,5.692-1c0,0,1.39-0.385,2.807-0.731     c1.414-0.35,2.855-0.663,2.855-0.663s0.198,0.254,0.495,0.635c0.296,0.382,0.663,0.913,1.04,1.435     c0.373,0.526,0.745,1.052,1.025,1.447c0.282,0.393,0.454,0.666,0.454,0.666l1.429,2.225c0,0,0.273,0.405,0.642,1.037     c0.365,0.634,0.853,1.48,1.34,2.326c0.498,0.84,0.918,1.724,1.26,2.371c0.333,0.653,0.554,1.088,0.554,1.088     s0.145,0.289,0.362,0.722c0.201,0.441,0.469,1.029,0.738,1.617c0.265,0.59,0.529,1.179,0.728,1.622     c0.196,0.443,0.308,0.747,0.308,0.747s-0.98,1.125-1.981,2.206c-0.999,1.085-2.019,2.125-2.019,2.125     c-2.872,2.79-4.918,5.828-6.477,9.15c0,0-0.275,0.633-0.765,1.567c-0.488,0.934-1.109,2.141-1.808,3.308     c-0.71,1.173-1.421,2.292-1.975,3.111C1953.484,1814.602,1953.098,1815.142,1953.098,1815.142z M1943.857,1854.738     c0.99,0.665,1.906,0.891,2.761,0.66c0.849-0.233,1.666-0.906,2.309-2.066c0.341-0.597,0.581-1.15,0.696-1.669     c0.103-0.525,0.099-1.005-0.013-1.439c-0.223-0.869-0.877-1.55-1.947-2.077c-1.071-0.527-2.014-0.645-2.82-0.374     c-0.403,0.136-0.773,0.37-1.11,0.704c-0.349,0.328-0.684,0.747-0.984,1.274c-0.564,1.025-0.811,1.905-0.632,2.736     C1942.293,1853.313,1942.866,1854.073,1943.857,1854.738z M1892.076,1880.246c-0.078,1.188,0.18,2.112,0.805,2.742     c0.625,0.611,1.617,0.933,2.95,0.965c1.334-0.029,2.326-0.353,2.951-0.964c0.626-0.625,0.885-1.553,0.808-2.739     c-0.077-1.195-0.44-2.05-1.063-2.615c-0.627-0.58-1.514-0.853-2.693-0.823c-1.179-0.032-2.066,0.243-2.693,0.822     C1892.517,1878.194,1892.154,1879.053,1892.076,1880.246z M1844.072,1848.189c-1.07,0.528-1.726,1.205-1.955,2.061     c-0.115,0.427-0.124,0.899-0.026,1.412c0.108,0.507,0.34,1.047,0.671,1.626c0.648,1.168,1.462,1.844,2.311,2.073     c0.854,0.23,1.767,0,2.758-0.664s1.568-1.419,1.746-2.243c0.179-0.828-0.064-1.71-0.633-2.741     c-0.292-0.512-0.62-0.918-0.963-1.236c-0.332-0.324-0.697-0.55-1.098-0.68     C1846.083,1847.539,1845.142,1847.662,1844.072,1848.189z M1847.83,1790.584c-0.991-0.664-1.904-0.894-2.758-0.664     c-0.849,0.23-1.663,0.905-2.311,2.074c-0.331,0.579-0.563,1.119-0.671,1.626c-0.097,0.513-0.088,0.984,0.027,1.412     c0.229,0.856,0.885,1.534,1.955,2.061c1.07,0.528,2.011,0.65,2.811,0.392c0.4-0.13,0.766-0.355,1.098-0.68     c0.343-0.318,0.671-0.724,0.963-1.236c0.569-1.032,0.813-1.914,0.633-2.742     C1849.398,1792.004,1848.821,1791.249,1847.83,1790.584z M1899.684,1765.039c0.079-1.188-0.183-2.111-0.823-2.745     c-0.639-0.611-1.656-0.935-3.03-0.966c-1.324,0.031-2.316,0.354-2.943,0.965c-0.628,0.629-0.891,1.554-0.813,2.742     c0.078,1.194,0.446,2.051,1.072,2.612c0.629,0.579,1.517,0.854,2.687,0.822c1.214,0.03,2.124-0.242,2.765-0.821     C1899.236,1767.092,1899.605,1766.232,1899.684,1765.039z M1947.662,1797.134c1.071-0.527,1.725-1.208,1.953-2.066     c0.114-0.428,0.123-0.9,0.026-1.412c-0.104-0.508-0.338-1.044-0.665-1.619c-0.668-1.204-1.495-1.901-2.352-2.142     c-0.861-0.242-1.777-0.016-2.767,0.649c-0.991,0.665-1.564,1.425-1.735,2.26c-0.172,0.839,0.083,1.74,0.67,2.803     c0.289,0.509,0.618,0.911,0.957,1.231c0.331,0.323,0.697,0.55,1.098,0.681     C1945.649,1797.779,1946.591,1797.661,1947.662,1797.134z"
/>
<path
   style="fill:#FFA227;"
   d="M1948.977,1792.037c-0.668-1.204-1.495-1.901-2.352-2.142c-0.861-0.242-1.777-0.016-2.767,0.649     c-0.991,0.665-1.564,1.425-1.735,2.26c-0.172,0.839,0.083,1.74,0.67,2.803c0.289,0.509,0.618,0.911,0.957,1.231     c0.331,0.323,0.697,0.55,1.098,0.681c0.801,0.26,1.744,0.143,2.815-0.384c1.071-0.527,1.725-1.208,1.953-2.066     c0.114-0.428,0.123-0.9,0.026-1.412C1949.537,1793.148,1949.304,1792.613,1948.977,1792.037z"
/>
<path
   style="fill:#FFA227;"
   d="M1895.831,1761.329c-1.324,0.031-2.316,0.354-2.943,0.965c-0.628,0.629-0.891,1.554-0.813,2.742     c0.078,1.194,0.446,2.051,1.072,2.612c0.629,0.579,1.517,0.854,2.687,0.822c1.214,0.03,2.124-0.242,2.765-0.821     c0.637-0.557,1.006-1.417,1.085-2.609c0.079-1.188-0.183-2.111-0.823-2.745     C1898.223,1761.684,1897.205,1761.359,1895.831,1761.329z"
/>
<path
   style="fill:#FFA227;"
   d="M1842.761,1791.994c-0.331,0.579-0.563,1.119-0.671,1.626c-0.097,0.513-0.088,0.984,0.027,1.412     c0.229,0.856,0.885,1.534,1.955,2.061c1.07,0.528,2.011,0.65,2.811,0.392c0.4-0.13,0.766-0.355,1.098-0.68     c0.343-0.318,0.671-0.724,0.963-1.236c0.569-1.032,0.813-1.914,0.633-2.742c-0.178-0.824-0.754-1.579-1.746-2.243     c-0.991-0.664-1.904-0.894-2.758-0.664C1844.223,1790.15,1843.409,1790.825,1842.761,1791.994z"
/>
<path
   style="fill:#FFA227;"
   d="M1842.761,1853.289c0.648,1.168,1.462,1.844,2.311,2.073c0.854,0.23,1.767,0,2.758-0.664     s1.568-1.419,1.746-2.243c0.179-0.828-0.064-1.71-0.633-2.741c-0.292-0.512-0.62-0.918-0.963-1.236     c-0.332-0.324-0.697-0.55-1.098-0.68c-0.8-0.258-1.74-0.136-2.811,0.392c-1.07,0.528-1.726,1.205-1.955,2.061     c-0.115,0.427-0.124,0.899-0.026,1.412C1842.198,1852.17,1842.431,1852.709,1842.761,1853.289z"
/>
<path
   style="fill:#FFA227;"
   d="M1895.832,1883.953c1.334-0.029,2.326-0.353,2.951-0.964c0.626-0.625,0.885-1.553,0.808-2.739     c-0.077-1.195-0.44-2.05-1.063-2.615c-0.627-0.58-1.514-0.853-2.693-0.823c-1.179-0.032-2.066,0.243-2.693,0.822     c-0.624,0.56-0.987,1.419-1.065,2.612c-0.078,1.188,0.18,2.112,0.805,2.742     C1893.506,1883.599,1894.498,1883.921,1895.832,1883.953z"
/>
<path
   style="fill:#FFA227;"
   d="M1948.927,1853.332c0.341-0.597,0.581-1.15,0.696-1.669c0.103-0.525,0.099-1.005-0.013-1.439     c-0.223-0.869-0.877-1.55-1.947-2.077c-1.071-0.527-2.014-0.645-2.82-0.374c-0.403,0.136-0.773,0.37-1.11,0.704     c-0.349,0.328-0.684,0.747-0.984,1.274c-0.564,1.025-0.811,1.905-0.632,2.736c0.176,0.826,0.75,1.586,1.741,2.251     c0.99,0.665,1.906,0.891,2.761,0.66C1947.467,1855.165,1948.284,1854.492,1948.927,1853.332z"
/>
<path
   style="fill:#FFA227;"
   d="M1974.932,1817.503c0,0-0.099-1.284-0.198-2.568c-0.124-1.282-0.302-2.561-0.302-2.561     s-1.237,0.797-2.482,1.548c-0.623,0.369-1.247,0.739-1.714,1.016c-0.476,0.27-0.793,0.449-0.793,0.449     c-1.757,0.985-3.028,2.065-3.836,3.259c-0.822,1.196-1.247,2.508-1.207,3.995h10.712l-0.057-2.505c0,0-0.019-0.658-0.038-1.317     C1974.989,1818.161,1974.932,1817.503,1974.932,1817.503z"
/>
<path
   style="fill:#FFA227;"
   d="M1930.147,1763.301c2.576,1.484,5.358,1.297,8.818-0.723c0,0,1.251-0.739,2.538-1.449     c1.281-0.709,2.581-1.367,2.581-1.367s-0.254-0.198-0.635-0.495c-0.383-0.294-0.913-0.662-1.436-1.039     c-0.526-0.373-1.052-0.745-1.447-1.025c-0.392-0.282-0.666-0.453-0.666-0.453s-0.41-0.265-1.025-0.662     c-0.619-0.39-1.43-0.933-2.272-1.428c-0.846-0.487-1.692-0.974-2.327-1.34c-0.632-0.369-1.07-0.586-1.07-0.586l-2.24-1.149     c0,0-0.288-0.146-0.72-0.365c-0.441-0.201-1.029-0.47-1.616-0.738c-0.589-0.265-1.179-0.529-1.621-0.728     c-0.44-0.202-0.745-0.312-0.745-0.312s0.078,1.458,0.099,2.931c0.029,1.467,0.013,2.918,0.013,2.918     c-0.015,2.001,0.299,3.617,0.912,4.951c0.311,0.66,0.705,1.235,1.186,1.732     C1928.952,1762.477,1929.499,1762.932,1930.147,1763.301z"
/>
<path
   style="fill:#FFA227;"
   d="M1861.613,1763.273c0.649-0.367,1.195-0.825,1.675-1.323c0.481-0.496,0.875-1.072,1.187-1.732     c0.615-1.335,0.932-2.947,0.917-4.95c0,0-0.014-1.451,0.015-2.918c0.022-1.474,0.103-2.93,0.103-2.93s-0.304,0.111-0.746,0.309     c-0.442,0.198-1.032,0.463-1.621,0.728c-0.588,0.268-1.176,0.536-1.617,0.738c-0.433,0.218-0.721,0.363-0.721,0.363     s-0.435,0.222-1.088,0.555c-0.648,0.341-1.53,0.764-2.37,1.262c-0.846,0.487-1.692,0.975-2.326,1.34     c-0.631,0.371-1.036,0.643-1.036,0.643l-2.116,1.359c0,0-0.282,0.173-0.684,0.463c-0.405,0.287-0.944,0.669-1.483,1.051     c-0.536,0.387-1.08,0.762-1.471,1.067c-0.391,0.304-0.651,0.508-0.651,0.508s1.327,0.637,2.632,1.327     c1.312,0.691,2.587,1.414,2.587,1.414C1856.234,1764.579,1859.036,1764.753,1861.613,1763.273z"
/>
<path
   style="fill:#FFA227;"
   d="M1827.315,1822.585c0.04-1.475-0.386-2.766-1.209-3.939c-0.81-1.171-2.083-2.227-3.841-3.199     c0,0-0.317-0.187-0.793-0.468c-0.466-0.288-1.088-0.673-1.709-1.058c-1.241-0.782-2.473-1.612-2.473-1.612     s-0.176,1.279-0.305,2.561c-0.099,1.284-0.199,2.568-0.199,2.568s-0.033,0.486-0.083,1.215c-0.02,0.729-0.047,1.7-0.073,2.671     c-0.035,0.971-0.024,1.943,0.001,2.672c0.018,0.729,0.031,1.214,0.031,1.214s0.019,0.658,0.039,1.316     c0.032,0.658,0.087,1.317,0.087,1.317s0.099,1.284,0.199,2.568c0.129,1.282,0.305,2.562,0.305,2.562s1.232-0.83,2.473-1.613     c0.622-0.385,1.243-0.769,1.709-1.058c0.476-0.281,0.793-0.468,0.793-0.468c1.758-0.972,3.031-2.028,3.84-3.214     C1826.93,1825.434,1827.35,1824.117,1827.315,1822.585z"
/>
<path
   style="fill:#FFA227;"
   d="M1861.613,1882.009c-2.653-1.528-5.379-1.307-8.818,0.729c0,0-1.274,0.723-2.587,1.414     c-1.305,0.69-2.632,1.327-2.632,1.327s1.01,0.802,2.07,1.536c0.526,0.373,1.052,0.745,1.447,1.025     c0.393,0.282,0.665,0.455,0.665,0.455s1.63,1.074,3.294,2.092c0.846,0.487,1.692,0.974,2.326,1.34     c0.633,0.369,1.069,0.589,1.069,0.589l2.357,1.209c0,0,0.288,0.145,0.721,0.363c0.441,0.201,1.029,0.469,1.617,0.738     c0.589,0.265,1.179,0.529,1.621,0.728c0.442,0.198,0.746,0.309,0.746,0.309s-0.111-1.469-0.16-2.955     c-0.057-1.48-0.068-2.943-0.068-2.943c0.027-1.995-0.263-3.603-0.857-4.926c-0.301-0.655-0.685-1.225-1.157-1.717     C1862.797,1882.827,1862.258,1882.374,1861.613,1882.009z"
/>
<path
   style="fill:#FFA227;"
   d="M1930.148,1881.981c-0.649,0.368-1.197,0.824-1.677,1.327c-0.483,0.497-0.878,1.073-1.19,1.734     c-0.616,1.336-0.931,2.951-0.905,4.947c0,0-0.012,1.463-0.071,2.943c-0.05,1.487-0.163,2.954-0.163,2.954     s0.311-0.116,0.766-0.316c0.453-0.203,1.058-0.475,1.662-0.746c0.603-0.275,1.205-0.55,1.657-0.756     c0.443-0.224,0.739-0.373,0.739-0.373s0.428-0.218,1.07-0.546c0.637-0.335,1.505-0.752,2.331-1.241     c0.832-0.479,1.664-0.958,2.288-1.318c0.622-0.362,1.02-0.631,1.02-0.631l2.225-1.429c0,0,0.274-0.171,0.667-0.453     c0.395-0.28,0.921-0.652,1.447-1.025c0.523-0.377,1.053-0.745,1.436-1.039c0.381-0.297,0.636-0.495,0.636-0.495     s-1.3-0.658-2.581-1.367c-1.287-0.71-2.538-1.449-2.538-1.449C1935.506,1880.684,1932.724,1880.498,1930.148,1881.981z"
/>
<path
   style="fill:#FFA227;"
   d="M1969.443,1829.895c0,0,0.317,0.18,0.793,0.449c0.468,0.277,1.091,0.646,1.714,1.016     c1.245,0.751,2.481,1.548,2.481,1.548s0.178-1.279,0.302-2.562c0.099-1.284,0.198-2.568,0.198-2.568s0.104-1.284,0.121-2.568     c0.029-1.284,0.059-2.569,0.059-2.569h-10.712c-0.04,1.487,0.386,2.799,1.208,3.994     C1966.415,1827.829,1967.686,1828.91,1969.443,1829.895z"
/>
<path
   style="fill:#FFA227;"
   d="M1975.111,1822.641c0,0-0.029,1.284-0.059,2.569c-0.016,1.284-0.121,2.568-0.121,2.568     s-0.099,1.284-0.198,2.568c-0.124,1.282-0.302,2.562-0.302,2.562s-0.085,0.656-0.171,1.311c-0.039,0.328-0.091,0.655-0.137,0.899     c-0.042,0.245-0.071,0.408-0.071,0.408l-0.467,2.607c0,0-0.029,0.159-0.081,0.437c-0.062,0.276-0.151,0.67-0.257,1.143     c-0.227,0.943-0.481,2.211-0.838,3.455c-0.354,1.244-0.692,2.493-0.992,3.415c-0.309,0.919-0.514,1.532-0.514,1.532     s-0.104,0.306-0.26,0.765c-0.157,0.459-0.36,1.073-0.604,1.672c-0.474,1.203-0.949,2.405-0.949,2.405s-0.112,0.303-0.308,0.747     c-0.198,0.442-0.463,1.032-0.728,1.621c-0.268,0.588-0.536,1.176-0.737,1.617c-0.217,0.433-0.361,0.722-0.361,0.722l-1.208,2.357     c0,0-0.219,0.437-0.588,1.07c-0.365,0.635-0.853,1.481-1.34,2.327c-1.016,1.666-2.091,3.295-2.091,3.295     s-0.172,0.273-0.454,0.666c-0.279,0.395-0.652,0.921-1.025,1.447c-0.377,0.523-0.744,1.054-1.04,1.435     c-0.297,0.381-0.495,0.635-0.495,0.635l-1.636,2.075c0,0-0.406,0.479-0.815,0.956c-0.411,0.475-0.822,0.95-0.822,0.95     s-0.422,0.498-1.079,1.223c-0.676,0.708-1.576,1.651-2.477,2.595c-0.944,0.901-1.888,1.801-2.596,2.476     c-0.734,0.647-1.224,1.078-1.224,1.078s-0.967,0.851-1.957,1.676c-1.012,0.798-2.024,1.595-2.024,1.595s-0.254,0.198-0.636,0.495     c-0.383,0.295-0.913,0.663-1.436,1.039c-0.526,0.373-1.052,0.745-1.447,1.025c-0.393,0.282-0.667,0.453-0.667,0.453l-2.225,1.429     c0,0-0.398,0.269-1.02,0.631c-0.624,0.359-1.456,0.839-2.288,1.318c-0.826,0.489-1.693,0.906-2.331,1.241     c-0.642,0.327-1.07,0.546-1.07,0.546s-0.295,0.149-0.739,0.373c-0.452,0.206-1.055,0.481-1.657,0.756     c-0.604,0.271-1.209,0.542-1.662,0.746c-0.455,0.2-0.766,0.316-0.766,0.316l-2.345,0.925c0,0-0.613,0.253-1.243,0.458     c-0.627,0.214-1.255,0.428-1.255,0.428s-0.613,0.206-1.533,0.514c-0.923,0.298-2.171,0.637-3.415,0.991     c-1.244,0.354-2.512,0.61-3.455,0.836c-0.473,0.106-0.867,0.194-1.143,0.256c-0.278,0.051-0.437,0.08-0.437,0.08     s-1.271,0.228-2.543,0.456c-0.635,0.12-1.274,0.211-1.754,0.268c-0.48,0.062-0.8,0.104-0.8,0.104s-1.311,0.181-2.626,0.312     c-1.316,0.102-2.633,0.203-2.633,0.203s-0.626,0.053-1.252,0.081c-0.626,0.018-1.252,0.037-1.252,0.037s-0.486,0.012-1.214,0.031     c-0.729,0.023-1.7,0.038-2.671,0.002c-0.971-0.026-1.943-0.053-2.671-0.073c-0.729-0.049-1.214-0.082-1.214-0.082     s-1.284-0.099-2.568-0.199c-1.282-0.127-2.562-0.303-2.562-0.303s-0.656-0.086-1.312-0.171c-0.328-0.039-0.655-0.094-0.899-0.138     c-0.245-0.043-0.408-0.071-0.408-0.071l-2.478-0.444c0,0-0.645-0.111-1.6-0.338c-0.955-0.229-2.239-0.488-3.499-0.846     c-1.259-0.359-2.524-0.7-3.458-1.005c-0.931-0.313-1.552-0.521-1.552-0.521s-0.306-0.104-0.765-0.26     c-0.459-0.156-1.072-0.362-1.671-0.605c-1.203-0.475-2.405-0.949-2.405-0.949s-0.304-0.111-0.746-0.309     c-0.442-0.198-1.032-0.463-1.621-0.728c-0.588-0.268-1.176-0.536-1.617-0.738c-0.432-0.218-0.721-0.363-0.721-0.363l-2.357-1.209     c0,0-0.436-0.22-1.069-0.589c-0.635-0.365-1.481-0.853-2.326-1.34c-1.665-1.018-3.294-2.092-3.294-2.092     s-0.272-0.173-0.665-0.455c-0.395-0.28-0.921-0.652-1.447-1.025c-1.06-0.735-2.07-1.536-2.07-1.536l-1.973-1.555     c0,0-0.508-0.422-1.008-0.854c-0.499-0.432-0.999-0.865-0.999-0.865s-0.492-0.416-1.207-1.066     c-0.699-0.667-1.631-1.556-2.563-2.446c-0.89-0.932-1.779-1.864-2.446-2.563c-0.652-0.713-1.067-1.206-1.067-1.206     s-0.872-0.992-1.719-2.005c-0.818-1.038-1.636-2.076-1.636-2.076s-0.198-0.254-0.495-0.636c-0.292-0.385-0.662-0.914-1.038-1.437     c-0.373-0.526-0.745-1.052-1.025-1.447c-0.283-0.392-0.452-0.667-0.452-0.667l-1.36-2.117c0,0-0.271-0.406-0.644-1.036     c-0.365-0.634-0.853-1.48-1.34-2.326c-0.497-0.84-0.922-1.721-1.263-2.37c-0.333-0.653-0.555-1.088-0.555-1.088     s-0.146-0.288-0.364-0.721c-0.201-0.441-0.469-1.029-0.738-1.616c-0.265-0.59-0.529-1.179-0.728-1.621     c-0.2-0.441-0.311-0.746-0.311-0.746l-0.973-2.465c0,0-0.252-0.613-0.458-1.244c-0.214-0.628-0.428-1.255-0.428-1.255     s-0.205-0.613-0.514-1.533c-0.296-0.923-0.636-2.172-0.989-3.416c-0.352-1.244-0.609-2.513-0.835-3.455     c-0.224-0.944-0.335-1.58-0.335-1.58s-0.228-1.271-0.456-2.543c-0.12-0.635-0.208-1.274-0.266-1.754     c-0.062-0.48-0.104-0.8-0.104-0.8s-0.176-1.279-0.305-2.562c-0.099-1.284-0.199-2.568-0.199-2.568s-0.055-0.659-0.087-1.317     c-0.019-0.658-0.039-1.316-0.039-1.316s-0.012-0.486-0.031-1.214c-0.025-0.729-0.036-1.7-0.001-2.672     c0.026-0.971,0.053-1.943,0.073-2.671c0.05-0.729,0.083-1.215,0.083-1.215s0.099-1.284,0.199-2.568     c0.129-1.282,0.305-2.561,0.305-2.561s0.086-0.656,0.171-1.312c0.039-0.328,0.096-0.655,0.139-0.899     c0.042-0.245,0.071-0.408,0.071-0.408l0.444-2.479c0,0,0.113-0.644,0.34-1.6c0.23-0.954,0.487-2.239,0.848-3.498     c0.359-1.259,0.699-2.524,1.006-3.457c0.313-0.931,0.521-1.552,0.521-1.552s0.104-0.306,0.26-0.765     c0.155-0.46,0.363-1.072,0.607-1.671c0.475-1.203,0.95-2.406,0.95-2.406s0.11-0.304,0.311-0.745     c0.198-0.442,0.463-1.031,0.728-1.621c0.268-0.588,0.536-1.176,0.738-1.616c0.218-0.432,0.364-0.72,0.364-0.72l1.209-2.357     c0,0,0.217-0.428,0.58-1.051c0.359-0.624,0.839-1.456,1.318-2.288c0.998-1.639,2.055-3.241,2.055-3.241s0.174-0.281,0.464-0.684     c0.287-0.405,0.669-0.944,1.051-1.483c0.753-1.087,1.575-2.122,1.575-2.122l1.556-1.974c0,0,0.423-0.506,0.855-1.006     c0.432-0.499,0.864-0.998,0.864-0.998s0.415-0.493,1.067-1.206c0.667-0.699,1.557-1.631,2.446-2.563     c0.932-0.889,1.864-1.779,2.563-2.446c0.715-0.65,1.207-1.066,1.207-1.066s0.978-0.839,1.956-1.678     c1.012-0.798,2.024-1.596,2.024-1.596s0.261-0.203,0.651-0.508c0.391-0.304,0.936-0.68,1.471-1.067     c0.539-0.382,1.079-0.764,1.483-1.051c0.402-0.29,0.684-0.463,0.684-0.463l2.116-1.359c0,0,0.406-0.272,1.036-0.643     c0.634-0.366,1.48-0.853,2.326-1.34c0.84-0.498,1.722-0.92,2.37-1.262c0.653-0.333,1.088-0.555,1.088-0.555     s0.289-0.145,0.721-0.363c0.441-0.201,1.029-0.469,1.617-0.738c0.589-0.265,1.179-0.529,1.621-0.728     c0.442-0.198,0.746-0.309,0.746-0.309l2.465-0.973c0,0,0.583-0.239,1.183-0.435c0.597-0.204,1.193-0.407,1.193-0.407     s0.621-0.208,1.552-0.521c0.933-0.305,2.198-0.646,3.458-1.005c1.26-0.358,2.544-0.617,3.499-0.846     c0.956-0.227,1.6-0.338,1.6-0.338s1.271-0.228,2.543-0.455c0.635-0.12,1.274-0.206,1.754-0.265c0.48-0.062,0.8-0.103,0.8-0.103     s1.279-0.177,2.562-0.304c1.284-0.099,2.568-0.199,2.568-0.199s0.659-0.056,1.317-0.086c0.658-0.019,1.317-0.038,1.317-0.038     s0.486-0.012,1.214-0.03c0.364-0.008,0.789-0.016,1.245-0.026c0.455,0.008,0.941,0.017,1.427,0.027     c0.971,0.026,1.943,0.053,2.671,0.073c0.729,0.051,1.214,0.085,1.214,0.085s1.284,0.099,2.568,0.199     c1.282,0.132,2.561,0.307,2.561,0.307s0.624,0.081,1.247,0.163c0.312,0.037,0.623,0.087,0.855,0.13     c0.233,0.04,0.388,0.067,0.388,0.067l2.608,0.467c0,0,0.159,0.029,0.437,0.081c0.276,0.062,0.67,0.15,1.143,0.256     c0.943,0.226,2.211,0.482,3.455,0.836c1.244,0.353,2.492,0.693,3.415,0.991c0.92,0.308,1.533,0.514,1.533,0.514     s0.314,0.107,0.784,0.267c0.471,0.161,1.1,0.37,1.714,0.62c1.233,0.487,2.466,0.974,2.466,0.974s0.305,0.109,0.745,0.312     c0.442,0.199,1.032,0.463,1.621,0.728c0.588,0.269,1.175,0.537,1.616,0.738c0.432,0.219,0.72,0.365,0.72,0.365l2.24,1.149     c0,0,0.438,0.217,1.07,0.586c0.635,0.365,1.481,0.853,2.327,1.34c0.841,0.495,1.653,1.038,2.272,1.428     c0.615,0.397,1.025,0.662,1.025,0.662s0.274,0.171,0.666,0.453c0.395,0.279,0.921,0.652,1.447,1.025     c0.523,0.377,1.053,0.745,1.436,1.039c0.381,0.297,0.635,0.495,0.635,0.495l2.076,1.636c0,0,0.505,0.425,1.005,0.856     c0.499,0.432,0.998,0.864,0.998,0.864s0.494,0.415,1.205,1.068c0.699,0.667,1.63,1.557,2.562,2.448     c0.889,0.932,1.779,1.864,2.445,2.564c0.648,0.716,1.065,1.208,1.065,1.208s0.851,0.968,1.677,1.957     c0.798,1.012,1.596,2.025,1.596,2.025s0.198,0.254,0.495,0.635c0.296,0.382,0.663,0.913,1.04,1.435     c0.373,0.526,0.745,1.052,1.025,1.447c0.282,0.393,0.454,0.666,0.454,0.666l1.429,2.225c0,0,0.273,0.405,0.642,1.037     c0.365,0.634,0.853,1.48,1.34,2.326c0.498,0.84,0.918,1.724,1.26,2.371c0.333,0.653,0.554,1.088,0.554,1.088     s0.145,0.289,0.362,0.722c0.201,0.441,0.469,1.029,0.738,1.617c0.265,0.59,0.529,1.179,0.728,1.622     c0.196,0.443,0.308,0.747,0.308,0.747l0.972,2.465c0,0,0.238,0.584,0.434,1.183c0.203,0.597,0.407,1.193,0.407,1.193     s0.208,0.621,0.521,1.552c0.302,0.934,0.646,2.199,1.003,3.458c0.356,1.26,0.616,2.544,0.845,3.499     c0.228,0.956,0.337,1.6,0.337,1.6s0.227,1.272,0.455,2.543c0.12,0.635,0.203,1.275,0.264,1.755c0.062,0.48,0.103,0.8,0.103,0.8     s0.178,1.279,0.302,2.561c0.099,1.284,0.198,2.568,0.198,2.568s0.057,0.659,0.084,1.317c0.019,0.658,0.038,1.317,0.038,1.317     L1975.111,1822.641h14.371c0,0-0.011-0.571-0.032-1.677c-0.039-1.107-0.03-2.745-0.214-4.889     c-0.289-4.273-0.985-10.603-3.142-18.386c-2.145-7.758-5.77-17.003-11.939-26.368c-6.13-9.346-14.79-18.832-26.258-26.511     c-5.729-3.824-12.137-7.185-19.112-9.819c-6.968-2.644-14.528-4.465-22.368-5.371c-7.849-0.911-15.921-0.772-24.151,0.387     c-4.1,0.627-8.23,1.459-12.303,2.662c-2.05,0.554-4.061,1.269-6.087,1.964c-1.005,0.37-2.001,0.769-3.002,1.163l-1.498,0.603     l-1.478,0.657c-15.805,6.976-30.028,18.697-40.03,33.784c-2.514,3.759-4.726,7.743-6.696,11.858     c-1.963,4.122-3.578,8.424-4.932,12.81c-1.343,4.394-2.308,8.902-3.006,13.442c-0.67,4.548-0.97,9.128-1.006,13.691     c0.036,4.563,0.336,9.143,1.006,13.691c0.698,4.54,1.663,9.048,3.006,13.442c1.354,4.386,2.969,8.688,4.932,12.81     c1.969,4.115,4.181,8.099,6.696,11.858c10.002,15.087,24.225,26.808,40.03,33.784l1.478,0.657l1.498,0.603     c1,0.395,1.997,0.794,3.002,1.163c2.026,0.694,4.037,1.409,6.087,1.964c4.073,1.203,8.203,2.035,12.303,2.662     c8.23,1.16,16.302,1.298,24.151,0.387c7.84-0.906,15.4-2.727,22.368-5.371c6.975-2.634,13.383-5.996,19.112-9.819     c11.468-7.679,20.127-17.165,26.258-26.511c6.168-9.365,9.794-18.61,11.939-26.368c2.158-7.783,2.853-14.113,3.142-18.386     c0.183-2.144,0.175-3.782,0.214-4.889c0.021-1.106,0.032-1.677,0.032-1.677H1975.111z"
/>
</g>
</svg>
