<?xml version="1.0" encoding="UTF-8" standalone="no"?>
<svg
  version="1.1"
  viewBox="20 100 400 400"
  xmlns="http://www.w3.org/2000/svg">
<g fill="none">
<path
   style="fill:#75CBEA;"
   d="M168.202,409.359c1.603-0.74,2.609-1.691,3.092-2.864c0.483-1.172,0.441-2.557-0.077-4.154      c0,0-0.37-1.2-0.741-2.399c-0.182-0.591-0.35-1.195-0.469-1.661c-0.119-0.458-0.199-0.764-0.199-0.764s-0.316-1.208-0.633-2.415      c-0.292-1.194-0.583-2.389-0.583-2.389s-0.067-0.295-0.167-0.738c-0.098-0.444-0.232-1.022-0.341-1.634      c-0.215-1.2-0.43-2.401-0.43-2.401s-0.186-1.196-0.371-2.392c-0.162-1.181-0.324-2.362-0.324-2.362s-0.045-0.287-0.093-0.741      c-0.048-0.448-0.112-1.044-0.176-1.641c-0.109-1.18-0.217-2.36-0.217-2.36s-0.072-1.169-0.145-2.337      c-0.072-1.147-0.077-2.339-0.077-2.339s-0.019-1.164-0.038-2.328c0.002-1.146,0.004-2.291,0.004-2.291s0.006-0.282,0.014-0.706      c0.013-0.428,0.017-0.971,0.054-1.552c0.074-1.138,0.148-2.275,0.148-2.275s0.101-1.128,0.202-2.255      c0.121-1.108,0.242-2.216,0.242-2.216c0.164-1.492,0.005-2.478-0.58-2.956l9.822-11.701c0.471,0.383,0.51,1.283,0.203,2.71      c0,0-0.127,0.646-0.349,1.777c-0.213,1.141-0.503,2.79-0.787,4.836c-0.243,1.985-0.467,4.348-0.614,6.973      c-0.108,2.559-0.116,5.346-0.008,8.207c0.076,1.391,0.178,2.803,0.304,4.211c0.07,0.708,0.139,1.411,0.207,2.105      c0.039,0.35,0.078,0.699,0.116,1.044c0.047,0.337,0.094,0.671,0.141,1.002c0.389,2.65,0.836,5.225,1.308,7.4      c0.486,2.141,0.958,3.96,1.303,5.241c0.357,1.286,0.562,2.021,0.562,2.021c0.464,1.513,1.201,2.456,2.153,2.806      c0.476,0.174,1.006,0.199,1.583,0.073c0.288-0.063,0.588-0.163,0.898-0.302c0.315-0.151,0.64-0.34,0.975-0.567      c0,0,0.627-0.431,1.724-1.185c1.086-0.763,2.605-1.831,4.357-3.181c1.768-1.4,3.755-3.05,5.759-4.834      c2.026-1.859,4.079-3.898,5.992-5.922c1.935-2.14,3.734-4.267,5.31-6.293c1.583-2.106,2.941-4.067,4.039-5.741      c1.1-1.725,1.942-3.201,2.515-4.209c0.559-1.013,0.879-1.591,0.879-1.591c0.171-0.316,0.337-0.591,0.5-0.824      c0.162-0.246,0.321-0.453,0.477-0.617c0.313-0.329,0.616-0.492,0.919-0.494c0.606-0.005,1.208,0.644,1.87,1.953      c0,0,0.513,0.916,1.026,1.833c0.541,0.921,1.082,1.841,1.082,1.841s0.563,0.925,1.126,1.849c0.289,0.47,0.582,0.92,0.804,1.247      c0.224,0.332,0.373,0.554,0.373,0.554s0.616,0.9,1.233,1.799c0.645,0.901,1.289,1.803,1.289,1.803s0.167,0.222,0.418,0.556      c0.252,0.331,0.594,0.789,0.937,1.203c0.701,0.848,1.403,1.696,1.403,1.696s0.724,0.861,1.448,1.722      c0.753,0.86,1.505,1.72,1.505,1.72s0.193,0.217,0.483,0.514c0.294,0.301,0.686,0.703,1.077,1.105      c0.807,0.802,1.614,1.605,1.614,1.605s0.827,0.802,1.655,1.603c0.843,0.818,1.7,1.554,1.7,1.554s0.876,0.765,1.752,1.531      c0.904,0.761,1.808,1.522,1.808,1.522s0.232,0.186,0.58,0.465c0.348,0.272,0.823,0.664,1.29,1.006      c0.953,0.696,1.906,1.393,1.906,1.393s0.975,0.704,1.951,1.409c1.003,0.698,2.005,1.395,2.005,1.395      c1.341,0.876,2.507,1.111,3.492,0.76c0.473-0.172,0.893-0.493,1.254-0.96c0.18-0.234,0.347-0.501,0.495-0.811      c0.145-0.318,0.274-0.672,0.387-1.061c0,0,0.318-1.176,0.636-2.351c0.293-1.163,0.586-2.327,0.586-2.327      s0.073-0.287,0.181-0.717c0.105-0.434,0.253-0.988,0.375-1.585c0.241-1.168,0.481-2.335,0.481-2.335s0.203-1.161,0.407-2.321      c0.18-1.146,0.359-2.293,0.359-2.293s0.046-0.281,0.103-0.722c0.055-0.435,0.129-1.014,0.202-1.594      c0.127-1.146,0.255-2.292,0.255-2.292s0.098-1.126,0.195-2.252c0.046-0.555,0.081-1.116,0.097-1.551      c0.018-0.427,0.03-0.712,0.03-0.712s0.028-1.139,0.055-2.278c0.006-1.122,0.012-2.243,0.012-2.243s0.001-0.276,0.003-0.69      c0.001-0.412,0.001-0.957-0.022-1.526c-0.046-1.114-0.092-2.228-0.092-2.228s-0.079-1.101-0.158-2.202      c-0.099-1.082-0.199-2.164-0.199-2.164s-0.13-1.089-0.261-2.179c-0.15-1.069-0.3-2.138-0.3-2.138s-0.174-1.045-0.348-2.09      c-0.086-0.511-0.197-1.043-0.28-1.438c-0.084-0.393-0.14-0.656-0.14-0.656c-0.327-1.428-0.263-2.302,0.212-2.679      c0.511-0.372,1.341-0.33,2.685,0.233c0,0,0.993,0.386,1.985,0.773c0.506,0.187,1.013,0.374,1.392,0.514      c0.381,0.134,0.635,0.223,0.635,0.223s1.016,0.323,2.032,0.645c1.039,0.307,2.078,0.614,2.078,0.614s1.066,0.304,2.132,0.608      c0.546,0.154,1.06,0.272,1.463,0.371c0.4,0.095,0.667,0.158,0.667,0.158s0.807,0.176,2.017,0.441      c0.617,0.123,1.337,0.267,2.108,0.42c0.781,0.15,1.62,0.301,2.435,0.415c1.647,0.246,3.336,0.454,4.621,0.593      c0.646,0.066,1.184,0.121,1.561,0.16c0.382,0.039,0.587,0.048,0.587,0.048s1.137,0.064,2.274,0.127      c1.157,0.043,2.313,0.087,2.313,0.087s1.18,0.036,2.36,0.073c0.601,0.017,1.166,0.002,1.609,0.001      c0.439-0.006,0.732-0.01,0.732-0.01s2.339-0.048,4.755-0.193c1.221-0.06,2.389-0.183,3.288-0.275      c0.899-0.098,1.498-0.164,1.498-0.164c1.587-0.191,2.68-0.721,3.195-1.594c0.483-0.891,0.414-2.1-0.202-3.595      c0,0-0.494-1.095-0.989-2.19c-0.242-0.537-0.525-1.088-0.727-1.493c-0.205-0.405-0.342-0.675-0.342-0.675      s-0.409-0.797-1.023-1.993c-0.631-1.189-1.428-2.716-2.339-4.235c-1.823-3.056-3.728-5.845-3.728-5.845      s-0.165-0.237-0.413-0.592c-0.252-0.351-0.588-0.819-0.924-1.287c-0.678-0.913-1.355-1.825-1.355-1.825      s-0.697-0.882-1.395-1.764c-0.683-0.864-1.447-1.724-1.447-1.724s-2.21-2.579-4.467-4.885c-2.372-2.372-4.766-4.466-4.766-4.466      s-0.779-0.703-1.63-1.397c-0.835-0.677-1.671-1.354-1.671-1.354c-1.157-0.881-1.659-1.595-1.523-2.197l15.046,2.642      c-0.16,0.746,0.305,1.601,1.396,2.615c0,0,0.41,0.388,1.024,0.971c0.606,0.586,1.455,1.394,2.209,2.201      c1.548,1.616,3.081,3.355,3.081,3.355s0.758,0.882,1.516,1.765c0.721,0.884,1.427,1.795,1.427,1.795s0.72,0.92,1.44,1.839      c0.714,0.947,1.429,1.894,1.429,1.894s0.132,0.181,0.362,0.497c0.237,0.32,0.55,0.77,0.915,1.316      c0.738,1.092,1.714,2.581,2.675,4.122c0.475,0.768,0.969,1.557,1.389,2.29c0.413,0.74,0.798,1.431,1.128,2.023      c0.65,1.212,1.084,2.021,1.084,2.021s0.562,1.108,1.125,2.215c0.285,0.563,0.549,1.124,0.735,1.541      c0.191,0.422,0.318,0.703,0.318,0.703s0.517,1.137,1.033,2.275c0.505,1.163,1.01,2.326,1.01,2.326      c0.326,0.782,0.707,1.446,1.147,1.987c0.428,0.535,0.92,0.951,1.483,1.243c0.563,0.292,1.194,0.46,1.9,0.498      c0.694,0.032,1.458-0.069,2.299-0.308c0,0,1.239-0.383,2.479-0.765c1.251-0.408,2.502-0.816,2.502-0.816      s0.316-0.109,0.789-0.272c0.48-0.162,1.106-0.388,1.716-0.629c1.238-0.488,2.476-0.975,2.476-0.975s1.254-0.498,2.508-0.996      c1.264-0.525,2.527-1.049,2.527-1.049s0.307-0.143,0.768-0.356c0.46-0.22,1.073-0.513,1.687-0.807      c1.234-0.609,2.467-1.218,2.467-1.218s1.248-0.621,2.496-1.241c1.268-0.627,2.468-1.308,2.468-1.308s1.209-0.691,2.418-1.382      c1.215-0.718,2.43-1.437,2.43-1.437s1.225-0.742,2.445-1.517c1.186-0.796,2.372-1.592,2.372-1.592s1.198-0.808,2.396-1.615      c1.202-0.835,2.403-1.67,2.403-1.67s1.208-0.861,2.346-1.766c1.155-0.914,2.31-1.828,2.31-1.828      c1.539-1.21,2.457-2.597,2.749-4.093l0,0l15.047,2.642v0c-0.317,1.639-1.262,3.169-2.83,4.52c0,0-0.591,0.509-1.478,1.273      c-0.895,0.757-2.045,1.756-3.289,2.717c-2.449,1.935-4.891,3.746-4.891,3.746s-1.215,0.903-2.431,1.807      c-1.25,0.882-2.507,1.732-2.507,1.732s-1.258,0.82-2.517,1.641c-1.254,0.793-2.508,1.585-2.508,1.585s-0.233,0.147-0.642,0.403      c-0.402,0.258-1,0.616-1.725,1.035c-1.443,0.842-3.36,1.931-5.265,2.966c-0.958,0.516-1.89,1.029-2.801,1.484      c-0.913,0.445-1.766,0.86-2.496,1.216c-1.453,0.683-2.422,1.138-2.422,1.138s-1.283,0.591-2.566,1.182      c-0.633,0.292-1.283,0.569-1.78,0.77c-0.491,0.202-0.819,0.336-0.819,0.336s-1.309,0.503-2.618,1.007      c-1.299,0.477-2.598,0.954-2.598,0.954s-0.32,0.116-0.801,0.291c-0.482,0.172-1.109,0.405-1.773,0.613      c-1.304,0.412-2.609,0.824-2.609,0.824c-1.754,0.568-2.912,1.37-3.525,2.487c-0.644,1.099-0.771,2.484-0.362,4.254      c0,0,0.288,1.344,0.577,2.688c0.296,1.364,0.506,2.708,0.506,2.708s0.236,1.362,0.472,2.723      c0.218,1.384,0.437,2.767,0.437,2.767s0.049,0.348,0.123,0.869c0.068,0.519,0.179,1.231,0.247,1.918      c0.139,1.394,0.278,2.789,0.278,2.789s0.112,1.425,0.224,2.851c0.093,1.446,0.185,2.891,0.185,2.891s0.031,0.367,0.051,0.901      c0.021,0.54,0.048,1.259,0.076,1.979c0.038,1.455,0.076,2.911,0.076,2.911s-0.001,1.477-0.002,2.955      c0.003,1.497-0.076,2.962-0.076,2.962s-0.056,1.483-0.112,2.967c-0.078,1.501-0.156,3.002-0.156,3.002s-0.025,0.376-0.063,0.94      c-0.043,0.561-0.085,1.33-0.166,2.068c-0.16,1.497-0.32,2.995-0.32,2.995s-0.194,1.524-0.387,3.048      c-0.217,1.54-0.434,3.079-0.434,3.079s-0.051,0.387-0.146,0.954c-0.095,0.572-0.221,1.334-0.348,2.097      c-0.273,1.537-0.547,3.075-0.547,3.075c-0.4,2.044-1.221,3.671-2.571,4.747c-1.284,1.056-2.989,1.632-5.066,1.678      c0,0-0.39,0.005-0.974,0.014c-0.583,0.008-1.356,0.017-2.145-0.004c-1.558-0.039-3.116-0.078-3.116-0.078      s-1.544-0.041-3.088-0.082c-1.525-0.061-3.05-0.123-3.05-0.123s-4.609-0.334-9.014-0.857c-2.215-0.266-4.434-0.64-6.057-0.904      c-1.619-0.282-2.699-0.47-2.699-0.47s-0.356-0.068-0.891-0.169c-0.53-0.096-1.245-0.247-1.961-0.411      c-1.416-0.328-2.832-0.656-2.832-0.656s-1.399-0.327-2.799-0.655c-0.69-0.17-1.38-0.34-1.897-0.468      c-0.512-0.126-0.859-0.225-0.859-0.225s-4.145-1.178-8.05-2.497c-1.971-0.68-3.919-1.44-5.345-1.997      c-1.418-0.57-2.363-0.95-2.363-0.95c-0.416-0.17-0.814-0.305-1.197-0.403c-0.386-0.107-0.758-0.184-1.114-0.222      c-0.712-0.077-1.362-0.008-1.956,0.208c-1.234,0.442-2.209,1.484-3.032,3.099c0,0-0.398,0.748-1.096,2.057      c-0.71,1.312-1.748,3.193-3.081,5.468c-1.351,2.207-3.009,4.784-4.91,7.569c-1.916,2.713-4.091,5.587-6.403,8.461      c-1.164,1.392-2.362,2.785-3.573,4.157c-0.613,0.686-1.222,1.366-1.823,2.038c-0.306,0.336-0.611,0.67-0.913,1.001      c-0.308,0.319-0.613,0.636-0.916,0.951c-2.438,2.503-4.833,4.871-6.957,6.827c-2.126,1.917-3.973,3.506-5.283,4.615      c-1.323,1.107-2.079,1.74-2.079,1.74c-1.625,1.294-3.294,1.929-4.974,1.934c-0.84,0.001-1.681-0.156-2.52-0.474      c-0.42-0.159-0.839-0.358-1.259-0.598c-0.418-0.254-0.836-0.548-1.254-0.883c0,0-1.198-1.015-2.396-2.029      c-1.17-1.019-2.34-2.038-2.34-2.038s-1.159-1.006-2.285-2.024c-1.11-1.056-2.22-2.113-2.22-2.113s-1.097-1.06-2.194-2.12      c-1.069-1.062-2.138-2.124-2.138-2.124s-1.043-1.06-2.042-2.193c-0.99-1.116-1.979-2.233-1.979-2.233s-0.978-1.107-1.956-2.213      c-0.95-1.106-1.9-2.213-1.9-2.213s-0.899-1.157-1.799-2.314c-0.872-1.155-1.744-2.31-1.744-2.31s-0.847-1.141-1.694-2.282      c-0.838-1.123-1.633-2.315-1.633-2.315s-0.798-1.18-1.595-2.361c-0.77-1.176-1.54-2.352-1.54-2.352s-0.727-1.18-1.454-2.359      c-0.706-1.212-1.38-2.428-1.38-2.428s-0.678-1.203-1.355-2.405c-0.65-1.196-1.301-2.392-1.301-2.392      c-0.207-0.397-0.424-0.755-0.653-1.075c-0.225-0.332-0.461-0.629-0.709-0.887c-0.496-0.517-1.041-0.883-1.639-1.101      c-1.196-0.438-2.607-0.28-4.273,0.449c0,0-1.264,0.497-2.527,0.995c-1.289,0.485-2.578,0.97-2.578,0.97      s-1.307,0.488-2.614,0.975c-0.662,0.247-1.322,0.474-1.814,0.63c-0.496,0.161-0.827,0.269-0.827,0.269s-1.345,0.405-2.69,0.81      c-1.369,0.39-2.738,0.781-2.738,0.781s-0.343,0.097-0.858,0.242c-0.515,0.142-1.212,0.343-1.894,0.502      c-1.385,0.328-2.769,0.656-2.769,0.656s-1.413,0.322-2.827,0.645c-1.436,0.306-2.872,0.611-2.872,0.611      s-0.366,0.076-0.903,0.161c-0.542,0.087-1.266,0.203-1.989,0.319c-1.465,0.217-2.931,0.434-2.931,0.434      s-1.481,0.216-2.962,0.433c-1.5,0.223-2.981,0.36-2.981,0.36s-1.506,0.125-3.011,0.251c-1.526,0.106-3.052,0.212-3.052,0.212      s-0.382,0.025-0.954,0.063c-0.57,0.032-1.35,0.095-2.104,0.114c-1.528,0.041-3.057,0.081-3.057,0.081s-1.555,0.03-3.109,0.059      c-1.573,0.008-3.147,0.016-3.147,0.016c-2.127-0.068-3.812-0.674-5.104-1.746l9.822-11.701c1.179,0.977,2.749,1.489,4.756,1.463      c0,0,1.479-0.067,2.957-0.134c1.459-0.086,2.918-0.173,2.918-0.173s1.446-0.116,2.892-0.231c0.713-0.056,1.451-0.156,1.99-0.216      c0.541-0.066,0.902-0.109,0.902-0.109s1.434-0.17,2.867-0.34c1.412-0.188,2.824-0.376,2.824-0.376s0.261-0.039,0.718-0.107      c0.452-0.063,1.111-0.176,1.9-0.323c1.574-0.288,3.647-0.693,5.675-1.131c2.017-0.414,4.04-0.949,5.532-1.356      c1.479-0.413,2.465-0.689,2.465-0.689s1.292-0.39,2.584-0.781c0.636-0.191,1.286-0.422,1.765-0.587      c0.48-0.168,0.799-0.279,0.799-0.279s1.268-0.44,2.536-0.88c1.243-0.453,2.486-0.906,2.486-0.906s0.304-0.117,0.76-0.292      c0.452-0.169,1.059-0.414,1.669-0.678C167.001,409.88,168.202,409.359,168.202,409.359z M261.769,406.426      c0.487,1.171,1.506,2.12,3.106,2.866c0,0,0.301,0.131,0.754,0.327c0.452,0.191,1.067,0.467,1.668,0.696      c1.223,0.47,2.445,0.939,2.445,0.939s0.931,0.348,2.328,0.871c0.711,0.254,1.541,0.551,2.43,0.869      c0.899,0.316,1.841,0.597,2.807,0.899c1.925,0.592,3.897,1.155,5.396,1.563c0.753,0.211,1.373,0.361,1.808,0.463      c0.437,0.104,0.686,0.163,0.686,0.163s1.345,0.315,2.69,0.63c1.368,0.299,2.736,0.598,2.736,0.598s0.347,0.068,0.867,0.17      c0.522,0.102,1.222,0.237,1.91,0.341c1.395,0.214,2.789,0.427,2.789,0.427s1.058,0.154,2.644,0.384      c0.805,0.106,1.743,0.229,2.749,0.361c1.005,0.115,2.069,0.208,3.151,0.305c2.158,0.189,4.357,0.339,6.023,0.434      c0.839,0.055,1.514,0.061,1.999,0.078c0.483,0.012,0.759,0.019,0.759,0.019c1.962,0.045,3.552-0.438,4.725-1.4      c1.234-0.979,1.944-2.51,2.234-4.456c0,0,0.114-0.823,0.314-2.263c0.192-1.433,0.46-3.457,0.647-5.929      c0.102-1.227,0.199-2.547,0.287-3.93c0.082-1.388,0.18-2.813,0.196-4.338c0.03-1.511,0.043-3.057,0.037-4.61      c-0.015-1.561-0.009-3.094-0.105-4.682c-0.079-1.573-0.177-3.127-0.291-4.639c-0.122-1.518-0.223-2.963-0.414-4.408      c-0.35-2.864-0.739-5.464-1.106-7.65c-0.423-2.228-0.812-4.036-1.092-5.291c-0.286-1.246-0.45-1.958-0.45-1.958      c-0.394-1.714-1.197-2.908-2.258-3.583c-1.079-0.687-2.408-0.849-4.124-0.614c0,0-1.261,0.144-2.523,0.289      c-1.245,0.121-2.491,0.243-2.491,0.243s-0.306,0.028-0.766,0.071c-0.464,0.038-1.056,0.102-1.684,0.133      c-1.236,0.06-2.472,0.12-2.472,0.12s-1.224,0.046-2.448,0.093c-1.206,0.025-2.412,0.05-2.412,0.05s-0.295,0.005-0.759-0.01      c-0.458-0.015-1.068-0.035-1.679-0.054c-1.205-0.057-2.41-0.113-2.41-0.113s-1.182-0.062-2.364-0.124      c-1.16-0.059-2.358-0.192-2.358-0.192s-1.177-0.142-2.353-0.285c-1.156-0.161-2.312-0.323-2.312-0.323s-0.283-0.041-0.708-0.103      c-0.428-0.067-0.977-0.14-1.557-0.251c-1.135-0.217-2.27-0.434-2.27-0.434s-1.119-0.229-2.238-0.457      c-1.096-0.245-2.193-0.491-2.193-0.491s-0.271-0.066-0.69-0.182c-0.413-0.115-0.964-0.27-1.514-0.423      c-1.082-0.321-2.164-0.643-2.164-0.643c-1.428-0.437-2.364-0.376-2.991,0.094c-0.587,0.47-0.771,1.431-0.582,2.92      c0,0,0.036,0.281,0.091,0.704c0.054,0.424,0.124,0.994,0.171,1.543c0.094,1.121,0.187,2.241,0.187,2.241s0.06,1.135,0.121,2.27      c0.04,1.154,0.08,2.308,0.08,2.308s0.049,3.383-0.114,6.941c-0.082,1.763-0.253,3.488-0.382,4.829      c-0.146,1.339-0.243,2.231-0.243,2.231s-0.034,0.301-0.086,0.753c-0.049,0.459-0.129,1.052-0.22,1.639      c-0.188,1.19-0.377,2.379-0.377,2.379s-0.226,1.198-0.452,2.396c-0.123,0.605-0.246,1.21-0.338,1.664      c-0.094,0.459-0.165,0.753-0.165,0.753s-0.541,2.368-1.191,4.794c-0.324,1.205-0.66,2.446-0.939,3.341      c-0.286,0.895-0.477,1.492-0.477,1.492C261.33,403.87,261.282,405.255,261.769,406.426z M181.024,410.009      c-0.379,1.211-0.216,2.589,0.54,4.19c0,0,0.571,1.174,1.174,2.344c0.625,1.139,1.249,2.279,1.249,2.279s0.662,1.148,1.325,2.297      c0.69,1.154,1.379,2.308,1.379,2.308s0.685,1.177,1.415,2.289c0.738,1.13,1.477,2.26,1.477,2.26s0.578,0.845,1.444,2.113      c0.448,0.636,0.97,1.377,1.53,2.172c0.571,0.783,1.196,1.588,1.83,2.411c1.268,1.637,2.591,3.279,3.607,4.511      c0.508,0.616,0.937,1.134,1.242,1.472c0.306,0.345,0.48,0.543,0.48,0.543s0.959,1.05,1.917,2.1      c0.986,1.05,1.973,2.099,1.973,2.099s1,1.059,1.999,2.119c1.016,1.021,2.064,2.033,2.064,2.033s1.061,1.001,2.121,2.002      c1.088,0.999,2.177,1.997,2.177,1.997c0.38,0.334,0.76,0.627,1.141,0.88c0.382,0.24,0.764,0.437,1.146,0.596      c0.765,0.317,1.531,0.474,2.297,0.473c1.532-0.005,3.053-0.637,4.531-1.928c0,0,1.105-1.004,2.21-2.008      c1.077-1.007,2.153-2.013,2.153-2.013s1.034-1.02,2.068-2.04c0.511-0.503,1.014-1.027,1.387-1.432      c0.372-0.399,0.621-0.665,0.621-0.665s0.976-1.053,1.952-2.106c0.948-1.053,1.896-2.106,1.896-2.106s0.236-0.264,0.589-0.659      c0.352-0.398,0.819-0.913,1.274-1.47c0.899-1.096,1.799-2.191,1.799-2.191s0.857-1.104,1.714-2.208      c0.829-1.101,1.658-2.203,1.658-2.203s0.209-0.268,0.513-0.697c0.301-0.424,0.703-0.989,1.105-1.554      c0.78-1.127,1.56-2.255,1.56-2.255s0.738-1.133,1.476-2.265c0.73-1.114,1.41-2.299,1.41-2.299s0.676-1.152,1.352-2.304      c0.649-1.146,1.298-2.292,1.298-2.292s0.161-0.286,0.402-0.716c0.238-0.435,0.559-0.986,0.861-1.584      c0.595-1.176,1.189-2.352,1.189-2.352c0.751-1.599,0.91-2.975,0.527-4.185c-0.383-1.208-1.306-2.241-2.729-3.129      c0,0-0.596-0.377-1.64-1.038c-0.257-0.166-0.541-0.35-0.851-0.55c-0.31-0.213-0.644-0.443-1.002-0.69      c-0.711-0.494-1.503-1.053-2.352-1.667c-0.849-0.614-1.753-1.282-2.689-1.992c-0.932-0.693-1.919-1.529-2.903-2.343      c-1.976-1.663-3.976-3.388-5.898-5.31c-1.917-1.892-3.715-3.728-5.33-5.631c-0.805-0.931-1.56-1.83-2.257-2.683      c-0.697-0.848-1.336-1.654-1.916-2.448c-1.158-1.558-2.062-2.852-2.681-3.756c-0.608-0.903-0.956-1.419-0.956-1.419      c-0.809-1.267-1.558-1.905-2.313-1.9c-0.377,0.002-0.755,0.162-1.142,0.483c-0.194,0.16-0.39,0.361-0.59,0.6      c-0.2,0.226-0.404,0.491-0.612,0.797c0,0-0.621,0.929-1.242,1.859c-0.649,0.932-1.298,1.864-1.298,1.864      s-0.661,0.924-1.353,1.841c-0.702,0.88-1.404,1.761-1.404,1.761s-0.738,0.88-1.475,1.761c-0.766,0.88-1.531,1.761-1.531,1.761      s-0.772,0.907-1.569,1.739c-0.81,0.848-1.62,1.697-1.62,1.697s-0.844,0.834-1.689,1.667c-0.872,0.831-1.743,1.662-1.743,1.662      s-0.885,0.799-1.769,1.598c-0.912,0.796-1.824,1.591-1.824,1.591s-0.937,0.78-1.873,1.56c-0.952,0.794-1.917,1.513-1.917,1.513      s-0.989,0.726-1.978,1.452c-1.016,0.72-2.032,1.441-2.032,1.441s-1.036,0.728-2.072,1.456c-1.038,0.691-2.103,1.363-2.103,1.363      C182.321,407.766,181.403,408.799,181.024,410.009z"
/>
<path
   style="fill:#E0486C;"
   d="M335.243,325.32c0,0,1.158-0.645,2.248-1.335c1.109-0.699,2.219-1.398,2.219-1.398      c1.481-0.928,2.344-2.029,2.586-3.24l0,0l-18.785-3.298l0,0c-0.211,1.031,0.209,2.174,1.233,3.469c0,0,0.779,1.002,1.557,2.004      c0.793,1.018,1.507,2.049,1.507,2.049c0.96,1.363,2.042,2.219,3.271,2.528C332.31,326.406,333.68,326.165,335.243,325.32z"
/>
<path
   style="fill:#E0486C;"
   d="M290.032,379.774c-1.641-0.235-2.805,0.013-3.663,0.676c-0.81,0.658-1.216,1.811-1.264,3.474      c0,0-0.007,0.316-0.017,0.789c-0.011,0.475-0.027,1.112-0.067,1.728c-0.081,1.253-0.163,2.506-0.163,2.506      c-0.16,1.694,0.114,3.056,0.857,4.083c0.743,1.028,1.949,1.714,3.709,2.04c0,0,1.289,0.228,2.577,0.456      c0.654,0.116,1.294,0.204,1.777,0.268c0.484,0.065,0.807,0.108,0.807,0.108c1.732,0.227,3.094-0.07,4.044-0.845      c1.003-0.785,1.49-2.123,1.561-3.874c0,0,0.037-1.307,0.073-2.615c0.01-0.646,0.019-1.292,0.026-1.777      c0.007-0.479,0-0.808,0-0.808c-0.056-1.779-0.536-3.087-1.419-3.998c-0.883-0.91-2.164-1.414-3.822-1.559      c0,0-0.311-0.028-0.79-0.088c-0.474-0.06-1.105-0.139-1.736-0.218C291.277,379.949,290.032,379.774,290.032,379.774z"
/>
<path
   style="fill:#E0486C;"
   d="M219.767,407.806c-1.105-1.249-2.148-1.892-3.199-1.887c-0.525,0.002-1.051,0.163-1.587,0.483      c-0.268,0.159-0.539,0.359-0.814,0.596c-0.275,0.224-0.554,0.486-0.838,0.787c0,0-0.842,0.921-1.683,1.843      c-0.869,0.921-1.739,1.841-1.739,1.841c-1.18,1.213-1.839,2.446-1.931,3.705c-0.093,1.271,0.381,2.558,1.483,3.921      c0,0,0.84,0.99,1.681,1.98c0.868,0.991,1.736,1.981,1.736,1.981c0.304,0.331,0.609,0.623,0.915,0.874      c0.306,0.238,0.613,0.434,0.921,0.592c0.616,0.315,1.234,0.471,1.852,0.469c1.236-0.005,2.463-0.633,3.644-1.915      c0,0,0.88-0.996,1.76-1.992c0.852-0.995,1.704-1.991,1.704-1.991c1.094-1.367,1.577-2.662,1.485-3.927      c-0.092-1.264-0.759-2.49-1.929-3.698c0,0-0.879-0.915-1.757-1.831C220.617,408.721,219.767,407.806,219.767,407.806z"
/>
<path
   style="fill:#E0486C;"
   d="M143.653,395.213c1.722-0.337,2.917-1.023,3.66-2.051c0.742-1.028,1.027-2.391,0.901-4.076      c0,0-0.076-1.261-0.151-2.523c-0.054-1.244-0.108-2.488-0.108-2.488c-0.081-1.673-0.464-2.853-1.275-3.521l-12.262,14.608      c0.952,0.787,2.294,1.113,4.062,0.898c0,0,1.304-0.203,2.608-0.406C142.371,395.433,143.653,395.213,143.653,395.213z"
/>
<path
   style="fill:#75CBEA;"
   d="M143.525,199.419c-0.169,1.749,0.147,3.091,0.92,4.097c0.772,1.006,1.996,1.667,3.645,2.028      c0,0,1.23,0.287,2.459,0.574c1.207,0.303,2.413,0.605,2.413,0.605s1.208,0.336,2.417,0.671c1.185,0.351,2.37,0.701,2.37,0.701      s1.154,0.37,2.307,0.74c0.567,0.182,1.145,0.392,1.575,0.551c0.429,0.159,0.715,0.264,0.715,0.264s1.134,0.441,2.267,0.883      c1.109,0.454,2.218,0.908,2.218,0.908s0.274,0.112,0.684,0.28c0.406,0.162,0.954,0.4,1.503,0.651      c1.081,0.499,2.161,0.998,2.161,0.998s1.053,0.525,2.106,1.049c0.516,0.267,1.032,0.533,1.419,0.734      c0.382,0.198,0.64,0.343,0.64,0.343s1.022,0.568,2.044,1.135c0.996,0.577,1.991,1.154,1.991,1.154s0.962,0.589,1.924,1.178      c0.471,0.288,0.955,0.622,1.308,0.856c0.354,0.239,0.589,0.399,0.589,0.399s0.93,0.654,1.86,1.307      c0.903,0.661,1.806,1.322,1.806,1.322c0.301,0.216,0.584,0.396,0.849,0.54c0.269,0.152,0.523,0.276,0.76,0.359      c0.474,0.168,0.884,0.188,1.239,0.06l5.248,14.347c-0.286,0.103-0.627,0.054-1.034-0.147c-0.203-0.099-0.424-0.241-0.66-0.413      c-0.233-0.163-0.483-0.364-0.753-0.603c0,0-0.499-0.435-1.373-1.195c-0.881-0.746-2.189-1.863-3.803-3.083      c-1.601-1.194-3.563-2.604-5.756-4.011c-1.084-0.679-2.231-1.371-3.428-2.063c-1.193-0.686-2.454-1.405-3.693-2.019      c-5.016-2.593-10.478-4.735-14.718-6.063c-2.11-0.662-3.93-1.175-5.219-1.524c-0.645-0.175-1.135-0.282-1.48-0.367      c-0.343-0.081-0.525-0.124-0.525-0.124c-1.548-0.361-2.746-0.21-3.534,0.429c-0.805,0.62-1.121,1.821-1.027,3.414      c0,0,0.053,0.753,0.145,2.07c0.056,0.649,0.124,1.436,0.202,2.34c0.099,0.911,0.233,1.944,0.385,3.048      c0.316,2.221,0.682,4.704,1.298,7.401c0.293,1.335,0.613,2.691,0.957,4.042c0.333,1.342,0.776,2.753,1.19,4.096      c0.425,1.353,0.867,2.676,1.32,3.954c0.492,1.308,0.993,2.567,1.491,3.76c0.503,1.197,0.981,2.312,1.485,3.378      c0.516,1.074,1.016,2.067,1.484,2.968c0.94,1.804,1.727,3.222,2.362,4.247c0.617,0.998,0.969,1.568,0.969,1.568      c0.783,1.237,1.001,2.059,0.693,2.579c-0.279,0.536-1.116,0.745-2.568,0.671c0,0-1.063-0.038-2.146-0.051      c-0.55-0.012-1.063,0.002-1.462,0.008c-0.397,0.009-0.662,0.015-0.662,0.015s-1.068,0.033-2.135,0.066      c-1.084,0.056-2.168,0.112-2.168,0.112s-0.276,0.017-0.691,0.041c-0.421,0.023-0.969,0.065-1.503,0.12      c-1.088,0.116-2.176,0.232-2.176,0.232s-1.095,0.151-2.19,0.301c-1.11,0.175-2.22,0.35-2.22,0.35s-0.273,0.049-0.683,0.121      c-0.41,0.078-0.958,0.183-1.505,0.287c-1.106,0.23-2.212,0.459-2.212,0.459s-1.11,0.266-2.22,0.532      c-1.133,0.271-2.203,0.598-2.203,0.598s-1.091,0.324-2.182,0.647c-1.102,0.349-2.204,0.698-2.204,0.698      s-1.122,0.356-2.245,0.743c-1.093,0.41-2.186,0.82-2.186,0.82s-1.093,0.448-2.186,0.895c-1.102,0.474-2.203,0.948-2.203,0.948      s-1.128,0.471-2.193,0.989c-1.085,0.526-2.17,1.052-2.17,1.052c-1.43,0.726-2.263,1.611-2.471,2.637      c-0.146,0.999,0.334,2.114,1.432,3.284c0,0,0.841,0.864,1.682,1.728c0.825,0.85,1.725,1.677,1.725,1.677      s0.874,0.821,1.749,1.642c0.875,0.793,1.75,1.586,1.75,1.586s0.888,0.758,1.775,1.516c0.924,0.747,1.857,1.464,1.857,1.464      s0.917,0.712,1.834,1.423c0.915,0.684,1.83,1.368,1.83,1.368s0.897,0.663,1.869,1.296c0.953,0.62,1.906,1.241,1.906,1.241      s0.961,0.593,1.923,1.185c0.479,0.285,0.958,0.569,1.317,0.783c0.361,0.208,0.601,0.347,0.601,0.347s0.984,0.543,1.967,1.085      c0.978,0.515,1.956,1.03,1.956,1.03s0.984,0.479,1.967,0.959c0.483,0.234,0.984,0.46,1.372,0.625      c0.381,0.165,0.636,0.274,0.636,0.274s1.001,0.428,2.002,0.857c0.993,0.401,1.986,0.802,1.986,0.802s0.247,0.094,0.617,0.236      c0.372,0.14,0.852,0.324,1.372,0.497c1.022,0.35,2.034,0.671,2.034,0.671c1.391,0.425,2.107,0.911,2.186,1.506      c0.117,0.611-0.369,1.311-1.53,2.189c0,0-0.837,0.664-1.673,1.328c-0.854,0.681-1.629,1.376-1.629,1.376      s-0.792,0.718-1.584,1.436c-0.79,0.746-1.58,1.492-1.58,1.492s-0.201,0.19-0.501,0.476c-0.294,0.285-0.715,0.678-1.086,1.063      c-0.757,0.789-1.514,1.577-1.514,1.577s-0.559,0.612-1.397,1.529c-0.837,0.931-1.963,2.212-2.979,3.515      c-1.041,1.308-2.07,2.67-2.835,3.717c-0.387,0.524-0.699,0.964-0.902,1.268c-0.209,0.307-0.328,0.483-0.328,0.483      s-0.626,0.957-1.252,1.914c-0.618,0.984-1.237,1.967-1.237,1.967s-0.157,0.25-0.392,0.624c-0.23,0.374-0.557,0.885-0.839,1.384      c-0.577,1.017-1.154,2.035-1.154,2.035s-1.133,2.058-2.221,4.231c-1.032,2.132-1.994,4.366-1.994,4.366      c-0.627,1.472-0.743,2.702-0.197,3.559c0.523,0.87,1.599,1.42,3.196,1.64c0,0,0.299,0.033,0.748,0.082      c0.446,0.049,1.04,0.111,1.656,0.152c1.21,0.08,2.419,0.159,2.419,0.159s0.891,0.049,2.228,0.122      c0.659,0.025,1.428,0.055,2.252,0.086c0.828,0.018,1.729,0.011,2.608,0.004c1.767-0.017,3.497-0.075,4.777-0.137      c0.633-0.025,1.191-0.077,1.567-0.105c0.379-0.031,0.596-0.049,0.596-0.049s1.143-0.101,2.286-0.202      c1.123-0.12,2.246-0.241,2.246-0.241s0.278-0.037,0.696-0.091c0.411-0.051,0.976-0.139,1.542-0.236      c1.117-0.198,2.233-0.396,2.233-0.396s0.819-0.156,2.047-0.391c0.603-0.127,1.305-0.274,2.059-0.432      c0.766-0.183,1.576-0.387,2.374-0.597c1.6-0.42,3.154-0.873,4.298-1.226c0.572-0.175,1.069-0.353,1.403-0.465      c0.337-0.117,0.53-0.184,0.53-0.184s1.013-0.36,2.025-0.72c0.989-0.375,1.977-0.75,1.977-0.75      c0.33-0.137,0.631-0.244,0.903-0.32c0.279-0.085,0.533-0.143,0.757-0.168c0.449-0.052,0.786,0.018,1.02,0.213l-9.822,11.701h0      c-0.29-0.242-0.683-0.362-1.183-0.363c-0.249-0.001-0.528,0.029-0.83,0.085c-0.296,0.048-0.619,0.124-0.97,0.23      c0,0-2.117,0.633-4.336,1.196c-0.558,0.138-1.115,0.277-1.638,0.406c-0.518,0.112-1.001,0.216-1.416,0.305      c-0.837,0.168-1.395,0.281-1.395,0.281s-1.133,0.203-2.266,0.407c-1.154,0.186-2.309,0.371-2.309,0.371      s-0.292,0.049-0.719,0.105c-0.432,0.056-1.008,0.131-1.583,0.206c-1.169,0.134-2.338,0.269-2.338,0.269      s-0.888,0.081-2.221,0.203c-0.337,0.027-0.702,0.056-1.088,0.086c-0.379,0.019-0.78,0.039-1.193,0.06      c-0.831,0.038-1.724,0.071-2.626,0.094c-1.792,0.041-3.666,0.075-5.016,0.026c-1.368-0.051-2.28-0.086-2.28-0.086      s-1.234-0.074-2.467-0.148c-1.25-0.096-2.501-0.192-2.501-0.192s-1.238-0.127-2.475-0.253c-1.254-0.149-2.507-0.298-2.507-0.298      c-1.673-0.223-3.049-0.018-4.118,0.664c-1.069,0.683-1.824,1.837-2.26,3.539c0,0-0.295,1.268-0.59,2.537      c-0.279,1.29-0.558,2.581-0.558,2.581s-0.223,1.299-0.446,2.597c-0.205,1.32-0.411,2.64-0.411,2.64s-0.205,1.339-0.409,2.679      c-0.104,0.68-0.18,1.345-0.236,1.847c-0.056,0.504-0.092,0.839-0.092,0.839s-0.119,1.358-0.238,2.716      c-0.1,1.378-0.2,2.757-0.2,2.757s-0.026,0.347-0.065,0.868c-0.044,0.527-0.08,1.215-0.105,1.902      c-0.047,1.389-0.094,2.779-0.094,2.779s-0.018,1.401-0.036,2.801c0,0.708-0.001,1.416-0.001,1.947      c0,0.536,0.011,0.886,0.011,0.886s0.063,1.419,0.125,2.837c0.084,1.436,0.168,2.873,0.168,2.873s0.088,1.452,0.176,2.905      c0.043,0.737,0.124,1.444,0.174,1.989c0.055,0.542,0.092,0.904,0.092,0.904s0.18,1.457,0.361,2.914      c0.203,1.473,0.407,2.946,0.407,2.946c0.066,0.49,0.162,0.951,0.285,1.384c0.131,0.425,0.293,0.818,0.48,1.183      c0.376,0.73,0.861,1.342,1.449,1.834l-9.822,11.701l0,0c-0.644-0.539-1.186-1.199-1.618-1.977      c-0.215-0.389-0.405-0.806-0.564-1.255c-0.151-0.457-0.274-0.943-0.367-1.457c0,0-0.583-3.113-1.059-6.16      c-0.116-0.76-0.232-1.519-0.34-2.232c-0.098-0.716-0.174-1.394-0.242-1.967c-0.129-1.146-0.215-1.91-0.215-1.91      s-0.162-1.516-0.325-3.031c-0.14-1.499-0.28-2.998-0.28-2.998s-0.028-0.372-0.053-0.941c-0.024-0.564-0.057-1.317-0.09-2.069      c-0.047-1.49-0.094-2.98-0.094-2.98s-0.026-1.103-0.066-2.758c-0.006-0.41-0.012-0.854-0.019-1.324      c0.006-0.475,0.013-0.977,0.02-1.495c0.026-1.027,0.054-2.122,0.082-3.217c0.082-2.184,0.159-4.296,0.306-5.916      c0.146-1.603,0.244-2.672,0.244-2.672s0.14-1.41,0.279-2.82c0.158-1.389,0.317-2.779,0.317-2.779s0.227-1.388,0.453-2.775      c0.244-1.366,0.488-2.732,0.488-2.732s0.251-1.338,0.502-2.675c0.123-0.659,0.274-1.329,0.39-1.83      c0.115-0.499,0.192-0.831,0.192-0.831c0.394-1.806,0.285-3.213-0.368-4.305c-0.674-1.08-1.782-1.897-3.517-2.425      c0,0-1.303-0.422-2.605-0.845c-0.656-0.222-1.312-0.444-1.804-0.61c-0.497-0.168-0.816-0.289-0.816-0.289      s-1.293-0.476-2.586-0.952c-1.303-0.502-2.606-1.004-2.606-1.004s-1.302-0.533-2.604-1.065      c-0.662-0.269-1.283-0.563-1.765-0.779c-0.479-0.219-0.798-0.366-0.798-0.366s-1.287-0.614-2.574-1.229      c-1.295-0.641-2.589-1.282-2.589-1.282s-1.322-0.629-2.579-1.318c-1.276-0.694-2.553-1.388-2.553-1.388      s-1.276-0.739-2.552-1.477c-0.64-0.381-1.281-0.762-1.761-1.047c-0.486-0.288-0.789-0.489-0.789-0.489s-1.254-0.79-2.508-1.581      c-1.258-0.818-2.516-1.637-2.516-1.637s-1.251-0.85-2.501-1.699c-0.635-0.429-1.221-0.879-1.683-1.212      c-0.456-0.337-0.759-0.562-0.759-0.562s-1.22-0.932-2.44-1.864c-1.222-0.96-2.444-1.921-2.444-1.921s-1.249-0.951-2.423-1.952      c-1.191-1.01-2.382-2.019-2.382-2.019c-1.572-1.373-2.539-2.909-2.849-4.614c-0.266-1.648,0.094-3.421,1.099-5.251      c0,0,0.769-1.357,1.538-2.715c0.378-0.671,0.798-1.341,1.104-1.839c0.309-0.497,0.514-0.829,0.514-0.829s0.815-1.322,1.63-2.645      c0.823-1.295,1.646-2.59,1.646-2.59s0.156-0.238,0.429-0.654c0.273-0.415,0.658-1.005,1.162-1.708      c0.991-1.406,2.32-3.248,3.661-5.034c0.672-0.894,1.339-1.776,1.979-2.592c0.664-0.807,1.284-1.561,1.815-2.207      c1.067-1.262,1.779-2.104,1.779-2.104s0.96-1.091,1.92-2.181c0.944-1.079,1.969-2.123,1.969-2.123s0.997-1.047,1.995-2.093      c0.999-1.019,1.998-2.037,1.998-2.037s0.753-0.737,1.882-1.843c1.175-1.088,2.749-2.504,4.319-3.865      c1.577-1.363,3.117-2.677,4.367-3.622c1.223-0.937,2.038-1.561,2.038-1.561c1.445-1.091,2.255-2.239,2.445-3.486      c0.254-1.284-0.115-2.639-1.103-4.157c0,0-0.462-0.721-1.27-1.982c-0.831-1.279-1.893-3.104-3.158-5.383      c-0.632-1.139-1.312-2.391-2.021-3.739c-0.176-0.338-0.355-0.681-0.537-1.028c-0.169-0.347-0.34-0.699-0.512-1.054      c-0.341-0.72-0.69-1.455-1.045-2.203c-0.704-1.509-1.421-3.095-2.135-4.736c-0.725-1.644-1.341-3.311-2-5.025      c-0.645-1.71-1.275-3.449-1.879-5.189c-0.568-1.726-1.088-3.444-1.588-5.136c-0.497-1.691-0.963-3.35-1.391-4.942      c-0.386-1.574-0.737-3.083-1.051-4.489c-0.614-2.807-1.135-5.234-1.399-6.9c-0.273-1.686-0.429-2.65-0.429-2.65      c-0.322-2.063-0.062-3.841,0.755-5.312c0.846-1.453,2.279-2.569,4.251-3.367c0,0,1.464-0.544,2.928-1.087      c1.445-0.541,2.943-1.01,2.943-1.01s1.467-0.474,2.935-0.948c1.456-0.448,2.912-0.897,2.912-0.897s0.364-0.111,0.911-0.277      c0.551-0.161,1.26-0.39,2.006-0.584c1.474-0.385,2.948-0.769,2.948-0.769s1.462-0.341,2.924-0.682      c1.448-0.316,2.896-0.632,2.896-0.632s0.354-0.086,0.909-0.191c0.549-0.105,1.281-0.245,2.012-0.385      c1.451-0.26,2.903-0.52,2.903-0.52s1.436-0.218,2.873-0.435c1.417-0.219,2.874-0.36,2.874-0.36s1.427-0.152,2.853-0.304      c1.41-0.13,2.821-0.26,2.821-0.26s0.352-0.031,0.88-0.078c0.531-0.042,1.218-0.113,1.937-0.145      c1.415-0.067,2.829-0.133,2.829-0.133s1.396-0.028,2.792-0.056c1.377-0.007,2.755-0.014,2.755-0.014s0.341-0.006,0.866,0.006      c0.519,0.011,1.212,0.026,1.904,0.041c1.369,0.047,2.738,0.093,2.738,0.093c1.805,0.101,3.131-0.296,4.133-1.081      c0.985-0.805,1.567-2.09,1.775-3.891c0,0,0.043-0.341,0.109-0.851c0.066-0.512,0.155-1.2,0.269-1.865      c0.23-1.35,0.46-2.701,0.46-2.701s0.236-1.367,0.472-2.735c0.26-1.382,0.52-2.764,0.52-2.764s0.324-1.36,0.649-2.72      c0.349-1.373,0.698-2.746,0.698-2.746s0.362-1.379,0.725-2.757c0.183-0.699,0.388-1.375,0.544-1.883      c0.156-0.51,0.261-0.85,0.261-0.85s0.428-1.378,0.856-2.757c0.453-1.39,0.906-2.779,0.906-2.779s0.122-0.348,0.305-0.871      c0.181-0.529,0.437-1.216,0.705-1.895c0.544-1.371,1.087-2.743,1.087-2.743s0.552-1.385,1.103-2.77      c0.287-0.696,0.574-1.393,0.789-1.915c0.217-0.527,0.37-0.867,0.37-0.867s0.642-1.362,1.285-2.724      c0.669-1.37,1.339-2.739,1.339-2.739s0.683-1.371,1.365-2.741c0.344-0.696,0.714-1.349,0.987-1.857      c0.276-0.503,0.46-0.839,0.46-0.839s0.75-1.357,1.5-2.715c0.778-1.363,1.555-2.726,1.555-2.726      c0.277-0.457,0.569-0.877,0.875-1.259c0.309-0.373,0.636-0.701,0.975-0.995c0.679-0.587,1.413-1.023,2.202-1.311l5.248,14.347      c-0.72,0.262-1.385,0.672-1.994,1.233c-0.304,0.281-0.596,0.596-0.87,0.955c-0.271,0.368-0.528,0.774-0.77,1.217      c0,0-0.68,1.31-1.36,2.62c-0.653,1.303-1.306,2.607-1.306,2.607s-0.158,0.327-0.394,0.818c-0.233,0.495-0.55,1.132-0.842,1.81      c-0.578,1.336-1.155,2.671-1.155,2.671s-0.568,1.322-1.137,2.644c-0.542,1.312-1.084,2.625-1.084,2.625s-0.099,0.243-0.26,0.686      c-0.159,0.439-0.387,1.066-0.66,1.818c-0.537,1.501-1.222,3.491-1.857,5.458c-0.639,1.965-1.173,4.004-1.575,5.478      c-0.384,1.481-0.639,2.468-0.639,2.468s-0.08,0.328-0.199,0.82c-0.119,0.49-0.274,1.142-0.408,1.816      c-0.264,1.329-0.528,2.658-0.528,2.658s-0.257,1.311-0.513,2.622c-0.233,1.297-0.466,2.594-0.466,2.594      s-0.177,1.308-0.354,2.617C143.68,198.126,143.525,199.419,143.525,199.419z M99.264,281.903      c-1.243-0.164-2.636,0.234-4.031,1.25c0,0-1.032,0.793-2.063,1.586c-1.034,0.821-2.068,1.641-2.068,1.641      s-0.779,0.629-1.947,1.574c-1.137,0.96-2.62,2.277-4.12,3.647c-1.486,1.368-3.019,2.79-4.062,3.885      c-1.07,1.108-1.784,1.846-1.784,1.846s-0.957,1.008-1.914,2.015c-0.478,0.516-0.955,1.031-1.313,1.418      c-0.355,0.392-0.592,0.653-0.592,0.653s-0.896,1.075-1.792,2.15c-0.892,1.103-1.784,2.206-1.784,2.206s-0.669,0.841-1.673,2.102      c-0.51,0.639-1.074,1.388-1.659,2.202c-0.59,0.825-1.219,1.704-1.848,2.584c-1.242,1.779-2.521,3.619-3.391,5.013      c-0.872,1.408-1.454,2.346-1.454,2.346c-1.027,1.683-1.411,3.308-1.171,4.811c0.284,1.554,1.223,2.944,2.764,4.171      c0,0,0.653,0.512,1.796,1.408c0.578,0.441,1.249,0.979,2.073,1.571c0.822,0.593,1.748,1.252,2.757,1.954      c3.994,2.833,9.477,6.255,15.021,9.125c5.54,2.904,11.188,5.232,15.38,6.747c2.134,0.747,3.889,1.314,5.111,1.699      c1.218,0.375,1.914,0.59,1.914,0.59c1.725,0.492,3.132,0.406,4.253-0.18c1.127-0.589,1.96-1.674,2.568-3.257      c0,0,0.509-1.168,1.017-2.336c0.52-1.143,1.04-2.285,1.04-2.285s0.52-1.112,1.041-2.225c0.254-0.546,0.553-1.105,0.763-1.516      c0.214-0.411,0.357-0.684,0.357-0.684s0.574-1.086,1.149-2.173c0.584-1.06,1.168-2.121,1.168-2.121s0.585-1.038,1.251-2.074      c0.654-1.018,1.308-2.036,1.308-2.036s0.647-0.995,1.295-1.991c0.327-0.486,0.653-0.973,0.898-1.337      c0.241-0.36,0.423-0.604,0.423-0.604s0.715-0.95,1.43-1.899c0.721-0.922,1.441-1.844,1.441-1.844s0.715-0.892,1.429-1.783      c0.349-0.437,0.75-0.881,1.029-1.205c0.285-0.325,0.476-0.541,0.476-0.541s0.762-0.855,1.523-1.71      c0.765-0.827,1.53-1.654,1.53-1.654s0.761-0.806,1.602-1.598c0.825-0.775,1.65-1.551,1.65-1.551      c1.094-1.015,1.542-1.859,1.398-2.622c-0.105-0.74-0.836-1.375-2.211-1.953c0,0-1.044-0.444-2.088-0.888      c-0.533-0.228-1.027-0.466-1.408-0.647c-0.379-0.182-0.632-0.304-0.632-0.304s-1.005-0.513-2.01-1.026      c-1.012-0.541-2.023-1.081-2.023-1.081s-0.191-0.104-0.525-0.285c-0.334-0.182-0.82-0.445-1.362-0.771      c-1.102-0.649-2.579-1.548-4.064-2.503c-0.74-0.476-1.49-0.965-2.18-1.434c-0.669-0.479-1.294-0.926-1.829-1.309      c-1.074-0.796-1.789-1.326-1.789-1.326s-0.964-0.731-1.928-1.462c-0.983-0.744-1.888-1.518-1.888-1.518      s-0.911-0.796-1.822-1.591c-0.911-0.823-1.822-1.647-1.822-1.647s-0.458-0.421-1.146-1.052      c-0.707-0.638-1.547-1.498-2.429-2.385c-1.744-1.765-3.479-3.652-3.479-3.652C101.649,282.798,100.536,282.07,99.264,281.903z       M136.53,210.181c-0.855-0.932-2.142-1.498-3.906-1.647c0,0-1.29-0.061-2.58-0.121c-1.309-0.041-2.618-0.082-2.618-0.082      s-1.336-0.013-2.673-0.026c-0.68-0.008-1.327,0.023-1.83,0.034c-0.499,0.016-0.832,0.027-0.832,0.027s-1.344,0.041-2.688,0.082      c-1.362,0.062-2.723,0.124-2.723,0.124s-0.257,0.016-0.706,0.044c-0.455,0.024-1.089,0.076-1.846,0.151      c-1.52,0.145-3.568,0.364-5.647,0.629c-2.098,0.247-4.144,0.605-5.703,0.888c-1.566,0.294-2.609,0.49-2.609,0.49      s-1.408,0.294-2.815,0.588c-0.713,0.149-1.39,0.331-1.916,0.458c-0.522,0.132-0.87,0.22-0.87,0.22s-1.403,0.35-2.806,0.701      c-1.416,0.375-2.831,0.751-2.831,0.751s-1.427,0.383-2.802,0.836c-1.395,0.455-2.789,0.911-2.789,0.911      c-1.891,0.668-3.248,1.656-4.02,2.98c-0.743,1.341-0.931,2.99-0.538,4.922c0,0,0.295,1.446,0.59,2.893      c0.143,0.713,0.33,1.442,0.459,1.979c0.133,0.538,0.222,0.897,0.222,0.897s0.382,1.412,0.764,2.825      c0.398,1.389,0.795,2.777,0.795,2.777s0.099,0.342,0.248,0.855c0.144,0.509,0.353,1.192,0.584,1.877      c0.455,1.353,0.909,2.706,0.909,2.706s0.463,1.341,0.926,2.682c0.476,1.316,0.952,2.632,0.952,2.632s0.134,0.326,0.334,0.816      c0.205,0.486,0.478,1.133,0.752,1.78c0.557,1.273,1.113,2.547,1.113,2.547s0.553,1.256,1.105,2.511      c0.54,1.238,1.17,2.473,1.17,2.473s0.63,1.209,1.26,2.419c0.64,1.183,1.28,2.367,1.28,2.367s0.629,1.167,1.278,2.308      c0.687,1.139,1.375,2.278,1.375,2.278s0.692,1.124,1.385,2.248c0.7,1.097,1.399,2.194,1.399,2.194      c0.484,0.72,1.015,1.289,1.587,1.713c0.566,0.423,1.157,0.699,1.777,0.835c1.253,0.276,2.545-0.021,4.071-0.799      c0,0,0.637-0.325,1.752-0.894c1.112-0.559,2.696-1.338,4.576-2.205c1.911-0.858,4.196-1.778,6.569-2.679      c0.593-0.219,1.196-0.442,1.807-0.668c0.628-0.206,1.263-0.416,1.903-0.626c1.277-0.409,2.563-0.801,3.839-1.169      c0.635-0.178,1.27-0.356,1.902-0.533c0.635-0.169,1.293-0.32,1.928-0.47c1.276-0.297,2.521-0.567,3.713-0.808      c2.352-0.498,4.648-0.809,6.543-1.05c1.912-0.233,3.43-0.398,4.569-0.46c1.109-0.064,1.743-0.101,1.743-0.101      c1.489-0.075,2.39-0.418,2.744-1.083c0.383-0.649,0.248-1.595-0.422-2.941c0,0-0.511-1.01-1.023-2.02      c-0.521-1.031-0.962-2.048-0.962-2.048s-0.442-1.032-0.884-2.064c-0.429-1.057-0.859-2.113-0.859-2.113s-0.104-0.27-0.26-0.675      c-0.15-0.403-0.372-0.959-0.551-1.493c-0.363-1.088-0.727-2.176-0.727-2.176s-0.363-1.113-0.727-2.225      c-0.349-1.136-0.697-2.273-0.697-2.273s-0.089-0.292-0.193-0.712c-0.106-0.426-0.248-0.995-0.389-1.563      c-0.27-1.156-0.539-2.313-0.539-2.313s-0.268-1.18-0.536-2.36c-0.274-1.201-0.47-2.376-0.47-2.376s-0.194-1.189-0.388-2.378      c-0.177-1.21-0.353-2.42-0.353-2.42s-0.039-0.308-0.099-0.769c-0.054-0.459-0.144-1.092-0.193-1.695      c-0.103-1.23-0.207-2.46-0.207-2.46s-0.1-1.251-0.2-2.503c-0.08-1.271-0.161-2.542-0.161-2.542      C137.809,212.416,137.389,211.118,136.53,210.181z"
/>
<path
   style="fill:#E0486C;"
   d="M132.764,386.081c0,0,0.017,1.305,0.033,2.61c0.038,1.323,0.075,2.647,0.075,2.647      c0.012,0.441,0.052,0.854,0.12,1.239c0.075,0.376,0.182,0.721,0.314,1.038c0.265,0.633,0.637,1.15,1.112,1.546l0,0      l12.262-14.608c-0.404-0.337-0.91-0.551-1.522-0.648c-0.306-0.049-0.64-0.067-0.997-0.06c-0.35-0.001-0.728,0.026-1.132,0.081      c0,0-1.245,0.159-2.49,0.318c-1.266,0.141-2.532,0.281-2.532,0.281c-1.691,0.18-2.974,0.685-3.852,1.589      C133.266,383.031,132.786,384.337,132.764,386.081z"
/>
<path
   style="fill:#E0486C;"
   d="M108.189,319.697c1.024-1.304,1.425-2.442,1.228-3.506c-0.156-1.031-0.944-1.958-2.352-2.831      c0,0-1.075-0.664-2.149-1.329c-0.548-0.338-1.055-0.687-1.446-0.95c-0.389-0.265-0.649-0.442-0.649-0.442      c-1.376-0.986-2.688-1.431-3.949-1.302c-1.262,0.129-2.464,0.83-3.637,2.193c0,0-0.213,0.248-0.532,0.621      c-0.317,0.374-0.752,0.878-1.146,1.382c-0.803,1.025-1.606,2.05-1.606,2.05c-1.07,1.388-1.502,2.72-1.313,3.933      c0.23,1.252,1.113,2.351,2.594,3.287c0,0,1.109,0.686,2.219,1.372c1.09,0.678,2.25,1.308,2.25,1.308      c1.564,0.841,2.933,1.079,4.163,0.767c1.229-0.312,2.309-1.171,3.267-2.537c0,0,0.71-1.022,1.503-2.031      C107.411,320.689,108.189,319.697,108.189,319.697z"
/>
<path
   style="fill:#E0486C;"
   d="M119.097,244.836c1.622-0.341,2.674-0.938,3.176-1.861c0.531-0.906,0.541-2.112,0.04-3.714      c0,0-0.393-1.198-0.787-2.397c-0.402-1.219-0.721-2.421-0.721-2.421c-0.436-1.611-1.159-2.786-2.208-3.498      c-1.05-0.712-2.419-0.956-4.175-0.698c0,0-1.305,0.197-2.561,0.463c-1.277,0.267-2.553,0.534-2.553,0.534      c-1.731,0.407-2.935,1.14-3.559,2.207c-0.595,1.084-0.638,2.475-0.105,4.145c0,0,0.401,1.247,0.801,2.494      c0.195,0.613,0.433,1.241,0.601,1.704c0.171,0.463,0.285,0.771,0.285,0.771c0.658,1.64,1.549,2.709,2.692,3.26      c1.142,0.551,2.527,0.58,4.139,0.159c0,0,0.305-0.08,0.764-0.2c0.46-0.117,1.056-0.279,1.689-0.414      C117.855,245.103,119.097,244.836,119.097,244.836z"
/>
<path
   style="fill:#E0486C;"
   d="M168.035,185.22c-0.573,1.647-0.567,3.039-0.043,4.202c0.518,1.149,1.551,2.061,3.08,2.806      c0,0,1.133,0.568,2.266,1.135c1.107,0.578,2.214,1.155,2.214,1.155c0.371,0.186,0.723,0.337,1.058,0.453      c0.338,0.125,0.663,0.222,0.969,0.279c0.613,0.115,1.162,0.087,1.657-0.093l-6.552-17.911c-0.581,0.211-1.107,0.57-1.577,1.077      c-0.235,0.255-0.457,0.542-0.661,0.874c-0.201,0.341-0.388,0.719-0.559,1.134c0,0-0.476,1.227-0.951,2.454      C168.485,184.003,168.035,185.22,168.035,185.22z"
/>
<path
   style="fill:#75CBEA;"
   d="M337.699,282.997c-0.71-0.511-1.394-0.866-2.057-1.073c-0.676-0.205-1.327-0.262-1.956-0.179      c-0.629,0.083-1.233,0.306-1.818,0.663c-0.598,0.359-1.182,0.854-1.755,1.478c0,0-0.871,0.921-1.742,1.843      c-0.873,0.893-1.746,1.787-1.746,1.787s-0.215,0.221-0.539,0.552c-0.317,0.329-0.756,0.766-1.216,1.199      c-0.906,0.85-1.812,1.699-1.812,1.699s-0.907,0.812-1.814,1.624c-0.907,0.785-1.813,1.569-1.813,1.569s-0.238,0.192-0.596,0.48      c-0.36,0.283-0.84,0.66-1.321,1.037c-0.959,0.731-1.918,1.461-1.918,1.461s-0.945,0.712-1.89,1.424      c-0.926,0.699-1.929,1.368-1.929,1.368s-0.994,0.647-1.989,1.294c-0.99,0.619-1.981,1.238-1.981,1.238s-0.974,0.616-1.953,1.201      c-1.013,0.571-2.027,1.143-2.027,1.143s-1.007,0.536-2.014,1.073c-1.001,0.51-2.001,1.019-2.001,1.019s-0.995,0.497-2.057,0.96      c-1.042,0.452-2.083,0.904-2.083,0.904c-1.376,0.611-2.104,1.257-2.208,2.012l-15.046-2.642      c0.078-0.613,0.793-1.112,2.184-1.571c0,0,0.637-0.216,1.753-0.594c1.146-0.389,2.668-0.975,4.542-1.762      c0.936-0.393,1.956-0.838,3.04-1.332c0.551-0.247,1.094-0.508,1.635-0.781c0.549-0.28,1.111-0.566,1.682-0.856      c1.145-0.595,2.334-1.238,3.548-1.925c1.223-0.686,2.362-1.414,3.565-2.176c1.189-0.761,2.382-1.555,3.559-2.369      c1.136-0.812,2.237-1.642,3.315-2.474c1.075-0.832,2.117-1.665,3.102-2.479c0.941-0.81,1.832-1.6,2.653-2.346      c0.821-0.746,1.574-1.449,2.24-2.083c0.672-0.635,1.246-1.199,1.691-1.664c0.908-0.947,1.427-1.489,1.427-1.489      c1.095-1.159,1.571-2.272,1.42-3.275c-0.186-0.996-1.035-1.874-2.46-2.587c0,0-0.675-0.33-1.857-0.907      c-1.151-0.57-2.915-1.334-4.972-2.172c-1.03-0.419-2.14-0.855-3.305-1.292c-1.177-0.434-2.465-0.853-3.756-1.267      c-1.297-0.412-2.627-0.812-3.964-1.188c-1.382-0.362-2.779-0.698-4.157-1.006c-1.392-0.303-2.712-0.597-4.098-0.821      c-1.374-0.229-2.71-0.425-3.989-0.592c-2.519-0.35-4.977-0.503-6.987-0.603c-1.013-0.047-1.923-0.079-2.735-0.093      c-0.827,0.005-1.547,0.009-2.141,0.012c-1.169,0.029-1.837,0.046-1.837,0.046c-1.463,0.055-2.26-0.188-2.604-0.696      c-0.321-0.52-0.081-1.36,0.713-2.591c0,0,0.141-0.229,0.353-0.572c0.213-0.345,0.495-0.81,0.748-1.263      c0.516-0.929,1.032-1.857,1.032-1.857s0.509-0.949,1.017-1.898c0.497-0.975,0.994-1.949,0.994-1.949s0.462-0.983,0.924-1.966      c0.449-1.008,0.899-2.016,0.899-2.016s0.423-1.031,0.845-2.063c0.215-0.527,0.401-1.039,0.54-1.427      c0.139-0.39,0.233-0.649,0.233-0.649s0.376-1.056,0.753-2.113c0.362-1.08,0.724-2.16,0.724-2.16s0.085-0.273,0.211-0.684      c0.132-0.416,0.286-0.958,0.43-1.499c0.286-1.098,0.573-2.196,0.573-2.196s0.276-1.115,0.552-2.23      c0.131-0.567,0.262-1.134,0.36-1.559c0.099-0.431,0.153-0.71,0.153-0.71s0.222-1.139,0.443-2.278      c0.204-1.161,0.408-2.321,0.408-2.321s0.172-1.18,0.343-2.359c0.088-0.602,0.138-1.173,0.187-1.618      c0.044-0.442,0.074-0.736,0.074-0.736s0.121-1.194,0.242-2.387c0.101-1.214,0.203-2.427,0.203-2.427      c0.026-0.404,0.025-0.781-0.003-1.13c-0.034-0.342-0.101-0.65-0.192-0.934c-0.184-0.565-0.477-1.017-0.878-1.351      c-0.777-0.641-1.953-0.817-3.512-0.45c0,0-1.18,0.314-2.361,0.629c-1.157,0.33-2.314,0.66-2.314,0.66s-1.133,0.33-2.267,0.66      c-0.556,0.162-1.136,0.368-1.556,0.506c-0.422,0.144-0.703,0.24-0.703,0.24s-1.109,0.407-2.218,0.815      c-1.085,0.421-2.169,0.842-2.169,0.842s-1.064,0.396-2.142,0.874c-1.057,0.468-2.115,0.935-2.115,0.935      s-1.025,0.484-2.051,0.967c-0.502,0.247-1.004,0.493-1.38,0.678c-0.375,0.193-0.625,0.321-0.625,0.321s-1.001,0.552-2.001,1.105      c-0.974,0.563-1.948,1.125-1.948,1.125s-0.948,0.558-1.897,1.117c-0.463,0.273-0.941,0.587-1.29,0.812      c-0.35,0.228-0.583,0.38-0.583,0.38s-0.913,0.628-1.826,1.256c-0.886,0.636-1.772,1.272-1.772,1.272s-0.217,0.157-0.543,0.392      c-0.321,0.23-0.754,0.553-1.189,0.895c-0.85,0.675-1.7,1.35-1.7,1.35s-0.816,0.684-1.633,1.367      c-0.789,0.689-1.578,1.378-1.578,1.378c-1.069,1.005-1.86,1.409-2.424,1.199c-0.293-0.108-0.527-0.367-0.709-0.782      c-0.091-0.207-0.169-0.456-0.236-0.741c-0.071-0.274-0.131-0.587-0.179-0.942c0,0-0.166-1.04-0.332-2.081      c-0.191-1.054-0.381-2.108-0.381-2.108s-0.206-1.065-0.445-2.133c-0.261-1.04-0.522-2.079-0.522-2.079s-0.277-1.061-0.554-2.122      c-0.303-1.072-0.605-2.145-0.605-2.145s-0.061-0.201-0.167-0.553c-0.105-0.36-0.267-0.84-0.467-1.424      c-0.399-1.167-0.963-2.736-1.578-4.323c-0.308-0.789-0.624-1.598-0.935-2.331c-0.322-0.723-0.623-1.397-0.881-1.975      c-0.544-1.164-0.906-1.941-0.906-1.941s-0.515-1.039-1.03-2.078c-0.525-1.059-1.087-2.05-1.087-2.05s-0.563-1.019-1.126-2.037      c-0.59-1.024-1.18-2.048-1.18-2.048s-0.309-0.511-0.771-1.278c-0.468-0.786-1.11-1.751-1.776-2.74      c-1.325-1.971-2.773-3.956-2.773-3.956c-0.239-0.327-0.482-0.615-0.727-0.865c-0.245-0.236-0.492-0.432-0.741-0.589      c-0.498-0.314-1.003-0.472-1.51-0.47c-1.014,0.006-2.029,0.639-3.017,1.907c0,0-0.702,1.001-1.403,2.002      c-0.674,0.998-1.347,1.996-1.347,1.996s-0.488,0.74-1.219,1.85c-0.177,0.277-0.37,0.578-0.573,0.896      c-0.198,0.33-0.407,0.678-0.623,1.038c-0.427,0.719-0.872,1.485-1.304,2.248c-0.865,1.538-1.682,3.016-2.26,4.198      c-0.565,1.174-0.942,1.957-0.942,1.957s-0.482,1.034-0.963,2.068c-0.454,1.026-0.909,2.052-0.909,2.052      s-0.109,0.254-0.264,0.661c-0.152,0.4-0.356,0.934-0.559,1.468c-0.384,1.06-0.768,2.12-0.768,2.12s-0.272,0.783-0.679,1.957      c-0.401,1.143-0.874,2.789-1.305,4.366c-0.43,1.596-0.818,3.133-1.07,4.333c-0.238,1.201-0.397,2.002-0.397,2.002      s-0.193,1.053-0.385,2.105c-0.168,1.039-0.335,2.077-0.335,2.077c-0.174,1.441-0.518,2.271-1.092,2.472l0,0l-5.248-14.347l0,0      c0.712-0.251,1.199-1.122,1.525-2.573c0,0,0.507-2.141,1.126-4.336c0.308-1.089,0.631-2.217,0.897-3.02      c0.271-0.805,0.452-1.342,0.452-1.342s0.388-1.078,0.777-2.156c0.415-1.088,0.829-2.175,0.829-2.175s0.412-1.119,0.87-2.173      c0.466-1.074,0.932-2.148,0.932-2.148s0.372-0.806,0.931-2.015c0.294-0.608,0.637-1.317,1.004-2.077      c0.382-0.734,0.799-1.519,1.229-2.307c0.857-1.576,1.769-3.164,2.478-4.36c0.353-0.606,0.66-1.062,0.873-1.405      c0.215-0.336,0.339-0.528,0.339-0.528s0.681-1.024,1.362-2.047c0.709-1.027,1.418-2.055,1.418-2.055s0.179-0.26,0.447-0.65      c0.27-0.397,0.634-0.908,1.006-1.402c0.757-1.002,1.514-2.003,1.514-2.003c1.031-1.325,1.543-2.613,1.488-3.879      c-0.055-1.267-0.677-2.504-1.931-3.746c0,0-0.951-0.899-1.902-1.798c-0.483-0.456-0.97-0.893-1.337-1.206      c-0.369-0.32-0.616-0.533-0.616-0.533s-1.014-0.85-2.029-1.699c-1.042-0.846-2.084-1.691-2.084-1.691s-0.262-0.214-0.656-0.535      c-0.395-0.318-0.927-0.757-1.46-1.153c-1.082-0.807-2.163-1.614-2.163-1.614s-1.12-0.788-2.239-1.576      c-1.147-0.782-2.293-1.563-2.293-1.563s-0.288-0.202-0.719-0.478c-0.435-0.28-1.015-0.652-1.596-1.025      c-1.183-0.739-2.367-1.478-2.367-1.478s-1.208-0.72-2.415-1.439c-1.223-0.733-2.458-1.381-2.458-1.381s-1.264-0.658-2.527-1.316      c-1.29-0.648-2.58-1.296-2.58-1.296s-0.324-0.164-0.811-0.41c-0.486-0.239-1.146-0.585-1.797-0.881      c-1.32-0.601-2.64-1.203-2.64-1.203s-1.356-0.574-2.711-1.149c-1.381-0.562-2.762-1.124-2.762-1.124      c-1.823-0.723-3.475-0.78-4.916-0.262l0,0l-5.248-14.347h0c1.58-0.569,3.371-0.561,5.334,0.116c0,0,2.995,1.055,5.879,2.169      c1.448,0.563,2.864,1.107,3.93,1.568c1.06,0.463,1.767,0.772,1.767,0.772s1.399,0.619,2.798,1.239      c1.373,0.631,2.746,1.262,2.746,1.262s1.345,0.633,2.68,1.354c1.319,0.708,2.637,1.416,2.637,1.416s0.972,0.531,2.43,1.328      c0.715,0.404,1.549,0.875,2.443,1.38c0.88,0.54,1.818,1.115,2.756,1.691c1.855,1.158,3.657,2.331,4.983,3.217      c0.663,0.435,1.215,0.848,1.597,1.115c0.382,0.274,0.6,0.43,0.6,0.43s1.154,0.833,2.309,1.667      c1.127,0.839,2.253,1.678,2.253,1.678s0.274,0.214,0.686,0.535c0.409,0.314,0.953,0.753,1.491,1.211      c1.063,0.904,2.125,1.807,2.125,1.807s1.034,0.896,2.069,1.791c1.007,0.899,2.013,1.797,2.013,1.797      c1.367,1.249,2.64,1.882,3.913,1.876c0.637-0.002,1.271-0.16,1.913-0.477c0.321-0.158,0.643-0.356,0.968-0.593      c0.325-0.223,0.652-0.486,0.984-0.788c0,0,1.019-0.903,2.038-1.805c1.047-0.9,2.093-1.799,2.093-1.799s1.048-0.915,2.124-1.813      c1.086-0.861,2.171-1.722,2.171-1.722s1.112-0.845,2.224-1.69c1.139-0.839,2.277-1.679,2.277-1.679s1.166-0.85,2.349-1.618      c1.198-0.782,2.396-1.565,2.396-1.565s1.213-0.789,2.427-1.578c1.24-0.781,2.48-1.563,2.48-1.563s1.27-0.717,2.54-1.433      c1.296-0.707,2.593-1.415,2.593-1.415s1.311-0.713,2.622-1.425c1.325-0.725,2.667-1.366,2.667-1.366s1.353-0.638,2.705-1.275      c1.378-0.627,2.756-1.254,2.756-1.254s1.418-0.611,2.835-1.223c1.421-0.571,2.867-1.117,2.867-1.117s1.447-0.559,2.895-1.118      c1.472-0.546,2.944-1.091,2.944-1.091c0.495-0.176,0.979-0.314,1.453-0.412c0.471-0.087,0.929-0.131,1.378-0.138      c0.898-0.013,1.753,0.129,2.567,0.426c1.566,0.573,2.931,1.742,4.018,3.513c0,0,0.782,1.368,1.565,2.735      c0.754,1.362,1.509,2.724,1.509,2.724s0.745,1.351,1.491,2.702c0.369,0.667,0.723,1.351,0.981,1.875      c0.259,0.518,0.432,0.863,0.432,0.863s0.497,1.032,1.243,2.58c0.729,1.552,1.686,3.575,2.557,5.644      c1.738,4.184,3.212,8.27,3.212,8.27s0.125,0.338,0.294,0.867c0.169,0.524,0.393,1.222,0.618,1.92      c0.428,1.387,0.855,2.774,0.855,2.774s0.42,1.372,0.84,2.745c0.418,1.352,0.765,2.756,0.765,2.756s0.253,1.036,0.633,2.59      c0.364,1.553,0.838,3.583,1.234,5.625c0.766,4.148,1.298,8.145,1.298,8.145c0.224,1.799,0.785,3.111,1.758,3.916      c0.503,0.42,1.1,0.714,1.8,0.889c0.349,0.088,0.727,0.143,1.127,0.174c0.394,0.038,0.814,0.048,1.263,0.029      c0,0,0.849-0.03,2.334-0.082c1.486-0.034,3.666-0.107,6.269-0.053c2.581,0.074,5.671,0.193,9.009,0.467      c1.647,0.157,3.367,0.342,5.134,0.556c1.761,0.219,3.598,0.442,5.371,0.762c7.199,1.17,14.539,3.014,20.024,4.748      c2.733,0.865,5.041,1.654,6.662,2.222c0.813,0.282,1.422,0.531,1.853,0.692c0.426,0.165,0.654,0.252,0.654,0.252      c1.937,0.751,3.337,1.862,4.191,3.304c0.876,1.428,1.098,3.237,0.8,5.339c0,0-0.267,1.539-0.533,3.077      c-0.141,0.76-0.282,1.52-0.387,2.09c-0.104,0.565-0.188,0.947-0.188,0.947s-0.327,1.508-0.654,3.016      c-0.343,1.485-0.687,2.971-0.687,2.971s-0.353,1.476-0.706,2.952c-0.172,0.728-0.39,1.471-0.539,2.019      c-0.154,0.548-0.257,0.914-0.257,0.914s-0.438,1.438-0.876,2.876c-0.453,1.414-0.906,2.827-0.906,2.827      s-0.424,1.404-0.937,2.811c-0.503,1.389-1.005,2.778-1.005,2.778s-0.531,1.355-1.063,2.711      c-0.271,0.667-0.542,1.334-0.745,1.834c-0.2,0.495-0.354,0.83-0.354,0.83s-0.584,1.315-1.167,2.63      c-0.595,1.29-1.19,2.579-1.19,2.579s-0.602,1.276-1.203,2.553c-0.294,0.629-0.642,1.267-0.88,1.737      c-0.246,0.47-0.41,0.783-0.41,0.783s-0.677,1.226-1.353,2.453c-0.686,1.2-1.371,2.399-1.371,2.399s-0.656,1.193-1.399,2.374      c-0.729,1.165-1.458,2.33-1.458,2.33c-0.989,1.515-1.341,2.87-1.109,4.123c0.196,1.259,1.011,2.408,2.46,3.491      c0,0,1.088,0.843,2.176,1.687c0.554,0.427,1.066,0.866,1.461,1.197c0.393,0.333,0.655,0.554,0.655,0.554      s1.059,0.891,2.117,1.783c1.059,0.919,2.119,1.839,2.119,1.839s0.262,0.238,0.656,0.595c0.399,0.358,0.916,0.84,1.411,1.33      c1.005,0.993,2.01,1.985,2.01,1.985s1.003,1.007,2.006,2.015c1.001,1.035,2.003,2.07,2.003,2.07s0.244,0.263,0.61,0.658      c0.363,0.4,0.847,0.934,1.33,1.468c0.965,1.091,1.93,2.182,1.93,2.182s0.949,1.133,1.899,2.266      c0.966,1.146,1.846,2.319,1.846,2.319s0.909,1.172,1.818,2.345c0.904,1.2,1.807,2.4,1.807,2.4s0.892,1.227,1.767,2.482      c0.835,1.263,1.67,2.527,1.67,2.527s0.829,1.275,1.658,2.551c0.822,1.302,1.643,2.604,1.643,2.604s0.844,1.318,1.605,2.651      c0.774,1.348,1.547,2.696,1.547,2.696c1.005,1.866,1.372,3.626,1.112,5.276l-15.047-2.642c0.235-1.506-0.155-3.122-1.182-4.841      c0,0-0.777-1.239-1.554-2.477c-0.763-1.224-1.608-2.432-1.608-2.432s-0.845-1.195-1.69-2.389      c-0.851-1.167-1.703-2.335-1.703-2.335s-0.844-1.152-1.688-2.305c-0.883-1.144-1.781-2.259-1.781-2.259s-0.676-0.821-1.69-2.052      c-0.509-0.601-1.103-1.302-1.739-2.053c-0.631-0.742-1.317-1.523-2.044-2.293c-1.429-1.541-2.863-3.027-3.94-4.116      c-0.539-0.54-0.987-0.99-1.302-1.304c-0.312-0.312-0.499-0.488-0.499-0.488s-1.009-0.924-2.018-1.848      c-1.009-0.896-2.019-1.791-2.019-1.791s-0.998-0.88-1.995-1.76c-0.491-0.434-1.003-0.86-1.399-1.176      c-0.39-0.315-0.65-0.525-0.65-0.525s-1.037-0.81-2.074-1.619C338.734,283.779,337.699,282.997,337.699,282.997z       M288.364,203.418c0.772-1.006,1.085-2.36,0.931-4.114c0,0-0.158-1.308-0.317-2.617c-0.08-0.665-0.194-1.292-0.27-1.782      c-0.08-0.486-0.134-0.809-0.134-0.809s-0.165-0.978-0.413-2.444c-0.136-0.741-0.296-1.606-0.466-2.532      c-0.176-0.936-0.377-1.932-0.611-2.901c-0.454-1.957-0.956-3.94-1.356-5.439c-0.204-0.752-0.374-1.378-0.493-1.817      c-0.12-0.444-0.198-0.683-0.198-0.683s-0.404-1.318-0.808-2.636c-0.43-1.33-0.859-2.659-0.859-2.659s-0.472-1.337-0.945-2.673      c-0.238-0.679-0.502-1.322-0.697-1.816c-0.198-0.492-0.329-0.82-0.329-0.82s-0.4-0.989-1.001-2.472      c-0.619-1.475-1.451-3.511-2.38-5.466c-1.842-3.902-3.956-7.879-3.956-7.879c-0.949-1.716-2.175-2.833-3.603-3.356      c-0.741-0.27-1.526-0.388-2.353-0.35c-0.414,0.019-0.837,0.075-1.273,0.174c-0.439,0.11-0.888,0.259-1.348,0.447      c0,0-0.772,0.32-2.122,0.881c-1.341,0.565-3.239,1.381-5.449,2.389c-2.223,1.055-4.77,2.356-7.397,3.76      c-0.652,0.355-1.314,0.717-1.985,1.083c-0.663,0.392-1.335,0.788-2.012,1.188c-1.342,0.803-2.681,1.626-3.995,2.457      c-2.62,1.615-5.173,3.476-7.463,5.147c-1.148,0.856-2.229,1.643-3.248,2.473c-1.018,0.824-1.961,1.606-2.818,2.329      c-1.714,1.454-3.082,2.645-4.029,3.526c-0.938,0.894-1.473,1.404-1.473,1.404c-1.291,1.247-1.922,2.486-1.978,3.753      c-0.056,1.267,0.464,2.552,1.529,3.872c0,0,0.772,0.994,1.513,1.998c0.726,1.037,1.453,2.075,1.453,2.075s0.7,1.022,1.4,2.045      c0.673,1.019,1.346,2.037,1.346,2.037s0.672,1.003,1.306,2.077c0.624,1.054,1.248,2.107,1.248,2.107s0.586,1.059,1.173,2.118      c0.559,1.053,1.119,2.105,1.119,2.105s0.536,1.078,1.073,2.157c0.51,1.071,1.02,2.143,1.02,2.143s0.473,1.074,0.945,2.147      c0.465,1.054,0.883,2.169,0.883,2.169s0.412,1.087,0.824,2.173c0.386,1.077,0.772,2.154,0.772,2.154s0.368,1.069,0.736,2.138      c0.346,1.098,0.659,2.196,0.659,2.196s0.293,1.097,0.586,2.195c0.267,1.085,0.535,2.171,0.535,2.171      c0.086,0.357,0.183,0.675,0.292,0.955c0.104,0.29,0.218,0.547,0.346,0.763c0.255,0.433,0.56,0.715,0.925,0.849      c0.702,0.26,1.629-0.083,2.822-0.998c0,0,0.896-0.659,1.792-1.317c0.924-0.651,1.847-1.303,1.847-1.303s0.953-0.63,1.906-1.26      c0.486-0.32,0.97-0.619,1.33-0.831c0.364-0.217,0.607-0.362,0.607-0.362s0.738-0.435,1.846-1.087      c1.116-0.64,2.656-1.52,4.216-2.315c3.083-1.559,6.423-3.005,6.423-3.005s0.28-0.128,0.689-0.293      c0.415-0.168,0.967-0.391,1.52-0.615c1.127-0.436,2.253-0.872,2.253-0.872s1.153-0.408,2.306-0.815      c1.174-0.417,2.331-0.751,2.331-0.751s2.327-0.721,4.758-1.377c0.611-0.162,1.222-0.324,1.795-0.475      c0.573-0.144,1.099-0.258,1.559-0.363c0.921-0.201,1.535-0.335,1.535-0.335C286.366,205.076,287.592,204.424,288.364,203.418z       M331.873,271.557c1.229-0.274,2.389-1.114,3.352-2.557c0,0,0.701-1.089,1.402-2.178c0.693-1.116,1.387-2.232,1.387-2.232      s0.171-0.286,0.428-0.715c0.25-0.429,0.612-1.012,0.922-1.588c0.633-1.169,1.266-2.337,1.266-2.337s0.639-1.187,1.278-2.374      c0.629-1.213,1.258-2.427,1.258-2.427s0.124-0.233,0.308-0.632c0.187-0.403,0.454-0.98,0.774-1.671      c0.637-1.392,1.474-3.279,2.287-5.216c0.418-0.972,0.791-1.94,1.132-2.854c0.34-0.924,0.658-1.787,0.931-2.526      c0.531-1.505,0.885-2.508,0.885-2.508s0.114-0.34,0.285-0.85c0.166-0.509,0.407-1.201,0.602-1.878      c0.4-1.374,0.799-2.749,0.799-2.749s0.402-1.391,0.803-2.782c0.386-1.415,0.773-2.829,0.773-2.829s0.094-0.355,0.213-0.882      c0.12-0.531,0.281-1.24,0.442-1.948c0.308-1.436,0.615-2.872,0.615-2.872c0.37-1.969,0.221-3.649-0.582-4.951      c-0.781-1.314-2.106-2.3-3.965-2.926c0,0-0.349-0.119-0.873-0.298c-0.522-0.178-1.216-0.412-1.934-0.624      c-1.416-0.42-2.832-0.84-2.832-0.84s-1.406-0.377-2.812-0.754c-1.394-0.352-2.787-0.704-2.787-0.704s-1.404-0.311-2.808-0.622      c-1.39-0.287-2.781-0.575-2.781-0.575s-1.384-0.274-2.768-0.549c-0.682-0.136-1.386-0.248-1.911-0.33      c-0.524-0.082-0.873-0.136-0.873-0.136s-1.388-0.185-2.776-0.37c-1.372-0.162-2.744-0.324-2.744-0.324s-0.34-0.041-0.85-0.103      c-0.504-0.065-1.192-0.133-1.885-0.189c-1.369-0.108-2.739-0.216-2.739-0.216s-1.353-0.069-2.706-0.139      c-0.669-0.026-1.338-0.051-1.84-0.071c-0.496-0.019-0.837-0.02-0.837-0.02s-1.339-0.007-2.677-0.015      c-1.32,0.013-2.64,0.026-2.64,0.026s-1.31,0.025-2.619,0.05c-0.643,0.01-1.316,0.06-1.806,0.086      c-0.492,0.031-0.82,0.051-0.82,0.051c-1.765,0.151-3.039,0.702-3.897,1.637c-0.857,0.935-1.29,2.247-1.346,3.919      c0,0-0.028,0.703-0.077,1.934c-0.082,1.249-0.219,3.027-0.429,5.104c-0.107,1.041-0.225,2.149-0.379,3.321      c-0.174,1.191-0.37,2.431-0.588,3.696c-0.218,1.264-0.458,2.553-0.717,3.841c-0.283,1.309-0.605,2.634-0.932,3.928      c-0.329,1.296-0.673,2.571-1.026,3.804c-0.385,1.259-0.783,2.48-1.177,3.64c-0.395,1.161-0.788,2.262-1.17,3.291      c-0.391,1.035-0.809,2.023-1.18,2.909c-0.753,1.778-1.408,3.207-1.871,4.194c-0.488,1.002-0.784,1.566-0.784,1.566      c-0.684,1.336-0.842,2.296-0.447,2.944c0.417,0.635,1.279,1.01,2.78,1.107c0,0,1.127,0.066,2.254,0.133      c0.57,0.043,1.141,0.086,1.568,0.118c0.433,0.033,0.711,0.064,0.711,0.064s1.111,0.136,2.223,0.271      c1.126,0.159,2.253,0.318,2.253,0.318s1.144,0.19,2.289,0.379c0.585,0.097,1.128,0.218,1.554,0.304      c0.422,0.09,0.703,0.149,0.703,0.149s1.142,0.242,2.283,0.484c1.155,0.267,2.31,0.534,2.31,0.534s1.172,0.283,2.282,0.622      c1.133,0.344,2.265,0.689,2.265,0.689s1.152,0.357,2.305,0.714c0.581,0.189,1.161,0.379,1.597,0.521      c0.442,0.144,0.717,0.249,0.717,0.249s1.123,0.426,2.245,0.851c1.132,0.451,2.265,0.902,2.265,0.902s1.144,0.487,2.289,0.973      c0.583,0.247,1.118,0.515,1.542,0.712c0.418,0.2,0.697,0.334,0.697,0.334s1.129,0.539,2.259,1.077      c1.137,0.565,2.274,1.131,2.274,1.131C329.32,271.545,330.626,271.835,331.873,271.557z"
/>
<path
   style="fill:#E0486C;"
   d="M181.384,180.345c0,0-1.141-0.641-2.283-1.281c-1.168-0.632-2.336-1.263-2.336-1.263      c-1.545-0.816-2.918-0.97-4.081-0.553l6.552,17.911l0,0c0.99-0.353,1.753-1.329,2.36-2.864c0,0,0.484-1.154,0.968-2.308      c0.511-1.163,1.021-2.326,1.021-2.326c0.692-1.541,0.889-2.92,0.541-4.139C183.778,182.3,182.888,181.248,181.384,180.345z"
/>
<path
   style="fill:#E0486C;"
   d="M251.173,192.262c0.157,0.378,0.324,0.718,0.503,1.021c0.175,0.314,0.359,0.594,0.557,0.835      c0.396,0.483,0.842,0.817,1.35,1.003c0.979,0.36,2.186,0.114,3.65-0.684c0,0,1.102-0.576,2.204-1.151      c1.128-0.565,2.257-1.131,2.257-1.131c1.55-0.721,2.595-1.646,3.112-2.803c0.518-1.158,0.505-2.54-0.099-4.215      c0,0-0.452-1.222-0.904-2.444c-0.478-1.232-0.955-2.464-0.955-2.464c-0.673-1.607-1.622-2.619-2.774-3.042      c-0.598-0.219-1.241-0.286-1.927-0.199c-0.343,0.044-0.696,0.123-1.062,0.246c-0.369,0.134-0.748,0.306-1.138,0.517      c0,0-1.153,0.636-2.307,1.271c-1.127,0.644-2.255,1.289-2.255,1.289c-1.501,0.905-2.385,1.954-2.73,3.18      c-0.342,1.215-0.143,2.599,0.553,4.141c0,0,0.504,1.162,1.007,2.324C250.696,191.109,251.173,192.262,251.173,192.262z"
/>
<path
   style="fill:#E0486C;"
   d="M310.527,239.149c-0.522,1.58-0.538,2.796,0.004,3.697c0.564,0.889,1.577,1.516,3.214,1.883      c0,0,1.23,0.26,2.46,0.521c0.621,0.141,1.241,0.281,1.707,0.386c0.471,0.107,0.773,0.187,0.773,0.187      c1.608,0.429,2.984,0.391,4.124-0.164c1.141-0.555,2.038-1.621,2.697-3.275c0,0,0.118-0.306,0.275-0.76      c0.158-0.458,0.369-1.069,0.58-1.68c0.411-1.242,0.822-2.484,0.822-2.484c0.514-1.703,0.508-3.127-0.148-4.174      c-0.634-1.06-1.809-1.796-3.514-2.173c0,0-0.32-0.072-0.8-0.18c-0.478-0.108-1.113-0.247-1.771-0.366      c-1.295-0.234-2.59-0.467-2.59-0.467c-1.74-0.256-3.108-0.022-4.157,0.692c-1.048,0.713-1.77,1.9-2.22,3.513      c0,0-0.345,1.215-0.689,2.429c-0.169,0.597-0.367,1.206-0.518,1.66C310.627,238.848,310.527,239.149,310.527,239.149z"
/>
<path
   style="fill:#E0486C;"
   d="M337.7,311.329c-1.182-1.326-2.388-2.02-3.65-2.149c-1.261-0.129-2.569,0.307-3.937,1.262      c0,0-1.021,0.716-2.112,1.393c-1.072,0.667-2.143,1.334-2.143,1.334c-1.409,0.909-2.193,1.839-2.347,2.881l18.785,3.299      c0.185-1.22-0.251-2.55-1.321-3.972c0,0-0.807-1.024-1.613-2.047C338.57,312.319,337.7,311.329,337.7,311.329z"
/>
<path
   style="fill:#00BF33;"
   d="M257.898,315.228l12.411,4.601c0,0,0.322,1.43,0.599,2.926c0.15,0.749,0.237,1.493,0.32,2.065     c0.075,0.572,0.124,0.954,0.124,0.954c0.129,1.058,0.071,2.043-0.104,2.971c-0.088,0.464-0.209,0.912-0.362,1.343     c-0.165,0.425-0.363,0.832-0.592,1.222c-0.898,1.567-2.361,2.792-4.266,3.601c0,0-1.45,0.614-2.885,1.138     c-1.462,0.513-2.888,0.951-2.888,0.951s-0.362,0.102-0.905,0.243c-0.543,0.141-1.262,0.32-1.972,0.484     c-0.706,0.17-1.438,0.293-1.968,0.393c-0.532,0.093-0.886,0.155-0.886,0.155s-0.35,0.058-0.875,0.146     c-0.533,0.074-1.237,0.165-1.932,0.243c-0.692,0.082-1.381,0.144-1.905,0.171c-0.517,0.029-0.861,0.049-0.861,0.049     s-1.373,0.095-2.737,0.071c-0.68-0.006-1.341-0.012-1.844-0.039c-0.501-0.031-0.834-0.052-0.834-0.052s-0.328-0.028-0.821-0.071     c-0.489-0.044-1.132-0.107-1.78-0.208c-0.644-0.093-1.275-0.195-1.742-0.275c-0.233-0.038-0.428-0.077-0.566-0.107     c-0.137-0.029-0.215-0.045-0.215-0.045s-1.254-0.239-2.45-0.54c-1.215-0.321-2.359-0.678-2.359-0.678s-1.163-0.406-2.253-0.842     c-1.106-0.457-2.147-0.964-2.147-0.964s-0.258-0.113-0.645-0.315c-0.387-0.2-0.893-0.47-1.383-0.743     c-0.49-0.266-0.972-0.563-1.327-0.789c-0.351-0.225-0.585-0.375-0.585-0.375s-0.231-0.15-0.576-0.376     c-0.342-0.224-0.796-0.56-1.23-0.882c-0.872-0.634-1.678-1.349-1.678-1.349s-0.197-0.178-0.493-0.444     c-0.291-0.26-0.672-0.627-1.039-1.01c-0.367-0.377-0.717-0.753-0.973-1.034c-0.253-0.295-0.421-0.491-0.421-0.491     c-0.443-0.528-0.849-0.892-1.242-1.158c-0.393-0.271-0.771-0.393-1.156-0.388c-0.37-0.015-0.743,0.11-1.135,0.377     c-0.392,0.253-0.801,0.621-1.25,1.144c0,0-0.167,0.204-0.426,0.484c-0.258,0.279-0.613,0.652-0.983,1.025     c-0.189,0.186-0.377,0.373-0.554,0.548c-0.181,0.165-0.35,0.318-0.495,0.45c-0.298,0.263-0.498,0.438-0.498,0.438     s-0.814,0.709-1.693,1.33c-0.439,0.318-0.894,0.64-1.241,0.871c-0.348,0.22-0.58,0.367-0.58,0.367s-0.177,0.11-0.486,0.303     c-0.311,0.188-0.768,0.475-1.325,0.779c-0.555,0.299-1.22,0.645-1.961,1.006c-0.736,0.349-1.536,0.682-2.37,1.02     c-1.651,0.641-3.413,1.181-4.766,1.501c-0.68,0.171-1.26,0.303-1.659,0.374c-0.406,0.076-0.637,0.119-0.637,0.119     s-0.313,0.057-0.783,0.143c-0.476,0.088-1.112,0.189-1.749,0.26c-0.64,0.078-1.293,0.146-1.788,0.193     c-0.249,0.026-0.453,0.038-0.595,0.046c-0.143,0.008-0.225,0.013-0.225,0.013s-1.318,0.066-2.685,0.062     c-1.342-0.023-2.74-0.105-2.74-0.105s-0.258-0.015-0.708-0.054c-0.451-0.039-1.099-0.098-1.89-0.186     c-1.566-0.186-3.694-0.526-5.827-1.055c-1.083-0.247-2.137-0.561-3.149-0.87c-1.019-0.303-1.947-0.638-2.753-0.937     c-1.625-0.59-2.684-1.074-2.684-1.074c-1.91-0.815-3.333-2.079-4.225-3.627c-0.448-0.812-0.778-1.677-0.945-2.603     c-0.157-0.932-0.178-1.913-0.057-2.933c0,0,0.13-0.979,0.412-2.623c0.294-1.645,0.794-3.964,1.614-6.578     c0.842-2.621,1.966-5.521,3.507-8.355c1.52-2.834,3.388-5.578,5.461-7.966c2.082-2.395,4.376-4.425,6.601-6.013     c2.208-1.599,4.435-2.741,6.284-3.556c0.964-0.397,1.806-0.727,2.581-0.979c0.781-0.25,1.447-0.44,1.988-0.586     c1.119-0.271,1.738-0.382,1.738-0.382c0.651-0.136,1.212-0.283,1.627-0.494c0.209-0.105,0.385-0.223,0.529-0.358     c0.155-0.128,0.282-0.27,0.377-0.432c0.366-0.654,0.313-1.548-0.12-2.857c0,0-0.333-0.96-0.61-1.979     c-0.259-0.994-0.475-2.058-0.475-2.058s-0.049-0.259-0.11-0.65c-0.062-0.391-0.139-0.921-0.206-1.464     c-0.074-0.548-0.101-1.074-0.133-1.489c-0.025-0.414-0.041-0.69-0.041-0.69s-0.011-0.281-0.027-0.703     c-0.003-0.414-0.001-0.974,0.013-1.545c0.01-0.574,0.039-1.15,0.078-1.574c0.037-0.432,0.062-0.72,0.062-0.72     s0.079-1.172,0.268-2.335c0.089-0.584,0.183-1.189,0.272-1.629c0.093-0.441,0.155-0.735,0.155-0.735s0.071-0.297,0.176-0.742     c0.108-0.448,0.26-1.052,0.443-1.637c0.178-0.591,0.37-1.191,0.52-1.644c0.149-0.455,0.265-0.743,0.265-0.743     s0.418-1.191,0.919-2.392c0.506-1.177,1.086-2.382,1.086-2.382s0.594-1.156,1.264-2.336c0.671-1.156,1.43-2.305,1.43-2.305     s0.187-0.298,0.487-0.719c0.3-0.422,0.71-0.987,1.135-1.554c0.422-0.575,0.87-1.122,1.213-1.533     c0.347-0.413,0.578-0.688,0.578-0.688s0.232-0.277,0.581-0.693c0.353-0.416,0.841-0.94,1.342-1.479     c0.995-1.087,2.087-2.101,2.087-2.101s0.279-0.255,0.696-0.637c0.421-0.389,0.994-0.886,1.588-1.366     c0.591-0.486,1.199-0.97,1.662-1.331c0.469-0.347,0.781-0.578,0.781-0.578c0.827-0.606,1.691-1.095,2.577-1.394     c0.886-0.296,1.791-0.454,2.695-0.458c0.904,0.018,1.809,0.18,2.691,0.486c0.882,0.319,1.742,0.808,2.563,1.424     c0,0,0.316,0.225,0.775,0.59c0.46,0.366,1.063,0.856,1.649,1.348c0.589,0.485,1.157,0.992,1.573,1.385     c0.414,0.387,0.689,0.645,0.689,0.645s1.082,1.024,2.064,2.125c0.495,0.543,0.975,1.081,1.325,1.491     c0.343,0.421,0.572,0.702,0.572,0.702s0.227,0.279,0.568,0.696c0.335,0.424,0.782,0.959,1.195,1.541     c0.836,1.15,1.594,2.285,1.594,2.285s0.737,1.173,1.398,2.327c0.336,0.568,0.638,1.183,0.866,1.619     c0.222,0.442,0.37,0.736,0.37,0.736s0.142,0.295,0.354,0.737c0.205,0.449,0.463,1.058,0.709,1.655     c0.503,1.183,0.897,2.399,0.897,2.399s0.103,0.299,0.257,0.747c0.153,0.442,0.342,1.037,0.505,1.645     c0.167,0.602,0.321,1.195,0.43,1.636c0.11,0.44,0.166,0.746,0.166,0.746s0.24,1.199,0.402,2.365     c0.151,1.195,0.24,2.337,0.24,2.337s0.024,0.29,0.047,0.727c0.024,0.436,0.048,1.01,0.061,1.572     c0.018,0.559-0.008,1.14-0.017,1.556c-0.016,0.417-0.027,0.695-0.027,0.695s-0.017,0.273-0.043,0.682     c-0.038,0.416-0.095,0.963-0.162,1.497c-0.062,0.531-0.144,1.059-0.221,1.46c-0.075,0.393-0.124,0.655-0.124,0.655     s-0.198,1.038-0.497,2.054c-0.144,0.506-0.285,0.991-0.411,1.36c-0.129,0.367-0.216,0.612-0.216,0.612     c-0.43,1.297-0.518,2.211-0.139,2.861c0.175,0.333,0.485,0.588,0.903,0.801c0.407,0.219,0.946,0.384,1.624,0.512     c0,0,0.548,0.11,1.545,0.361c0.507,0.123,1.098,0.297,1.785,0.524c0.345,0.113,0.715,0.238,1.109,0.378     c0.379,0.145,0.78,0.305,1.204,0.481c1.705,0.699,3.637,1.702,5.676,3.053c2.032,1.35,4.094,3.066,6.049,5.077     c1.948,2.008,3.707,4.308,5.225,6.691c0.724,1.186,1.443,2.398,2.023,3.58c0.299,0.592,0.59,1.182,0.859,1.76     c0.255,0.575,0.497,1.141,0.726,1.694c0.472,1.109,0.834,2.144,1.152,3.085c0.157,0.476,0.303,0.921,0.439,1.333     c0.119,0.415,0.228,0.797,0.327,1.141c0.386,1.393,0.586,2.223,0.586,2.223l-12.411-4.601c0,0-0.455-1.203-0.939-2.332     c-0.233-0.564-0.521-1.13-0.717-1.54c-0.204-0.408-0.339-0.681-0.339-0.681s-0.141-0.265-0.352-0.662     c-0.224-0.397-0.533-0.919-0.842-1.424c-0.601-1.012-1.296-1.961-1.296-1.961s-0.167-0.234-0.417-0.585     c-0.245-0.346-0.587-0.801-0.953-1.243c-0.358-0.441-0.717-0.867-0.987-1.179c-0.268-0.312-0.467-0.515-0.467-0.515     s-0.755-0.827-1.531-1.575c-0.805-0.757-1.603-1.433-1.603-1.433c-1.151-0.898-2.257-1.249-3.354-1.207     c-0.549,0.021-1.031,0.191-1.44,0.485c-0.408,0.294-0.736,0.713-1.043,1.245c-0.562,1.066-0.929,2.251-1.185,3.628     c-0.26,1.375-0.322,2.628-0.186,3.839c0.03,0.215,0.074,0.429,0.125,0.645l-7.259-2.691c0.069-0.24,0.293-0.831,0.547-1.741     c0.214-0.915,0.497-2.148,0.536-3.675c0.055-1.521-0.057-3.347-0.619-5.336c-0.545-1.984-1.524-4.133-3.036-6.101     c-1.497-1.984-3.54-3.713-6.048-4.984c-1.257-0.633-2.688-1.124-4.112-1.449c-1.432-0.343-2.92-0.439-4.431-0.405     c-3.016,0.124-6.173,1.064-8.886,2.815c-2.712,1.758-4.898,4.229-6.303,7.187c-0.083,0.189-0.17,0.375-0.262,0.56l-0.229,0.581     c-0.179,0.378-0.269,0.788-0.427,1.174c-0.217,0.796-0.455,1.583-0.567,2.386c-0.128,0.8-0.227,1.602-0.232,2.407     c-0.033,0.402,0.009,0.804,0,1.206l0.045,0.602c0.004,0.201,0.027,0.401,0.058,0.601c0.348,3.2,1.629,6.321,3.545,8.783     c0.11,0.162,0.233,0.313,0.363,0.457l0.369,0.448c0.275,0.27,0.507,0.581,0.794,0.833c0.524,0.557,1.122,1.022,1.698,1.498     c1.202,0.891,2.471,1.651,3.834,2.222c1.376,0.57,2.77,0.963,4.122,1.189c1.357,0.229,2.695,0.255,3.986,0.169     c1.291-0.091,2.538-0.321,3.707-0.661c1.168-0.346,2.256-0.801,3.245-1.32c1.992-1.03,3.531-2.353,4.713-3.599     c0.589-0.63,1.067-1.266,1.497-1.849c0.197-0.305,0.392-0.589,0.567-0.866c0.153-0.291,0.335-0.542,0.463-0.805     c0.572-1.016,0.855-1.854,1.063-2.327l7.257,2.69c0.084,0.497,0.226,0.992,0.421,1.489c0.184,0.492,0.397,0.972,0.675,1.466     c0.338,0.616,0.497,1.164,0.547,1.665c0.024,0.25,0.018,0.486-0.019,0.708c-0.048,0.214-0.127,0.413-0.234,0.594     c-0.413,0.737-1.357,1.154-2.703,1.175c-1.364,0.01-2.582,0.253-3.72,0.686c-1.112,0.46-2.17,1.129-3.243,2.023     c-1.103,0.898-1.934,1.811-2.623,2.836c-0.654,1.019-0.773,2.029-0.277,3.003c0.507,0.986,1.351,1.764,2.699,2.321     c0,0,0.062,0.025,0.172,0.068c0.11,0.044,0.267,0.104,0.452,0.167c0.373,0.131,0.879,0.303,1.399,0.467     c0.524,0.172,1.045,0.309,1.442,0.41c0.401,0.1,0.669,0.166,0.669,0.166s0.274,0.062,0.686,0.156     c0.414,0.09,0.957,0.182,1.521,0.276c1.132,0.199,2.281,0.29,2.281,0.29s0.291,0.029,0.728,0.072     c0.444,0.046,1.028,0.083,1.617,0.101c0.591,0.022,1.195,0.034,1.652,0.037c0.451-0.01,0.751-0.016,0.751-0.016     s0.6-0.018,1.528-0.076c0.929-0.056,2.148-0.203,3.419-0.387c1.229-0.217,2.534-0.456,3.465-0.709     c0.946-0.241,1.592-0.425,1.592-0.425c1.675-0.499,2.938-1.397,3.642-2.633c0.18-0.307,0.33-0.631,0.448-0.972     c0.106-0.348,0.18-0.711,0.223-1.09c0.085-0.758,0.056-1.568-0.153-2.448c0,0-0.082-0.318-0.205-0.796     c-0.131-0.477-0.281-1.092-0.49-1.714C258.327,316.397,257.898,315.228,257.898,315.228z M201.961,276.671     c0.293,0.465,0.68,0.796,1.14,1.001c0.23,0.103,0.476,0.17,0.743,0.213c0.271,0.051,0.56,0.073,0.864,0.063     c1.219-0.035,2.433-0.346,3.759-0.808c1.348-0.479,2.448-1.012,3.434-1.779c0.963-0.727,1.765-1.685,2.494-2.841     c0.35-0.567,0.734-1.027,1.139-1.307c0.405-0.278,0.827-0.428,1.248-0.435c0.421,0.016,0.842,0.164,1.243,0.446     c0.401,0.295,0.78,0.75,1.123,1.321c0.715,1.168,1.505,2.131,2.458,2.87c0.975,0.781,2.069,1.324,3.428,1.815     c1.325,0.503,2.533,0.816,3.758,0.846c0.597,0.039,1.137-0.05,1.604-0.261c0.457-0.196,0.844-0.517,1.142-0.98     c0.595-0.924,0.865-2.08,0.636-3.513c0,0-0.055-0.333-0.151-0.915c-0.11-0.574-0.29-1.387-0.55-2.402     c-0.539-1.968-1.497-4.681-2.911-7.29c-1.389-2.61-3.208-5.164-4.779-6.98c-0.778-0.919-1.483-1.636-1.984-2.162     c-0.251-0.261-0.452-0.463-0.591-0.592c-0.139-0.133-0.213-0.203-0.213-0.203c-0.63-0.595-1.298-1.07-1.988-1.38     c-0.69-0.297-1.401-0.456-2.113-0.473c-0.711,0.005-1.424,0.162-2.118,0.452c-0.693,0.292-1.366,0.77-2.003,1.356     c0,0-0.075,0.07-0.215,0.202c-0.14,0.131-0.344,0.322-0.598,0.582c-0.507,0.52-1.219,1.234-2.008,2.14     c-1.59,1.799-3.442,4.327-4.858,6.927c-1.443,2.591-2.435,5.273-2.983,7.262c-0.139,0.499-0.256,0.951-0.354,1.347     c-0.093,0.406-0.164,0.763-0.221,1.051c-0.107,0.574-0.169,0.901-0.169,0.901C201.126,274.59,201.38,275.747,201.961,276.671z      M203.767,324.221c0.256-0.486,0.353-0.981,0.301-1.474c-0.054-0.491-0.231-1.024-0.57-1.532     c-0.627-1.046-1.489-1.929-2.554-2.834c-1.057-0.907-2.081-1.612-3.215-2.064c-1.114-0.467-2.362-0.705-3.711-0.747     c-1.366-0.028-2.281-0.482-2.704-1.208c-0.205-0.385-0.304-0.824-0.253-1.323c0.062-0.505,0.249-1.057,0.569-1.644     c0.346-0.599,0.615-1.193,0.81-1.784c0.234-0.606,0.346-1.191,0.454-1.801c0.154-1.2,0.112-2.455-0.136-3.835     c-0.234-1.382-0.597-2.574-1.144-3.647c-0.305-0.536-0.617-0.957-1.028-1.256c-0.408-0.298-0.888-0.474-1.437-0.501     c-1.098-0.054-2.201,0.285-3.364,1.169c0,0-0.205,0.167-0.506,0.427c-0.302,0.26-0.706,0.616-1.111,0.989     c-0.409,0.372-0.775,0.758-1.069,1.056c-0.288,0.301-0.48,0.503-0.48,0.503s-0.197,0.201-0.477,0.51     c-0.273,0.309-0.636,0.73-0.998,1.168c-0.369,0.437-0.72,0.888-0.968,1.232c-0.254,0.348-0.423,0.58-0.423,0.58     s-0.703,0.94-1.318,1.946c-0.313,0.501-0.637,1.021-0.855,1.413c-0.217,0.395-0.361,0.659-0.361,0.659s-0.14,0.271-0.35,0.677     c-0.21,0.411-0.488,0.967-0.73,1.53c-0.251,0.565-0.496,1.144-0.677,1.586c-0.183,0.442-0.283,0.736-0.283,0.736     s-0.46,1.175-0.861,2.413c-0.383,1.222-0.729,2.515-0.729,2.515c-0.197,0.845-0.259,1.655-0.19,2.417     c0.079,0.756,0.315,1.452,0.666,2.094c0.705,1.22,1.931,2.156,3.617,2.661c0,0,0.315,0.091,0.787,0.229     c0.471,0.133,1.118,0.285,1.746,0.431c1.25,0.303,2.513,0.494,2.513,0.494s0.311,0.053,0.778,0.132     c0.46,0.081,1.083,0.166,1.706,0.229c0.62,0.068,1.23,0.124,1.682,0.16c0.46,0.024,0.766,0.039,0.766,0.039     s0.303,0.007,0.758,0.018c0.457,0.003,1.038,0.022,1.642-0.006c0.599-0.022,1.186-0.055,1.621-0.084     c0.434-0.029,0.722-0.056,0.722-0.056s1.175-0.108,2.284-0.264c1.135-0.176,2.213-0.411,2.213-0.411s0.067-0.015,0.184-0.04     c0.116-0.025,0.282-0.062,0.485-0.117c0.404-0.105,0.933-0.249,1.449-0.401c0.512-0.145,1.023-0.318,1.404-0.457     c0.375-0.137,0.625-0.229,0.625-0.229C202.378,326.01,203.262,325.183,203.767,324.221z"
/>
<path
   style="fill:#FFFFFF;"
   d="M253.404,306.624c0,0-0.167-0.234-0.417-0.585c-0.245-0.346-0.587-0.801-0.953-1.242     c-0.358-0.442-0.717-0.867-0.987-1.179c-0.268-0.312-0.468-0.515-0.468-0.515s-0.755-0.827-1.531-1.575     c-0.805-0.757-1.603-1.433-1.603-1.433c-1.152-0.898-2.257-1.249-3.354-1.207c-0.549,0.021-1.031,0.191-1.44,0.485     c-0.408,0.294-0.736,0.713-1.043,1.245c-0.562,1.066-0.929,2.251-1.185,3.628c-0.261,1.375-0.322,2.628-0.186,3.839     c0.03,0.215,0.074,0.429,0.125,0.645l17.525,6.496c0,0-0.455-1.203-0.939-2.332c-0.233-0.564-0.521-1.13-0.717-1.54     c-0.204-0.408-0.339-0.681-0.339-0.681s-0.141-0.265-0.352-0.662c-0.224-0.397-0.533-0.919-0.842-1.424     C254.098,307.573,253.404,306.624,253.404,306.624z"
/>
<path
   style="fill:#FFFFFF;"
   d="M220.994,252.778c-0.63-0.595-1.298-1.07-1.988-1.38c-0.69-0.297-1.401-0.456-2.113-0.473     c-0.711,0.005-1.424,0.162-2.118,0.452c-0.693,0.292-1.366,0.77-2.003,1.356c0,0-0.075,0.07-0.215,0.202     c-0.14,0.131-0.344,0.322-0.598,0.582c-0.507,0.52-1.219,1.234-2.008,2.14c-1.59,1.799-3.442,4.327-4.858,6.927     c-1.443,2.591-2.435,5.273-2.983,7.262c-0.139,0.499-0.256,0.951-0.354,1.347c-0.093,0.406-0.164,0.763-0.221,1.051     c-0.107,0.574-0.169,0.901-0.169,0.901c-0.24,1.444,0.014,2.602,0.595,3.526c0.293,0.465,0.68,0.796,1.14,1.001     c0.23,0.103,0.476,0.17,0.743,0.213c0.271,0.051,0.56,0.073,0.864,0.063c1.219-0.035,2.433-0.346,3.759-0.808     c1.348-0.479,2.448-1.012,3.434-1.779c0.963-0.727,1.766-1.685,2.494-2.841c0.35-0.567,0.734-1.027,1.139-1.307     c0.405-0.278,0.827-0.428,1.248-0.435c0.421,0.016,0.842,0.164,1.243,0.447c0.4,0.295,0.78,0.75,1.123,1.321     c0.715,1.168,1.504,2.131,2.457,2.87c0.975,0.781,2.069,1.324,3.428,1.815c1.325,0.503,2.533,0.816,3.758,0.846     c0.597,0.039,1.137-0.05,1.604-0.261c0.457-0.196,0.844-0.517,1.142-0.98c0.595-0.924,0.865-2.08,0.636-3.513     c0,0-0.055-0.333-0.151-0.915c-0.11-0.574-0.29-1.387-0.55-2.402c-0.539-1.968-1.497-4.681-2.911-7.29     c-1.389-2.61-3.208-5.164-4.779-6.98c-0.778-0.919-1.483-1.636-1.984-2.162c-0.251-0.261-0.452-0.463-0.591-0.592     C221.068,252.849,220.994,252.778,220.994,252.778z"
/>
<path
   style="fill:#FFFFFF;"
   d="M182.618,302.716c0,0-0.197,0.201-0.477,0.51c-0.273,0.309-0.636,0.73-0.998,1.168     c-0.369,0.437-0.72,0.888-0.968,1.232c-0.254,0.348-0.423,0.58-0.423,0.58s-0.703,0.94-1.318,1.946     c-0.313,0.501-0.637,1.021-0.855,1.413c-0.217,0.395-0.361,0.659-0.361,0.659s-0.14,0.271-0.35,0.677     c-0.21,0.411-0.488,0.967-0.73,1.53c-0.251,0.565-0.496,1.144-0.677,1.586c-0.183,0.442-0.283,0.736-0.283,0.736     s-0.46,1.175-0.862,2.413c-0.383,1.222-0.729,2.515-0.729,2.515c-0.197,0.845-0.259,1.655-0.19,2.417     c0.079,0.756,0.316,1.452,0.666,2.094c0.705,1.22,1.931,2.156,3.617,2.661c0,0,0.315,0.091,0.786,0.229     c0.471,0.133,1.118,0.285,1.746,0.431c1.25,0.303,2.513,0.494,2.513,0.494s0.311,0.053,0.778,0.132     c0.459,0.081,1.083,0.166,1.706,0.229c0.62,0.068,1.23,0.124,1.682,0.16c0.46,0.024,0.766,0.039,0.766,0.039     s0.303,0.007,0.758,0.018c0.457,0.003,1.038,0.022,1.642-0.006c0.599-0.022,1.186-0.055,1.621-0.084     c0.434-0.029,0.722-0.056,0.722-0.056s1.175-0.108,2.284-0.264c1.135-0.176,2.213-0.411,2.213-0.411s0.067-0.015,0.184-0.04     c0.116-0.025,0.282-0.062,0.485-0.117c0.404-0.105,0.933-0.249,1.449-0.401c0.512-0.145,1.023-0.318,1.404-0.457     c0.375-0.137,0.625-0.229,0.625-0.229c1.331-0.509,2.215-1.337,2.721-2.298c0.256-0.486,0.353-0.981,0.301-1.474     c-0.054-0.491-0.231-1.024-0.57-1.532c-0.627-1.046-1.489-1.929-2.554-2.834c-1.057-0.907-2.081-1.612-3.215-2.064     c-1.114-0.467-2.362-0.705-3.711-0.747c-1.366-0.028-2.281-0.482-2.704-1.208c-0.205-0.385-0.304-0.824-0.253-1.323     c0.062-0.505,0.249-1.057,0.569-1.644c0.346-0.599,0.615-1.193,0.81-1.784c0.234-0.606,0.346-1.191,0.454-1.801     c0.154-1.2,0.112-2.455-0.136-3.835c-0.235-1.382-0.597-2.574-1.144-3.647c-0.305-0.536-0.617-0.957-1.028-1.256     c-0.408-0.298-0.888-0.474-1.437-0.501c-1.098-0.054-2.201,0.285-3.364,1.169c0,0-0.205,0.167-0.506,0.427     c-0.302,0.26-0.706,0.616-1.111,0.989c-0.409,0.372-0.775,0.758-1.069,1.056C182.81,302.515,182.618,302.716,182.618,302.716z"
/>
<path
   style="fill:#FFFFFF;"
   d="M241.457,311.682c0.338,0.616,0.497,1.164,0.547,1.665c0.024,0.25,0.018,0.486-0.019,0.708     c-0.048,0.214-0.127,0.413-0.234,0.594c-0.413,0.737-1.357,1.154-2.703,1.175c-1.364,0.01-2.582,0.253-3.72,0.686     c-1.112,0.46-2.17,1.129-3.243,2.023c-1.103,0.898-1.934,1.811-2.623,2.836c-0.654,1.019-0.773,2.029-0.277,3.003     c0.507,0.986,1.351,1.764,2.699,2.321c0,0,0.062,0.025,0.172,0.068c0.11,0.044,0.267,0.104,0.452,0.167     c0.373,0.131,0.879,0.303,1.399,0.467c0.524,0.172,1.045,0.309,1.442,0.41c0.401,0.1,0.669,0.166,0.669,0.166     s0.274,0.062,0.686,0.156c0.414,0.09,0.957,0.182,1.521,0.276c1.132,0.199,2.281,0.29,2.281,0.29s0.291,0.029,0.728,0.072     c0.444,0.046,1.028,0.083,1.617,0.101c0.591,0.022,1.195,0.034,1.652,0.037c0.451-0.01,0.751-0.016,0.751-0.016     s0.6-0.018,1.528-0.076c0.929-0.056,2.148-0.203,3.419-0.387c1.229-0.217,2.534-0.456,3.465-0.709     c0.946-0.241,1.592-0.425,1.592-0.425c1.675-0.499,2.938-1.397,3.642-2.633c0.18-0.307,0.33-0.631,0.448-0.972     c0.106-0.348,0.18-0.711,0.223-1.09c0.085-0.758,0.056-1.568-0.153-2.448c0,0-0.082-0.318-0.205-0.796     c-0.131-0.477-0.281-1.092-0.49-1.714c-0.395-1.24-0.825-2.409-0.825-2.409l-17.536-6.501c0.084,0.497,0.226,0.992,0.421,1.489     C240.967,310.708,241.179,311.189,241.457,311.682z"
/>
<path
   style="fill:#E0486C;"
   d="M223.859,307.728L223.859,307.728c-4.081,4.081-10.697,4.081-14.778,0v0    c-4.081-4.081-4.081-10.697,0-14.778l0,0c4.081-4.081,10.697-4.081,14.778,0h0C227.94,297.031,227.94,303.648,223.859,307.728z"
/>
</g>
</svg>
