<?xml version="1.0" encoding="UTF-8" standalone="no"?>
<!-- Creator: fig2dev Version 3.2.8b -->

<!-- CreationDate: 2024-11-19 14:57:17 -->

<!-- Magnification: 1.05 -->

<svg
   width="569pt"
   height="569pt"
   viewBox="-12 -12 9024 9024"
   version="1.1"
   id="svg8"
   sodipodi:docname="ship-d.svg"
   inkscape:version="1.3.2 (091e20e, 2023-11-25, custom)"
   xmlns:inkscape="http://www.inkscape.org/namespaces/inkscape"
   xmlns:sodipodi="http://sodipodi.sourceforge.net/DTD/sodipodi-0.dtd"
   xmlns="http://www.w3.org/2000/svg"
   xmlns:svg="http://www.w3.org/2000/svg">
  <defs
     id="defs8" />
  <sodipodi:namedview
     id="namedview8"
     pagecolor="#ffffff"
     bordercolor="#999999"
     borderopacity="1"
     inkscape:showpageshadow="2"
     inkscape:pageopacity="0"
     inkscape:pagecheckerboard="0"
     inkscape:deskcolor="#d1d1d1"
     inkscape:document-units="pt"
     inkscape:zoom="2.4477153"
     inkscape:cx="379.12906"
     inkscape:cy="379.33333"
     inkscape:window-width="3840"
     inkscape:window-height="2071"
     inkscape:window-x="-9"
     inkscape:window-y="-9"
     inkscape:window-maximized="1"
     inkscape:current-layer="svg8" />
  <g
     inkscape:groupmode="layer"
     id="layer2"
     inkscape:label="Layer 2">
    <path
       id="rect1"
       d="M 0.010709256 0.010709256 L 0.010709256 9000.0045 L 9000.0045 9000.0045 L 9000.0045 0.010709256 L 0.010709256 0.010709256 z M 2375.6918 1006.9124 L 2600.6894 1231.9099 L 2600.6894 1791.1861 A 1350 1350 0 0 1 3725.677 3121.9123 L 3725.677 5933.998 A 1351 1351 0 0 1 3726.6759 5956.9043 A 1351 1351 0 0 1 3725.677 5970.8665 L 3725.677 6271.9009 L 3725.677 7306.9127 L 4175.672 8206.9028 L 3050.6844 8206.9028 L 3500.6794 7306.9127 L 3500.6794 6702.7299 A 1351 1351 0 0 1 2375.6918 7307.9117 A 1351 1351 0 0 1 1250.681 6702.7067 L 1250.681 7306.9127 L 1700.676 8206.9028 L 575.68842 8206.9028 L 1025.6835 7306.9127 L 1025.6835 6316.9004 L 1025.6835 5970.8665 A 1351 1351 0 0 1 1024.6845 5956.9043 A 1351 1351 0 0 1 1025.6835 5949.3076 L 1025.6835 3166.9118 L 1031.6075 3166.9118 A 1350 1350 0 0 1 1025.6835 3121.9123 A 1350 1350 0 0 1 2150.6711 1801.5242 L 2150.6711 1231.9099 L 2375.6918 1006.9124 z M 1250.681 3854.403 L 1250.681 5222.7642 A 1351 1351 0 0 1 2375.6918 4605.897 A 1351 1351 0 0 1 3500.6794 5210.7535 L 3500.6794 3854.4262 A 1350 1350 0 0 1 2375.6918 4471.8975 A 1350 1350 0 0 1 1250.681 3854.403 z " />
  </g>
  <g
     inkscape:groupmode="layer"
     id="layer1"
     inkscape:label="Layer 1">
    <text
       xml:space="preserve"
       x="5917.6318"
       y="3608.0112"
       fill="#ffffff"
       font-family="Courier"
       font-style="normal"
       font-weight="bold"
       font-size="1296"
       text-anchor="start"
       id="text7"
       style="font-style:italic;font-variant:normal;font-weight:bold;font-stretch:normal;font-size:1427.35px;font-family:'Segoe UI';-inkscape-font-specification:'Segoe UI, Bold Italic';font-variant-ligatures:normal;font-variant-caps:normal;font-variant-numeric:normal;font-variant-east-asian:normal;text-anchor:start;fill:#ffffff"
       inkscape:transform-center-x="422.77221"
       inkscape:transform-center-y="223.53473">250</text>
    <text
       xml:space="preserve"
       x="4211.1631"
       y="1992.0695"
       fill="#ffffff"
       font-family="Courier"
       font-style="normal"
       font-weight="bold"
       font-size="1584"
       text-anchor="start"
       id="text6"
       style="font-style:italic;font-variant:normal;font-weight:bold;font-stretch:normal;font-size:2283.75px;font-family:'Segoe UI';-inkscape-font-specification:'Segoe UI, Bold Italic';font-variant-ligatures:normal;font-variant-caps:normal;font-variant-numeric:normal;font-variant-east-asian:normal;text-anchor:start;fill:#ffffff">APB</text>
    <rect
       x="7875"
       y="4995"
       width="225"
       height="3150"
       fill="#ffffff"
       stroke="#000000"
       stroke-width="8px"
       id="rect6" />
    <text
       xml:space="preserve"
       x="5887.4102"
       y="4889.7578"
       fill="#ffffff"
       font-family="Courier"
       font-style="normal"
       font-weight="bold"
       font-size="1296"
       text-anchor="start"
       id="text8"
       style="font-style:italic;font-variant:normal;font-weight:bold;font-stretch:normal;font-size:1427.35px;font-family:'Segoe UI';-inkscape-font-specification:'Segoe UI, Bold Italic';font-variant-ligatures:normal;font-variant-caps:normal;font-variant-numeric:normal;font-variant-east-asian:normal;text-anchor:start;fill:#ffffff">m</text>
  </g>
</svg>
