<?xml version="1.0" encoding="UTF-8" standalone="no"?>
<!-- Creator: fig2dev Version 3.2.8b -->
<!-- CreationDate: 2024-07-13 13:39:10 -->
<!-- Magnification: 1.05 -->
<svg	xmlns="http://www.w3.org/2000/svg"
	xmlns:xlink="http://www.w3.org/1999/xlink"
	width="285pt" height="285pt"
	viewBox="-2262 -2262 4524 4524">
<g fill="none">
<!-- Line -->
<rect x="-2250" y="-2250" width="4500" height="4500" fill="#ffffff"/>
<!-- Line -->
<rect x="-2250" y="-2250" width="4500" height="4500" fill="#ffffff"
	stroke="#000000" stroke-width="8px"/>
<!-- Circle -->
<circle cx="0" cy="0" r="2070" fill="#ff0000"/>
<!-- Circle -->
<circle cx="0" cy="0" r="1890" fill="#ffffff"/>
<!-- Line -->
<polyline points=" -1541,-1098 330,775 807,298 -1056,-1569 -1122,-1522 -1181,-1476 -1253,-1416
 -1335,-1340 -1388,-1285 -1443,-1221 -1487,-1167 -1540,-1098" fill="#0000ff"/>
<!-- Line -->
<polyline points=" -332,-1861 -332,741 343,741 344,-1861 195,-1881 94,-1889 1,-1891 -93,-1888 -183,-1882
 -260,-1872 -332,-1861" fill="#00ff00"/>
<!-- Line -->
<polyline points=" 1066,-1562 -765,270 -288,747 1546,-1089 1466,-1195 1400,-1272 1330,-1343 1271,-1399
 1211,-1451 1153,-1498 1067,-1563" fill="#ffff00"/>
<!-- Circle -->
<circle cx="0" cy="0" r="1125" fill="#a14000"/>
</g>
</svg>
