<?xml version="1.0" encoding="UTF-8" standalone="no"?>
<!-- Creator: fig2dev Version 3.2.8b -->
<!-- CreationDate: 2024-06-16 16:03:16 -->
<!-- Magnification: 1.05 -->
<svg	xmlns="http://www.w3.org/2000/svg"
	xmlns:xlink="http://www.w3.org/1999/xlink"
	width="284pt" height="284pt"
	viewBox="-2251 -2251 4502 4502">
<g fill="none">
<!-- Line -->
<rect x="-2250" y="-2250" width="4500" height="4500" fill="#ffffff"/>
<!-- Line -->
<defs>
<clipPath id="cp0">
	<path clip-rule="evenodd" d="M -2251,-2251 H 2251 V 2251 H -2251 z
		M 1577,-1512 1693,-1662 1690,-1473 1733,-1721 1699,-1733z"/>
</clipPath>
</defs>
<polyline points=" -2025,2025 -1305,1485 -990,1485 -720,540 0,900 540,-180 1170,-180 1710,-1710
" clip-path="url(#cp0)"
	stroke="#ff0000" stroke-width="30px"/>
<!-- Forward arrow to point 1710,-1710 -->
<polyline points=" 1577,-1512 1693,-1662 1690,-1473"
	stroke="#ff0000" stroke-width="30px" stroke-miterlimit="8"/>
<!-- Line -->
<polyline points=" -2025,-2025 -2025,2025 2025,2025"
	stroke="#000000" stroke-width="45px"/>
<!-- Line -->
<polyline points=" -2115,-1890 -2025,-2070 -1935,-1890"
	stroke="#000000" stroke-width="45px"/>
<!-- Line -->
<polyline points=" 1890,1935 2070,2025 1890,2115"
	stroke="#000000" stroke-width="45px"/>
<!-- Text -->
<text xml:space="preserve" x="-1485" y="-675" fill="#000000" font-family="Palatino" font-style="italic" font-weight="bold" font-size="768" text-anchor="start">Pop.</text>
</g>
</svg>
