<?xml version="1.0" encoding="UTF-8" standalone="no"?>
<!-- Creator: fig2dev Version 3.2.8b -->
<!-- CreationDate: 2024-07-27 15:05:56 -->
<!-- Magnification: 1.05 -->
<svg	xmlns="http://www.w3.org/2000/svg"
	xmlns:xlink="http://www.w3.org/1999/xlink"
	width="285pt" height="285pt"
	viewBox="-2262 -2262 4524 4524">
<g fill="none">
<!-- Line -->
<rect x="-2250" y="-2250" width="4500" height="4500" fill="#ffffff"
	stroke="#000000" stroke-width="8px"/>
<!-- Circle -->
<circle cx="0" cy="0" r="1786"
	stroke="#000000" stroke-width="75px"/>
<!-- Circle -->
<circle cx="1773" cy="-1" r="162" fill="#008f8f"
	stroke="#000000" stroke-width="75px"/>
<!-- Circle -->
<circle cx="-1782" cy="-1" r="162" fill="#008f8f"
	stroke="#000000" stroke-width="75px"/>
<!-- Circle -->
<circle cx="-1637" cy="692" r="162" fill="#008f8f"
	stroke="#000000" stroke-width="75px"/>
<!-- Circle -->
<circle cx="-1252" cy="1251" r="162" fill="#008f8f"
	stroke="#000000" stroke-width="75px"/>
<!-- Circle -->
<circle cx="-695" cy="1623" r="162" fill="#008f8f"
	stroke="#000000" stroke-width="75px"/>
<!-- Circle -->
<circle cx="7" cy="1764" r="162" fill="#008f8f"
	stroke="#000000" stroke-width="75px"/>
<!-- Circle -->
<circle cx="700" cy="1624" r="162" fill="#008f8f"
	stroke="#000000" stroke-width="75px"/>
<!-- Circle -->
<circle cx="1255" cy="1245" r="162" fill="#008f8f"
	stroke="#000000" stroke-width="75px"/>
<!-- Circle -->
<circle cx="1618" cy="693" r="162" fill="#008f8f"
	stroke="#000000" stroke-width="75px"/>
<!-- Circle -->
<circle cx="1618" cy="-689" r="162" fill="#008f8f"
	stroke="#000000" stroke-width="75px"/>
<!-- Circle -->
<circle cx="1251" cy="-1248" r="162" fill="#008f8f"
	stroke="#000000" stroke-width="75px"/>
<!-- Circle -->
<circle cx="694" cy="-1620" r="162" fill="#008f8f"
	stroke="#000000" stroke-width="75px"/>
<!-- Circle -->
<circle cx="0" cy="-1763" r="162" fill="#008f8f"
	stroke="#000000" stroke-width="75px"/>
<!-- Circle -->
<circle cx="-695" cy="-1619" r="162" fill="#008f8f"
	stroke="#000000" stroke-width="75px"/>
<!-- Circle -->
<circle cx="-1618" cy="-693" r="162" fill="#008f8f"
	stroke="#000000" stroke-width="75px"/>
<!-- Circle -->
<circle cx="-1244" cy="-1249" r="162" fill="#008f8f"
	stroke="#000000" stroke-width="75px"/>
<!-- Circle -->
<circle cx="0" cy="0" r="1620" fill="#00b0b0"
	stroke="#008f8f" stroke-width="285px"/>
<!-- Circle -->
<circle cx="0" cy="0" r="162" fill="#008f8f"
	stroke="#000000" stroke-width="75px"/>
<!-- Circle -->
<circle cx="0" cy="-1014" r="162" fill="#008f8f"
	stroke="#000000" stroke-width="75px"/>
<!-- Circle -->
<circle cx="878" cy="-509" r="162" fill="#008f8f"
	stroke="#000000" stroke-width="75px"/>
<!-- Circle -->
<circle cx="878" cy="509" r="162" fill="#008f8f"
	stroke="#000000" stroke-width="75px"/>
<!-- Circle -->
<circle cx="1" cy="1014" r="162" fill="#008f8f"
	stroke="#000000" stroke-width="75px"/>
<!-- Circle -->
<circle cx="-877" cy="508" r="162" fill="#008f8f"
	stroke="#000000" stroke-width="75px"/>
<!-- Circle -->
<circle cx="-879" cy="-507" r="162" fill="#008f8f"
	stroke="#000000" stroke-width="75px"/>
</g>
</svg>
