<?xml version="1.0" encoding="UTF-8" standalone="no"?>
<!-- Creator: fig2dev Version 3.2.8b -->
<!-- CreationDate: 2024-07-26 22:41:02 -->
<!-- Magnification: 1.05 -->
<svg	xmlns="http://www.w3.org/2000/svg"
	xmlns:xlink="http://www.w3.org/1999/xlink"
	width="285pt" height="285pt"
	viewBox="-2262 -2262 4524 4524">
<g fill="none">
<!-- Line -->
<rect x="-2250" y="-2250" width="4500" height="4500" fill="#ffffff"
	stroke="#000000" stroke-width="8px"/>
<!-- Circle -->
<circle cx="1632" cy="698" r="101" fill="#008f8f"
	stroke="#000000" stroke-width="15px"/>
<!-- Circle -->
<circle cx="1644" cy="-699" r="101" fill="#008f8f"
	stroke="#000000" stroke-width="15px"/>
<!-- Circle -->
<circle cx="698" cy="-1621" r="101" fill="#008f8f"
	stroke="#000000" stroke-width="15px"/>
<!-- Circle -->
<circle cx="-1636" cy="-697" r="101" fill="#008f8f"
	stroke="#000000" stroke-width="15px"/>
<!-- Circle -->
<circle cx="-699" cy="-1628" r="101" fill="#008f8f"
	stroke="#000000" stroke-width="15px"/>
<!-- Circle -->
<circle cx="-1633" cy="694" r="101" fill="#008f8f"
	stroke="#000000" stroke-width="15px"/>
<!-- Circle -->
<circle cx="-699" cy="1637" r="101" fill="#008f8f"
	stroke="#000000" stroke-width="15px"/>
<!-- Circle -->
<circle cx="701" cy="1634" r="101" fill="#008f8f"
	stroke="#000000" stroke-width="15px"/>
<!-- Circle -->
<circle cx="-1775" cy="-4" r="101" fill="#008f8f"
	stroke="#000000" stroke-width="15px"/>
<!-- Circle -->
<circle cx="-1253" cy="1254" r="101" fill="#008f8f"
	stroke="#000000" stroke-width="15px"/>
<!-- Circle -->
<circle cx="8" cy="1770" r="101" fill="#008f8f"
	stroke="#000000" stroke-width="15px"/>
<!-- Circle -->
<circle cx="1261" cy="1254" r="101" fill="#008f8f"
	stroke="#000000" stroke-width="15px"/>
<!-- Circle -->
<circle cx="1773" cy="-1" r="101" fill="#008f8f"
	stroke="#000000" stroke-width="15px"/>
<!-- Circle -->
<circle cx="1261" cy="-1260" r="101" fill="#008f8f"
	stroke="#000000" stroke-width="15px"/>
<!-- Circle -->
<circle cx="2" cy="-1772" r="101" fill="#008f8f"
	stroke="#000000" stroke-width="15px"/>
<!-- Circle -->
<circle cx="-1253" cy="-1257" r="101" fill="#008f8f"
	stroke="#000000" stroke-width="15px"/>
<!-- Circle -->
<circle cx="0" cy="45" r="1184"
	stroke="#000000" stroke-width="8px"/>
<!-- Circle -->
<circle cx="0" cy="0" r="1710" fill="#00b0b0"
	stroke="#008f8f" stroke-width="135px"/>
<!-- Circle -->
<circle cx="1" cy="1229" r="101" fill="#008f8f"
	stroke="#000000" stroke-width="15px"/>
<!-- Circle -->
<circle cx="-859" cy="860" r="101" fill="#008f8f"
	stroke="#000000" stroke-width="15px"/>
<!-- Circle -->
<circle cx="-1181" cy="0" r="101" fill="#008f8f"
	stroke="#000000" stroke-width="15px"/>
<!-- Circle -->
<circle cx="1" cy="-1137" r="101" fill="#008f8f"
	stroke="#000000" stroke-width="15px"/>
<!-- Circle -->
<circle cx="814" cy="-819" r="101" fill="#008f8f"
	stroke="#000000" stroke-width="15px"/>
<!-- Circle -->
<circle cx="1185" cy="-4" r="101" fill="#008f8f"
	stroke="#000000" stroke-width="15px"/>
<!-- Circle -->
<circle cx="861" cy="856" r="101" fill="#008f8f"
	stroke="#000000" stroke-width="15px"/>
<!-- Circle -->
<circle cx="-814" cy="-815" r="101" fill="#008f8f"
	stroke="#000000" stroke-width="15px"/>
<!-- Circle -->
<circle cx="580" cy="-249" r="101" fill="#008f8f"
	stroke="#000000" stroke-width="15px"/>
<!-- Circle -->
<circle cx="568" cy="249" r="101" fill="#008f8f"
	stroke="#000000" stroke-width="15px"/>
<!-- Circle -->
<circle cx="253" cy="573" r="101" fill="#008f8f"
	stroke="#000000" stroke-width="15px"/>
<!-- Circle -->
<circle cx="-254" cy="591" r="101" fill="#008f8f"
	stroke="#000000" stroke-width="15px"/>
<!-- Circle -->
<circle cx="-587" cy="249" r="101" fill="#008f8f"
	stroke="#000000" stroke-width="15px"/>
<!-- Circle -->
<circle cx="-599" cy="-252" r="101" fill="#008f8f"
	stroke="#000000" stroke-width="15px"/>
<!-- Circle -->
<circle cx="250" cy="-582" r="101" fill="#008f8f"
	stroke="#000000" stroke-width="15px"/>
<!-- Circle -->
<circle cx="-245" cy="-594" r="101" fill="#008f8f"
	stroke="#000000" stroke-width="15px"/>
<!-- Circle -->
<circle cx="2" cy="-4" r="101" fill="#008f8f"
	stroke="#000000" stroke-width="15px"/>
</g>
</svg>
