<?xml version="1.0" encoding="UTF-8" standalone="no"?>
<!-- Creator: fig2dev Version 3.2.8b -->
<!-- CreationDate: 2024-07-27 10:00:41 -->
<!-- Magnification: 1.05 -->
<svg	xmlns="http://www.w3.org/2000/svg"
	xmlns:xlink="http://www.w3.org/1999/xlink"
	width="285pt" height="285pt"
	viewBox="-2262 -2262 4524 4524">
<g fill="none">
<!-- Line -->
<rect x="-2250" y="-2250" width="4500" height="4500" fill="#ffffff"
	stroke="#000000" stroke-width="8px"/>
<!-- Circle -->
<circle cx="0" cy="0" r="1800" fill="#cccccc"
	stroke="#000000" stroke-width="8px"/>
<!-- Arc -->
<path d="M 0,-1800 A 1727 1727 0 0 0 -1260 -1260" fill="#cccccc"
	stroke="#dddddd" stroke-width="15px"/>
<!-- Line -->
<polyline points=" -1260,-1260 0,0 0,-1800 -1260,-1260" fill="#cccccc"/>
<!-- Circle -->
<circle cx="0" cy="0" r="1350"
	stroke="#eeeeee" stroke-width="30px"/>
<!-- Circle -->
<circle cx="0" cy="0" r="450"
	stroke="#eeeeee" stroke-width="30px"/>
<!-- Circle -->
<circle cx="0" cy="0" r="900"
	stroke="#eeeeee" stroke-width="30px"/>
<!-- Line -->
<polyline points=" -1800,0 1800,0"
	stroke="#eeeeee" stroke-width="15px"/>
<!-- Line -->
<polyline points=" 1665,675 -1665,-675"
	stroke="#eeeeee" stroke-width="15px"/>
<!-- Line -->
<polyline points=" 1260,1260 -1260,-1260"
	stroke="#eeeeee" stroke-width="15px"/>
<!-- Line -->
<polyline points=" 1260,-1260 -1260,1260"
	stroke="#eeeeee" stroke-width="15px"/>
<!-- Line -->
<polyline points=" 675,-1665 -675,1665"
	stroke="#eeeeee" stroke-width="15px"/>
<!-- Line -->
<polyline points=" 1665,-675 -1665,675"
	stroke="#eeeeee" stroke-width="15px"/>
<!-- Line -->
<polyline points=" -675,-1665 675,1665"
	stroke="#eeeeee" stroke-width="15px"/>
<!-- Line -->
<polyline points=" 0,-1800 0,1800"
	stroke="#eeeeee" stroke-width="15px"/>
<!-- Circle -->
<circle cx="900" cy="-540" r="45" fill="#ff0000"
	stroke="#000000" stroke-width="8px"/>
<!-- Circle -->
<circle cx="405" cy="-630" r="45" fill="#ff0000"
	stroke="#000000" stroke-width="8px"/>
<!-- Circle -->
<circle cx="1530" cy="315" r="45" fill="#ff0000"
	stroke="#000000" stroke-width="8px"/>
<!-- Circle -->
<circle cx="-1485" cy="405" r="45" fill="#0000ff"
	stroke="#000000" stroke-width="8px"/>
<!-- Circle -->
<circle cx="-1125" cy="180" r="45" fill="#0000ff"
	stroke="#000000" stroke-width="8px"/>
<!-- Circle -->
<circle cx="-900" cy="585" r="45" fill="#0000ff"
	stroke="#000000" stroke-width="8px"/>
<!-- Circle -->
<circle cx="0" cy="315" r="45" fill="#0000ff"
	stroke="#000000" stroke-width="8px"/>
<!-- Circle -->
<circle cx="0" cy="0" r="1800"
	stroke="#000000" stroke-width="30px"/>
<!-- Circle -->
<circle cx="585" cy="405" r="45" fill="#0000ff"
	stroke="#000000" stroke-width="8px"/>
</g>
</svg>
